<?xml version="1.0" encoding="utf-8"?>
<!-- Generator: Adobe Illustrator 16.0.0, SVG Export Plug-In . SVG Version: 6.00 Build 0)  -->
<svg version="1.1" id="Layer_1" xmlns="http://www.w3.org/2000/svg" xmlns:xlink="http://www.w3.org/1999/xlink" x="0px" y="0px"
	 width="612px" height="792px" viewBox="0 0 612 792" enable-background="new 0 0 612 792" xml:space="preserve">
<rect id="head_frame_1_" x="178" y="286" fill="#231F20" fill-opacity="0" width="256" height="222"/>
<polygon fill="#634132" stroke="#231F20" stroke-width="1.695" stroke-miterlimit="10" points="409.138,456.485 416.198,444.702 
	409.138,444.702 402.076,444.702 "/>
<polygon fill="#634132" stroke="#231F20" stroke-width="1.695" stroke-miterlimit="10" points="381.631,453.276 388.692,441.491 
	381.631,441.493 374.569,441.493 "/>
<polygon fill="#634132" stroke="#231F20" stroke-width="1.695" stroke-miterlimit="10" points="355.31,449.058 362.371,437.272 
	355.31,437.274 348.248,437.274 "/>
<polygon fill="#634132" stroke="#231F20" stroke-width="1.695" stroke-miterlimit="10" points="395.753,455.545 402.814,467.328 
	395.753,467.328 388.692,467.328 "/>
<polygon fill="#634132" stroke="#231F20" stroke-width="1.695" stroke-miterlimit="10" points="365.813,454.971 372.874,466.756 
	365.813,466.754 358.752,466.754 "/>
<path id="PRIMARY_1_" fill="#666666" stroke="#231F20" stroke-width="1.695" stroke-miterlimit="10" d="M289.491,425.786
	c1.461,22.34-7.625,41.125-20.302,41.956c-12.68,0.829-24.138-16.611-25.602-38.952c-1.463-22.344-15.487-56.7-15.487-56.7
	C240.777,371.26,288.024,403.441,289.491,425.786z"/>
<path id="PRIMARY" fill="#666666" stroke="#231F20" stroke-width="1.695" stroke-miterlimit="10" d="M328.391,445.44
	c0,0,3.77,0,10.055,0c-0.003-0.179-0.021-8.014-0.021-8.192c0,0,8.083,5.508,18.861,5.508c-0.002-0.015,0,0,0,0
	s34.512,4.141,39.417,4.627c7.079,0.702,17.382,2.885,23.74,5.038c0.56-1.979,0,0,0.288-2.041c0.289-2.052-0.021-0.912,0.274-2.997
	c4.043-28.516-74.598-60.268-97.203-59.704c-49.414,1.234-76.575,31.917-76.575,48.864c0,9.265-1.309,14.105,3.837,22.021
	c14.092,21.68,45.28,36.75,81.488,36.75c19.157,0,15.261-8.796,29.817-15.98c-2.267,0.336-4.579,0.524-6.936,0.524
	C328.555,479.857,328.391,461.115,328.391,445.44z"/>
<path id="SECONDARY" fill="#F1F1F1" stroke="#231F20" stroke-width="1.695" stroke-miterlimit="10" d="M338.427,444.904
	C338.427,444.904,327.652,444.904,338.427,444.904C338.427,444.891,338.427,444.917,338.427,444.904L338.427,444.904l-23.103-0.044
	c-43.749,23.001-78.146-1.192-55.099,24.679c25.707,28.86,91.07,32.524,122.066,15.585c1.469-0.803,30.881-21.284,32.212-22.03
	C390.769,463.304,354.954,465.846,338.427,444.904z"/>
<ellipse transform="matrix(0.2887 -0.9574 0.9574 0.2887 -135.7562 667.8842)" fill-opacity="0.8" stroke="#231F20" stroke-width="1.695" stroke-miterlimit="10" cx="381.616" cy="425.308" rx="6.659" ry="10.286"/>
<ellipse transform="matrix(0.2881 -0.9576 0.9576 0.2881 -134.7227 663.2056)" fill="#FFFFFF" cx="378.687" cy="422.212" rx="1.617" ry="2.496"/>
</svg>
