<?xml version="1.0" encoding="utf-8"?>
<!-- Generator: Adobe Illustrator 16.0.0, SVG Export Plug-In . SVG Version: 6.00 Build 0)  -->
<svg version="1.1" id="Layer_1" xmlns="http://www.w3.org/2000/svg" xmlns:xlink="http://www.w3.org/1999/xlink" x="0px" y="0px"
	 width="612px" height="792px" viewBox="0 0 612 792" enable-background="new 0 0 612 792" xml:space="preserve">
<rect id="head_frame_1_" x="230.5" y="331.5" fill-opacity="0" fill="#231F20" width="151" height="131"/>
<polygon fill="#634132" stroke="#231F20" stroke-miterlimit="10" points="366.835,432.102 371,425.148 366.835,425.148 
	362.67,425.148 "/>
<polygon fill="#634132" stroke="#231F20" stroke-miterlimit="10" points="350.61,430.208 354.775,423.254 350.61,423.255 
	346.445,423.255 "/>
<polygon fill="#634132" stroke="#231F20" stroke-miterlimit="10" points="335.085,427.719 339.25,420.765 335.085,420.766 
	330.92,420.766 "/>
<polygon fill="#634132" stroke="#231F20" stroke-miterlimit="10" points="358.94,431.547 363.105,438.5 358.94,438.5 354.775,438.5 
	"/>
<polygon fill="#634132" stroke="#231F20" stroke-miterlimit="10" points="341.28,431.208 345.445,438.162 341.28,438.161 
	337.115,438.161 "/>
<path id="PRIMARY_1_" fill="#666666" stroke="#231F20" stroke-miterlimit="10" d="M296.262,413.986
	c0.862,13.183-4.498,24.268-11.975,24.758c-7.479,0.489-14.237-9.802-15.101-22.985c-0.863-13.185-9.135-33.458-9.135-33.458
	C267.529,381.811,295.397,400.801,296.262,413.986z"/>
<path id="PRIMARY" fill="#666666" stroke="#231F20" stroke-miterlimit="10" d="M319.207,425.584c0,0,2.224,0,5.931,0
	c-0.002-0.106-0.013-4.729-0.013-4.834c0,0,4.768,3.25,11.125,3.25c-0.001-0.009,0,0,0,0s20.356,2.443,23.25,2.73
	c4.176,0.415,10.253,1.703,14.003,2.973c0.33-1.168,0,0,0.17-1.204c0.171-1.211-0.013-0.538,0.162-1.769
	c2.385-16.827-44.001-35.563-57.335-35.23c-29.146,0.728-45.167,18.834-45.167,28.834c0,5.467-0.772,8.323,2.263,12.994
	c8.312,12.793,26.708,21.686,48.065,21.686c11.3,0,9.002-5.191,17.588-9.43c-1.337,0.198-2.701,0.31-4.091,0.31
	C319.304,445.894,319.207,434.834,319.207,425.584z"/>
<path id="SECONDARY" fill="#F1F1F1" stroke="#231F20" stroke-miterlimit="10" d="M325.127,425.268
	C325.127,425.268,318.771,425.268,325.127,425.268C325.127,425.26,325.127,425.275,325.127,425.268L325.127,425.268l-13.627-0.026
	c-25.805,13.572-46.094-0.704-32.5,14.563c15.163,17.03,53.717,19.192,72,9.196c0.866-0.474,18.215-12.56,19-13
	C356,436.125,334.875,437.625,325.127,425.268z"/>
<ellipse transform="matrix(0.9574 0.2886 -0.2886 0.9574 134.33 -83.5858)" fill-opacity="0.8" stroke="#231F20" stroke-miterlimit="10" cx="350.61" cy="413.729" rx="6.067" ry="3.929"/>
<ellipse transform="matrix(0.9575 0.2885 -0.2885 0.9575 133.6773 -83.1376)" fill="#FFFFFF" cx="348.849" cy="411.877" rx="1.472" ry="0.954"/>
</svg>
