<?xml version="1.0" encoding="utf-8"?>
<!-- Generator: Adobe Illustrator 16.0.0, SVG Export Plug-In . SVG Version: 6.00 Build 0)  -->
<svg version="1.1" id="Layer_1" xmlns="http://www.w3.org/2000/svg" xmlns:xlink="http://www.w3.org/1999/xlink" x="0px" y="0px"
	 width="612px" height="792px" viewBox="0 0 612 792" enable-background="new 0 0 612 792" xml:space="preserve">
<rect id="head_frame_1_" x="178" y="286" fill="#231F20" fill-opacity="0" width="256" height="222"/>
<polygon fill="#634132" stroke="#231F20" stroke-width="1.695" stroke-miterlimit="10" points="409.138,458.18 416.198,446.396 
	409.138,446.396 402.076,446.396 "/>
<polygon fill="#634132" stroke="#231F20" stroke-width="1.695" stroke-miterlimit="10" points="381.631,453.276 388.692,441.491 
	381.631,441.493 374.569,441.493 "/>
<polygon fill="#634132" stroke="#231F20" stroke-width="1.695" stroke-miterlimit="10" points="355.31,450.752 362.371,438.968 
	355.31,438.969 348.248,438.969 "/>
<polygon fill="#634132" stroke="#231F20" stroke-width="1.695" stroke-miterlimit="10" points="395.753,443.683 402.814,455.466 
	395.753,455.466 388.692,455.466 "/>
<polygon fill="#634132" stroke="#231F20" stroke-width="1.695" stroke-miterlimit="10" points="367.508,439.719 374.569,451.504 
	367.508,451.502 360.447,451.502 "/>
<path id="PRIMARY_4_" fill="#666666" stroke="#231F20" stroke-width="1.695" stroke-miterlimit="10" d="M289.491,425.786
	c1.461,22.34-7.625,41.125-20.302,41.956c-12.68,0.829-24.136-16.611-25.602-38.952c-1.463-22.344-15.487-56.7-15.487-56.7
	C240.777,371.26,288.024,403.441,289.491,425.786z"/>
<path id="PRIMARY_3_" fill="#666666" stroke="#231F20" stroke-width="1.695" stroke-miterlimit="10" d="M328.391,445.44
	c0,0,3.77,0,10.055,0c-0.003-0.179,0.023,3.105,0,0c0,0,8.769-2.966,19.547-2.966c-0.002-0.017,0.76-0.118,0.76-0.118
	s24.427,2.596,29.332,3.084c7.08,0.701,25.431,4.346,32.213,7.028c0.559-1.979,0.42-3.045,0.708-5.086c0.29-2.054-0.296,2.084,0,0
	c4.043-28.516-74.598-60.268-97.203-59.704c-49.414,1.234-76.573,31.917-76.573,48.864c0,9.265-1.309,14.105,3.837,22.021
	c14.092,21.68,45.28,36.75,81.487,36.75c19.157,0,15.262-8.796,29.818-15.98c-2.267,0.336-4.58,0.524-6.936,0.524
	C328.555,479.857,328.391,461.115,328.391,445.44z"/>
<path id="SECONDARY_2_" fill="#F1F1F1" stroke="#231F20" stroke-width="1.695" stroke-miterlimit="10" d="M338.427,444.904
	C338.427,444.904,327.652,444.904,338.427,444.904C338.427,444.891,338.427,444.917,338.427,444.904L338.427,444.904l-23.103-0.044
	c-43.749,23.001-78.146-1.192-55.099,24.679c25.707,28.86,91.07,32.524,122.066,15.585c1.469-0.803,34.719-27.89,36.05-28.638
	C393.452,449.058,364.631,446.711,338.427,444.904z"/>
<ellipse transform="matrix(0.2887 -0.9574 0.9574 0.2887 -135.7562 667.8842)" fill="none" stroke="#231F20" stroke-width="1.695" stroke-miterlimit="10" cx="381.616" cy="425.308" rx="6.659" ry="10.286"/>
<line fill="none" stroke="#231F20" stroke-width="1.695" stroke-miterlimit="10" x1="389.355" y1="431.035" x2="373.715" y2="419.828"/>
</svg>
