<?xml version="1.0" encoding="utf-8"?>
<!-- Generator: Adobe Illustrator 16.0.0, SVG Export Plug-In . SVG Version: 6.00 Build 0)  -->
<svg version="1.1" id="Layer_1" xmlns="http://www.w3.org/2000/svg" xmlns:xlink="http://www.w3.org/1999/xlink" x="0px" y="0px"
	 width="612px" height="792px" viewBox="0 0 612 792" enable-background="new 0 0 612 792" xml:space="preserve">
<rect id="head_frame_1_" x="230.5" y="331.5" fill-opacity="0" fill="#231F20" width="151" height="131"/>
<polygon fill="#634132" stroke="#231F20" stroke-miterlimit="10" points="366.835,430.102 371,423.148 366.835,423.148 
	362.67,423.148 "/>
<polygon fill="#634132" stroke="#231F20" stroke-miterlimit="10" points="349.61,428.208 353.775,421.254 349.61,421.255 
	345.445,421.255 "/>
<polygon fill="#634132" stroke="#231F20" stroke-miterlimit="10" points="333.085,426.719 337.25,419.765 333.085,419.766 
	328.92,419.766 "/>
<polygon fill="#634132" stroke="#231F20" stroke-miterlimit="10" points="357.94,435.547 362.105,442.5 357.94,442.5 353.775,442.5 
	"/>
<polygon fill="#634132" stroke="#231F20" stroke-miterlimit="10" points="340.28,434.208 344.445,441.162 340.28,441.161 
	336.115,441.161 "/>
<path id="PRIMARY_6_" fill="#666666" stroke="#231F20" stroke-miterlimit="10" d="M296.262,413.986
	c0.862,13.183-4.498,24.268-11.975,24.758c-7.479,0.489-14.236-9.802-15.101-22.985c-0.863-13.185-9.135-33.458-9.135-33.458
	C267.529,381.811,295.397,400.801,296.262,413.986z"/>
<path id="PRIMARY_5_" fill="#666666" stroke="#231F20" stroke-miterlimit="10" d="M319.207,425.584c0,0,2.224,0,5.931,0
	c-0.002-0.106-0.013-4.729-0.013-4.834c0,0,2.768,0.625,9.125,0.625c-0.001-0.009,0,0,0,0s21.106,1.592,24,1.879
	c4.176,0.415,10.625,0.625,14.375,1.895c0.33-1.168,0.455-0.689,0.625-1.895c0.171-1.211,0.36,0.018,0.171-1.211
	C371,406.375,329.834,391.167,316.5,391.5c-29.146,0.728-45.166,18.834-45.166,28.834c0,5.467-0.772,8.323,2.263,12.994
	c8.312,12.793,26.708,21.686,48.065,21.686c11.3,0,9.002-5.191,17.588-9.43c-1.337,0.198-2.701,0.31-4.091,0.31
	C319.304,445.894,319.207,434.834,319.207,425.584z"/>
<path id="SECONDARY_3_" fill="#F1F1F1" stroke="#231F20" stroke-miterlimit="10" d="M325.127,425.268
	C325.127,425.268,318.771,425.268,325.127,425.268C325.127,425.26,325.127,425.275,325.127,425.268L325.127,425.268l-13.627-0.026
	c-25.805,13.572-46.094-0.704-32.5,14.563c15.163,17.03,53.717,19.192,72,9.196c0.866-0.474,15.05-7.56,15.835-8
	C352.835,441.125,326.5,440.114,325.127,425.268z"/>
<path fill-opacity="0.8" stroke="#231F20" stroke-miterlimit="10" d="M346.959,409.949c-1.079,0.394-1.874,1.09-2.157,2.029
	c-0.626,2.077,1.467,4.545,4.675,5.513c2.691,0.812,5.308,0.304,6.451-1.106L346.959,409.949z"/>
<path fill="#FFFFFF" d="M347.774,410.953c-0.419,0.053-0.755,0.237-0.849,0.549c-0.151,0.505,0.356,1.104,1.135,1.338
	c0.772,0.233,1.518,0.018,1.678-0.479L347.774,410.953z"/>
</svg>
