<?xml version="1.0" encoding="utf-8"?>
<!-- Generator: Adobe Illustrator 16.0.0, SVG Export Plug-In . SVG Version: 6.00 Build 0)  -->
<svg version="1.1" id="Layer_1" xmlns="http://www.w3.org/2000/svg" xmlns:xlink="http://www.w3.org/1999/xlink" x="0px" y="0px"
	 width="612px" height="792px" viewBox="0 0 612 792" enable-background="new 0 0 612 792" xml:space="preserve">
<rect id="head_frame_1_" x="178" y="286" fill="#231F20" fill-opacity="0" width="256" height="222"/>
<polygon fill="#634132" stroke="#231F20" stroke-width="1.695" stroke-miterlimit="10" points="409.138,453.096 416.198,441.313 
	409.138,441.313 402.076,441.313 "/>
<polygon fill="#634132" stroke="#231F20" stroke-width="1.695" stroke-miterlimit="10" points="379.936,449.887 386.997,438.102 
	379.936,438.104 372.874,438.104 "/>
<polygon fill="#634132" stroke="#231F20" stroke-width="1.695" stroke-miterlimit="10" points="351.919,447.363 358.98,435.578 
	351.919,435.58 344.857,435.58 "/>
<polygon fill="#634132" stroke="#231F20" stroke-width="1.695" stroke-miterlimit="10" points="394.058,462.324 401.119,474.106 
	394.058,474.106 386.997,474.106 "/>
<polygon fill="#634132" stroke="#231F20" stroke-width="1.695" stroke-miterlimit="10" points="364.117,460.055 371.179,471.84 
	364.117,471.838 357.057,471.838 "/>
<path id="PRIMARY_6_" fill="#666666" stroke="#231F20" stroke-width="1.695" stroke-miterlimit="10" d="M289.491,425.786
	c1.461,22.34-7.625,41.125-20.302,41.956c-12.68,0.829-24.136-16.611-25.602-38.952c-1.463-22.344-15.487-56.7-15.487-56.7
	C240.777,371.26,288.024,403.441,289.491,425.786z"/>
<path id="PRIMARY_5_" fill="#666666" stroke="#231F20" stroke-width="1.695" stroke-miterlimit="10" d="M328.391,445.44
	c0,0,3.77,0,10.055,0c-0.003-0.179-0.021-8.014-0.021-8.192c0,0,4.692,1.06,15.471,1.06c-0.002-0.016,0,0,0,0
	s35.782,2.697,40.688,3.184c7.079,0.703,18.013,1.06,24.371,3.212c0.56-1.979,0.771-1.168,1.06-3.212
	c0.289-2.052,0.61,0.031,0.289-2.052c-4.104-26.552-73.896-52.324-96.501-51.76c-49.414,1.234-76.573,31.917-76.573,48.864
	c0,9.265-1.309,14.105,3.837,22.021c14.092,21.68,45.28,36.75,81.487,36.75c19.157,0,15.262-8.796,29.818-15.98
	c-2.267,0.336-4.58,0.524-6.936,0.524C328.555,479.857,328.391,461.115,328.391,445.44z"/>
<path id="SECONDARY_3_" fill="#F1F1F1" stroke="#231F20" stroke-width="1.695" stroke-miterlimit="10" d="M338.427,444.904
	C338.427,444.904,327.652,444.904,338.427,444.904C338.427,444.891,338.427,444.917,338.427,444.904L338.427,444.904l-23.103-0.044
	c-43.749,23.001-78.146-1.192-55.099,24.679c25.707,28.86,91.07,32.524,122.066,15.585c1.469-0.803,25.516-12.812,26.847-13.558
	C385.402,471.776,340.755,470.063,338.427,444.904z"/>
<path fill-opacity="0.8" stroke="#231F20" stroke-width="1.695" stroke-miterlimit="10" d="M375.44,418.944
	c-1.829,0.667-3.177,1.847-3.657,3.438c-1.062,3.521,2.486,7.704,7.926,9.344c4.563,1.375,9,0.515,10.937-1.875L375.44,418.944z"/>
<path fill="#FFFFFF" d="M376.823,420.646c-0.711,0.09-1.282,0.402-1.44,0.931c-0.255,0.855,0.604,1.871,1.924,2.267
	c1.31,0.396,2.574,0.032,2.846-0.811L376.823,420.646z"/>
</svg>
