<?xml version="1.0" encoding="utf-8"?>
<!-- Generator: Adobe Illustrator 16.0.0, SVG Export Plug-In . SVG Version: 6.00 Build 0)  -->
<svg version="1.1" id="Layer_1" xmlns="http://www.w3.org/2000/svg" xmlns:xlink="http://www.w3.org/1999/xlink" x="0px" y="0px"
	 width="612px" height="792px" viewBox="0 0 612 792" enable-background="new 0 0 612 792" xml:space="preserve">
<rect id="head_frame_1_" x="230.5" y="331.5" fill-opacity="0" fill="#231F20" width="151" height="131"/>
<polygon fill="#634132" stroke="#231F20" stroke-miterlimit="10" points="366.835,433.102 371,426.148 366.835,426.148 
	362.67,426.148 "/>
<polygon fill="#634132" stroke="#231F20" stroke-miterlimit="10" points="350.61,430.208 354.775,423.254 350.61,423.255 
	346.445,423.255 "/>
<polygon fill="#634132" stroke="#231F20" stroke-miterlimit="10" points="335.085,428.719 339.25,421.765 335.085,421.766 
	330.92,421.766 "/>
<polygon fill="#634132" stroke="#231F20" stroke-miterlimit="10" points="358.94,424.547 363.105,431.5 358.94,431.5 354.775,431.5 
	"/>
<polygon fill="#634132" stroke="#231F20" stroke-miterlimit="10" points="342.28,422.208 346.445,429.162 342.28,429.161 
	338.115,429.161 "/>
<path id="PRIMARY_4_" fill="#666666" stroke="#231F20" stroke-miterlimit="10" d="M296.262,413.986
	c0.862,13.183-4.498,24.268-11.975,24.758c-7.479,0.489-14.236-9.802-15.101-22.985c-0.863-13.185-9.135-33.458-9.135-33.458
	C267.529,381.811,295.397,400.801,296.262,413.986z"/>
<path id="PRIMARY_3_" fill="#666666" stroke="#231F20" stroke-miterlimit="10" d="M319.207,425.584c0,0,2.224,0,5.931,0
	c-0.002-0.106,0.013,1.833,0,0c0,0,5.172-1.75,11.529-1.75c-0.001-0.01,0.448-0.069,0.448-0.069s14.408,1.531,17.302,1.819
	c4.176,0.414,15,2.564,19,4.147c0.33-1.168,0.248-1.796,0.418-3.001c0.171-1.211-0.175,1.23,0,0
	c2.385-16.827-44.001-35.563-57.335-35.23c-29.146,0.728-45.166,18.834-45.166,28.834c0,5.467-0.772,8.323,2.263,12.994
	c8.312,12.793,26.708,21.686,48.065,21.686c11.3,0,9.002-5.191,17.588-9.43c-1.337,0.198-2.701,0.31-4.091,0.31
	C319.304,445.894,319.207,434.834,319.207,425.584z"/>
<path id="SECONDARY_2_" fill="#F1F1F1" stroke="#231F20" stroke-miterlimit="10" d="M325.127,425.268
	C325.127,425.268,318.771,425.268,325.127,425.268C325.127,425.26,325.127,425.275,325.127,425.268L325.127,425.268l-13.627-0.026
	c-25.805,13.572-46.094-0.704-32.5,14.563c15.163,17.03,53.717,19.192,72,9.196c0.866-0.474,20.479-16.457,21.264-16.898
	C357.583,427.719,340.583,426.334,325.127,425.268z"/>
<ellipse transform="matrix(0.9574 0.2886 -0.2886 0.9574 134.33 -83.5858)" fill-opacity="0.8" fill="none" stroke="#231F20" stroke-miterlimit="10" cx="350.61" cy="413.729" rx="6.067" ry="3.929"/>
<line fill="none" stroke="#231F20" stroke-miterlimit="10" x1="355.167" y1="417.084" x2="345.941" y2="410.471"/>
</svg>
