<?xml version="1.0" encoding="utf-8"?>
<!-- Generator: Adobe Illustrator 16.0.0, SVG Export Plug-In . SVG Version: 6.00 Build 0)  -->
<svg version="1.1" id="Layer_1" xmlns="http://www.w3.org/2000/svg" xmlns:xlink="http://www.w3.org/1999/xlink" x="0px" y="0px"
	 width="612px" height="792px" viewBox="0 0 612 792" enable-background="new 0 0 612 792" xml:space="preserve">
<rect x="271.592" y="379.106" fill-opacity="0" fill="#231F20" width="69.979" height="35"/>
<path id="PRIMARY_23_" fill="#666666" stroke="#231F20" stroke-miterlimit="10" d="M282.075,405.012
	c-5.636,3.37-8.36,5.002-9.139,6.045l-0.544,1.847c0,0,5.656,0,10.583,0h10.78C288.501,412.091,284.153,409.076,282.075,405.012z"/>
<path id="PRIMARY_22_" fill="#666666" stroke="#231F20" stroke-miterlimit="10" d="M324.002,409.686c1.378,0,2.583,1.38,3.261,3.446
	c6.682,0,12.563,0,12.563,0l-0.967-3.279c-1.392-1.864-4.71-6.286-14.858-12.353l-23.798-10.742
	c-8.748,0-16.536,13.188-18.264,17.859L282,404.88c-0.75,2.308,8.034,8.252,14.593,8.252h24.148
	C321.419,411.065,322.624,409.686,324.002,409.686z"/>
<path id="SECONDARY_6_" fill="#F1F1F1" stroke="#231F20" stroke-miterlimit="10" d="M327.256,413.109h12.318l-0.208-1.535
	l-13.853-1.301C326.236,410.86,326.842,411.859,327.256,413.109z"/>
<path id="SECONDARY_5_" fill="#F1F1F1" stroke="#231F20" stroke-miterlimit="10" d="M322.846,410.022l-40.035-3.76
	c2.64,3.977,7.568,6.688,13.261,6.847h9.23h15.446C321.229,411.658,321.967,410.548,322.846,410.022z"/>
</svg>
