<?xml version="1.0" encoding="utf-8"?>
<!-- Generator: Adobe Illustrator 16.0.0, SVG Export Plug-In . SVG Version: 6.00 Build 0)  -->
<svg version="1.1" id="Layer_1" xmlns="http://www.w3.org/2000/svg" xmlns:xlink="http://www.w3.org/1999/xlink" x="0px" y="0px"
	 width="612px" height="792px" viewBox="0 0 612 792" enable-background="new 0 0 612 792" xml:space="preserve">
<rect x="253.5" y="379.606" fill-opacity="0" fill="#231F20" width="105" height="34"/>
<path fill="#B7B784" stroke="#231F20" stroke-miterlimit="10" d="M341.166,381.106h-70.333c-15.5,0-15.5,0-15.5,15.5
	s0,15.5,15.5,15.5H298.5c0.08-4.149,5.566-12,8-12c2.435,0,6.082,7.851,6.162,12h28.504c15.5,0,15.5,0,15.5-15.5
	S356.666,381.106,341.166,381.106z"/>
<path fill="#B7B784" stroke="#231F20" stroke-miterlimit="10" d="M349.123,381.289h-86.247c-4.408,0.408-6.239,1.708-7,5.777
	h100.246C355.362,382.997,353.53,381.697,349.123,381.289z"/>
<path fill="none" stroke="#231F20" stroke-miterlimit="10" d="M311.625,395.853c0,0.955-2.103,4.734-3.625,4.734l0,0
	c0,0-1.573-0.509-1.818-0.509v-12.943c0,0,1.233-0.07,2.756-0.07l0,0c1.522,0,2.756,0.07,2.756,0.07L311.625,395.853z"/>
<line fill="none" stroke="#231F20" stroke-miterlimit="10" x1="306.182" y1="387.528" x2="306.182" y2="381.289"/>
<circle fill="none" stroke="#231F20" stroke-miterlimit="10" cx="308.792" cy="383.959" r="1.458"/>
</svg>
