<?xml version="1.0" encoding="utf-8"?>
<!-- Generator: Adobe Illustrator 16.0.0, SVG Export Plug-In . SVG Version: 6.00 Build 0)  -->
<svg version="1.1" id="Layer_1" xmlns="http://www.w3.org/2000/svg" xmlns:xlink="http://www.w3.org/1999/xlink" x="0px" y="0px"
	 width="612px" height="792px" viewBox="0 0 612 792" enable-background="new 0 0 612 792" xml:space="preserve">
<rect x="240.5" y="268.56" fill="#231F20" fill-opacity="0" width="133" height="256"/>
<rect x="262.667" y="320.333" fill="#FFC18C" stroke="#231F20" stroke-width="2.343" stroke-miterlimit="10" width="86.333" height="173.836"/>
<path fill="#B7B784" stroke="#231F20" stroke-width="2.343" stroke-miterlimit="10" d="M305.833,270.3
	c-9.271,0-17.859,0-24.895,2.941c-1.008,0.421-1.979,0.9-2.917,1.452c-0.941,1.161-1.843,1.312-2.714,1.861
	c-0.866-0.725-1.701,0.56-2.492,2.322c-0.791-0.068-1.542,1.729-2.252,2.84c-0.711,0.804-1.381,2.171-2.004,3.406
	c-3.745,7.409-5.892,18.528-5.892,35.208c0,0,0,102.761,0,151.117c0,3.72,0,6.355,0,10.123c0,3.975,0,6.376,0,7.762
	c0,1.213,0,1.654,0,1.617c0,1.087,0,2.33,0,3.353c0,0.727,0,1.333,0,1.688c0,0.028,0,0.042,0,0.064c0,5.404,0.352,9.924,1.024,9.985
	c0.672,7.668,1.663,6.188,2.95,6.696c1.28-0.977,2.856,3.421,4.687,4.05c1.832,2.537,3.925,5.922,6.242,2.034
	c2.316-5.409,4.86-1.379,7.604,0.664c2.741,4.988,5.682,4.236,8.79-0.069c3.104-5.804,6.372,3.872,9.781-0.163
	c3.405-0.014,6.758-6.569,10.012,0.163c3.251,1.413,6.394,4.802,9.383,0.069c2.983,2.079,5.813,1.775,8.422-0.664
	c2.611-1.831,5.002-1.071,7.128-2.034c2.126,3.031,3.979-5.647,5.508-4.05c1.524,5.638,2.729-5.727,3.548-6.696
	c0.813,0.761,1.253,3.918,1.253-9.985c0-0.445,0-1.415,0-1.753c0-0.055,0-0.124,0-0.136c0-0.746,0-2.408,0-3.637
	c0-0.513,0-0.954,0-1.199c0-2.277,0-6.967,0-7.762c0-0.064,0-0.138,0-0.145c0-4.307,0-6.303,0-9.979c0-48.356,0-151.116,0-151.116
	C349,270.3,329.668,270.3,305.833,270.3z M274.322,468.198c-0.159,9.267-0.353,16.966-0.583,11.709
	c-0.607,0.717-1.449-22.278-2.38,7.348c-0.931-1.429-1.774-24.902-2.384-7.348c-0.607-6.629-0.984-10.974-0.984-17.74
	c0-8.214,0.377,15.281,0.984-17.74c0.61-3.47,1.454-38.339,2.384-7.348c0.931,23.031,1.773-23.778,2.38,7.348
	C273.969,455.258,274.163,463.366,274.322,468.198c0.256-15.539,0.408-35.487,0.408-6.031
	C274.73,475.181,274.578,476.307,274.322,468.198z M294.541,360.805c-0.399,6.645-0.897,12.172-1.478,8.398
	c-1.556,0.512-3.709-15.98-6.087,5.27c-2.373-1.026-4.524-17.864-6.081-5.27c-1.556-4.755-2.522-7.873-2.522-12.727
	c0-5.894,0.964,10.962,2.522-12.726c1.557-2.487,3.708-27.503,6.081-5.271c2.38,16.521,4.531-17.058,6.087,5.271
	C293.642,351.521,294.142,357.34,294.541,360.805c0.664-11.149,1.042-25.457,1.042-4.329
	C295.581,365.814,295.202,366.619,294.541,360.805z M334.74,449.619c-0.207,1.868-0.479,5.005-0.791,9.193
	c-0.838,12.037-2.003-6.063-3.285,2.842c-1.278,11.987-2.445-1.503-3.281-2.842c-0.841-12.773-1.354-3.684-1.354-6.863
	c0-2.615,0.513-4.295,1.354-6.861c0.836,6.792,2.003-2.288,3.281-2.842c1.282,11.458,2.447,2.568,3.285,2.842
	C334.262,443.058,334.533,446.035,334.74,449.619c0.362-3.136,0.561-2.702,0.561,2.33
	C335.301,463.343,335.103,455.63,334.74,449.619z"/>
<ellipse fill="none" stroke="#231F20" stroke-width="2.343" stroke-miterlimit="10" cx="306.877" cy="293.146" rx="5.221" ry="5.882"/>
</svg>
