<?xml version="1.0" encoding="utf-8"?>
<!-- Generator: Adobe Illustrator 16.0.0, SVG Export Plug-In . SVG Version: 6.00 Build 0)  -->
<svg version="1.1" id="Layer_1" xmlns="http://www.w3.org/2000/svg" xmlns:xlink="http://www.w3.org/1999/xlink" x="0px" y="0px"
	 width="612px" height="792px" viewBox="0 0 612 792" enable-background="new 0 0 612 792" xml:space="preserve">
<rect x="178" y="354.606" fill="#231F20" fill-opacity="0" width="256" height="84"/>
<path fill="#B7B784" stroke="#231F20" stroke-width="2.4543" stroke-miterlimit="10" d="M391.738,358.312H220.26
	c-37.791,0-37.791,0-37.791,38.294c0,38.294,0,38.294,37.791,38.294h67.455c0.195-10.251,13.57-29.646,19.504-29.646
	c5.936,0,14.829,19.396,15.024,29.646h69.495c37.79,0,37.79,0,37.79-38.294C429.528,358.312,429.528,358.312,391.738,358.312z"/>
<path fill="#B7B784" stroke="#231F20" stroke-width="2.4543" stroke-miterlimit="10" d="M411.138,358.765H200.859
	c-10.748,1.007-15.212,4.22-17.066,14.272h244.409C426.35,362.984,421.883,359.771,411.138,358.765z"/>
<path fill="none" stroke="#231F20" stroke-width="2.4543" stroke-miterlimit="10" d="M319.714,394.746
	c0,2.358-5.126,11.695-8.838,11.695l0,0c0,0-3.836-1.257-4.433-1.257v-31.977c0,0,3.007-0.172,6.721-0.172l0,0
	c3.71,0,6.719,0.172,6.719,0.172L319.714,394.746z"/>
<line fill="none" stroke="#231F20" stroke-width="2.4543" stroke-miterlimit="10" x1="306.443" y1="374.178" x2="306.443" y2="358.765"/>
<ellipse fill="none" stroke="#231F20" stroke-width="2.4543" stroke-miterlimit="10" cx="312.807" cy="365.361" rx="3.556" ry="3.602"/>
</svg>
