<?xml version="1.0" encoding="utf-8"?>
<!-- Generator: Adobe Illustrator 16.0.0, SVG Export Plug-In . SVG Version: 6.00 Build 0)  -->
<svg version="1.1" id="Layer_1" xmlns="http://www.w3.org/2000/svg" xmlns:xlink="http://www.w3.org/1999/xlink" x="0px" y="0px"
	 width="612px" height="792px" viewBox="0 0 612 792" enable-background="new 0 0 612 792" xml:space="preserve">
<rect x="178.582" y="332.106" fill="#231F20" fill-opacity="0" width="256" height="129"/>
<path id="PRIMARY_23_" fill="#666666" stroke="#231F20" stroke-width="3.6719" stroke-miterlimit="10" d="M216.932,427.586
	c-20.619,12.421-30.584,18.436-33.433,22.279l-1.99,6.811c0,0,20.69,0,38.715,0h39.435
	C240.439,453.678,224.533,442.566,216.932,427.586z"/>
<path id="PRIMARY_22_" fill="#666666" stroke="#231F20" stroke-width="3.6719" stroke-miterlimit="10" d="M370.31,444.813
	c5.04,0,9.449,5.089,11.928,12.701c24.446,0,45.96,0,45.96,0l-3.536-12.082c-5.095-6.871-17.23-23.169-54.355-45.531l-87.058-39.592
	c-32.002,0-60.493,48.608-66.814,65.823l0.224,0.969c-2.744,8.509,29.391,30.413,53.383,30.413h88.34
	C360.86,449.898,365.269,444.813,370.31,444.813z"/>
<path id="SECONDARY_6_" fill="#F1F1F1" stroke="#231F20" stroke-width="3.6719" stroke-miterlimit="10" d="M382.213,457.432h45.063
	l-0.761-5.658l-50.679-4.795C378.483,449.143,380.698,452.824,382.213,457.432z"/>
<path id="SECONDARY_5_" fill="#F1F1F1" stroke="#231F20" stroke-width="3.6719" stroke-miterlimit="10" d="M366.079,446.054
	l-146.455-13.86c9.658,14.66,27.685,24.651,48.511,25.238H301.9h56.506C360.163,452.083,362.864,447.99,366.079,446.054z"/>
</svg>
