<?xml version="1.0" encoding="utf-8"?>
<!-- Generator: Adobe Illustrator 16.0.0, SVG Export Plug-In . SVG Version: 6.00 Build 0)  -->
<svg version="1.1" id="Layer_1" xmlns="http://www.w3.org/2000/svg" xmlns:xlink="http://www.w3.org/1999/xlink" x="0px" y="0px"
	 width="612px" height="792px" viewBox="0 0 612 792" enable-background="new 0 0 612 792" xml:space="preserve">
<rect x="278.5" y="342.156" fill-opacity="0" fill="#231F20" width="57" height="108.807"/>
<rect x="288" y="364.161" fill="#FFC18C" stroke="#231F20" stroke-miterlimit="10" width="37" height="73.885"/>
<path fill="#B7B784" stroke="#231F20" stroke-miterlimit="10" d="M306.5,342.896c-3.973,0-7.654,0-10.669,1.25
	c-0.432,0.179-0.848,0.383-1.25,0.617c-0.403,0.494-0.79,0.558-1.163,0.791c-0.371-0.308-0.729,0.238-1.068,0.987
	c-0.339-0.029-0.661,0.735-0.965,1.207c-0.305,0.342-0.592,0.923-0.859,1.448c-1.605,3.149-2.525,7.875-2.525,14.964
	c0,0,0,43.676,0,64.229c0,1.581,0,2.701,0,4.302c0,1.69,0,2.71,0,3.299c0,0.516,0,0.703,0,0.688c0,0.462,0,0.99,0,1.425
	c0,0.308,0,0.566,0,0.717c0,0.012,0,0.018,0,0.028c0,2.297,0.151,4.217,0.439,4.244c0.288,3.259,0.713,2.63,1.264,2.846
	c0.549-0.416,1.224,1.454,2.009,1.721c0.785,1.078,1.682,2.517,2.675,0.864c0.993-2.298,2.083-0.586,3.259,0.283
	c1.175,2.12,2.435,1.8,3.767-0.03c1.33-2.466,2.731,1.646,4.192-0.069c1.459-0.006,2.896-2.792,4.29,0.069
	c1.394,0.601,2.741,2.041,4.022,0.03c1.278,0.883,2.491,0.755,3.609-0.283c1.119-0.778,2.144-0.455,3.055-0.864
	c0.911,1.288,1.705-2.4,2.36-1.721c0.654,2.396,1.17-2.434,1.521-2.846c0.349,0.323,0.537,1.665,0.537-4.244c0-0.19,0-0.602,0-0.745
	c0-0.024,0-0.053,0-0.058c0-0.317,0-1.024,0-1.546c0-0.218,0-0.405,0-0.51c0-0.967,0-2.961,0-3.299c0-0.027,0-0.058,0-0.061
	c0-1.83,0-2.679,0-4.241c0-20.553,0-64.229,0-64.229C325,342.896,316.715,342.896,306.5,342.896z M292.995,427.008
	c-0.068,3.938-0.151,7.211-0.25,4.976c-0.26,0.305-0.621-9.468-1.02,3.123c-0.399-0.607-0.76-10.584-1.022-3.123
	c-0.26-2.817-0.422-4.664-0.422-7.54c0-3.491,0.162,6.495,0.422-7.54c0.262-1.474,0.623-16.295,1.022-3.123
	c0.399,9.789,0.76-10.106,1.02,3.123C292.844,421.508,292.927,424.954,292.995,427.008c0.11-6.605,0.175-15.083,0.175-2.564
	C293.17,429.976,293.105,430.454,292.995,427.008z M301.66,381.363c-0.171,2.824-0.384,5.173-0.633,3.569
	c-0.667,0.218-1.59-6.792-2.609,2.24c-1.017-0.436-1.939-7.593-2.606-2.24c-0.667-2.021-1.081-3.346-1.081-5.409
	c0-2.505,0.413,4.659,1.081-5.409c0.667-1.057,1.589-11.689,2.606-2.24c1.02,7.022,1.942-7.25,2.609,2.24
	C301.275,377.417,301.489,379.89,301.66,381.363c0.285-4.739,0.447-10.82,0.447-1.84
	C302.106,383.492,301.944,383.834,301.66,381.363z M318.889,419.111c-0.089,0.794-0.205,2.127-0.339,3.908
	c-0.36,5.116-0.859-2.578-1.408,1.208c-0.548,5.094-1.048-0.639-1.407-1.208c-0.36-5.429-0.58-1.566-0.58-2.917
	c0-1.112,0.22-1.826,0.58-2.916c0.359,2.886,0.859-0.973,1.407-1.208c0.549,4.87,1.048,1.091,1.408,1.208
	C318.684,416.322,318.8,417.588,318.889,419.111c0.155-1.333,0.24-1.148,0.24,0.991
	C319.129,424.944,319.044,421.666,318.889,419.111z"/>
<ellipse fill="none" stroke="#231F20" stroke-miterlimit="10" cx="306.947" cy="352.606" rx="2.238" ry="2.5"/>
</svg>
