<?xml version="1.0" encoding="utf-8"?>
<!-- Generator: Adobe Illustrator 16.0.0, SVG Export Plug-In . SVG Version: 6.00 Build 0)  -->
<svg version="1.1" id="Layer_1" xmlns="http://www.w3.org/2000/svg" xmlns:xlink="http://www.w3.org/1999/xlink" x="0px" y="0px"
	 width="612px" height="792px" viewBox="0 0 612 792" enable-background="new 0 0 612 792" xml:space="preserve">
<rect x="271.592" y="379.106" fill-opacity="0" fill="#231F20" width="69.979" height="35"/>
<path id="SECONDARY_14_" fill="#FFC18C" stroke="#231F20" stroke-miterlimit="10" d="M330.563,413.671c0,0-8.523,0-16.012,0H295.7
	c-7.488,0-13.559-5.447-13.559-12.167l0,0c0-6.719,6.071-12.166,13.559-12.166h18.851
	C323.25,391.106,334.438,397.75,330.563,413.671L330.563,413.671z"/>
<path id="SECONDARY_15_" fill="#FFC18C" stroke="#231F20" stroke-miterlimit="10" d="M341.473,409.279
	c0,2.371-1.923,4.294-4.294,4.294h-11.576c-2.371,0-4.294-1.923-4.294-4.294l0,0c0-2.371,1.923-4.295,4.294-4.295h11.576
	C339.55,404.984,341.473,406.908,341.473,409.279L341.473,409.279z"/>
<path id="SECONDARY_16_" fill="#FFC18C" stroke="#231F20" stroke-miterlimit="10" d="M338.477,409.204
	c0,2.372-1.924,4.295-4.295,4.295h-11.576c-2.371,0-4.294-1.923-4.294-4.295l0,0c0-2.371,1.923-4.294,4.294-4.294h11.576
	C336.553,404.91,338.477,406.833,338.477,409.204L338.477,409.204z"/>
<path id="SECONDARY_17_" fill="#FFC18C" stroke="#231F20" stroke-miterlimit="10" d="M333,409.279c0,2.371-1.726,4.294-3.854,4.294
	h-10.392c-2.128,0-3.854-1.923-3.854-4.294l0,0c0-2.371,1.726-4.295,3.854-4.295h10.392C331.274,404.984,333,406.908,333,409.279
	L333,409.279z"/>
</svg>
