<?xml version="1.0" encoding="utf-8"?>
<!-- Generator: Adobe Illustrator 16.0.0, SVG Export Plug-In . SVG Version: 6.00 Build 0)  -->
<svg version="1.1" id="Layer_1" xmlns="http://www.w3.org/2000/svg" xmlns:xlink="http://www.w3.org/1999/xlink" x="0px" y="0px"
	 width="612px" height="792px" viewBox="0 0 612 792" enable-background="new 0 0 612 792" xml:space="preserve">
<rect x="178.782" y="332.366" fill="#231F20" fill-opacity="0" width="255.599" height="128.479"/>
<path id="SECONDARY_14_" fill="#FFC18C" stroke="#231F20" stroke-width="3.6616" stroke-miterlimit="10" d="M394.172,459.247
	c0,0-31.129,0-58.482,0h-68.852c-27.351,0-49.524-19.996-49.524-44.662l0,0c0-24.664,22.173-44.659,49.524-44.659h68.852
	C367.463,376.416,408.325,400.805,394.172,459.247L394.172,459.247z"/>
<path id="SECONDARY_15_" fill="#FFC18C" stroke="#231F20" stroke-width="3.6616" stroke-miterlimit="10" d="M434.021,443.127
	c0,8.703-7.023,15.762-15.684,15.762h-42.281c-8.657,0-15.684-7.059-15.684-15.762l0,0c0-8.704,7.026-15.767,15.684-15.767h42.281
	C426.997,427.36,434.021,434.423,434.021,443.127L434.021,443.127z"/>
<path id="SECONDARY_16_" fill="#FFC18C" stroke="#231F20" stroke-width="3.6616" stroke-miterlimit="10" d="M423.077,442.851
	c0,8.707-7.026,15.766-15.687,15.766h-42.278c-8.66,0-15.688-7.059-15.688-15.766l0,0c0-8.704,7.027-15.763,15.688-15.763h42.278
	C416.051,427.088,423.077,434.146,423.077,442.851L423.077,442.851z"/>
<path id="SECONDARY_17_" fill="#FFC18C" stroke="#231F20" stroke-width="3.6616" stroke-miterlimit="10" d="M403.074,443.127
	c0,8.703-6.303,15.762-14.074,15.762h-37.959c-7.772,0-14.075-7.059-14.075-15.762l0,0c0-8.704,6.303-15.767,14.075-15.767H389
	C396.771,427.36,403.074,434.423,403.074,443.127L403.074,443.127z"/>
</svg>
