<?xml version="1.0" encoding="utf-8"?>
<!-- Generator: Adobe Illustrator 16.0.0, SVG Export Plug-In . SVG Version: 6.00 Build 0)  -->
<svg version="1.1" id="Layer_1" xmlns="http://www.w3.org/2000/svg" xmlns:xlink="http://www.w3.org/1999/xlink" x="0px" y="0px"
	 width="612px" height="792px" viewBox="0 0 612 792" enable-background="new 0 0 612 792" xml:space="preserve">
<rect x="179" y="310.248" fill="#231F20" fill-opacity="0" width="256" height="172"/>
<path id="SECONDARY_22_" fill="#F77300" stroke="#231F20" stroke-width="3.1586" stroke-miterlimit="10" d="M328.513,389.261
	c5.589,0,10.783-2.28,15.222-6.159l-16.053-32.94c2.818-4.792,3.281-10.783,0.704-16.07c-4.136-8.482-14.54-11.939-23.234-7.705
	c-8.694,4.22-12.386,14.536-8.246,23.024c2.838,5.814,8.619,9.266,14.783,9.498l14.79,30.353H328.513z"/>
<path id="SECONDARY_21_" fill="#F77300" stroke="#231F20" stroke-width="3.1586" stroke-miterlimit="10" d="M312.877,353.646
	l0.438,37.218h-18.217l-0.423-36.131c-5.471-2.837-9.222-8.426-9.301-14.894c-0.117-9.438,7.636-17.194,17.302-17.302
	c9.676-0.117,17.599,7.446,17.713,16.882C320.457,345.296,317.469,350.517,312.877,353.646z"/>
<path id="SECONDARY_20_" fill="#F77300" stroke="#231F20" stroke-width="3.1586" stroke-miterlimit="10" d="M300.784,328.149
	c-8.695-4.232-19.099-0.772-23.236,7.707c-2.576,5.287-2.111,11.278,0.704,16.07l-14.651,30.064
	c4.645,4.826,10.313,7.728,16.466,7.781l14.184-29.101c6.161-0.234,11.941-3.684,14.777-9.499
	C313.173,342.686,309.479,332.371,300.784,328.149z"/>
</svg>
