<?xml version="1.0" encoding="utf-8"?>
<!-- Generator: Adobe Illustrator 16.0.0, SVG Export Plug-In . SVG Version: 6.00 Build 0)  -->
<svg version="1.1" id="Layer_1" xmlns="http://www.w3.org/2000/svg" xmlns:xlink="http://www.w3.org/1999/xlink" x="0px" y="0px"
	 width="612px" height="792px" viewBox="0 0 612 792" enable-background="new 0 0 612 792" xml:space="preserve">
<rect x="179" y="310.248" fill="#231F20" fill-opacity="0" width="256" height="172"/>
<path id="SECONDARY_18_" fill="#F77300" stroke="#231F20" stroke-width="3.1586" stroke-miterlimit="10" d="M377.312,430.467
	c-2.836-5.813-8.623-9.263-14.78-9.497l-17.818-36.558c-4.226,4.066-9.263,6.452-14.682,6.452h-2.433l18.933,38.851
	c-2.818,4.794-3.281,10.783-0.704,16.073c4.136,8.48,14.54,11.937,23.234,7.704C377.76,449.271,381.451,438.954,377.312,430.467z"/>
<path id="SECONDARY_17_" fill="#F77300" stroke="#231F20" stroke-width="3.1586" stroke-miterlimit="10" d="M313.667,428.081
	l0.438-37.217h-18.217l-0.423,36.132c-5.471,2.836-9.222,8.425-9.301,14.893c-0.117,9.439,7.636,17.195,17.302,17.301
	c9.676,0.116,17.599-7.445,17.713-16.882C321.247,436.43,318.26,431.21,313.667,428.081z"/>
<path id="SECONDARY_15_" fill="#F77300" stroke="#231F20" stroke-width="3.1586" stroke-miterlimit="10" d="M279.915,390.864h-0.418
	c-6.008,0-11.539-2.939-16.014-7.844l-16.753,34.374c-6.161,0.231-11.941,3.684-14.779,9.498
	c-4.141,8.483-0.449,18.805,8.247,23.024c8.695,4.232,19.099,0.773,23.235-7.707c2.577-5.286,2.111-11.276-0.704-16.07
	L279.915,390.864z"/>
</svg>
