<?xml version="1.0" encoding="utf-8"?>
<!-- Generator: Adobe Illustrator 16.0.0, SVG Export Plug-In . SVG Version: 6.00 Build 0)  -->
<svg version="1.1" id="Layer_1" xmlns="http://www.w3.org/2000/svg" xmlns:xlink="http://www.w3.org/1999/xlink" x="0px" y="0px"
	 width="612px" height="792px" viewBox="0 0 612 792" enable-background="new 0 0 612 792" xml:space="preserve">
<rect id="head_frame" x="230.5" y="331.5" fill-opacity="0" fill="#BBBCBE" width="151" height="131"/>
<path id="PRIMARY_10_" fill="#894000" stroke="#231F20" stroke-miterlimit="10" d="M310.705,370.35
	c-2.924-5.042-7.432-7.982-13.58-8.352c-5.098,0.106-11.715,2.598-10.199,9.432c1.736-1.409,2.279-3.578,4.016-4.988
	c2.711-1.625,8.242,0.221,7.916,3.366c-0.055,0.216-0.131,0.424-0.193,0.638c-19.4,3.321-34.245,21.645-34.245,43.757
	c0,24.465,18.168,44.297,40.581,44.297s40.582-19.832,40.582-44.297C345.582,391.853,330.414,373.378,310.705,370.35z"/>
<path id="SECONDARY_18_" fill="#FFC18C" stroke="#231F20" stroke-miterlimit="10" d="M330.74,423.834
	c7.166-1.5,6.74-8.707,6.74-13.111c0-13.603-7.611-24.63-17-24.63c-4.25,0-8.131,1.121-11.109,4.839
	c-2.98-3.719-6.861-4.839-11.111-4.839c-9.389,0-17,11.027-17,24.63c0,4.404-0.426,11.611,6.74,13.111
	c-7.166,1.666-9.166,4.689-9.166,8.004c0,9.252,13.205,16.752,29.5,16.752c0.348,0,0.691-0.013,1.037-0.02
	c0.344,0.007,0.688,0.02,1.035,0.02c16.295,0,29.5-7.5,29.5-16.752C339.906,428.523,337.906,425.5,330.74,423.834z"/>
<ellipse id="SECONDARY_20_" fill="#FFC18C" stroke="#231F20" stroke-miterlimit="10" cx="322.334" cy="406.625" rx="7.26" ry="11.334"/>
<ellipse id="SECONDARY_19_" fill="#FFC18C" stroke="#231F20" stroke-miterlimit="10" cx="298.074" cy="406.008" rx="7.26" ry="11.334"/>
<path fill="none" stroke="#231F20" stroke-miterlimit="10" d="M309.467,426.844c3.951-0.344,4.283-5.928,0.018-6.528"/>
<line fill="none" stroke="#231F20" stroke-miterlimit="10" x1="292.398" y1="398.951" x2="303.382" y2="413.723"/>
<line fill="none" stroke="#231F20" stroke-miterlimit="10" x1="327.673" y1="398.951" x2="316.678" y2="413.723"/>
<circle cx="309.37" cy="437.07" r="2.965"/>
</svg>
