<?xml version="1.0" encoding="utf-8"?>
<!-- Generator: Adobe Illustrator 16.0.0, SVG Export Plug-In . SVG Version: 6.00 Build 0)  -->
<svg version="1.1" id="Layer_1" xmlns="http://www.w3.org/2000/svg" xmlns:xlink="http://www.w3.org/1999/xlink" x="0px" y="0px"
	 width="612px" height="792px" viewBox="0 0 612 792" enable-background="new 0 0 612 792" xml:space="preserve">
<rect id="head_frame" x="178" y="286" fill="#BBBCBE" fill-opacity="0" width="256" height="222"/>
<path id="PRIMARY" fill="#894000" stroke="#231F20" stroke-width="1.695" stroke-miterlimit="10" d="M313.976,351.837
	c-4.956-8.544-12.601-13.526-23.022-14.154c-8.643,0.18-19.862,4.403-17.293,15.984c2.944-2.388,3.864-6.063,6.809-8.454
	c4.598-2.753,13.975,0.375,13.421,5.705c-0.092,0.366-0.22,0.718-0.326,1.081c-32.892,5.628-58.058,36.681-58.058,74.153
	c0,41.46,30.803,75.068,68.798,75.068c37.997,0,68.801-33.608,68.801-75.068C373.104,388.278,347.391,356.969,313.976,351.837z"/>
<path id="SECONDARY" fill="#FFC18C" stroke="#231F20" stroke-width="1.695" stroke-miterlimit="10" d="M347.942,442.475
	c12.15-2.542,11.425-14.756,11.425-22.22c0-23.052-12.9-41.739-28.82-41.739c-7.206,0-13.783,1.9-18.833,8.201
	c-5.054-6.303-11.631-8.201-18.836-8.201c-15.919,0-28.821,18.687-28.821,41.739c0,7.464-0.723,19.678,11.427,22.22
	c-12.15,2.823-15.542,7.947-15.542,13.563c0,15.679,22.389,28.389,50.013,28.389c0.592,0,1.173-0.021,1.759-0.033
	c0.584,0.012,1.165,0.033,1.757,0.033c27.624,0,50.013-12.71,50.013-28.389C363.483,450.422,360.093,445.298,347.942,442.475z"/>
<ellipse fill="#FFFFFF" stroke="#231F20" stroke-width="1.695" stroke-miterlimit="10" cx="333.69" cy="413.311" rx="12.308" ry="19.207"/>
<ellipse fill="#231F20" cx="337.364" cy="413.311" rx="5.454" ry="8.511"/>
<ellipse fill="#FFFFFF" stroke="#231F20" stroke-width="1.695" stroke-miterlimit="10" cx="292.563" cy="412.265" rx="12.308" ry="19.207"/>
<ellipse fill="#231F20" cx="296.235" cy="412.266" rx="5.454" ry="8.51"/>
<path fill="#231F20" d="M349.366,460.341c0,8.541-16.352,15.466-36.519,15.466c-20.168,0-36.517-6.925-36.517-15.466
	c0-16.314,16.35-3.393,36.517-3.393C333.017,456.948,349.366,446.568,349.366,460.341z"/>
<path fill="#EF9AB2" d="M325.438,474.844c-1.854-3.454-8.99-6.032-17.53-6.032c-6.938,0-12.951,1.701-15.96,4.191
	c5.917,1.763,13.113,2.804,20.9,2.804C317.28,475.807,321.507,475.456,325.438,474.844z"/>
<path fill="none" stroke="#231F20" stroke-width="1.695" stroke-miterlimit="10" d="M311.878,447.575
	c6.696-0.583,7.261-10.046,0.031-11.062"/>
</svg>
