<?xml version="1.0" encoding="utf-8"?>
<!-- Generator: Adobe Illustrator 16.0.0, SVG Export Plug-In . SVG Version: 6.00 Build 0)  -->
<svg version="1.1" id="Layer_1" xmlns="http://www.w3.org/2000/svg" xmlns:xlink="http://www.w3.org/1999/xlink" x="0px" y="0px"
	 width="612px" height="792px" viewBox="0 0 612 792" enable-background="new 0 0 612 792" xml:space="preserve">
<rect id="head_frame" x="178" y="286" fill="#BBBCBE" fill-opacity="0" width="256" height="222"/>
<path id="PRIMARY_10_" fill="#894000" stroke="#231F20" stroke-width="1.695" stroke-miterlimit="10" d="M313.977,351.837
	c-4.957-8.544-12.6-13.526-23.023-14.154c-8.643,0.18-19.861,4.403-17.292,15.984c2.944-2.388,3.864-6.063,6.809-8.454
	c4.596-2.753,13.973,0.375,13.42,5.705c-0.094,0.366-0.222,0.718-0.327,1.081c-32.89,5.628-58.058,36.681-58.058,74.153
	c0,41.46,30.801,75.068,68.799,75.068c37.999,0,68.801-33.608,68.801-75.068C373.105,388.278,347.391,356.969,313.977,351.837z"/>
<path id="SECONDARY_18_" fill="#FFC18C" stroke="#231F20" stroke-width="1.695" stroke-miterlimit="10" d="M347.943,442.475
	c12.149-2.542,11.428-14.756,11.428-22.22c0-23.052-12.904-41.739-28.821-41.739c-7.205,0-13.786,1.9-18.835,8.201
	c-5.053-6.303-11.632-8.201-18.837-8.201c-15.917,0-28.821,18.687-28.821,41.739c0,7.464-0.722,19.678,11.427,22.22
	c-12.149,2.823-15.54,7.947-15.54,13.563c0,15.679,22.387,28.389,50.013,28.389c0.59,0,1.172-0.021,1.758-0.033
	c0.583,0.012,1.166,0.033,1.756,0.033c27.625,0,50.013-12.71,50.013-28.389C363.483,450.422,360.093,445.298,347.943,442.475z"/>
<ellipse id="SECONDARY_20_" fill="#FFC18C" stroke="#231F20" stroke-width="1.695" stroke-miterlimit="10" cx="333.692" cy="413.311" rx="12.308" ry="19.207"/>
<ellipse id="SECONDARY_19_" fill="#FFC18C" stroke="#231F20" stroke-width="1.695" stroke-miterlimit="10" cx="292.563" cy="412.265" rx="12.308" ry="19.207"/>
<path fill="none" stroke="#231F20" stroke-width="1.695" stroke-miterlimit="10" d="M311.878,447.575
	c6.698-0.583,7.261-10.046,0.031-11.062"/>
<line fill="none" stroke="#231F20" stroke-width="1.695" stroke-miterlimit="10" x1="282.939" y1="400.307" x2="301.562" y2="425.339"/>
<line fill="none" stroke="#231F20" stroke-width="1.695" stroke-miterlimit="10" x1="342.743" y1="400.307" x2="324.103" y2="425.339"/>
<circle cx="311.714" cy="464.905" r="5.024"/>
</svg>
