<?xml version="1.0" encoding="utf-8"?>
<!-- Generator: Adobe Illustrator 16.0.0, SVG Export Plug-In . SVG Version: 6.00 Build 0)  -->
<svg version="1.1" id="Layer_1" xmlns="http://www.w3.org/2000/svg" xmlns:xlink="http://www.w3.org/1999/xlink" x="0px" y="0px"
	 width="612px" height="792px" viewBox="0 0 612 792" enable-background="new 0 0 612 792" xml:space="preserve">
<rect id="head_frame" x="230.5" y="331.5" fill-opacity="0" fill="#BBBCBE" width="151" height="131"/>
<path id="PRIMARY" fill="#894000" stroke="#231F20" stroke-miterlimit="10" d="M310.704,370.35
	c-2.923-5.042-7.432-7.982-13.579-8.352c-5.098,0.106-11.716,2.598-10.2,9.432c1.736-1.409,2.279-3.578,4.016-4.988
	c2.712-1.625,8.243,0.221,7.916,3.366c-0.054,0.216-0.13,0.424-0.192,0.638c-19.401,3.321-34.245,21.645-34.245,43.757
	c0,24.465,18.169,44.297,40.58,44.297c22.412,0,40.582-19.832,40.582-44.297C345.581,391.853,330.414,373.378,310.704,370.35z"/>
<path id="SECONDARY" fill="#FFC18C" stroke="#231F20" stroke-miterlimit="10" d="M330.739,423.834c7.167-1.5,6.74-8.707,6.74-13.111
	c0-13.603-7.61-24.63-17-24.63c-4.25,0-8.13,1.121-11.109,4.839c-2.98-3.719-6.86-4.839-11.11-4.839c-9.39,0-17,11.027-17,24.63
	c0,4.404-0.427,11.611,6.74,13.111c-7.167,1.666-9.167,4.689-9.167,8.004c0,9.252,13.206,16.752,29.5,16.752
	c0.349,0,0.691-0.013,1.037-0.02c0.345,0.007,0.688,0.02,1.036,0.02c16.294,0,29.5-7.5,29.5-16.752
	C339.906,428.523,337.906,425.5,330.739,423.834z"/>
<ellipse fill="#FFFFFF" stroke="#231F20" stroke-miterlimit="10" cx="322.333" cy="406.625" rx="7.26" ry="11.334"/>
<ellipse fill="#231F20" cx="324.5" cy="406.625" rx="3.217" ry="5.022"/>
<ellipse fill="#FFFFFF" stroke="#231F20" stroke-miterlimit="10" cx="298.074" cy="406.008" rx="7.26" ry="11.334"/>
<ellipse fill="#231F20" cx="300.24" cy="406.008" rx="3.217" ry="5.022"/>
<path fill="#231F20" d="M331.579,434.377c0,5.04-9.644,9.126-21.54,9.126c-11.896,0-21.539-4.086-21.539-9.126
	c0-9.627,9.644-2.002,21.539-2.002C321.936,432.375,331.579,426.25,331.579,434.377z"/>
<path fill="#EF9AB2" d="M317.465,442.935c-1.094-2.039-5.303-3.56-10.34-3.56c-4.093,0-7.639,1.004-9.414,2.474
	c3.49,1.04,7.735,1.654,12.328,1.654C312.653,443.503,315.146,443.296,317.465,442.935z"/>
<path fill="none" stroke="#231F20" stroke-miterlimit="10" d="M309.467,426.844c3.95-0.344,4.283-5.928,0.018-6.528"/>
</svg>
