<?xml version="1.0" encoding="utf-8"?>
<!-- Generator: Adobe Illustrator 16.0.0, SVG Export Plug-In . SVG Version: 6.00 Build 0)  -->
<svg version="1.1" id="Layer_1" xmlns="http://www.w3.org/2000/svg" xmlns:xlink="http://www.w3.org/1999/xlink" x="0px" y="0px"
	 width="612px" height="792px" viewBox="0 0 612 792" enable-background="new 0 0 612 792" xml:space="preserve">
<rect x="266.5" y="369.004" fill-opacity="0" fill="#231F20" width="81" height="54.487"/>
<path id="SECONDARY_30_" fill="#FFC18C" stroke="#231F20" stroke-miterlimit="10" d="M325.129,392.439
	c-0.354,3.4-1.458,6.254-4.828,8.148l0.554,2.038c3.154-1.743,4.48-4.311,5.038-7.375L325.129,392.439z"/>
<path id="SECONDARY_29_" fill="#FFC18C" stroke="#231F20" stroke-miterlimit="10" d="M310.235,402.964l0.232,1.972
	c2.689-0.202,4.9-0.601,6.702-1.176l-0.217-1.835C315.138,402.437,312.926,402.79,310.235,402.964z"/>
<path id="SECONDARY_28_" fill="#FFC18C" stroke="#231F20" stroke-miterlimit="10" d="M306.164,403.091
	c-2.006,0-3.79-0.089-5.396-0.252l-0.111,2.011c1.638,0.155,3.462,0.241,5.518,0.241c0.438,0,0.856-0.009,1.275-0.017l0.11-2.001
	C307.103,403.082,306.645,403.091,306.164,403.091z"/>
<path id="SECONDARY_27_" fill="#FFC18C" stroke="#231F20" stroke-miterlimit="10" d="M291.066,399.697l-0.563,1.833
	c1.425,1.193,3.435,2.129,6.267,2.739l0.596-1.938C294.584,401.75,292.551,400.852,291.066,399.697z"/>
<path id="SECONDARY_26_" fill="#FFC18C" stroke="#231F20" stroke-miterlimit="10" d="M289.771,377.102l-1.085-1.25
	c-1.569,1.942-2.691,4.192-3.244,6.629l1.672,1.927C287.372,381.749,288.317,379.272,289.771,377.102z"/>
</svg>
