<?xml version="1.0" encoding="utf-8"?>
<!-- Generator: Adobe Illustrator 16.0.0, SVG Export Plug-In . SVG Version: 6.00 Build 0)  -->
<svg version="1.1" id="Layer_1" xmlns="http://www.w3.org/2000/svg" xmlns:xlink="http://www.w3.org/1999/xlink" x="0px" y="0px"
	 width="612px" height="792px" viewBox="0 0 612 792" enable-background="new 0 0 612 792" xml:space="preserve">
<rect x="266.5" y="369.004" fill-opacity="0" fill="#231F20" width="81" height="54.487"/>
<path id="SECONDARY_45_" fill="#FFC18C" stroke="#231F20" stroke-miterlimit="10" d="M324.779,394.331l3.417,12.58
	c0.491,1.811-0.578,3.677-2.389,4.168c-1.811,0.492-3.677-0.576-4.169-2.387l-2.068-7.619
	C322.802,399.501,324.191,397.16,324.779,394.331z"/>
<path id="SECONDARY_44_" fill="#FFC18C" stroke="#231F20" stroke-miterlimit="10" d="M317.341,401.941l1.224,10.363
	c0.22,1.863-1.112,3.552-2.977,3.771c-1.862,0.22-3.552-1.111-3.771-2.975l-1.182-10.019
	C313.338,402.883,315.547,402.495,317.341,401.941z"/>
<path id="SECONDARY_43_" fill="#FFC18C" stroke="#231F20" stroke-miterlimit="10" d="M306.078,403.245
	c0.259,0,0.499-0.007,0.751-0.009l-0.593,10.709c-0.104,1.873-1.706,3.307-3.579,3.203s-3.309-1.704-3.205-3.578l0.589-10.645
	C301.807,403.133,303.804,403.245,306.078,403.245z"/>
<path id="SECONDARY_42_" fill="#FFC18C" stroke="#231F20" stroke-miterlimit="10" d="M278.995,394.117l8.016-9.237
	c-0.03,0.396-0.058,0.793-0.058,1.196c0,3.083,0.005,5.974,0.662,8.475l-3.488,4.02c-1.229,1.417-3.375,1.568-4.792,0.338
	C277.918,397.68,277.766,395.534,278.995,394.117z"/>
<path id="SECONDARY_41_" fill="#FFC18C" stroke="#231F20" stroke-miterlimit="10" d="M290.919,399.803
	c1.478,1.168,3.504,2.079,6.288,2.67l-3.25,10.573c-0.551,1.794-2.452,2.801-4.245,2.249c-1.794-0.551-2.801-2.451-2.25-4.245
	L290.919,399.803z"/>
</svg>
