<?xml version="1.0" encoding="utf-8"?>
<!-- Generator: Adobe Illustrator 16.0.0, SVG Export Plug-In . SVG Version: 6.00 Build 0)  -->
<svg version="1.1" id="Layer_1" xmlns="http://www.w3.org/2000/svg" xmlns:xlink="http://www.w3.org/1999/xlink" x="0px" y="0px"
	 width="612px" height="792px" viewBox="0 0 612 792" enable-background="new 0 0 612 792" xml:space="preserve">
<rect x="179" y="310.248" fill="#231F20" fill-opacity="0" width="256" height="172"/>
<path id="SECONDARY_30_" fill="#FFC18C" stroke="#231F20" stroke-width="3.1586" stroke-miterlimit="10" d="M364.296,384.225
	c-1.117,10.732-4.607,19.744-15.259,25.72l1.753,6.434c9.966-5.502,14.157-13.606,15.92-23.28L364.296,384.225z"/>
<path id="SECONDARY_29_" fill="#FFC18C" stroke="#231F20" stroke-width="3.1586" stroke-miterlimit="10" d="M317.226,417.449
	l0.731,6.224c8.5-0.635,15.487-1.896,21.182-3.712l-0.685-5.792C332.719,415.787,325.729,416.9,317.226,417.449z"/>
<path id="SECONDARY_28_" fill="#FFC18C" stroke="#231F20" stroke-width="3.1586" stroke-miterlimit="10" d="M304.358,417.85
	c-6.339,0-11.978-0.28-17.054-0.795l-0.351,6.347c5.176,0.49,10.941,0.762,17.438,0.762c1.386,0,2.707-0.027,4.031-0.053
	l0.346-6.316C307.324,417.822,305.876,417.85,304.358,417.85z"/>
<path id="SECONDARY_27_" fill="#FFC18C" stroke="#231F20" stroke-width="3.1586" stroke-miterlimit="10" d="M256.641,407.138
	l-1.779,5.786c4.504,3.764,10.856,6.72,19.807,8.644l1.885-6.116C267.759,413.617,261.333,410.781,256.641,407.138z"/>
<path id="SECONDARY_26_" fill="#FFC18C" stroke="#231F20" stroke-width="3.1586" stroke-miterlimit="10" d="M252.548,335.811
	l-3.429-3.946c-4.958,6.13-8.504,13.232-10.253,20.925l5.286,6.084C244.966,350.48,247.952,342.661,252.548,335.811z"/>
</svg>
