<?xml version="1.0" encoding="utf-8"?>
<!-- Generator: Adobe Illustrator 16.0.0, SVG Export Plug-In . SVG Version: 6.00 Build 0)  -->
<svg version="1.1" id="Layer_1" xmlns="http://www.w3.org/2000/svg" xmlns:xlink="http://www.w3.org/1999/xlink" x="0px" y="0px"
	 width="612px" height="792px" viewBox="0 0 612 792" enable-background="new 0 0 612 792" xml:space="preserve">
<rect x="179" y="310.248" fill="#231F20" fill-opacity="0" width="256" height="172"/>
<path id="SECONDARY_40_" fill="#FFC18C" stroke="#231F20" stroke-width="3.1586" stroke-miterlimit="10" d="M245.534,390.223
	l-10.8,39.711c-1.554,5.719,1.827,11.606,7.551,13.157c5.721,1.554,11.622-1.818,13.173-7.534l6.54-24.051
	C251.782,406.542,247.394,399.153,245.534,390.223z"/>
<path id="SECONDARY_39_" fill="#FFC18C" stroke="#231F20" stroke-width="3.1586" stroke-miterlimit="10" d="M269.043,414.246
	l-3.865,32.714c-0.696,5.879,3.514,11.212,9.406,11.902c5.887,0.693,11.225-3.509,11.918-9.39l3.735-31.629
	C281.694,417.218,274.713,415.994,269.043,414.246z"/>
<path id="SECONDARY_38_" fill="#FFC18C" stroke="#231F20" stroke-width="3.1586" stroke-miterlimit="10" d="M304.639,418.361
	c-0.814,0-1.577-0.021-2.37-0.027l1.87,33.805c0.331,5.913,5.393,10.438,11.312,10.111c5.92-0.33,10.46-5.379,10.13-11.295
	l-1.857-33.604C318.139,418.007,311.827,418.361,304.639,418.361z"/>
<path id="SECONDARY_37_" fill="#FFC18C" stroke="#231F20" stroke-width="3.1586" stroke-miterlimit="10" d="M390.234,389.547
	l-25.333-29.158c0.093,1.25,0.182,2.503,0.182,3.774c0,9.732-0.015,18.858-2.089,26.753l11.021,12.69
	c3.883,4.473,10.67,4.951,15.145,1.066C393.642,400.793,394.123,394.021,390.234,389.547z"/>
<path id="SECONDARY_36_" fill="#FFC18C" stroke="#231F20" stroke-width="3.1586" stroke-miterlimit="10" d="M352.55,407.495
	c-4.673,3.687-11.074,6.563-19.874,8.431l10.271,33.374c1.744,5.663,7.75,8.844,13.417,7.1c5.67-1.739,8.852-7.738,7.111-13.401
	L352.55,407.495z"/>
</svg>
