<?xml version="1.0" encoding="utf-8"?>
<!-- Generator: Adobe Illustrator 16.0.0, SVG Export Plug-In . SVG Version: 6.00 Build 0)  -->
<svg version="1.1" id="Layer_1" xmlns="http://www.w3.org/2000/svg" xmlns:xlink="http://www.w3.org/1999/xlink" x="0px" y="0px"
	 width="612px" height="792px" viewBox="0 0 612 792" enable-background="new 0 0 612 792" xml:space="preserve">
<rect x="266.5" y="369.004" fill-opacity="0" fill="#231F20" width="81" height="54.487"/>
<path id="SECONDARY_24_" fill="#FFC18C" stroke="#231F20" stroke-miterlimit="10" d="M325.372,386.084
	c0,9.482,0.875,17.169-19.125,17.169c-19.125,0-19.125-7.687-19.125-17.169c0-4.063,1.573-7.798,4.202-10.738
	c0.876-0.98,1.87-1.872,2.961-2.659c1.092-0.787,3.342,0.23,3.551-2.026c1.749,1.395,4.555,4.531,4.025-1.292
	c1.541,5.61,4.451,6.597,4.385-0.453c0.787,7.013,3.626,7.677,4.386,0.454c-0.188,7.3,2.058,2.598,4.024,1.292
	c0.132,2.02,2.46,1.24,3.552,2.026C322.576,375.833,325.372,380.665,325.372,386.084z"/>
</svg>
