<?xml version="1.0" encoding="utf-8"?>
<!-- Generator: Adobe Illustrator 16.0.0, SVG Export Plug-In . SVG Version: 6.00 Build 0)  -->
<svg version="1.1" id="Layer_1" xmlns="http://www.w3.org/2000/svg" xmlns:xlink="http://www.w3.org/1999/xlink" x="0px" y="0px"
	 width="612px" height="792px" viewBox="0 0 612 792" enable-background="new 0 0 612 792" xml:space="preserve">
<rect x="266.5" y="369.004" fill-opacity="0" fill="#231F20" width="81" height="54.487"/>
<path id="SECONDARY_35_" fill="#FFC18C" stroke="#231F20" stroke-miterlimit="10" d="M319.858,400.787l-3.587-13.21
	c-0.492-1.812,0.576-3.678,2.387-4.169c1.811-0.492,3.678,0.576,4.17,2.388l2.068,7.616
	C324.339,396.477,323.013,399.044,319.858,400.787z"/>
<path id="SECONDARY_34_" fill="#FFC18C" stroke="#231F20" stroke-miterlimit="10" d="M311.845,385.745
	c1.863-0.22,3.552,1.111,3.772,2.976l1.557,13.2c-1.802,0.575-4.013,0.974-6.702,1.176l-1.603-13.579
	C308.649,387.653,309.981,385.965,311.845,385.745z"/>
<path id="SECONDARY_33_" fill="#FFC18C" stroke="#231F20" stroke-miterlimit="10" d="M304.965,386.692
	c1.873,0.103,3.309,1.704,3.205,3.578l-0.717,12.965c-0.419,0.008-0.837,0.017-1.275,0.017c-2.056,0-3.88-0.086-5.518-0.241
	l0.725-13.114C301.488,388.022,303.092,386.588,304.965,386.692z"/>
<path id="SECONDARY_32_" fill="#FFC18C" stroke="#231F20" stroke-miterlimit="10" d="M294.381,387.089
	c0.552-1.795,2.453-2.802,4.246-2.25c1.793,0.551,2.801,2.451,2.249,4.246l-4.103,13.346c-2.832-0.61-4.842-1.546-6.267-2.739
	L294.381,387.089z"/>
<path id="SECONDARY_31_" fill="#FFC18C" stroke="#231F20" stroke-miterlimit="10" d="M299.939,391.856
	c-1.417,1.229-3.563,1.078-4.793-0.34l-7.701-8.875c0.553-2.437,1.675-4.687,3.244-6.629l9.59,11.051
	C301.51,388.481,301.356,390.627,299.939,391.856z"/>
</svg>
