<?xml version="1.0" encoding="utf-8"?>
<!-- Generator: Adobe Illustrator 16.0.0, SVG Export Plug-In . SVG Version: 6.00 Build 0)  -->
<svg version="1.1" id="Layer_1" xmlns="http://www.w3.org/2000/svg" xmlns:xlink="http://www.w3.org/1999/xlink" x="0px" y="0px"
	 width="612px" height="792px" viewBox="0 0 612 792" enable-background="new 0 0 612 792" xml:space="preserve">
<rect x="266.5" y="369.004" fill-opacity="0" fill="#231F20" width="81" height="54.487"/>
<path id="SECONDARY_40_" fill="#FFC18C" stroke="#231F20" stroke-miterlimit="10" d="M287.552,394.339l-3.417,12.58
	c-0.492,1.811,0.578,3.677,2.389,4.168c1.81,0.492,3.677-0.576,4.168-2.387l2.069-7.619
	C289.529,399.509,288.14,397.168,287.552,394.339z"/>
<path id="SECONDARY_39_" fill="#FFC18C" stroke="#231F20" stroke-miterlimit="10" d="M294.99,401.949l-1.223,10.363
	c-0.22,1.863,1.112,3.552,2.976,3.771c1.863,0.22,3.552-1.111,3.771-2.975l1.182-10.019
	C298.993,402.891,296.784,402.503,294.99,401.949z"/>
<path id="SECONDARY_38_" fill="#FFC18C" stroke="#231F20" stroke-miterlimit="10" d="M306.253,403.253
	c-0.258,0-0.499-0.007-0.75-0.009l0.592,10.709c0.104,1.873,1.706,3.307,3.579,3.203s3.309-1.704,3.205-3.578l-0.588-10.645
	C310.524,403.141,308.527,403.253,306.253,403.253z"/>
<path id="SECONDARY_37_" fill="#FFC18C" stroke="#231F20" stroke-miterlimit="10" d="M333.336,394.125l-8.016-9.237
	c0.03,0.396,0.058,0.793,0.058,1.196c0,3.083-0.005,5.974-0.661,8.475l3.487,4.02c1.229,1.417,3.376,1.568,4.792,0.338
	C334.414,397.688,334.566,395.542,333.336,394.125z"/>
<path id="SECONDARY_36_" fill="#FFC18C" stroke="#231F20" stroke-miterlimit="10" d="M321.412,399.811
	c-1.478,1.168-3.504,2.079-6.288,2.67l3.25,10.573c0.552,1.794,2.452,2.801,4.245,2.249c1.794-0.551,2.801-2.451,2.25-4.245
	L321.412,399.811z"/>
</svg>
