<?xml version="1.0" encoding="utf-8"?>
<!-- Generator: Adobe Illustrator 16.0.0, SVG Export Plug-In . SVG Version: 6.00 Build 0)  -->
<svg version="1.1" id="Layer_1" xmlns="http://www.w3.org/2000/svg" xmlns:xlink="http://www.w3.org/1999/xlink" x="0px" y="0px"
	 width="612px" height="792px" viewBox="0 0 612 792" enable-background="new 0 0 612 792" xml:space="preserve">
<rect x="179" y="310.508" fill="#231F20" fill-opacity="0" width="256" height="171.667"/>
<path id="SECONDARY_25_" fill="#FFC18C" stroke="#231F20" stroke-width="3.1555" stroke-miterlimit="10" d="M244.194,364.321
	c0,29.874-2.765,54.092,60.444,54.092c60.444,0,60.444-24.219,60.444-54.092c0-12.801-4.972-24.568-13.28-33.831
	c-2.766-3.087-5.907-5.898-9.358-8.378c-3.45-2.48-10.562,0.725-11.222-6.383c-5.528,4.396-14.396,14.274-12.723-4.07
	c-4.87,17.674-14.065,20.783-13.861-1.428c-2.487,22.096-11.459,24.187-13.858,1.431c0.591,22.999-6.508,8.184-12.722,4.07
	c-0.414,6.364-7.771,3.906-11.222,6.383C253.031,332.024,244.194,347.248,244.194,364.321z"/>
</svg>
