<?xml version="1.0" encoding="utf-8"?>
<!-- Generator: Adobe Illustrator 16.0.0, SVG Export Plug-In . SVG Version: 6.00 Build 0)  -->
<svg version="1.1" id="Layer_1" xmlns="http://www.w3.org/2000/svg" xmlns:xlink="http://www.w3.org/1999/xlink" x="0px" y="0px"
	 width="612px" height="792px" viewBox="0 0 612 792" enable-background="new 0 0 612 792" xml:space="preserve">
<rect x="179" y="310.248" fill="#231F20" fill-opacity="0" width="256" height="172"/>
<path id="SECONDARY_35_" fill="#FFC18C" stroke="#231F20" stroke-width="3.1586" stroke-miterlimit="10" d="M347.639,410.578
	l-11.336-41.7c-1.556-5.72,1.817-11.611,7.543-13.16c5.723-1.554,11.623,1.817,13.179,7.537l6.537,24.042
	C361.8,396.971,357.608,405.075,347.639,410.578z"/>
<path id="SECONDARY_34_" fill="#FFC18C" stroke="#231F20" stroke-width="3.1586" stroke-miterlimit="10" d="M322.312,363.095
	c5.889-0.695,11.229,3.506,11.923,9.395l4.92,41.667c-5.694,1.816-12.682,3.074-21.182,3.712l-5.065-42.863
	C312.213,369.117,316.423,363.788,322.312,363.095z"/>
<path id="SECONDARY_33_" fill="#FFC18C" stroke="#231F20" stroke-width="3.1586" stroke-miterlimit="10" d="M300.568,366.083
	c5.92,0.325,10.459,5.38,10.129,11.295l-2.266,40.927c-1.323,0.024-2.645,0.053-4.03,0.053c-6.497,0-12.263-0.271-17.438-0.762
	l2.29-41.396C289.579,370.282,294.648,365.755,300.568,366.083z"/>
<path id="SECONDARY_32_" fill="#FFC18C" stroke="#231F20" stroke-width="3.1586" stroke-miterlimit="10" d="M267.117,367.336
	c1.746-5.666,7.753-8.844,13.42-7.103c5.667,1.74,8.854,7.738,7.108,13.404l-12.967,42.128c-8.951-1.924-15.303-4.88-19.808-8.644
	L267.117,367.336z"/>
<path id="SECONDARY_31_" fill="#FFC18C" stroke="#231F20" stroke-width="3.1586" stroke-miterlimit="10" d="M284.684,382.385
	c-4.479,3.879-11.261,3.403-15.148-1.073l-24.34-28.016c1.749-7.692,5.295-14.795,10.253-20.925l30.309,34.884
	C289.648,371.731,289.162,378.505,284.684,382.385z"/>
</svg>
