<?xml version="1.0" encoding="utf-8"?>
<!-- Generator: Adobe Illustrator 16.0.0, SVG Export Plug-In . SVG Version: 6.00 Build 0)  -->
<svg version="1.1" id="Layer_1" xmlns="http://www.w3.org/2000/svg" xmlns:xlink="http://www.w3.org/1999/xlink" x="0px" y="0px"
	 width="612px" height="792px" viewBox="0 0 612 792" enable-background="new 0 0 612 792" xml:space="preserve">
<rect x="179" y="313.881" fill="#231F20" fill-opacity="0" width="256" height="164.911"/>
<path id="SECONDARY_24_" fill="#FFC18C" stroke="#231F20" stroke-width="3.0928" stroke-miterlimit="10" d="M365.064,365.576
	c0,28.698,2.766,51.963-60.444,51.963c-60.444,0-60.444-23.266-60.444-51.963c0-12.297,4.971-23.601,13.281-32.499
	c2.769-2.966,5.909-5.666,9.358-8.048c3.451-2.382,10.562,0.696,11.222-6.131c5.528,4.222,14.396,13.713,12.721-3.91
	c4.87,16.979,14.066,19.965,13.859-1.372c2.487,21.226,11.46,23.234,13.861,1.375c-0.593,22.093,6.506,7.862,12.719,3.91
	c0.417,6.114,7.775,3.752,11.226,6.131C356.229,334.55,365.064,349.175,365.064,365.576z"/>
</svg>
