<?xml version="1.0" encoding="utf-8"?>
<!-- Generator: Adobe Illustrator 16.0.0, SVG Export Plug-In . SVG Version: 6.00 Build 0)  -->
<svg version="1.1" id="Layer_1" xmlns="http://www.w3.org/2000/svg" xmlns:xlink="http://www.w3.org/1999/xlink" x="0px" y="0px"
	 width="612px" height="792px" viewBox="0 0 612 792" enable-background="new 0 0 612 792" xml:space="preserve">
<rect x="179" y="310.248" fill="#231F20" fill-opacity="0" width="256" height="172"/>
<path id="SECONDARY_30_" fill="#FFC18C" stroke="#231F20" stroke-width="3.1586" stroke-miterlimit="10" d="M249.704,384.225
	c1.117,10.732,4.606,19.744,15.259,25.72l-1.753,6.434c-9.966-5.502-14.157-13.605-15.92-23.28L249.704,384.225z"/>
<path id="SECONDARY_29_" fill="#FFC18C" stroke="#231F20" stroke-width="3.1586" stroke-miterlimit="10" d="M296.774,417.449
	l-0.731,6.224c-8.5-0.635-15.487-1.896-21.182-3.712l0.685-5.792C281.281,415.787,288.271,416.9,296.774,417.449z"/>
<path id="SECONDARY_28_" fill="#FFC18C" stroke="#231F20" stroke-width="3.1586" stroke-miterlimit="10" d="M309.642,417.85
	c6.339,0,11.979-0.279,17.054-0.795l0.352,6.348c-5.176,0.489-10.941,0.762-17.438,0.762c-1.386,0-2.706-0.027-4.03-0.053
	l-0.346-6.316C306.676,417.822,308.124,417.85,309.642,417.85z"/>
<path id="SECONDARY_27_" fill="#FFC18C" stroke="#231F20" stroke-width="3.1586" stroke-miterlimit="10" d="M357.358,407.138
	l1.779,5.786c-4.504,3.765-10.855,6.72-19.807,8.645l-1.886-6.116C346.241,413.617,352.667,410.781,357.358,407.138z"/>
<path id="SECONDARY_26_" fill="#FFC18C" stroke="#231F20" stroke-width="3.1586" stroke-miterlimit="10" d="M361.452,335.811
	l3.429-3.946c4.958,6.13,8.504,13.232,10.253,20.925l-5.286,6.084C369.034,350.48,366.048,342.661,361.452,335.811z"/>
</svg>
