<?xml version="1.0" encoding="utf-8"?>
<!-- Generator: Adobe Illustrator 16.0.0, SVG Export Plug-In . SVG Version: 6.00 Build 0)  -->
<svg version="1.1" id="Layer_1" xmlns="http://www.w3.org/2000/svg" xmlns:xlink="http://www.w3.org/1999/xlink" x="0px" y="0px"
	 width="612px" height="792px" viewBox="0 0 612 792" enable-background="new 0 0 612 792" xml:space="preserve">
<rect x="179" y="310.248" fill="#231F20" fill-opacity="0" width="256" height="172"/>
<path id="SECONDARY_45_" fill="#FFC18C" stroke="#231F20" stroke-width="3.1586" stroke-miterlimit="10" d="M363.191,390.198
	l10.799,39.711c1.55,5.716-1.826,11.606-7.552,13.157c-5.723,1.554-11.62-1.818-13.176-7.534l-6.534-24.052
	C356.941,406.518,361.333,399.129,363.191,390.198z"/>
<path id="SECONDARY_44_" fill="#FFC18C" stroke="#231F20" stroke-width="3.1586" stroke-miterlimit="10" d="M339.682,414.222
	l3.871,32.71c0.694,5.882-3.516,11.215-9.411,11.906c-5.886,0.693-11.225-3.509-11.916-9.394l-3.738-31.626
	C327.031,417.193,334.013,415.969,339.682,414.222z"/>
<path id="SECONDARY_43_" fill="#FFC18C" stroke="#231F20" stroke-width="3.1586" stroke-miterlimit="10" d="M304.086,418.337
	c0.818,0,1.577-0.021,2.374-0.028l-1.874,33.806c-0.33,5.912-5.392,10.438-11.312,10.111c-5.92-0.33-10.458-5.38-10.13-11.295
	l1.861-33.604C290.588,417.982,296.9,418.337,304.086,418.337z"/>
<path id="SECONDARY_42_" fill="#FFC18C" stroke="#231F20" stroke-width="3.1586" stroke-miterlimit="10" d="M218.491,389.522
	l25.333-29.159c-0.094,1.25-0.182,2.503-0.182,3.776c0,9.732,0.015,18.857,2.091,26.752l-11.023,12.691
	c-3.884,4.473-10.667,4.947-15.145,1.066C215.086,400.769,214.606,393.996,218.491,389.522z"/>
<path id="SECONDARY_41_" fill="#FFC18C" stroke="#231F20" stroke-width="3.1586" stroke-miterlimit="10" d="M256.176,407.471
	c4.671,3.687,11.074,6.563,19.874,8.428l-10.271,33.377c-1.741,5.662-7.75,8.841-13.417,7.099c-5.67-1.738-8.852-7.737-7.111-13.4
	L256.176,407.471z"/>
</svg>
