<?xml version="1.0" encoding="utf-8"?>
<!-- Generator: Adobe Illustrator 16.0.0, SVG Export Plug-In . SVG Version: 6.00 Build 0)  -->
<svg version="1.1" id="Layer_1" xmlns="http://www.w3.org/2000/svg" xmlns:xlink="http://www.w3.org/1999/xlink" x="0px" y="0px"
	 width="612px" height="792px" viewBox="0 0 612 792" enable-background="new 0 0 612 792" xml:space="preserve">
<rect x="271.592" y="379.106" fill-opacity="0" fill="#231F20" width="69.979" height="35"/>
<path id="PRIMARY_47_" fill="#FFFA00" stroke="#231F20" stroke-miterlimit="10" d="M335.718,413.606c0,0-8.391,0-15.575,0h-30.957
	c-7.184,0-13.007-5.991-13.007-13.382l0,0c0-7.391,5.824-10.382,13.007-10.382h27.635c6.586,5.407,6.336,8.491,7.846,9.074
	C340.262,404.939,340.612,411.619,335.718,413.606L335.718,413.606z"/>
<path fill="none" stroke="#231F20" stroke-miterlimit="10" d="M332.668,414.084c0-4.606-5.997-8.334-13.405-8.334"/>
<path fill="none" stroke="#231F20" stroke-miterlimit="10" d="M336.875,413.111c0-5.382-6.023-9.736-13.468-9.736"/>
<polygon fill="#FFFFFF" stroke="#231F20" stroke-miterlimit="10" points="340.612,410.986 336.783,413.012 336.805,411.046 
	336.825,409.045 "/>
<polygon fill="#FFFFFF" stroke="#231F20" stroke-miterlimit="10" points="337.606,411.461 333.616,413.57 333.639,411.522 
	333.66,409.437 "/>
<polygon fill="#FFFFFF" stroke="#231F20" stroke-miterlimit="10" points="333.762,411.66 330.512,413.322 330.492,411.635 
	330.471,409.916 "/>
</svg>
