<?xml version="1.0" encoding="utf-8"?>
<!-- Generator: Adobe Illustrator 16.0.0, SVG Export Plug-In . SVG Version: 6.00 Build 0)  -->
<svg version="1.1" id="Layer_1" xmlns="http://www.w3.org/2000/svg" xmlns:xlink="http://www.w3.org/1999/xlink" x="0px" y="0px"
	 width="612px" height="792px" viewBox="0 0 612 792" enable-background="new 0 0 612 792" xml:space="preserve">
<rect x="178.643" y="332.394" fill="#231F20" fill-opacity="0" width="255.876" height="128.425"/>
<path id="PRIMARY_47_" fill="#FFFA00" stroke="#231F20" stroke-width="3.6628" stroke-miterlimit="10" d="M413.117,458.984
	c0,0-30.68,0-56.95,0H242.976c-26.268,0-47.559-21.983-47.559-49.105l0,0c0-27.117,21.294-38.093,47.559-38.093h101.047
	c24.081,19.84,23.167,31.156,28.688,33.295C429.731,427.183,431.014,451.692,413.117,458.984L413.117,458.984z"/>
<path fill="none" stroke="#231F20" stroke-width="3.6628" stroke-miterlimit="10" d="M401.966,460.736
	c0-16.898-21.929-30.579-49.017-30.579"/>
<path fill="none" stroke="#231F20" stroke-width="3.6628" stroke-miterlimit="10" d="M417.349,457.167
	c0-19.751-22.024-35.725-49.245-35.725"/>
<polygon fill="#FFFFFF" stroke="#231F20" stroke-width="3.6628" stroke-miterlimit="10" points="431.014,449.37 417.013,456.802 
	417.091,449.589 417.166,442.247 "/>
<polygon fill="#FFFFFF" stroke="#231F20" stroke-width="3.6628" stroke-miterlimit="10" points="420.022,451.111 405.433,458.852 
	405.515,451.338 405.594,443.688 "/>
<polygon fill="#FFFFFF" stroke="#231F20" stroke-width="3.6628" stroke-miterlimit="10" points="405.965,451.843 394.081,457.941 
	394.01,451.749 393.932,445.443 "/>
</svg>
