<?xml version="1.0" encoding="utf-8"?>
<!-- Generator: Adobe Illustrator 16.0.0, SVG Export Plug-In . SVG Version: 6.00 Build 0)  -->
<svg version="1.1" id="Layer_1" xmlns="http://www.w3.org/2000/svg" xmlns:xlink="http://www.w3.org/1999/xlink" x="0px" y="0px"
	 width="612px" height="792px" viewBox="0 0 612 792" enable-background="new 0 0 612 792" xml:space="preserve">
<rect x="178" y="310.177" fill="#231F20" fill-opacity="0" width="256" height="172"/>
<path id="SECONDARY_28_" fill="#FFFA00" stroke="#231F20" stroke-width="3.1586" stroke-miterlimit="10" d="M350.145,370.167
	l23.618,60.809c2.728,7.031-0.76,14.938-7.806,17.67c-7.04,2.729-14.957-0.762-17.691-7.793l-12.827-33.025
	C343.957,398.403,349.484,385.089,350.145,370.167z"/>
<path id="SECONDARY_27_" fill="#FFFA00" stroke="#231F20" stroke-width="3.1586" stroke-miterlimit="10" d="M304.796,422.104
	c4.926,0,9.654-0.993,14.092-2.778v25.458c0,7.543-6.123,13.656-13.673,13.656c-7.549,0-13.673-6.116-13.673-13.656V419.68
	C295.734,421.249,300.185,422.104,304.796,422.104z"/>
<path id="SECONDARY_26_" fill="#FFFA00" stroke="#231F20" stroke-width="3.1586" stroke-miterlimit="10" d="M239.266,428.114
	l23.392-43.02c3.094,10.928,8.925,20.281,16.517,26.854l-15.875,29.2c-3.6,6.631-11.9,9.085-18.537,5.484
	C238.122,443.038,235.667,434.742,239.266,428.114z"/>
<path fill="none" stroke="#231F20" stroke-width="3.1586" stroke-miterlimit="10" d="M347.697,437.113
	c-2.833-7.297,21.871-16.968,24.741-9.582"/>
<path fill="none" stroke="#231F20" stroke-width="3.1586" stroke-miterlimit="10" d="M341.358,420.787
	c-2.831-7.297,21.876-16.959,24.737-9.585"/>
<polygon fill="#FFFFFF" stroke="#231F20" stroke-width="3.1586" stroke-miterlimit="10" points="360.957,441.46 370.519,440.89 
	361.358,459.29 351.389,442.036 "/>
<path fill="none" stroke="#231F20" stroke-width="3.1586" stroke-miterlimit="10" d="M264.338,437.517
	c3.742-6.884-19.539-19.612-23.321-12.651"/>
<path fill="none" stroke="#231F20" stroke-width="3.1586" stroke-miterlimit="10" d="M272.71,422.125
	c3.736-6.878-19.543-19.604-23.321-12.652"/>
<polygon fill="#FFFFFF" stroke="#231F20" stroke-width="3.1586" stroke-miterlimit="10" points="250.631,440.141 241.222,438.367 
	247.971,457.776 260.049,441.928 "/>
<path fill="none" stroke="#231F20" stroke-width="3.1586" stroke-miterlimit="10" d="M318.064,441.096c0-7.827-26.537-7.92-26.537,0
	"/>
<polygon fill="#FFFFFF" stroke="#231F20" stroke-width="3.1586" stroke-miterlimit="10" points="304.429,452.705 294.854,452.745 
	305.168,470.523 314.013,452.668 "/>
</svg>
