<?xml version="1.0" encoding="utf-8"?>
<!-- Generator: Adobe Illustrator 16.0.0, SVG Export Plug-In . SVG Version: 6.00 Build 0)  -->
<svg version="1.1" id="Layer_1" xmlns="http://www.w3.org/2000/svg" xmlns:xlink="http://www.w3.org/1999/xlink" x="0px" y="0px"
	 width="612px" height="792px" viewBox="0 0 612 792" enable-background="new 0 0 612 792" xml:space="preserve">
<rect x="178" y="310.177" fill="#231F20" fill-opacity="0" width="256" height="172"/>
<path id="SECONDARY_31_" fill="#FFFA00" stroke="#231F20" stroke-width="3.1586" stroke-miterlimit="10" d="M273.571,356.621
	c5.106-5.557,13.756-5.919,19.316-0.814c5.559,5.104,5.923,13.745,0.812,19.296l-23.903,25.963
	c-5.414-8.39-8.846-18.737-9.491-30.038L273.571,356.621z"/>
<path id="SECONDARY_30_" fill="#FFFA00" stroke="#231F20" stroke-width="3.1586" stroke-miterlimit="10" d="M305.207,377.851
	c7.552,0,13.673,8.365,13.673,18.693v22.973c-4.312,1.668-8.904,2.587-13.67,2.587c-4.773,0-9.361-0.919-13.676-2.593v-22.967
	C291.534,386.215,297.653,377.851,305.207,377.851z"/>
<path id="SECONDARY_29_" fill="#FFFA00" stroke="#231F20" stroke-width="3.1586" stroke-miterlimit="10" d="M315.29,372.022
	c-4.086-6.338-2.259-14.792,4.093-18.874c6.349-4.088,14.809-2.257,18.895,4.088l11.479,17.801
	c-1.407,11.967-5.938,22.706-12.614,30.882L315.29,372.022z"/>
<polygon fill="#FFFFFF" stroke="#231F20" stroke-width="3.1586" stroke-miterlimit="10" points="323.623,358.489 315.809,364.027 
	313.84,343.578 331.436,352.953 "/>
<polygon fill="#FFFFFF" stroke="#231F20" stroke-width="3.1586" stroke-miterlimit="10" points="289.309,360.422 295.424,367.777 
	302.619,348.527 283.197,353.048 "/>
<polygon fill="#FFFFFF" stroke="#231F20" stroke-width="3.1586" stroke-miterlimit="10" points="305.994,384.201 315.574,384.158 
	305.254,363.127 296.414,384.249 "/>
</svg>
