<?xml version="1.0" encoding="utf-8"?>
<!-- Generator: Adobe Illustrator 16.0.0, SVG Export Plug-In . SVG Version: 6.00 Build 0)  -->
<svg version="1.1" id="Layer_1" xmlns="http://www.w3.org/2000/svg" xmlns:xlink="http://www.w3.org/1999/xlink" x="0px" y="0px"
	 width="612px" height="792px" viewBox="0 0 612 792" enable-background="new 0 0 612 792" xml:space="preserve">
<rect x="178" y="310.177" fill="#231F20" fill-opacity="0" width="256" height="172"/>
<path id="SECONDARY_34_" fill="#FFFA00" stroke="#231F20" stroke-width="3.1586" stroke-miterlimit="10" d="M349.41,378.794
	l3.683,5.717c-1.407,11.969-5.938,22.706-12.611,30.881l-4.877-7.559C342.45,400.268,347.395,390.206,349.41,378.794z"/>
<path id="SECONDARY_33_" fill="#FFFA00" stroke="#231F20" stroke-width="3.1586" stroke-miterlimit="10" d="M305.21,422.106
	c4.833,0,9.479-0.956,13.846-2.67v6.394c-4.315,1.668-8.901,2.586-13.671,2.586c-4.773,0-9.358-0.918-13.673-2.592v-6.236
	C295.969,421.219,300.508,422.106,305.21,422.106z"/>
<path id="SECONDARY_32_" fill="#FFFA00" stroke="#231F20" stroke-width="3.1586" stroke-miterlimit="10" d="M261.431,379.188
	c1.912,10.439,6.242,19.767,12.265,27.032l-6.889,7.476c-5.414-8.388-8.847-18.737-9.488-30.038L261.431,379.188z"/>
</svg>
