<?xml version="1.0" encoding="utf-8"?>
<!-- Generator: Adobe Illustrator 16.0.0, SVG Export Plug-In . SVG Version: 6.00 Build 0)  -->
<svg version="1.1" id="Layer_1" xmlns="http://www.w3.org/2000/svg" xmlns:xlink="http://www.w3.org/1999/xlink" x="0px" y="0px"
	 width="612px" height="792px" viewBox="0 0 612 792" enable-background="new 0 0 612 792" xml:space="preserve">
<rect x="265.5" y="368.933" fill-opacity="0" fill="#231F20" width="81" height="54.487"/>
<path id="SECONDARY_31_" fill="#FFFA00" stroke="#231F20" stroke-miterlimit="10" d="M295.739,383.646
	c1.616-1.76,4.353-1.875,6.112-0.258c1.759,1.617,1.874,4.354,0.257,6.113l-7.563,8.225c-1.713-2.658-2.799-5.936-3.003-9.516
	L295.739,383.646z"/>
<path id="SECONDARY_30_" fill="#FFFA00" stroke="#231F20" stroke-miterlimit="10" d="M305.749,390.371
	c2.39,0,4.326,2.65,4.326,5.922v7.277c-1.364,0.529-2.817,0.82-4.325,0.82c-1.51,0-2.962-0.291-4.327-0.822v-7.275
	C301.423,393.021,303.359,390.371,305.749,390.371z"/>
<path id="SECONDARY_29_" fill="#FFFA00" stroke="#231F20" stroke-miterlimit="10" d="M308.939,388.525
	c-1.293-2.008-0.714-4.686,1.295-5.979c2.009-1.295,4.686-0.715,5.979,1.295l3.632,5.639c-0.446,3.791-1.879,7.193-3.991,9.783
	L308.939,388.525z"/>
<polygon fill="#FFFFFF" stroke="#231F20" stroke-miterlimit="10" points="311.576,384.238 309.104,385.992 308.48,379.514 
	314.048,382.484 "/>
<polygon fill="#FFFFFF" stroke="#231F20" stroke-miterlimit="10" points="300.719,384.85 302.654,387.18 304.93,381.082 
	298.785,382.514 "/>
<polygon fill="#FFFFFF" stroke="#231F20" stroke-miterlimit="10" points="305.998,392.383 309.029,392.369 305.764,385.707 
	302.967,392.398 "/>
</svg>
