<?xml version="1.0" encoding="utf-8"?>
<!-- Generator: Adobe Illustrator 16.0.0, SVG Export Plug-In . SVG Version: 6.00 Build 0)  -->
<svg version="1.1" id="Layer_1" xmlns="http://www.w3.org/2000/svg" xmlns:xlink="http://www.w3.org/1999/xlink" x="0px" y="0px"
	 width="612px" height="792px" viewBox="0 0 612 792" enable-background="new 0 0 612 792" xml:space="preserve">
<rect x="265.5" y="368.933" fill-opacity="0" fill="#231F20" width="81" height="54.487"/>
<path id="SECONDARY_25_" fill="#FFFA00" stroke="#231F20" stroke-miterlimit="10" d="M319.969,388.055l7.472,19.264
	c0.864,2.227-0.241,4.732-2.469,5.598c-2.228,0.863-4.733-0.242-5.598-2.469l-4.059-10.463
	C318.012,397,319.76,392.783,319.969,388.055z"/>
<path id="SECONDARY_24_" fill="#FFFA00" stroke="#231F20" stroke-miterlimit="10" d="M305.621,404.508
	c1.559,0,3.055-0.314,4.458-0.879v8.064c0,2.389-1.937,4.326-4.326,4.326s-4.326-1.938-4.326-4.326v-7.953
	C302.753,404.238,304.16,404.508,305.621,404.508z"/>
<path id="SECONDARY_23_" fill="#FFFA00" stroke="#231F20" stroke-miterlimit="10" d="M284.887,406.412l7.4-13.627
	c0.98,3.461,2.824,6.424,5.226,8.506l-5.022,9.25c-1.141,2.1-3.766,2.879-5.867,1.738
	C284.524,411.139,283.746,408.512,284.887,406.412z"/>
<polygon fill="#FFFFFF" stroke="#231F20" stroke-miterlimit="10" points="323.389,410.689 326.414,410.51 323.516,416.338 
	320.362,410.873 "/>
<polygon fill="#FFFFFF" stroke="#231F20" stroke-miterlimit="10" points="288.482,410.273 285.505,409.711 287.64,415.859 
	291.462,410.838 "/>
<polygon fill="#FFFFFF" stroke="#231F20" stroke-miterlimit="10" points="305.504,414.252 302.473,414.266 305.738,419.896 
	308.535,414.24 "/>
</svg>
