<?xml version="1.0" encoding="utf-8"?>
<!-- Generator: Adobe Illustrator 16.0.0, SVG Export Plug-In . SVG Version: 6.00 Build 0)  -->
<svg version="1.1" id="Layer_1" xmlns="http://www.w3.org/2000/svg" xmlns:xlink="http://www.w3.org/1999/xlink" x="0px" y="0px"
	 width="612px" height="792px" viewBox="0 0 612 792" enable-background="new 0 0 612 792" xml:space="preserve">
<rect x="265.5" y="368.933" fill-opacity="0" fill="#231F20" width="81" height="54.487"/>
<path id="SECONDARY_28_" fill="#FFFA00" stroke="#231F20" stroke-miterlimit="10" d="M319.968,387.937l7.472,19.263
	c0.864,2.228-0.24,4.733-2.469,5.598c-2.228,0.864-4.733-0.241-5.598-2.469l-4.059-10.462
	C318.01,396.882,319.759,392.664,319.968,387.937z"/>
<path id="SECONDARY_27_" fill="#FFFA00" stroke="#231F20" stroke-miterlimit="10" d="M305.619,404.39
	c1.559,0,3.055-0.315,4.459-0.88v8.064c0,2.39-1.937,4.326-4.326,4.326s-4.326-1.937-4.326-4.326v-7.952
	C302.752,404.119,304.16,404.39,305.619,404.39z"/>
<path id="SECONDARY_26_" fill="#FFFA00" stroke="#231F20" stroke-miterlimit="10" d="M284.885,406.294l7.401-13.628
	c0.979,3.462,2.824,6.425,5.226,8.507l-5.023,9.25c-1.139,2.1-3.765,2.878-5.865,1.737
	C284.523,411.021,283.746,408.394,284.885,406.294z"/>
<path fill="none" stroke="#231F20" stroke-miterlimit="10" d="M319.193,409.145c-0.896-2.312,6.92-5.375,7.828-3.036"/>
<path fill="none" stroke="#231F20" stroke-miterlimit="10" d="M317.188,403.973c-0.896-2.312,6.921-5.372,7.827-3.036"/>
<polygon fill="#FFFFFF" stroke="#231F20" stroke-miterlimit="10" points="323.389,410.521 326.414,410.341 323.516,416.17 
	320.361,410.704 "/>
<path fill="none" stroke="#231F20" stroke-miterlimit="10" d="M292.818,409.272c1.184-2.18-6.182-6.212-7.379-4.007"/>
<path fill="none" stroke="#231F20" stroke-miterlimit="10" d="M295.467,404.396c1.182-2.178-6.184-6.209-7.379-4.007"/>
<polygon fill="#FFFFFF" stroke="#231F20" stroke-miterlimit="10" points="288.481,410.104 285.504,409.542 287.639,415.69 
	291.461,410.67 "/>
<path fill="none" stroke="#231F20" stroke-miterlimit="10" d="M309.817,410.406c0-2.479-8.396-2.509-8.396,0"/>
<polygon fill="#FFFFFF" stroke="#231F20" stroke-miterlimit="10" points="305.503,414.084 302.473,414.097 305.737,419.729 
	308.535,414.072 "/>
</svg>
