<?xml version="1.0" encoding="utf-8"?>
<!-- Generator: Adobe Illustrator 16.0.0, SVG Export Plug-In . SVG Version: 6.00 Build 0)  -->
<svg version="1.1" id="Layer_1" xmlns="http://www.w3.org/2000/svg" xmlns:xlink="http://www.w3.org/1999/xlink" x="0px" y="0px"
	 width="612px" height="792px" viewBox="0 0 612 792" enable-background="new 0 0 612 792" xml:space="preserve">
<rect x="178" y="310.177" fill="#231F20" fill-opacity="0" width="256" height="172"/>
<path id="SECONDARY_25_" fill="#FFFA00" stroke="#231F20" stroke-width="3.1586" stroke-miterlimit="10" d="M350.148,370.54
	l23.617,60.812c2.729,7.028-0.763,14.936-7.806,17.67c-7.04,2.726-14.957-0.765-17.691-7.793L335.441,408.2
	C343.963,398.776,349.487,385.465,350.148,370.54z"/>
<path id="SECONDARY_24_" fill="#FFFA00" stroke="#231F20" stroke-width="3.1586" stroke-miterlimit="10" d="M304.802,422.477
	c4.926,0,9.655-0.99,14.089-2.775v25.458c0,7.54-6.123,13.653-13.672,13.653s-13.671-6.116-13.671-13.653v-25.106
	C295.738,421.625,300.185,422.477,304.802,422.477z"/>
<path id="SECONDARY_23_" fill="#FFFA00" stroke="#231F20" stroke-width="3.1586" stroke-miterlimit="10" d="M239.273,428.487
	l23.388-43.017c3.097,10.925,8.924,20.278,16.517,26.851l-15.872,29.2c-3.606,6.628-11.903,9.088-18.543,5.487
	C238.125,443.408,235.667,435.115,239.273,428.487z"/>
<polygon fill="#FFFFFF" stroke="#231F20" stroke-width="3.1586" stroke-miterlimit="10" points="360.957,441.99 370.519,441.423 
	361.358,459.82 351.392,442.569 "/>
<polygon fill="#FFFFFF" stroke="#231F20" stroke-width="3.1586" stroke-miterlimit="10" points="250.634,440.677 241.225,438.9 
	247.974,458.31 260.052,442.458 "/>
<polygon fill="#FFFFFF" stroke="#231F20" stroke-width="3.1586" stroke-miterlimit="10" points="304.432,453.235 294.854,453.279 
	305.171,471.054 314.013,453.199 "/>
</svg>
