<?xml version="1.0" encoding="utf-8"?>
<!-- Generator: Adobe Illustrator 16.0.0, SVG Export Plug-In . SVG Version: 6.00 Build 0)  -->
<svg version="1.1" id="Layer_1" xmlns="http://www.w3.org/2000/svg" xmlns:xlink="http://www.w3.org/1999/xlink" x="0px" y="0px"
	 width="612px" height="792px" viewBox="0 0 612 792" enable-background="new 0 0 612 792" xml:space="preserve">
<rect x="180.91" y="271.663" fill="#231F20" fill-opacity="0" width="254.715" height="247.885"/>
<path id="PRIMARY_13_" fill="#F1F1F1" stroke="#231F20" stroke-width="3.1571" stroke-miterlimit="10" d="M205.812,358.418
	c-24.449-20.879-31.632-11.126-8.351,16.756c-23.278-27.879-22.221-7.377-2.164,19.196c-20.061-26.573-18.849-7.128,3.679,20.525
	c-22.528-27.653-21.787,2.839,9.188,20.775c-30.975-17.937-21.361,17.22,14.349,19.913c-35.71-2.696-16.746,24.232,19.17,17.955
	c-35.915,6.277-5.551,31.22,22.16,14.038c-27.708,17.185,35.085,34.617,22.789,8.83c12.296,25.787,36.876,31.167,22.279,3.588
	c14.597,27.579,35.912,25.685,20.628-1.715c15.284,27.399,51.668-15.3,17.842-7.063c33.826-8.239,48.944-7.714,13.908-12.459
	c35.04,4.745,43.991-16.597,8.351-16.758c35.641,0.161,24.622-43.646,2.164-19.19c22.461-24.46,25.839-33.671-3.682-20.531
	c29.521-13.14,25.68-8.627-9.186-20.773c34.865,12.146,22.465-17.593-14.354-19.91c36.818,2.317,9.674-15.782-19.168-17.959
	c28.83,2.165-8.477-43.101-22.16-14.033c10.748-30.958-5.683-40.196-22.79-8.834c16.827-31.467-6.037-35.072-22.279-3.584
	c16.242-31.487-7.705-28.173-20.629,1.715c12.921-29.885-4.918-25.569-17.841,7.062C232.637,313.331,181.369,337.53,205.812,358.418
	z"/>
</svg>
