<?xml version="1.0" encoding="utf-8"?>
<!-- Generator: Adobe Illustrator 16.0.0, SVG Export Plug-In . SVG Version: 6.00 Build 0)  -->
<svg version="1.1" id="Layer_1" xmlns="http://www.w3.org/2000/svg" xmlns:xlink="http://www.w3.org/1999/xlink" x="0px" y="0px"
	 width="612px" height="792px" viewBox="0 0 612 792" enable-background="new 0 0 612 792" xml:space="preserve">
<rect x="265.5" y="368.933" fill-opacity="0" fill="#231F20" width="81" height="54.487"/>
<path id="SECONDARY_34_" fill="#FFFA00" stroke="#231F20" stroke-miterlimit="10" d="M319.735,390.67l1.165,1.811
	c-0.445,3.791-1.879,7.193-3.99,9.783l-1.543-2.395C317.533,397.473,319.098,394.285,319.735,390.67z"/>
<path id="SECONDARY_33_" fill="#FFFA00" stroke="#231F20" stroke-miterlimit="10" d="M305.75,404.391
	c1.529,0,2.999-0.303,4.381-0.846v2.025c-1.365,0.529-2.817,0.82-4.326,0.82c-1.51,0-2.961-0.291-4.326-0.822v-1.975
	C302.826,404.109,304.262,404.391,305.75,404.391z"/>
<path id="SECONDARY_32_" fill="#FFFA00" stroke="#231F20" stroke-miterlimit="10" d="M291.898,390.795
	c0.605,3.307,1.975,6.262,3.881,8.563l-2.18,2.369c-1.713-2.658-2.799-5.936-3.002-9.516L291.898,390.795z"/>
</svg>
