<?xml version="1.0" encoding="utf-8"?>
<!-- Generator: Adobe Illustrator 16.0.0, SVG Export Plug-In . SVG Version: 6.00 Build 0)  -->
<svg version="1.1" id="Layer_1" xmlns="http://www.w3.org/2000/svg" xmlns:xlink="http://www.w3.org/1999/xlink" x="0px" y="0px"
	 width="612px" height="792px" viewBox="0 0 612 792" enable-background="new 0 0 612 792" xml:space="preserve">
<rect id="body_frame" x="205.484" y="269.333" fill-opacity="0" fill="#BBBCBE" width="202" height="256"/>
<path id="PRIMARY_2_" fill="#00BC03" stroke="#231F20" stroke-width="1.3341" stroke-miterlimit="10" d="M371.555,328.734v-36.472
	c0-22.149-17.881-22.726-39.939-22.726h-0.783h-49.296h-0.783c-22.058,0-39.94,0.577-39.94,22.726v36.472
	c-14.095-18.583-34.961-40.74-34.961-40.74v62.886c0,0,3.033,10.682,2.588,8.711l25.258,111.927
	c1.305,5.785,4.254,14.319,8.039,20.948c3.912,18.027,19.889,31.531,39.016,31.531h0.783h49.296h0.783
	c19.126,0,35.104-13.504,39.017-31.531c3.785-6.629,6.733-15.163,8.038-20.948l25.259-111.927c-0.444,1.971,2.588-8.711,2.588-8.711
	v-62.886C406.517,287.994,385.65,310.15,371.555,328.734z"/>
<path fill="none" stroke="#231F20" stroke-width="1.3341" stroke-miterlimit="10" d="M352.146,518.288
	c0-137.606-1.585-248.955-3.544-248.955"/>
<path fill="none" stroke="#231F20" stroke-width="1.3341" stroke-miterlimit="10" d="M325.638,523.998
	c0-140.762,0-254.665,0-254.665"/>
<path fill="none" stroke="#231F20" stroke-width="1.3341" stroke-miterlimit="10" d="M307.996,523.998
	c0-140.65-1.488-254.462-3.328-254.462"/>
<path fill="none" stroke="#231F20" stroke-width="1.3341" stroke-miterlimit="10" d="M285.701,523.998c0-140.65,0-254.462,0-254.462
	"/>
<path fill="none" stroke="#231F20" stroke-width="1.3341" stroke-miterlimit="10" d="M261.4,518.288
	c0-137.606,4.466-248.955,9.985-248.955"/>
<path fill="none" stroke="#231F20" stroke-width="1.3341" stroke-miterlimit="10" d="M241.737,492.467
	c0-120.748,7.972-221.64,17-221.64"/>
<path fill="none" stroke="#231F20" stroke-width="1.3341" stroke-miterlimit="10" d="M223.084,424.49
	c0-56.755,5.823-102.68,13.021-102.68"/>
<path fill="none" stroke="#231F20" stroke-width="1.3341" stroke-miterlimit="10" d="M211.499,373.15
	c0-36.49,5.182-66.017,11.585-66.017"/>
<path fill="none" stroke="#231F20" stroke-width="1.3341" stroke-miterlimit="10" d="M376.561,478.912
	c0-75.603-2.238-150.178-5.006-150.178"/>
<path fill="none" stroke="#231F20" stroke-width="1.3341" stroke-miterlimit="10" d="M392.584,409.861
	c0-52.829-4.21-95.579-9.412-95.579"/>
<path fill="none" stroke="#231F20" stroke-width="1.3341" stroke-miterlimit="10" d="M402.995,363.726
	c0-36.796-2.183-66.571-4.882-66.571"/>
<polygon id="SECONDARY_15_" fill="#005601" points="363.896,287.76 362.199,283.605 380.91,281.088 365.821,292.476 "/>
<polygon id="SECONDARY_16_" fill="#005601" points="254.285,287.328 251.148,290.53 241.477,274.25 257.842,283.695 "/>
<polygon id="SECONDARY_17_" fill="#005601" points="212.498,305.535 209.261,302.437 225.322,292.476 216.169,309.051 "/>
<polygon id="SECONDARY_18_" fill="#005601" points="224.306,403.925 221.17,407.127 211.499,390.847 227.864,400.293 "/>
<polygon id="SECONDARY_19_" fill="#005601" points="234.22,452.941 231.083,456.144 221.412,439.864 237.777,449.308 "/>
<polygon id="SECONDARY_20_" fill="#005601" points="386.188,424.734 383.172,421.418 399.879,412.593 389.61,428.494 "/>
<polygon id="SECONDARY_21_" fill="#005601" points="378.997,451.513 378.556,447.046 397.202,450.003 379.5,456.584 "/>
<polygon id="SECONDARY_22_" fill="#005601" points="363.112,498.315 359.487,495.685 374.058,483.633 367.225,501.301 "/>
<polygon id="SECONDARY_23_" fill="#005601" points="244.396,489.568 243.688,494.003 226.412,486.36 245.2,484.539 "/>
<polygon id="SECONDARY_24_" fill="#005601" points="272.03,505.543 268.894,508.746 259.222,492.467 275.587,501.912 "/>
<polygon id="SECONDARY_25_" fill="#005601" points="304.943,487.545 302.803,483.602 321.127,479.045 307.369,492.02 "/>
<polygon id="SECONDARY_26_" fill="#005601" points="344.27,436.935 341.296,433.58 358.114,424.974 347.642,440.739 "/>
<polygon id="SECONDARY_27_" fill="#005601" points="259.33,418.551 255.028,419.775 254.64,400.825 264.212,417.159 "/>
<polygon id="SECONDARY_28_" fill="#005601" points="272.787,453.969 268.937,456.254 263.758,438.026 277.154,451.376 "/>
<polygon id="SECONDARY_29_" fill="#005601" points="305.039,450.997 300.88,452.649 298.606,433.83 309.756,449.123 "/>
<polygon id="SECONDARY_30_" fill="#005601" points="327.57,408.313 324.479,405.068 340.979,395.859 331.077,411.996 "/>
<polygon id="SECONDARY_31_" fill="#005601" points="293.963,395.785 290.828,398.987 281.156,382.708 297.521,392.152 "/>
<polygon id="SECONDARY_32_" fill="#005601" points="314.5,373.793 310.393,372.021 321.993,357.067 319.163,375.805 "/>
<polygon id="SECONDARY_33_" fill="#005601" points="245.586,380.753 242.451,383.955 232.779,367.675 249.144,377.121 "/>
<polygon id="SECONDARY_34_" fill="#005601" points="218.399,361.95 215.121,358.895 231.048,348.718 222.118,365.416 "/>
<polygon id="SECONDARY_35_" fill="#005601" points="226.037,335.379 222.901,338.581 213.23,322.301 229.595,331.747 "/>
<polygon id="SECONDARY_36_" fill="#005601" points="342.909,470.449 339.773,473.651 330.102,457.372 346.469,466.817 "/>
<polygon id="SECONDARY_37_" fill="#005601" points="330.681,515.501 326.243,516.06 328.711,497.266 335.715,514.865 "/>
<polygon id="SECONDARY_38_" fill="#005601" points="265.042,368.422 260.795,367.017 271.05,351.102 269.861,370.018 "/>
<polygon id="SECONDARY_39_" fill="#005601" points="295.414,349.402 291.113,348.167 300.725,331.853 300.292,350.802 "/>
<polygon id="SECONDARY_40_" fill="#005601" points="265.905,338.528 261.535,339.482 262.322,320.543 270.862,337.445 "/>
<polygon id="SECONDARY_41_" fill="#005601" points="285.6,318.271 282.66,314.886 299.567,306.454 288.932,322.111 "/>
<polygon id="SECONDARY_42_" fill="#005601" points="277.729,300.61 273.549,302.202 271.544,283.354 282.476,298.805 "/>
<polygon id="SECONDARY_43_" fill="#005601" points="364.112,395.785 360.977,398.987 351.305,382.708 367.67,392.152 "/>
<polygon id="SECONDARY_44_" fill="#005601" points="379.645,382.474 375.222,381.806 382.667,364.385 384.662,383.232 "/>
<polygon id="SECONDARY_45_" fill="#005601" points="389.455,318.4 385.089,319.368 385.819,300.427 394.41,317.302 "/>
<polygon id="SECONDARY_46_" fill="#005601" points="364.112,365.322 360.977,368.524 351.305,352.245 367.67,361.69 "/>
<polygon id="SECONDARY_47_" fill="#005601" points="332.853,343.505 330.059,339.999 347.307,332.292 336.021,347.485 "/>
<polygon id="SECONDARY_48_" fill="#005601" points="335.604,319.221 332.468,322.423 322.798,306.143 339.161,315.588 "/>
<polygon id="SECONDARY_49_" fill="#005601" points="352.75,319.718 349.063,317.176 363.336,304.77 356.935,322.6 "/>
<polygon id="SECONDARY_50_" fill="#005601" points="326.616,294.29 323.48,297.492 313.81,281.212 330.175,290.658 "/>
<polygon id="SECONDARY_51_" fill="#005601" points="343.11,293.81 338.641,293.629 344.15,275.497 348.18,294.016 "/>
<polygon id="SECONDARY_52_" fill="#005601" points="296.337,286.964 292.55,289.352 286.886,271.271 300.635,284.255 "/>
<polygon id="SECONDARY_53_" fill="#005601" points="289.73,426.543 285.279,426.979 288.26,408.261 294.781,426.049 "/>
<polygon id="SECONDARY_54_" fill="#005601" points="279.274,480.161 274.933,479.079 283.973,462.438 284.199,481.389 "/>
<polygon id="SECONDARY_55_" fill="#005601" points="376.391,354.245 371.947,354.75 374.644,335.988 381.434,353.673 "/>
</svg>
