<?xml version="1.0" encoding="utf-8"?>
<!-- Generator: Adobe Illustrator 16.0.0, SVG Export Plug-In . SVG Version: 6.00 Build 0)  -->
<svg version="1.1" id="Layer_1" xmlns="http://www.w3.org/2000/svg" xmlns:xlink="http://www.w3.org/1999/xlink" x="0px" y="0px"
	 width="612px" height="792px" viewBox="0 0 612 792" enable-background="new 0 0 612 792" xml:space="preserve">
<rect id="body_frame" x="230.5" y="301.5" fill-opacity="0" fill="#BBBCBE" width="151" height="191"/>
<path id="PRIMARY_2_" fill="#00BC03" stroke="#231F20" stroke-miterlimit="10" d="M355.24,345.934v-27.283c0-16.568-13.432-17-30-17
	h-0.588h-37.028h-0.588c-16.568,0-30,0.432-30,17v27.283c-10.587-13.901-26.26-30.476-26.26-30.476V362.5
	c0,0,2.278,7.991,1.943,6.517l18.972,83.727c0.98,4.327,3.195,10.712,6.039,15.67C260.668,481.898,272.67,492,287.036,492h0.588
	h37.028h0.588c14.366,0,26.367-10.102,29.306-23.587c2.844-4.958,5.059-11.343,6.038-15.67l18.973-83.727
	c-0.334,1.474,1.943-6.517,1.943-6.517v-47.042C381.5,315.458,365.827,332.033,355.24,345.934z"/>
<path fill="none" stroke="#231F20" stroke-miterlimit="10" d="M340.661,487.729c0-102.935-1.19-186.229-2.661-186.229"/>
<path fill="none" stroke="#231F20" stroke-miterlimit="10" d="M320.75,492c0-105.296,0-190.5,0-190.5"/>
<path fill="none" stroke="#231F20" stroke-miterlimit="10" d="M307.5,492c0-105.212-1.118-190.349-2.5-190.349"/>
<path fill="none" stroke="#231F20" stroke-miterlimit="10" d="M290.753,492c0-105.212,0-190.349,0-190.349"/>
<path fill="none" stroke="#231F20" stroke-miterlimit="10" d="M272.5,487.729c0-102.935,3.354-186.229,7.5-186.229"/>
<path fill="none" stroke="#231F20" stroke-miterlimit="10" d="M257.73,468.413c0-90.324,5.988-165.796,12.77-165.796"/>
<path fill="none" stroke="#231F20" stroke-miterlimit="10" d="M243.72,417.563c0-42.455,4.374-76.809,9.78-76.809"/>
<path fill="none" stroke="#231F20" stroke-miterlimit="10" d="M235.018,379.159c0-27.296,3.892-49.383,8.702-49.383"/>
<path fill="none" stroke="#231F20" stroke-miterlimit="10" d="M359,458.273c0-56.554-1.682-112.339-3.76-112.339"/>
<path fill="none" stroke="#231F20" stroke-miterlimit="10" d="M371.035,406.621c0-39.519-3.162-71.497-7.069-71.497"/>
<path fill="none" stroke="#231F20" stroke-miterlimit="10" d="M378.855,372.11c0-27.525-1.64-49.798-3.667-49.798"/>
<polygon id="SECONDARY_15_" fill="#005601" points="349.487,315.284 348.213,312.176 362.267,310.292 350.933,318.811 "/>
<polygon id="SECONDARY_16_" fill="#005601" points="267.155,314.96 264.8,317.355 257.536,305.178 269.828,312.243 "/>
<polygon id="SECONDARY_17_" fill="#005601" points="235.768,328.581 233.337,326.262 245.401,318.811 238.526,331.21 "/>
<polygon id="SECONDARY_18_" fill="#005601" points="244.638,402.18 242.282,404.575 235.018,392.397 247.31,399.463 "/>
<polygon id="SECONDARY_19_" fill="#005601" points="252.084,438.847 249.729,441.242 242.464,429.064 254.756,436.129 "/>
<polygon id="SECONDARY_20_" fill="#005601" points="366.231,417.746 363.966,415.266 376.515,408.664 368.802,420.56 "/>
<polygon id="SECONDARY_21_" fill="#005601" points="360.83,437.778 360.498,434.437 374.504,436.648 361.207,441.571 "/>
<polygon id="SECONDARY_22_" fill="#005601" points="348.898,472.788 346.176,470.82 357.12,461.805 351.987,475.021 "/>
<polygon id="SECONDARY_23_" fill="#005601" points="259.728,466.245 259.196,469.563 246.219,463.846 260.332,462.482 "/>
<polygon id="SECONDARY_24_" fill="#005601" points="280.484,478.195 278.129,480.591 270.864,468.413 283.156,475.479 "/>
<polygon id="SECONDARY_25_" fill="#005601" points="305.206,464.731 303.599,461.781 317.362,458.373 307.028,468.079 "/>
<polygon id="SECONDARY_26_" fill="#005601" points="334.745,426.873 332.512,424.363 345.145,417.925 337.278,429.719 "/>
<polygon id="SECONDARY_27_" fill="#005601" points="270.945,413.121 267.713,414.037 267.422,399.861 274.612,412.08 "/>
<polygon id="SECONDARY_28_" fill="#005601" points="281.053,439.615 278.161,441.324 274.271,427.689 284.333,437.676 "/>
<polygon id="SECONDARY_29_" fill="#005601" points="305.278,437.393 302.154,438.628 300.446,424.551 308.821,435.99 "/>
<polygon id="SECONDARY_30_" fill="#005601" points="322.202,405.463 319.88,403.035 332.273,396.146 324.836,408.218 "/>
<polygon id="SECONDARY_31_" fill="#005601" points="296.959,396.091 294.604,398.486 287.339,386.309 299.631,393.374 "/>
<polygon id="SECONDARY_32_" fill="#005601" points="312.385,379.641 309.299,378.314 318.013,367.128 315.887,381.145 "/>
<polygon id="SECONDARY_33_" fill="#005601" points="260.622,384.847 258.267,387.242 251.002,375.064 263.294,382.129 "/>
<polygon id="SECONDARY_34_" fill="#005601" points="240.201,370.781 237.739,368.496 249.702,360.883 242.994,373.374 "/>
<polygon id="SECONDARY_35_" fill="#005601" points="245.938,350.905 243.583,353.3 236.318,341.122 248.61,348.188 "/>
<polygon id="SECONDARY_36_" fill="#005601" points="333.724,451.943 331.368,454.339 324.104,442.161 336.396,449.227 "/>
<polygon id="SECONDARY_37_" fill="#005601" points="324.538,485.644 321.205,486.062 323.059,472.003 328.319,485.168 "/>
<polygon id="SECONDARY_38_" fill="#005601" points="275.236,375.623 272.045,374.571 279.748,362.666 278.855,376.816 "/>
<polygon id="SECONDARY_39_" fill="#005601" points="298.049,361.395 294.818,360.471 302.038,348.267 301.713,362.442 "/>
<polygon id="SECONDARY_40_" fill="#005601" points="275.883,353.26 272.601,353.974 273.192,339.807 279.607,352.45 "/>
<polygon id="SECONDARY_41_" fill="#005601" points="290.677,338.107 288.469,335.575 301.168,329.268 293.18,340.98 "/>
<polygon id="SECONDARY_42_" fill="#005601" points="284.766,324.896 281.625,326.087 280.119,311.988 288.33,323.546 "/>
<polygon id="SECONDARY_43_" fill="#005601" points="349.649,396.091 347.294,398.486 340.029,386.309 352.322,393.374 "/>
<polygon id="SECONDARY_44_" fill="#005601" points="361.316,386.134 357.994,385.634 363.586,372.603 365.085,386.701 "/>
<polygon id="SECONDARY_45_" fill="#005601" points="368.686,338.204 365.405,338.928 365.954,324.759 372.407,337.382 "/>
<polygon id="SECONDARY_46_" fill="#005601" points="349.649,373.304 347.294,375.699 340.029,363.521 352.322,370.586 "/>
<polygon id="SECONDARY_47_" fill="#005601" points="326.169,356.984 324.071,354.36 337.026,348.595 328.55,359.961 "/>
<polygon id="SECONDARY_48_" fill="#005601" points="328.236,338.818 325.881,341.213 318.617,329.035 330.908,336.101 "/>
<polygon id="SECONDARY_49_" fill="#005601" points="341.115,339.189 338.346,337.289 349.066,328.008 344.258,341.345 "/>
<polygon id="SECONDARY_50_" fill="#005601" points="321.485,320.168 319.13,322.563 311.866,310.386 324.158,317.451 "/>
<polygon id="SECONDARY_51_" fill="#005601" points="333.874,319.809 330.518,319.674 334.655,306.111 337.682,319.963 "/>
<polygon id="SECONDARY_52_" fill="#005601" points="298.742,314.688 295.897,316.475 291.643,302.949 301.971,312.662 "/>
<polygon id="SECONDARY_53_" fill="#005601" points="293.779,419.1 290.437,419.426 292.675,405.424 297.573,418.729 "/>
<polygon id="SECONDARY_54_" fill="#005601" points="285.926,459.208 282.665,458.398 289.455,445.95 289.625,460.126 "/>
<polygon id="SECONDARY_55_" fill="#005601" points="358.872,365.018 355.534,365.395 357.56,351.36 362.66,364.59 "/>
</svg>
