<?xml version="1.0" encoding="utf-8"?>
<!-- Generator: Adobe Illustrator 16.0.0, SVG Export Plug-In . SVG Version: 6.00 Build 0)  -->
<svg version="1.1" id="Layer_1" xmlns="http://www.w3.org/2000/svg" xmlns:xlink="http://www.w3.org/1999/xlink" x="0px" y="0px"
	 width="612px" height="792px" viewBox="0 0 612 792" enable-background="new 0 0 612 792" xml:space="preserve">
<rect x="236.5" y="268.917" fill="#231F20" fill-opacity="0" width="141" height="255.213"/>
<path id="SECONDARY_49_" fill="#F1F1F1" stroke="#231F20" stroke-width="2.4743" stroke-miterlimit="10" d="M324.768,469.101
	c0,8.787-8.506,15.907-19.007,15.907l0,0c-10.494,0-19.003-7.12-19.003-15.907v-184.28c0-8.782,8.507-15.904,19.003-15.904l0,0
	c10.499,0,19.007,7.123,19.007,15.904V469.101z"/>
<path fill="none" stroke="#231F20" stroke-width="2.4743" stroke-miterlimit="10" d="M286.753,311.297
	c0,11.229,38.013,11.357,38.013,0"/>
<path fill="none" stroke="#231F20" stroke-width="2.4743" stroke-miterlimit="10" d="M286.753,294.584
	c0,11.231,38.013,11.359,38.013,0"/>
<path fill="none" stroke="#231F20" stroke-width="2.4743" stroke-miterlimit="10" d="M286.753,328.007
	c0,11.231,38.013,11.36,38.013,0"/>
<path fill="none" stroke="#231F20" stroke-width="2.4743" stroke-miterlimit="10" d="M286.753,344.717
	c0,11.231,38.013,11.361,38.013,0"/>
<path fill="none" stroke="#231F20" stroke-width="2.4743" stroke-miterlimit="10" d="M286.753,361.43
	c0,11.229,38.013,11.358,38.013,0"/>
<path fill="none" stroke="#231F20" stroke-width="2.4743" stroke-miterlimit="10" d="M286.753,378.14
	c0,11.23,38.013,11.359,38.013,0"/>
<path fill="none" stroke="#231F20" stroke-width="2.4743" stroke-miterlimit="10" d="M286.753,394.85
	c0,11.23,38.013,11.358,38.013,0"/>
<path fill="none" stroke="#231F20" stroke-width="2.4743" stroke-miterlimit="10" d="M286.753,411.562
	c0,11.229,38.013,11.359,38.013,0"/>
<path fill="none" stroke="#231F20" stroke-width="2.4743" stroke-miterlimit="10" d="M286.753,428.271
	c0,11.229,38.013,11.362,38.013,0"/>
<path fill="none" stroke="#231F20" stroke-width="2.4743" stroke-miterlimit="10" d="M286.753,444.982
	c0,11.23,38.013,11.361,38.013,0"/>
<path fill="none" stroke="#231F20" stroke-width="2.4743" stroke-miterlimit="10" d="M286.753,461.692
	c0,11.229,38.013,11.359,38.013,0"/>
<circle fill="none" stroke="#231F20" stroke-width="2.4743" stroke-miterlimit="10" cx="305.761" cy="292.605" r="6.187"/>
<circle fill="none" stroke="#231F20" stroke-width="2.4743" stroke-miterlimit="10" cx="299.577" cy="473.271" r="6.188"/>
</svg>
