<?xml version="1.0" encoding="utf-8"?>
<!-- Generator: Adobe Illustrator 16.0.0, SVG Export Plug-In . SVG Version: 6.00 Build 0)  -->
<svg version="1.1" id="Layer_1" xmlns="http://www.w3.org/2000/svg" xmlns:xlink="http://www.w3.org/1999/xlink" x="0px" y="0px"
	 width="612px" height="792px" viewBox="0 0 612 792" enable-background="new 0 0 612 792" xml:space="preserve">
<rect x="271.592" y="379.106" fill-opacity="0" fill="#231F20" width="69.979" height="35"/>
<path id="SECONDARY_50_" fill="#F1F1F1" stroke="#231F20" stroke-miterlimit="10" d="M307.182,411.43
	c0,1.384-3.439,2.506-7.684,2.506l0,0c-4.242,0-7.682-1.122-7.682-2.506v-29.022c0-1.383,3.439-2.505,7.682-2.505l0,0
	c4.244,0,7.684,1.122,7.684,2.505V411.43z"/>
<path fill="none" stroke="#231F20" stroke-miterlimit="10" d="M291.817,385.079c0,4.538,15.367,4.59,15.367,0"/>
<path fill="none" stroke="#231F20" stroke-miterlimit="10" d="M291.817,391.832c0,4.537,15.367,4.589,15.367,0"/>
<path fill="none" stroke="#231F20" stroke-miterlimit="10" d="M291.817,398.583c0,4.538,15.367,4.59,15.367,0"/>
<path fill="none" stroke="#231F20" stroke-miterlimit="10" d="M291.817,405.335c0,4.538,15.367,4.59,15.367,0"/>
<path id="SECONDARY_51_" fill="#F1F1F1" stroke="#231F20" stroke-miterlimit="10" d="M335.784,409.204
	c-0.279,2.373-2.428,4.07-4.802,3.792l-24.182-2.838c-2.371-0.279-4.071-2.429-3.792-4.802l0,0c0.279-2.373,2.43-4.07,4.802-3.792
	l24.182,2.838C334.365,404.682,336.063,406.831,335.784,409.204L335.784,409.204z"/>
<path fill="none" stroke="#231F20" stroke-miterlimit="10" d="M330.528,413.426c-2.457-0.332-1.363-8.655,1.123-8.319"/>
<path fill="none" stroke="#231F20" stroke-miterlimit="10" d="M325.03,412.684c-2.457-0.332-1.36-8.655,1.123-8.32"/>
<path fill="none" stroke="#231F20" stroke-miterlimit="10" d="M319.534,411.941c-2.455-0.331-1.362-8.655,1.123-8.319"/>
<path fill="none" stroke="#231F20" stroke-miterlimit="10" d="M314.038,411.199c-2.457-0.331-1.361-8.655,1.123-8.319"/>
<path fill="none" stroke="#231F20" stroke-miterlimit="10" d="M308.523,410.588c-2.456-0.331-1.363-8.655,1.123-8.319"/>
<path id="SECONDARY_52_" fill="#F1F1F1" stroke="#231F20" stroke-miterlimit="10" d="M330.499,409.28
	c0,2.39-1.937,4.326-4.326,4.326h-24.348c-2.39,0-4.326-1.937-4.326-4.326l0,0c0-2.39,1.937-4.326,4.326-4.326h24.348
	C328.563,404.954,330.499,406.891,330.499,409.28L330.499,409.28z"/>
<path fill="none" stroke="#231F20" stroke-miterlimit="10" d="M325.005,413.346c-2.479,0-2.509-8.396,0-8.396"/>
<path fill="none" stroke="#231F20" stroke-miterlimit="10" d="M319.457,413.346c-2.479,0-2.506-8.396,0-8.396"/>
<path fill="none" stroke="#231F20" stroke-miterlimit="10" d="M313.911,413.346c-2.478,0-2.508-8.396,0-8.396"/>
<path fill="none" stroke="#231F20" stroke-miterlimit="10" d="M308.365,413.346c-2.479,0-2.507-8.396,0-8.396"/>
<path fill="none" stroke="#231F20" stroke-miterlimit="10" d="M302.818,413.478c-2.479,0-2.509-8.396,0-8.396"/>
<polygon fill="#FFFFFF" stroke="#231F20" stroke-miterlimit="10" points="333.697,409.393 334.623,406.507 339.009,411.317 
	332.772,412.28 "/>
<polygon fill="#FFFFFF" stroke="#231F20" stroke-miterlimit="10" points="327.806,409.933 328.731,407.047 333.117,411.857 
	326.881,412.82 "/>
</svg>
