<?xml version="1.0" encoding="utf-8"?>
<!-- Generator: Adobe Illustrator 16.0.0, SVG Export Plug-In . SVG Version: 6.00 Build 0)  -->
<svg version="1.1" id="Layer_1" xmlns="http://www.w3.org/2000/svg" xmlns:xlink="http://www.w3.org/1999/xlink" x="0px" y="0px"
	 width="612px" height="792px" viewBox="0 0 612 792" enable-background="new 0 0 612 792" xml:space="preserve">
<rect x="178" y="310.177" fill="#231F20" fill-opacity="0" width="256" height="172"/>
<path id="SECONDARY_33_" fill="#F1F1F1" stroke="#231F20" stroke-width="3.1586" stroke-miterlimit="10" d="M237.214,419.76
	l13.063-44.807c2.964,9.874,9.225,18.58,17.742,25.235l-7.667,26.299c-1.863,6.382-8.546,10.05-14.937,8.191
	C239.029,432.822,235.354,426.145,237.214,419.76z"/>
<path id="SECONDARY_32_" fill="#F1F1F1" stroke="#231F20" stroke-width="3.1586" stroke-miterlimit="10" d="M297.284,412.726
	l-2.183,27.279c-0.527,6.631-6.336,11.569-12.969,11.039c-6.634-0.527-11.583-6.326-11.053-12.954l2.708-33.9
	C280.694,408.379,288.659,411.341,297.284,412.726z"/>
<path id="SECONDARY_31_" fill="#F1F1F1" stroke="#231F20" stroke-width="3.1586" stroke-miterlimit="10" d="M308.37,413.641
	c7.389,0,14.436-1.202,20.973-3.298l0.476,31.104c0.102,6.649-5.21,12.121-11.864,12.217c-6.654,0.105-12.135-5.194-12.232-11.847
	l-0.434-28.309C306.315,413.552,307.33,413.641,308.37,413.641z"/>
<path id="SECONDARY_30_" fill="#F1F1F1" stroke="#231F20" stroke-width="3.1586" stroke-miterlimit="10" d="M356.766,392.514
	l12.41,36.341c2.148,6.292-1.219,13.123-7.512,15.274c-6.3,2.146-13.148-1.211-15.294-7.506l-9.901-28.99
	C344.506,403.974,351.42,398.77,356.766,392.514z"/>
<path id="SECONDARY_29_" fill="#F1F1F1" stroke="#231F20" stroke-width="3.1586" stroke-miterlimit="10" d="M368.373,363.067
	l24.843,15.184c5.676,3.473,7.46,10.875,3.994,16.548c-3.479,5.669-10.889,7.454-16.568,3.983l-19.58-11.967
	C365.574,379.745,368.179,371.657,368.373,363.067z"/>
</svg>
