<?xml version="1.0" encoding="utf-8"?>
<!-- Generator: Adobe Illustrator 16.0.0, SVG Export Plug-In . SVG Version: 6.00 Build 0)  -->
<svg version="1.1" id="Layer_1" xmlns="http://www.w3.org/2000/svg" xmlns:xlink="http://www.w3.org/1999/xlink" x="0px" y="0px"
	 width="612px" height="792px" viewBox="0 0 612 792" enable-background="new 0 0 612 792" xml:space="preserve">
<rect x="178" y="310.177" fill="#231F20" fill-opacity="0" width="256" height="172"/>
<path id="SECONDARY_48_" fill="#F1F1F1" stroke="#231F20" stroke-width="3.1586" stroke-miterlimit="10" d="M366.593,374.51
	l2.932,15.051c-4.349,8.802-11.429,16.249-20.349,21.57l-1.91-9.81C356.66,394.451,363.521,385.133,366.593,374.51z"/>
<path id="SECONDARY_47_" fill="#F1F1F1" stroke="#231F20" stroke-width="3.1586" stroke-miterlimit="10" d="M338.617,406.569
	l-0.16,9.794c-3.074,1.51-6.334,2.75-9.717,3.761c-1.731,0.367-3.432,0.792-5.099,1.288c-3.043,0.647-6.176,1.092-9.386,1.316
	l0.151-9.35C323.186,412.627,331.367,410.213,338.617,406.569z"/>
<path id="SECONDARY_46_" fill="#F1F1F1" stroke="#231F20" stroke-width="3.1586" stroke-miterlimit="10" d="M304.477,413.472
	l-1.031,9.763c-1.644,0.01-3.305-0.067-4.974-0.173c-4.969-1.68-10.253-2.842-15.793-3.342c-0.569-0.052-1.128-0.062-1.688-0.077
	c-0.452-0.15-0.907-0.286-1.349-0.44l1.194-11.338C287.999,411.049,295.994,413.003,304.477,413.472z"/>
<path id="SECONDARY_45_" fill="#F1F1F1" stroke="#231F20" stroke-width="3.1586" stroke-miterlimit="10" d="M274.559,404.683
	l-3.219,7.371c-7.741-4.063-14.33-9.514-19.327-15.938l3.914-8.957C260.483,394.17,266.87,400.176,274.559,404.683z"/>
<path id="SECONDARY_44_" fill="#F1F1F1" stroke="#231F20" stroke-width="3.1586" stroke-miterlimit="10" d="M249.389,351.672
	l-6.915-6.503c1.335-6.986,4.279-13.432,8.496-19.067c1.076-0.985,2.117-2.002,3.097-3.084l6.995,6.569
	C255.29,335.935,251.201,343.448,249.389,351.672z"/>
</svg>
