<?xml version="1.0" encoding="utf-8"?>
<!-- Generator: Adobe Illustrator 16.0.0, SVG Export Plug-In . SVG Version: 6.00 Build 0)  -->
<svg version="1.1" id="Layer_1" xmlns="http://www.w3.org/2000/svg" xmlns:xlink="http://www.w3.org/1999/xlink" x="0px" y="0px"
	 width="612px" height="792px" viewBox="0 0 612 792" enable-background="new 0 0 612 792" xml:space="preserve">
<rect x="265.5" y="368.933" fill-opacity="0" fill="#231F20" width="81" height="54.487"/>
<path id="SECONDARY_43_" fill="#F1F1F1" stroke="#231F20" stroke-miterlimit="10" d="M295.084,382.243
	c2.029,0.562,3.219,2.661,2.656,4.691l-3.068,11.072c-2.684-1.901-4.732-4.43-5.885-7.317l1.604-5.79
	C290.955,382.869,293.055,381.681,295.084,382.243z"/>
<path id="SECONDARY_42_" fill="#F1F1F1" stroke="#231F20" stroke-miterlimit="10" d="M300.541,387.297
	c2.102,0.131,3.699,1.94,3.566,4.042l-0.626,10.041c-1.007-0.15-1.983-0.368-2.929-0.648c-0.514-0.198-1.039-0.374-1.575-0.533
	c-1.043-0.403-2.04-0.877-2.973-1.429l0.493-7.904C296.629,388.763,298.439,387.165,300.541,387.297z"/>
<path id="SECONDARY_41_" fill="#F1F1F1" stroke="#231F20" stroke-miterlimit="10" d="M308.348,388.412
	c2.104-0.057,3.856,1.604,3.912,3.709l0.235,8.847c-0.144,0.039-0.291,0.069-0.437,0.105c-0.178-0.008-0.354-0.02-0.535-0.017
	c-1.76,0.02-3.455,0.255-5.064,0.663c-0.529-0.007-1.055-0.024-1.573-0.068l-0.248-9.326
	C304.582,390.22,306.242,388.468,308.348,388.412z"/>
<path id="SECONDARY_40_" fill="#F1F1F1" stroke="#231F20" stroke-miterlimit="10" d="M313.971,384.67
	c1.99-0.688,4.162,0.365,4.85,2.355l2.884,8.332c-1.736,1.905-3.95,3.464-6.491,4.555l-3.598-10.393
	C310.928,387.529,311.982,385.359,313.971,384.67z"/>
<path id="SECONDARY_39_" fill="#F1F1F1" stroke="#231F20" stroke-miterlimit="10" d="M321.666,386.702
	c-1.643,1.319-4.041,1.057-5.361-0.584c-1.318-1.643-1.058-4.041,0.586-5.36l5.664-4.548c0.283,0.366,0.587,0.713,0.9,1.051
	c1.191,1.884,1.959,3.992,2.207,6.231L321.666,386.702z"/>
</svg>
