<?xml version="1.0" encoding="utf-8"?>
<!-- Generator: Adobe Illustrator 16.0.0, SVG Export Plug-In . SVG Version: 6.00 Build 0)  -->
<svg version="1.1" id="Layer_1" xmlns="http://www.w3.org/2000/svg" xmlns:xlink="http://www.w3.org/1999/xlink" x="0px" y="0px"
	 width="612px" height="792px" viewBox="0 0 612 792" enable-background="new 0 0 612 792" xml:space="preserve">
<rect x="178" y="310.177" fill="#231F20" fill-opacity="0" width="256" height="172"/>
<path id="SECONDARY_38_" fill="#F1F1F1" stroke="#231F20" stroke-width="3.1586" stroke-miterlimit="10" d="M378.389,419.535
	l-13.062-44.811c-2.966,9.877-9.226,18.584-17.741,25.235l7.667,26.302c1.858,6.378,8.547,10.05,14.936,8.188
	C376.58,432.594,380.253,425.916,378.389,419.535z"/>
<path id="SECONDARY_37_" fill="#F1F1F1" stroke="#231F20" stroke-width="3.1586" stroke-miterlimit="10" d="M318.321,412.5
	l2.182,27.279c0.528,6.628,6.333,11.573,12.973,11.043c6.633-0.53,11.58-6.326,11.049-12.957l-2.71-33.904
	C334.914,408.153,326.95,411.113,318.321,412.5z"/>
<path id="SECONDARY_36_" fill="#F1F1F1" stroke="#231F20" stroke-width="3.1586" stroke-miterlimit="10" d="M307.237,413.413
	c-7.387,0-14.432-1.202-20.972-3.299l-0.474,31.108c-0.1,6.649,5.208,12.121,11.864,12.22c6.653,0.102,12.131-5.197,12.227-11.854
	l0.436-28.306C309.29,413.326,308.277,413.413,307.237,413.413z"/>
<path id="SECONDARY_35_" fill="#F1F1F1" stroke="#231F20" stroke-width="3.1586" stroke-miterlimit="10" d="M258.839,392.282
	l-12.409,36.341c-2.148,6.295,1.217,13.126,7.512,15.278c6.302,2.146,13.148-1.215,15.298-7.51l9.895-28.984
	C271.099,403.745,264.19,398.542,258.839,392.282z"/>
<path id="SECONDARY_34_" fill="#F1F1F1" stroke="#231F20" stroke-width="3.1586" stroke-miterlimit="10" d="M247.234,362.837
	l-24.846,15.186c-5.679,3.473-7.461,10.876-3.994,16.548c3.475,5.666,10.887,7.454,16.566,3.982l19.583-11.965
	C250.031,379.514,247.429,371.432,247.234,362.837z"/>
</svg>
