<?xml version="1.0" encoding="utf-8"?>
<!-- Generator: Adobe Illustrator 16.0.0, SVG Export Plug-In . SVG Version: 6.00 Build 0)  -->
<svg version="1.1" id="Layer_1" xmlns="http://www.w3.org/2000/svg" xmlns:xlink="http://www.w3.org/1999/xlink" x="0px" y="0px"
	 width="612px" height="792px" viewBox="0 0 612 792" enable-background="new 0 0 612 792" xml:space="preserve">
<rect x="265.5" y="368.933" fill-opacity="0" fill="#231F20" width="81" height="54.487"/>
<path id="SECONDARY_48_" fill="#F1F1F1" stroke="#231F20" stroke-miterlimit="10" d="M325.172,389.313l0.928,4.768
	c-1.376,2.788-3.617,5.148-6.439,6.833l-0.604-3.107C322.029,395.63,324.2,392.678,325.172,389.313z"/>
<path id="SECONDARY_47_" fill="#F1F1F1" stroke="#231F20" stroke-miterlimit="10" d="M316.32,399.469l-0.05,3.102
	c-0.973,0.479-2.004,0.871-3.075,1.192c-0.548,0.116-1.086,0.251-1.613,0.408c-0.963,0.205-1.954,0.346-2.97,0.417l0.048-2.962
	C311.437,401.388,314.026,400.623,316.32,399.469z"/>
<path id="SECONDARY_46_" fill="#F1F1F1" stroke="#231F20" stroke-miterlimit="10" d="M305.518,401.655l-0.326,3.093
	c-0.52,0.003-1.046-0.021-1.574-0.055c-1.572-0.532-3.244-0.9-4.997-1.058c-0.18-0.017-0.357-0.02-0.534-0.025
	c-0.143-0.047-0.287-0.09-0.427-0.139l0.378-3.592C300.304,400.888,302.834,401.507,305.518,401.655z"/>
<path id="SECONDARY_45_" fill="#F1F1F1" stroke="#231F20" stroke-miterlimit="10" d="M296.052,398.871l-1.019,2.335
	c-2.449-1.287-4.534-3.014-6.115-5.049l1.238-2.837C291.598,395.541,293.619,397.443,296.052,398.871z"/>
<path id="SECONDARY_44_" fill="#F1F1F1" stroke="#231F20" stroke-miterlimit="10" d="M288.088,382.078l-2.188-2.06
	c0.422-2.213,1.354-4.255,2.688-6.04c0.34-0.312,0.67-0.634,0.98-0.977l2.213,2.081
	C289.955,377.093,288.661,379.473,288.088,382.078z"/>
</svg>
