<?xml version="1.0" encoding="utf-8"?>
<!-- Generator: Adobe Illustrator 16.0.0, SVG Export Plug-In . SVG Version: 6.00 Build 0)  -->
<svg version="1.1" id="Layer_1" xmlns="http://www.w3.org/2000/svg" xmlns:xlink="http://www.w3.org/1999/xlink" x="0px" y="0px"
	 width="612px" height="792px" viewBox="0 0 612 792" enable-background="new 0 0 612 792" xml:space="preserve">
<rect x="178" y="310.177" fill="#231F20" fill-opacity="0" width="256" height="172"/>
<path id="SECONDARY_43_" fill="#F1F1F1" stroke="#231F20" stroke-width="3.1586" stroke-miterlimit="10" d="M271.5,352.192
	c6.412,1.774,10.174,8.399,8.395,14.808l-9.698,34.951c-8.481-5.999-14.955-13.983-18.599-23.098l5.069-18.277
	C258.451,354.169,265.088,350.418,271.5,352.192z"/>
<path id="SECONDARY_42_" fill="#F1F1F1" stroke="#231F20" stroke-width="3.1586" stroke-miterlimit="10" d="M288.747,368.146
	c6.644,0.415,11.691,6.124,11.27,12.759l-1.979,31.696c-3.182-0.471-6.267-1.162-9.258-2.043c-1.624-0.626-3.282-1.181-4.977-1.684
	c-3.296-1.273-6.447-2.769-9.396-4.513l1.559-24.949C276.383,372.774,282.104,367.729,288.747,368.146z"/>
<path id="SECONDARY_41_" fill="#F1F1F1" stroke="#231F20" stroke-width="3.1586" stroke-miterlimit="10" d="M313.42,371.667
	c6.651-0.181,12.188,5.063,12.364,11.708l0.743,27.926c-0.456,0.124-0.919,0.219-1.383,0.333c-0.562-0.024-1.117-0.064-1.688-0.056
	c-5.565,0.065-10.92,0.805-16.007,2.094c-1.671-0.021-3.334-0.074-4.972-0.213l-0.783-29.44
	C301.519,377.374,306.766,371.842,313.42,371.667z"/>
<path id="SECONDARY_40_" fill="#F1F1F1" stroke="#231F20" stroke-width="3.1586" stroke-miterlimit="10" d="M331.191,359.854
	c6.29-2.172,13.154,1.153,15.33,7.434l9.114,26.302c-5.487,6.013-12.484,10.936-20.516,14.379l-11.37-32.808
	C321.574,368.878,324.907,362.028,331.191,359.854z"/>
<path id="SECONDARY_39_" fill="#F1F1F1" stroke="#231F20" stroke-width="3.1586" stroke-miterlimit="10" d="M355.513,366.269
	c-5.191,4.163-12.772,3.335-16.944-1.844c-4.164-5.187-3.343-12.756,1.852-16.921l17.901-14.356c0.895,1.156,1.854,2.25,2.846,3.317
	c3.765,5.948,6.191,12.603,6.975,19.671L355.513,366.269z"/>
</svg>
