<?xml version="1.0" encoding="utf-8"?>
<!-- Generator: Adobe Illustrator 16.0.0, SVG Export Plug-In . SVG Version: 6.00 Build 0)  -->
<svg version="1.1" id="Layer_1" xmlns="http://www.w3.org/2000/svg" xmlns:xlink="http://www.w3.org/1999/xlink" x="0px" y="0px"
	 width="612px" height="792px" viewBox="0 0 612 792" enable-background="new 0 0 612 792" xml:space="preserve">
<rect x="265.5" y="368.933" fill-opacity="0" fill="#231F20" width="81" height="54.487"/>
<path id="SECONDARY_38_" fill="#F1F1F1" stroke="#231F20" stroke-miterlimit="10" d="M328.904,403.576l-4.133-14.195
	c-0.938,3.129-2.918,5.887-5.613,7.994l2.426,8.332c0.588,2.021,2.704,3.184,4.726,2.594
	C328.332,407.713,329.494,405.598,328.904,403.576z"/>
<path id="SECONDARY_37_" fill="#F1F1F1" stroke="#231F20" stroke-miterlimit="10" d="M309.898,401.348l0.691,8.641
	c0.167,2.1,2.004,3.666,4.104,3.498c2.099-0.168,3.664-2.004,3.496-4.104l-0.857-10.74
	C315.148,399.971,312.629,400.908,309.898,401.348z"/>
<path id="SECONDARY_36_" fill="#F1F1F1" stroke="#231F20" stroke-miterlimit="10" d="M306.392,401.637
	c-2.338,0-4.567-0.381-6.636-1.045l-0.15,9.854c-0.032,2.107,1.648,3.84,3.754,3.871c2.105,0.033,3.838-1.646,3.869-3.754
	l0.137-8.967C307.041,401.609,306.721,401.637,306.392,401.637z"/>
<path id="SECONDARY_35_" fill="#F1F1F1" stroke="#231F20" stroke-miterlimit="10" d="M291.078,394.943l-3.926,11.512
	c-0.68,1.994,0.385,4.158,2.377,4.84c1.994,0.68,4.16-0.385,4.84-2.379l3.131-9.182
	C294.957,398.574,292.771,396.926,291.078,394.943z"/>
<path id="SECONDARY_34_" fill="#F1F1F1" stroke="#231F20" stroke-miterlimit="10" d="M287.406,385.615l-7.861,4.811
	c-1.797,1.1-2.361,3.445-1.264,5.242c1.1,1.795,3.445,2.361,5.242,1.262l6.196-3.791
	C288.291,390.898,287.468,388.338,287.406,385.615z"/>
</svg>
