<?xml version="1.0" encoding="utf-8"?>
<!-- Generator: Adobe Illustrator 16.0.0, SVG Export Plug-In . SVG Version: 6.00 Build 0)  -->
<svg version="1.1" id="Layer_1" xmlns="http://www.w3.org/2000/svg" xmlns:xlink="http://www.w3.org/1999/xlink" x="0px" y="0px"
	 width="612px" height="792px" viewBox="0 0 612 792" enable-background="new 0 0 612 792" xml:space="preserve">
<rect id="head_frame" x="230.5" y="331.5" fill-opacity="0" fill="#BBBCBE" width="151" height="131"/>
<polygon id="SECONDARY_10_" fill="#FF0000" stroke="#231F20" stroke-miterlimit="10" points="339.634,409.262 352.186,440.145 
	361.251,405.168 327.083,378.378 "/>
<polygon id="SECONDARY_4_" fill="#FF0000" stroke="#231F20" stroke-miterlimit="10" points="270.366,409.262 257.815,440.145 
	248.75,405.168 282.918,378.378 "/>
<polygon id="PRIMARY_1_" fill="#666666" stroke="#231F20" stroke-miterlimit="10" points="354.316,446.5 255.316,446.5 
	283.852,376.167 325.781,376.167 "/>
<polygon id="SECONDARY_3_" fill="#FF0000" stroke="#231F20" stroke-miterlimit="10" points="324.815,440.145 284.815,440.145 
	295.586,418.145 314.047,418.145 "/>
<line fill="none" stroke="#231F20" stroke-miterlimit="10" x1="292.816" y1="423.803" x2="292.816" y2="439.979"/>
<line fill="none" stroke="#231F20" stroke-miterlimit="10" x1="300.816" y1="418.145" x2="300.816" y2="440.145"/>
<line fill="none" stroke="#231F20" stroke-miterlimit="10" x1="308.816" y1="418.479" x2="308.816" y2="440.479"/>
<line fill="none" stroke="#231F20" stroke-miterlimit="10" x1="316.816" y1="423.461" x2="316.816" y2="440.145"/>
<rect x="286.816" y="388.083" width="38" height="12.75"/>
<rect id="SECONDARY_2_" x="293.816" y="391.919" fill="#FF0000" width="28" height="5"/>
<path id="SECONDARY_1_" fill="#F21818" stroke="#231F20" stroke-miterlimit="10" d="M310.816,376v-7.166c0-3.866-2.687-7-6-7
	s-6,3.134-6,7V376H310.816z"/>
<path fill="none" stroke="#231F20" stroke-miterlimit="10" d="M313.816,376.167v-8.768c0-4.73-4.029-8.565-9-8.565s-9,3.834-9,8.565
	v8.768H313.816z"/>
<line fill="none" stroke="#231F20" stroke-miterlimit="10" x1="304.816" y1="358.833" x2="304.816" y2="376"/>
<line fill="none" stroke="#231F20" stroke-miterlimit="10" x1="295.328" y1="367.646" x2="314.328" y2="367.646"/>
<line fill="none" stroke="#231F20" stroke-miterlimit="10" x1="295.316" y1="372.333" x2="314.316" y2="372.333"/>
<line fill="none" stroke="#231F20" stroke-miterlimit="10" x1="297.375" y1="362.582" x2="312.516" y2="362.582"/>
</svg>
