<?xml version="1.0" encoding="utf-8"?>
<!-- Generator: Adobe Illustrator 16.0.0, SVG Export Plug-In . SVG Version: 6.00 Build 0)  -->
<svg version="1.1" id="Layer_1" xmlns="http://www.w3.org/2000/svg" xmlns:xlink="http://www.w3.org/1999/xlink" x="0px" y="0px"
	 width="612px" height="792px" viewBox="0 0 612 792" enable-background="new 0 0 612 792" xml:space="preserve">
<rect x="179" y="310.248" fill="#231F20" fill-opacity="0" width="256" height="172"/>
<path id="SECONDARY_7_" fill="#FFFDB5" stroke="#231F20" stroke-width="3.1586" stroke-miterlimit="10" d="M324.473,411.552
	c-0.846,1.508-1.146,2.682-1.022,3.598c0.306,2.247,3.223,2.86,6.92,2.583c1.812-0.126,3.821-0.465,5.809-0.94
	c4.396-1.991,13.55-2.49,13.371-6.837c-0.691-17.197-1.547-38.303-22.853-55.406c-1.302-1.144-2.713-2.198-4.277-3.049
	c-3.21-1.768-7.062-2.767-12.013-2.201c2.12,4.347,4.201,8.769,6.13,13.129c0.938,2.112,1.83,4.191,2.686,6.263
	c2.32,14.82,5.018,29.947,5.65,41.664C324.734,410.781,324.593,411.179,324.473,411.552z"/>
<path id="SECONDARY_6_" fill="#FFFDB5" stroke="#231F20" stroke-width="3.1586" stroke-miterlimit="10" d="M295.316,420.43
	c-1.17,1.255-1.742,2.337-1.833,3.249c-0.231,2.254,2.456,3.536,6.119,4.144c1.792,0.302,3.818,0.441,5.864,0.447
	c4.741-0.919,13.76,0.752,14.608-3.512c3.367-16.887,7.5-37.593-9.188-59.214c-1-1.421-2.126-2.774-3.441-3.971
	c-2.704-2.472-6.225-4.344-11.159-4.96c1.037,4.723,2.017,9.515,2.874,14.205c0.413,2.271,0.793,4.512,1.131,6.711
	c-1.219,14.96-2.159,30.305-4.289,41.825C295.751,419.733,295.521,420.091,295.316,420.43z"/>
<path id="SECONDARY_5_" fill="#FFFDB5" stroke="#231F20" stroke-width="3.1586" stroke-miterlimit="10" d="M266.928,410.553
	c-1.431,0.949-2.244,1.862-2.546,2.726c-0.747,2.146,1.568,4.014,4.986,5.456c1.676,0.709,3.616,1.316,5.605,1.797
	c4.823,0.213,13.201,3.928,15.021-0.024c7.208-15.639,16.049-34.82,4.855-59.726c-0.639-1.614-1.417-3.189-2.421-4.66
	c-2.054-3.03-5.039-5.672-9.696-7.422c-0.096,4.841-0.256,9.729-0.519,14.483c-0.126,2.304-0.276,4.575-0.458,6.796
	c-4.675,14.259-9.159,28.962-13.923,39.674C267.509,409.974,267.207,410.264,266.928,410.553z"/>
<path id="SECONDARY_4_" fill="#FFFDB5" stroke="#231F20" stroke-width="3.1586" stroke-miterlimit="10" d="M249.921,356.709
	c-1.684,0.35-2.904,0.283-3.742-0.111c-2.045-0.963-1.753-3.931-0.383-7.374c0.671-1.683,1.604-3.488,2.653-5.24
	c3.236-3.579,6.472-12.15,10.568-10.669c16.21,5.862,36.092,13.043,45.986,38.499c0.698,1.584,1.275,3.243,1.617,4.988
	c0.726,3.596,0.507,7.57-1.521,12.109c-3.515-3.333-7.109-6.651-10.693-9.808c-1.724-1.524-3.449-3.012-5.156-4.444
	c-13.447-6.689-27.079-13.831-38.062-17.969C250.744,356.703,250.313,356.706,249.921,356.709z"/>
</svg>
