<?xml version="1.0" encoding="utf-8"?>
<!-- Generator: Adobe Illustrator 16.0.0, SVG Export Plug-In . SVG Version: 6.00 Build 0)  -->
<svg version="1.1" id="Layer_1" xmlns="http://www.w3.org/2000/svg" xmlns:xlink="http://www.w3.org/1999/xlink" x="0px" y="0px"
	 width="612px" height="792px" viewBox="0 0 612 792" enable-background="new 0 0 612 792" xml:space="preserve">
<rect x="178" y="311.248" fill="#231F20" fill-opacity="0" width="256" height="172"/>
<path id="SECONDARY_3_" fill="#FFFDB5" stroke="#231F20" stroke-width="3.1586" stroke-miterlimit="10" d="M353.877,405.079
	c0.407,4.198,0.586,8.302,0.737,12.189c0.182,4.347-8.979,4.846-13.37,6.837c-1.988,0.472-3.997,0.814-5.806,0.94
	c-3.433,0.256-6.161-0.271-6.787-2.14C338.614,419.324,347.321,413.128,353.877,405.079z"/>
<path id="SECONDARY_2_" fill="#FFFDB5" stroke="#231F20" stroke-width="3.1586" stroke-miterlimit="10" d="M309.16,426.356
	c5.908,0,11.603-0.895,16.967-2.544c-0.327,1.729-0.658,3.438-0.991,5.1c-0.849,4.266-9.864,2.592-14.604,3.511
	c-2.047-0.006-4.074-0.145-5.865-0.447c-3.66-0.604-6.35-1.89-6.119-4.143c0.066-0.685,0.407-1.465,1.062-2.334
	C302.722,426.02,305.898,426.356,309.16,426.356z"/>
<path id="SECONDARY_1_" fill="#FFFDB5" stroke="#231F20" stroke-width="3.1586" stroke-miterlimit="10" d="M266.731,413.711
	c0.508-1.751,0.827-3.293,1.197-4.748c6.002,6.15,13.385,10.92,21.633,13.906c-0.274,0.599-0.552,1.206-0.824,1.795
	c-0.911,1.976-3.465,2.037-6.388,1.572c-2.927-0.46-6.227-1.443-8.631-1.558c-2.485-2.959-8.806-2.959-7.829-10.102
	C266.149,414.3,266.427,414.02,266.731,413.711z"/>
<path id="SECONDARY" fill="#FFFDB5" stroke="#231F20" stroke-width="3.1586" stroke-miterlimit="10" d="M248.734,344.296
	c1.59-1.807,3.184-4.861,4.886-7.277c1.704-2.416,3.522-4.208,5.579-3.485c1.167,0.41,2.354,0.831,3.555,1.259
	c-4.876,6.626-8.403,14.294-10.079,22.656c-0.302-0.171-0.594-0.337-0.917-0.509c-0.429,0.003-0.827,0.006-1.21,0
	C244.734,352.667,249.136,348.134,248.734,344.296z"/>
</svg>
