<?xml version="1.0" encoding="utf-8"?>
<!-- Generator: Adobe Illustrator 16.0.0, SVG Export Plug-In . SVG Version: 6.00 Build 0)  -->
<svg version="1.1" id="Layer_1" xmlns="http://www.w3.org/2000/svg" xmlns:xlink="http://www.w3.org/1999/xlink" x="0px" y="0px"
	 width="612px" height="792px" viewBox="0 0 612 792" enable-background="new 0 0 612 792" xml:space="preserve">
<rect x="175" y="320.358" fill="#231F20" fill-opacity="0" width="256" height="171.778"/>
<path id="SECONDARY_3_" fill="#FFFDB5" stroke="#231F20" stroke-width="3.1566" stroke-miterlimit="10" d="M251.346,466.244
	c1.042-2.057,2.048-4.088,2.999-6.111c3.088-14.657,6.556-29.617,7.79-41.261c-0.119-0.438-0.236-0.844-0.338-1.226
	c-0.764-1.539-1.008-2.728-0.833-3.633c0.019-0.102,0.069-0.185,0.101-0.28c6.318,8.058,14.728,14.372,24.434,18.152
	c-2.069,14.467-6.966,30.162-24.418,42.736c-1.361,1.074-2.826,2.05-4.427,2.823c-3.293,1.601-7.196,2.395-12.108,1.582
	C246.886,474.797,249.193,470.493,251.346,466.244z"/>
<path id="SECONDARY_2_" fill="#FFFDB5" stroke="#231F20" stroke-width="3.1566" stroke-miterlimit="10" d="M292.053,469.558
	c0.176-12.377,0.555-24.963,0.114-35.548c4.57,1.164,9.332,1.848,14.266,1.848c3.669,0,7.244-0.379,10.725-1.028
	c0.88,14.854-0.642,31.604-15.713,47.652c-1.128,1.318-2.376,2.559-3.804,3.621c-2.928,2.198-6.61,3.726-11.583,3.866
	c1.484-4.6,2.92-9.264,4.219-13.848C290.904,473.904,291.501,471.712,292.053,469.558z"/>
<path id="SECONDARY_1_" fill="#FFFDB5" stroke="#231F20" stroke-width="3.1566" stroke-miterlimit="10" d="M327.396,463.049
	c-1.544-10.132-2.973-20.425-4.661-29.563c8.58-2.524,16.303-7.001,22.707-12.894c3.954,15.419,6.729,33.62-6.648,53.669
	c-0.895,1.483-1.923,2.906-3.154,4.193c-2.527,2.647-5.907,4.76-10.79,5.714c0.707-4.784,1.352-9.624,1.88-14.354
	C326.981,467.525,327.207,465.266,327.396,463.049z"/>
<path id="SECONDARY" fill="#FFFDB5" stroke="#231F20" stroke-width="3.1566" stroke-miterlimit="10" d="M364.053,378.377
	c0-1.893-0.105-3.759-0.287-5.603c0.836,0.117,1.534,0.466,2.037,1.17c9.95,14.039,22.16,31.255,15.722,57.757
	c-0.33,1.699-0.809,3.384-1.521,5.012c-1.463,3.354-3.913,6.49-8.176,9.058c-0.979-4.734-2.031-9.504-3.163-14.131
	c-0.547-2.235-1.108-4.431-1.691-6.583c-3.448-6.286-6.871-12.672-10.232-18.69C361.383,398.081,364.053,388.546,364.053,378.377z"
	/>
</svg>
