<?xml version="1.0" encoding="utf-8"?>
<!-- Generator: Adobe Illustrator 16.0.0, SVG Export Plug-In . SVG Version: 6.00 Build 0)  -->
<svg version="1.1" id="Layer_1" xmlns="http://www.w3.org/2000/svg" xmlns:xlink="http://www.w3.org/1999/xlink" x="0px" y="0px"
	 width="612px" height="792px" viewBox="0 0 612 792" enable-background="new 0 0 612 792" xml:space="preserve">
<rect x="179" y="310.248" fill="#231F20" fill-opacity="0" width="256" height="172"/>
<path id="SECONDARY_3_" fill="#FFFDB5" stroke="#231F20" stroke-width="3.1586" stroke-miterlimit="10" d="M324.016,459.639
	c-0.18-12.393-0.559-24.994-0.117-35.593c-4.565,1.165-9.33,1.85-14.263,1.85c-3.67,0-7.247-0.379-10.727-1.029
	c-0.881,14.874,0.642,31.644,15.711,47.714c1.127,1.319,2.377,2.562,3.803,3.625c2.929,2.201,6.611,3.73,11.583,3.872
	c-1.487-4.605-2.92-9.275-4.219-13.866C325.157,463.992,324.564,461.797,324.016,459.639z"/>
<path id="SECONDARY_2_" fill="#FFFDB5" stroke="#231F20" stroke-width="3.1586" stroke-miterlimit="10" d="M288.673,453.122
	c1.542-10.146,2.974-20.45,4.657-29.601c-8.583-2.527-16.298-7.01-22.707-12.91c-3.951,15.438-6.73,33.663,6.648,53.738
	c0.898,1.485,1.923,2.91,3.158,4.198c2.526,2.651,5.901,4.767,10.787,5.722c-0.707-4.791-1.354-9.637-1.879-14.371
	C289.086,457.604,288.858,455.342,288.673,453.122z"/>
<path id="SECONDARY_1_" fill="#FFFDB5" stroke="#231F20" stroke-width="3.1586" stroke-miterlimit="10" d="M252.014,368.341
	c0-1.894,0.104-3.764,0.284-5.61c-0.835,0.117-1.536,0.467-2.036,1.171c-9.952,14.057-22.164,31.296-15.727,57.832
	c0.334,1.701,0.81,3.388,1.528,5.019c1.466,3.356,3.912,6.498,8.176,9.069c0.977-4.741,2.032-9.517,3.161-14.15
	c0.546-2.237,1.112-4.436,1.693-6.591c3.449-6.295,6.872-12.688,10.231-18.715C254.684,388.071,252.014,378.523,252.014,368.341z"/>
<path id="SECONDARY" fill="#FFFDB5" stroke="#231F20" stroke-width="3.1586" stroke-miterlimit="10" d="M364.719,456.322
	c-1.043-2.06-2.046-4.094-2.996-6.119c-3.09-14.677-6.556-29.656-7.794-41.314c0.121-0.438,0.238-0.845,0.34-1.228
	c0.766-1.541,1.009-2.731,0.833-3.638c-0.019-0.102-0.067-0.185-0.102-0.28c-6.314,8.067-14.726,14.39-24.432,18.176
	c2.07,14.485,6.966,30.201,24.416,42.791c1.364,1.076,2.827,2.054,4.43,2.827c3.293,1.603,7.197,2.398,12.107,1.584
	C369.179,464.886,366.873,460.576,364.719,456.322z"/>
</svg>
