<?xml version="1.0" encoding="utf-8"?>
<!-- Generator: Adobe Illustrator 16.0.0, SVG Export Plug-In . SVG Version: 6.00 Build 0)  -->
<svg version="1.1" id="Layer_1" xmlns="http://www.w3.org/2000/svg" xmlns:xlink="http://www.w3.org/1999/xlink" x="0px" y="0px"
	 width="612px" height="792px" viewBox="0 0 612 792" enable-background="new 0 0 612 792" xml:space="preserve">
<rect x="179" y="310.248" fill="#231F20" fill-opacity="0" width="256" height="172"/>
<path id="SECONDARY_7_" fill="#FFFDB5" stroke="#231F20" stroke-width="3.1586" stroke-miterlimit="10" d="M289.527,411.552
	c0.846,1.508,1.146,2.683,1.021,3.599c-0.306,2.247-3.223,2.859-6.92,2.583c-1.812-0.126-3.821-0.466-5.809-0.94
	c-4.396-1.991-13.551-2.49-13.371-6.837c0.69-17.197,1.547-38.303,22.853-55.406c1.302-1.144,2.713-2.198,4.277-3.049
	c3.21-1.768,7.062-2.767,12.013-2.201c-2.12,4.347-4.201,8.769-6.13,13.129c-0.938,2.112-1.83,4.191-2.686,6.263
	c-2.32,14.82-5.019,29.947-5.65,41.665C289.266,410.781,289.407,411.179,289.527,411.552z"/>
<path id="SECONDARY_6_" fill="#FFFDB5" stroke="#231F20" stroke-width="3.1586" stroke-miterlimit="10" d="M318.684,420.43
	c1.17,1.255,1.742,2.337,1.833,3.249c0.231,2.254-2.456,3.536-6.119,4.145c-1.792,0.302-3.817,0.44-5.863,0.446
	c-4.741-0.919-13.76,0.753-14.608-3.512c-3.367-16.887-7.5-37.593,9.188-59.214c1-1.421,2.126-2.774,3.44-3.971
	c2.704-2.472,6.225-4.344,11.159-4.96c-1.037,4.723-2.018,9.515-2.874,14.205c-0.413,2.271-0.793,4.512-1.131,6.711
	c1.219,14.96,2.159,30.305,4.289,41.825C318.249,419.733,318.479,420.091,318.684,420.43z"/>
<path id="SECONDARY_5_" fill="#FFFDB5" stroke="#231F20" stroke-width="3.1586" stroke-miterlimit="10" d="M347.071,410.553
	c1.432,0.949,2.244,1.862,2.547,2.727c0.747,2.146-1.568,4.014-4.986,5.456c-1.676,0.709-3.616,1.315-5.605,1.797
	c-4.822,0.213-13.2,3.928-15.021-0.024c-7.208-15.639-16.049-34.82-4.855-59.726c0.64-1.614,1.417-3.189,2.421-4.66
	c2.055-3.03,5.039-5.672,9.696-7.422c0.096,4.841,0.256,9.729,0.52,14.483c0.126,2.304,0.275,4.575,0.458,6.796
	c4.675,14.259,9.158,28.962,13.923,39.674C346.491,409.974,346.793,410.264,347.071,410.553z"/>
<path id="SECONDARY_4_" fill="#FFFDB5" stroke="#231F20" stroke-width="3.1586" stroke-miterlimit="10" d="M364.079,356.709
	c1.684,0.35,2.903,0.283,3.741-0.111c2.046-0.963,1.754-3.931,0.384-7.374c-0.671-1.683-1.604-3.488-2.653-5.24
	c-3.236-3.579-6.472-12.15-10.568-10.669c-16.21,5.862-36.092,13.043-45.985,38.499c-0.698,1.584-1.275,3.243-1.617,4.988
	c-0.726,3.596-0.507,7.57,1.521,12.109c3.516-3.333,7.109-6.651,10.693-9.808c1.724-1.524,3.449-3.012,5.156-4.444
	c13.446-6.689,27.079-13.831,38.062-17.969C363.256,356.703,363.687,356.706,364.079,356.709z"/>
</svg>
