<?xml version="1.0" encoding="utf-8"?>
<!-- Generator: Adobe Illustrator 16.0.0, SVG Export Plug-In . SVG Version: 6.00 Build 0)  -->
<svg version="1.1" id="Layer_1" xmlns="http://www.w3.org/2000/svg" xmlns:xlink="http://www.w3.org/1999/xlink" x="0px" y="0px"
	 width="612px" height="792px" viewBox="0 0 612 792" enable-background="new 0 0 612 792" xml:space="preserve">
<rect x="179" y="272.819" fill-opacity="0" fill="#231F20" width="256" height="247.349"/>
<ellipse id="PRIMARY_4_" fill="#666666" stroke="#231F20" stroke-width="3.1616" stroke-miterlimit="10" cx="305.909" cy="438.065" rx="82.807" ry="82.865"/>
<path id="PRIMARY_5_" fill="#666666" stroke="#231F20" stroke-width="3.1616" stroke-miterlimit="10" d="M382.303,407.346
	c-10.593-27.051-33.827-45.374-60.271-50.892l111.389-27.993v133.25l-60.784,23.955C388.29,463.636,392.901,434.393,382.303,407.346
	z"/>
<path id="PRIMARY_6_" fill="#666666" stroke="#231F20" stroke-width="3.1616" stroke-miterlimit="10" d="M273.13,362.227
	c-24.051,10.557-42.701,32.346-48.093,60.099c-1.307,6.728-1.744,13.421-1.42,19.972l-10.241-77.3l-10.792-81.369L273.13,362.227z"
	/>
<path id="SECONDARY_26_" fill="#FF0000" stroke="#231F20" stroke-width="3.1616" stroke-miterlimit="10" d="M200.708,280.245
	l71.782,82.272c-5.593,2.511-10.894,5.614-15.784,9.275l-52.264-59.896L200.708,280.245z"/>
<path id="SECONDARY_25_" fill="#FF0000" stroke="#231F20" stroke-width="3.1616" stroke-miterlimit="10" d="M287.322,458.222
	c-12.284,14.522-26.336,26.581-41.461,36.184c-6.118-6.458-11.239-13.871-15.041-22.038c13.59-8.209,26.184-18.803,37.108-31.72
	c21.535-25.476,33.096-55.846,35.017-86.004c0.983-0.035,1.968-0.075,2.961-0.075c8.127,0,15.976,1.192,23.396,3.377
	C326.321,393.178,312.476,428.466,287.322,458.222z"/>
</svg>
