<?xml version="1.0" encoding="utf-8"?>
<!-- Generator: Adobe Illustrator 16.0.0, SVG Export Plug-In . SVG Version: 6.00 Build 0)  -->
<svg version="1.1" id="Layer_1" xmlns="http://www.w3.org/2000/svg" xmlns:xlink="http://www.w3.org/1999/xlink" x="0px" y="0px"
	 width="612px" height="792px" viewBox="0 0 612 792" enable-background="new 0 0 612 792" xml:space="preserve">
<rect x="178" y="272.076" fill="#231F20" fill-opacity="0" width="256" height="247.272"/>
<path id="PRIMARY_14_" fill="#00BC03" stroke="#231F20" stroke-width="3.1611" stroke-miterlimit="10" d="M351.277,500.415
	c-18.769,22.493-52.208,25.504-74.689,6.734l0,0c-22.483-18.777-25.499-52.229-6.731-74.72l68.058-81.575
	c18.768-22.492,52.209-25.505,74.694-6.731l0,0c22.478,18.775,25.49,52.227,6.728,74.717L351.277,500.415z"/>
<path id="SECONDARY_43_" fill="#005601" d="M310.056,452.346c-2.577,9.554-9.23,16.08-14.855,14.58
	c-5.626-1.504-8.101-10.467-5.522-20.014c2.579-9.554,9.232-16.075,14.855-14.578C310.16,433.838,312.633,442.799,310.056,452.346z"
	/>
<path id="SECONDARY_42_" fill="#005601" d="M334.846,383.004c-1.91,2.981-5.898,3.858-8.901,1.951
	c-2.99-1.907-3.87-5.865-1.954-8.851c1.914-2.981,5.898-3.853,8.896-1.95C335.886,376.064,336.766,380.026,334.846,383.004z"/>
<path id="SECONDARY_41_" fill="#005601" d="M330.673,435.74c-1.031,1.611-3.037,2.177-4.476,1.266
	c-1.429-0.911-1.756-2.957-0.722-4.569c1.03-1.609,3.033-2.177,4.469-1.26C331.377,432.087,331.707,434.135,330.673,435.74z"/>
<path id="SECONDARY_40_" fill="#005601" d="M340.944,407.358c-1.567,4.953-5.207,8.226-8.12,7.312
	c-2.923-0.917-4.016-5.672-2.444-10.621c1.57-4.946,5.203-8.22,8.123-7.306C341.42,397.653,342.516,402.412,340.944,407.358z"/>
<path id="SECONDARY_39_" fill="#005601" d="M359.969,355.86c9.1-6.102,18.047-8.752,19.963-5.913
	c1.923,2.841-3.897,10.088-13,16.189c-9.104,6.1-18.043,8.749-19.969,5.91C345.043,369.21,350.864,361.96,359.969,355.86z"/>
<path id="SECONDARY_38_" fill="#005601" d="M309.234,410.972c-2.812,4.371-3.861,8.697-2.34,9.664
	c1.513,0.966,5.025-1.801,7.834-6.176c2.812-4.375,3.861-8.701,2.346-9.664C315.556,403.833,312.043,406.596,309.234,410.972z"/>
<path id="SECONDARY_37_" fill="#005601" d="M351.481,401.18c-3.197,4.978-2.713,10.968,1.077,13.373
	c3.787,2.404,9.454,0.33,12.657-4.646c3.194-4.98,2.71-10.968-1.08-13.38C360.349,394.119,354.679,396.206,351.481,401.18z"/>
</svg>
