<?xml version="1.0" encoding="utf-8"?>
<!-- Generator: Adobe Illustrator 16.0.0, SVG Export Plug-In . SVG Version: 6.00 Build 0)  -->
<svg version="1.1" id="Layer_1" xmlns="http://www.w3.org/2000/svg" xmlns:xlink="http://www.w3.org/1999/xlink" x="0px" y="0px"
	 width="612px" height="792px" viewBox="0 0 612 792" enable-background="new 0 0 612 792" xml:space="preserve">
<rect x="265.5" y="356.651" fill-opacity="0" fill="#231F20" width="81" height="78.206"/>
<path id="PRIMARY_14_" fill="#00BC03" stroke="#231F20" stroke-miterlimit="10" d="M320.326,428.869
	c-5.938,7.114-16.519,8.067-23.632,2.13l0,0c-7.114-5.938-8.068-16.519-2.13-23.632l21.534-25.8
	c5.938-7.114,16.519-8.067,23.633-2.129l0,0c7.113,5.938,8.066,16.518,2.129,23.631L320.326,428.869z"/>
<path id="SECONDARY_43_" fill="#005601" d="M307.283,413.666c-0.815,3.022-2.92,5.086-4.7,4.611s-2.563-3.31-1.747-6.33
	c0.816-3.021,2.921-5.084,4.7-4.61C307.316,407.813,308.099,410.646,307.283,413.666z"/>
<path id="SECONDARY_42_" fill="#005601" d="M315.127,391.735c-0.605,0.943-1.866,1.22-2.816,0.617
	c-0.947-0.603-1.225-1.855-0.619-2.799c0.606-0.943,1.867-1.219,2.815-0.617C315.456,389.54,315.734,390.793,315.127,391.735z"/>
<path id="SECONDARY_41_" fill="#005601" d="M313.807,408.414c-0.327,0.51-0.961,0.689-1.416,0.4
	c-0.453-0.288-0.556-0.935-0.229-1.445c0.326-0.509,0.96-0.688,1.414-0.398C314.029,407.259,314.134,407.906,313.807,408.414z"/>
<path id="SECONDARY_40_" fill="#005601" d="M317.057,399.438c-0.496,1.566-1.648,2.601-2.57,2.312
	c-0.925-0.29-1.27-1.794-0.773-3.359s1.646-2.6,2.57-2.311C317.207,396.368,317.554,397.873,317.057,399.438z"/>
<path id="SECONDARY_39_" fill="#005601" d="M323.076,383.15c2.879-1.93,5.71-2.768,6.317-1.87c0.608,0.898-1.234,3.19-4.114,5.12
	c-2.881,1.929-5.709,2.767-6.318,1.869C318.354,387.372,320.195,385.079,323.076,383.15z"/>
<path id="SECONDARY_38_" fill="#005601" d="M307.023,400.58c-0.889,1.383-1.221,2.751-0.74,3.057c0.479,0.305,1.59-0.57,2.479-1.953
	c0.889-1.384,1.221-2.752,0.742-3.057C309.023,398.322,307.912,399.196,307.023,400.58z"/>
<path id="SECONDARY_37_" fill="#005601" d="M320.391,397.483c-1.012,1.575-0.859,3.469,0.34,4.23s2.992,0.104,4.005-1.47
	c1.011-1.575,0.858-3.469-0.341-4.231S321.402,395.91,320.391,397.483z"/>
</svg>
