<?xml version="1.0" encoding="utf-8"?>
<!-- Generator: Adobe Illustrator 16.0.0, SVG Export Plug-In . SVG Version: 6.00 Build 0)  -->
<svg version="1.1" id="Layer_1" xmlns="http://www.w3.org/2000/svg" xmlns:xlink="http://www.w3.org/1999/xlink" x="0px" y="0px"
	 width="612px" height="792px" viewBox="0 0 612 792" enable-background="new 0 0 612 792" xml:space="preserve">
<rect x="266.5" y="352.008" fill-opacity="0" fill="#231F20" width="81" height="89.313"/>
<path id="PRIMARY_15_" fill="#00BC03" stroke="#231F20" stroke-miterlimit="10" d="M326.25,396.402c0,24.588-8.953,44.52-20,44.52
	c-11.046,0-20-19.932-20-44.52c0-24.587,0.333-44.52,20-44.52C326.25,351.883,326.25,371.815,326.25,396.402z"/>
<path id="SECONDARY_50_" fill="#005601" d="M296.783,412.822c0.98,3.299,0.854,6.764-0.281,7.739c-1.135,0.978-2.85-0.903-3.83-4.2
	c-0.979-3.299-0.853-6.762,0.281-7.738C294.089,407.646,295.803,409.527,296.783,412.822z"/>
<path id="SECONDARY_49_" fill="#005601" d="M290.659,387.383c0.125,1.305-0.396,2.537-1.162,2.749
	c-0.766,0.213-1.489-0.672-1.614-1.977c-0.125-1.305,0.394-2.533,1.161-2.748C289.812,385.193,290.534,386.079,290.659,387.383z"/>
<path id="SECONDARY_48_" fill="#005601" d="M297.704,403.093c0.068,0.704-0.175,1.358-0.542,1.46
	c-0.366,0.102-0.718-0.387-0.787-1.092c-0.068-0.704,0.175-1.355,0.543-1.459C297.283,401.9,297.637,402.389,297.704,403.093z"/>
<path id="SECONDARY_47_" fill="#005601" d="M295.217,392.649c0.471,1.766,0.357,3.579-0.25,4.047
	c-0.609,0.47-1.484-0.584-1.953-2.351c-0.47-1.765-0.357-3.578,0.251-4.046C293.873,389.831,294.748,390.882,295.217,392.649z"/>
<path id="SECONDARY_46_" fill="#005601" d="M290.769,373.603c0.585-3.953,1.653-6.907,2.381-6.594
	c0.729,0.313,0.843,3.773,0.255,7.728c-0.587,3.953-1.653,6.907-2.382,6.594C290.297,381.016,290.181,377.557,290.769,373.603z"/>
<path id="SECONDARY_45_" fill="#005601" d="M290.59,401.512c0.182,1.914,0.646,3.379,1.034,3.271
	c0.388-0.108,0.554-1.748,0.37-3.661c-0.184-1.913-0.648-3.378-1.035-3.271C290.571,397.959,290.406,399.598,290.59,401.512z"/>
<path id="SECONDARY_44_" fill="#005601" d="M296.026,388.317c0.21,2.178,1.165,3.725,2.134,3.456
	c0.969-0.269,1.586-2.253,1.377-4.43c-0.209-2.178-1.165-3.725-2.134-3.456C296.434,384.157,295.817,386.141,296.026,388.317z"/>
<circle fill="none" stroke="#231F20" stroke-miterlimit="10" cx="306.25" cy="360.11" r="2.5"/>
<circle fill="none" stroke="#231F20" stroke-miterlimit="10" cx="306.25" cy="433.75" r="2.5"/>
</svg>
