<?xml version="1.0" encoding="utf-8"?>
<!-- Generator: Adobe Illustrator 16.0.0, SVG Export Plug-In . SVG Version: 6.00 Build 0)  -->
<svg version="1.1" id="Layer_1" xmlns="http://www.w3.org/2000/svg" xmlns:xlink="http://www.w3.org/1999/xlink" x="0px" y="0px"
	 width="612px" height="792px" viewBox="0 0 612 792" enable-background="new 0 0 612 792" xml:space="preserve">
<rect x="192" y="269.604" fill="#231F20" fill-opacity="0" width="230" height="254.355"/>
<path id="PRIMARY_15_" fill="#00BC03" stroke="#231F20" stroke-width="2.8437" stroke-miterlimit="10" d="M361.66,396.034
	c0,70.023-25.422,126.787-56.79,126.787c-31.365,0-56.79-56.764-56.79-126.787c0-70.022,0.946-126.79,56.79-126.79
	C361.66,269.247,361.66,326.012,361.66,396.034z"/>
<path id="SECONDARY_50_" fill="#005601" d="M277.989,442.797c2.783,9.395,2.425,19.262-0.798,22.037
	c-3.222,2.787-8.093-2.569-10.875-11.959c-2.78-9.397-2.422-19.259,0.798-22.037C270.339,428.057,275.207,433.413,277.989,442.797z"
	/>
<path id="SECONDARY_49_" fill="#005601" d="M260.6,370.348c0.355,3.717-1.125,7.226-3.3,7.829c-2.175,0.607-4.229-1.914-4.583-5.631
	c-0.355-3.715,1.119-7.213,3.297-7.825C258.194,364.111,260.245,366.635,260.6,370.348z"/>
<path id="SECONDARY_48_" fill="#005601" d="M280.604,415.088c0.192,2.005-0.498,3.868-1.539,4.158
	c-1.04,0.292-2.04-1.102-2.235-3.109c-0.192-2.006,0.497-3.86,1.542-4.155C279.409,411.692,280.414,413.083,280.604,415.088z"/>
<path id="SECONDARY_47_" fill="#005601" d="M273.542,385.345c1.338,5.03,1.015,10.191-0.71,11.526
	c-1.729,1.338-4.213-1.663-5.544-6.697c-1.335-5.025-1.014-10.189,0.713-11.522C269.726,377.32,272.21,380.313,273.542,385.345z"/>
<path id="SECONDARY_46_" fill="#005601" d="M260.912,331.104c1.661-11.258,4.693-19.671,6.76-18.78
	c2.07,0.892,2.395,10.747,0.725,22.009c-1.668,11.258-4.694,19.671-6.765,18.78C259.571,352.216,259.243,342.365,260.912,331.104z"
	/>
<path id="SECONDARY_45_" fill="#005601" d="M260.403,410.585c0.517,5.451,1.834,9.623,2.937,9.317
	c1.102-0.309,1.572-4.979,1.051-10.427c-0.522-5.448-1.84-9.62-2.939-9.317C260.349,400.468,259.882,405.134,260.403,410.585z"/>
<path id="SECONDARY_44_" fill="#005601" d="M275.839,373.008c0.596,6.203,3.308,10.608,6.061,9.842
	c2.75-0.766,4.503-6.416,3.91-12.617c-0.593-6.202-3.308-10.607-6.06-9.841C276.998,361.162,275.246,366.812,275.839,373.008z"/>
<ellipse fill="none" stroke="#231F20" stroke-width="2.8437" stroke-miterlimit="10" cx="304.87" cy="292.677" rx="7.099" ry="7.12"/>
<ellipse fill="none" stroke="#231F20" stroke-width="2.8437" stroke-miterlimit="10" cx="304.87" cy="502.396" rx="7.099" ry="7.12"/>
</svg>
