<?xml version="1.0" encoding="utf-8"?>
<!-- Generator: Adobe Illustrator 16.0.0, SVG Export Plug-In . SVG Version: 6.00 Build 0)  -->
<svg version="1.1" id="Layer_1" xmlns="http://www.w3.org/2000/svg" xmlns:xlink="http://www.w3.org/1999/xlink" x="0px" y="0px"
	 width="612px" height="792px" viewBox="0 0 612 792" enable-background="new 0 0 612 792" xml:space="preserve">
<rect x="179" y="310.248" fill-opacity="0" fill="#231F20" width="256" height="172"/>
<path id="SECONDARY_10_" fill="#00BC03" d="M243.222,395.925l14.784-22.747c0.636-0.98,1.457-1.76,2.376-2.355v23.623
	c0,1.162,0.284,2.293,0.722,3.407l-4.42,6.797c-2.414,3.715-7.382,4.772-11.099,2.361
	C241.87,404.601,240.812,399.637,243.222,395.925z"/>
<path id="SECONDARY_9_" fill="#00BC03" d="M279.352,410.76v24.152c0,4.751-3.593,8.602-8.025,8.602s-8.024-3.851-8.024-8.602
	v-29.104c0-1.267,0.271-2.463,0.731-3.548C267.303,405.636,272.633,408.553,279.352,410.76z"/>
<path id="SECONDARY_7_" fill="#00BC03" d="M303.738,414.974v20.524c0,4.427-3.593,8.016-8.022,8.016
	c-4.432,0-8.024-3.589-8.024-8.016v-22.534C292.63,413.996,298.025,414.699,303.738,414.974z"/>
<path id="SECONDARY_6_" fill="#00BC03" d="M329.284,413.324v22.174c0,4.427-3.593,8.016-8.021,8.016
	c-4.433,0-8.025-3.589-8.025-8.016v-20.46C318.917,414.851,324.314,414.258,329.284,413.324z"/>
<path id="SECONDARY_5_" fill="#00BC03" d="M354.71,402.258c0.46,1.085,0.731,2.281,0.731,3.551v29.104
	c0,4.751-3.593,8.602-8.021,8.602c-4.433,0-8.024-3.851-8.024-8.602v-24.156C346.114,408.549,351.441,405.633,354.71,402.258z"/>
</svg>
