<?xml version="1.0" encoding="utf-8"?>
<!-- Generator: Adobe Illustrator 16.0.0, SVG Export Plug-In . SVG Version: 6.00 Build 0)  -->
<svg version="1.1" id="Layer_1" xmlns="http://www.w3.org/2000/svg" xmlns:xlink="http://www.w3.org/1999/xlink" x="0px" y="0px"
	 width="612px" height="792px" viewBox="0 0 612 792" enable-background="new 0 0 612 792" xml:space="preserve">
<rect x="173" y="312.248" fill-opacity="0" fill="#231F20" width="256" height="172"/>
<path id="SECONDARY_4_" fill="#00BC03" d="M252.557,403.412v6.193c3.64,3.176,9.171,5.95,16.048,8.139v-4.988
	C261.335,410.37,255.725,407.14,252.557,403.412z"/>
<path id="SECONDARY_3_" fill="#00BC03" d="M278.714,415.324v5.842c5.034,0.773,10.416,1.289,16.048,1.511v-5.639
	C289.083,416.851,283.684,416.258,278.714,415.324z"/>
<path id="SECONDARY_2_" fill="#00BC03" d="M304.262,416.974v5.786c5.664-0.293,11.041-0.897,16.046-1.751v-6.045
	C315.367,415.999,309.974,416.699,304.262,416.974z"/>
<path id="SECONDARY_1_" fill="#00BC03" d="M328.648,412.76v4.987c6.876-2.188,12.41-4.963,16.049-8.138v-6.19
	C341.527,407.146,335.917,410.37,328.648,412.76z"/>
<path id="SECONDARY" fill="#00BC03" d="M353.423,376.127v-20.429c-0.293-0.761-0.716-1.504-1.2-2.236
	c-0.436,0.413-0.834,0.872-1.177,1.398l-3.429,5.276v28.369c0.809-0.57,1.534-1.292,2.108-2.174l4.339-6.674v-0.381
	C353.682,378.247,353.423,377.2,353.423,376.127z"/>
</svg>
