<?xml version="1.0" encoding="utf-8"?>
<!-- Generator: Adobe Illustrator 16.0.0, SVG Export Plug-In . SVG Version: 6.00 Build 0)  -->
<svg version="1.1" id="Layer_1" xmlns="http://www.w3.org/2000/svg" xmlns:xlink="http://www.w3.org/1999/xlink" x="0px" y="0px"
	 width="612px" height="792px" viewBox="0 0 612 792" enable-background="new 0 0 612 792" xml:space="preserve">
<rect x="179" y="310.248" fill-opacity="0" fill="#231F20" width="256" height="172"/>
<path id="SECONDARY_10_" fill="#00BC03" d="M370.777,395.925l-14.783-22.747c-0.636-0.98-1.457-1.76-2.377-2.355v23.623
	c0,1.162-0.284,2.293-0.722,3.407l4.419,6.797c2.414,3.715,7.383,4.772,11.1,2.361C372.13,404.601,373.188,399.637,370.777,395.925z
	"/>
<path id="SECONDARY_9_" fill="#00BC03" d="M334.648,410.76v24.152c0,4.751,3.592,8.602,8.024,8.602c4.432,0,8.024-3.851,8.024-8.602
	v-29.104c0-1.267-0.271-2.463-0.731-3.548C346.697,405.636,341.367,408.553,334.648,410.76z"/>
<path id="SECONDARY_7_" fill="#00BC03" d="M310.263,414.974v20.524c0,4.427,3.592,8.016,8.021,8.016
	c4.432,0,8.024-3.589,8.024-8.016v-22.534C321.37,413.996,315.976,414.699,310.263,414.974z"/>
<path id="SECONDARY_6_" fill="#00BC03" d="M284.714,413.324v22.174c0,4.427,3.593,8.016,8.023,8.016
	c4.432,0,8.024-3.589,8.024-8.016v-20.46C295.083,414.851,289.684,414.258,284.714,413.324z"/>
<path id="SECONDARY_5_" fill="#00BC03" d="M259.29,402.258c-0.461,1.085-0.733,2.281-0.733,3.551v29.104
	c0,4.751,3.593,8.602,8.023,8.602c4.432,0,8.025-3.851,8.025-8.602v-24.156C267.886,408.549,262.559,405.633,259.29,402.258z"/>
</svg>
