<?xml version="1.0" encoding="utf-8"?>
<!-- Generator: Adobe Illustrator 16.0.0, SVG Export Plug-In . SVG Version: 6.00 Build 0)  -->
<svg version="1.1" id="Layer_1" xmlns="http://www.w3.org/2000/svg" xmlns:xlink="http://www.w3.org/1999/xlink" x="0px" y="0px"
	 width="612px" height="792px" viewBox="0 0 612 792" enable-background="new 0 0 612 792" xml:space="preserve">
<rect x="266.5" y="369.004" fill-opacity="0" fill="#231F20" width="81" height="54.487"/>
<path id="SECONDARY_10_" fill="#00BC03" d="M286.82,396.146l4.678-7.206c0.201-0.311,0.461-0.558,0.752-0.746v7.483
	c0,0.368,0.09,0.727,0.229,1.079l-1.398,2.153c-0.764,1.177-2.336,1.512-3.512,0.748S286.058,397.321,286.82,396.146z"/>
<path id="SECONDARY_9_" fill="#00BC03" d="M298.252,400.845v7.651c0,1.505-1.137,2.725-2.539,2.725s-2.539-1.22-2.539-2.725v-9.22
	c0-0.401,0.086-0.78,0.231-1.124C294.439,399.222,296.126,400.146,298.252,400.845z"/>
<path id="SECONDARY_7_" fill="#00BC03" d="M305.968,402.18v6.502c0,1.402-1.137,2.539-2.538,2.539c-1.402,0-2.539-1.137-2.539-2.539
	v-7.139C302.453,401.87,304.16,402.093,305.968,402.18z"/>
<path id="SECONDARY_6_" fill="#00BC03" d="M314.051,401.657v7.024c0,1.402-1.137,2.539-2.538,2.539
	c-1.402,0-2.539-1.137-2.539-2.539V402.2C310.771,402.141,312.479,401.953,314.051,401.657z"/>
<path id="SECONDARY_5_" fill="#00BC03" d="M322.096,398.151c0.146,0.344,0.231,0.723,0.231,1.125v9.22
	c0,1.505-1.137,2.725-2.538,2.725c-1.402,0-2.539-1.22-2.539-2.725v-7.652C319.376,400.145,321.062,399.221,322.096,398.151z"/>
</svg>
