<?xml version="1.0" encoding="utf-8"?>
<!-- Generator: Adobe Illustrator 16.0.0, SVG Export Plug-In . SVG Version: 6.00 Build 0)  -->
<svg version="1.1" id="Layer_1" xmlns="http://www.w3.org/2000/svg" xmlns:xlink="http://www.w3.org/1999/xlink" x="0px" y="0px"
	 width="612px" height="792px" viewBox="0 0 612 792" enable-background="new 0 0 612 792" xml:space="preserve">
<rect x="179" y="313.225" fill-opacity="0" fill="#231F20" width="256" height="169.285"/>
<path id="PRIMARY_9_" fill="#666666" stroke="#231F20" stroke-width="3.1336" stroke-miterlimit="10" d="M353.617,396.094
	c0,11.231-21.932,20.35-48.987,20.35l0,0c-27.058,0-48.988-9.118-48.988-20.35v-35.975c0-11.235,21.93-20.349,48.988-20.349l0,0
	c27.056,0,48.987,9.114,48.987,20.349V396.094z"/>
<path id="PRIMARY_8_" fill="#666666" stroke="#231F20" stroke-width="3.1336" stroke-miterlimit="10" d="M329.914,346.011
	c0,6.908-11.321,12.512-25.284,12.512l0,0c-13.963,0-25.284-5.604-25.284-12.512v-22.104c0-6.907,11.321-12.508,25.284-12.508l0,0
	c13.963,0,25.284,5.601,25.284,12.508V346.011z"/>
<path stroke="#231F20" stroke-width="3.1336" stroke-miterlimit="10" d="M341.84,403.53c-5.161,2.157-8.441,5.992-7.327,8.562
	c0.012,0.03,0.04,0.052,0.056,0.082c7.573-2.437,13.376-5.768,16.484-9.621C348.84,401.773,345.373,402.053,341.84,403.53z"/>
<path stroke="#231F20" stroke-width="3.1336" stroke-miterlimit="10" d="M348.469,383.708c-0.073,5.513,2.167,10.009,5.013,10.049
	c0.043,0,0.09-0.024,0.136-0.024v-19.909C350.836,373.933,348.543,378.29,348.469,383.708z"/>
<path stroke="#231F20" stroke-width="3.1336" stroke-miterlimit="10" d="M317.599,409.641c-5.556,0.746-9.747,3.596-9.364,6.365
	c0.019,0.128,0.093,0.236,0.127,0.358c7.194-0.225,13.96-1.083,19.953-2.464c0.019-0.197,0.065-0.397,0.037-0.595
	C327.969,410.532,323.154,408.895,317.599,409.641z"/>
<path stroke="#231F20" stroke-width="3.1336" stroke-miterlimit="10" d="M293.457,409.455c-5.553-0.771-10.375,0.85-10.773,3.617
	c-0.059,0.409,0.011,0.816,0.141,1.223c5.997,1.244,12.685,1.984,19.771,2.105c0.068-0.179,0.164-0.349,0.191-0.54
	C303.185,413.09,299.008,410.227,293.457,409.455z"/>
<path stroke="#231F20" stroke-width="3.1336" stroke-miterlimit="10" d="M269.4,403.624c-4.522-2.127-9.051-2.245-10.843-0.449
	c3.463,3.865,9.646,7.176,17.622,9.524c0.044-0.073,0.117-0.128,0.154-0.203C277.562,409.971,274.457,406.003,269.4,403.624z"/>
<path id="PRIMARY_10_" fill="#666666" stroke="#231F20" stroke-width="3.1336" stroke-miterlimit="10" d="M334.654,365.25
	c0,6.298-13.441,11.408-30.024,11.408l0,0c-16.583,0-30.025-5.109-30.025-11.408v-20.152c0-6.298,13.441-11.405,30.025-11.405l0,0
	c16.583,0,30.024,5.106,30.024,11.405V365.25z"/>
</svg>
