<?xml version="1.0" encoding="utf-8"?>
<!-- Generator: Adobe Illustrator 16.0.0, SVG Export Plug-In . SVG Version: 6.00 Build 0)  -->
<svg version="1.1" id="Layer_1" xmlns="http://www.w3.org/2000/svg" xmlns:xlink="http://www.w3.org/1999/xlink" x="0px" y="0px"
	 width="612px" height="792px" viewBox="0 0 612 792" enable-background="new 0 0 612 792" xml:space="preserve">
<rect x="176.231" y="272.577" fill-opacity="0" fill="#231F20" width="255.538" height="248.354"/>
<path id="PRIMARY_7_" fill="#666666" stroke="#231F20" stroke-width="3.1652" stroke-miterlimit="10" d="M425.915,386.286
	c-32.306,41.563-52.281,131.681-111.662,133.793c-81.433,2.894-50.846-71.71-50.846-112.708c0-40.991,36.009-74.226,80.422-74.226
	C388.243,333.146,451.012,353.998,425.915,386.286z"/>
<path id="PRIMARY_6_" fill="#666666" stroke="#231F20" stroke-width="3.1652" stroke-miterlimit="10" d="M408.601,425.849
	c20.088,27.133-39.389,13.577-65.979-7.133c-19.366-15.091-20.314-51.726-9.933-64.823c20.969-26.455,75.269-46.242,65.024-14.008
	C385.218,379.205,398.558,412.277,408.601,425.849z"/>
<path id="PRIMARY_5_" fill="#666666" stroke="#231F20" stroke-width="3.1652" stroke-miterlimit="10" d="M366.868,426.717
	c18.146,28.491-40.236,10.755-65.313-11.784c-18.268-16.425-16.652-53.037-5.379-65.368c22.759-24.906,78.314-40.8,65.842-9.371
	C346.806,378.533,357.804,412.47,366.868,426.717z"/>
<path id="PRIMARY_4_" fill="#666666" stroke="#231F20" stroke-width="3.1652" stroke-miterlimit="10" d="M349.831,434.588
	c29.675,15.915-29.866,29.201-62.688,21.889c-23.918-5.328-40.304-38.053-36.465-54.358c7.747-32.931,48.469-74.148,52.871-40.598
	C308.915,402.447,335,426.63,349.831,434.588z"/>
<path stroke="#231F20" stroke-width="3.1652" stroke-miterlimit="10" d="M338.678,510.307c-0.092,5.439-13.567,9.596-30.116,9.279
	s-29.896-4.975-29.824-10.417c0.091-5.442,13.571-9.595,30.118-9.282C325.402,500.203,338.749,504.867,338.678,510.307z"/>
</svg>
