<?xml version="1.0" encoding="utf-8"?>
<!-- Generator: Adobe Illustrator 16.0.0, SVG Export Plug-In . SVG Version: 6.00 Build 0)  -->
<svg version="1.1" id="Layer_1" xmlns="http://www.w3.org/2000/svg" xmlns:xlink="http://www.w3.org/1999/xlink" x="0px" y="0px"
	 width="612px" height="792px" viewBox="0 0 612 792" enable-background="new 0 0 612 792" xml:space="preserve">
<rect x="179" y="311.248" fill-opacity="0" fill="#231F20" width="256" height="172"/>
<path id="SECONDARY_4_" fill="#00BC03" d="M263.303,402.296v-14.992c0-5.137,3.592-9.3,8.024-9.3s8.025,4.163,8.025,9.3v23.129
	C272.476,408.245,266.941,405.471,263.303,402.296z"/>
<path id="SECONDARY_3_" fill="#00BC03" d="M287.691,413.695v-24.6c0-6.125,3.593-11.091,8.024-11.091
	c4.429,0,8.022,4.966,8.022,11.091v26.351C298.074,415.153,292.697,414.549,287.691,413.695z"/>
<path id="SECONDARY_2_" fill="#00BC03" d="M313.237,415.363v-26.044c0-6.25,3.593-11.315,8.025-11.315
	c4.429,0,8.021,5.064,8.021,11.315v24.534C324.25,414.626,318.87,415.142,313.237,415.363z"/>
<path id="SECONDARY_1_" fill="#00BC03" d="M339.396,410.431v-22.963c0-5.227,3.592-9.464,8.024-9.464
	c4.429,0,8.021,4.237,8.021,9.464v14.825C351.803,405.468,346.271,408.242,339.396,410.431z"/>
<path id="SECONDARY" fill="#00BC03" d="M275.694,387.693c-3.716,2.411-8.685,1.353-11.099-2.362l-4.339-6.674v-0.381
	c0.382-1.029,0.642-2.076,0.642-3.149v-20.429c0.293-0.761,0.716-1.504,1.201-2.236c0.436,0.413,0.833,0.873,1.176,1.398
	l14.784,22.748C280.469,380.319,279.411,385.282,275.694,387.693z"/>
</svg>
