<?xml version="1.0" encoding="utf-8"?>
<!-- Generator: Adobe Illustrator 16.0.0, SVG Export Plug-In . SVG Version: 6.00 Build 0)  -->
<svg version="1.1" id="Layer_1" xmlns="http://www.w3.org/2000/svg" xmlns:xlink="http://www.w3.org/1999/xlink" x="0px" y="0px"
	 width="612px" height="792px" viewBox="0 0 612 792" enable-background="new 0 0 612 792" xml:space="preserve">
<rect x="263.5" y="357.651" fill-opacity="0" fill="#231F20" width="81" height="78.206"/>
<path id="PRIMARY_7_" fill="#666666" stroke="#231F20" stroke-miterlimit="10" d="M342.645,393.458
	c-10.24,13.088-16.572,41.466-35.395,42.131c-25.813,0.911-16.117-22.581-16.117-35.491c0-12.908,11.414-23.374,25.492-23.374
	S350.6,383.291,342.645,393.458z"/>
<path id="PRIMARY_6_" fill="#666666" stroke="#231F20" stroke-miterlimit="10" d="M337.156,405.916
	c6.367,8.544-12.485,4.275-20.914-2.246c-6.139-4.752-6.439-16.288-3.148-20.413c6.646-8.331,23.858-14.562,20.611-4.411
	C329.744,391.228,333.973,401.643,337.156,405.916z"/>
<path id="PRIMARY_5_" fill="#666666" stroke="#231F20" stroke-miterlimit="10" d="M323.928,406.189
	c5.752,8.972-12.754,3.387-20.703-3.711c-5.791-5.172-5.278-16.701-1.705-20.584c7.214-7.843,24.824-12.848,20.871-2.951
	C317.568,391.017,321.055,401.703,323.928,406.189z"/>
<path id="PRIMARY_4_" fill="#666666" stroke="#231F20" stroke-miterlimit="10" d="M318.527,408.668
	c9.406,5.012-9.467,9.195-19.871,6.893c-7.582-1.678-12.775-11.982-11.559-17.117c2.456-10.37,15.364-23.349,16.759-12.784
	C305.558,398.547,313.826,406.162,318.527,408.668z"/>
<path stroke="#231F20" stroke-miterlimit="10" d="M314.992,432.512c-0.029,1.713-4.301,3.021-9.546,2.922s-9.476-1.566-9.454-3.28
	c0.029-1.714,4.302-3.021,9.547-2.923C310.784,429.33,315.015,430.799,314.992,432.512z"/>
</svg>
