<?xml version="1.0" encoding="utf-8"?>
<!-- Generator: Adobe Illustrator 16.0.0, SVG Export Plug-In . SVG Version: 6.00 Build 0)  -->
<svg version="1.1" id="Layer_1" xmlns="http://www.w3.org/2000/svg" xmlns:xlink="http://www.w3.org/1999/xlink" x="0px" y="0px"
	 width="612px" height="792px" viewBox="0 0 612 792" enable-background="new 0 0 612 792" xml:space="preserve">
<rect x="260.5" y="371.004" fill-opacity="0" fill="#231F20" width="81" height="54.487"/>
<path id="SECONDARY_4_" fill="#00BC03" d="M285.672,399.884v1.962c1.152,1.006,2.902,1.885,5.078,2.578v-1.58
	C288.45,402.088,286.675,401.064,285.672,399.884z"/>
<path id="SECONDARY_3_" fill="#00BC03" d="M293.949,403.657v1.851c1.593,0.245,3.295,0.408,5.078,0.479V404.2
	C297.229,404.141,295.521,403.953,293.949,403.657z"/>
<path id="SECONDARY_2_" fill="#00BC03" d="M302.032,404.18v1.833c1.792-0.093,3.493-0.284,5.077-0.555v-1.915
	C305.546,403.871,303.839,404.093,302.032,404.18z"/>
<path id="SECONDARY_1_" fill="#00BC03" d="M309.748,402.845v1.58c2.176-0.693,3.927-1.572,5.078-2.578v-1.961
	C313.823,401.066,312.048,402.088,309.748,402.845z"/>
<path id="SECONDARY" fill="#00BC03" d="M317.587,391.24v-6.472c-0.093-0.241-0.227-0.477-0.38-0.708
	c-0.138,0.131-0.264,0.276-0.372,0.443l-1.085,1.671v8.987c0.256-0.181,0.485-0.409,0.667-0.688l1.373-2.114v-0.121
	C317.669,391.912,317.587,391.58,317.587,391.24z"/>
</svg>
