<?xml version="1.0" encoding="utf-8"?>
<!-- Generator: Adobe Illustrator 16.0.0, SVG Export Plug-In . SVG Version: 6.00 Build 0)  -->
<svg version="1.1" id="Layer_1" xmlns="http://www.w3.org/2000/svg" xmlns:xlink="http://www.w3.org/1999/xlink" x="0px" y="0px"
	 width="612px" height="792px" viewBox="0 0 612 792" enable-background="new 0 0 612 792" xml:space="preserve">
<rect x="192" y="268.664" fill-opacity="0" fill="#231F20" width="230" height="256"/>
<path id="SECONDARY_4_" fill="#00BC03" d="M338.938,383.066c7.604,2.901,8.461,6.365,6.123,10.012
	c-0.585,0.911-1.37,1.836-2.302,2.766c-1.575,0.655-3.313,1.058-5.163,1.291c-1.877,0.105-3.924-0.37-6.228-1.295
	c-5.843-2.829-10.474-8.207-19.738-10.897c-2.313,4.034,0,8.069,2.318,12.103c0.579,1.008,1.025,1.977,1.081,2.844
	c-1.697,0.594-3.704,0.891-5.291,1.713c-1.369,1.081-2.337,1.716-3.578,2.469c0.839-0.302-8.421,15.832,0.839-0.302
	c0-2.688,13.896,2.689,18.183-2.788c0.172-0.846,0.258-1.719,0.302-2.604c0.042-0.885,0.042-1.78,0.042-2.677
	c5.21,0,4.559,2.554,4.77,4.825c0.02,0.744,0.136,1.458,0.13,1.934c8.996,6.69,4.365,9.378-4.899,9.378
	c9.265,0,13.896,0,18.526,5.38c-4.631-2.693-4.631-5.38-9.262-5.38c-13.896,2.687-27.791,16.137-41.685,5.38
	c0,0.672,0,1.343,0,2.015c0,2.019,0,4.034,0,6.053c1.391,0,3.024-0.037,5.295,0.276c17.867,5.104,27.125-13.724,41.021-5.657
	c0,2.69,4.631,8.07-2.316,10.156c0.347,0.839,0.951,1.611,1.521,2.451c0.507,1.008,0.796,2.187,0.796,3.53c0-2.019,0-4.034,0-6.049
	c0.088-0.729,0.554-1.669,1.075-2.682c0.843,0.89,2.344,1.321,3.702,1.797c10.13,2.938,13.169,7.941,9.117,15.001
	c-4.634,5.377-23.156,5.377-30.586,10.852c-0.896,0.588-2.564,1.02-6.386,1.318c-2.326-0.237-4.397-0.207-6.228,0.028
	c-1.833,0.232-3.428,0.675-4.809,1.269c-1.524-0.003-3.124-0.064-4.736-0.157c-0.707-0.638-1.241-1.62-1.784-2.692
	c-0.542-1.075-1.097-2.239-1.853-3.242c0.804-1.998,0.804-1.998-5.74-1.908c-1.505-0.067-2.72-0.09-2.72-0.09
	c-0.77,0.447-1.287,1.047-1.608,1.758c-1.607,3.549,1.608,9.897,1.608,14.379c0-2.689,0-8.066,9.265-5.377c0,0,0,2.688-0.069,3.141
	c1.719,0.28,3.436,0.678,5.108,1.137c5.025,1.38,9.673,3.364,12.942,4.722c0.868,0.72,1.569,1.111,2.174,1.185
	c1.201-0.022,2.229,0.126,3.001,0.57c2.315,4.037,0,6.725-4.052,8.403c-1.353,0.563-2.895,1.014-4.525,1.36
	c-0.571-5.892-7.099-10.611-14.622-13.575c-1.503-0.594-3.045-1.114-4.591-1.565c-0.836-0.392-2.573,1.195-3.604,2.69
	c-2.056,2.989-4.115,7.171-10.289,5.38c-1.737-0.675-3.187-1.431-4.361-2.245c-0.991-0.809-0.736-1.688,1.57-2.749
	c2.791-3.076,12.052-5.766,12.052-8.453c0-8.067-9.261-10.76-23.155-10.76c1.93-2.799,4.06-4.669,6.339-5.854
	c1.14-0.596,2.401-0.945,4.95-0.285c1.316,0.059,2.644,0.204,3.978,0.403c1.405,0.249,3.053,0.738,5.188,1.59
	c7.332,4.146,21.226,4.146,36.731,4.744c2.047,0.045,4.061,0.025,6.013-0.078c9.744-0.521,17.852-3.208,20.164-11.275
	c-3.474,0.672-7.237,1.344-11.069,1.848c-1.919,0.252-3.769,0.33-5.063-0.767c-1.58-2.061-4.212-3.656-7.396-5.011
	c-1.062-0.456-2.182-0.882-3.344-1.293c8.35-0.157-0.915-8.224,8.35-8.224c-9.265,0-23.16,8.066-32.825,0.05
	c-1.951-0.722-3.521-1.354-4.987-2.217c-1.411-0.817-2.715-1.867-3.873-3.214c1.158,0,2.617,0.039,4.251,0.132
	c5.014,5.249,14.274,2.559,18.905,2.559c-9.262,8.07-13.891,0-17.908-4c-1.646-1.377-2.162-1.377-0.617,1.31
	c0,1.347,0.436,2.354,1.215,3.11c0.844,0.812,2.128,1.486,3.983,2.208c8.696,10.819,27.222-8.005,36.487,5.442
	c0-2.69,0-8.07-4.631-8.07c-13.893,0-32.42,5.38-37.054-5.377c9.263,8.067,32.42,5.377,32.42-5.38
	c-4.631,8.066-18.526,16.137-31.594,9.223c-1.952-0.534-3.722-0.817-5.458-1.156c1.158,0.672,2.317,1.26,3.483,1.777
	c1.205,0.558,2.421,1.045,3.891,1.75c11.151,4.543,20.419,4.543,29.678,1.854c-9.259,0-23.157,0-32.42,0c0-0.672,0-1.344,0-2.019
	c0-1.344,0-2.69,0-4.034c0-0.672,0-1.343,0-2.015c4.634,8.067,23.162,5.377,27.79,0c-4.628,8.067-13.896,5.377-24.273,3.319
	c-1.633-0.437-3.16-0.717-4.476-0.269c-1.284,0.56-2.514,1.318-3.671,2.326c1.736,0.339,3.644,0.579,5.706,0.792
	c12.819,4.588,22.087-0.792,35.979-0.792c4.631,0,4.631,5.38,4.631,8.07c-9.265-8.07-27.791,2.687-38.291-5.591
	c-1.116-0.515-2.003-1.103-2.651-1.813c-0.647-0.708-1.065-1.548-1.206-2.544c-0.136-1,0-2.156,0.463-3.499
	c4.634,5.377,13.894,5.377,23.162,5.377c-9.268,0-18.528,0-21.638-4.319c-2.553-1.657-4.611-1.953-6.155-1.058
	c-1.156,3.358,0.292,5.377,3.086,6.682c1.4,0.651,3.182,1.164,5.217,1.604c5.59,7.849,24.117-5.599,22.544,7.905
	c0.71,0.397,1.896,0.772,3.078,1.158c3.646,1.153,7.189,2.374,10.595,3.779c1.079,0.613,2.421,0.534,3.802,0.42
	c4.287-0.582,8.411,0.302,11.885,5.344c-5.557,0.806-11.113,1.855-16.671,2.785c-1.852,0.308-3.704,0.602-5.557,0.873
	c-21.438,4.563-32.922-0.476-43.009-8.117c-1.123-0.849-2.225-1.73-3.323-2.632c-10.172-3.667-10.172-9.044-13.485-10.838
	c-1.318-1.047-2.478-0.672-3.635-0.225c-3.473,1.344-6.948,3.362-11.579,4.709c0-6.539,5.131-9.104,11.371-10.234
	c1.249-0.224,2.543-0.397,3.662,0.185c-1.137,7.359,12.757,7.359,11.885,15.852c0.951,1.056,1.998,2.114,3.157,3.149
	c9.275,8.28,22.927,13.839,44.194,8.37c1.628-0.46,3.239-0.963,4.828-1.498c4.777-1.599,9.364-3.454,13.532-5.069
	c-3.86,2.242-7.718,4.484-14.259,5.167c-1.215,0.084-2.119-0.173-2.513-0.912c-1.755-1.564,2.879-1.564,7.51-2.236
	c1.735,0,3.472,0.168,5.063,0.336c1.592,0.168,3.04,0.336,4.199,0.336c-3.705,1.077-7.41,1.937-11.104,2.572
	c-1.85,0.318-3.671,0.565-5.427,0.738c-20.848,1.45-31.644-0.755-39.42-6.818c-1.003-0.84-1.944-1.758-1.936-2.581
	c-2.607-4.775,0.973-6.25,5.979-6.79c1.669-0.18,3.495-0.258,5.305-0.319c1.637-0.084,3.763,0.159,6.034,0.324
	c1.138,0.079,2.321,0.144,3.56,0.146c4.587-0.716,9.224-0.716,13.852-3.406c-4.628,0-13.896,0-18.548,0.165
	c-1.656-0.347-3.169-0.672-4.485-0.851c-1.238-0.141-2.543-0.303-3.952-0.498c-1.886,0.123-3.634,0.137-5.09-0.112
	c-2.918-0.498-4.975-2.29-4.975-6.774c0,5.381,4.629,8.07,9.26,10.761c-23.155,0-18.526-13.447-20.141-20.241
	c-2.332-0.249-4.351-0.759-5.822-1.671c-1.47-0.91-2.389-2.22-2.521-4.064c-1.238-0.039-2.414-0.185-3.499-0.54
	c-2.173-0.714-3.909-2.394-5.068-5.758c0-2.689,1.544-4.48,3.764-5.776c1.109-0.646,2.391-1.17,3.73-1.618
	c0.919,0.391,1.859,0.79,2.812,1.185c0.953,0.395,1.916,0.786,2.948,1.558c0.642,1.963,19.167,1.963,5.271,7.345
	c1.546,0.896,3.087,1.567,4.634,2.041c1.456,0.523,2.909,0.848,4.062,1.195c9.83-0.549,14.464-3.236,18.974-5.924
	c-2.08-0.254-3.992-0.579-5.685-0.963c-11.957-2.688-13.202-8.369-12.506-13.665c0.131-1.009,0.55-2.052,2.748-3.544
	c6.299-3.346,6.299-8.725,6.299-11.415c-9.26,2.69-4.631,13.449-16.947,13.932c-0.775,0.947-1.239,1.903-1.425,2.85
	c-1.148,5.795,8.018,11.251,18.472,12.523c1.493,0.182,3.011,0.277,4.534,0.277c0,2.692-4.634,2.692-7.387,2.482
	c-1.926,0.227-4.194,0.21-6.507,0.21c-9.266-2.692-13.895-8.07-13.662-13.276c-0.188-1.045-0.52-1.702-0.839-2.372
	c-0.577-1.23-0.947-2.473-1.186-3.692c6.421-2.175,6.421-4.865,6.421-7.555c0-2.688-9.26-2.688-13.893-2.688
	c4.632,0,18.526-2.69,18.526,5.378c0,5.38-13.894,0-10.18,5.783c0.295,1.124,0.661,2.211,1.146,3.254
	c-0.23,4.409-0.23,9.787,13.665,12.476c-13.895-2.689-13.895-8.067-13.573-12.99c-0.53-1.061-0.904-2.154-1.123-3.264
	c28.59-5.259-3.83-16.017,10.064-24.085c2.314-1.345,5.787-1.345,9.842-1.111c1.349,0.077,2.765,0.181,4.22,0.269
	c3.347,0.633,9.395,0.791,14.162,0.832c1.589,0.011,3.205,0.091,4.949,0.337c3.88-0.326,3.88-0.326,8.508-0.326
	c-9.265,2.69-9.265-8.067-19.808-6.615c-0.186,0.508,0.013,1.387-0.104,2.208c-0.225,1.649-1.835,2.923-9.683,1.436
	c-2.089,0.037-3.921,0.193-5.536,0.451c-11.329,1.807-12.341,8.571-20.445,13.276c-4.632-2.688-9.265-5.378-11.897-8.113
	c-0.326-1.171,0.261-3.045-0.286-3.759c1.818-0.35,1.869,0.365,2.777-1.267c0.269-1.204,0.141-2.099,0.141-2.995
	c0.58-1.009,1.302-1.975,2.152-2.892c0.853-0.915,1.833-1.776,2.912-2.558c0.7,0.908,1.541,1.815,2.499,2.694
	c0.775,0.919,1.119,1.955,0.164,3.408c1.539,2.038-3.093,2.038-3.093,4.725c11.579,2.242,19.942-2.988,27.769-4.792
	c1.605-0.298,3.19-0.46,5.177,0.167c0,0-1.464-1.037-3.053-1.931c-1.371-0.509-2.953-0.851-3.802-0.19
	c-1.866-0.558-3.498-1.212-4.933-1.944c-8.607-4.392-9.162-11.375-0.972-15.095c0.183-0.855,0.729-1.729,1.78-2.624
	c1.048-0.898,2.599-1.822,4.786-2.781c1.146-1.199,1.036-2.183,1.036-3.079c2.317,0,4.117,0.298,5.556,0.808
	c-0.925,1.881-0.925,1.881-2.752,4.924c-0.821,0.496-1.522,1.081-2.189,1.878c-0.207,5.531,0.175,7.426,0.8,7.52
	c0.632,0.095,1.844-0.696,2.597-1.486c9.883-2.886,5.253-8.266,3.502-10.809c-0.111-1.701-1.338-2.386-2.883-2.834
	c1.161,0.222,1.945,0.648,2.368,1.306c4.598,2.715,2.012,6.011,1.152,8.701c-0.433,1.346-0.433,2.542,1.113,3.439
	c4.629,5.378,9.26,10.757,23.156,13.447c-18.526-2.69-27.79-16.136-11.012-25.017c-0.094-0.963-0.768-1.788-2.218-2.484
	c-1.564-0.646-3.908-1.166-7.335-1.52c-2.146-0.048-3.917-0.108-5.367-0.182c-15.943-0.808,7.405-3.068,7.405-3.068
	c0.928-1.076,1.994-1.884,3.151-2.454c3.659-1.79,8.268-1.227,12.488,0.721c1.284,0.631,2.523,1.414,2.235,2.193
	c0.163,0.556-0.006,1.31-0.277,2.169c-0.444,0.9-0.999,1.902-1.986,3.034c-1.713,5.092-6.35,5.092-10.98,7.78
	c9.268,0,13.896-10.755,27.791-2.688c-4.631,0-23.16-2.688-18.523,5.38c9.259,5.378,27.785,5.378,27.785,13.446
	c-4.631,5.38-13.893,10.757-28.246,11.842c-1.328,0.514-2.729,1.044-4.176,1.604c-0.721,0.585-0.28,1.078,1.12,1.751
	c1.403,0.673,2.867,0.799,4.442,0.732c3.15-0.132,7.038-0.77,9.982-0.552c1.021,0.259,1.725,0.858,1.938,2.172
	c0.13,1.504,0.532,2.906,1.167,4.197c0.156,0.64,0.006,1.27-1.309,1.974c-0.859,0.791-1.797,1.556-2.789,2.296
	c-0.607,0.385-1.432,0.769-2.59,1.186c-0.901,0.795-3.042,1.023-5.558,0.985c-0.887-1.993-3.644-2.988-6.181-3.486
	S307,374.186,307,374.186c-1.195,1.339-0.907,2.011,0.183,2.347c3.15,0.99,13.155-1.103,11.478,2.627
	c1.506,0.305,2.551-0.175,3.686-0.57c2.269-0.785,4.896-1.216,8.072-0.966c2.944-0.204,4.747-0.397,6.416-0.505
	c6.675-0.431,13.08,0.726,18.945,4.386c1.633,0.645,2.878,0.896,4.146,1.159c0.898-0.106,1.785-0.242,2.65-0.409
	c-0.768,0.447-1.669,1.042-2.689,1.695c-0.538,0.247-1.358,0.137-2.599-0.428c-1.785-0.665-3.671-1.237-5.604-1.713
	c-1.936-0.476-3.916-0.858-5.89-1.145c-5.865-0.412-12.789-0.67-18.9-0.263c-2.041,0.134-3.99,0.343-5.782,0.647
	c-3.635,2.921-4.545-3.911-8.679-4.106c-0.69-0.034-1.47,0.119-2.366,0.53c-3.066,2.094-12.327,2.094-12.327,7.471
	c9.26-2.687,18.528,2.69,26.175,1.125c0.502-0.318,0.671-0.955,1.043-1.596c0.745-1.28,3.149-2.158,9.067-2.127
	C335.667,382.45,337.33,382.7,338.938,383.066z"/>
<ellipse fill="none" stroke="#231F20" stroke-width="2.8529" stroke-miterlimit="10" cx="304.87" cy="291.887" rx="7.099" ry="7.166"/>
<ellipse fill="none" stroke="#231F20" stroke-width="2.8529" stroke-miterlimit="10" cx="304.87" cy="502.965" rx="7.099" ry="7.166"/>
</svg>
