<?xml version="1.0" encoding="utf-8"?>
<!-- Generator: Adobe Illustrator 16.0.0, SVG Export Plug-In . SVG Version: 6.00 Build 0)  -->
<svg version="1.1" id="Layer_1" xmlns="http://www.w3.org/2000/svg" xmlns:xlink="http://www.w3.org/1999/xlink" x="0px" y="0px"
	 width="612px" height="792px" viewBox="0 0 612 792" enable-background="new 0 0 612 792" xml:space="preserve">
<rect x="265.5" y="368.933" fill-opacity="0" fill="#231F20" width="81" height="54.487"/>
<path id="PRIMARY_50_" fill="#02007A" stroke="#231F20" stroke-miterlimit="10" d="M316.959,388.149
	c0.992,1.857,1.92,4.315,2.601,7.077c1.565,6.346,1.24,11.883-0.726,12.367c-1.69,0.417-4.041-3.04-5.662-8.048
	C315.221,396.804,316.629,392.762,316.959,388.149z"/>
<path id="PRIMARY_49_" fill="#02007A" stroke="#231F20" stroke-miterlimit="10" d="M306.875,403.257
	c1.257,0,2.455-0.403,3.565-1.108c-0.382,5.22-1.831,9.108-3.565,9.108c-1.733,0-3.183-3.889-3.564-9.108
	C304.422,402.854,305.619,403.257,306.875,403.257z"/>
<path id="PRIMARY_48_" fill="#02007A" stroke="#231F20" stroke-miterlimit="10" d="M294.44,395.544
	c0.638-2.586,1.493-4.897,2.413-6.708c0.434,4.507,1.897,8.417,3.975,11.026c-1.621,5.009-3.972,8.467-5.662,8.049
	C293.2,407.427,292.875,401.89,294.44,395.544z"/>
</svg>
