<?xml version="1.0" encoding="utf-8"?>
<!-- Generator: Adobe Illustrator 16.0.0, SVG Export Plug-In . SVG Version: 6.00 Build 0)  -->
<svg version="1.1" id="Layer_1" xmlns="http://www.w3.org/2000/svg" xmlns:xlink="http://www.w3.org/1999/xlink" x="0px" y="0px"
	 width="612px" height="792px" viewBox="0 0 612 792" enable-background="new 0 0 612 792" xml:space="preserve">
<rect x="191" y="262.987" fill="#231F20" fill-opacity="0" width="230" height="255.213"/>
<path id="SECONDARY_15_" fill="#7CD5FF" stroke="#231F20" stroke-width="2.8485" stroke-miterlimit="10" d="M366.381,263.77
	c6.328,22.797,11.472,47.455,15.044,73.39c17.358,126.095-79.895,213.752-93.098,165.308c-0.892-3.287-1.491-7.3-1.919-11.949
	c-0.423-4.657-0.677-9.951-0.883-15.816c-0.202-5.874-2.422-12.703-0.582-19.249c-2.396-6.814-7.448-15.583-1.043-22.235
	c-7.714-7.026-11.491-16.174-2.239-24.788c-11.736-5.229-12.988-17.088-4.188-26.898c-12.466-4.849-20.618-17.319-6.884-28.563
	c-17.851-1.817-32.636-17.274-10.326-29.792c-26.649,3.023-42.048-9.124-14.51-30.579c-29.307,16.477-39.016-5.514-21.12-28.82"/>
<path id="PRIMARY_15_" fill="#02007A" stroke="#231F20" stroke-width="2.8485" stroke-miterlimit="10" d="M366.551,263.192
	c6.241,22.62,11.33,47.067,14.865,72.762c5.701,41.385-0.951,78.622-12.922,108.269c-2.992,7.412-6.378,14.332-9.866,20.756
	c-4.138,6.185-7.432,13.429-11.205,17.592c-5.721-9.365-2.344-16.285,8.216-19.913c-6.547-8.042,1.275-15.624,6.372-22.135
	c-1.946-7.958-1.045-16.841,4.057-24.121c-3.544-8.07-2.595-17.768,1.243-25.866c-4.335-8.356-12.474-19.772-2.053-27.378
	c-13.983-9.431-35.979-25.355-6.272-36.872c-31.653,3.544-24.338-20.265-8.229-34.656c-18.141,0.741-24.181-16.534-13.729-28.437"/>
<ellipse fill="none" stroke="#231F20" stroke-width="2.8485" stroke-miterlimit="10" cx="306" cy="286.341" rx="7.099" ry="7.144"/>
<ellipse fill="none" stroke="#231F20" stroke-width="2.8485" stroke-miterlimit="10" cx="306" cy="496.769" rx="7.099" ry="7.144"/>
</svg>
