<?xml version="1.0" encoding="utf-8"?>
<!-- Generator: Adobe Illustrator 16.0.0, SVG Export Plug-In . SVG Version: 6.00 Build 0)  -->
<svg version="1.1" id="Layer_1" xmlns="http://www.w3.org/2000/svg" xmlns:xlink="http://www.w3.org/1999/xlink" x="0px" y="0px"
	 width="612px" height="792px" viewBox="0 0 612 792" enable-background="new 0 0 612 792" xml:space="preserve">
<rect x="265.5" y="345.937" fill-opacity="0" fill="#231F20" width="81" height="89.313"/>
<path id="SECONDARY_15_" fill="#7CD5FF" stroke="#231F20" stroke-miterlimit="10" d="M327.265,346.211
	c2.228,7.978,4.04,16.607,5.297,25.683c6.114,44.127-28.136,74.803-32.786,57.85c-0.314-1.15-0.525-2.555-0.676-4.182
	c-0.149-1.629-0.238-3.482-0.311-5.535c-0.071-2.055-0.853-4.445-0.205-6.736c-0.844-2.385-2.623-5.453-0.367-7.781
	c-2.717-2.459-4.047-5.66-0.789-8.675c-4.133-1.83-4.574-5.98-1.475-9.413c-4.39-1.697-7.261-6.061-2.424-9.996
	c-6.287-0.636-11.494-6.045-3.637-10.426c-9.385,1.058-14.808-3.193-5.11-10.701c-10.321,5.766-13.74-1.93-7.438-10.086"/>
<path id="PRIMARY_15_" fill="#02007A" stroke="#231F20" stroke-miterlimit="10" d="M327.324,346.009
	c2.198,7.916,3.99,16.471,5.236,25.463c2.007,14.483-0.335,27.514-4.551,37.889c-1.054,2.594-2.246,5.016-3.475,7.264
	c-1.457,2.164-2.617,4.699-3.946,6.156c-2.015-3.277-0.825-5.699,2.893-6.969c-2.305-2.814,0.45-5.467,2.245-7.746
	c-0.686-2.785-0.369-5.893,1.428-8.441c-1.248-2.824-0.914-6.218,0.438-9.052c-1.527-2.924-4.393-6.919-0.723-9.581
	c-4.925-3.3-12.671-8.873-2.209-12.903c-11.147,1.24-8.571-7.092-2.898-12.128c-6.389,0.259-8.516-5.786-4.835-9.952"/>
<circle fill="none" stroke="#231F20" stroke-miterlimit="10" cx="306" cy="354.11" r="2.5"/>
<circle fill="none" stroke="#231F20" stroke-miterlimit="10" cx="306" cy="427.75" r="2.5"/>
</svg>
