<?xml version="1.0" encoding="utf-8"?>
<!-- Generator: Adobe Illustrator 16.0.0, SVG Export Plug-In . SVG Version: 6.00 Build 0)  -->
<svg version="1.1" id="Layer_1" xmlns="http://www.w3.org/2000/svg" xmlns:xlink="http://www.w3.org/1999/xlink" x="0px" y="0px"
	 width="612px" height="792px" viewBox="0 0 612 792" enable-background="new 0 0 612 792" xml:space="preserve">
<rect x="178" y="310.177" fill="#231F20" fill-opacity="0" width="256" height="172"/>
<path id="PRIMARY_59_" fill="#02007A" stroke="#231F20" stroke-width="3.1586" stroke-miterlimit="10" d="M340.766,369.223
	c2.148,3.339,4.259,7.619,6.166,12.579c-0.53,4.369-1.407,8.513-2.518,12.431c-1.837,3.587-3.371,7.604-4.605,11.917
	c-1.852,3.641-3.969,6.88-6.327,9.584c-1.303-3.197-2.519-6.681-3.611-10.393C335.957,396.368,340.024,383.61,340.766,369.223z"/>
<path id="PRIMARY_58_" fill="#02007A" stroke="#231F20" stroke-width="3.1586" stroke-miterlimit="10" d="M308.774,418.752
	c4.72,0,9.183-1.764,13.22-4.846c0.163,2.044,0.314,4.125,0.447,6.255c-4.056,3.116-8.547,4.904-13.29,4.904
	c-5.045,0-9.792-2.016-14.036-5.512c0.124-1.93,0.256-3.822,0.404-5.679C299.562,416.979,304.043,418.752,308.774,418.752z"/>
<path id="PRIMARY_57_" fill="#02007A" stroke="#231F20" stroke-width="3.1586" stroke-miterlimit="10" d="M277.173,369.317
	c0.79,14.998,5.174,28.234,11.701,37.23c-0.923,3.622-1.972,7.041-3.113,10.167c-1.839-1.949-3.549-4.196-5.111-6.715
	c-1.709-5.696-3.944-10.866-6.631-15.284c-1.165-4.003-2.073-8.254-2.633-12.736C273.141,376.953,275.125,372.642,277.173,369.317z"
	/>
</svg>
