<?xml version="1.0" encoding="utf-8"?>
<!-- Generator: Adobe Illustrator 16.0.0, SVG Export Plug-In . SVG Version: 6.00 Build 0)  -->
<svg version="1.1" id="Layer_1" xmlns="http://www.w3.org/2000/svg" xmlns:xlink="http://www.w3.org/1999/xlink" x="0px" y="0px"
	 width="612px" height="792px" viewBox="0 0 612 792" enable-background="new 0 0 612 792" xml:space="preserve">
<rect x="178" y="310.177" fill="#231F20" fill-opacity="0" width="256" height="172"/>
<path id="PRIMARY_50_" fill="#02007A" stroke="#231F20" stroke-width="3.1586" stroke-miterlimit="10" d="M340.635,370.835
	c3.137,5.862,6.068,13.621,8.22,22.341c4.948,20.033,3.92,37.512-2.294,39.039c-5.341,1.316-12.77-9.597-17.894-25.405
	C335.143,398.156,339.593,385.398,340.635,370.835z"/>
<path id="PRIMARY_49_" fill="#02007A" stroke="#231F20" stroke-width="3.1586" stroke-miterlimit="10" d="M308.766,418.527
	c3.973,0,7.759-1.273,11.268-3.496c-1.209,16.478-5.786,28.75-11.268,28.75c-5.477,0-10.061-12.275-11.264-28.75
	C301.012,417.254,304.796,418.527,308.766,418.527z"/>
<path id="PRIMARY_48_" fill="#02007A" stroke="#231F20" stroke-width="3.1586" stroke-miterlimit="10" d="M269.464,394.18
	c2.017-8.163,4.72-15.458,7.626-21.175c1.372,14.227,5.996,26.57,12.563,34.807c-5.124,15.812-12.554,26.728-17.895,25.408
	C265.546,431.69,264.519,414.211,269.464,394.18z"/>
</svg>
