<?xml version="1.0" encoding="utf-8"?>
<!-- Generator: Adobe Illustrator 16.0.0, SVG Export Plug-In . SVG Version: 6.00 Build 0)  -->
<svg version="1.1" id="Layer_1" xmlns="http://www.w3.org/2000/svg" xmlns:xlink="http://www.w3.org/1999/xlink" x="0px" y="0px"
	 width="612px" height="792px" viewBox="0 0 612 792" enable-background="new 0 0 612 792" xml:space="preserve">
<rect x="265.5" y="368.933" fill-opacity="0" fill="#231F20" width="81" height="54.487"/>
<path id="PRIMARY_56_" fill="#02007A" stroke="#231F20" stroke-miterlimit="10" d="M301.378,383.336
	c1.984,0.402,2.54,5.921,1.24,12.326c-0.367,1.808-0.848,3.474-1.387,4.949c-0.581-0.618-1.123-1.329-1.617-2.127
	c-0.54-1.805-1.248-3.443-2.097-4.842c-0.37-1.268-0.657-2.615-0.833-4.035C298.068,385.637,299.908,383.036,301.378,383.336z"/>
<path id="PRIMARY_55_" fill="#02007A" stroke="#231F20" stroke-miterlimit="10" d="M306.507,384.7c2.018,0,3.725,7.126,4.33,17.003
	c-1.283,0.988-2.703,1.554-4.205,1.554c-1.595,0-3.098-0.639-4.441-1.746C302.808,391.736,304.504,384.7,306.507,384.7z"/>
<path id="PRIMARY_54_" fill="#02007A" stroke="#231F20" stroke-miterlimit="10" d="M314.333,397.265
	c-0.586,1.153-1.256,2.18-2.002,3.036c-0.577-1.422-1.108-3.015-1.537-4.75c-1.564-6.346-1.24-11.883,0.727-12.367
	c1.493-0.368,3.501,2.29,5.067,6.368c-0.169,1.384-0.445,2.697-0.798,3.938C315.209,394.625,314.724,395.898,314.333,397.265z"/>
</svg>
