<?xml version="1.0" encoding="utf-8"?>
<!-- Generator: Adobe Illustrator 16.0.0, SVG Export Plug-In . SVG Version: 6.00 Build 0)  -->
<svg version="1.1" id="Layer_1" xmlns="http://www.w3.org/2000/svg" xmlns:xlink="http://www.w3.org/1999/xlink" x="0px" y="0px"
	 width="612px" height="792px" viewBox="0 0 612 792" enable-background="new 0 0 612 792" xml:space="preserve">
<rect x="265.5" y="368.933" fill-opacity="0" fill="#231F20" width="81" height="54.487"/>
<path id="PRIMARY_59_" fill="#02007A" stroke="#231F20" stroke-miterlimit="10" d="M317,387.638c0.68,1.058,1.348,2.414,1.951,3.985
	c-0.168,1.384-0.445,2.697-0.797,3.938c-0.581,1.136-1.066,2.409-1.457,3.775c-0.586,1.153-1.256,2.18-2.002,3.036
	c-0.412-1.013-0.797-2.116-1.142-3.292C315.479,396.237,316.766,392.196,317,387.638z"/>
<path id="PRIMARY_58_" fill="#02007A" stroke="#231F20" stroke-miterlimit="10" d="M306.878,403.328
	c1.493,0,2.905-0.558,4.183-1.535c0.051,0.647,0.099,1.307,0.141,1.981c-1.283,0.988-2.704,1.554-4.205,1.554
	c-1.596,0-3.098-0.639-4.441-1.746c0.039-0.611,0.081-1.211,0.128-1.799C303.963,402.767,305.381,403.328,306.878,403.328z"/>
<path id="PRIMARY_57_" fill="#02007A" stroke="#231F20" stroke-miterlimit="10" d="M296.879,387.668
	c0.25,4.751,1.637,8.944,3.702,11.794c-0.292,1.147-0.624,2.23-0.985,3.221c-0.582-0.618-1.123-1.329-1.617-2.127
	c-0.541-1.805-1.248-3.443-2.098-4.842c-0.369-1.268-0.656-2.615-0.833-4.035C295.603,390.087,296.231,388.721,296.879,387.668z"/>
</svg>
