<?xml version="1.0" encoding="utf-8"?>
<!-- Generator: Adobe Illustrator 16.0.0, SVG Export Plug-In . SVG Version: 6.00 Build 0)  -->
<svg version="1.1" id="Layer_1" xmlns="http://www.w3.org/2000/svg" xmlns:xlink="http://www.w3.org/1999/xlink" x="0px" y="0px"
	 width="612px" height="792px" viewBox="0 0 612 792" enable-background="new 0 0 612 792" xml:space="preserve">
<rect x="178" y="310.177" fill="#231F20" fill-opacity="0" width="256" height="172"/>
<path id="PRIMARY_56_" fill="#02007A" stroke="#231F20" stroke-width="3.1586" stroke-miterlimit="10" d="M291.392,355.642
	c6.27,1.269,8.028,18.691,3.919,38.911c-1.16,5.706-2.68,10.965-4.384,15.623c-1.836-1.951-3.549-4.195-5.111-6.714
	c-1.705-5.7-3.943-10.87-6.626-15.286c-1.17-4.003-2.077-8.255-2.633-12.738C280.931,362.907,286.747,354.696,291.392,355.642z"/>
<path id="PRIMARY_55_" fill="#02007A" stroke="#231F20" stroke-width="3.1586" stroke-miterlimit="10" d="M307.602,359.949
	c6.38,0,11.775,22.495,13.686,53.673c-4.056,3.12-8.543,4.905-13.29,4.905c-5.04,0-9.79-2.017-14.036-5.512
	C295.912,382.158,301.271,359.949,307.602,359.949z"/>
<path id="PRIMARY_54_" fill="#02007A" stroke="#231F20" stroke-width="3.1586" stroke-miterlimit="10" d="M332.336,399.611
	c-1.852,3.641-3.969,6.884-6.327,9.584c-1.823-4.488-3.503-9.516-4.857-14.994c-4.941-20.032-3.92-37.511,2.299-39.038
	c4.717-1.162,11.065,7.229,16.013,20.103c-0.534,4.368-1.407,8.513-2.521,12.431C335.104,391.279,333.571,395.297,332.336,399.611z"
	/>
</svg>
