<?xml version="1.0" encoding="utf-8"?>
<!-- Generator: Adobe Illustrator 16.0.0, SVG Export Plug-In . SVG Version: 6.00 Build 0)  -->
<svg version="1.1" id="Layer_1" xmlns="http://www.w3.org/2000/svg" xmlns:xlink="http://www.w3.org/1999/xlink" x="0px" y="0px"
	 width="612px" height="792px" viewBox="0 0 612 792" enable-background="new 0 0 612 792" xml:space="preserve">
<rect x="265.5" y="368.933" fill-opacity="0" fill="#231F20" width="81" height="54.487"/>
<path id="PRIMARY_53_" fill="#02007A" stroke="#231F20" stroke-miterlimit="10" d="M297.166,388.221
	c-0.992,1.857-1.919,4.315-2.6,7.077c-1.566,6.346-1.24,11.883,0.725,12.367c1.691,0.417,4.041-3.04,5.662-8.048
	C298.904,396.875,297.497,392.833,297.166,388.221z"/>
<path id="PRIMARY_52_" fill="#02007A" stroke="#231F20" stroke-miterlimit="10" d="M307.25,403.328
	c-1.256,0-2.454-0.403-3.564-1.108c0.381,5.22,1.83,9.108,3.564,9.108s3.184-3.889,3.564-9.108
	C309.704,402.925,308.506,403.328,307.25,403.328z"/>
<path id="PRIMARY_51_" fill="#02007A" stroke="#231F20" stroke-miterlimit="10" d="M319.686,395.615
	c-0.639-2.586-1.493-4.897-2.413-6.708c-0.434,4.507-1.897,8.417-3.976,11.026c1.621,5.009,3.973,8.467,5.662,8.049
	C320.926,407.498,321.25,401.961,319.686,395.615z"/>
</svg>
