<?xml version="1.0" encoding="utf-8"?>
<!-- Generator: Adobe Illustrator 16.0.0, SVG Export Plug-In . SVG Version: 6.00 Build 0)  -->
<svg version="1.1" id="Layer_1" xmlns="http://www.w3.org/2000/svg" xmlns:xlink="http://www.w3.org/1999/xlink" x="0px" y="0px"
	 width="612px" height="792px" viewBox="0 0 612 792" enable-background="new 0 0 612 792" xml:space="preserve">
<rect x="267.5" y="357.58" fill-opacity="0" fill="#231F20" width="81" height="78.207"/>
<path id="SECONDARY_14_" fill="#7CD5FF" stroke="#231F20" stroke-miterlimit="10" d="M282.746,435.477
	c0.617-1.525,2.131-3.334,4.786-5.391c-10.632,5.939-13.948-2.405-6.85-10.822c-9.212,6.204-14.515-0.627-8.85-10.791
	c-7.466,8.76-2.654-3.853-3.044-6.318c-0.436-2.403-0.32-5.046,0.258-7.75c2.314-10.819,12.049-22.645,23.66-24.254
	c16.054-2.226,33.512,26.351,40.934,65.404"/>
<path id="PRIMARY_14_" fill="#02007A" stroke="#231F20" stroke-miterlimit="10" d="M320.257,435.547
	c0.533-0.922,2.527-4.264,4.255-5.799c-7.06,0.287-8.94-7.135-3.5-11.199c-7.352-0.348-13.17-4.757-4.016-10.115
	c-10.456,3.221-15.122-1.238-4.441-8.873c-11.205,6.832-14.662,2.813-4.781-7.477c-10.17,9.928-12.865,5.977-5.033-5.926
	c-8.176,11.561-9.443,7.542-5.194-4.218c-5.054,11.252-5.616,7.379-5.272-2.355c-1.816,9.351-2.867,7.24-5.259-0.337
	c0.319,7.865-1.681,6.396-6.163,1.848c1.922,5.736-2.313,3.607-5.576,3.496c0.196,2.566-3.348,2.992-4.79,4.725
	c0.926-2.331,2.155-4.634,3.634-6.8c4.439-6.498,11.123-11.756,18.586-12.789c16.111-2.233,33.635,26.55,41.012,65.811"/>
</svg>
