<?xml version="1.0" encoding="utf-8"?>
<!-- Generator: Adobe Illustrator 16.0.0, SVG Export Plug-In . SVG Version: 6.00 Build 0)  -->
<svg version="1.1" id="Layer_1" xmlns="http://www.w3.org/2000/svg" xmlns:xlink="http://www.w3.org/1999/xlink" x="0px" y="0px"
	 width="612px" height="792px" viewBox="0 0 612 792" enable-background="new 0 0 612 792" xml:space="preserve">
<rect x="180.19" y="272.453" fill="#231F20" fill-opacity="0" width="255.619" height="248.461"/>
<path id="SECONDARY_14_" fill="#7CD5FF" stroke="#231F20" stroke-width="3.1664" stroke-miterlimit="10" d="M228.304,519.928
	c1.946-4.844,6.725-10.592,15.104-17.126c-33.554,18.869-44.018-7.642-21.618-34.382c-29.071,19.71-45.807-1.992-27.929-34.283
	c-23.561,27.833-8.375-12.239-9.606-20.07c-1.376-7.635-1.011-16.03,0.814-24.621c7.302-34.373,38.025-71.942,74.666-77.055
	c50.662-7.072,105.756,83.716,129.178,207.786"/>
<path id="PRIMARY_14_" fill="#02007A" stroke="#231F20" stroke-width="3.1664" stroke-miterlimit="10" d="M346.68,520.15
	c1.683-2.929,7.976-13.545,13.428-18.422c-22.278,0.912-28.211-22.667-11.045-35.58c-23.2-1.104-41.562-15.112-12.673-32.136
	c-32.997,10.235-47.722-3.931-14.016-28.189c-35.36,21.705-46.27,8.938-15.086-23.752c-32.096,31.541-40.6,18.988-15.884-18.826
	c-25.803,36.728-29.801,23.961-16.392-13.401c-15.949,35.747-17.722,23.442-16.637-7.482c-5.73,29.708-9.047,23.002-16.596-1.07
	c1.006,24.986-5.305,20.32-19.449,5.872c6.065,18.223-7.299,11.459-17.597,11.105c0.619,8.153-10.564,9.506-15.117,15.011
	c2.923-7.406,6.802-14.721,11.469-21.603c14.008-20.644,35.102-37.348,58.653-40.63c50.844-7.094,106.144,84.349,129.424,209.079"/>
</svg>
