<?xml version="1.0" encoding="utf-8"?>
<!-- Generator: Adobe Illustrator 16.0.0, SVG Export Plug-In . SVG Version: 6.00 Build 0)  -->
<svg version="1.1" id="Layer_1" xmlns="http://www.w3.org/2000/svg" xmlns:xlink="http://www.w3.org/1999/xlink" x="0px" y="0px"
	 width="612px" height="792px" viewBox="0 0 612 792" enable-background="new 0 0 612 792" xml:space="preserve">
<rect x="178" y="310.177" fill="#231F20" fill-opacity="0" width="256" height="172"/>
<path id="PRIMARY_53_" fill="#02007A" stroke="#231F20" stroke-width="3.1586" stroke-miterlimit="10" d="M278.08,371.063
	c-3.136,5.862-6.064,13.621-8.217,22.339c-4.949,20.032-3.918,37.511,2.292,39.04c5.344,1.316,12.771-9.597,17.895-25.404
	C283.572,398.381,279.126,385.622,278.08,371.063z"/>
<path id="PRIMARY_52_" fill="#02007A" stroke="#231F20" stroke-width="3.1586" stroke-miterlimit="10" d="M309.95,418.752
	c-3.969,0-7.756-1.273-11.264-3.499c1.204,16.48,5.784,28.753,11.264,28.753c5.481,0,10.063-12.275,11.266-28.753
	C317.707,417.479,313.92,418.752,309.95,418.752z"/>
<path id="PRIMARY_51_" fill="#02007A" stroke="#231F20" stroke-width="3.1586" stroke-miterlimit="10" d="M349.253,394.405
	c-2.019-8.165-4.716-15.46-7.623-21.175c-1.374,14.227-5.997,26.57-12.568,34.804c5.124,15.814,12.556,26.73,17.896,25.411
	C353.173,431.915,354.197,414.437,349.253,394.405z"/>
</svg>
