<?xml version="1.0" encoding="utf-8"?>
<!-- Generator: Adobe Illustrator 16.0.0, SVG Export Plug-In . SVG Version: 6.00 Build 0)  -->
<svg version="1.1" id="Layer_1" xmlns="http://www.w3.org/2000/svg" xmlns:xlink="http://www.w3.org/1999/xlink" x="0px" y="0px"
	 width="612px" height="792px" viewBox="0 0 612 792" enable-background="new 0 0 612 792" xml:space="preserve">
<rect id="head_frame" x="154.064" y="340.498" fill="#BBBCBE" fill-opacity="0" width="256" height="222"/>
<path id="SECONDARY_1_" fill="#FFFDB5" stroke="#231F20" stroke-width="1.695" stroke-miterlimit="10" d="M239.557,400.693
	c13.458,3.771,3.588,16.887-5.246,23.379c-1.687,1.188-3.518,2.16-5.484,2.878c-6.285,2.309-12.975,1.698-19.176-1.223
	c-1.55-0.729-3.069-1.604-4.544-2.608c-8.853-7.298-16.616-17.728-19.741-28.822c-0.447-1.585-0.799-3.183-1.043-4.785
	c-0.248-12.056,2.716-28.317,22.942-36.711c0.43,15.604,0.797,28.983,17.999,38.771c1.153,0.89,2.287,1.752,3.397,2.568
	c3.335,2.442,6.456,4.462,9.216,5.809C238.478,400.208,239.041,400.455,239.557,400.693z"/>
<path id="SECONDARY" fill="#FFFDB5" stroke="#231F20" stroke-width="1.695" stroke-miterlimit="10" d="M320.633,400.693
	c-13.457,3.771-3.587,16.887,5.246,23.379c1.688,1.188,3.52,2.16,5.482,2.878c6.287,2.309,12.977,1.698,19.18-1.223
	c1.55-0.729,3.069-1.604,4.543-2.608c8.854-7.298,16.618-17.728,19.743-28.822c0.447-1.585,0.799-3.183,1.042-4.785
	c0.248-12.056-2.716-28.317-22.94-36.711c-0.429,15.604-0.8,28.983-18.002,38.771c-1.15,0.89-2.283,1.752-3.396,2.568
	c-3.334,2.442-6.457,4.462-9.213,5.809C321.714,400.208,321.15,400.455,320.633,400.693z"/>
<path id="PRIMARY_2_" fill="#FF0000" stroke="#231F20" stroke-width="1.695" stroke-miterlimit="10" d="M237.988,392.465
	c2.852,2.972-3.365,13.384-13.892,23.262c-10.525,9.875-21.37,15.469-24.225,12.498c-2.854-2.973,3.365-13.385,13.893-23.264
	C224.291,395.086,235.136,389.493,237.988,392.465z"/>
<path id="PRIMARY_1_" fill="#FF0000" stroke="#231F20" stroke-width="1.695" stroke-miterlimit="10" d="M323.74,392.465
	c-2.859,2.972,3.365,13.384,13.893,23.262c10.522,9.875,21.37,15.469,24.222,12.498c2.851-2.973-3.364-13.385-13.895-23.264
	C337.437,395.086,326.591,389.493,323.74,392.465z"/>
<ellipse id="PRIMARY" fill="#FF0000" stroke="#231F20" stroke-width="1.695" stroke-miterlimit="10" cx="281.517" cy="469.832" rx="85.243" ry="84.28"/>
<line fill="none" stroke="#231F20" stroke-width="5.085" stroke-miterlimit="10" x1="245.523" y1="431.04" x2="317.513" y2="468.354"/>
<line fill="none" stroke="#231F20" stroke-width="5.085" stroke-miterlimit="10" x1="317.511" y1="431.04" x2="245.521" y2="468.354"/>
<path id="SECONDARY_2_" fill="#FFFDB5" stroke="#231F20" stroke-width="1.9794" stroke-miterlimit="10" d="M327.717,511.768
	c0,5.742-5.33,10.398-11.904,10.398h-68.566c-6.573,0-11.903-4.656-11.903-10.398l0,0c0-5.744,5.331-10.404,11.903-10.404h68.566
	C322.389,501.363,327.717,506.023,327.717,511.768L327.717,511.768z"/>
<line fill="none" stroke="#231F20" stroke-width="1.9337" stroke-miterlimit="10" x1="241.57" y1="503.615" x2="246.746" y2="521.899"/>
<line fill="none" stroke="#231F20" stroke-width="1.9794" stroke-miterlimit="10" x1="248.097" y1="521.907" x2="253.302" y2="501.363"/>
<line fill="none" stroke="#231F20" stroke-width="1.9794" stroke-miterlimit="10" x1="255.033" y1="501.363" x2="259.88" y2="521.907"/>
<line fill="none" stroke="#231F20" stroke-width="1.9794" stroke-miterlimit="10" x1="261.576" y1="521.907" x2="266.851" y2="501.363"/>
<line fill="none" stroke="#231F20" stroke-width="1.9794" stroke-miterlimit="10" x1="268.333" y1="501.363" x2="273.608" y2="521.907"/>
<line fill="none" stroke="#231F20" stroke-width="1.9794" stroke-miterlimit="10" x1="275.02" y1="521.907" x2="280.437" y2="501.363"/>
<line fill="none" stroke="#231F20" stroke-width="1.9794" stroke-miterlimit="10" x1="281.181" y1="501.363" x2="287.789" y2="521.907"/>
<line fill="none" stroke="#231F20" stroke-width="1.9794" stroke-miterlimit="10" x1="288.565" y1="521.516" x2="293.92" y2="501.363"/>
<line fill="none" stroke="#231F20" stroke-width="1.9794" stroke-miterlimit="10" x1="294.579" y1="501.363" x2="301.42" y2="522.528"/>
<line fill="none" stroke="#231F20" stroke-width="1.9794" stroke-miterlimit="10" x1="301.476" y1="522.528" x2="308.04" y2="501.363"/>
<line fill="none" stroke="#231F20" stroke-width="1.9794" stroke-miterlimit="10" x1="308.125" y1="501.363" x2="314.901" y2="522.164"/>
<line fill="none" stroke="#231F20" stroke-width="1.9794" stroke-miterlimit="10" x1="314.991" y1="522.853" x2="321.549" y2="502.052"/>
</svg>
