<?xml version="1.0" encoding="utf-8"?>
<!-- Generator: Adobe Illustrator 16.0.0, SVG Export Plug-In . SVG Version: 6.00 Build 0)  -->
<svg version="1.1" id="Layer_1" xmlns="http://www.w3.org/2000/svg" xmlns:xlink="http://www.w3.org/1999/xlink" x="0px" y="0px"
	 width="612px" height="792px" viewBox="0 0 612 792" enable-background="new 0 0 612 792" xml:space="preserve">
<rect id="head_frame" x="197.064" y="431.498" fill="#BBBCBE" fill-opacity="0" width="256" height="222"/>
<path id="SECONDARY_1_" fill="#FFFDB5" stroke="#231F20" stroke-width="1.695" stroke-miterlimit="10" d="M282.557,491.693
	c13.458,3.771,3.588,16.887-5.246,23.379c-1.686,1.188-3.518,2.158-5.484,2.878c-6.286,2.309-12.975,1.698-19.176-1.223
	c-1.549-0.729-3.068-1.604-4.543-2.608c-8.853-7.298-16.616-17.728-19.743-28.822c-0.447-1.586-0.798-3.185-1.044-4.784
	c-0.248-12.057,2.716-28.318,22.943-36.712c0.429,15.604,0.797,28.983,17.998,38.771c1.153,0.89,2.288,1.752,3.397,2.568
	c3.335,2.442,6.456,4.462,9.216,5.809C281.478,491.208,282.041,491.455,282.557,491.693z"/>
<path id="SECONDARY" fill="#FFFDB5" stroke="#231F20" stroke-width="1.695" stroke-miterlimit="10" d="M363.636,491.693
	c-13.459,3.771-3.59,16.887,5.243,23.379c1.688,1.188,3.52,2.158,5.483,2.878c6.286,2.309,12.976,1.698,19.179-1.223
	c1.55-0.729,3.069-1.604,4.543-2.608c8.854-7.298,16.618-17.728,19.743-28.822c0.447-1.586,0.799-3.185,1.044-4.784
	c0.248-12.057-2.716-28.318-22.942-36.712c-0.429,15.604-0.8,28.983-18,38.771c-1.152,0.89-2.285,1.752-3.397,2.568
	c-3.334,2.442-6.455,4.462-9.214,5.809C364.714,491.208,364.15,491.455,363.636,491.693z"/>
<path id="PRIMARY_2_" fill="#FF0000" stroke="#231F20" stroke-width="1.695" stroke-miterlimit="10" d="M280.988,483.465
	c2.854,2.973-3.363,13.384-13.89,23.262c-10.526,9.875-21.372,15.469-24.225,12.498c-2.854-2.973,3.365-13.385,13.893-23.264
	C267.291,486.086,278.134,480.492,280.988,483.465z"/>
<path id="PRIMARY_1_" fill="#FF0000" stroke="#231F20" stroke-width="1.695" stroke-miterlimit="10" d="M366.74,483.465
	c-2.857,2.973,3.364,13.384,13.891,23.262c10.524,9.875,21.372,15.469,24.224,12.498c2.851-2.973-3.364-13.385-13.893-23.264
	C380.437,486.086,369.593,480.492,366.74,483.465z"/>
<ellipse id="PRIMARY_3_" fill="#FF0000" stroke="#231F20" stroke-width="1.695" stroke-miterlimit="10" cx="324.517" cy="560.831" rx="85.243" ry="84.282"/>
<ellipse id="eye_2_" fill="#FFFFFF" stroke="#231F20" stroke-width="1.695" stroke-miterlimit="10" cx="324.517" cy="540.698" rx="39.157" ry="38.715"/>
<ellipse id="pupil_2_" stroke="#231F20" stroke-width="1.695" stroke-miterlimit="10" cx="332.995" cy="540.699" rx="15.073" ry="15.628"/>
<ellipse id="eye-glint_2_" fill="#FFFFFF" stroke="#FFFFFF" stroke-width="1.695" stroke-miterlimit="10" cx="338.938" cy="536.929" rx="4.95" ry="4.897"/>
<path id="mouth_2_" fill="#231F20" stroke="#231F20" stroke-width="1.695" stroke-miterlimit="10" d="M325.508,600.58
	c-17.858,0-33.698-4.422-43.57-11.251c-1.529,3.051-2.372,6.319-2.372,9.717c0,16.748,20.127,30.326,44.951,30.326
	c24.826,0,44.952-13.578,44.952-30.326c0-3.035-0.669-5.963-1.896-8.726C357.634,596.578,342.486,600.58,325.508,600.58z"/>
<polygon id="SECONDARY_2_" fill="#FFFDB5" points="305.057,597.624 299.035,604.123 297.48,595.449 "/>
<polygon id="SECONDARY_3_" fill="#FFFDB5" points="291.462,593.497 284.291,598.732 284.446,589.922 "/>
<polygon id="SECONDARY_4_" fill="#FFFDB5" points="320.897,599.683 316.352,607.263 313.03,599.084 "/>
<polygon id="SECONDARY_5_" fill="#FFFDB5" points="336.526,599.199 333.159,607.358 328.655,599.752 "/>
<polygon id="SECONDARY_6_" fill="#FFFDB5" points="350.612,596.305 348.676,604.909 342.947,598.153 "/>
<polygon id="SECONDARY_7_" fill="#FFFDB5" points="364.612,590.829 364.486,599.643 357.485,594.184 "/>
<polygon id="SECONDARY_8_" fill="#FFFDB5" points="283.532,613.379 291.967,610.516 289.134,618.875 "/>
<polygon id="SECONDARY_9_" fill="#FFFDB5" points="300.434,625.96 306.46,619.463 308.01,628.145 "/>
<polygon id="SECONDARY_10_" fill="#FFFDB5" points="320.638,630.327 324.56,622.412 328.524,630.306 "/>
<polygon id="SECONDARY_11_" fill="#FFFDB5" points="340.384,628.56 341.485,619.812 347.834,626 "/>
<polygon id="SECONDARY_12_" fill="#FFFDB5" points="360.035,618.951 356.972,610.675 365.48,613.312 "/>
<path id="PRIMARY" fill="#FF0000" stroke="#231F20" stroke-width="1.695" stroke-miterlimit="10" d="M324.438,502.203
	c-10.603,0-20.227,4.073-27.374,10.698c6.901,9.969,18.414,16.499,31.457,16.499c10.857,0,20.65-4.529,27.611-11.789
	C348.838,508.249,337.364,502.203,324.438,502.203z"/>
</svg>
