<?xml version="1.0" encoding="utf-8"?>
<!-- Generator: Adobe Illustrator 16.0.0, SVG Export Plug-In . SVG Version: 6.00 Build 0)  -->
<svg version="1.1" id="Layer_1" xmlns="http://www.w3.org/2000/svg" xmlns:xlink="http://www.w3.org/1999/xlink" x="0px" y="0px"
	 width="612px" height="792px" viewBox="0 0 612 792" enable-background="new 0 0 612 792" xml:space="preserve">
<rect id="head_frame" x="230.5" y="331.5" fill-opacity="0" fill="#BBBCBE" width="151" height="131"/>
<path id="PRIMARY_1_" fill="#F1F1F1" stroke="#231F20" stroke-miterlimit="10" d="M310.557,453.836v-2.387
	c2.76-0.738,4.586-2.006,4.586-3.449s-1.826-2.711-4.586-3.449v-2.602c2.76-0.738,4.585-2.006,4.585-3.449s-1.825-2.711-4.585-3.449
	V433.5h-11.113v1.551c-2.76,0.738-4.585,2.006-4.585,3.449s1.825,2.711,4.585,3.449v2.603c-2.759,0.737-4.584,2.005-4.584,3.448
	s1.825,2.711,4.584,3.448v2.322c-2.831,0.731-4.715,2.015-4.715,3.48s1.884,2.749,4.715,3.48v1.769h11.113v-1.834
	c2.688-0.741,4.455-1.994,4.455-3.415S313.245,454.577,310.557,453.836z"/>
<circle fill="none" stroke="#231F20" stroke-miterlimit="10" cx="305" cy="441" r="2.5"/>
</svg>
