<?xml version="1.0" encoding="utf-8"?>
<!-- Generator: Adobe Illustrator 16.0.0, SVG Export Plug-In . SVG Version: 6.00 Build 0)  -->
<svg version="1.1" id="Layer_1" xmlns="http://www.w3.org/2000/svg" xmlns:xlink="http://www.w3.org/1999/xlink" x="0px" y="0px"
	 width="612px" height="792px" viewBox="0 0 612 792" enable-background="new 0 0 612 792" xml:space="preserve">
<rect id="head_frame" x="179" y="285" fill-opacity="0" fill="#BBBCBE" width="256" height="222"/>
<path id="PRIMARY" fill="#F1F1F1" stroke="#231F20" stroke-width="1.695" stroke-miterlimit="10" d="M307.424,340.924h-4.238
	c-28.089,0-50.861,22.762-50.861,50.839v49.145c26.702,22.03,14.834,29.656,37.968,44.908h17.131
	c13.204,0,25.222-5.041,34.262-13.289h2.248c16.886-0.863,12.785-10.912,12.747-17.291c0.146-0.991-1.227-1.433-3.472-1.631v-2.261
	c0-1.033-2.209-0.958-4.924-0.958c-2.724,0-4.933-0.075-4.933,0.958v2.118h-5.974v-2.117c0-1.034-2.21-0.959-4.929-0.959
	c-2.722,0-4.932-0.075-4.932,0.959v2.117h-5.979v-2.117c0-1.034-2.209-0.959-4.928-0.959c-2.724,0-4.932-0.075-4.932,0.959v2.117
	h-5.976v-2.117c0-1.034-2.208-0.959-4.927-0.959c-2.401,0-4.557-0.085-4.557-0.085l-0.069-5.365h3.462v2.261
	c0,1.352,2.249,1.254,5.017,1.254c2.765,0,5.014,0.098,5.014-1.254v-2.261h6.003v2.261c0,1.352,2.247,1.254,5.017,1.254
	s5.018,0.098,5.018-1.254v-2.261h6.002v2.261c0,1.352,2.25,1.254,5.019,1.254c2.763,0,5.013,0.098,5.013-1.254v-2.261h2.566
	c1.195,0,2.336,0.002,3.438-0.002v2.265c0,1.35,2.246,1.252,5.017,1.252c2.762,0,5.008,0.098,5.008-1.252v-5.023v-5.772v-6.391
	l0.542-38.25C358.285,363.686,335.514,340.924,307.424,340.924z"/>
<ellipse id="SECONDARY_2_" transform="matrix(0.7072 -0.707 0.707 0.7072 -180.39 334.3635)" stroke="#231F20" stroke-width="1.695" stroke-miterlimit="10" cx="313.488" cy="384.97" rx="8.401" ry="2.543"/>
<ellipse id="SECONDARY_1_" transform="matrix(0.7072 0.707 -0.707 0.7072 372.9893 -130.7457)" stroke="#231F20" stroke-width="1.695" stroke-miterlimit="10" cx="344.355" cy="384.97" rx="8.401" ry="2.543"/>
<path id="SECONDARY" stroke="#231F20" stroke-width="1.695" stroke-miterlimit="10" d="M340.786,410.411l-4.925-4.924
	c-0.492-0.491-1.209-0.66-1.99-0.565c-0.781-0.095-1.498,0.074-1.99,0.565l-4.926,4.924c-1.082,1.081-0.672,3.244,0.914,4.829
	c1.586,1.586,3.748,1.994,4.831,0.914l1.171-1.171l1.17,1.171c1.085,1.08,3.245,0.672,4.832-0.914
	C341.459,413.655,341.869,411.492,340.786,410.411z"/>
<path fill="none" stroke="#231F20" stroke-width="1.695" stroke-miterlimit="10" d="M291.911,393.672
	c0.197,2.722-4.949,1.214-5.262,5.019c-0.03,0.227-0.017,0.443,0.063,0.655c0.078,0.212,0.219,0.417,0.439,0.622
	c0.061,1.692,0.187,5.08-3.202,5.206c0.124,3.386,5.083-0.188,5.207,3.197c1.819,3.325-4.896,5.27-3.076,8.593
	c1.819,3.324,5.02-1.88,6.771,0.382c0.21,0.293,0.391,0.574,0.574,0.826c0.744,1.005,1.578,1.516,2.883,0.112
	c1.881,5.018-4.958,3.575-4.345,7.732"/>
<path fill="none" stroke="#231F20" stroke-width="1.695" stroke-miterlimit="10" d="M280.929,361.61
	c3.424,1.096,1.729,4.485,3.424,7.874c3.391-1.694,3.391-5.084,7.386-5.107c0.364,0.015,0.727,0.023,1.091,0.023
	c-0.318-0.105-0.583-0.211-0.801-0.317c-0.219-0.106-0.389-0.212-0.521-0.318c-0.373,0.635-0.373-1.059-0.019-1.271
	c0.189-0.212,0.44-0.424,0.706-0.636c1.06-0.847,2.331-1.694,0.636-2.542c3.391,0,5.086-3.389,8.873-2.16
	c0.222-0.081,0.411-0.15,0.566-0.207c0.31-0.113,0.479-0.176,0.479-0.176"/>
<path fill="none" stroke="#231F20" stroke-width="1.695" stroke-miterlimit="10" d="M348.157,390.916
	c-2.712,1.673-1.783,5.347-3.803,6.64c1.655,0.364,3.313,0.727,4.969,1.089c-2.021,1.293-2.747,4.604-0.901,6.117"/>
</svg>
