<?xml version="1.0" encoding="utf-8"?>
<!-- Generator: Adobe Illustrator 16.0.0, SVG Export Plug-In . SVG Version: 6.00 Build 0)  -->
<svg version="1.1" id="Layer_1" xmlns="http://www.w3.org/2000/svg" xmlns:xlink="http://www.w3.org/1999/xlink" x="0px" y="0px"
	 width="612px" height="792px" viewBox="0 0 612 792" enable-background="new 0 0 612 792" xml:space="preserve">
<rect id="head_frame" x="231.5" y="330.5" fill-opacity="0" fill="#BBBCBE" width="151" height="131"/>
<path id="PRIMARY" fill="#F1F1F1" stroke="#231F20" stroke-miterlimit="10" d="M307.25,363.5h-2.5c-16.568,0-30,13.432-30,30v29
	c15.75,13,8.75,17.5,22.396,26.5h10.104c7.788,0,14.877-2.975,20.209-7.842h1.326c9.96-0.51,7.541-6.439,7.519-10.203
	c0.086-0.585-0.724-0.846-2.048-0.963v-1.334c0-0.609-1.303-0.565-2.904-0.565c-1.606,0-2.909-0.044-2.909,0.565v1.25h-3.523v-1.249
	c0-0.61-1.304-0.566-2.907-0.566c-1.605,0-2.909-0.044-2.909,0.566v1.249h-3.526v-1.249c0-0.61-1.303-0.566-2.906-0.566
	c-1.606,0-2.909-0.044-2.909,0.566v1.249h-3.524v-1.249c0-0.61-1.303-0.566-2.906-0.566c-1.416,0-2.688-0.05-2.688-0.05
	l-0.041-3.166h2.042v1.334c0,0.798,1.326,0.74,2.959,0.74c1.631,0,2.957,0.058,2.957-0.74v-1.334h3.541v1.334
	c0,0.798,1.325,0.74,2.959,0.74s2.96,0.058,2.96-0.74v-1.334h3.54v1.334c0,0.798,1.327,0.74,2.96,0.74
	c1.63,0,2.957,0.058,2.957-0.74v-1.334h1.514c0.705,0,1.378,0.001,2.027-0.001v1.336c0,0.797,1.325,0.739,2.959,0.739
	c1.629,0,2.954,0.058,2.954-0.739v-2.964v-3.406v-3.771l0.319-22.57C337.25,376.932,323.818,363.5,307.25,363.5z"/>
<path id="SECONDARY_2_" fill="#000000" stroke="#231F20" stroke-miterlimit="10" d="M315.783,389.491c2.158,3.046-2.219,6.759-4.956,6.759
	s-4.957-3.026-4.957-6.759c0-3.733,3.3-8.938,4.957-6.759C313.25,385.917,313.25,385.917,315.783,389.491z"/>
<path id="SECONDARY_1_" fill="#000000" stroke="#231F20" stroke-miterlimit="10" d="M333.99,389.491c0,3.733-2.219,6.759-4.956,6.759
	s-7.177-3.758-4.957-6.759c2.09-2.825,3.209-4.408,4.957-6.759C330.667,380.535,333.99,385.758,333.99,389.491z"/>
<path id="SECONDARY" fill="#000000" stroke="#231F20" stroke-miterlimit="10" d="M326.929,404.504l-2.905-2.905c-0.29-0.29-0.713-0.39-1.174-0.334
	c-0.461-0.056-0.884,0.044-1.174,0.334l-2.905,2.905c-0.639,0.638-0.396,1.914,0.539,2.85s2.211,1.177,2.85,0.539l0.69-0.69
	l0.69,0.69c0.64,0.638,1.914,0.396,2.85-0.539S327.567,405.142,326.929,404.504z"/>
<path fill="none" stroke="#231F20" stroke-miterlimit="10" d="M298.1,394.626c0.116,1.606-2.919,0.716-3.104,2.961
	c-0.018,0.134-0.01,0.262,0.037,0.387c0.046,0.125,0.129,0.246,0.259,0.367c0.036,0.999,0.11,2.998-1.889,3.072
	c0.073,1.998,2.998-0.111,3.071,1.887c1.073,1.962-2.888,3.109-1.814,5.07c1.073,1.962,2.961-1.109,3.994,0.226
	c0.124,0.173,0.23,0.339,0.339,0.487c0.438,0.593,0.931,0.895,1.7,0.066c1.109,2.961-2.925,2.109-2.563,4.563"/>
<path fill="none" stroke="#231F20" stroke-miterlimit="10" d="M291.622,375.707c2.02,0.646,1.02,2.646,2.02,4.646
	c2-1,2-3,4.356-3.014c0.215,0.009,0.429,0.014,0.644,0.014c-0.188-0.063-0.344-0.125-0.473-0.188s-0.229-0.125-0.308-0.188
	c-0.22,0.375-0.22-0.625-0.011-0.75c0.111-0.125,0.26-0.25,0.416-0.375c0.625-0.5,1.375-1,0.375-1.5c2,0,3-2,5.233-1.274
	c0.131-0.048,0.242-0.089,0.334-0.122c0.183-0.067,0.282-0.104,0.282-0.104"/>
<path fill="none" stroke="#231F20" stroke-miterlimit="10" d="M331.276,396c-1.6,0.987-1.052,3.155-2.243,3.918
	c0.977,0.215,1.954,0.429,2.931,0.643c-1.191,0.763-1.62,2.717-0.531,3.609"/>
</svg>
