<?xml version="1.0" encoding="utf-8"?>
<!-- Generator: Adobe Illustrator 16.0.0, SVG Export Plug-In . SVG Version: 6.00 Build 0)  -->
<svg version="1.1" id="Layer_1" xmlns="http://www.w3.org/2000/svg" xmlns:xlink="http://www.w3.org/1999/xlink" x="0px" y="0px"
	 width="612px" height="792px" viewBox="0 0 612 792" enable-background="new 0 0 612 792" xml:space="preserve">
<rect id="head_frame" x="179" y="285" fill-opacity="0" fill="#BBBCBE" width="256" height="222"/>
<path id="PRIMARY_1_" fill="#F1F1F1" stroke="#231F20" stroke-width="1.695" stroke-miterlimit="10" d="M307.424,340.71h-4.238
	c-28.089,0-50.861,22.762-50.861,50.84v49.145c11.248,9.279,15.646,16,18.706,21.814c0.41,0.146,0.82,0.269,1.229,0.375
	c-0.993-6.395,5.31-12.658,8.894-14.179c4.403-1.735,11.418-0.761,14.429,2.062c0,0-0.431-0.419-0.25-0.647l0,0l-0.069-5.365
	l4.35-0.031v2.261c0,1.352,2.249,1.254,5.017,1.254c2.765,0,5.014,0.098,5.014-1.254v-2.261h6.003v2.261
	c0,1.352,2.247,1.254,5.017,1.254s5.018,0.098,5.018-1.254v-2.261h6.002v2.261c0,1.352,2.25,1.254,5.019,1.254
	c2.763,0,5.013,0.098,5.013-1.254v-2.261h2.566c1.195,0,2.336,0.002,3.438-0.002v2.265c0,1.35,2.246,1.252,5.017,1.252
	c2.762,0,5.008,0.098,5.008-1.252v-5.023v-5.772v-6.391l0.542-38.249C358.285,363.472,335.514,340.71,307.424,340.71z"/>
<path id="SECONDARY_3_" fill="#F1F1F1" stroke="#231F20" stroke-width="1.695" stroke-miterlimit="10" d="M282.09,446.677
	c-4.29,1.151-13,7.999-10.198,15.752c2.289,6.938,4.282,12.992,14.62,22.158l16.957,2.433c13.07,1.875,25.682-1.408,35.802-8.287
	l2.227,0.318c16.836,1.544,14.205-8.985,15.072-15.305c0.285-0.96-1.01-1.593-3.205-2.107l0.321-2.238
	c0.147-1.022-2.051-1.262-4.738-1.647c-2.695-0.387-4.87-0.775-5.018,0.248l-0.302,2.097l-5.912-0.849l0.3-2.096
	c0.147-1.023-2.051-1.264-4.742-1.649c-2.693-0.387-4.87-0.774-5.018,0.249l-0.301,2.095l-5.917-0.849l0.3-2.097
	c0.147-1.022-2.051-1.262-4.741-1.647c-2.697-0.387-4.871-0.775-5.018,0.248l-0.302,2.096l-5.841-0.838l0.301-2.095
	c0.146-1.024-2.051-1.265-4.741-1.65c-2.377-0.342-4.498-0.73-4.498-0.73l-0.557,3.719
	C297.739,449.009,288.053,445.244,282.09,446.677z"/>
<path stroke="#231F20" stroke-width="1.695" stroke-miterlimit="10" d="M321.891,384.97c3.659,5.162-3.762,11.454-8.402,11.454
	s-8.404-5.128-8.404-11.454c0-6.327,5.594-15.146,8.404-11.455C317.596,378.912,317.596,378.912,321.891,384.97z"/>
<path stroke="#231F20" stroke-width="1.695" stroke-miterlimit="10" d="M352.758,384.97c0,6.326-3.761,11.454-8.402,11.454
	c-4.641,0-12.167-6.368-8.403-11.454c3.543-4.787,5.44-7.47,8.403-11.455C347.124,369.792,352.758,378.643,352.758,384.97z"/>
<path stroke="#231F20" stroke-width="1.695" stroke-miterlimit="10" d="M340.786,410.411l-4.925-4.924
	c-0.492-0.491-1.209-0.66-1.99-0.565c-0.781-0.095-1.498,0.074-1.99,0.565l-4.926,4.924c-1.082,1.081-0.672,3.244,0.914,4.829
	c1.586,1.586,3.748,1.994,4.831,0.914l1.171-1.171l1.17,1.171c1.085,1.08,3.245,0.672,4.832-0.914
	C341.459,413.655,341.869,411.492,340.786,410.411z"/>
<path fill="none" stroke="#231F20" stroke-width="1.695" stroke-miterlimit="10" d="M291.911,393.672
	c0.197,2.722-4.949,1.214-5.262,5.019c-0.03,0.227-0.017,0.443,0.063,0.655c0.078,0.212,0.219,0.417,0.439,0.622
	c0.061,1.692,0.187,5.08-3.202,5.206c0.124,3.386,5.083-0.188,5.207,3.197c1.819,3.325-4.896,5.27-3.076,8.593
	c1.819,3.324,5.02-1.88,6.771,0.382c0.21,0.293,0.391,0.574,0.574,0.826c0.744,1.005,1.578,1.516,2.883,0.112
	c1.881,5.018-4.958,3.575-4.345,7.732"/>
<path fill="none" stroke="#231F20" stroke-width="1.695" stroke-miterlimit="10" d="M280.929,361.61
	c3.424,1.096,1.729,4.485,3.424,7.874c3.391-1.694,3.391-5.084,7.386-5.107c0.364,0.015,0.727,0.023,1.091,0.023
	c-0.318-0.105-0.583-0.211-0.801-0.317c-0.219-0.106-0.389-0.212-0.521-0.318c-0.373,0.635-0.373-1.059-0.019-1.271
	c0.189-0.212,0.44-0.424,0.706-0.636c1.06-0.847,2.331-1.694,0.636-2.542c3.391,0,5.086-3.389,8.873-2.16
	c0.222-0.081,0.411-0.15,0.566-0.207c0.31-0.113,0.479-0.176,0.479-0.176"/>
<path fill="none" stroke="#231F20" stroke-width="1.695" stroke-miterlimit="10" d="M348.157,396
	c-2.712,1.673-1.783,5.347-3.803,6.64c1.655,0.364,3.313,0.727,4.969,1.089c-2.021,1.293-2.747,4.604-0.901,6.117"/>
</svg>
