<?xml version="1.0" encoding="utf-8"?>
<!-- Generator: Adobe Illustrator 16.0.0, SVG Export Plug-In . SVG Version: 6.00 Build 0)  -->
<svg version="1.1" id="Layer_1" xmlns="http://www.w3.org/2000/svg" xmlns:xlink="http://www.w3.org/1999/xlink" x="0px" y="0px"
	 width="612px" height="792px" viewBox="0 0 612 792" enable-background="new 0 0 612 792" xml:space="preserve">
<rect x="116" y="296.226" fill-opacity="0" fill="#231F20" width="256" height="170.476"/>
<polygon id="PRIMARY_3_" fill="#666666" stroke="#231F20" stroke-width="3.1446" stroke-miterlimit="10" points="190.821,349.127 
	169.222,322.362 190.821,295.59 275.898,295.59 298.352,322.362 275.898,349.127 "/>
<polygon id="SECONDARY_39_" fill="#FF0000" stroke="#231F20" stroke-width="3.1446" stroke-miterlimit="10" points="
	189.843,348.978 166.136,377.604 233.787,459.283 301.441,377.604 277.729,348.978 "/>
<path id="SECONDARY_38_" fill="#FF0000" stroke="#231F20" stroke-width="3.1446" stroke-miterlimit="10" d="M248.463,445.662
	c0-2.398-14.657-4.336-32.79-4.336"/>
<path id="SECONDARY_37_" fill="#FF0000" stroke="#231F20" stroke-width="3.1446" stroke-miterlimit="10" d="M260.25,434.32
	c0-4.692-27.133-8.487-60.676-8.487"/>
<path id="SECONDARY_36_" fill="#FF0000" stroke="#231F20" stroke-width="3.1446" stroke-miterlimit="10" d="M270.648,420.571
	c0-7.251-38.269-13.117-85.568-13.117"/>
<path id="SECONDARY_35_" fill="#FF0000" stroke="#231F20" stroke-width="3.1446" stroke-miterlimit="10" d="M285.611,404.13
	c0-7.993-52.188-14.458-116.686-14.458"/>
<path id="SECONDARY_34_" fill="#FF0000" stroke="#231F20" stroke-width="3.1446" stroke-miterlimit="10" d="M297.661,389.672
	c0-8.732-60.543-15.796-135.355-15.796"/>
<path id="SECONDARY_33_" fill="#FF0000" stroke="#231F20" stroke-width="3.1446" stroke-miterlimit="10" d="M305.722,377.604
	c0-11.259-59.145-20.371-132.244-20.371"/>
</svg>
