<?xml version="1.0" encoding="utf-8"?>
<!-- Generator: Adobe Illustrator 16.0.0, SVG Export Plug-In . SVG Version: 6.00 Build 0)  -->
<svg version="1.1" id="Layer_1" xmlns="http://www.w3.org/2000/svg" xmlns:xlink="http://www.w3.org/1999/xlink" x="0px" y="0px"
	 width="612px" height="792px" viewBox="0 0 612 792" enable-background="new 0 0 612 792" xml:space="preserve">
<rect x="179" y="272.819" fill-opacity="0" fill="#231F20" width="256" height="247.349"/>
<ellipse id="PRIMARY_4_" fill="#666666" stroke="#231F20" stroke-width="3.1616" stroke-miterlimit="10" cx="308.091" cy="438.065" rx="82.807" ry="82.865"/>
<path id="PRIMARY_5_" fill="#666666" stroke="#231F20" stroke-width="3.1616" stroke-miterlimit="10" d="M231.697,407.346
	c10.593-27.051,33.828-45.374,60.272-50.892L180.58,328.461v133.25l60.784,23.955C225.71,463.636,221.099,434.393,231.697,407.346z"
	/>
<path id="PRIMARY_6_" fill="#666666" stroke="#231F20" stroke-width="3.1616" stroke-miterlimit="10" d="M340.87,362.227
	c24.05,10.557,42.701,32.346,48.093,60.099c1.306,6.728,1.744,13.421,1.42,19.972l10.24-77.3l10.791-81.369L340.87,362.227z"/>
<path id="SECONDARY_26_" fill="#FF0000" stroke="#231F20" stroke-width="3.1616" stroke-miterlimit="10" d="M413.29,280.245
	l-71.78,82.272c5.592,2.511,10.892,5.614,15.783,9.275l52.263-59.896L413.29,280.245z"/>
<path id="SECONDARY_25_" fill="#FF0000" stroke="#231F20" stroke-width="3.1616" stroke-miterlimit="10" d="M326.676,458.222
	c12.284,14.522,26.337,26.581,41.463,36.184c6.117-6.458,11.238-13.871,15.04-22.038c-13.589-8.209-26.185-18.803-37.107-31.72
	c-21.537-25.476-33.096-55.846-35.019-86.004c-0.981-0.035-1.967-0.075-2.96-0.075c-8.127,0-15.976,1.192-23.396,3.377
	C287.679,393.178,301.525,428.466,326.676,458.222z"/>
</svg>
