<?xml version="1.0" encoding="utf-8"?>
<!-- Generator: Adobe Illustrator 16.0.0, SVG Export Plug-In . SVG Version: 6.00 Build 0)  -->
<svg version="1.1" id="Layer_1" xmlns="http://www.w3.org/2000/svg" xmlns:xlink="http://www.w3.org/1999/xlink" x="0px" y="0px"
	 width="612px" height="792px" viewBox="0 0 612 792" enable-background="new 0 0 612 792" xml:space="preserve">
<rect x="266.5" y="357.651" fill-opacity="0" fill="#231F20" width="81" height="78.206"/>
<circle id="PRIMARY_4_" fill="#666666" stroke="#231F20" stroke-miterlimit="10" cx="307.345" cy="409.898" r="26.201"/>
<path id="PRIMARY_5_" fill="#666666" stroke="#231F20" stroke-miterlimit="10" d="M283.174,400.186
	c3.352-8.553,10.703-14.346,19.07-16.091L267,375.244v42.131l19.232,7.574C281.279,417.983,279.82,408.737,283.174,400.186z"/>
<path id="PRIMARY_6_" fill="#666666" stroke="#231F20" stroke-miterlimit="10" d="M317.717,385.92
	c7.609,3.338,13.511,10.227,15.217,19.002c0.413,2.127,0.552,4.243,0.449,6.314l3.24-24.44l3.414-25.727L317.717,385.92z"/>
<path id="SECONDARY_26_" fill="#FF0000" stroke="#231F20" stroke-miterlimit="10" d="M340.631,359.999l-22.712,26.013
	c1.77,0.794,3.446,1.775,4.994,2.933l16.536-18.938L340.631,359.999z"/>
<path id="SECONDARY_25_" fill="#FF0000" stroke="#231F20" stroke-miterlimit="10" d="M313.226,416.271
	c3.887,4.592,8.333,8.404,13.119,11.44c1.936-2.042,3.556-4.386,4.759-6.968c-4.3-2.596-8.285-5.945-11.741-10.029
	c-6.814-8.055-10.472-17.657-11.08-27.192c-0.311-0.011-0.622-0.024-0.937-0.024c-2.571,0-5.055,0.377-7.402,1.068
	C300.887,395.706,305.268,406.863,313.226,416.271z"/>
</svg>
