<?xml version="1.0" encoding="utf-8"?>
<!-- Generator: Adobe Illustrator 16.0.0, SVG Export Plug-In . SVG Version: 6.00 Build 0)  -->
<svg version="1.1" id="Layer_1" xmlns="http://www.w3.org/2000/svg" xmlns:xlink="http://www.w3.org/1999/xlink" x="0px" y="0px"
	 width="612px" height="792px" viewBox="0 0 612 792" enable-background="new 0 0 612 792" xml:space="preserve">
<rect x="203.5" y="354.004" fill-opacity="0" fill="#231F20" width="81" height="54.487"/>
<polygon id="PRIMARY_3_" fill="#666666" stroke="#231F20" stroke-miterlimit="10" points="227.174,370.912 220.34,362.357 
	227.174,353.801 254.093,353.801 261.197,362.357 254.093,370.912 "/>
<polygon id="SECONDARY_39_" fill="#FF0000" stroke="#231F20" stroke-miterlimit="10" points="226.864,370.864 219.363,380.014 
	240.769,406.12 262.175,380.014 254.672,370.864 "/>
<path id="SECONDARY_38_" fill="#FF0000" stroke="#231F20" stroke-miterlimit="10" d="M245.412,401.767
	c0-0.767-4.638-1.386-10.375-1.386"/>
<path id="SECONDARY_37_" fill="#FF0000" stroke="#231F20" stroke-miterlimit="10" d="M249.142,398.142
	c0-1.5-8.585-2.713-19.198-2.713"/>
<path id="SECONDARY_36_" fill="#FF0000" stroke="#231F20" stroke-miterlimit="10" d="M252.432,393.747
	c0-2.317-12.108-4.192-27.074-4.192"/>
<path id="SECONDARY_35_" fill="#FF0000" stroke="#231F20" stroke-miterlimit="10" d="M257.166,388.492
	c0-2.555-16.513-4.621-36.92-4.621"/>
<path id="SECONDARY_34_" fill="#FF0000" stroke="#231F20" stroke-miterlimit="10" d="M260.979,383.871
	c0-2.791-19.156-5.049-42.827-5.049"/>
<path id="SECONDARY_33_" fill="#FF0000" stroke="#231F20" stroke-miterlimit="10" d="M263.529,380.014
	c0-3.599-18.714-6.511-41.843-6.511"/>
</svg>
