<?xml version="1.0" encoding="utf-8"?>
<!-- Generator: Adobe Illustrator 16.0.0, SVG Export Plug-In . SVG Version: 6.00 Build 0)  -->
<svg version="1.1" id="Layer_1" xmlns="http://www.w3.org/2000/svg" xmlns:xlink="http://www.w3.org/1999/xlink" x="0px" y="0px"
	 width="612px" height="792px" viewBox="0 0 612 792" enable-background="new 0 0 612 792" xml:space="preserve">
<rect id="head_frame_1_" x="178" y="285.076" fill="#231F20" fill-opacity="0" width="256" height="221.848"/>
<path id="PRIMARY_1_" fill="#666666" stroke="#231F20" stroke-width="1.6944" stroke-miterlimit="10" d="M349.564,506.077
	c0,0-20.262,0-45.26,0c-24.997,0-45.261,0-45.261,0c0-10.109,20.262-18.304,45.259-18.304
	C329.302,487.773,349.564,495.968,349.564,506.077z"/>
<path id="PRIMARY" fill="#666666" stroke="#231F20" stroke-width="1.6944" stroke-miterlimit="10" d="M264.046,478.796
	c-10.94,9.684-4.277,17.713,1.495,4.13c-5.772,13.583-1.396,16.647,4.218,3.706c-5.617,12.941-3.46,13.214,6.546,3.143
	c-10.006,10.07,4.411,14.593,8.472,2.428c-4.062,12.167,5.656,14.459,9.996,1.566c-4.342,12.893,9.874,14.688,11.128,0.552
	c-1.254,14.137,9.634,13.209,11.127-0.552c-1.495,13.761,5.438,10.61,9.998-1.566c-4.56,12.175,12.569,10.419,8.471-2.428
	c4.104,12.847,19.041,4.925,6.544-3.143c12.497,8.069,16.921,3.968,4.219-3.706c12.702,7.674,13.326,4.24,1.497-4.13
	c8.871,6.275,9.894,2.799,5.124-0.816c-1.59-1.206-3.878-2.987-6.621-3.31c3.442,0.658,4.343,0.66,3.926,0.403
	c-0.426-0.613-2.662-7.19-3.934-2.083c-0.393-6.057-1.189-5.938-2.547-1.215c0.379-5.209-0.922-3.714-1.664-0.813
	c0.143-3.277-0.629-3.842-1.43-1.179c-0.009-3.257-0.885-1.347-1.578-0.472c-0.276-1.341-1.062-1.364-1.692-1.72
	c-0.624-0.384-1.271-0.438-1.846,0.229c-1.167-2.192-3.797-4.397-4.876-1.551c-1.169-3.457-3.85-5.064-5.483-1.264
	c-0.265-4.164-3.752-4.581-6.007-0.941c0.278-3.885-5.074-4.274-6.44-0.59c-0.662-3.809-5.227-4.312-6.79-0.204
	c-0.168-4.119-3.967-4.046-5.682,0.143c0.143-4.109-4.07-3.668-5.449,0.414c-0.349-3.906-3.737-3.199-5.162,0.666
	c-0.511-3.587-3.433-2.256-4.835,0.898c-0.795-2.68-3.082-0.674-4.454,1.114c-1.107-1.08-2.753,0.694-4.018,1.313
	c-0.813,0.151-2.65,0.304-4.417,0.308c-1.77,0.005-3.498,0.021-4.189,0.385c-0.686,0.36-0.335,1.067,2.061,2.449
	c-9.436-3.084-17.288-2.483-4.219,3.708C252.428,468.533,253.106,488.465,264.046,478.796z"/>
<path fill="#FFFFFF" fill-opacity="0.4" stroke="#231F20" stroke-width="1.6944" stroke-miterlimit="10" d="M264.046,478.796
	c-10.94,9.684-4.277,17.713,1.495,4.13c-5.772,13.583-1.396,16.647,4.218,3.706c-5.617,12.941-3.46,13.214,6.546,3.143
	c-10.006,10.07,4.411,14.593,8.472,2.428c-4.062,12.167,5.656,14.459,9.996,1.566c-4.342,12.893,9.874,14.688,11.128,0.552
	c-1.254,14.137,9.634,13.209,11.127-0.552c-1.495,13.761,5.438,10.61,9.998-1.566c-4.56,12.175,12.569,10.419,8.471-2.428
	c4.104,12.847,19.041,4.925,6.544-3.143c12.497,8.069,16.921,3.968,4.219-3.706c12.702,7.674,13.326,4.24,1.497-4.13
	c8.871,6.275,9.894,2.799,5.124-0.816c-1.59-1.206-3.878-2.987-6.621-3.31c3.442,0.658,4.343,0.66,3.926,0.403
	c-0.426-0.613-2.662-7.19-3.934-2.083c-0.393-6.057-1.189-5.938-2.547-1.215c0.379-5.209-0.922-3.714-1.664-0.813
	c0.143-3.277-0.629-3.842-1.43-1.179c-0.009-3.257-0.885-1.347-1.578-0.472c-0.276-1.341-1.062-1.364-1.692-1.72
	c-0.624-0.384-1.271-0.438-1.846,0.229c-1.167-2.192-3.797-4.397-4.876-1.551c-1.169-3.457-3.85-5.064-5.483-1.264
	c-0.265-4.164-3.752-4.581-6.007-0.941c0.278-3.885-5.074-4.274-6.44-0.59c-0.662-3.809-5.227-4.312-6.79-0.204
	c-0.168-4.119-3.967-4.046-5.682,0.143c0.143-4.109-4.07-3.668-5.449,0.414c-0.349-3.906-3.737-3.199-5.162,0.666
	c-0.511-3.587-3.433-2.256-4.835,0.898c-0.795-2.68-3.082-0.674-4.454,1.114c-1.107-1.08-2.753,0.694-4.018,1.313
	c-0.813,0.151-2.65,0.304-4.417,0.308c-1.77,0.005-3.498,0.021-4.189,0.385c-0.686,0.36-0.335,1.067,2.061,2.449
	c-9.436-3.084-17.288-2.483-4.219,3.708C252.428,468.533,253.106,488.465,264.046,478.796z"/>
<circle fill="none" stroke="#231F20" stroke-width="1.6944" stroke-miterlimit="10" cx="304.305" cy="470.514" r="4.234"/>
</svg>
