<?xml version="1.0" encoding="utf-8"?>
<!-- Generator: Adobe Illustrator 16.0.0, SVG Export Plug-In . SVG Version: 6.00 Build 0)  -->
<svg version="1.1" id="Layer_1" xmlns="http://www.w3.org/2000/svg" xmlns:xlink="http://www.w3.org/1999/xlink" x="0px" y="0px"
	 width="612px" height="792px" viewBox="0 0 612 792" enable-background="new 0 0 612 792" xml:space="preserve">
<rect id="head_frame_1_" x="178" y="286" fill="#231F20" fill-opacity="0" width="256" height="222"/>
<path fill="#FFA4A4" stroke="#231F20" stroke-width="1.695" stroke-miterlimit="10" d="M370.862,385.313
	c-5.789,21.997-14.768,46.169-33.157,35.438c-12.874-7.511-26.308-10.997-35.603-16.627c-0.619-0.376-1.211-0.712-1.767-0.781
	c-9.899-1.26-20.072,2.13-25.158,10.603c-1.696,3.39,0,10.168,1.695,11.863c22.04,10.168,42.384,25.419,37.298,52.534
	c-1.695,6.778-11.868,10.168-16.954,5.084c-8.477-8.474,1.695-25.42-8.477-28.81c-22.04-8.474-38.993-25.42-32.212-47.45
	c5.086-15.252,20.345-20.336,33.609-23.824c0.012-0.434,0.032-0.875,0.06-1.323c0.144-2.247,0.51-4.696,1.122-7.376
	c5.193-22.729,2.713-31.807,22.076-31.807C332.757,342.839,378.907,354.737,370.862,385.313z"/>
<path fill="#FFA4A4" stroke="#231F20" stroke-width="1.695" stroke-miterlimit="10" d="M370.862,385.313
	c-5.789,21.997-14.768,46.169-33.157,35.438c-25.748-15.022-53.731-13.946-46.384-46.106c5.193-22.729,2.713-31.807,22.076-31.807
	C332.757,342.839,378.907,354.737,370.862,385.313z"/>
<path id="SECONDARY_5_" fill="#FFFA00" stroke="#231F20" stroke-width="1.695" stroke-miterlimit="10" d="M357.802,405.774
	c8.755,9.715,17.902,21.329,26.467,27.356c1.157,0.765,2.329,1.501,3.496,2.23c5.836,3.654,11.662,7.267,16.1,14.297
	c0.619,0.666,1.267,1.341,1.995,2.032c2.569,2.461,6.659,6.065,11.44,6.254c-7.422,4.807-17.81,7.173-24.631,1.262
	c0,0-0.821-0.707-2.273-1.966c-0.729-0.631-1.61-1.396-2.639-2.284c-9.357-6.089-19.192-12.653-28.075-21.799
	c-1.105-1.139-2.201-2.32-3.301-3.562c-1.145-1.087-12.454-11.924-13.595-13.031"/>
<path id="SECONDARY_4_" fill="#FFFA00" stroke="#231F20" stroke-width="1.695" stroke-miterlimit="10" d="M350.076,405.837
	c0.131,0.004,0.264,0.002,0.396-0.001c1.776-0.038,3.819,0.213,5.254,1.006c14.774,8.133,31.826,11.702,43.834,10.087
	c1.676,0.262,3.124,0.49,4.31,0.677c2.384,0.372,3.721,0.584,3.721,0.584c5.306,5.262,11.119,4.938,13.668,11.604
	c3.261,1.515,6.104,4.347,7.113,9.684c7.452-7.689,1.503-40.87-15.252-42.14c0,0-1.16-0.093-3.227-0.247
	c-1.031-0.081-2.29-0.175-3.745-0.284c-11.764-2.842-24.252-5.673-37.987-5.313c-1.715,0.044-3.45,0.139-5.229,0.281
	c-1.842-0.041-3.691-0.071-5.546-0.083"/>
<ellipse fill="#FFFFFF" stroke="#231F20" stroke-width="1.695" stroke-miterlimit="10" cx="329.174" cy="372.073" rx="8.103" ry="6.447"/>
<ellipse fill="#231F20" cx="333.459" cy="372.073" rx="1.612" ry="1.282"/>
<rect x="319.785" y="359.601" transform="matrix(-0.9837 -0.1798 0.1798 -0.9837 587.8854 776.9105)" fill="#231F20" width="18.733" height="4.424"/>
<ellipse fill="#FFFFFF" stroke="#231F20" stroke-width="1.695" stroke-miterlimit="10" cx="356.136" cy="372.556" rx="8.101" ry="6.448"/>
<rect x="346.798" y="360.058" transform="matrix(-0.9853 0.1709 -0.1709 -0.9853 769.0053 658.3369)" fill="#231F20" width="18.733" height="4.424"/>
<ellipse fill="#231F20" cx="360.442" cy="372.556" rx="1.61" ry="1.283"/>
</svg>
