<?xml version="1.0" encoding="utf-8"?>
<!-- Generator: Adobe Illustrator 16.0.0, SVG Export Plug-In . SVG Version: 6.00 Build 0)  -->
<svg version="1.1" id="Layer_1" xmlns="http://www.w3.org/2000/svg" xmlns:xlink="http://www.w3.org/1999/xlink" x="0px" y="0px"
	 width="612px" height="792px" viewBox="0 0 612 792" enable-background="new 0 0 612 792" xml:space="preserve">
<rect id="head_frame_1_" x="230.5" y="330.5" fill-opacity="0" fill="#231F20" width="151" height="131"/>
<path id="PRIMARY_1_" fill="#666666" stroke="#231F20" stroke-miterlimit="10" d="M331.696,461c0,0-11.951,0-26.696,0
	c-14.744,0-26.697,0-26.697,0c0-5.97,11.952-10.809,26.696-10.809C319.744,450.191,331.696,455.03,331.696,461z"/>
<path id="PRIMARY" fill="#666666" stroke="#231F20" stroke-miterlimit="10" d="M281.254,444.891
	c-6.453,5.717-2.523,10.459,0.882,2.438c-3.405,8.021-0.824,9.83,2.488,2.189c-3.313,7.641-2.041,7.802,3.861,1.855
	c-5.902,5.946,2.602,8.617,4.997,1.434c-2.396,7.184,3.336,8.538,5.896,0.924c-2.561,7.614,5.824,8.674,6.564,0.327
	c-0.74,8.347,5.682,7.799,6.563-0.327c-0.882,8.126,3.208,6.266,5.897-0.924c-2.689,7.189,7.414,6.152,4.996-1.434
	c2.421,7.586,11.232,2.908,3.861-1.855c7.371,4.764,9.98,2.342,2.488-2.189c7.492,4.531,7.86,2.504,0.883-2.438
	c5.232,3.705,5.836,1.652,3.022-0.483c-0.937-0.712-2.287-1.763-3.905-1.954c2.03,0.389,2.562,0.39,2.316,0.238
	c-0.251-0.362-1.571-4.246-2.321-1.23c-0.231-3.576-0.701-3.506-1.502-0.717c0.224-3.076-0.544-2.193-0.981-0.48
	c0.084-1.936-0.371-2.269-0.844-0.697c-0.005-1.922-0.521-0.795-0.931-0.278c-0.163-0.792-0.626-0.806-0.998-1.016
	c-0.368-0.226-0.75-0.258-1.089,0.136c-0.688-1.295-2.239-2.596-2.876-0.916c-0.689-2.041-2.27-2.99-3.234-0.746
	c-0.156-2.459-2.213-2.705-3.543-0.556c0.164-2.294-2.993-2.524-3.799-0.348c-0.39-2.249-3.083-2.546-4.005-0.12
	c-0.099-2.433-2.34-2.39-3.351,0.084c0.084-2.427-2.401-2.166-3.214,0.244c-0.206-2.307-2.204-1.889-3.045,0.393
	c-0.301-2.118-2.025-1.332-2.852,0.531c-0.469-1.582-1.818-0.398-2.627,0.658c-0.653-0.638-1.624,0.41-2.37,0.775
	c-0.48,0.09-1.563,0.18-2.605,0.182c-1.044,0.003-2.063,0.013-2.471,0.227c-0.405,0.213-0.198,0.63,1.215,1.447
	c-5.565-1.822-10.197-1.467-2.488,2.189C274.401,438.83,274.801,450.6,281.254,444.891z"/>
<path fill-opacity="0.4" fill="#FFFFFF" stroke="#231F20" stroke-miterlimit="10" d="M281.254,444.891
	c-6.453,5.717-2.523,10.459,0.882,2.438c-3.405,8.021-0.824,9.83,2.488,2.189c-3.313,7.641-2.041,7.802,3.861,1.855
	c-5.902,5.946,2.602,8.617,4.997,1.434c-2.396,7.184,3.336,8.538,5.896,0.924c-2.561,7.614,5.824,8.674,6.564,0.327
	c-0.74,8.347,5.682,7.799,6.563-0.327c-0.882,8.126,3.208,6.266,5.897-0.924c-2.689,7.189,7.414,6.152,4.996-1.434
	c2.421,7.586,11.232,2.908,3.861-1.855c7.371,4.764,9.98,2.342,2.488-2.189c7.492,4.531,7.86,2.504,0.883-2.438
	c5.232,3.705,5.836,1.652,3.022-0.483c-0.937-0.712-2.287-1.763-3.905-1.954c2.03,0.389,2.562,0.39,2.316,0.238
	c-0.251-0.362-1.571-4.246-2.321-1.23c-0.231-3.576-0.701-3.506-1.502-0.717c0.224-3.076-0.544-2.193-0.981-0.48
	c0.084-1.936-0.371-2.269-0.844-0.697c-0.005-1.922-0.521-0.795-0.931-0.278c-0.163-0.792-0.626-0.806-0.998-1.016
	c-0.368-0.226-0.75-0.258-1.089,0.136c-0.688-1.295-2.239-2.596-2.876-0.916c-0.689-2.041-2.27-2.99-3.234-0.746
	c-0.156-2.459-2.213-2.705-3.543-0.556c0.164-2.294-2.993-2.524-3.799-0.348c-0.39-2.249-3.083-2.546-4.005-0.12
	c-0.099-2.433-2.34-2.39-3.351,0.084c0.084-2.427-2.401-2.166-3.214,0.244c-0.206-2.307-2.204-1.889-3.045,0.393
	c-0.301-2.118-2.025-1.332-2.852,0.531c-0.469-1.582-1.818-0.398-2.627,0.658c-0.653-0.638-1.624,0.41-2.37,0.775
	c-0.48,0.09-1.563,0.18-2.605,0.182c-1.044,0.003-2.063,0.013-2.471,0.227c-0.405,0.213-0.198,0.63,1.215,1.447
	c-5.565-1.822-10.197-1.467-2.488,2.189C274.401,438.83,274.801,450.6,281.254,444.891z"/>
<circle fill="none" stroke="#231F20" stroke-miterlimit="10" cx="305" cy="440" r="2.5"/>
</svg>
