<?xml version="1.0" encoding="utf-8"?>
<!-- Generator: Adobe Illustrator 16.0.0, SVG Export Plug-In . SVG Version: 6.00 Build 0)  -->
<svg version="1.1" id="Layer_1" xmlns="http://www.w3.org/2000/svg" xmlns:xlink="http://www.w3.org/1999/xlink" x="0px" y="0px"
	 width="612px" height="792px" viewBox="0 0 612 792" enable-background="new 0 0 612 792" xml:space="preserve">
<rect id="head_frame_1_" x="230.5" y="331.5" fill-opacity="0" fill="#231F20" width="151" height="131"/>
<path fill="#FFA4A4" stroke="#231F20" stroke-miterlimit="10" d="M344.259,390.104c-3.415,12.98-8.711,27.244-19.558,20.912
	c-7.594-4.432-15.517-6.49-21-9.812c-0.365-0.222-0.714-0.42-1.042-0.461C296.82,400,290.82,402,287.82,407c-1,2,0,6,1,7
	c13,6,25,15,22,31c-1,4-7,6-10,3c-5-5,1-15-5-17c-13-5-23-15-19-28c3-9,12-12,19.824-14.058c0.007-0.256,0.019-0.516,0.035-0.781
	c0.085-1.326,0.301-2.771,0.662-4.353c3.063-13.412,1.6-18.769,13.021-18.769C321.782,365.04,349.004,372.061,344.259,390.104z"/>
<path fill="#FFA4A4" stroke="#231F20" stroke-miterlimit="10" d="M344.259,390.104c-3.415,12.98-8.711,27.244-19.558,20.912
	c-15.187-8.865-31.693-8.23-27.359-27.207c3.063-13.412,1.6-18.769,13.021-18.769C321.782,365.04,349.004,372.061,344.259,390.104z"
	/>
<path id="SECONDARY_5_" fill="#FFFA00" stroke="#231F20" stroke-miterlimit="10" d="M336.555,402.178
	c5.164,5.732,10.559,12.586,15.611,16.142c0.683,0.451,1.374,0.886,2.063,1.317c3.442,2.156,6.878,4.288,9.496,8.436
	c0.365,0.393,0.747,0.791,1.176,1.199c1.516,1.453,3.928,3.58,6.748,3.691c-4.377,2.836-10.504,4.232-14.528,0.744
	c0,0-0.484-0.417-1.341-1.16c-0.429-0.372-0.95-0.823-1.556-1.348c-5.52-3.593-11.321-7.467-16.56-12.863
	c-0.652-0.672-1.299-1.369-1.947-2.102c-0.675-0.641-7.346-7.036-8.019-7.689"/>
<path id="SECONDARY_4_" fill="#FFFA00" stroke="#231F20" stroke-miterlimit="10" d="M331.998,402.215
	c0.077,0.002,0.155,0.001,0.233-0.001c1.048-0.023,2.253,0.126,3.099,0.594c8.715,4.798,18.773,6.905,25.856,5.952
	c0.988,0.154,1.842,0.289,2.542,0.399c1.406,0.22,2.194,0.345,2.194,0.345c3.13,3.104,6.559,2.914,8.062,6.848
	c1.923,0.893,3.6,2.564,4.196,5.713c4.395-4.537,0.886-24.117-8.996-24.866c0,0-0.685-0.054-1.904-0.145
	c-0.608-0.048-1.35-0.104-2.209-0.168c-6.938-1.677-14.304-3.348-22.406-3.135c-1.012,0.026-2.035,0.082-3.084,0.166
	c-1.087-0.024-2.178-0.042-3.271-0.049"/>
<ellipse fill="#FFFFFF" stroke="#231F20" stroke-miterlimit="10" cx="319.669" cy="382.291" rx="4.779" ry="3.804"/>
<ellipse fill="#231F20" cx="322.196" cy="382.291" rx="0.951" ry="0.757"/>
<rect x="314.145" y="374.915" transform="matrix(0.9837 0.1799 -0.1799 0.9837 72.879 -51.3598)" fill="#231F20" width="11.049" height="2.61"/>
<ellipse fill="#FFFFFF" stroke="#231F20" stroke-miterlimit="10" cx="335.572" cy="382.576" rx="4.779" ry="3.805"/>
<rect x="330.047" y="375.201" transform="matrix(0.9853 -0.171 0.171 0.9853 -59.4315 62.9178)" fill="#231F20" width="11.049" height="2.61"/>
<ellipse fill="#231F20" cx="338.112" cy="382.576" rx="0.951" ry="0.757"/>
</svg>
