<?xml version="1.0" encoding="utf-8"?>
<!-- Generator: Adobe Illustrator 16.0.0, SVG Export Plug-In . SVG Version: 6.00 Build 0)  -->
<svg version="1.1" id="Layer_1" xmlns="http://www.w3.org/2000/svg" xmlns:xlink="http://www.w3.org/1999/xlink" x="0px" y="0px"
	 width="612px" height="792px" viewBox="0 0 612 792" enable-background="new 0 0 612 792" xml:space="preserve">
<rect id="head_frame_1_" x="230.5" y="331.5" fill-opacity="0" fill="#231F20" width="151" height="131"/>
<path fill="#FFA4A4" stroke="#231F20" stroke-miterlimit="10" d="M344.438,390.104c-3.415,12.98-8.711,27.244-19.558,20.912
	c-7.594-4.432-15.517-6.49-21-9.812c-0.365-0.222-0.714-0.42-1.042-0.461C297,400,291,402,288,407c-1,2,0,6,1,7c13,6,25,15,22,31
	c-1,4-7,6-10,3c-5-5,1-15-5-17c-13-5-23-15-19-28c3-9,12-12,19.824-14.058c0.007-0.256,0.019-0.516,0.035-0.781
	c0.085-1.326,0.301-2.771,0.662-4.353c3.063-13.412,1.6-18.769,13.021-18.769C321.962,365.04,349.184,372.061,344.438,390.104z"/>
<path fill="#FFA4A4" stroke="#231F20" stroke-miterlimit="10" d="M344.438,390.104c-3.415,12.98-8.711,27.244-19.558,20.912
	c-15.187-8.865-31.693-8.23-27.359-27.207c3.063-13.412,1.6-18.769,13.021-18.769C321.962,365.04,349.184,372.061,344.438,390.104z"
	/>
<path id="SECONDARY_1_" fill="#FFFA00" stroke="#231F20" stroke-miterlimit="10" d="M332.607,402.28
	c7.309,2.472,15.368,5.808,21.514,6.437c0.816,0.059,1.632,0.1,2.443,0.139c4.059,0.197,8.097,0.374,12.409,2.709
	c0.511,0.165,1.039,0.324,1.612,0.471c2.034,0.526,5.178,1.2,7.692-0.082c-2.43,4.613-7.09,8.83-12.306,7.759
	c0,0-0.627-0.128-1.737-0.356c-0.556-0.114-1.231-0.253-2.016-0.414c-6.572-0.432-13.527-0.971-20.736-3.113
	c-0.898-0.267-1.804-0.559-2.727-0.88c-0.902-0.228-9.85-2.54-10.757-2.781"/>
<path id="SECONDARY" fill="#FFFA00" stroke="#231F20" stroke-miterlimit="10" d="M332.178,402.215
	c0.077,0.002,0.155,0.001,0.233-0.001c1.048-0.023,2.253,0.126,3.099,0.594c8.715,4.798,18.773,6.905,25.856,5.952
	c0.988,0.154,1.842,0.289,2.542,0.399c1.406,0.22,2.194,0.345,2.194,0.345c3.13,3.104,6.559,2.914,8.062,6.848
	c1.923,0.893,3.6,2.564,4.196,5.713c4.395-4.537,0.886-24.117-8.996-24.866c0,0-0.685-0.054-1.904-0.145
	c-0.608-0.048-1.35-0.104-2.209-0.168c-6.938-1.677-14.304-3.348-22.406-3.135c-1.012,0.026-2.035,0.082-3.084,0.166
	c-1.087-0.024-2.178-0.042-3.271-0.049"/>
<ellipse fill="#FFFFFF" stroke="#231F20" stroke-miterlimit="10" cx="319.849" cy="382.291" rx="4.779" ry="3.804"/>
<ellipse fill="#231F20" cx="321.398" cy="382.291" rx="1.548" ry="1.233"/>
<rect x="314.324" y="377.915" transform="matrix(0.9837 0.1799 -0.1799 0.9837 73.4215 -51.3432)" fill="#231F20" width="11.049" height="2.61"/>
<ellipse fill="#FFFFFF" stroke="#231F20" stroke-miterlimit="10" cx="335.751" cy="382.576" rx="4.779" ry="3.805"/>
<ellipse fill="#231F20" cx="337.3" cy="382.576" rx="1.548" ry="1.233"/>
<rect x="330.227" y="378.201" transform="matrix(0.9853 -0.171 0.171 0.9853 -59.9418 62.9927)" fill="#231F20" width="11.049" height="2.61"/>
</svg>
