<?xml version="1.0" encoding="utf-8"?>
<!-- Generator: Adobe Illustrator 16.0.0, SVG Export Plug-In . SVG Version: 6.00 Build 0)  -->
<svg version="1.1" id="Layer_1" xmlns="http://www.w3.org/2000/svg" xmlns:xlink="http://www.w3.org/1999/xlink" x="0px" y="0px"
	 width="612px" height="792px" viewBox="0 0 612 792" enable-background="new 0 0 612 792" xml:space="preserve">
<rect id="head_frame_1_" x="230.5" y="331.5" fill-opacity="0" fill="#231F20" width="151" height="131"/>
<path fill="#FFA4A4" stroke="#231F20" stroke-miterlimit="10" d="M344.271,390.104c-3.414,12.98-8.711,27.244-19.557,20.912
	c-7.594-4.432-15.518-6.49-21-9.812c-0.365-0.222-0.715-0.42-1.043-0.461C296.833,400,290.833,402,287.833,407c-1,2,0,6,1,7
	c13,6,25,15,22,31c-1,4-7,6-10,3c-5-5,1-15-5-17c-13-5-23-15-19-28c3-9,12-12,19.824-14.058c0.006-0.256,0.018-0.516,0.035-0.781
	c0.084-1.326,0.301-2.771,0.662-4.353c3.063-13.412,1.6-18.769,13.02-18.769S349.017,372.061,344.271,390.104z"/>
<path fill="#FFA4A4" stroke="#231F20" stroke-miterlimit="10" d="M344.271,390.104c-3.414,12.98-8.711,27.244-19.557,20.912
	c-15.188-8.865-31.693-8.23-27.359-27.207c3.063-13.412,1.6-18.769,13.02-18.769S349.017,372.061,344.271,390.104z"/>
<path id="SECONDARY_3_" fill="#FFFA00" stroke="#231F20" stroke-miterlimit="10" d="M334.26,401.346
	c5.667,5.234,11.666,11.566,17.023,14.645c0.721,0.387,1.448,0.756,2.174,1.123c3.626,1.833,7.24,3.641,10.228,7.53
	c0.4,0.358,0.816,0.72,1.282,1.087c1.642,1.309,4.238,3.206,7.056,3.06c-4.098,3.223-10.072,5.175-14.397,2.071
	c0,0-0.521-0.372-1.442-1.034c-0.46-0.331-1.021-0.733-1.673-1.199c-5.824-3.073-11.956-6.399-17.666-11.294
	c-0.713-0.609-1.419-1.244-2.132-1.914c-0.731-0.576-7.959-6.334-8.689-6.924"/>
<path id="SECONDARY_2_" fill="#FFFA00" stroke="#231F20" stroke-miterlimit="10" d="M332.011,402.215
	c0.076,0.002,0.154,0.001,0.232-0.001c1.049-0.023,2.254,0.126,3.1,0.594c8.715,4.798,18.773,6.905,25.855,5.952
	c0.988,0.154,1.842,0.289,2.543,0.399c1.406,0.22,2.193,0.345,2.193,0.345c3.131,3.104,6.559,2.914,8.063,6.848
	c1.922,0.893,3.6,2.564,4.195,5.713c4.395-4.537,0.887-24.117-8.996-24.866c0,0-0.684-0.054-1.904-0.145
	c-0.607-0.048-1.35-0.104-2.209-0.168c-6.938-1.677-14.303-3.348-22.406-3.135c-1.012,0.026-2.035,0.082-3.084,0.166
	c-1.086-0.024-2.178-0.042-3.27-0.049"/>
<ellipse fill="#FFA4A4" stroke="#231F20" stroke-miterlimit="10" cx="319.682" cy="382.291" rx="4.778" ry="3.804"/>
<rect x="314.157" y="376.915" transform="matrix(0.8953 0.4454 -0.4454 0.8953 201.9442 -102.8044)" fill="#231F20" width="11.049" height="2.61"/>
<ellipse fill="#FFA4A4" stroke="#231F20" stroke-miterlimit="10" cx="335.584" cy="382.576" rx="4.778" ry="3.805"/>
<rect x="330.059" y="377.201" transform="matrix(0.9063 -0.4225 0.4225 0.9063 -128.506 177.2504)" fill="#231F20" width="11.05" height="2.61"/>
<line fill="none" stroke="#231F20" stroke-miterlimit="10" x1="323" y1="380.125" x2="316.177" y2="384.87"/>
<line fill="none" stroke="#231F20" stroke-miterlimit="10" x1="332.011" y1="380.125" x2="338.75" y2="384.87"/>
</svg>
