<?xml version="1.0" encoding="utf-8"?>
<!-- Generator: Adobe Illustrator 16.0.0, SVG Export Plug-In . SVG Version: 6.00 Build 0)  -->
<svg version="1.1" id="Layer_1" xmlns="http://www.w3.org/2000/svg" xmlns:xlink="http://www.w3.org/1999/xlink" x="0px" y="0px"
	 width="612px" height="792px" viewBox="0 0 612 792" enable-background="new 0 0 612 792" xml:space="preserve">
<rect id="head_frame_1_" x="178" y="286" fill="#231F20" fill-opacity="0" width="256" height="222"/>
<path fill="#FFA4A4" stroke="#231F20" stroke-width="1.695" stroke-miterlimit="10" d="M371.166,385.313
	c-5.788,21.997-14.769,46.169-33.158,35.438c-12.874-7.511-26.306-10.997-35.602-16.627c-0.619-0.376-1.21-0.712-1.767-0.781
	c-9.897-1.26-20.07,2.13-25.156,10.603c-1.695,3.39,0,10.168,1.695,11.863c22.04,10.168,42.384,25.419,37.298,52.534
	c-1.695,6.778-11.867,10.168-16.953,5.084c-8.477-8.474,1.695-25.42-8.477-28.81c-22.04-8.474-38.993-25.42-32.212-47.45
	c5.086-15.252,20.344-20.336,33.609-23.824c0.011-0.434,0.031-0.875,0.059-1.323c0.144-2.247,0.511-4.696,1.123-7.376
	c5.193-22.729,2.713-31.807,22.075-31.807C333.062,342.839,379.212,354.737,371.166,385.313z"/>
<path fill="#FFA4A4" stroke="#231F20" stroke-width="1.695" stroke-miterlimit="10" d="M371.166,385.313
	c-5.788,21.997-14.769,46.169-33.158,35.438c-25.746-15.022-53.73-13.946-46.383-46.106c5.193-22.729,2.713-31.807,22.075-31.807
	C333.062,342.839,379.212,354.737,371.166,385.313z"/>
<path id="SECONDARY_1_" fill="#FFFA00" stroke="#231F20" stroke-width="1.695" stroke-miterlimit="10" d="M351.109,405.948
	c12.391,4.188,26.053,9.842,36.474,10.907c1.384,0.102,2.767,0.171,4.143,0.237c6.88,0.332,13.727,0.634,21.036,4.591
	c0.867,0.279,1.762,0.548,2.733,0.798c3.448,0.892,8.778,2.033,13.041-0.14c-4.12,7.818-12.021,14.964-20.864,13.148
	c0,0-1.063-0.217-2.943-0.603c-0.943-0.193-2.088-0.428-3.419-0.701c-11.141-0.733-22.932-1.646-35.154-5.276
	c-1.522-0.451-3.06-0.946-4.624-1.49c-1.529-0.388-16.698-4.305-18.236-4.714"/>
<path id="SECONDARY" fill="#FFFA00" stroke="#231F20" stroke-width="1.695" stroke-miterlimit="10" d="M350.381,405.837
	c0.131,0.004,0.264,0.002,0.396-0.001c1.776-0.038,3.819,0.213,5.254,1.006c14.774,8.133,31.827,11.702,43.836,10.087
	c1.674,0.262,3.122,0.49,4.31,0.677c2.384,0.372,3.719,0.584,3.719,0.584c5.308,5.262,11.12,4.938,13.668,11.604
	c3.261,1.515,6.104,4.347,7.114,9.684c7.451-7.689,1.502-40.87-15.251-42.14c0,0-1.162-0.093-3.229-0.247
	c-1.031-0.081-2.288-0.175-3.745-0.284c-11.762-2.842-24.25-5.673-37.987-5.313c-1.715,0.044-3.45,0.139-5.229,0.281
	c-1.842-0.041-3.691-0.071-5.544-0.083"/>
<ellipse fill="#FFFFFF" stroke="#231F20" stroke-width="1.695" stroke-miterlimit="10" cx="329.479" cy="372.073" rx="8.103" ry="6.447"/>
<ellipse fill="#231F20" cx="332.105" cy="372.073" rx="2.625" ry="2.089"/>
<rect x="320.088" y="364.685" transform="matrix(-0.9837 -0.1798 0.1798 -0.9837 587.5612 787.0553)" fill="#231F20" width="18.733" height="4.423"/>
<ellipse fill="#FFFFFF" stroke="#231F20" stroke-width="1.695" stroke-miterlimit="10" cx="356.438" cy="372.556" rx="8.103" ry="6.448"/>
<ellipse fill="#231F20" cx="359.064" cy="372.556" rx="2.624" ry="2.09"/>
<rect x="347.105" y="365.143" transform="matrix(-0.9853 0.171 -0.171 -0.9853 770.4985 668.3573)" fill="#231F20" width="18.733" height="4.424"/>
</svg>
