<?xml version="1.0" encoding="utf-8"?>
<!-- Generator: Adobe Illustrator 16.0.0, SVG Export Plug-In . SVG Version: 6.00 Build 0)  -->
<svg version="1.1" id="Layer_1" xmlns="http://www.w3.org/2000/svg" xmlns:xlink="http://www.w3.org/1999/xlink" x="0px" y="0px"
	 width="612px" height="792px" viewBox="0 0 612 792" enable-background="new 0 0 612 792" xml:space="preserve">
<rect id="head_frame_1_" x="178" y="286" fill="#231F20" fill-opacity="0" width="256" height="222"/>
<path fill="#FFA4A4" stroke="#231F20" stroke-width="1.695" stroke-miterlimit="10" d="M370.884,385.313
	c-5.788,21.997-14.77,46.169-33.157,35.438c-12.874-7.511-26.308-10.997-35.603-16.627c-0.618-0.376-1.212-0.712-1.768-0.781
	c-9.897-1.26-20.069,2.13-25.156,10.603c-1.695,3.39,0,10.168,1.695,11.863c22.04,10.168,42.385,25.419,37.298,52.534
	c-1.695,6.778-11.867,10.168-16.953,5.084c-8.477-8.474,1.695-25.42-8.477-28.81c-22.04-8.474-38.993-25.42-32.212-47.45
	c5.086-15.252,20.344-20.336,33.609-23.824c0.01-0.434,0.03-0.875,0.059-1.323c0.143-2.247,0.511-4.696,1.123-7.376
	c5.193-22.729,2.713-31.807,22.074-31.807C332.776,342.837,378.929,354.737,370.884,385.313z"/>
<path fill="#FFA4A4" stroke="#231F20" stroke-width="1.695" stroke-miterlimit="10" d="M370.884,385.313
	c-5.788,21.997-14.77,46.169-33.157,35.438c-25.748-15.022-53.73-13.946-46.383-46.106c5.193-22.729,2.712-31.807,22.073-31.807
	C332.778,342.839,378.929,354.737,370.884,385.313z"/>
<path id="SECONDARY_3_" fill="#FFFA00" stroke="#231F20" stroke-width="1.695" stroke-miterlimit="10" d="M353.91,404.364
	c9.608,8.871,19.778,19.602,28.861,24.819c1.222,0.655,2.455,1.281,3.686,1.903c6.147,3.106,12.274,6.169,17.34,12.76
	c0.679,0.607,1.384,1.221,2.174,1.843c2.784,2.218,7.185,5.432,11.963,5.186c-6.948,5.461-17.076,8.77-24.409,3.51
	c0,0-0.882-0.63-2.445-1.752c-0.779-0.562-1.729-1.243-2.836-2.032c-9.872-5.209-20.27-10.844-29.95-19.14
	c-1.209-1.033-2.405-2.108-3.614-3.244c-1.238-0.977-13.493-10.733-14.73-11.733"/>
<path id="SECONDARY_2_" fill="#FFFA00" stroke="#231F20" stroke-width="1.695" stroke-miterlimit="10" d="M350.098,405.837
	c0.129,0.004,0.262,0.002,0.395-0.001c1.777-0.038,3.82,0.213,5.255,1.006c14.774,8.133,31.827,11.702,43.834,10.087
	c1.674,0.262,3.123,0.49,4.312,0.677c2.384,0.372,3.717,0.584,3.717,0.584c5.31,5.262,11.121,4.938,13.671,11.604
	c3.258,1.515,6.103,4.347,7.112,9.684c7.45-7.689,1.503-40.87-15.252-42.14c0,0-1.16-0.093-3.229-0.247
	c-1.029-0.081-2.288-0.175-3.745-0.284c-11.763-2.842-24.248-5.673-37.986-5.313c-1.716,0.044-3.45,0.139-5.229,0.281
	c-1.841-0.041-3.692-0.071-5.543-0.083"/>
<ellipse fill="#FFA4A4" stroke="#231F20" stroke-width="1.695" stroke-miterlimit="10" cx="329.195" cy="372.073" rx="8.102" ry="6.447"/>
<rect x="319.854" y="362.932" transform="matrix(-0.8954 -0.4452 0.4452 -0.8954 461.4337 838.6785)" fill="#231F20" width="18.73" height="4.424"/>
<ellipse fill="#FFA4A4" stroke="#231F20" stroke-width="1.695" stroke-miterlimit="10" cx="356.155" cy="372.556" rx="8.102" ry="6.448"/>
<rect x="346.737" y="363.448" transform="matrix(-0.9064 0.4224 -0.4224 -0.9064 833.3263 546.6926)" fill="#231F20" width="18.731" height="4.423"/>
<line fill="none" stroke="#231F20" stroke-width="1.695" stroke-miterlimit="10" x1="334.821" y1="368.403" x2="323.253" y2="376.444"/>
<line fill="none" stroke="#231F20" stroke-width="1.695" stroke-miterlimit="10" x1="350.098" y1="368.403" x2="361.523" y2="376.444"/>
</svg>
