<?xml version="1.0" encoding="utf-8"?>
<!-- Generator: Adobe Illustrator 16.0.0, SVG Export Plug-In . SVG Version: 6.00 Build 0)  -->
<svg version="1.1" id="Layer_1" xmlns="http://www.w3.org/2000/svg" xmlns:xlink="http://www.w3.org/1999/xlink" x="0px" y="0px"
	 width="612px" height="792px" viewBox="0 0 612 792" enable-background="new 0 0 612 792" xml:space="preserve">
<rect x="254.5" y="378.606" fill-opacity="0" fill="#231F20" width="105" height="34"/>
<path id="PRIMARY_6_" fill="#666666" stroke="#231F20" stroke-miterlimit="10" d="M264.563,391.391
	c-12.383,0.366-11.152,2.77,1.692,5.765c-12.845-2.994-7.87,7.382,4.444,4.097c-12.313,3.285-3.925,9.416,6.252,1.56
	c-10.173,7.856-5.183,9.569,2.766,0c-7.919,9.57,2.884,10.589,7.286,0c-4.271,10.595,5.611,10.716,10.304,0
	c-4.405,10.745,7.505,9.666,11.81,0c-2.474,9.729,12.895,9.176,11.81,0c2.646,9.37,7.158,10.248,10.305,0
	c-3.141,10.248,0.849,9.651,7.286,0c-6.438,9.651-4.144,9.325,2.765,0c-6.908,9.325-0.512,7.983,6.253-1.56
	c-6.765,9.543,1.693,6.544,4.443-4.097c-2.75,10.64,9.166,2.044,1.692-5.765c7.474,7.809,7.474,7.809,0,0
	c7.474,7.809,6.392-2.674-1.692-5.765c8.084,3.091,3.842,0.853-4.443-4.097c8.251,4.933,0.132,0.423-6.253-1.56
	c4.957,1.982-0.589,0.155-2.765,0c-1.759,0-4.271,0-7.286,0c-18.092,0-54.279,0-54.279,0c-2.28,0-4.416,0.568-6.252,1.56
	c-1.835,0.991-9.63,6.005-4.444,4.097C259.546,389.634,252.182,391.737,264.563,391.391
	C252.18,391.75,252.18,391.75,264.563,391.391z"/>
</svg>
