<?xml version="1.0" encoding="utf-8"?>
<!-- Generator: Adobe Illustrator 16.0.0, SVG Export Plug-In . SVG Version: 6.00 Build 0)  -->
<svg version="1.1" id="Layer_1" xmlns="http://www.w3.org/2000/svg" xmlns:xlink="http://www.w3.org/1999/xlink" x="0px" y="0px"
	 width="612px" height="792px" viewBox="0 0 612 792" enable-background="new 0 0 612 792" xml:space="preserve">
<rect x="240.5" y="269.112" fill="#231F20" fill-opacity="0" width="133" height="254.822"/>
<path id="SECONDARY_6_" fill="#FFFA00" stroke="#231F20" stroke-width="2.3376" stroke-miterlimit="10" d="M323.76,505.377
	c0,10.319-8.023,18.684-17.926,18.684l0,0c-9.901,0-17.927-8.361-17.927-18.684V288.908c0-10.313,8.026-18.682,17.927-18.682l0,0
	c9.901,0,17.926,8.366,17.926,18.682V505.377z"/>
<path fill="none" stroke="#231F20" stroke-width="2.3376" stroke-miterlimit="10" d="M287.906,320.01
	c0,13.192,35.854,13.342,35.854,0"/>
<path fill="none" stroke="#231F20" stroke-width="2.3376" stroke-miterlimit="10" d="M287.906,300.379
	c0,13.193,35.854,13.343,35.854,0"/>
<path fill="none" stroke="#231F20" stroke-width="2.3376" stroke-miterlimit="10" d="M287.906,339.64
	c0,13.192,35.854,13.342,35.854,0"/>
<path fill="none" stroke="#231F20" stroke-width="2.3376" stroke-miterlimit="10" d="M287.906,359.268
	c0,13.193,35.854,13.343,35.854,0"/>
<path fill="none" stroke="#231F20" stroke-width="2.3376" stroke-miterlimit="10" d="M287.906,378.899
	c0,13.192,35.854,13.342,35.854,0"/>
<path fill="none" stroke="#231F20" stroke-width="2.3376" stroke-miterlimit="10" d="M287.906,398.527
	c0,13.191,35.854,13.343,35.854,0"/>
<path fill="none" stroke="#231F20" stroke-width="2.3376" stroke-miterlimit="10" d="M287.906,418.157
	c0,13.191,35.854,13.343,35.854,0"/>
<path fill="none" stroke="#231F20" stroke-width="2.3376" stroke-miterlimit="10" d="M287.906,437.787
	c0,13.191,35.854,13.343,35.854,0"/>
<path fill="none" stroke="#231F20" stroke-width="2.3376" stroke-miterlimit="10" d="M287.906,457.417
	c0,13.194,35.854,13.343,35.854,0"/>
<path fill="none" stroke="#231F20" stroke-width="2.3376" stroke-miterlimit="10" d="M287.906,477.047
	c0,13.192,35.854,13.341,35.854,0"/>
<path fill="none" stroke="#231F20" stroke-width="2.3376" stroke-miterlimit="10" d="M287.906,496.678
	c0,13.191,35.854,13.342,35.854,0"/>
<ellipse fill="none" stroke="#231F20" stroke-width="2.3376" stroke-miterlimit="10" cx="307" cy="293.585" rx="5.833" ry="5.855"/>
</svg>
