<?xml version="1.0" encoding="utf-8"?>
<!-- Generator: Adobe Illustrator 16.0.0, SVG Export Plug-In . SVG Version: 6.00 Build 0)  -->
<svg version="1.1" id="Layer_1" xmlns="http://www.w3.org/2000/svg" xmlns:xlink="http://www.w3.org/1999/xlink" x="0px" y="0px"
	 width="612px" height="792px" viewBox="0 0 612 792" enable-background="new 0 0 612 792" xml:space="preserve">
<rect x="178.582" y="332.579" fill="#231F20" fill-opacity="0" width="256" height="128.055"/>
<path id="SECONDARY_8_" fill="#FFFA00" stroke="#231F20" stroke-width="3.6584" stroke-miterlimit="10" d="M308.777,450.841
	c0,5.066-12.579,9.168-28.108,9.168l0,0c-15.519,0-28.103-4.102-28.103-9.168v-106.18c0-5.061,12.581-9.167,28.103-9.167l0,0
	c15.525,0,28.108,4.105,28.108,9.167V450.841z"/>
<path fill="none" stroke="#231F20" stroke-width="3.6584" stroke-miterlimit="10" d="M252.569,354.433
	c0,16.603,56.215,16.792,56.215,0"/>
<path fill="none" stroke="#231F20" stroke-width="3.6584" stroke-miterlimit="10" d="M252.569,379.139
	c0,16.6,56.215,16.789,56.215,0"/>
<path fill="none" stroke="#231F20" stroke-width="3.6584" stroke-miterlimit="10" d="M252.569,403.839
	c0,16.604,56.215,16.793,56.215,0"/>
<path fill="none" stroke="#231F20" stroke-width="3.6584" stroke-miterlimit="10" d="M252.569,428.542
	c0,16.604,56.215,16.793,56.215,0"/>
<path id="SECONDARY_10_" fill="#FFFA00" stroke="#231F20" stroke-width="3.6584" stroke-miterlimit="10" d="M413.411,442.697
	c-1.021,8.683-8.881,14.893-17.565,13.874l-88.466-10.383c-8.677-1.021-14.892-8.89-13.872-17.568l0,0
	c1.021-8.682,8.89-14.892,17.566-13.873l88.465,10.383C408.221,426.151,414.43,434.016,413.411,442.697L413.411,442.697z"/>
<path fill="none" stroke="#231F20" stroke-width="3.6584" stroke-miterlimit="10" d="M394.184,458.144
	c-8.988-1.215-4.986-31.663,4.108-30.435"/>
<path fill="none" stroke="#231F20" stroke-width="3.6584" stroke-miterlimit="10" d="M374.071,455.428
	c-8.988-1.215-4.977-31.663,4.108-30.438"/>
<path fill="none" stroke="#231F20" stroke-width="3.6584" stroke-miterlimit="10" d="M353.965,452.713
	c-8.98-1.211-4.983-31.667,4.108-30.438"/>
<path fill="none" stroke="#231F20" stroke-width="3.6584" stroke-miterlimit="10" d="M333.859,449.997
	c-8.988-1.211-4.98-31.667,4.108-30.438"/>
<path fill="none" stroke="#231F20" stroke-width="3.6584" stroke-miterlimit="10" d="M313.686,447.761
	c-8.985-1.212-4.987-31.667,4.108-30.438"/>
<path id="SECONDARY_9_" fill="#FFFA00" stroke="#231F20" stroke-width="3.6584" stroke-miterlimit="10" d="M394.077,442.977
	c0,8.743-7.088,15.828-15.826,15.828h-89.069c-8.74,0-15.826-7.089-15.826-15.828l0,0c0-8.746,7.086-15.828,15.826-15.828h89.069
	C386.992,427.148,394.077,434.233,394.077,442.977L394.077,442.977z"/>
<path fill="none" stroke="#231F20" stroke-width="3.6584" stroke-miterlimit="10" d="M373.979,457.851
	c-9.067,0-9.178-30.717,0-30.717"/>
<path fill="none" stroke="#231F20" stroke-width="3.6584" stroke-miterlimit="10" d="M353.683,457.851
	c-9.07,0-9.167-30.717,0-30.717"/>
<path fill="none" stroke="#231F20" stroke-width="3.6584" stroke-miterlimit="10" d="M333.395,457.851
	c-9.066,0-9.174-30.717,0-30.717"/>
<path fill="none" stroke="#231F20" stroke-width="3.6584" stroke-miterlimit="10" d="M313.106,457.851
	c-9.07,0-9.172-30.717,0-30.717"/>
<path fill="none" stroke="#231F20" stroke-width="3.6584" stroke-miterlimit="10" d="M292.813,458.333
	c-9.069,0-9.178-30.717,0-30.717"/>
<polygon fill="#FFFFFF" stroke="#231F20" stroke-width="3.6584" stroke-miterlimit="10" points="405.776,443.388 409.163,432.829 
	425.207,450.43 402.394,453.952 "/>
<polygon fill="#FFFFFF" stroke="#231F20" stroke-width="3.6584" stroke-miterlimit="10" points="384.224,445.363 387.61,434.805 
	403.654,452.405 380.841,455.928 "/>
</svg>
