<?xml version="1.0" encoding="utf-8"?>
<!-- Generator: Adobe Illustrator 16.0.0, SVG Export Plug-In . SVG Version: 6.00 Build 0)  -->
<svg version="1.1" id="Layer_1" xmlns="http://www.w3.org/2000/svg" xmlns:xlink="http://www.w3.org/1999/xlink" x="0px" y="0px"
	 width="612px" height="792px" viewBox="0 0 612 792" enable-background="new 0 0 612 792" xml:space="preserve">
<rect x="179.138" y="353.606" fill="#231F20" fill-opacity="0" width="255.724" height="84"/>
<path id="PRIMARY_6_" fill="#666666" stroke="#231F20" stroke-width="2.4529" stroke-miterlimit="10" d="M203.646,385.192
	c-30.158,0.904-27.16,6.844,4.121,14.243c-31.283-7.397-19.167,18.237,10.824,10.121c-29.989,8.116-9.56,23.263,15.227,3.854
	c-24.777,19.409-12.624,23.641,6.735,0c-19.286,23.644,7.024,26.162,17.745,0c-10.402,26.177,13.665,26.476,25.096,0
	c-10.729,26.546,18.278,23.88,28.763,0c-6.027,24.037,31.404,22.671,28.762,0c6.445,23.148,17.434,25.318,25.1,0
	c-7.651,25.318,2.066,23.844,17.742,0c-15.678,23.844-10.091,23.038,6.735,0c-16.824,23.038-1.246,19.723,15.229-3.854
	c-16.478,23.576,4.121,16.167,10.819-10.121c-6.698,26.286,22.323,5.05,4.121-14.243c18.202,19.293,18.202,19.293,0,0
	c18.202,19.293,15.566-6.607-4.121-14.243c19.688,7.636,9.358,2.107-10.819-10.123c20.095,12.188,0.321,1.046-15.229-3.854
	c12.073,4.897-1.434,0.383-6.735,0c-4.283,0-10.4,0-17.742,0c-44.064,0-132.196,0-132.196,0c-5.553,0-10.755,1.404-15.226,3.854
	c-4.469,2.449-23.455,14.837-10.824,10.123C191.427,380.851,173.493,386.047,203.646,385.192
	C173.488,386.079,173.488,386.079,203.646,385.192z"/>
</svg>
