<?xml version="1.0" encoding="utf-8"?>
<!-- Generator: Adobe Illustrator 16.0.0, SVG Export Plug-In . SVG Version: 6.00 Build 0)  -->
<svg version="1.1" id="Layer_1" xmlns="http://www.w3.org/2000/svg" xmlns:xlink="http://www.w3.org/1999/xlink" x="0px" y="0px"
	 width="612px" height="792px" viewBox="0 0 612 792" enable-background="new 0 0 612 792" xml:space="preserve">
<rect x="278.5" y="342.156" fill-opacity="0" fill="#231F20" width="57" height="108.807"/>
<path id="SECONDARY_6_" fill="#FFFA00" stroke="#231F20" stroke-miterlimit="10" d="M314.183,443.039
	c0,4.406-3.439,7.978-7.683,7.978l0,0c-4.243,0-7.683-3.571-7.683-7.978v-92.43c0-4.404,3.44-7.977,7.683-7.977l0,0
	c4.243,0,7.683,3.572,7.683,7.977V443.039z"/>
<path fill="none" stroke="#231F20" stroke-miterlimit="10" d="M298.817,363.889c0,5.633,15.366,5.697,15.366,0"/>
<path fill="none" stroke="#231F20" stroke-miterlimit="10" d="M298.817,355.507c0,5.633,15.366,5.697,15.366,0"/>
<path fill="none" stroke="#231F20" stroke-miterlimit="10" d="M298.817,372.271c0,5.633,15.366,5.697,15.366,0"/>
<path fill="none" stroke="#231F20" stroke-miterlimit="10" d="M298.817,380.652c0,5.633,15.366,5.697,15.366,0"/>
<path fill="none" stroke="#231F20" stroke-miterlimit="10" d="M298.817,389.034c0,5.633,15.366,5.697,15.366,0"/>
<path fill="none" stroke="#231F20" stroke-miterlimit="10" d="M298.817,397.415c0,5.633,15.366,5.697,15.366,0"/>
<path fill="none" stroke="#231F20" stroke-miterlimit="10" d="M298.817,405.797c0,5.633,15.366,5.697,15.366,0"/>
<path fill="none" stroke="#231F20" stroke-miterlimit="10" d="M298.817,414.179c0,5.633,15.366,5.697,15.366,0"/>
<path fill="none" stroke="#231F20" stroke-miterlimit="10" d="M298.817,422.561c0,5.633,15.366,5.697,15.366,0"/>
<path fill="none" stroke="#231F20" stroke-miterlimit="10" d="M298.817,430.942c0,5.633,15.366,5.697,15.366,0"/>
<path fill="none" stroke="#231F20" stroke-miterlimit="10" d="M298.817,439.324c0,5.633,15.366,5.697,15.366,0"/>
<circle fill="none" stroke="#231F20" stroke-miterlimit="10" cx="307" cy="352.606" r="2.5"/>
</svg>
