<?xml version="1.0" encoding="utf-8"?>
<!-- Generator: Adobe Illustrator 16.0.0, SVG Export Plug-In . SVG Version: 6.00 Build 0)  -->
<svg version="1.1" id="Layer_1" xmlns="http://www.w3.org/2000/svg" xmlns:xlink="http://www.w3.org/1999/xlink" x="0px" y="0px"
	 width="612px" height="792px" viewBox="0 0 612 792" enable-background="new 0 0 612 792" xml:space="preserve">
<rect x="236.5" y="268.88" fill="#231F20" fill-opacity="0" width="141" height="255.286"/>
<path id="SECONDARY_7_" fill="#FFFA00" stroke="#231F20" stroke-width="2.4746" stroke-miterlimit="10" d="M324.77,469.3
	c0,8.788-8.505,15.91-19.004,15.91l0,0c-10.494,0-19.006-7.122-19.006-15.91V284.967c0-8.783,8.51-15.907,19.006-15.907l0,0
	c10.499,0,19.004,7.125,19.004,15.907V469.3z"/>
<path fill="none" stroke="#231F20" stroke-width="2.4746" stroke-miterlimit="10" d="M286.758,311.452
	c0,11.231,38.012,11.36,38.012,0"/>
<path fill="none" stroke="#231F20" stroke-width="2.4746" stroke-miterlimit="10" d="M286.758,294.734
	c0,11.233,38.012,11.363,38.012,0"/>
<path fill="none" stroke="#231F20" stroke-width="2.4746" stroke-miterlimit="10" d="M286.758,328.167
	c0,11.234,38.012,11.363,38.012,0"/>
<path fill="none" stroke="#231F20" stroke-width="2.4746" stroke-miterlimit="10" d="M286.758,344.882
	c0,11.234,38.012,11.362,38.012,0"/>
<path fill="none" stroke="#231F20" stroke-width="2.4746" stroke-miterlimit="10" d="M286.758,361.599
	c0,11.232,38.012,11.36,38.012,0"/>
<path fill="none" stroke="#231F20" stroke-width="2.4746" stroke-miterlimit="10" d="M286.758,378.312
	c0,11.234,38.012,11.362,38.012,0"/>
<path fill="none" stroke="#231F20" stroke-width="2.4746" stroke-miterlimit="10" d="M286.758,395.027
	c0,11.235,38.012,11.363,38.012,0"/>
<path fill="none" stroke="#231F20" stroke-width="2.4746" stroke-miterlimit="10" d="M286.758,411.744
	c0,11.232,38.012,11.36,38.012,0"/>
<path fill="none" stroke="#231F20" stroke-width="2.4746" stroke-miterlimit="10" d="M286.758,428.46
	c0,11.231,38.012,11.362,38.012,0"/>
<path fill="none" stroke="#231F20" stroke-width="2.4746" stroke-miterlimit="10" d="M286.758,445.175
	c0,11.234,38.012,11.362,38.012,0"/>
<path fill="none" stroke="#231F20" stroke-width="2.4746" stroke-miterlimit="10" d="M286.758,461.89
	c0,11.234,38.012,11.362,38.012,0"/>
<circle fill="none" stroke="#231F20" stroke-width="2.4746" stroke-miterlimit="10" cx="305.763" cy="292.753" r="6.189"/>
<circle fill="none" stroke="#231F20" stroke-width="2.4746" stroke-miterlimit="10" cx="299.579" cy="473.472" r="6.189"/>
</svg>
