<?xml version="1.0" encoding="utf-8"?>
<!-- Generator: Adobe Illustrator 16.0.0, SVG Export Plug-In . SVG Version: 6.00 Build 0)  -->
<svg version="1.1" id="Layer_1" xmlns="http://www.w3.org/2000/svg" xmlns:xlink="http://www.w3.org/1999/xlink" x="0px" y="0px"
	 width="612px" height="792px" viewBox="0 0 612 792" enable-background="new 0 0 612 792" xml:space="preserve">
<rect id="body_frame_1_" x="205" y="269.009" fill="#BBBCBE" fill-opacity="0" width="202" height="256"/>
<path id="PRIMARY_4_" fill="#000000" stroke="#231F20" stroke-width="1.339" stroke-miterlimit="10" d="M403.655,330.861
	c0-59.212,0-59.212-40.038-59.212H248.383c-40.039,0-40.039,0-40.039,59.212c0,56.055,0.007,59.045,33.974,59.203v96.265
	c0,37.911,0,37.911,64.881,37.911c64.881,0,64.881,0,64.881-37.911v-96.281C403.653,389.732,403.655,385.568,403.655,330.861z"/>
<path id="SECONDARY_8_" fill="#F1F1F1" stroke="#231F20" stroke-width="1.339" stroke-miterlimit="10" d="M392.326,323.058
	c0-43.697,0-43.697-32.231-43.697H267.33c-32.231,0-32.231,0-32.231,43.697c0,42.428,0.005,43.66,29.511,43.696l0.001,106.199
	c0,37.851,0,37.851,48.841,37.851c48.844,0,48.844,0,48.844-37.851V366.755C392.31,366.731,392.326,365.729,392.326,323.058z"/>
<path fill="none" stroke="#231F20" stroke-width="1.339" stroke-miterlimit="10" d="M241.212,326.984
	c0,14.26,11.186,25.799,25.001,25.799"/>
<path fill="none" stroke="#231F20" stroke-width="1.339" stroke-miterlimit="10" d="M388.365,326.984
	c0,14.26-11.185,25.799-25.003,25.799"/>
<line fill="none" stroke="#231F20" stroke-width="1.339" stroke-miterlimit="10" x1="266.215" y1="352.783" x2="363.362" y2="352.783"/>
<path fill="none" stroke="#231F20" stroke-width="1.339" stroke-miterlimit="10" d="M316.127,348.238
	c10.206-22.594,10.206-40.809,0.115-50.167"/>
<path fill="none" stroke="#231F20" stroke-width="1.339" stroke-miterlimit="10" d="M321.128,394.194
	c6.775,0,6.775,32.613,0.939,32.613"/>
<path fill="none" stroke="#231F20" stroke-width="1.339" stroke-miterlimit="10" d="M321.128,432.276
	c6.775,0,6.775,32.613,0.939,32.613"/>
<path fill="none" stroke="#231F20" stroke-width="1.339" stroke-miterlimit="10" d="M321.128,470.36
	c6.775,0,6.775,32.612,0.939,32.612"/>
<line fill="none" stroke="#231F20" stroke-width="1.339" stroke-miterlimit="10" x1="307.413" y1="429.541" x2="340.98" y2="429.541"/>
<line fill="none" stroke="#231F20" stroke-width="1.339" stroke-miterlimit="10" x1="307.413" y1="467.625" x2="340.98" y2="467.625"/>
</svg>
