<?xml version="1.0" encoding="utf-8"?>
<!-- Generator: Adobe Illustrator 16.0.0, SVG Export Plug-In . SVG Version: 6.00 Build 0)  -->
<svg version="1.1" id="Layer_1" xmlns="http://www.w3.org/2000/svg" xmlns:xlink="http://www.w3.org/1999/xlink" x="0px" y="0px"
	 width="612px" height="792px" viewBox="0 0 612 792" enable-background="new 0 0 612 792" xml:space="preserve">
<rect id="body_frame_1_" x="230.5" y="301.5" fill-opacity="0" fill="#BBBCBE" width="151" height="191"/>
<path id="PRIMARY_4_" fill="#000000" stroke="#231F20" stroke-miterlimit="10" d="M379,347.651c0-44.181,0-44.181-29.93-44.181H262.93
	c-29.93,0-29.93,0-29.93,44.181c0,41.825,0.005,44.056,25.396,44.174v71.827c0,28.287,0,28.287,48.5,28.287s48.5,0,48.5-28.287
	v-71.839C378.998,391.577,379,388.47,379,347.651z"/>
<path id="SECONDARY_8_" fill="#F1F1F1" stroke="#231F20" stroke-miterlimit="10" d="M370.531,341.828
	c0-32.604,0-32.604-24.094-32.604h-69.344c-24.094,0-24.094,0-24.094,32.604c0,31.658,0.004,32.577,22.06,32.604l0.001,79.24
	c0,28.242,0,28.242,36.51,28.242c36.512,0,36.512,0,36.512-28.242v-79.239C370.519,374.415,370.531,373.667,370.531,341.828z"/>
<path fill="none" stroke="#231F20" stroke-miterlimit="10" d="M257.57,344.758c0,10.64,8.361,19.25,18.689,19.25"/>
<path fill="none" stroke="#231F20" stroke-miterlimit="10" d="M367.57,344.758c0,10.64-8.361,19.25-18.69,19.25"/>
<line fill="none" stroke="#231F20" stroke-miterlimit="10" x1="276.26" y1="364.008" x2="348.88" y2="364.008"/>
<path fill="none" stroke="#231F20" stroke-miterlimit="10" d="M313.57,360.616c7.629-16.858,7.629-30.449,0.086-37.432"/>
<path fill="none" stroke="#231F20" stroke-miterlimit="10" d="M317.309,394.906c5.064,0,5.064,24.334,0.702,24.334"/>
<path fill="none" stroke="#231F20" stroke-miterlimit="10" d="M317.309,423.321c5.064,0,5.064,24.334,0.702,24.334"/>
<path fill="none" stroke="#231F20" stroke-miterlimit="10" d="M317.309,451.737c5.064,0,5.064,24.334,0.702,24.334"/>
<line fill="none" stroke="#231F20" stroke-miterlimit="10" x1="307.057" y1="421.28" x2="332.148" y2="421.28"/>
<line fill="none" stroke="#231F20" stroke-miterlimit="10" x1="307.057" y1="449.696" x2="332.148" y2="449.696"/>
</svg>
