<?xml version="1.0" encoding="utf-8"?>
<!-- Generator: Adobe Illustrator 16.0.0, SVG Export Plug-In . SVG Version: 6.00 Build 0)  -->
<svg version="1.1" id="Layer_1" xmlns="http://www.w3.org/2000/svg" xmlns:xlink="http://www.w3.org/1999/xlink" x="0px" y="0px"
	 width="612px" height="792px" viewBox="0 0 612 792" enable-background="new 0 0 612 792" xml:space="preserve">
<rect x="179" y="310.248" fill-opacity="0" fill="#231F20" width="256" height="172"/>
<path id="SECONDARY_14_" fill="#7CD5FF" stroke="#231F20" stroke-width="3.1586" stroke-miterlimit="10" d="M232.386,386.15
	l17.201-17.22c-1.006,5.398,0.92,10.374,5.54,16.456l-11.725,11.739c-3.034,3.033-7.96,3.042-11,0.012
	C229.358,394.098,229.358,389.184,232.386,386.15z"/>
<path id="SECONDARY_13_" fill="#7CD5FF" stroke="#231F20" stroke-width="3.1586" stroke-miterlimit="10" d="M274.525,406.117
	L274.525,406.117c0.805,0.805,1.629,1.517,2.451,2.263v23.931c0,5.063-3.485,9.168-7.778,9.168c-4.296,0-7.781-4.105-7.781-9.168
	v-39.566C265.019,396.619,269.395,400.99,274.525,406.117z"/>
<path id="SECONDARY_12_" fill="#7CD5FF" stroke="#231F20" stroke-width="3.1586" stroke-miterlimit="10" d="M304.809,422.042v23.734
	c0,4.291-3.481,7.769-7.778,7.769s-7.778-3.478-7.778-7.769v-28.694C294.336,419.739,299.549,421.438,304.809,422.042z"/>
<path id="SECONDARY_11_" fill="#7CD5FF" stroke="#231F20" stroke-width="3.1586" stroke-miterlimit="10" d="M332.646,415.381v30.398
	c0,4.291-3.481,7.769-7.778,7.769c-4.296,0-7.777-3.478-7.777-7.769V421.53C322.354,420.522,327.574,418.481,332.646,415.381z"/>
<path id="SECONDARY_10_" fill="#7CD5FF" stroke="#231F20" stroke-width="3.1586" stroke-miterlimit="10" d="M360.481,389.498v42.815
	c0,5.065-3.481,9.168-7.777,9.168c-4.297,0-7.778-4.103-7.778-9.168v-26.792C351.303,399.153,356.49,393.953,360.481,389.498z"/>
</svg>
