<?xml version="1.0" encoding="utf-8"?>
<!-- Generator: Adobe Illustrator 16.0.0, SVG Export Plug-In . SVG Version: 6.00 Build 0)  -->
<svg version="1.1" id="Layer_1" xmlns="http://www.w3.org/2000/svg" xmlns:xlink="http://www.w3.org/1999/xlink" x="0px" y="0px"
	 width="612px" height="792px" viewBox="0 0 612 792" enable-background="new 0 0 612 792" xml:space="preserve">
<rect x="266.5" y="370.004" fill-opacity="0" fill="#231F20" width="81" height="54.487"/>
<path id="SECONDARY_4_" fill="#7CD5FF" stroke="#231F20" stroke-miterlimit="10" d="M295.118,400.132
	C295.184,400.049,295.051,400.217,295.118,400.132L295,387.333c0-2.016-1.102-3.648-2.461-3.648c-1.359,0-2.461,1.633-2.461,3.648
	v7.584C291.304,396.685,293.197,397.647,295.118,400.132z"/>
<path id="SECONDARY_3_" fill="#7CD5FF" stroke="#231F20" stroke-miterlimit="10" d="M303.808,404.908v-14.48
	c0-2.631-1.103-4.763-2.461-4.763c-1.359,0-2.462,2.132-2.462,4.763v12.789C301.167,404.458,302.141,404.263,303.808,404.908z"/>
<path id="SECONDARY_2_" fill="#7CD5FF" stroke="#231F20" stroke-miterlimit="10" d="M312.615,403.792v-13.364
	c0-2.631-1.102-4.763-2.461-4.763s-2.461,2.132-2.461,4.763v14.78C309.357,404.83,310.708,404.908,312.615,403.792z"/>
<path id="SECONDARY_1_" fill="#7CD5FF" stroke="#231F20" stroke-miterlimit="10" d="M316.5,401.269
	c1.631-2.124,3.771-3.659,4.923-5.269v-6.119c0-2.015-1.103-3.649-2.462-3.649c-1.358,0-2.461,1.634-2.461,3.649V401.269
	C316.531,401.305,316.47,401.233,316.5,401.269C316.721,401.011,316.284,401.548,316.5,401.269z"/>
<path id="SECONDARY" fill="#7CD5FF" stroke="#231F20" stroke-miterlimit="10" d="M317.437,378.555
	c-1.148-1.149-2.171-2.172-3.081-3.107l-4.493,4.544c-0.953,0.968-0.943,2.527,0.024,3.48c0.972,0.955,2.527,0.942,3.481-0.024
	l4.469-4.524C317.704,378.799,317.568,378.687,317.437,378.555z"/>
</svg>
