<?xml version="1.0" encoding="utf-8"?>
<!-- Generator: Adobe Illustrator 16.0.0, SVG Export Plug-In . SVG Version: 6.00 Build 0)  -->
<svg version="1.1" id="Layer_1" xmlns="http://www.w3.org/2000/svg" xmlns:xlink="http://www.w3.org/1999/xlink" x="0px" y="0px"
	 width="612px" height="792px" viewBox="0 0 612 792" enable-background="new 0 0 612 792" xml:space="preserve">
<rect x="178" y="312.248" fill-opacity="0" fill="#231F20" width="256" height="172"/>
<path id="SECONDARY_4_" fill="#7CD5FF" stroke="#231F20" stroke-width="3.1586" stroke-miterlimit="10" d="M272.981,338.395
	c-0.565,0.564-1.093,1.096-1.636,1.643l-2.756-2.785c0.42-0.399,0.849-0.752,1.266-1.168c3.629-3.626,6.861-6.857,9.738-9.808
	l2.781,2.809C279.534,331.852,276.435,334.945,272.981,338.395z"/>
<path id="SECONDARY_3_" fill="#7CD5FF" stroke="#231F20" stroke-width="3.1586" stroke-miterlimit="10" d="M331.648,417.029v6.375
	c-7.213,3.918-10.294,3.301-15.559,5.339v-5.306C321.361,422.359,326.577,420.21,331.648,417.029z"/>
<path id="SECONDARY_2_" fill="#7CD5FF" stroke="#231F20" stroke-width="3.1586" stroke-miterlimit="10" d="M303.809,424.073v5.616
	c-5.259-1.192-9.528-0.946-15.556-4.47v-5.854C293.339,421.946,298.552,423.54,303.809,424.073z"/>
<path id="SECONDARY_1_" fill="#7CD5FF" stroke="#231F20" stroke-width="3.1586" stroke-miterlimit="10" d="M272.981,408.117
	c0.984,0.983,1.991,1.871,2.994,2.765v6.372c-5.154-6.705-11.919-11.551-15.559-16.631v-5.299
	C263.914,399.057,268.102,403.243,272.981,408.117z"/>
<path id="SECONDARY" fill="#7CD5FF" stroke="#231F20" stroke-width="3.1586" stroke-miterlimit="10" d="M359.481,390.878v6.326
	c-3.877,5.579-9.858,8.619-15.929,16.462l0.059-6.372C350.179,400.73,355.469,395.419,359.481,390.878z"/>
</svg>
