<?xml version="1.0" encoding="utf-8"?>
<!-- Generator: Adobe Illustrator 16.0.0, SVG Export Plug-In . SVG Version: 6.00 Build 0)  -->
<svg version="1.1" id="Layer_1" xmlns="http://www.w3.org/2000/svg" xmlns:xlink="http://www.w3.org/1999/xlink" x="0px" y="0px"
	 width="612px" height="792px" viewBox="0 0 612 792" enable-background="new 0 0 612 792" xml:space="preserve">
<rect x="179" y="311.248" fill-opacity="0" fill="#231F20" width="256" height="172"/>
<path id="SECONDARY_4_" fill="#7CD5FF" stroke="#231F20" stroke-width="3.1586" stroke-miterlimit="10" d="M269.447,406.353
	C269.656,406.09,269.236,406.621,269.447,406.353l-0.373-40.402c0-6.362-3.483-11.517-7.778-11.517
	c-4.296,0-7.779,5.154-7.779,11.517v23.94C257.394,395.47,263.375,398.51,269.447,406.353z"/>
<path id="SECONDARY_3_" fill="#7CD5FF" stroke="#231F20" stroke-width="3.1586" stroke-miterlimit="10" d="M296.911,421.43v-45.709
	c0-8.305-3.485-15.034-7.778-15.034c-4.296,0-7.781,6.729-7.781,15.034v40.37C288.563,420.009,291.644,419.393,296.911,421.43z"/>
<path id="SECONDARY_2_" fill="#7CD5FF" stroke="#231F20" stroke-width="3.1586" stroke-miterlimit="10" d="M324.747,417.906v-42.186
	c0-8.305-3.481-15.034-7.778-15.034c-4.296,0-7.777,6.729-7.777,15.034v46.655C314.45,421.184,318.719,421.43,324.747,417.906z"/>
<path id="SECONDARY_1_" fill="#7CD5FF" stroke="#231F20" stroke-width="3.1586" stroke-miterlimit="10" d="M337.024,409.94
	c5.154-6.705,11.92-11.551,15.559-16.631v-19.315c0-6.36-3.484-11.519-7.78-11.519c-4.293,0-7.778,5.159-7.778,11.519V409.94
	C337.123,410.055,336.929,409.83,337.024,409.94C337.723,409.127,336.343,410.822,337.024,409.94z"/>
<path id="SECONDARY" fill="#7CD5FF" stroke="#231F20" stroke-width="3.1586" stroke-miterlimit="10" d="M339.984,338.241
	c-3.63-3.627-6.861-6.857-9.737-9.808l-14.201,14.346c-3.012,3.056-2.981,7.977,0.077,10.986c3.071,3.014,7.988,2.974,11.004-0.075
	l14.123-14.281C340.83,339.011,340.401,338.657,339.984,338.241z"/>
</svg>
