<?xml version="1.0" encoding="utf-8"?>
<!-- Generator: Adobe Illustrator 16.0.0, SVG Export Plug-In . SVG Version: 6.00 Build 0)  -->
<svg version="1.1" id="Layer_1" xmlns="http://www.w3.org/2000/svg" xmlns:xlink="http://www.w3.org/1999/xlink" x="0px" y="0px"
	 width="612px" height="792px" viewBox="0 0 612 792" enable-background="new 0 0 612 792" xml:space="preserve">
<rect id="head_frame_1_" x="178" y="283.432" fill="#231F20" fill-opacity="0" width="256" height="222"/>
<path id="PRIMARY_4_" fill="#00BC03" stroke="#231F20" stroke-width="1.695" stroke-miterlimit="10" d="M386,431.301
	c1.808-4.9-8.795-21.322-8.795-26.694l0,0c0.526-2.72,0.836-5.544,0.836-8.468c0-19.975-13.049-36.166-29.146-36.166
	c-9.855,0-18.555,6.088-23.831,15.382c-1.648-0.164-3.31-0.298-4.991-0.368c-5.295-9.083-13.883-15.014-23.608-15.014
	c-14.219,0-26.044,12.639-28.614,29.354c-14.985,10.1-19.27,23.939-19.492,40.175c-1.131,82.823,27.974,75.386,75.443,60.829
	c15.945-4.892,27.595-6.812,39.542-15.074c1.298-0.899,15.831-8.03,17.041-9.005c-17.802,2.08-51.709-16.533-51.709-18.959
	c0,0,20.604-0.252,37.866-0.252c3.563,0,17.727-0.314,21.438,2.439C388.407,448.52,385.636,432.287,386,431.301z"/>
<ellipse fill="#FFFFFF" stroke="#231F20" stroke-width="1.695" stroke-miterlimit="10" cx="297.591" cy="392.088" rx="18.437" ry="22.878"/>
<ellipse fill="#FFFFFF" stroke="#231F20" stroke-width="1.695" stroke-miterlimit="10" cx="348.895" cy="392.088" rx="18.437" ry="22.878"/>
<ellipse fill="#231F20" cx="356.119" cy="392.088" rx="7.224" ry="8.967"/>
<ellipse fill="#231F20" cx="303.889" cy="392.088" rx="7.223" ry="8.967"/>
<ellipse id="SECONDARY_20_" transform="matrix(-0.3018 -0.9534 0.9534 -0.3018 -113.9747 880.1855)" fill="#005601" cx="265.305" cy="481.826" rx="11.706" ry="6.859"/>
<circle id="SECONDARY_19_" fill="#005601" cx="256.834" cy="432.886" r="4.187"/>
<ellipse id="SECONDARY_18_" fill="#005601" cx="275.297" cy="463.393" rx="2.006" ry="2.26"/>
<ellipse id="SECONDARY_17_" transform="matrix(-0.2605 -0.9655 0.9655 -0.2605 -90.1198 821.2228)" fill="#005601" cx="269.439" cy="445.124" rx="6.144" ry="3.604"/>
<ellipse id="SECONDARY_16_" transform="matrix(-0.3979 0.9174 -0.9174 -0.3979 752.7288 327.4798)" fill="#005601" cx="268.905" cy="410.741" rx="12.921" ry="4.052"/>
<ellipse id="SECONDARY_15_" fill="#005601" cx="258.954" cy="457.25" rx="2.119" ry="6.143"/>
<ellipse id="SECONDARY_14_" fill="#005601" cx="281.836" cy="437.073" rx="5.298" ry="6.991"/>
<ellipse transform="matrix(0.4229 -0.9062 0.9062 0.4229 -186.0192 589.7229)" fill="#231F20" stroke="#231F20" stroke-width="1.695" stroke-miterlimit="10" cx="369.99" cy="440.908" rx="1.593" ry="4.17"/>
<ellipse transform="matrix(0.4229 0.9062 -0.9062 0.4229 619.521 -90.8646)" fill="#231F20" stroke="#231F20" stroke-width="1.695" stroke-miterlimit="10" cx="381.1" cy="440.962" rx="1.593" ry="4.168"/>
<path id="PRIMARY_6_" fill="#00BC03" stroke="#231F20" stroke-width="1.695" stroke-miterlimit="10" d="M282.367,378.988
	c3.334-5.911,8.863-9.778,15.118-9.778c9.584,0,17.464,9.077,18.352,20.684L282.367,378.988z"/>
<path id="PRIMARY_5_" fill="#00BC03" stroke="#231F20" stroke-width="1.695" stroke-miterlimit="10" d="M363.818,378.988
	c-3.335-5.911-8.863-9.778-15.116-9.778c-9.585,0-17.466,9.077-18.353,20.684L363.818,378.988z"/>
</svg>
