<?xml version="1.0" encoding="utf-8"?>
<!-- Generator: Adobe Illustrator 16.0.0, SVG Export Plug-In . SVG Version: 6.00 Build 0)  -->
<svg version="1.1" id="Layer_1" xmlns="http://www.w3.org/2000/svg" xmlns:xlink="http://www.w3.org/1999/xlink" x="0px" y="0px"
	 width="612px" height="792px" viewBox="0 0 612 792" enable-background="new 0 0 612 792" xml:space="preserve">
<rect id="head_frame_1_" x="230.5" y="328.932" fill-opacity="0" fill="#231F20" width="151" height="131"/>
<path id="PRIMARY_1_" fill="#00BC03" stroke="#231F20" stroke-miterlimit="10" d="M353.188,416.188
	c1.066-2.892-5.188-12.583-5.188-15.752l0,0c0.311-1.605,0.493-3.272,0.493-4.997c0-11.787-7.697-21.341-17.191-21.341
	c-5.814,0-10.945,3.593-14.057,9.077c-0.973-0.097-1.952-0.176-2.944-0.217c-3.123-5.36-8.189-8.86-13.925-8.86
	c-8.387,0-15.362,7.458-16.878,17.322c-8.839,5.96-11.366,14.126-11.497,23.707c-0.667,48.873,16.5,44.484,44.5,35.895
	c9.405-2.887,16.276-4.02,23.323-8.896c0.766-0.53,6.993-6.426,7.707-7c-10.5,1.227-24.501-5.818-24.501-7.25
	c0,0,7.437-5.809,19.146-3.544c2.063,0.399,9.99,0.96,12.178,2.585C354.607,426.349,352.973,416.77,353.188,416.188z"/>
<ellipse id="PRIMARY_3_" fill="#00BC03" stroke="#231F20" stroke-miterlimit="10" cx="301.04" cy="393.049" rx="10.875" ry="13.5"/>
<ellipse id="PRIMARY_2_" fill="#00BC03" stroke="#231F20" stroke-miterlimit="10" cx="331.301" cy="393.049" rx="10.875" ry="13.5"/>
<ellipse id="SECONDARY_13_" transform="matrix(0.9534 -0.3017 0.3017 0.9534 -121.421 105.8655)" fill="#005601" cx="282" cy="446" rx="4.046" ry="6.907"/>
<circle id="SECONDARY_12_" fill="#005601" cx="277" cy="417.123" r="2.471"/>
<ellipse id="SECONDARY_11_" fill="#005601" cx="287.89" cy="435.125" rx="1.183" ry="1.334"/>
<ellipse id="SECONDARY_10_" transform="matrix(0.9655 -0.2604 0.2604 0.9655 -100.6946 88.723)" fill="#005601" cx="284.447" cy="424.331" rx="2.126" ry="3.625"/>
<ellipse id="SECONDARY_9_" transform="matrix(-0.9175 -0.3978 0.3978 -0.9175 384.0872 887.817)" fill="#005601" cx="284.146" cy="404.063" rx="2.39" ry="7.624"/>
<ellipse id="SECONDARY_8_" fill="#005601" cx="278.25" cy="431.5" rx="1.25" ry="3.625"/>
<ellipse id="SECONDARY_7_" fill="#005601" cx="291.747" cy="419.594" rx="3.125" ry="4.125"/>
<ellipse transform="matrix(0.9061 0.423 -0.423 0.9061 210.7093 -105.809)" fill="#231F20" stroke="#231F20" stroke-miterlimit="10" cx="343.764" cy="421.867" rx="2.459" ry="0.94"/>
<ellipse transform="matrix(-0.9061 0.423 -0.423 -0.9061 846.1465 655.9694)" fill="#231F20" stroke="#231F20" stroke-miterlimit="10" cx="350.292" cy="421.867" rx="2.459" ry="0.94"/>
<line fill="none" stroke="#231F20" stroke-miterlimit="10" x1="309.303" y1="384.312" x2="291.757" y2="400.482"/>
<line fill="none" stroke="#231F20" stroke-miterlimit="10" x1="323.029" y1="384.295" x2="339.859" y2="401.365"/>
</svg>
