<?xml version="1.0" encoding="utf-8"?>
<!-- Generator: Adobe Illustrator 16.0.0, SVG Export Plug-In . SVG Version: 6.00 Build 0)  -->
<svg version="1.1" id="Layer_1" xmlns="http://www.w3.org/2000/svg" xmlns:xlink="http://www.w3.org/1999/xlink" x="0px" y="0px"
	 width="612px" height="792px" viewBox="0 0 612 792" enable-background="new 0 0 612 792" xml:space="preserve">
<rect x="266.5" y="369.004" fill-opacity="0" fill="#231F20" width="81" height="54.487"/>
<path id="SECONDARY_11_" fill="#8C8900" stroke="#231F20" stroke-miterlimit="10" d="M283.404,384.249
	c0,8.096,3.296,14.658,7.36,14.658h30.77c4.065,0,7.361-6.563,7.361-14.658l0,0c0-8.095-3.296-14.657-7.361-14.657h-30.77
	C286.7,369.592,283.404,376.154,283.404,384.249L283.404,384.249z"/>
<rect id="PRIMARY_223_" x="284.572" y="370.735" fill="#F1F1F1" stroke="#231F20" stroke-miterlimit="10" width="43.309" height="3.313"/>
<rect id="PRIMARY_222_" x="283.702" y="375.902" fill="#F1F1F1" stroke="#231F20" stroke-miterlimit="10" width="43.881" height="4.219"/>
<polygon id="PRIMARY_221_" fill="#F1F1F1" stroke="#231F20" stroke-miterlimit="10" points="283.797,387.981 328.821,380.616 
	328.532,373.605 283.507,380.972 "/>
<polygon id="PRIMARY_220_" fill="#F1F1F1" stroke="#231F20" stroke-miterlimit="10" points="326.487,394.68 282.862,385.387 
	282.657,389.209 326.282,398.5 "/>
<rect id="PRIMARY_219_" x="286.439" y="394.585" fill="#F1F1F1" stroke="#231F20" stroke-miterlimit="10" width="41.144" height="2.782"/>
<rect id="PRIMARY_218_" x="283.404" y="387.496" fill="#F1F1F1" stroke="#231F20" stroke-miterlimit="10" width="45.307" height="4.637"/>
<polygon id="PRIMARY_217_" fill="#F1F1F1" stroke="#231F20" stroke-miterlimit="10" points="283.501,382.449 329.574,392.429 
	329.818,387.951 283.747,377.971 "/>
<rect id="PRIMARY_216_" x="283.404" y="382.991" fill="#F1F1F1" stroke="#231F20" stroke-miterlimit="10" width="46.344" height="2.782"/>
</svg>
