<?xml version="1.0" encoding="utf-8"?>
<!-- Generator: Adobe Illustrator 16.0.0, SVG Export Plug-In . SVG Version: 6.00 Build 0)  -->
<svg version="1.1" id="Layer_1" xmlns="http://www.w3.org/2000/svg" xmlns:xlink="http://www.w3.org/1999/xlink" x="0px" y="0px"
	 width="612px" height="792px" viewBox="0 0 612 792" enable-background="new 0 0 612 792" xml:space="preserve">
<rect x="179" y="310.248" fill="#231F20" fill-opacity="0" width="256" height="172"/>
<path id="SECONDARY_21_" fill="#8C8900" stroke="#231F20" stroke-width="3.1586" stroke-miterlimit="10" d="M365.562,372.457
	c0-8.39-5.932-15.193-13.247-15.193c-7.312,0-13.246,6.799-13.246,15.193v22.892c0,3.714,1.213,7.075,3.142,9.713h12.321
	c3.688,0,7.16-1.751,10.259-4.787c0.46-1.554,0.771-3.197,0.771-4.93V372.457L365.562,372.457z"/>
<path id="SECONDARY_20_" fill="#8C8900" stroke="#231F20" stroke-width="3.1586" stroke-miterlimit="10" d="M332.336,371.264
	c0-8.391-5.929-15.193-13.243-15.193c-7.315,0-13.247,6.799-13.247,15.193v22.893c0,4.183,1.479,7.969,3.864,10.719h18.769
	c2.386-2.747,3.861-6.533,3.861-10.719v-22.893H332.336z"/>
<path id="SECONDARY_19_" fill="#8C8900" stroke="#231F20" stroke-width="3.1586" stroke-miterlimit="10" d="M299.111,371.264
	c0-8.391-5.932-15.193-13.246-15.193c-7.316,0-13.246,6.799-13.246,15.193v22.893c0,4.183,1.476,7.969,3.861,10.719h18.771
	c2.383-2.747,3.861-6.533,3.861-10.719v-22.893H299.111z"/>
<path id="SECONDARY_18_" fill="#8C8900" stroke="#231F20" stroke-width="3.1586" stroke-miterlimit="10" d="M265.886,393.484
	v-22.892c0-8.391-5.934-15.193-13.247-15.193c-7.316,0-13.245,6.799-13.245,15.193v17.57c4.27,10.206,10.699,16.707,17.895,16.707
	h4.036C264.096,402.088,265.886,398.043,265.886,393.484z"/>
<path id="SECONDARY_17_" fill="#8C8900" stroke="#231F20" stroke-width="3.1586" stroke-miterlimit="10" d="M235.178,344.426
	l19.004,12.557c7.006,4.63,16.444,2.708,21.077-4.29c4.633-6.996,2.711-16.418-4.295-21.049l-19.116-12.631
	c-1.431-0.946-2.977-1.549-4.548-1.962C241.594,322.461,237.165,332.329,235.178,344.426z"/>
</svg>
