<?xml version="1.0" encoding="utf-8"?>
<!-- Generator: Adobe Illustrator 16.0.0, SVG Export Plug-In . SVG Version: 6.00 Build 0)  -->
<svg version="1.1" id="Layer_1" xmlns="http://www.w3.org/2000/svg" xmlns:xlink="http://www.w3.org/1999/xlink" x="0px" y="0px"
	 width="612px" height="792px" viewBox="0 0 612 792" enable-background="new 0 0 612 792" xml:space="preserve">
<rect x="265.5" y="356.651" fill-opacity="0" fill="#231F20" width="81" height="78.206"/>
<path id="SECONDARY_8_" fill="#8C8900" stroke="#231F20" stroke-miterlimit="10" d="M313.375,430.249
	c-3.711,4.117-9.254,5.172-12.381,2.353l-14.026-12.642c-3.126-2.817-2.651-8.44,1.06-12.558l27.779-30.82
	c3.711-4.118,9.255-5.171,12.381-2.354l14.025,12.643c3.127,2.818,2.652,8.441-1.059,12.559L313.375,430.249z"/>
<rect id="PRIMARY_180_" x="318.968" y="381.133" transform="matrix(0.7428 0.6695 -0.6695 0.7428 342.0193 -125.1094)" fill="#F1F1F1" stroke="#231F20" stroke-miterlimit="10" width="29.748" height="2.917"/>
<polygon id="PRIMARY_179_" fill="#F1F1F1" stroke="#231F20" stroke-miterlimit="10" points="343.326,396.593 315.346,376.877 
	316.693,375.168 344.674,394.884 "/>
<polygon id="PRIMARY_178_" fill="#F1F1F1" stroke="#231F20" stroke-miterlimit="10" points="339.291,402.012 315.246,376.774 
	316.156,375.845 340.201,401.082 "/>
<rect id="PRIMARY_177_" x="306.763" y="391.838" transform="matrix(0.7428 0.6695 -0.6695 0.7428 346.2875 -115.8951)" fill="#F1F1F1" stroke="#231F20" stroke-miterlimit="10" width="34.443" height="1.837"/>
<rect id="PRIMARY_176_" x="314.13" y="383.757" transform="matrix(0.7428 0.6695 -0.6695 0.7428 342.6513 -122.8282)" fill="#F1F1F1" stroke="#231F20" stroke-miterlimit="10" width="34.127" height="1.62"/>
<rect id="PRIMARY_175_" x="311.731" y="387.047" transform="matrix(-0.7428 -0.6695 0.6695 -0.7428 313.7646 896.9118)" fill="#F1F1F1" stroke="#231F20" stroke-miterlimit="10" width="34.859" height="2.283"/>
<rect id="PRIMARY_174_" x="308.788" y="388.944" transform="matrix(0.7428 0.6695 -0.6695 0.7428 345.3039 -117.8284)" fill="#F1F1F1" stroke="#231F20" stroke-miterlimit="10" width="34.443" height="3.132"/>
<rect id="PRIMARY_173_" x="305.306" y="394.121" transform="matrix(0.7428 0.6695 -0.6695 0.7428 347.2401 -114.7687)" fill="#F1F1F1" stroke="#231F20" stroke-miterlimit="10" width="35.375" height="0.865"/>
<rect id="PRIMARY_172_" x="300.554" y="398.248" transform="matrix(-0.7428 -0.6695 0.6695 -0.7428 287.1362 908.8566)" fill="#F1F1F1" stroke="#231F20" stroke-miterlimit="10" width="35.185" height="2.052"/>
<rect id="PRIMARY_171_" x="303.412" y="395.339" transform="matrix(-0.7428 -0.6695 0.6695 -0.7428 294.0466 906.2671)" fill="#F1F1F1" stroke="#231F20" stroke-miterlimit="10" width="35.376" height="2.628"/>
<rect id="PRIMARY_170_" x="297.398" y="401.74" transform="matrix(0.7428 0.6695 -0.6695 0.7428 351.1324 -107.27)" fill="#F1F1F1" stroke="#231F20" stroke-miterlimit="10" width="35.557" height="3.24"/>
<polygon id="PRIMARY_169_" fill="#F1F1F1" stroke="#231F20" stroke-miterlimit="10" points="325.56,417.069 304.922,387.661 
	307.643,385.305 328.279,414.713 "/>
<polygon id="PRIMARY_168_" fill="#F1F1F1" stroke="#231F20" stroke-miterlimit="10" points="326.273,416.506 295.879,398.199 
	297.651,395.765 328.044,414.07 "/>
<rect id="PRIMARY_167_" x="295.083" y="404.419" transform="matrix(0.7428 0.6695 -0.6695 0.7428 351.9703 -104.7409)" fill="#F1F1F1" stroke="#231F20" stroke-miterlimit="10" width="34.443" height="2.593"/>
<rect id="PRIMARY_166_" x="291.04" y="409.065" transform="matrix(-0.7428 -0.6695 0.6695 -0.7428 263.7061 921.0559)" fill="#F1F1F1" stroke="#231F20" stroke-miterlimit="10" width="35.462" height="1.62"/>
<rect id="PRIMARY_165_" x="288.958" y="412.045" transform="matrix(0.7428 0.6695 -0.6695 0.7428 355.0968 -99.0848)" fill="#F1F1F1" stroke="#231F20" stroke-miterlimit="10" width="35.111" height="1.188"/>
<polygon id="PRIMARY_164_" fill="#F1F1F1" stroke="#231F20" stroke-miterlimit="10" points="292.92,400.921 323.548,420 
	325.724,417.061 295.097,397.979 "/>
<polygon id="PRIMARY_163_" fill="#F1F1F1" stroke="#231F20" stroke-miterlimit="10" points="332.088,410.529 311.502,379.277 
	314.529,376.745 335.113,407.996 "/>
<polygon id="PRIMARY_162_" fill="#F1F1F1" stroke="#231F20" stroke-miterlimit="10" points="341.664,400.773 302.446,391.781 
	303.425,389.702 342.643,398.693 "/>
<rect id="PRIMARY_161_" x="286.584" y="412.809" transform="matrix(0.7428 0.6695 -0.6695 0.7428 355.8443 -97.2592)" fill="#F1F1F1" stroke="#231F20" stroke-miterlimit="10" width="35.853" height="3.425"/>
<rect id="PRIMARY_160_" x="284.306" y="417.43" transform="matrix(-0.7428 -0.6695 0.6695 -0.7428 246.5493 930.4185)" fill="#F1F1F1" stroke="#231F20" stroke-miterlimit="10" width="35.375" height="0.842"/>
<rect id="PRIMARY_159_" x="280.704" y="423.923" transform="matrix(-0.7428 -0.6695 0.6695 -0.7428 231.6921 938.8215)" fill="#F1F1F1" stroke="#231F20" stroke-miterlimit="10" width="30.951" height="1.967"/>
<polygon id="PRIMARY_158_" fill="#F1F1F1" stroke="#231F20" stroke-miterlimit="10" points="316.68,427.796 284.021,413.227 
	285.351,411.104 318.008,425.674 "/>
<rect id="PRIMARY_157_" x="282.473" y="418.163" transform="matrix(0.7428 0.6695 -0.6695 0.7428 357.655 -91.7628)" fill="#F1F1F1" stroke="#231F20" stroke-miterlimit="10" width="31.579" height="2.937"/>
<rect id="PRIMARY_156_" x="284.955" y="416.334" transform="matrix(0.7428 0.6695 -0.6695 0.7428 357.0474 -95.4004)" fill="#F1F1F1" stroke="#231F20" stroke-miterlimit="10" width="35.47" height="1.346"/>
<polygon id="PRIMARY_155_" fill="#F1F1F1" stroke="#231F20" stroke-miterlimit="10" points="308.74,435.859 290.978,403.576 
	293.587,401.586 311.352,433.869 "/>
<polygon id="PRIMARY_154_" fill="#F1F1F1" stroke="#231F20" stroke-miterlimit="10" points="314.716,429.084 286.225,411.871 
	284.285,414.534 312.777,431.746 "/>
</svg>
