<?xml version="1.0" encoding="utf-8"?>
<!-- Generator: Adobe Illustrator 16.0.0, SVG Export Plug-In . SVG Version: 6.00 Build 0)  -->
<svg version="1.1" id="Layer_1" xmlns="http://www.w3.org/2000/svg" xmlns:xlink="http://www.w3.org/1999/xlink" x="0px" y="0px"
	 width="612px" height="792px" viewBox="0 0 612 792" enable-background="new 0 0 612 792" xml:space="preserve">
<rect x="179" y="310.248" fill="#231F20" fill-opacity="0" width="256" height="172"/>
<path id="SECONDARY_16_" fill="#8C8900" stroke="#231F20" stroke-width="3.1586" stroke-miterlimit="10" d="M256.354,404.644
	c-2.621,0-5.13-0.9-7.481-2.488c0.023,1.665,0.31,3.249,0.759,4.751c3.097,3.036,6.569,4.787,10.254,4.787h12.324
	c1.457-1.991,2.5-4.396,2.926-7.047h-18.782V404.644z"/>
<path id="SECONDARY_15_" fill="#8C8900" stroke="#231F20" stroke-width="3.1586" stroke-miterlimit="10" d="M282.626,404.868
	c0.619,2.534,1.741,4.821,3.315,6.638h18.771c1.574-1.813,2.694-4.104,3.314-6.638H282.626z"/>
<path id="SECONDARY_14_" fill="#8C8900" stroke="#231F20" stroke-width="3.1586" stroke-miterlimit="10" d="M315.852,404.868
	c0.621,2.534,1.744,4.821,3.315,6.638h18.771c1.574-1.813,2.697-4.104,3.317-6.638H315.852z"/>
<path id="SECONDARY_13_" fill="#8C8900" stroke="#231F20" stroke-width="3.1586" stroke-miterlimit="10" d="M353.55,404.868h-4.26
	c0.763,2.577,2.053,4.88,3.803,6.638h4.037c7.194,0,13.63-6.502,17.895-16.708v-17.57c0-0.199-0.046-0.386-0.052-0.587
	C371.438,393.228,363.176,404.868,353.55,404.868z"/>
<path id="SECONDARY_12_" fill="#8C8900" stroke="#231F20" stroke-width="3.1586" stroke-miterlimit="10" d="M375.58,346.092
	l6.821-4.507c-1.991-12.097-6.414-21.964-12.124-27.379c-1.573,0.415-3.117,1.017-4.549,1.963l-1.803,1.19
	C369.58,323.244,373.855,333.607,375.58,346.092z"/>
</svg>
