<?xml version="1.0" encoding="utf-8"?>
<!-- Generator: Adobe Illustrator 16.0.0, SVG Export Plug-In . SVG Version: 6.00 Build 0)  -->
<svg version="1.1" id="Layer_1" xmlns="http://www.w3.org/2000/svg" xmlns:xlink="http://www.w3.org/1999/xlink" x="0px" y="0px"
	 width="612px" height="792px" viewBox="0 0 612 792" enable-background="new 0 0 612 792" xml:space="preserve">
<rect x="266.5" y="369.004" fill-opacity="0" fill="#231F20" width="81" height="54.487"/>
<path id="SECONDARY_26_" fill="#8C8900" stroke="#231F20" stroke-miterlimit="10" d="M291.242,399.191h4.923v6.104
	c0,2.658-1.877,4.813-4.191,4.813c-2.315,0-4.191-2.154-4.191-4.813v-7.252c0-0.182,0.029-0.354,0.047-0.531
	C288.849,398.58,290.009,399.191,291.242,399.191z"/>
<path id="SECONDARY_25_" fill="#8C8900" stroke="#231F20" stroke-miterlimit="10" d="M306.677,399.191v6.104
	c0,2.658-1.877,4.813-4.191,4.813c-2.315,0-4.191-2.154-4.191-4.813v-6.104H306.677z"/>
<path id="SECONDARY_24_" fill="#8C8900" stroke="#231F20" stroke-miterlimit="10" d="M317.189,399.13v6.166
	c0,2.658-1.876,4.813-4.191,4.813c-2.314,0-4.191-2.154-4.191-4.813v-6.166H317.189z"/>
<path id="SECONDARY_23_" fill="#8C8900" stroke="#231F20" stroke-miterlimit="10" d="M322.07,399.191
	c1.928,0,3.676-1.486,4.988-3.899c0.402,0.738,0.645,1.604,0.645,2.539v7.252c0,2.658-1.877,4.813-4.191,4.813
	s-4.191-2.154-4.191-4.813v-5.892H322.07z"/>
<path id="SECONDARY_22_" fill="#8C8900" stroke="#231F20" stroke-miterlimit="10" d="M329.432,384.472
	c0-1.1-0.065-2.168-0.181-3.199c1.204-0.026,2.419,0.388,3.374,1.27l5.327,4.92c1.953,1.804,2.073,4.848,0.271,6.801
	c-1.803,1.952-4.848,2.073-6.801,0.27l-2.977-2.75C329.069,389.629,329.432,387.138,329.432,384.472z"/>
</svg>
