<?xml version="1.0" encoding="utf-8"?>
<!-- Generator: Adobe Illustrator 16.0.0, SVG Export Plug-In . SVG Version: 6.00 Build 0)  -->
<svg version="1.1" id="Layer_1" xmlns="http://www.w3.org/2000/svg" xmlns:xlink="http://www.w3.org/1999/xlink" x="0px" y="0px"
	 width="612px" height="792px" viewBox="0 0 612 792" enable-background="new 0 0 612 792" xml:space="preserve">
<rect x="179" y="310.248" fill="#231F20" fill-opacity="0" width="256" height="172"/>
<path id="SECONDARY_10_" fill="#8C8900" stroke="#231F20" stroke-width="3.1586" stroke-miterlimit="10" d="M376.858,358.372
	c0,25.557-10.417,46.271-23.257,46.271h-97.248c-12.851,0-23.269-20.719-23.269-46.271l0,0c0-25.554,10.418-46.269,23.269-46.269
	h97.248C366.441,312.104,376.858,332.818,376.858,358.372L376.858,358.372z"/>
<rect id="PRIMARY_215_" x="236.287" y="315.712" fill="#F1F1F1" stroke="#231F20" stroke-width="3.1586" stroke-miterlimit="10" width="136.877" height="10.458"/>
<rect id="PRIMARY_214_" x="237.229" y="332.022" fill="#F1F1F1" stroke="#231F20" stroke-width="3.1586" stroke-miterlimit="10" width="138.686" height="13.319"/>
<polygon id="PRIMARY_213_" fill="#F1F1F1" stroke="#231F20" stroke-width="3.1586" stroke-miterlimit="10" points="375.617,370.152 
	233.316,346.904 234.23,324.775 376.531,348.028 "/>
<polygon id="PRIMARY_212_" fill="#F1F1F1" stroke="#231F20" stroke-width="3.1586" stroke-miterlimit="10" points="240.693,391.3 
	378.574,361.965 379.216,374.029 241.341,403.357 "/>
<rect id="PRIMARY_211_" x="237.229" y="390.999" fill="#F1F1F1" stroke="#231F20" stroke-width="3.1586" stroke-miterlimit="10" width="130.037" height="8.783"/>
<rect id="PRIMARY_210_" x="233.664" y="368.622" fill="#F1F1F1" stroke="#231F20" stroke-width="3.1586" stroke-miterlimit="10" width="143.192" height="14.637"/>
<polygon id="PRIMARY_209_" fill="#F1F1F1" stroke="#231F20" stroke-width="3.1586" stroke-miterlimit="10" points="376.55,352.69 
	230.937,384.194 230.162,370.059 375.774,338.555 "/>
<rect id="PRIMARY_208_" x="230.386" y="354.401" fill="#F1F1F1" stroke="#231F20" stroke-width="3.1586" stroke-miterlimit="10" width="146.47" height="8.781"/>
</svg>
