<?xml version="1.0" encoding="utf-8"?>
<!-- Generator: Adobe Illustrator 16.0.0, SVG Export Plug-In . SVG Version: 6.00 Build 0)  -->
<svg version="1.1" id="Layer_1" xmlns="http://www.w3.org/2000/svg" xmlns:xlink="http://www.w3.org/1999/xlink" x="0px" y="0px"
	 width="612px" height="792px" viewBox="0 0 612 792" enable-background="new 0 0 612 792" xml:space="preserve">
<rect x="266.5" y="369.004" fill-opacity="0" fill="#231F20" width="81" height="54.487"/>
<path id="SECONDARY_10_" fill="#8C8900" stroke="#231F20" stroke-miterlimit="10" d="M329.104,384.249
	c0,8.096-3.296,14.658-7.359,14.658h-30.77c-4.066,0-7.362-6.563-7.362-14.658l0,0c0-8.095,3.296-14.657,7.362-14.657h30.77
	C325.808,369.592,329.104,376.154,329.104,384.249L329.104,384.249z"/>
<rect id="PRIMARY_215_" x="284.626" y="370.735" fill="#F1F1F1" stroke="#231F20" stroke-miterlimit="10" width="43.309" height="3.313"/>
<rect id="PRIMARY_214_" x="284.924" y="375.902" fill="#F1F1F1" stroke="#231F20" stroke-miterlimit="10" width="43.881" height="4.219"/>
<polygon id="PRIMARY_213_" fill="#F1F1F1" stroke="#231F20" stroke-miterlimit="10" points="328.711,387.981 283.686,380.616 
	283.975,373.606 329,380.972 "/>
<polygon id="PRIMARY_212_" fill="#F1F1F1" stroke="#231F20" stroke-miterlimit="10" points="286.02,394.68 329.646,385.387 
	329.85,389.209 286.225,398.5 "/>
<rect id="PRIMARY_211_" x="284.924" y="394.585" fill="#F1F1F1" stroke="#231F20" stroke-miterlimit="10" width="41.144" height="2.782"/>
<rect id="PRIMARY_210_" x="283.796" y="387.496" fill="#F1F1F1" stroke="#231F20" stroke-miterlimit="10" width="45.307" height="4.637"/>
<polygon id="PRIMARY_209_" fill="#F1F1F1" stroke="#231F20" stroke-miterlimit="10" points="329.006,382.449 282.933,392.429 
	282.688,387.951 328.761,377.971 "/>
<rect id="PRIMARY_208_" x="282.759" y="382.991" fill="#F1F1F1" stroke="#231F20" stroke-miterlimit="10" width="46.344" height="2.782"/>
</svg>
