<?xml version="1.0" encoding="utf-8"?>
<!-- Generator: Adobe Illustrator 16.0.0, SVG Export Plug-In . SVG Version: 6.00 Build 0)  -->
<svg version="1.1" id="Layer_1" xmlns="http://www.w3.org/2000/svg" xmlns:xlink="http://www.w3.org/1999/xlink" x="0px" y="0px"
	 width="612px" height="792px" viewBox="0 0 612 792" enable-background="new 0 0 612 792" xml:space="preserve">
<rect x="266.5" y="369.004" fill-opacity="0" fill="#231F20" width="81" height="54.487"/>
<path id="SECONDARY_21_" fill="#8C8900" stroke="#231F20" stroke-miterlimit="10" d="M325.529,388.711
	c0-2.658-1.877-4.813-4.191-4.813s-4.191,2.154-4.191,4.813v7.252c0,1.177,0.383,2.241,0.994,3.077h3.898
	c1.167,0,2.266-0.555,3.246-1.517c0.146-0.492,0.244-1.012,0.244-1.561V388.711z"/>
<path id="SECONDARY_20_" fill="#8C8900" stroke="#231F20" stroke-miterlimit="10" d="M315.017,388.333
	c0-2.658-1.876-4.813-4.191-4.813c-2.314,0-4.191,2.154-4.191,4.813v7.252c0,1.325,0.468,2.524,1.222,3.395h5.939
	c0.755-0.87,1.222-2.069,1.222-3.395V388.333z"/>
<path id="SECONDARY_19_" fill="#8C8900" stroke="#231F20" stroke-miterlimit="10" d="M304.504,388.333
	c0-2.658-1.877-4.813-4.191-4.813c-2.315,0-4.191,2.154-4.191,4.813v7.252c0,1.325,0.467,2.524,1.222,3.395h5.939
	c0.754-0.87,1.222-2.069,1.222-3.395V388.333z"/>
<path id="SECONDARY_18_" fill="#8C8900" stroke="#231F20" stroke-miterlimit="10" d="M293.991,395.372v-7.252
	c0-2.658-1.877-4.813-4.191-4.813c-2.315,0-4.191,2.154-4.191,4.813v5.566c1.351,3.233,3.385,5.293,5.662,5.293h1.277
	C293.425,398.098,293.991,396.816,293.991,395.372z"/>
<path id="SECONDARY_17_" fill="#8C8900" stroke="#231F20" stroke-miterlimit="10" d="M284.275,379.831l6.013,3.978
	c2.217,1.467,5.203,0.858,6.669-1.359c1.466-2.216,0.858-5.201-1.359-6.668l-6.048-4.001c-0.453-0.3-0.942-0.491-1.439-0.622
	C286.305,372.873,284.904,375.999,284.275,379.831z"/>
</svg>
