<?xml version="1.0" encoding="utf-8"?>
<!-- Generator: Adobe Illustrator 16.0.0, SVG Export Plug-In . SVG Version: 6.00 Build 0)  -->
<svg version="1.1" id="Layer_1" xmlns="http://www.w3.org/2000/svg" xmlns:xlink="http://www.w3.org/1999/xlink" x="0px" y="0px"
	 width="612px" height="792px" viewBox="0 0 612 792" enable-background="new 0 0 612 792" xml:space="preserve">
<rect x="266.5" y="369.004" fill-opacity="0" fill="#231F20" width="81" height="54.487"/>
<path id="SECONDARY_31_" fill="#8C8900" stroke="#231F20" stroke-miterlimit="10" d="M322.069,399.071h-4.923v6.104
	c0,2.658,1.877,4.813,4.191,4.813s4.191-2.154,4.191-4.813v-7.252c0-0.182-0.029-0.354-0.047-0.531
	C324.462,398.46,323.302,399.071,322.069,399.071z"/>
<path id="SECONDARY_30_" fill="#8C8900" stroke="#231F20" stroke-miterlimit="10" d="M306.634,399.071v6.104
	c0,2.658,1.877,4.813,4.191,4.813c2.315,0,4.191-2.154,4.191-4.813v-6.104H306.634z"/>
<path id="SECONDARY_29_" fill="#8C8900" stroke="#231F20" stroke-miterlimit="10" d="M296.121,399.01v6.166
	c0,2.658,1.876,4.813,4.191,4.813c2.314,0,4.191-2.154,4.191-4.813v-6.166H296.121z"/>
<path id="SECONDARY_28_" fill="#8C8900" stroke="#231F20" stroke-miterlimit="10" d="M291.24,399.071
	c-1.927,0-3.676-1.486-4.988-3.899c-0.402,0.738-0.644,1.604-0.644,2.539v7.252c0,2.658,1.876,4.813,4.191,4.813
	c2.314,0,4.191-2.154,4.191-4.813v-5.892H291.24z"/>
<path id="SECONDARY_27_" fill="#8C8900" stroke="#231F20" stroke-miterlimit="10" d="M283.879,384.352
	c0-1.1,0.066-2.168,0.181-3.199c-1.204-0.026-2.419,0.388-3.374,1.27l-5.327,4.92c-1.953,1.804-2.074,4.848-0.271,6.801
	c1.803,1.952,4.848,2.073,6.801,0.27l2.977-2.75C284.242,389.509,283.879,387.018,283.879,384.352z"/>
</svg>
