<?xml version="1.0" encoding="utf-8"?>
<!-- Generator: Adobe Illustrator 16.0.0, SVG Export Plug-In . SVG Version: 6.00 Build 0)  -->
<svg version="1.1" id="Layer_1" xmlns="http://www.w3.org/2000/svg" xmlns:xlink="http://www.w3.org/1999/xlink" x="0px" y="0px"
	 width="612px" height="792px" viewBox="0 0 612 792" enable-background="new 0 0 612 792" xml:space="preserve">
<rect x="179" y="310.248" fill="#231F20" fill-opacity="0" width="256" height="172"/>
<path id="SECONDARY_26_" fill="#8C8900" stroke="#231F20" stroke-width="3.1586" stroke-miterlimit="10" d="M257.197,405.54h15.559
	v19.268c0,8.391-5.932,15.194-13.246,15.194c-7.316,0-13.245-6.801-13.245-15.194v-22.893c0-0.573,0.091-1.116,0.148-1.677
	C249.634,403.61,253.299,405.54,257.197,405.54z"/>
<path id="SECONDARY_25_" fill="#8C8900" stroke="#231F20" stroke-width="3.1586" stroke-miterlimit="10" d="M305.979,405.54v19.268
	c0,8.391-5.932,15.194-13.246,15.194c-7.316,0-13.245-6.801-13.245-15.194V405.54H305.979z"/>
<path id="SECONDARY_24_" fill="#8C8900" stroke="#231F20" stroke-width="3.1586" stroke-miterlimit="10" d="M339.204,405.346v19.465
	c0,8.391-5.933,15.194-13.247,15.194c-7.315,0-13.247-6.8-13.247-15.194v-19.465H339.204z"/>
<path id="SECONDARY_23_" fill="#8C8900" stroke="#231F20" stroke-width="3.1586" stroke-miterlimit="10" d="M354.63,405.54
	c6.093,0,11.617-4.691,15.762-12.309c1.272,2.33,2.04,5.064,2.04,8.015v22.893c0,8.391-5.932,15.194-13.246,15.194
	c-7.313,0-13.244-6.8-13.244-15.194V405.54H354.63L354.63,405.54z"/>
<path id="SECONDARY_22_" fill="#8C8900" stroke="#231F20" stroke-width="3.1586" stroke-miterlimit="10" d="M377.895,359.076
	c0-3.473-0.203-6.844-0.57-10.099c3.806-0.082,7.645,1.225,10.663,4.009l16.837,15.531c6.173,5.695,6.553,15.304,0.854,21.469
	c-5.697,6.161-15.32,6.543-21.493,0.853l-9.408-8.681C376.75,375.354,377.895,367.492,377.895,359.076z"/>
</svg>
