<?xml version="1.0" encoding="utf-8"?>
<!-- Generator: Adobe Illustrator 16.0.0, SVG Export Plug-In . SVG Version: 6.00 Build 0)  -->
<svg version="1.1" id="Layer_1" xmlns="http://www.w3.org/2000/svg" xmlns:xlink="http://www.w3.org/1999/xlink" x="0px" y="0px"
	 width="612px" height="792px" viewBox="0 0 612 792" enable-background="new 0 0 612 792" xml:space="preserve">
<rect x="178.042" y="272.291" fill="#231F20" fill-opacity="0" width="255.917" height="244.496"/>
<path id="SECONDARY_8_" fill="#8C8900" stroke="#231F20" stroke-width="3.1428" stroke-miterlimit="10" d="M329.301,502.381
	c-11.725,12.871-29.237,16.168-39.117,7.354l-44.316-39.521c-9.876-8.808-8.375-26.388,3.349-39.259l87.766-96.354
	c11.725-12.874,29.241-16.166,39.117-7.359l44.313,39.526c9.88,8.81,8.381,26.389-3.344,39.262L329.301,502.381z"/>
<polygon id="PRIMARY_180_" fill="#F1F1F1" stroke="#231F20" stroke-width="3.1428" stroke-miterlimit="10" points="362.176,318.856 
	431.99,381.119 425.819,387.894 356.006,325.629 "/>
<polygon id="PRIMARY_179_" fill="#F1F1F1" stroke="#231F20" stroke-width="3.1428" stroke-miterlimit="10" points="423.931,397.161 
	335.527,335.524 339.785,330.181 428.188,391.818 "/>
<polygon id="PRIMARY_178_" fill="#F1F1F1" stroke="#231F20" stroke-width="3.1428" stroke-miterlimit="10" points="411.182,414.103 
	335.213,335.202 338.088,332.298 414.058,411.196 "/>
<polygon id="PRIMARY_177_" fill="#F1F1F1" stroke="#231F20" stroke-width="3.1428" stroke-miterlimit="10" points="324.374,346.976 
	405.205,419.066 401.321,423.332 320.489,351.241 "/>
<polygon id="PRIMARY_176_" fill="#F1F1F1" stroke="#231F20" stroke-width="3.1428" stroke-miterlimit="10" points="347.268,321.955 
	427.358,393.385 423.934,397.146 343.843,325.716 "/>
<polygon id="PRIMARY_175_" fill="#F1F1F1" stroke="#231F20" stroke-width="3.1428" stroke-miterlimit="10" points="417.652,410.029 
	335.842,337.068 340.671,331.767 422.48,404.729 "/>
<polygon id="PRIMARY_174_" fill="#F1F1F1" stroke="#231F20" stroke-width="3.1428" stroke-miterlimit="10" points="332.14,338.45 
	412.972,410.539 406.347,417.814 325.516,345.723 "/>
<polygon id="PRIMARY_173_" fill="#F1F1F1" stroke="#231F20" stroke-width="3.1428" stroke-miterlimit="10" points="319.135,352.749 
	402.154,426.791 400.324,428.8 317.305,354.758 "/>
<polygon id="PRIMARY_172_" fill="#F1F1F1" stroke="#231F20" stroke-width="3.1428" stroke-miterlimit="10" points="383.444,444.758 
	300.871,371.113 305.21,366.347 387.785,439.992 "/>
<polygon id="PRIMARY_171_" fill="#F1F1F1" stroke="#231F20" stroke-width="3.1428" stroke-miterlimit="10" points="392.416,437.434 
	309.394,363.39 314.954,357.289 397.977,431.33 "/>
<polygon id="PRIMARY_170_" fill="#F1F1F1" stroke="#231F20" stroke-width="3.1428" stroke-miterlimit="10" points="296.758,377.333 
	380.204,451.755 373.352,459.281 289.903,384.857 "/>
<polygon id="PRIMARY_169_" fill="#F1F1F1" stroke="#231F20" stroke-width="3.1428" stroke-miterlimit="10" points="367.798,461.177 
	302.594,369.238 311.189,361.873 376.391,453.81 "/>
<polygon id="PRIMARY_168_" fill="#F1F1F1" stroke="#231F20" stroke-width="3.1428" stroke-miterlimit="10" points="370.054,459.415 
	274.022,402.184 279.621,394.574 375.647,451.801 "/>
<polygon id="PRIMARY_167_" fill="#F1F1F1" stroke="#231F20" stroke-width="3.1428" stroke-miterlimit="10" points="288.305,386.616 
	369.137,458.707 363.654,464.728 282.821,392.637 "/>
<polygon id="PRIMARY_166_" fill="#F1F1F1" stroke="#231F20" stroke-width="3.1428" stroke-miterlimit="10" points="354.626,477.69 
	271.402,403.466 274.828,399.704 358.054,473.926 "/>
<polygon id="PRIMARY_165_" fill="#F1F1F1" stroke="#231F20" stroke-width="3.1428" stroke-miterlimit="10" points="267.678,409.188 
	350.078,482.676 347.566,485.437 265.165,411.947 "/>
<polygon id="PRIMARY_164_" fill="#F1F1F1" stroke="#231F20" stroke-width="3.1428" stroke-miterlimit="10" points="264.674,410.692 
	361.441,470.339 368.316,461.149 271.553,401.493 "/>
<polygon id="PRIMARY_163_" fill="#F1F1F1" stroke="#231F20" stroke-width="3.1428" stroke-miterlimit="10" points="388.424,440.73 
	323.383,343.026 332.948,335.112 397.982,432.812 "/>
<polygon id="PRIMARY_162_" fill="#F1F1F1" stroke="#231F20" stroke-width="3.1428" stroke-miterlimit="10" points="418.68,410.231 
	294.771,382.119 297.864,375.619 421.771,403.729 "/>
<polygon id="PRIMARY_161_" fill="#F1F1F1" stroke="#231F20" stroke-width="3.1428" stroke-miterlimit="10" points="262.852,411.699 
	346.993,486.743 339.748,494.696 255.607,419.652 "/>
<polygon id="PRIMARY_160_" fill="#F1F1F1" stroke="#231F20" stroke-width="3.1428" stroke-miterlimit="10" points="333.917,501.629 
	250.897,427.588 252.679,425.631 335.7,499.672 "/>
<polygon id="PRIMARY_159_" fill="#F1F1F1" stroke="#231F20" stroke-width="3.1428" stroke-miterlimit="10" points="309.166,520.359 
	236.527,455.578 240.688,451.011 313.325,515.792 "/>
<polygon id="PRIMARY_158_" fill="#F1F1F1" stroke="#231F20" stroke-width="3.1428" stroke-miterlimit="10" points="339.742,494.711 
	236.558,449.163 240.76,442.526 343.938,488.077 "/>
<polygon id="PRIMARY_157_" fill="#F1F1F1" stroke="#231F20" stroke-width="3.1428" stroke-miterlimit="10" points="247.599,432.711 
	321.711,498.809 315.5,505.629 241.387,439.531 "/>
<polygon id="PRIMARY_156_" fill="#F1F1F1" stroke="#231F20" stroke-width="3.1428" stroke-miterlimit="10" points="255.375,422.287 
	338.616,496.527 335.769,499.654 252.526,425.414 "/>
<polygon id="PRIMARY_155_" fill="#F1F1F1" stroke="#231F20" stroke-width="3.1428" stroke-miterlimit="10" points="314.658,519.92 
	258.539,418.993 266.781,412.771 322.908,513.698 "/>
<polygon id="PRIMARY_154_" fill="#F1F1F1" stroke="#231F20" stroke-width="3.1428" stroke-miterlimit="10" points="333.537,498.738 
	243.522,444.926 237.393,453.251 327.413,507.061 "/>
</svg>
