<?xml version="1.0" encoding="utf-8"?>
<!-- Generator: Adobe Illustrator 16.0.0, SVG Export Plug-In . SVG Version: 6.00 Build 0)  -->
<svg version="1.1" id="Layer_1" xmlns="http://www.w3.org/2000/svg" xmlns:xlink="http://www.w3.org/1999/xlink" x="0px" y="0px"
	 width="612px" height="792px" viewBox="0 0 612 792" enable-background="new 0 0 612 792" xml:space="preserve">
<rect x="266.5" y="352.008" fill-opacity="0" fill="#231F20" width="81" height="89.313"/>
<path id="SECONDARY_9_" fill="#8C8900" stroke="#231F20" stroke-miterlimit="10" d="M322.166,425.737
	c0,7.962-3.236,14.418-7.23,14.418h-17.917c-3.994,0-7.232-6.456-7.232-14.418v-59.595c0-7.962,3.238-14.418,7.232-14.418h17.917
	c3.994,0,7.23,6.456,7.23,14.418V425.737z"/>
<rect id="PRIMARY_207_" x="292.203" y="353.114" fill="#F1F1F1" stroke="#231F20" stroke-miterlimit="10" width="28.227" height="4.189"/>
<polygon id="PRIMARY_206_" fill="#F1F1F1" stroke="#231F20" stroke-miterlimit="10" points="321.896,361.028 289.648,366.899 
	289.514,363.78 321.761,357.908 "/>
<polygon id="PRIMARY_205_" fill="#F1F1F1" stroke="#231F20" stroke-miterlimit="10" points="322.493,370.689 289.514,366.886 
	289.565,365.019 322.544,368.822 "/>
<rect id="PRIMARY_204_" x="289.485" y="374.215" fill="#F1F1F1" stroke="#231F20" stroke-miterlimit="10" width="32.681" height="2.638"/>
<rect id="PRIMARY_203_" x="289.514" y="358.7" fill="#F1F1F1" stroke="#231F20" stroke-miterlimit="10" width="32.381" height="2.328"/>
<rect id="PRIMARY_202_" x="290.035" y="364.042" fill="#F1F1F1" stroke="#231F20" stroke-miterlimit="10" width="33.077" height="3.279"/>
<rect id="PRIMARY_201_" x="289.485" y="368.94" fill="#F1F1F1" stroke="#231F20" stroke-miterlimit="10" width="32.681" height="4.499"/>
<rect id="PRIMARY_200_" x="289.485" y="377.784" fill="#F1F1F1" stroke="#231F20" stroke-miterlimit="10" width="33.568" height="1.242"/>
<rect id="PRIMARY_199_" x="289.159" y="386.628" fill="#F1F1F1" stroke="#231F20" stroke-miterlimit="10" width="33.385" height="2.948"/>
<rect id="PRIMARY_198_" x="289.485" y="380.577" fill="#F1F1F1" stroke="#231F20" stroke-miterlimit="10" width="33.568" height="3.774"/>
<rect id="PRIMARY_197_" x="289.485" y="392.989" fill="#F1F1F1" stroke="#231F20" stroke-miterlimit="10" width="33.74" height="4.655"/>
<polygon id="PRIMARY_196_" fill="#F1F1F1" stroke="#231F20" stroke-miterlimit="10" points="322.383,399.959 289.153,388.43 
	289.576,383.299 322.802,394.829 "/>
<polygon id="PRIMARY_195_" fill="#F1F1F1" stroke="#231F20" stroke-miterlimit="10" points="322.526,398.67 289.475,408.369 
	289.177,404.066 322.229,394.37 "/>
<rect id="PRIMARY_194_" x="289.485" y="398.73" fill="#F1F1F1" stroke="#231F20" stroke-miterlimit="10" width="32.681" height="3.725"/>
<rect id="PRIMARY_193_" x="289.153" y="407.265" fill="#F1F1F1" stroke="#231F20" stroke-miterlimit="10" width="33.648" height="2.327"/>
<rect id="PRIMARY_192_" x="289.485" y="412.695" fill="#F1F1F1" stroke="#231F20" stroke-miterlimit="10" width="33.316" height="1.707"/>
<polygon id="PRIMARY_191_" fill="#F1F1F1" stroke="#231F20" stroke-miterlimit="10" points="289.117,414.118 322.826,405.021 
	322.49,399.791 288.784,408.887 "/>
<polygon id="PRIMARY_190_" fill="#F1F1F1" stroke="#231F20" stroke-miterlimit="10" points="322.828,386.703 288.465,373.157 
	288.991,367.544 323.352,381.091 "/>
<polygon id="PRIMARY_189_" fill="#F1F1F1" stroke="#231F20" stroke-miterlimit="10" points="323.381,367.086 290.026,395.206 
	289.396,392.047 322.748,363.926 "/>
<rect id="PRIMARY_188_" x="288.919" y="415.023" fill="#F1F1F1" stroke="#231F20" stroke-miterlimit="10" width="34.018" height="4.92"/>
<rect id="PRIMARY_187_" x="289.485" y="422.852" fill="#F1F1F1" stroke="#231F20" stroke-miterlimit="10" width="33.568" height="1.209"/>
<rect id="PRIMARY_186_" x="291.97" y="435.161" fill="#F1F1F1" stroke="#231F20" stroke-miterlimit="10" width="29.368" height="2.825"/>
<polygon id="PRIMARY_185_" fill="#F1F1F1" stroke="#231F20" stroke-miterlimit="10" points="322.937,419.943 290.664,435.805 
	290.252,432.262 322.525,416.4 "/>
<rect id="PRIMARY_184_" x="289.787" y="426.833" fill="#F1F1F1" stroke="#231F20" stroke-miterlimit="10" width="29.965" height="4.218"/>
<rect id="PRIMARY_183_" x="289.396" y="420.919" fill="#F1F1F1" stroke="#231F20" stroke-miterlimit="10" width="33.658" height="1.933"/>
<polygon id="PRIMARY_182_" fill="#F1F1F1" stroke="#231F20" stroke-miterlimit="10" points="322.465,436.181 289.436,418.818 
	290.012,414.187 323.04,431.547 "/>
<polygon id="PRIMARY_181_" fill="#F1F1F1" stroke="#231F20" stroke-miterlimit="10" points="322.371,423.206 291.357,432.24 
	291.682,436.946 322.695,427.91 "/>
<circle fill="none" stroke="#231F20" stroke-miterlimit="10" cx="306.25" cy="360.11" r="2.5"/>
<circle fill="none" stroke="#231F20" stroke-miterlimit="10" cx="306.25" cy="433.75" r="2.5"/>
</svg>
