<?xml version="1.0" encoding="utf-8"?>
<!-- Generator: Adobe Illustrator 16.0.0, SVG Export Plug-In . SVG Version: 6.00 Build 0)  -->
<svg version="1.1" id="Layer_1" xmlns="http://www.w3.org/2000/svg" xmlns:xlink="http://www.w3.org/1999/xlink" x="0px" y="0px"
	 width="612px" height="792px" viewBox="0 0 612 792" enable-background="new 0 0 612 792" xml:space="preserve">
<rect x="192" y="269.752" fill="#231F20" fill-opacity="0" width="230" height="254.35"/>
<path id="SECONDARY_9_" fill="#8C8900" stroke="#231F20" stroke-width="2.8437" stroke-miterlimit="10" d="M350.064,479.721
	c0,22.674-9.19,41.061-20.531,41.061h-50.874c-11.342,0-20.535-18.387-20.535-41.061V310.004c0-22.674,9.193-41.06,20.535-41.06
	h50.874c11.341,0,20.531,18.386,20.531,41.06V479.721z"/>
<rect id="PRIMARY_207_" x="264.984" y="272.903" fill="#F1F1F1" stroke="#231F20" stroke-width="2.8437" stroke-miterlimit="10" width="80.149" height="11.929"/>
<polygon id="PRIMARY_206_" fill="#F1F1F1" stroke="#231F20" stroke-width="2.8437" stroke-miterlimit="10" points="349.299,295.439 
	257.729,312.159 257.349,303.276 348.913,286.555 "/>
<polygon id="PRIMARY_205_" fill="#F1F1F1" stroke="#231F20" stroke-width="2.8437" stroke-miterlimit="10" points="350.993,322.953 
	257.349,312.122 257.493,306.806 351.137,317.635 "/>
<rect id="PRIMARY_204_" x="257.266" y="332.994" fill="#F1F1F1" stroke="#231F20" stroke-width="2.8437" stroke-miterlimit="10" width="92.799" height="7.513"/>
<rect id="PRIMARY_203_" x="257.349" y="288.811" fill="#F1F1F1" stroke="#231F20" stroke-width="2.8437" stroke-miterlimit="10" width="91.944" height="6.629"/>
<rect id="PRIMARY_202_" x="258.828" y="304.023" fill="#F1F1F1" stroke="#231F20" stroke-width="2.8437" stroke-miterlimit="10" width="93.923" height="9.337"/>
<rect id="PRIMARY_201_" x="257.266" y="317.972" fill="#F1F1F1" stroke="#231F20" stroke-width="2.8437" stroke-miterlimit="10" width="92.799" height="12.813"/>
<rect id="PRIMARY_200_" x="257.266" y="343.159" fill="#F1F1F1" stroke="#231F20" stroke-width="2.8437" stroke-miterlimit="10" width="95.316" height="3.536"/>
<rect id="PRIMARY_199_" x="256.341" y="368.344" fill="#F1F1F1" stroke="#231F20" stroke-width="2.8437" stroke-miterlimit="10" width="94.796" height="8.396"/>
<rect id="PRIMARY_198_" x="257.266" y="351.112" fill="#F1F1F1" stroke="#231F20" stroke-width="2.8437" stroke-miterlimit="10" width="95.316" height="10.748"/>
<rect id="PRIMARY_197_" x="257.266" y="386.46" fill="#F1F1F1" stroke="#231F20" stroke-width="2.8437" stroke-miterlimit="10" width="95.805" height="13.255"/>
<polygon id="PRIMARY_196_" fill="#F1F1F1" stroke="#231F20" stroke-width="2.8437" stroke-miterlimit="10" points="350.68,406.309 
	256.323,373.477 257.525,358.863 351.869,391.7 "/>
<polygon id="PRIMARY_195_" fill="#F1F1F1" stroke="#231F20" stroke-width="2.8437" stroke-miterlimit="10" points="351.087,402.638 
	257.238,430.26 256.391,418.006 350.241,390.393 "/>
<rect id="PRIMARY_194_" x="257.266" y="402.811" fill="#F1F1F1" stroke="#231F20" stroke-width="2.8437" stroke-miterlimit="10" width="92.799" height="10.606"/>
<rect id="PRIMARY_193_" x="256.323" y="427.114" fill="#F1F1F1" stroke="#231F20" stroke-width="2.8437" stroke-miterlimit="10" width="95.543" height="6.627"/>
<rect id="PRIMARY_192_" x="257.266" y="442.579" fill="#F1F1F1" stroke="#231F20" stroke-width="2.8437" stroke-miterlimit="10" width="94.601" height="4.861"/>
<polygon id="PRIMARY_191_" fill="#F1F1F1" stroke="#231F20" stroke-width="2.8437" stroke-miterlimit="10" points="256.222,446.632 
	351.938,420.726 350.984,405.83 255.276,431.733 "/>
<polygon id="PRIMARY_190_" fill="#F1F1F1" stroke="#231F20" stroke-width="2.8437" stroke-miterlimit="10" points="351.944,368.558 
	254.369,329.982 255.864,313.996 353.431,352.575 "/>
<polygon id="PRIMARY_189_" fill="#F1F1F1" stroke="#231F20" stroke-width="2.8437" stroke-miterlimit="10" points="353.514,312.692 
	258.802,392.773 257.013,383.776 351.717,303.692 "/>
<rect id="PRIMARY_188_" x="255.659" y="449.21" fill="#F1F1F1" stroke="#231F20" stroke-width="2.8437" stroke-miterlimit="10" width="96.596" height="14.011"/>
<rect id="PRIMARY_187_" x="257.266" y="471.503" fill="#F1F1F1" stroke="#231F20" stroke-width="2.8437" stroke-miterlimit="10" width="95.316" height="3.442"/>
<rect id="PRIMARY_186_" x="264.323" y="506.559" fill="#F1F1F1" stroke="#231F20" stroke-width="2.8437" stroke-miterlimit="10" width="83.39" height="8.045"/>
<polygon id="PRIMARY_185_" fill="#F1F1F1" stroke="#231F20" stroke-width="2.8437" stroke-miterlimit="10" points="352.255,463.221 
	260.614,508.391 259.444,498.301 351.084,453.131 "/>
<rect id="PRIMARY_184_" x="258.124" y="482.841" fill="#F1F1F1" stroke="#231F20" stroke-width="2.8437" stroke-miterlimit="10" width="85.085" height="12.012"/>
<rect id="PRIMARY_183_" x="257.013" y="465.999" fill="#F1F1F1" stroke="#231F20" stroke-width="2.8437" stroke-miterlimit="10" width="95.572" height="5.504"/>
<polygon id="PRIMARY_182_" fill="#F1F1F1" stroke="#231F20" stroke-width="2.8437" stroke-miterlimit="10" points="350.912,509.462 
	257.127,460.017 258.763,446.829 352.546,496.266 "/>
<polygon id="PRIMARY_181_" fill="#F1F1F1" stroke="#231F20" stroke-width="2.8437" stroke-miterlimit="10" points="350.646,472.513 
	262.582,498.24 263.505,511.643 351.567,485.909 "/>
<ellipse fill="none" stroke="#231F20" stroke-width="2.8437" stroke-miterlimit="10" cx="304.87" cy="292.825" rx="7.099" ry="7.12"/>
<ellipse fill="none" stroke="#231F20" stroke-width="2.8437" stroke-miterlimit="10" cx="304.87" cy="502.54" rx="7.099" ry="7.12"/>
</svg>
