<?xml version="1.0" encoding="utf-8"?>
<!-- Generator: Adobe Illustrator 16.0.0, SVG Export Plug-In . SVG Version: 6.00 Build 0)  -->
<svg version="1.1" id="Layer_1" xmlns="http://www.w3.org/2000/svg" xmlns:xlink="http://www.w3.org/1999/xlink" x="0px" y="0px"
	 width="612px" height="792px" viewBox="0 0 612 792" enable-background="new 0 0 612 792" xml:space="preserve">
<rect x="266.5" y="369.004" fill-opacity="0" fill="#231F20" width="81" height="54.487"/>
<path id="SECONDARY_16_" fill="#8C8900" stroke="#231F20" stroke-miterlimit="10" d="M290.975,398.907
	c-0.829,0-1.623-0.285-2.367-0.788c0.007,0.527,0.098,1.029,0.24,1.505c0.98,0.962,2.079,1.517,3.245,1.517h3.899
	c0.461-0.631,0.791-1.393,0.926-2.233H290.975z"/>
<path id="SECONDARY_15_" fill="#8C8900" stroke="#231F20" stroke-miterlimit="10" d="M299.288,398.979
	c0.196,0.802,0.551,1.527,1.049,2.102h5.939c0.498-0.574,0.853-1.3,1.049-2.102H299.288z"/>
<path id="SECONDARY_14_" fill="#8C8900" stroke="#231F20" stroke-miterlimit="10" d="M309.801,398.979
	c0.196,0.802,0.552,1.527,1.049,2.102h5.939c0.498-0.574,0.854-1.3,1.05-2.102H309.801z"/>
<path id="SECONDARY_13_" fill="#8C8900" stroke="#231F20" stroke-miterlimit="10" d="M321.729,398.979h-1.348
	c0.241,0.816,0.649,1.545,1.203,2.102h1.277c2.277,0,4.313-2.06,5.662-5.293v-5.566c0-0.063-0.014-0.122-0.016-0.186
	C327.389,395.291,324.774,398.979,321.729,398.979z"/>
<path id="SECONDARY_12_" fill="#8C8900" stroke="#231F20" stroke-miterlimit="10" d="M328.699,380.359l2.158-1.428
	c-0.629-3.832-2.029-6.958-3.836-8.673c-0.498,0.131-0.986,0.322-1.439,0.622l-0.57,0.377
	C326.801,373.121,328.153,376.404,328.699,380.359z"/>
</svg>
