<?xml version="1.0" encoding="utf-8"?>
<!-- Generator: Adobe Illustrator 16.0.0, SVG Export Plug-In . SVG Version: 6.00 Build 0)  -->
<svg version="1.1" id="Layer_1" xmlns="http://www.w3.org/2000/svg" xmlns:xlink="http://www.w3.org/1999/xlink" x="0px" y="0px"
	 width="612px" height="792px" viewBox="0 0 612 792" enable-background="new 0 0 612 792" xml:space="preserve">
<rect x="179" y="310.248" fill="#231F20" fill-opacity="0" width="256" height="172"/>
<path id="SECONDARY_31_" fill="#8C8900" stroke="#231F20" stroke-width="3.1586" stroke-miterlimit="10" d="M354.627,405.161
	h-15.559v19.267c0,8.392,5.932,15.195,13.243,15.195c7.315,0,13.247-6.801,13.247-15.195v-22.892c0-0.573-0.093-1.116-0.148-1.677
	C362.188,403.231,358.521,405.161,354.627,405.161z"/>
<path id="SECONDARY_30_" fill="#8C8900" stroke="#231F20" stroke-width="3.1586" stroke-miterlimit="10" d="M305.843,405.161v19.267
	c0,8.392,5.932,15.195,13.247,15.195c7.314,0,13.243-6.801,13.243-15.195v-19.267H305.843z"/>
<path id="SECONDARY_29_" fill="#8C8900" stroke="#231F20" stroke-width="3.1586" stroke-miterlimit="10" d="M272.617,404.967v19.465
	c0,8.391,5.929,15.194,13.246,15.194c7.313,0,13.245-6.801,13.245-15.194v-19.465H272.617z"/>
<path id="SECONDARY_28_" fill="#8C8900" stroke="#231F20" stroke-width="3.1586" stroke-miterlimit="10" d="M257.191,405.161
	c-6.091,0-11.619-4.691-15.766-12.309c-1.27,2.331-2.035,5.065-2.035,8.015v22.893c0,8.391,5.929,15.194,13.245,15.194
	c7.313,0,13.247-6.801,13.247-15.194v-18.599H257.191L257.191,405.161z"/>
<path id="SECONDARY_27_" fill="#8C8900" stroke="#231F20" stroke-width="3.1586" stroke-miterlimit="10" d="M233.926,358.697
	c0-3.473,0.208-6.844,0.573-10.099c-3.806-0.082-7.645,1.225-10.664,4.009l-16.836,15.53c-6.171,5.695-6.554,15.304-0.856,21.47
	c5.699,6.161,15.322,6.543,21.495,0.853l9.409-8.681C235.074,374.976,233.926,367.113,233.926,358.697z"/>
</svg>
