<?xml version="1.0" encoding="utf-8"?>
<!-- Generator: Adobe Illustrator 16.0.0, SVG Export Plug-In . SVG Version: 6.00 Build 0)  -->
<svg version="1.1" id="Layer_1" xmlns="http://www.w3.org/2000/svg" xmlns:xlink="http://www.w3.org/1999/xlink" x="0px" y="0px"
	 width="612px" height="792px" viewBox="0 0 612 792" enable-background="new 0 0 612 792" xml:space="preserve">
<rect id="head_frame" x="212.5" y="319.5" fill="#BBBCBE" fill-opacity="0" stroke-miterlimit="10" width="151" height="131"/>
<path class="secondary_color" id="SECONDARY_18_" fill="#FFFDB5" stroke="#231F20" stroke-miterlimit="10" d="M262.926,355.021
	c7.938,2.225,2.117,9.963-3.094,13.795c-0.994,0.702-2.075,1.275-3.235,1.699c-3.708,1.362-7.653,1.001-11.311-0.722
	c-0.914-0.43-1.81-0.946-2.68-1.539c-5.222-4.307-9.801-10.461-11.645-17.008c-0.264-0.935-0.471-1.878-0.616-2.824
	c-0.146-7.114,1.602-16.709,13.533-21.663c0.253,9.208,0.47,17.101,10.616,22.877c0.68,0.526,1.349,1.035,2.004,1.515
	c1.967,1.442,3.808,2.633,5.436,3.428C262.29,354.735,262.622,354.88,262.926,355.021z"/>
<path class="secondary_color" id="SECONDARY_17_" fill="#FFFDB5" stroke="#231F20" stroke-miterlimit="10" d="M310.75,355.021
	c-7.938,2.225-2.117,9.963,3.093,13.795c0.996,0.702,2.076,1.275,3.235,1.699c3.708,1.362,7.653,1.001,11.312-0.722
	c0.914-0.43,1.811-0.946,2.68-1.539c5.222-4.307,9.802-10.461,11.645-17.008c0.264-0.935,0.471-1.878,0.616-2.824
	c0.146-7.114-1.602-16.709-13.533-21.663c-0.253,9.208-0.471,17.101-10.617,22.877c-0.68,0.526-1.348,1.035-2.004,1.515
	c-1.967,1.442-3.807,2.633-5.434,3.428C311.386,354.735,311.054,354.88,310.75,355.021z"/>
<path class="primary_color" id="PRIMARY_16_" fill="#00BC03" stroke="#231F20" stroke-miterlimit="10" d="M262.001,350.165
	c1.683,1.754-1.984,7.898-8.193,13.727c-6.209,5.828-12.606,9.128-14.289,7.375c-1.683-1.754,1.985-7.899,8.195-13.728
	C253.922,351.712,260.318,348.412,262.001,350.165z"/>
<path class="primary_color" id="PRIMARY_14_" fill="#00BC03" stroke="#231F20" stroke-miterlimit="10" d="M312.581,350.165
	c-1.685,1.754,1.985,7.898,8.194,13.727c6.208,5.828,12.606,9.128,14.288,7.375c1.682-1.754-1.984-7.899-8.194-13.728
	C320.66,351.712,314.264,348.412,312.581,350.165z"/>
<ellipse class="primary_color" id="PRIMARY_13_" fill="#00BC03" stroke="#231F20" stroke-miterlimit="10" cx="287.676" cy="395.819" rx="50.28" ry="49.734"/>
<ellipse id="eye_2_" fill="#FFFFFF" stroke="#231F20" stroke-miterlimit="10" cx="287.676" cy="383.938" rx="23.097" ry="22.844"/>
<ellipse id="pupil_2_" stroke="#231F20" stroke-miterlimit="10" cx="292.677" cy="383.938" rx="8.891" ry="9.222"/>
<ellipse id="eye-glint_2_" fill="#FFFFFF" stroke="#FFFFFF" stroke-miterlimit="10" cx="296.181" cy="381.714" rx="2.92" ry="2.89"/>
<path id="mouth_2_" fill="#231F20" stroke="#231F20" stroke-miterlimit="10" d="M288.261,419.273
	c-10.534,0-19.877-2.609-25.699-6.638c-0.902,1.8-1.399,3.728-1.399,5.733c0,9.883,11.871,17.896,26.514,17.896
	c14.644,0,26.515-8.013,26.515-17.896c0-1.791-0.395-3.518-1.118-5.148C307.21,416.913,298.275,419.273,288.261,419.273z"/>
<polygon class="secondary_color" id="SECONDARY_29_" fill="#FFFDB5" points="276.197,417.529 272.646,421.364 271.729,416.246 "/>
<polygon class="secondary_color" id="SECONDARY_28_" fill="#FFFDB5" points="268.179,415.094 263.949,418.184 264.041,412.984 "/>
<polygon class="secondary_color" id="SECONDARY_27_" fill="#FFFDB5" points="285.541,418.744 282.859,423.217 280.9,418.391 "/>
<polygon class="secondary_color" id="SECONDARY_26_" fill="#FFFDB5" points="294.76,418.459 292.773,423.273 290.117,418.785 "/>
<polygon class="secondary_color" id="SECONDARY_25_" fill="#FFFDB5" points="303.068,416.751 301.926,421.828 298.547,417.842 "/>
<polygon class="secondary_color" id="SECONDARY_24_" fill="#FFFDB5" points="311.326,413.52 311.252,418.721 307.123,415.499 "/>
<polygon class="secondary_color" id="SECONDARY_23_" fill="#FFFDB5" points="263.502,426.826 268.477,425.137 266.806,430.069 "/>
<polygon class="secondary_color" id="SECONDARY_22_" fill="#FFFDB5" points="273.471,434.25 277.025,430.416 277.939,435.539 "/>
<polygon class="secondary_color" id="SECONDARY_21_" fill="#FFFDB5" points="285.388,436.827 287.701,432.156 290.04,436.814 "/>
<polygon class="secondary_color" id="SECONDARY_20_" fill="#FFFDB5" points="297.035,435.784 297.685,430.622 301.43,434.273 "/>
<polygon class="secondary_color" id="SECONDARY_19_" fill="#FFFDB5" points="308.626,430.114 306.819,425.229 311.838,426.786 "/>
</svg>
