<?xml version="1.0" encoding="utf-8"?>
<!-- Generator: Adobe Illustrator 16.0.0, SVG Export Plug-In . SVG Version: 6.00 Build 0)  -->
<svg version="1.1" id="Layer_1" xmlns="http://www.w3.org/2000/svg" xmlns:xlink="http://www.w3.org/1999/xlink" x="0px" y="0px"
	 width="612px" height="792px" viewBox="0 0 612 792" enable-background="new 0 0 612 792" xml:space="preserve">
<path class="secondary_color" id="SECONDARY_12_" fill="#FFFDB5" stroke="#231F20" stroke-miterlimit="10" d="M264.925,354.021
	c7.938,2.225,2.118,9.963-3.093,13.795c-0.995,0.702-2.076,1.275-3.236,1.699c-3.708,1.362-7.653,1.001-11.311-0.722
	c-0.915-0.43-1.81-0.946-2.68-1.539c-5.222-4.307-9.801-10.461-11.645-17.008c-0.264-0.935-0.471-1.878-0.616-2.824
	c-0.146-7.114,1.602-16.709,13.534-21.663c0.253,9.208,0.47,17.101,10.615,22.877c0.68,0.526,1.349,1.035,2.004,1.515
	c1.967,1.442,3.808,2.633,5.436,3.428C264.29,353.735,264.622,353.88,264.925,354.021z"/>
<path class="secondary_color" id="SECONDARY_11_" fill="#FFFDB5" stroke="#231F20" stroke-miterlimit="10" d="M312.75,354.021
	c-7.938,2.225-2.117,9.963,3.093,13.795c0.996,0.702,2.076,1.275,3.235,1.699c3.708,1.362,7.652,1.001,11.311-0.722
	c0.915-0.43,1.811-0.946,2.681-1.539c5.222-4.307,9.802-10.461,11.644-17.008c0.265-0.935,0.472-1.878,0.617-2.824
	c0.145-7.114-1.602-16.709-13.533-21.663c-0.253,9.208-0.471,17.101-10.617,22.877c-0.68,0.526-1.348,1.035-2.004,1.515
	c-1.967,1.442-3.807,2.633-5.434,3.428C313.385,353.735,313.053,353.88,312.75,354.021z"/>
<path class="primary_color" id="PRIMARY" fill="#00BC03" stroke="#231F20" stroke-miterlimit="10" d="M264.001,349.165
	c1.682,1.754-1.985,7.898-8.194,13.727c-6.209,5.828-12.606,9.128-14.29,7.375c-1.682-1.754,1.986-7.899,8.195-13.728
	C255.921,350.712,262.318,347.412,264.001,349.165z"/>
<path class="primary_color" id="PRIMARY_1_" fill="#00BC03" stroke="#231F20" stroke-miterlimit="10" d="M314.58,349.165
	c-1.684,1.754,1.986,7.898,8.195,13.727c6.207,5.828,12.605,9.128,14.287,7.375c1.682-1.754-1.983-7.899-8.193-13.728
	C322.66,350.712,316.264,347.412,314.58,349.165z"/>
<ellipse class="primary_color" id="PRIMARY_2_" fill="#00BC03" stroke="#231F20" stroke-miterlimit="10" cx="289.676" cy="394.819" rx="50.279" ry="49.734"/>
<ellipse id="eye_2_" fill="#FFFFFF" stroke="#231F20" stroke-miterlimit="10" cx="289.676" cy="382.938" rx="23.097" ry="22.844"/>
<ellipse id="pupil_2_" stroke="#231F20" stroke-miterlimit="10" cx="294.677" cy="382.938" rx="8.89" ry="9.222"/>
<ellipse id="eye-glint_2_" fill="#FFFFFF" stroke="#FFFFFF" stroke-miterlimit="10" cx="298.181" cy="380.714" rx="2.92" ry="2.89"/>
<path id="mouth_2_" fill="#231F20" stroke="#231F20" stroke-miterlimit="10" d="M290.261,418.273
	c-10.535,0-19.877-2.609-25.699-6.638c-0.902,1.8-1.399,3.728-1.399,5.733c0,9.883,11.871,17.896,26.514,17.896
	s26.515-8.013,26.515-17.896c0-1.791-0.395-3.518-1.118-5.148C309.21,415.913,300.275,418.273,290.261,418.273z"/>
<polygon class="secondary_color" id="SECONDARY_10_" fill="#FFFDB5" points="278.197,416.529 274.646,420.364 273.729,415.246 "/>
<polygon class="secondary_color" id="SECONDARY_9_" fill="#FFFDB5" points="270.178,414.094 265.949,417.184 266.042,411.984 "/>
<polygon class="secondary_color" id="SECONDARY_8_" fill="#FFFDB5" points="287.542,417.744 284.859,422.217 282.9,417.391 "/>
<polygon class="secondary_color" id="SECONDARY_7_" fill="#FFFDB5" points="296.76,417.459 294.773,422.273 292.117,417.785 "/>
<polygon class="secondary_color" id="SECONDARY_6_" fill="#FFFDB5" points="305.068,415.751 303.925,420.828 300.547,416.842 "/>
<polygon class="secondary_color" id="SECONDARY_5_" fill="#FFFDB5" points="313.326,412.52 313.252,417.721 309.123,414.499 "/>
<polygon class="secondary_color" id="SECONDARY_4_" fill="#FFFDB5" points="265.502,425.826 270.477,424.137 268.805,429.069 "/>
<polygon class="secondary_color" id="SECONDARY_3_" fill="#FFFDB5" points="275.47,433.25 279.025,429.416 279.939,434.539 "/>
<polygon class="secondary_color" id="SECONDARY_2_" fill="#FFFDB5" points="287.388,435.827 289.701,431.156 292.04,435.814 "/>
<polygon class="secondary_color" id="SECONDARY_1_" fill="#FFFDB5" points="299.035,434.784 299.685,429.622 303.429,433.273 "/>
<polygon class="secondary_color" id="SECONDARY" fill="#FFFDB5" points="310.627,429.114 308.818,424.229 313.838,425.786 "/>
</svg>
