<?xml version="1.0" encoding="utf-8"?>
<!-- Generator: Adobe Illustrator 16.0.0, SVG Export Plug-In . SVG Version: 6.00 Build 0)  -->
<svg version="1.1" id="Layer_1" xmlns="http://www.w3.org/2000/svg" xmlns:xlink="http://www.w3.org/1999/xlink" x="0px" y="0px"
	 width="612px" height="792px" viewBox="0 0 612 792" enable-background="new 0 0 612 792" xml:space="preserve">
<path class="secondary_color" id="SECONDARY_1_" fill="#FFFDB5" stroke="#231F20" stroke-miterlimit="10" d="M283.026,365.288
	c7.938,2.225,2.117,9.963-3.094,13.795c-0.995,0.702-2.075,1.275-3.235,1.699c-3.707,1.362-7.653,1.001-11.311-0.722
	c-0.914-0.43-1.81-0.946-2.68-1.539c-5.222-4.307-9.801-10.461-11.644-17.008c-0.264-0.935-0.472-1.878-0.616-2.824
	c-0.146-7.114,1.602-16.709,13.533-21.663c0.253,9.208,0.47,17.101,10.616,22.877c0.68,0.526,1.349,1.035,2.004,1.515
	c1.967,1.442,3.808,2.633,5.436,3.428C282.39,365.001,282.722,365.146,283.026,365.288z"/>
<path class="secondary_color" id="SECONDARY" fill="#FFFDB5" stroke="#231F20" stroke-miterlimit="10" d="M330.85,365.288
	c-7.938,2.225-2.116,9.963,3.094,13.795c0.996,0.702,2.076,1.275,3.234,1.699c3.709,1.362,7.654,1.001,11.313-0.722
	c0.914-0.43,1.811-0.946,2.68-1.539c5.222-4.307,9.802-10.461,11.645-17.008c0.264-0.935,0.471-1.878,0.615-2.824
	c0.146-7.114-1.602-16.709-13.532-21.663c-0.253,9.208-0.471,17.101-10.618,22.877c-0.679,0.526-1.347,1.035-2.003,1.515
	c-1.967,1.442-3.808,2.633-5.434,3.428C331.486,365.001,331.154,365.146,330.85,365.288z"/>
<path class="primary_color" id="PRIMARY_2_" fill="#00BC03" stroke="#231F20" stroke-miterlimit="10" d="M282.102,360.432
	c1.682,1.754-1.985,7.898-8.194,13.727c-6.208,5.828-12.605,9.128-14.289,7.375c-1.683-1.754,1.985-7.899,8.195-13.728
	C274.022,361.979,280.419,358.678,282.102,360.432z"/>
<path class="primary_color" id="PRIMARY_1_" fill="#00BC03" stroke="#231F20" stroke-miterlimit="10" d="M332.682,360.432
	c-1.686,1.754,1.986,7.898,8.195,13.727c6.207,5.828,12.605,9.128,14.287,7.375c1.682-1.754-1.984-7.899-8.195-13.728
	C340.761,361.979,334.363,358.678,332.682,360.432z"/>
<ellipse class="primary_color" id="PRIMARY" fill="#00BC03" stroke="#231F20" stroke-miterlimit="10" cx="307.777" cy="406.086" rx="50.28" ry="49.733"/>
<line fill="none" stroke="#231F20" stroke-width="3" stroke-miterlimit="10" x1="286.546" y1="383.195" x2="329.008" y2="405.213"/>
<line fill="none" stroke="#231F20" stroke-width="3" stroke-miterlimit="10" x1="329.007" y1="383.195" x2="286.545" y2="405.213"/>
<path class="secondary_color" id="SECONDARY_2_" fill="#FFFDB5" stroke="#231F20" stroke-width="1.1678" stroke-miterlimit="10" d="M335.027,430.83
	c0,3.389-3.144,6.136-7.022,6.136h-40.443c-3.877,0-7.021-2.747-7.021-6.136l0,0c0-3.389,3.144-6.139,7.021-6.139h40.443
	C331.884,424.691,335.027,427.441,335.027,430.83L335.027,430.83z"/>
<line fill="none" stroke="#231F20" stroke-width="1.1408" stroke-miterlimit="10" x1="284.214" y1="426.021" x2="287.268" y2="436.81"/>
<line fill="none" stroke="#231F20" stroke-width="1.1678" stroke-miterlimit="10" x1="288.064" y1="436.814" x2="291.134" y2="424.691"/>
<line fill="none" stroke="#231F20" stroke-width="1.1678" stroke-miterlimit="10" x1="292.155" y1="424.691" x2="295.015" y2="436.814"/>
<line fill="none" stroke="#231F20" stroke-width="1.1678" stroke-miterlimit="10" x1="296.014" y1="436.814" x2="299.126" y2="424.691"/>
<line fill="none" stroke="#231F20" stroke-width="1.1678" stroke-miterlimit="10" x1="300" y1="424.691" x2="303.111" y2="436.814"/>
<line fill="none" stroke="#231F20" stroke-width="1.1678" stroke-miterlimit="10" x1="303.944" y1="436.814" x2="307.14" y2="424.691"/>
<line fill="none" stroke="#231F20" stroke-width="1.1678" stroke-miterlimit="10" x1="307.578" y1="424.691" x2="311.477" y2="436.814"/>
<line fill="none" stroke="#231F20" stroke-width="1.1678" stroke-miterlimit="10" x1="311.935" y1="436.583" x2="315.092" y2="424.691"/>
<line fill="none" stroke="#231F20" stroke-width="1.1678" stroke-miterlimit="10" x1="315.481" y1="424.691" x2="319.517" y2="437.181"/>
<line fill="none" stroke="#231F20" stroke-width="1.1678" stroke-miterlimit="10" x1="319.549" y1="437.181" x2="323.421" y2="424.691"/>
<line fill="none" stroke="#231F20" stroke-width="1.1678" stroke-miterlimit="10" x1="323.471" y1="424.691" x2="327.468" y2="436.966"/>
<line fill="none" stroke="#231F20" stroke-width="1.1678" stroke-miterlimit="10" x1="327.521" y1="437.372" x2="331.39" y2="425.098"/>
</svg>
