<?xml version="1.0" encoding="utf-8"?>
<!-- Generator: Adobe Illustrator 16.0.0, SVG Export Plug-In . SVG Version: 6.00 Build 0)  -->
<svg version="1.1" id="Layer_1" xmlns="http://www.w3.org/2000/svg" xmlns:xlink="http://www.w3.org/1999/xlink" x="0px" y="0px"
	 width="612px" height="792px" viewBox="0 0 612 792" enable-background="new 0 0 612 792" xml:space="preserve">
<path class="secondary_color" id="SECONDARY_1_" fill="#FFFDB5" stroke="#231F20" stroke-miterlimit="10" d="M282.926,365.021
	c7.938,2.225,2.117,9.963-3.094,13.795c-0.994,0.702-2.075,1.275-3.235,1.699c-3.708,1.362-7.653,1.001-11.311-0.722
	c-0.914-0.43-1.81-0.946-2.68-1.539c-5.222-4.307-9.801-10.461-11.645-17.008c-0.264-0.935-0.471-1.878-0.616-2.824
	c-0.146-7.114,1.602-16.709,13.533-21.663c0.253,9.208,0.47,17.101,10.616,22.877c0.68,0.526,1.349,1.035,2.004,1.515
	c1.967,1.442,3.808,2.633,5.436,3.428C282.29,364.735,282.622,364.88,282.926,365.021z"/>
<path class="secondary_color" id="SECONDARY" fill="#FFFDB5" stroke="#231F20" stroke-miterlimit="10" d="M330.75,365.021
	c-7.938,2.225-2.117,9.963,3.093,13.795c0.996,0.702,2.076,1.275,3.235,1.699c3.708,1.362,7.653,1.001,11.312-0.722
	c0.914-0.43,1.811-0.946,2.68-1.539c5.222-4.307,9.802-10.461,11.645-17.008c0.264-0.935,0.471-1.878,0.616-2.824
	c0.146-7.114-1.602-16.709-13.533-21.663c-0.253,9.208-0.471,17.101-10.617,22.877c-0.68,0.526-1.348,1.035-2.004,1.515
	c-1.967,1.442-3.807,2.633-5.434,3.428C331.386,364.735,331.054,364.88,330.75,365.021z"/>
<path class="primary_color" id="PRIMARY_2_" fill="#00BC03" stroke="#231F20" stroke-miterlimit="10" d="M282.001,360.165
	c1.683,1.754-1.984,7.898-8.193,13.727c-6.209,5.828-12.606,9.128-14.289,7.375c-1.683-1.754,1.985-7.899,8.195-13.728
	C273.922,361.712,280.318,358.412,282.001,360.165z"/>
<path class="primary_color" id="PRIMARY_1_" fill="#00BC03" stroke="#231F20" stroke-miterlimit="10" d="M332.581,360.165
	c-1.685,1.754,1.985,7.898,8.194,13.727c6.208,5.828,12.606,9.128,14.288,7.375c1.682-1.754-1.984-7.899-8.194-13.728
	C340.66,361.712,334.264,358.412,332.581,360.165z"/>
<ellipse class="primary_color" id="PRIMARY_3_" fill="#00BC03" stroke="#231F20" stroke-miterlimit="10" cx="307.676" cy="405.818" rx="50.28" ry="49.734"/>
<ellipse id="eye_2_" fill="#FFFFFF" stroke="#231F20" stroke-miterlimit="10" cx="307.676" cy="393.938" rx="23.097" ry="22.844"/>
<ellipse id="pupil_2_" stroke="#231F20" stroke-miterlimit="10" cx="312.677" cy="393.938" rx="8.891" ry="9.222"/>
<ellipse id="eye-glint_2_" fill="#FFFFFF" stroke="#FFFFFF" stroke-miterlimit="10" cx="316.181" cy="391.714" rx="2.92" ry="2.89"/>
<path id="mouth_2_" fill="#231F20" stroke="#231F20" stroke-miterlimit="10" d="M308.261,429.273
	c-10.534,0-19.877-2.609-25.699-6.638c-0.902,1.8-1.399,3.728-1.399,5.733c0,9.883,11.871,17.896,26.514,17.896
	c14.644,0,26.515-8.013,26.515-17.896c0-1.791-0.395-3.518-1.118-5.148C327.21,426.913,318.275,429.273,308.261,429.273z"/>
<polygon class="secondary_color" id="SECONDARY_2_" fill="#FFFDB5" points="296.197,427.529 292.646,431.364 291.729,426.246 "/>
<polygon class="secondary_color" id="SECONDARY_3_" fill="#FFFDB5" points="288.179,425.094 283.949,428.184 284.041,422.984 "/>
<polygon class="secondary_color" id="SECONDARY_4_" fill="#FFFDB5" points="305.541,428.744 302.859,433.217 300.9,428.391 "/>
<polygon class="secondary_color" id="SECONDARY_5_" fill="#FFFDB5" points="314.76,428.459 312.773,433.273 310.117,428.785 "/>
<polygon class="secondary_color" id="SECONDARY_6_" fill="#FFFDB5" points="323.068,426.751 321.926,431.828 318.547,427.842 "/>
<polygon class="secondary_color" id="SECONDARY_7_" fill="#FFFDB5" points="331.326,423.52 331.252,428.721 327.123,425.499 "/>
<polygon class="secondary_color" id="SECONDARY_8_" fill="#FFFDB5" points="283.502,436.826 288.477,435.137 286.806,440.069 "/>
<polygon class="secondary_color" id="SECONDARY_9_" fill="#FFFDB5" points="293.471,444.25 297.025,440.416 297.939,445.539 "/>
<polygon class="secondary_color" id="SECONDARY_10_" fill="#FFFDB5" points="305.388,446.827 307.701,442.156 310.04,446.814 "/>
<polygon class="secondary_color" id="SECONDARY_11_" fill="#FFFDB5" points="317.035,445.784 317.685,440.622 321.43,444.273 "/>
<polygon class="secondary_color" id="SECONDARY_12_" fill="#FFFDB5" points="328.626,440.114 326.819,435.229 331.838,436.786 "/>
<path class="primary_color" id="PRIMARY" fill="#00BC03" stroke="#231F20" stroke-miterlimit="10" d="M307.63,371.223c-6.253,0-11.929,2.403-16.146,6.313
	c4.071,5.881,10.861,9.736,18.555,9.736c6.404,0,12.18-2.673,16.286-6.958C322.021,374.791,315.254,371.223,307.63,371.223z"/>
</svg>
