<?xml version="1.0" encoding="utf-8"?>
<!-- Generator: Adobe Illustrator 16.0.0, SVG Export Plug-In . SVG Version: 6.00 Build 0)  -->
<svg version="1.1" id="Layer_1" xmlns="http://www.w3.org/2000/svg" xmlns:xlink="http://www.w3.org/1999/xlink" x="0px" y="0px"
	 width="612px" height="792px" viewBox="0 0 612 792" enable-background="new 0 0 612 792" xml:space="preserve">
<rect x="179.373" y="354.606" fill-opacity="0" fill="#231F20" width="255.254" height="84"/>
<path id="PRIMARY_12_" fill="#7CD5FF" stroke="#231F20" stroke-width="2.4507" stroke-miterlimit="10" d="M428.673,388.244
	c-7.673,6.227-8.33,9.771-0.966,13.055c-9.783,3.342-11.543,6.426-5.342,10.262c-10.633,1.682-13.307,4.118-7.141,11.378
	c-12.208-3.216-15.586-1.606-12.851,8.461c-9.995-7.862-13.879-7.265-13.819,0.666c-4.098-7.931-4.997-7.931-2.764,0.003
	c-5.567-7.934-8-7.934-7.756,0.069c-6.355-8.003-10.037-8.003-11.419-1.293c-6.953-6.71-11.606-6.71-12.409-0.489
	c-9.199-6.221-14.548-6.221-13.836,2.195c-11.827-8.416-17.591-8.416-18.958,1.308c-10.304-9.724-16.206-9.724-18.076-2.241
	c-9.8-7.482-15.566-7.482-17.974-0.309c-8.706-7.174-14.052-7.174-16.02-0.848c-8.036-6.326-12.689-6.326-13.057,0.695
	c-7.962-7.021-11.646-7.021-10.719,0.333c-7.046-7.354-9.477-7.354-7.768,0.176c-5.039-7.53-5.944-7.53-3.152,0.097
	c-6.827-7.627-10.71-8.225-14.612-1.513c-3.359-8.917-6.734-10.526-13.168-3.798c0.386-10.772-2.283-13.209-11.093-7.68
	c4.375-11.047,2.613-14.131-5.742-11.32c5.938-9.436,5.284-12.98-4.784-13.349c10.067-3.313,10.067-3.313,0,0
	c10.067-6.994,10.721-10.539,2.462-15.383c10.676-1.78,12.439-4.864,8.92-12.124c7.953,1.742,10.622-0.695,12.25-6.213
	c4.42,1.474,7.795-0.135,11.425-1.245c3.631-1.096,7.515-1.694,11.55-1.694h152.602c4.038,0,7.922,0.598,11.303,0.051
	c3.879,2.752,7.257,4.362,12.098,1.23c1.201,7.175,3.875,9.612,10.643,7.137c-2.336,7.993-0.576,11.077,5.327,10.507
	C420.343,383.563,421,387.108,428.673,388.244C421,390.79,421,390.79,428.673,388.244z"/>
</svg>
