<?xml version="1.0" encoding="utf-8"?>
<!-- Generator: Adobe Illustrator 16.0.0, SVG Export Plug-In . SVG Version: 6.00 Build 0)  -->
<svg version="1.1" id="Layer_1" xmlns="http://www.w3.org/2000/svg" xmlns:xlink="http://www.w3.org/1999/xlink" x="0px" y="0px"
	 width="612px" height="792px" viewBox="0 0 612 792" enable-background="new 0 0 612 792" xml:space="preserve">
<rect x="271.592" y="379.106" fill-opacity="0" fill="#231F20" width="69.979" height="35"/>
<path id="SECONDARY_22_" fill="#FFC18C" stroke="#231F20" stroke-miterlimit="10" d="M341.57,401.875
	c0-7.001-15.778-13.493-22.778-13.493c0,0-3.704,0-8.177,0c-0.213,0.009-0.429,0.017-0.646,0.034C310,390,309,391,307,392
	c0-2-1-3-1.692-3.618c-0.051,0.27-0.122,0.522-0.208,0.761c-0.433,1.19-1.266,2.024-2.099,2.857c-1-2-2.167-4.423-3-5.041
	c-0.223,0-0.01,0-0.223,0c-0.693,5.083-2.403,2.303-3.403,3.303c0.042-6.095-2.113,1.102-2.499,0.426
	c-0.082-0.144,0.248-3.063,0.125-3.063c-0.247,0-1.935,1.314-0.247,0c-0.31,0.275,0.434-0.103,0.247,0c-2.047,0.148-3,3.375-3,4.375
	c-2,0-1-3-2.678-3.268c-0.155-0.114-0.315-0.218-0.487-0.351c-3.21,0-5.302,0-5.302,0v12.675
	c-2.908,14.318,5.675,12.675,12.675,12.675h23.584c7,0,22.778,0.645,22.778-6.356V401.875z"/>
<path id="SECONDARY_20_" fill="#FFC18C" stroke="#231F20" stroke-miterlimit="10" d="M320.79,388.599
	C320.79,388.599,322.202,388.599,320.79,388.599c0,0,0.874,1.729,2.168,3.359c0.087,0.109,0.496,0.661,0.375,0.459
	c3.437,5.908,10.667,6.583,16.836,8.089c0.184,0.024,0.378,0.053,0.587,0.086c0.208,0.033,0.43,0.071,0.666,0.115l0,0
	C340.333,394.652,325.583,388.599,320.79,388.599z"/>
<path fill-opacity="0.5" fill="#FFFFFF" d="M321.93,389.402C321.93,389.402,323.187,389.402,321.93,389.402c0,0,0.779,1.5,1.93,2.914
	c0.079,0.095,0.443,0.573,0.336,0.398c3.058,5.121,9.496,5.707,14.986,7.014c0.164,0.021,0.337,0.045,0.523,0.075
	c0.186,0.028,0.383,0.062,0.592,0.099l0,0C339.329,394.652,326.197,389.402,321.93,389.402z"/>
<path fill-opacity="0.8" fill="#FFFFFF" d="M337.946,396.348l-5.243,1.866l0,0c0.076,0.094,0.108,0.175,0,0c0,0,1.12,0.208,6.612,1.515
	c0.164,0.021,0.335,0.045,0.522,0.075c0.186,0.028,0.383,0.062,0.592,0.099l0,0C339.195,397.671,337.946,396.348,337.946,396.348z"
	/>
</svg>
