<?xml version="1.0" encoding="utf-8"?>
<!-- Generator: Adobe Illustrator 16.0.0, SVG Export Plug-In . SVG Version: 6.00 Build 0)  -->
<svg version="1.1" id="Layer_1" xmlns="http://www.w3.org/2000/svg" xmlns:xlink="http://www.w3.org/1999/xlink" x="0px" y="0px"
	 width="612px" height="792px" viewBox="0 0 612 792" enable-background="new 0 0 612 792" xml:space="preserve">
<rect x="254.5" y="379.606" fill-opacity="0" fill="#231F20" width="105" height="34"/>
<path class="primary_color" id="PRIMARY_12_" fill="#7CD5FF" stroke="#231F20" stroke-miterlimit="10" d="M357.051,393.222
	c-3.156,2.521-3.427,3.955-0.397,5.284c-4.024,1.353-4.748,2.601-2.197,4.153c-4.374,0.681-5.474,1.667-2.938,4.605
	c-5.021-1.302-6.411-0.65-5.286,3.425c-4.111-3.183-5.709-2.94-5.685,0.27c-1.686-3.21-2.056-3.21-1.137,0.001
	c-2.29-3.211-3.291-3.211-3.19,0.028c-2.614-3.239-4.129-3.239-4.697-0.523c-2.86-2.716-4.774-2.716-5.104-0.198
	c-3.784-2.518-5.984-2.518-5.691,0.889c-4.865-3.406-7.236-3.406-7.799,0.529c-4.238-3.936-6.666-3.936-7.436-0.907
	c-4.031-3.028-6.403-3.028-7.394-0.125c-3.581-2.903-5.78-2.903-6.59-0.343c-3.306-2.561-5.22-2.561-5.371,0.281
	c-3.275-2.842-4.791-2.842-4.409,0.135c-2.898-2.977-3.898-2.977-3.195,0.071c-2.073-3.048-2.445-3.048-1.297,0.039
	c-2.808-3.087-4.406-3.329-6.011-0.612c-1.382-3.609-2.77-4.261-5.417-1.537c0.159-4.36-0.939-5.347-4.563-3.108
	c1.8-4.472,1.075-5.72-2.362-4.582c2.442-3.819,2.173-5.254-1.968-5.403c4.141-1.341,4.141-1.341,0,0
	c4.141-2.831,4.41-4.266,1.013-6.227c4.392-0.721,5.117-1.969,3.669-4.907c3.271,0.705,4.369-0.281,5.039-2.515
	c1.818,0.597,3.207-0.055,4.7-0.504c1.494-0.443,3.091-0.686,4.751-0.686h62.773c1.661,0,3.259,0.242,4.649,0.021
	c1.596,1.114,2.985,1.766,4.977,0.498c0.494,2.904,1.594,3.891,4.378,2.889c-0.961,3.235-0.237,4.483,2.191,4.253
	C353.624,391.327,353.895,392.762,357.051,393.222C353.895,394.252,353.895,394.252,357.051,393.222z"/>
</svg>
