<?xml version="1.0" encoding="utf-8"?>
<!-- Generator: Adobe Illustrator 16.0.0, SVG Export Plug-In . SVG Version: 6.00 Build 0)  -->
<svg version="1.1" id="Layer_1" xmlns="http://www.w3.org/2000/svg" xmlns:xlink="http://www.w3.org/1999/xlink" x="0px" y="0px"
	 width="612px" height="792px" viewBox="0 0 612 792" enable-background="new 0 0 612 792" xml:space="preserve">
<rect x="178.831" y="332.425" fill-opacity="0" fill="#231F20" width="255.5" height="128.362"/>
<path id="SECONDARY_22_" fill="#FFC18C" stroke="#231F20" stroke-width="3.6593" stroke-miterlimit="10" d="M434.331,415.929
	c0-25.676-57.608-49.486-83.166-49.486c0,0-13.524,0-29.854,0c-0.777,0.032-1.565,0.061-2.357,0.125
	c0.111,5.809-3.54,9.477-10.843,13.144c0-7.335-3.651-11.002-6.179-13.27c-0.188,0.988-0.444,1.916-0.761,2.79
	c-1.58,4.366-4.621,7.424-7.664,10.479c-3.651-7.335-7.914-16.221-10.954-18.488c-0.814,0-0.037,0-0.814,0
	c-2.532,18.642-8.773,8.445-12.424,12.113c0.155-22.353-7.714,4.04-9.124,1.562c-0.3-0.527,0.906-11.232,0.456-11.232
	c-0.9,0-7.063,4.821-0.9,0c-1.132,1.01,1.584-0.376,0.9,0c-7.473,0.544-10.953,12.378-10.953,16.045
	c-7.302,0-3.651-11.002-9.777-11.984c-0.567-0.419-1.15-0.799-1.779-1.286c-11.722,0-19.359,0-19.359,0v46.485
	c-10.617,52.512,20.719,46.484,46.279,46.484h86.108c25.558,0,83.166,2.364,83.166-23.313V415.929z"/>
<path fill-opacity="0.5" fill="#FFFFFF" stroke="#231F20" stroke-width="3.6593" stroke-miterlimit="10" d="M358.46,367.238
	C358.46,367.238,363.615,367.238,358.46,367.238c0,0,3.191,6.339,7.915,12.321c0.317,0.401,1.812,2.424,1.369,1.683
	c12.548,21.668,38.947,24.143,61.471,29.666c0.67,0.09,1.38,0.193,2.143,0.315c0.76,0.122,1.568,0.262,2.432,0.423l0,0
	C429.813,389.44,375.959,367.238,358.46,367.238z"/>
<path fill-opacity="0.8" fill="#FFFFFF" d="M424.148,396.606l-21.508,7.894l0,0c0.317,0.401,0.442,0.741,0,0
	c0,0,4.592,0.885,27.116,6.407c0.67,0.09,1.38,0.193,2.143,0.315c0.76,0.122,1.569,0.262,2.432,0.423l0,0
	C429.268,402.208,424.148,396.606,424.148,396.606z"/>
<path fill="none" stroke="#231F20" stroke-width="3.6593" stroke-miterlimit="10" d="M358.46,367.238
	C358.46,367.238,363.615,367.238,358.46,367.238c0,0,3.191,6.339,7.915,12.321c0.317,0.401,1.812,2.424,1.369,1.683
	c12.548,21.668,38.947,24.143,61.471,29.666c0.67,0.09,1.38,0.193,2.143,0.315c0.76,0.122,1.568,0.262,2.432,0.423l0,0
	C429.813,389.44,375.959,367.238,358.46,367.238z"/>
</svg>
