<?xml version="1.0" encoding="utf-8"?>
<!-- Generator: Adobe Illustrator 16.0.0, SVG Export Plug-In . SVG Version: 6.00 Build 0)  -->
<svg version="1.1" id="Layer_1" xmlns="http://www.w3.org/2000/svg" xmlns:xlink="http://www.w3.org/1999/xlink" x="0px" y="0px"
	 width="612px" height="792px" viewBox="0 0 612 792" enable-background="new 0 0 612 792" xml:space="preserve">
<rect x="278.5" y="344.963" fill="#231F20" fill-opacity="0" width="57" height="103.121"/>
<path id="PRIMARY_11_" fill="#7CD5FF" stroke="#231F20" stroke-miterlimit="10" d="M323.5,428.427c0,7.771-7.61,14.069-17,14.069
	l0,0c-9.39,0-17-6.3-17-14.069c0,0,0-4.339,0-10.847c0-1.627,0-3.39-1.264-5.188c1.264-1.931,1.264-3.896-0.263-6.317
	c1.527-1.646,1.527-3.747-0.402-6.243c1.929-1.774,1.929-3.944-0.753-7.051c2.683-1.232,2.683-3.401,0.084-6.744
	c2.598-0.929,2.598-3.03,0.376-5.975c2.222-1.123,2.222-3.089-0.01-5.789c2.231-1.028,2.231-2.791,0.257-5.302
	c1.975-0.743,1.975-2.234,1.643-3.815c0.332-1.063,0.332-2.216,0.332-3.165c0-1.897,0-2.982,0-2.982c0-7.771,7.61-14.07,17-14.07
	l0,0c9.39,0,17,6.3,17,14.07c0,0,0,0.271,0.027,0.724c-0.027,0.564-0.027,1.31,0.674,1.185c-0.701,2.023-0.701,3.176,1.939,1.968
	c-2.642,3.853-2.642,5.344,1.791,4.222c-4.433,4.376-4.433,6.139-0.229,4.493c-4.203,5.374-4.203,7.34,0.137,4.445
	c-4.34,6.962-4.34,9.063,1.176,5.304c-5.516,8.031-5.516,10.2,0.254,6.121c-5.77,8.418-5.77,10.586,0.199,7.084
	c-5.969,7.774-5.969,9.875,0.005,7.91c-5.974,6.033-5.974,7.999-1.114,9.212c-4.858,2.517-4.858,4.278-3.362,6.933
	c-1.496,0.601-1.496,2.093-1.496,3.414C323.5,425.986,323.5,428.427,323.5,428.427z"/>
<circle fill="none" stroke="#231F20" stroke-miterlimit="10" cx="306.5" cy="354.606" r="2.5"/>
<circle fill="none" stroke="#231F20" stroke-miterlimit="10" cx="304" cy="427.606" r="2.5"/>
</svg>
