<?xml version="1.0" encoding="utf-8"?>
<!-- Generator: Adobe Illustrator 16.0.0, SVG Export Plug-In . SVG Version: 6.00 Build 0)  -->
<svg version="1.1" id="Layer_1" xmlns="http://www.w3.org/2000/svg" xmlns:xlink="http://www.w3.org/1999/xlink" x="0px" y="0px"
	 width="612px" height="792px" viewBox="0 0 612 792" enable-background="new 0 0 612 792" xml:space="preserve">
<rect x="240.5" y="269.116" fill-opacity="0" fill="#231F20" width="133" height="254.889"/>
<path id="SECONDARY_21_" fill="#FFC18C" stroke="#231F20" stroke-width="2.3379" stroke-miterlimit="10" d="M332.667,471.469
	c0,28.324-12.016,51.283-26.833,51.283l0,0c-14.819,0-26.834-22.959-26.834-51.283V320.395c0-28.324,12.015-51.283,26.834-51.283
	l0,0c14.817,0,26.833,22.959,26.833,51.283V471.469z"/>
<ellipse fill="none" stroke="#231F20" stroke-width="2.3379" stroke-miterlimit="10" cx="307" cy="293.597" rx="5.833" ry="5.857"/>
<path id="PRIMARY_9_" fill="#7CD5FF" stroke="#231F20" stroke-width="2.3379" stroke-miterlimit="10" d="M350.57,479.734
	c-4.826-1.487-5.113-3.333-0.112-6.943c-5.913-0.91-6.542-3.585-2.283-9.791c-5.854,0.336-6.822-2.862-2.017-10.428
	c-7.075,0.947-8.378-2.471-3.037-11.885c-8.276,2.658-9.914-0.679-2.842-13.323c-9.933,6.778-11.201,4.29-4.737-10.273
	c-9.449,10.127-11.165,8.183-9.171-8.801c-5.932,13.715-8.148,12.39-5.954-2.283c-6.057,12.974-7.477,12.406-3.104-0.497
	c-7.301,12.13-8.81,11.924-4.038-0.021c-9.994,11.944-13.268,12.459-14.132-2.718c-4.973,17.119-7.535,18.549-14.182,4.082
	c2.163,18.123,0.24,20.351-7.597,9.135c4.564,16.356,3.213,19.269-5.071,9.077c5.474,16.496,3.921,19.768-7.689,14.202
	c8.819,12.154,7.581,15.474-1.577,15.194c7,6.683,6.079,9.767,0.542,11.907c4.016,3.519,3.418,6.093,1.534,8.083
	c1.013,2.367,0.738,4.149-0.162,5.378c0.429,4.157,0.46,7.993,0.854,11.53c2.364,21.223,17.731,31.659,38.846,31.659
	c1.899,0,3.68-0.158,5.373-0.433c16.386-0.826,28.889-8.288,33.811-22.593c0.984-2.862,1.666-5.996,2.691-8.964
	C346.186,487.176,346.204,483.49,350.57,479.734z"/>
</svg>
