<?xml version="1.0" encoding="utf-8"?>
<!-- Generator: Adobe Illustrator 16.0.0, SVG Export Plug-In . SVG Version: 6.00 Build 0)  -->
<svg version="1.1" id="Layer_1" xmlns="http://www.w3.org/2000/svg" xmlns:xlink="http://www.w3.org/1999/xlink" x="0px" y="0px"
	 width="612px" height="792px" viewBox="0 0 612 792" enable-background="new 0 0 612 792" xml:space="preserve">
<rect x="278.5" y="342.156" fill-opacity="0" fill="#231F20" width="57" height="108.807"/>
<path class="secondary_color" id="SECONDARY_21_" fill="#FFC18C" stroke="#231F20" stroke-miterlimit="10" d="M318,428.536
	c0,12.091-5.149,21.892-11.5,21.892l0,0c-6.351,0-11.5-9.801-11.5-21.892v-64.49c0-12.091,5.149-21.892,11.5-21.892l0,0
	c6.35,0,11.5,9.801,11.5,21.892V428.536z"/>
<circle fill="none" stroke="#231F20" stroke-miterlimit="10" cx="307" cy="352.606" r="2.5"/>
<path class="primary_color" id="PRIMARY_9_" fill="#7CD5FF" stroke="#231F20" stroke-miterlimit="10" d="M325.673,432.064
	c-2.068-0.635-2.191-1.423-0.048-2.964c-2.534-0.389-2.804-1.53-0.979-4.18c-2.509,0.144-2.924-1.222-0.864-4.451
	c-3.032,0.404-3.591-1.055-1.302-5.073c-3.547,1.135-4.249-0.29-1.218-5.688c-4.257,2.894-4.801,1.831-2.03-4.386
	c-4.05,4.323-4.785,3.493-3.931-3.757c-2.542,5.854-3.492,5.289-2.552-0.975c-2.596,5.538-3.204,5.296-1.33-0.212
	c-3.129,5.178-3.775,5.09-1.73-0.009c-4.283,5.099-5.686,5.318-6.057-1.16c-2.131,7.308-3.229,7.918-6.078,1.742
	c0.927,7.736,0.103,8.688-3.256,3.899c1.956,6.982,1.377,8.226-2.173,3.875c2.346,7.042,1.681,8.438-3.295,6.063
	c3.78,5.188,3.249,6.605-0.676,6.486c3,2.853,2.605,4.169,0.232,5.083c1.721,1.502,1.465,2.601,0.657,3.45
	c0.434,1.011,0.316,1.771-0.069,2.296c0.184,1.774,0.197,3.412,0.366,4.922c1.013,9.06,7.599,13.515,16.648,13.515
	c0.814,0,1.577-0.067,2.303-0.185c7.022-0.353,12.381-3.538,14.49-9.645c0.422-1.222,0.714-2.56,1.153-3.826
	C323.794,435.241,323.802,433.668,325.673,432.064z"/>
</svg>
