<?xml version="1.0" encoding="utf-8"?>
<!-- Generator: Adobe Illustrator 16.0.0, SVG Export Plug-In . SVG Version: 6.00 Build 0)  -->
<svg version="1.1" id="Layer_1" xmlns="http://www.w3.org/2000/svg" xmlns:xlink="http://www.w3.org/1999/xlink" x="0px" y="0px"
	 width="612px" height="792px" viewBox="0 0 612 792" enable-background="new 0 0 612 792" xml:space="preserve">
<rect x="236.5" y="268.967" fill-opacity="0" fill="#231F20" width="141" height="255.15"/>
<path id="PRIMARY_11_" fill="#7CD5FF" stroke="#231F20" stroke-width="2.474" stroke-miterlimit="10" d="M347.815,475.48
	c0,19.224-18.825,34.812-42.052,34.812l0,0c-23.227,0-42.053-15.588-42.053-34.812c0,0,0-10.736,0-26.838
	c0-4.025,0-8.388-3.126-12.836c3.126-4.776,3.126-9.641-0.651-15.633c3.777-4.072,3.777-9.271-0.995-15.447
	c4.772-4.391,4.772-9.76-1.864-17.446c6.636-3.049,6.636-8.416,0.209-16.687c6.427-2.298,6.427-7.498,0.931-14.783
	c5.496-2.778,5.496-7.643-0.024-14.324c5.52-2.544,5.52-6.906,0.636-13.118c4.884-1.839,4.884-5.529,4.064-9.44
	c0.82-2.632,0.82-5.483,0.82-7.832c0-4.695,0-7.379,0-7.379c0-19.227,18.826-34.814,42.053-34.814l0,0
	c23.227,0,42.052,15.587,42.052,34.814c0,0,0,0.672,0.068,1.791c-0.068,1.396-0.068,3.24,1.667,2.931
	c-1.735,5.006-1.735,7.857,4.8,4.869c-6.535,9.532-6.535,13.222,4.43,10.446c-10.965,10.827-10.965,15.188-0.567,11.117
	c-10.397,13.297-10.397,18.161,0.338,10.999c-10.735,17.226-10.735,22.426,2.909,13.123c-13.645,19.872-13.645,25.238,0.628,15.145
	c-14.272,20.829-14.272,26.195,0.492,17.528c-14.765,19.236-14.765,24.436,0.013,19.572c-14.777,14.928-14.777,19.792-2.759,22.793
	c-12.019,6.224-12.019,10.586-8.317,17.15c-3.701,1.486-3.701,5.179-3.701,8.447C347.815,469.441,347.815,475.48,347.815,475.48z"/>
<circle fill="none" stroke="#231F20" stroke-width="2.474" stroke-miterlimit="10" cx="305.763" cy="292.828" r="6.184"/>
<line fill="none" stroke="#231F20" stroke-width="2.474" stroke-miterlimit="10" x1="299.579" y1="292.828" x2="279.536" y2="279.309"/>
<line fill="none" stroke="#231F20" stroke-width="2.474" stroke-miterlimit="10" x1="302.582" y1="287.548" x2="293.395" y2="270.926"/>
<circle fill="none" stroke="#231F20" stroke-width="2.474" stroke-miterlimit="10" cx="299.579" cy="473.45" r="6.184"/>
</svg>
