<?xml version="1.0" encoding="utf-8"?>
<!-- Generator: Adobe Illustrator 16.0.0, SVG Export Plug-In . SVG Version: 6.00 Build 0)  -->
<svg version="1.1" id="Layer_1" xmlns="http://www.w3.org/2000/svg" xmlns:xlink="http://www.w3.org/1999/xlink" x="0px" y="0px"
	 width="612px" height="792px" viewBox="0 0 612 792" enable-background="new 0 0 612 792" xml:space="preserve">
<rect id="body_frame_1_" x="230.5" y="302.5" fill-opacity="0" fill="#BBBCBE" width="151" height="191"/>
<path fill="#FFC18C" stroke="#231F20" stroke-miterlimit="10" d="M344.521,461.75c0,16.568-13.432,30-30,30h-19.5
	c-16.568,0-30-13.432-30-30v-127.5c0-16.568,13.432-30,30-30h19.5c16.568,0,30,13.432,30,30V461.75z"/>
<path id="PRIMARY_10_" fill="#02007A" stroke="#231F20" stroke-miterlimit="10" d="M370.352,332.251
	c15.107,7.122,11.395-21.381-1.262-11.707c12.654-9.683,10.991-9.999-3.629-6.545c14.62-3.454,8.302-6.275-5.762-2.493
	c14.063-3.783,4.952-10.508-7.663,0.449c12.614-10.958-2.873-11.914-9.328,2.281c6.449-14.193-6.428-12.022-10.761,3.004
	c4.308-15.02-5.157-11.156-11.959,2.616c4.935-13.547-14.467-10.335-12.925,1.119c-4.695-11.454-19.042-15.886-13.017-1.119
	c-6.221-14.781-19.987-15.335-12.201-2.616c-7.79-12.72-21.424-14.904-11.104-3.004c-10.32-11.9-20.958-13.32-9.721-2.281
	c-11.237-11.039-23.261-6.242-8.055-0.449c-15.206-5.792-21.409,2.272-6.105,2.493c-15.304-0.221-19.447,9.686-3.872,6.545
	c-15.576,3.143-15.746,16.152-1.354,11.707c-14.353,5.2-14.615,11.701,1.308,7.229c-15.913,4.495-11.518,9.538,3.75,6.734
	c-15.268,2.804-9.175,8.937,5.934,6.093c-15.109,2.843-7.044,10.094,7.859,5.309c-14.903,4.785-3.503,11.284,9.524,4.38
	c-12.08,6.401-4.538,7.222,7.92,4.109c0.02,0.039,0.039,0.079,0.059,0.118c-4.288,1.491-3.884,2.328-0.968,2.562
	c-1.984,0.376-0.02,7.504,4.156,14.752c0.025,0.34,0.05,0.68,0.076,1.019c-5.167-4.968-5.291,4.743,1.304,13.072
	c0.027,0.219,0.053,0.439,0.08,0.656c-6.585-5.063-5.416,2.221,1.62,10.835c0.028,0.159,0.058,0.313,0.086,0.472
	c-5.665-5.215-3.653-0.021,1.623,8.127c0.075,0.336,0.149,0.677,0.226,1.009c-3.736-3.931-2.725,1.228,2.164,8.235
	c0.142,0.473,0.285,0.933,0.43,1.393c-4.404-3.792-3.036,1.411,2.638,7.293c0.15,0.357,0.302,0.705,0.454,1.05
	c-5.049-3.103-3.353,1.302,2.933,5.612c0.131,0.207,0.262,0.405,0.394,0.604c-5.617-2.528-3.497-0.167,3.836,3.534
	c0.396,0.161,0.828,0.335,1.289,0.521c0.043,0.054,0.076,0.108,0.1,0.165c-0.481-0.233-0.944-0.462-1.389-0.686
	c-3.717-1.515-4.4-1.917,1.4,0.72c0.076,0.239-0.035,0.497-0.456,0.795c0.576-0.011,1.23-0.063,1.902-0.135
	c0.101,0.046,0.192,0.088,0.295,0.135c-0.099-0.046-0.191-0.09-0.289-0.135c0.159-0.018,0.32-0.035,0.481-0.054
	c0.769,0.298,1.587,0.611,2.444,0.932c-0.31,0.135-0.643,0.278-1.021,0.437c0.373-0.137,0.738-0.272,1.099-0.407
	c0.36,0.135,0.726,0.271,1.099,0.407c-0.379-0.158-0.712-0.302-1.021-0.437c0.857-0.32,1.676-0.634,2.444-0.932
	c0.161,0.019,0.321,0.036,0.481,0.054c-0.098,0.045-0.19,0.089-0.289,0.135c0.103-0.047,0.194-0.089,0.295-0.135
	c0.672,0.071,1.326,0.124,1.902,0.135c-0.421-0.298-0.532-0.557-0.456-0.795c5.799-2.637,5.117-2.235,1.403-0.722
	c-0.444,0.225-0.908,0.454-1.392,0.688c0.023-0.057,0.057-0.111,0.1-0.166c0.463-0.185,0.895-0.359,1.292-0.521
	c7.331-3.7,9.45-6.061,3.832-3.532c0.132-0.197,0.263-0.396,0.394-0.603c6.287-4.311,7.983-8.717,2.933-5.612
	c0.151-0.344,0.303-0.692,0.453-1.049c5.676-5.883,7.044-11.088,2.639-7.294c0.145-0.46,0.288-0.92,0.43-1.393
	c4.89-7.008,5.901-12.168,2.165-8.235c0.076-0.332,0.15-0.673,0.226-1.009c5.276-8.149,7.289-13.343,1.623-8.128
	c0.028-0.158,0.058-0.313,0.085-0.472c7.037-8.613,8.207-15.898,1.621-10.835c0.027-0.217,0.053-0.438,0.079-0.656
	c6.596-8.329,6.472-18.041,1.305-13.072c0.025-0.338,0.051-0.678,0.076-1.019c2.622-4.551,4.373-9.056,4.822-11.872
	c3.786-0.616,4.649-3.148-1.393-5.923c0.008-0.016,0.016-0.031,0.023-0.047c12.879,4.693,24.636-2.418,9.911-3.699
	c15.113,1.314,23.047,2.135,9.524-4.38c13.522,6.515,19.696,5.5,7.859-5.309c11.837,10.81,20.116,1.734,5.934-6.093
	c14.183,7.828,19.207,0.995,3.75-6.734C384.501,347.209,385.463,339.383,370.352,332.251z M277.522,368.819
	c0.571,0.03,1.216,0.041,1.927,0.033c0.328,0.543,0.671,1.089,1.038,1.637c0.006,0.179,0.011,0.358,0.017,0.537
	C279.192,369.68,278.213,368.994,277.522,368.819z M304.895,448.673c-0.988-0.432-1.627-0.744-1.986-0.964
	c0.693-0.087,1.374-0.183,1.986-0.264c0.612,0.081,1.293,0.177,1.985,0.264C306.521,447.929,305.882,448.241,304.895,448.673z"/>
<path id="SECONDARY_4_" fill="#7CD5FF" stroke="#231F20" stroke-miterlimit="10" d="M324.28,358.686
	c-0.001-0.098-0.002-0.19-0.003-0.288c5.559-8.548,5.662-10.621-0.749-14.969c-0.005-0.043-0.011-0.083-0.015-0.124
	c4.729,2.344,0.596-4.835-1.619-9.139c-0.48-1.711-1.02-3.119-1.614-4.267c-0.509-1.607-1.098-2.713-1.774-3.45
	c-1.176-1.291-2.603-1.46-4.269-1.25c-2.879-0.368-6.11,0.681-9.343,1.034c-3.232-0.353-6.464-1.402-9.343-1.034
	c-1.666-0.21-3.093-0.041-4.269,1.25c-0.677,0.737-1.266,1.843-1.773,3.45c-0.596,1.147-1.135,2.556-1.615,4.267
	c-2.215,4.303-6.35,11.482-1.62,9.139c-0.003,0.041-0.009,0.081-0.014,0.124c-6.412,4.348-6.308,6.42-0.749,14.969
	c0,0.098-0.002,0.19-0.003,0.288c-5.387-6.368-5.508,3.012,0.142,12.896c0.004,0.165,0.008,0.33,0.014,0.494
	c-5.17-6.209-3.887,2.575,0.53,11.549c0.021,0.312,0.041,0.627,0.06,0.937c-4.071-4.584-4.171,4.379,1.031,12.066
	c0.018,0.199,0.041,0.405,0.06,0.604c-5.189-4.671-4.27,2.049,1.279,9.998c0.021,0.148,0.046,0.289,0.066,0.438
	c-4.467-4.813-2.878-0.021,1.278,7.498c0.063,0.31,0.12,0.625,0.178,0.931c-2.944-3.628-2.147,1.132,1.707,7.601
	c0.115,0.436,0.224,0.859,0.343,1.285c-3.477-3.5-2.396,1.301,2.075,6.73c0.122,0.329,0.236,0.649,0.36,0.969
	c-3.983-2.865-2.646,1.2,2.309,5.18c0.106,0.189,0.212,0.373,0.313,0.555c-4.428-2.332-2.756-0.152,3.027,3.262
	c0.313,0.149,0.646,0.311,1.012,0.482c0.04,0.049,0.061,0.099,0.084,0.15c-0.383-0.215-0.747-0.426-1.096-0.633
	c-2.935-1.397-3.474-1.769,1.102,0.666c0.058,0.221-0.029,0.458-0.363,0.732c0.457-0.01,0.972-0.059,1.508-0.125
	c0.076,0.043,0.144,0.082,0.232,0.125c-0.085-0.042-0.153-0.082-0.229-0.125c0.124-0.016,0.248-0.031,0.372-0.049
	c0.608,0.274,1.255,0.564,1.928,0.858c-0.236,0.124-0.507,0.257-0.8,0.403c0.29-0.126,0.578-0.25,0.864-0.375
	c0.286,0.125,0.574,0.249,0.864,0.375c-0.293-0.146-0.563-0.279-0.8-0.403c0.673-0.294,1.319-0.584,1.927-0.858
	c0.125,0.018,0.248,0.033,0.372,0.049c-0.074,0.043-0.143,0.083-0.229,0.125c0.09-0.043,0.157-0.082,0.233-0.125
	c0.536,0.066,1.052,0.115,1.508,0.125c-0.334-0.274-0.421-0.513-0.364-0.732c4.574-2.435,4.037-2.064,1.103-0.668
	c-0.346,0.208-0.711,0.42-1.096,0.635c0.023-0.052,0.044-0.102,0.085-0.152c0.365-0.17,0.7-0.332,1.011-0.482
	c5.783-3.413,7.455-5.592,3.027-3.26c0.1-0.182,0.205-0.364,0.312-0.555c4.957-3.979,6.293-8.045,2.309-5.18
	c0.123-0.317,0.237-0.639,0.36-0.967c4.472-5.43,5.553-10.232,2.075-6.732c0.119-0.424,0.229-0.85,0.343-1.285
	c3.855-6.467,4.651-11.229,1.708-7.6c0.058-0.307,0.115-0.621,0.178-0.932c4.156-7.52,5.746-12.311,1.278-7.498
	c0.021-0.148,0.045-0.289,0.065-0.438c5.55-7.947,6.472-14.669,1.28-9.998c0.019-0.199,0.042-0.405,0.06-0.604
	c5.202-7.688,5.103-16.651,1.031-12.066c0.019-0.31,0.039-0.625,0.061-0.937c4.416-8.975,5.698-17.758,0.529-11.549
	c0.006-0.164,0.01-0.329,0.014-0.494C329.789,361.698,329.666,352.318,324.28,358.686z M304.895,443.732
	c-0.779-0.398-1.282-0.688-1.567-0.891c0.546-0.08,1.085-0.168,1.567-0.243c0.482,0.075,1.021,0.163,1.566,0.243
	C306.177,443.045,305.673,443.334,304.895,443.732z"/>
<path id="SECONDARY_1_" fill="#7CD5FF" stroke="#231F20" stroke-miterlimit="10" d="M364.198,333.472
	c13.678,5.543,12.801,11.628-1.184,5.622c13.984,6.006,9.442,11.323-3.401,5.234c12.844,6.089,5.348,13.145-5.364,4.739
	c10.712,8.405,5.122,9.197-7.121,4.13c12.243,5.067,5.061,4.427-8.62,3.406c13.681,1.021,2.106,6.824-9.89,2.572
	c11.994,4.252-2.155,7.586-12.433,1.158C320.604,364.541,305,376.4,305,376.4s-17.313-11.393-10.8-15.6
	c-12.042,1.874-23.764,1.494-10.939-1.625c-12.824,3.119-21.687,2.796-9.896-2.572c-11.791,5.368-22.111,0.315-8.621-3.406
	c-13.49,3.721-20.791-1.917-7.114-4.13c-13.676,2.213-19.191-2.557-5.37-4.739c-13.821,2.182-17.799-1.741-3.396-5.234
	c-14.412,3.474-14.173-1.58-1.183-5.622c-13.028,3.454-12.873-6.662,1.228-9.105c-14.1,2.441-10.349-5.26,3.503-5.091
	c-13.853-0.169-8.238-6.443,5.528-1.938c-13.766-4.504-2.883-8.235,7.29,0.351c-10.173-8.585-0.543-7.479,8.797,1.773
	c-9.341-9.253,3-7.555,10.052,2.338c-7.048-9.893,5.41-9.463,11.047,2.032c-5.455-11.482,7.528-8.035,11.778,0.872
	c-1.389-8.907,16.163-11.406,11.701-0.872c6.161-10.709,14.723-13.714,10.827-2.032c3.921-11.688,15.573-13.375,9.736-2.338
	c5.843-11.039,19.868-10.294,8.45-1.773c11.419-8.521,19.661-3.29,6.929-0.351c12.732-2.939,18.45-0.747,5.218,1.938
	c13.232-2.685,14.739-2.44,3.282,5.091C374.508,316.842,377.873,339.01,364.198,333.472z"/>
<path id="PRIMARY_11_" fill="#02007A" stroke="#231F20" stroke-miterlimit="10" d="M265.021,451.672v11.599
	c0,30.365,0,28.974,30,28.974h19.5c30,0,30.001,1.075,30.001-29.29l-0.001-11.282H265.021z"/>
</svg>
