<?xml version="1.0" encoding="utf-8"?>
<!-- Generator: Adobe Illustrator 16.0.0, SVG Export Plug-In . SVG Version: 6.00 Build 0)  -->
<svg version="1.1" id="Layer_1" xmlns="http://www.w3.org/2000/svg" xmlns:xlink="http://www.w3.org/1999/xlink" x="0px" y="0px"
	 width="612px" height="792px" viewBox="0 0 612 792" enable-background="new 0 0 612 792" xml:space="preserve">
<rect id="body_frame_1_" x="205.123" y="270" fill="#BBBCBE" fill-opacity="0" width="202" height="256"/>
<path fill="#FFC18C" stroke="#231F20" stroke-width="1.3382" stroke-miterlimit="10" d="M357.47,483.445
	c0,22.207-17.948,40.209-40.084,40.209h-26.055c-22.137,0-40.083-18.002-40.083-40.209v-170.89
	c0-22.207,17.947-40.209,40.083-40.209h26.055c22.136,0,40.084,18.003,40.084,40.209V483.445z"/>
<path id="PRIMARY_10_" fill="#02007A" stroke="#231F20" stroke-width="1.3382" stroke-miterlimit="10" d="M391.981,309.875
	c20.186,9.546,15.226-28.657-1.686-15.691c16.907-12.979,14.686-13.402-4.849-8.772c19.534-4.629,11.092-8.41-7.698-3.341
	c18.789-5.07,6.616-14.084-10.239,0.602c16.854-14.687-3.839-15.969-12.464,3.057c8.617-19.022-8.588-16.113-14.377,4.027
	c5.755-20.131-6.891-14.953-15.979,3.506c6.593-18.157-19.331-13.853-17.27,1.5c-6.273-15.353-25.443-21.293-17.393-1.5
	c-8.312-19.811-26.705-20.554-16.302-3.506c-10.408-17.049-28.625-19.976-14.836-4.027c-13.79-15.949-28.002-17.853-12.989-3.057
	c-15.014-14.796-31.079-8.367-10.763-0.602c-20.316-7.763-28.604,3.045-8.157,3.341c-20.447-0.296-25.983,12.982-5.173,8.772
	c-20.812,4.213-21.039,21.648-1.809,15.691c-19.177,6.97-19.528,15.684,1.747,9.689c-21.261,6.025-15.39,12.784,5.011,9.025
	c-20.4,3.758-12.259,11.979,7.928,8.167c-20.187,3.81-9.411,13.529,10.5,7.116c-19.912,6.413-4.68,15.124,12.726,5.871
	c-16.141,8.579-6.063,9.679,10.582,5.507c0.026,0.053,0.052,0.106,0.079,0.159c-5.729,1.998-5.19,3.12-1.293,3.434
	c-2.651,0.504-0.027,10.058,5.553,19.772c0.033,0.456,0.066,0.911,0.101,1.366c-6.904-6.659-7.069,6.357,1.743,17.52
	c0.036,0.294,0.07,0.589,0.107,0.88c-8.798-6.786-7.236,2.977,2.164,14.522c0.038,0.213,0.078,0.419,0.115,0.632
	c-7.568-6.989-4.881-0.027,2.168,10.893c0.101,0.45,0.2,0.908,0.302,1.353c-4.992-5.269-3.641,1.646,2.892,11.038
	c0.189,0.633,0.381,1.251,0.575,1.867c-5.885-5.082-4.057,1.891,3.524,9.775c0.201,0.478,0.404,0.945,0.607,1.407
	c-6.746-4.16-4.48,1.744,3.919,7.521c0.175,0.277,0.351,0.543,0.526,0.811c-7.505-3.389-4.672-0.224,5.125,4.736
	c0.529,0.217,1.106,0.449,1.722,0.698c0.058,0.073,0.102,0.146,0.134,0.221c-0.643-0.312-1.262-0.619-1.856-0.919
	c-4.966-2.031-5.879-2.569,1.871,0.965c0.102,0.321-0.046,0.666-0.609,1.065c0.77-0.015,1.643-0.084,2.542-0.181
	c0.135,0.062,0.256,0.118,0.394,0.181c-0.132-0.062-0.255-0.12-0.386-0.181c0.213-0.024,0.427-0.047,0.643-0.072
	c1.028,0.399,2.121,0.818,3.266,1.249c-0.415,0.181-0.859,0.373-1.364,0.585c0.499-0.183,0.986-0.363,1.468-0.544
	c0.481,0.181,0.97,0.362,1.469,0.544c-0.506-0.211-0.951-0.404-1.364-0.585c1.145-0.429,2.24-0.85,3.266-1.249
	c0.215,0.025,0.429,0.049,0.643,0.072c-0.132,0.061-0.254,0.119-0.386,0.181c0.137-0.063,0.258-0.119,0.394-0.181
	c0.898,0.096,1.772,0.166,2.541,0.181c-0.563-0.399-0.71-0.746-0.609-1.065c7.749-3.534,6.837-2.996,1.875-0.967
	c-0.593,0.301-1.214,0.608-1.859,0.921c0.03-0.075,0.075-0.147,0.133-0.223c0.619-0.247,1.196-0.479,1.727-0.697
	c9.795-4.959,12.627-8.124,5.12-4.734c0.176-0.265,0.351-0.53,0.527-0.808c8.398-5.778,10.665-11.685,3.918-7.522
	c0.202-0.46,0.404-0.928,0.605-1.405c7.584-7.887,9.411-14.861,3.525-9.776c0.194-0.616,0.385-1.233,0.575-1.868
	c6.533-9.393,7.884-16.309,2.894-11.036c0.1-0.445,0.199-0.903,0.301-1.354c7.05-10.922,9.739-17.884,2.169-10.894
	c0.038-0.213,0.077-0.419,0.113-0.633c9.402-11.544,10.966-21.308,2.166-14.522c0.036-0.29,0.07-0.587,0.105-0.879
	c8.813-11.164,8.647-24.181,1.743-17.521c0.034-0.453,0.068-0.909,0.103-1.366c3.503-6.1,5.843-12.138,6.442-15.913
	c5.058-0.826,6.211-4.219-1.861-7.938c0.01-0.021,0.021-0.042,0.031-0.063c17.208,6.29,32.916-3.242,13.242-4.958
	c20.192,1.761,30.794,2.861,12.725-5.87c18.067,8.731,26.316,7.372,10.501-7.116c15.815,14.489,26.878,2.324,7.928-8.167
	c18.951,10.492,25.663,1.333,5.011-9.026C410.887,329.924,412.172,319.435,391.981,309.875z M267.95,358.888
	c0.763,0.041,1.625,0.055,2.575,0.044c0.438,0.728,0.896,1.459,1.386,2.194c0.009,0.24,0.015,0.48,0.023,0.72
	C270.181,360.042,268.873,359.123,267.95,358.888z M304.523,465.918c-1.32-0.579-2.174-0.998-2.653-1.292
	c0.926-0.117,1.836-0.245,2.653-0.354c0.817,0.108,1.727,0.236,2.652,0.354C306.697,464.92,305.842,465.339,304.523,465.918z"/>
<path id="SECONDARY_4_" fill="#7CD5FF" stroke="#231F20" stroke-width="1.3382" stroke-miterlimit="10" d="M330.425,345.307
	c-0.001-0.132-0.003-0.255-0.004-0.386c7.427-11.457,7.565-14.236-1.001-20.063c-0.007-0.058-0.016-0.111-0.021-0.166
	c6.319,3.141,0.797-6.48-2.164-12.25c-0.641-2.293-1.362-4.181-2.155-5.719c-0.68-2.154-1.468-3.636-2.371-4.624
	c-1.57-1.73-3.477-1.957-5.703-1.675c-3.847-0.494-8.164,0.912-12.483,1.385c-4.318-0.473-8.637-1.879-12.484-1.385
	c-2.225-0.282-4.132-0.055-5.703,1.675c-0.905,0.987-1.692,2.47-2.37,4.624c-0.796,1.538-1.516,3.426-2.158,5.719
	c-2.959,5.768-8.484,15.39-2.165,12.25c-0.004,0.055-0.012,0.108-0.019,0.166c-8.566,5.827-8.428,8.605-1,20.063
	c0,0.131-0.003,0.254-0.004,0.386c-7.197-8.536-7.359,4.037,0.189,17.285c0.005,0.221,0.011,0.442,0.019,0.662
	c-6.908-8.322-5.194,3.451,0.708,15.479c0.028,0.418,0.055,0.84,0.08,1.256c-5.439-6.144-5.573,5.869,1.378,16.172
	c0.024,0.267,0.055,0.543,0.08,0.811c-6.933-6.262-5.705,2.745,1.709,13.4c0.028,0.197,0.061,0.386,0.088,0.586
	c-5.968-6.45-3.845-0.027,1.708,10.05c0.084,0.415,0.16,0.838,0.237,1.247c-3.933-4.862-2.869,1.518,2.281,10.188
	c0.154,0.584,0.299,1.15,0.458,1.723c-4.646-4.69-3.202,1.744,2.772,9.02c0.163,0.441,0.315,0.871,0.481,1.299
	c-5.322-3.839-3.536,1.608,3.085,6.943c0.142,0.253,0.283,0.5,0.418,0.744c-5.916-3.126-3.682-0.205,4.045,4.371
	c0.417,0.2,0.862,0.418,1.352,0.646c0.054,0.065,0.082,0.133,0.112,0.2c-0.512-0.287-0.998-0.57-1.464-0.848
	c-3.922-1.872-4.642-2.37,1.472,0.893c0.078,0.297-0.039,0.614-0.485,0.981c0.611-0.013,1.299-0.08,2.015-0.167
	c0.102,0.058,0.192,0.109,0.31,0.167c-0.114-0.056-0.204-0.109-0.306-0.167c0.166-0.022,0.332-0.042,0.497-0.065
	c0.813,0.366,1.678,0.755,2.577,1.148c-0.315,0.167-0.677,0.345-1.069,0.541c0.387-0.169,0.772-0.335,1.154-0.503
	c0.382,0.168,0.767,0.334,1.154,0.503c-0.391-0.196-0.751-0.374-1.068-0.541c0.899-0.394,1.763-0.782,2.575-1.148
	c0.167,0.023,0.331,0.043,0.497,0.065c-0.1,0.058-0.191,0.111-0.306,0.167c0.12-0.058,0.21-0.109,0.311-0.167
	c0.716,0.087,1.406,0.154,2.016,0.167c-0.446-0.367-0.563-0.688-0.486-0.981c6.111-3.263,5.394-2.766,1.473-0.896
	c-0.462,0.279-0.949,0.563-1.464,0.851c0.031-0.069,0.059-0.136,0.113-0.202c0.488-0.229,0.936-0.445,1.351-0.646
	c7.728-4.575,9.961-7.495,4.045-4.369c0.134-0.244,0.274-0.488,0.417-0.744c6.623-5.334,8.408-10.782,3.085-6.943
	c0.165-0.424,0.316-0.856,0.48-1.296c5.977-7.277,7.421-13.713,2.772-9.022c0.159-0.569,0.307-1.14,0.458-1.723
	c5.151-8.668,6.215-15.051,2.282-10.187c0.078-0.411,0.154-0.833,0.239-1.249c5.552-10.08,7.678-16.501,1.706-10.05
	c0.029-0.199,0.061-0.388,0.088-0.586c7.415-10.652,8.646-19.662,1.711-13.4c0.024-0.268,0.056-0.543,0.079-0.811
	c6.951-10.305,6.819-22.317,1.378-16.172c0.024-0.416,0.053-0.837,0.081-1.256c5.9-12.029,7.613-23.801,0.707-15.479
	c0.008-0.22,0.013-0.441,0.019-0.662C337.785,349.344,337.621,336.771,330.425,345.307z M304.523,459.296
	c-1.041-0.534-1.713-0.923-2.093-1.195c0.729-0.107,1.45-0.225,2.093-0.325c0.644,0.101,1.364,0.218,2.093,0.325
	C306.236,458.374,305.563,458.762,304.523,459.296z"/>
<path id="SECONDARY_1_" fill="#7CD5FF" stroke="#231F20" stroke-width="1.3382" stroke-miterlimit="10" d="M383.76,311.513
	c18.275,7.429,17.104,15.585-1.583,7.535c18.686,8.05,12.616,15.176-4.543,7.016c17.161,8.161,7.146,17.618-7.167,6.351
	c14.313,11.266,6.844,12.328-9.515,5.536c16.358,6.792,6.763,5.934-11.518,4.565c18.28,1.369,2.814,9.146-13.214,3.447
	c16.025,5.7-2.88,10.168-16.613,1.553c5.904,5.64-14.943,21.535-14.943,21.535s-23.132-15.271-14.43-20.909
	c-16.089,2.512-31.751,2.002-14.616-2.178c-17.135,4.181-28.977,3.748-13.222-3.447c-15.754,7.195-29.543,0.422-11.519-4.565
	c-18.024,4.987-27.779-2.569-9.505-5.536c-18.272,2.966-25.641-3.427-7.175-6.351c-18.466,2.924-23.781-2.334-4.537-7.016
	c-19.256,4.656-18.938-2.117-1.581-7.535c-17.408,4.629-17.2-8.93,1.641-12.204c-18.839,3.271-13.828-7.05,4.68-6.824
	c-18.509-0.226-11.007-8.635,7.386-2.597c-18.394-6.037-3.852-11.038,9.74,0.47c-13.592-11.506-0.726-10.024,11.753,2.376
	c-12.48-12.402,4.009-10.125,13.431,3.133c-9.417-13.259,7.229-12.683,14.76,2.724c-7.289-15.39,10.058-10.77,15.737,1.169
	c-1.856-11.938,21.596-15.288,15.635-1.169c8.23-14.354,19.671-18.381,14.465-2.724c5.238-15.666,20.808-17.927,13.009-3.133
	c7.807-14.796,26.546-13.797,11.291-2.376c15.257-11.421,26.27-4.41,9.257-0.47c17.013-3.939,24.652-1.001,6.972,2.597
	c17.681-3.599,19.693-3.27,4.386,6.824C397.535,289.223,402.031,318.935,383.76,311.513z"/>
<path id="PRIMARY_11_" fill="#02007A" stroke="#231F20" stroke-width="1.3382" stroke-miterlimit="10" d="M251.247,469.938v15.547
	c0,40.697,0,38.834,40.083,38.834h26.055c40.084,0,40.085,1.44,40.085-39.258l-0.001-15.122L251.247,469.938L251.247,469.938z"/>
</svg>
