<?xml version="1.0" encoding="utf-8"?>
<!-- Generator: Adobe Illustrator 16.0.0, SVG Export Plug-In . SVG Version: 6.00 Build 0)  -->
<svg version="1.1" id="Layer_1" xmlns="http://www.w3.org/2000/svg" xmlns:xlink="http://www.w3.org/1999/xlink" x="0px" y="0px"
	 width="612px" height="792px" viewBox="0 0 612 792" enable-background="new 0 0 612 792" xml:space="preserve">
<rect x="178.582" y="332.45" fill="#231F20" fill-opacity="0" width="256" height="128.312"/>
<path id="SECONDARY_11_" fill="#F77300" stroke="#231F20" stroke-width="3.6621" stroke-miterlimit="10" d="M298.052,371.185v63.442
	c0,13.271,0,24.037,0,24.037H271.53c-14.647,0-26.522-10.766-26.522-24.037v-63.442"/>
<path id="SECONDARY_10_" fill="#F77300" stroke="#231F20" stroke-width="3.6621" stroke-miterlimit="10" d="M403.819,432.411
	c7.392,1.153,12.85,5.617,12.182,9.975l0,0c-0.679,4.36-7.234,6.959-14.626,5.813l-81.57-12.651
	c-7.409-1.153-12.867-5.617-12.192-9.981l0,0c0.675-4.354,7.228-6.953,14.629-5.804L403.819,432.411z"/>
<path id="SECONDARY_9_" fill="#F77300" stroke="#231F20" stroke-width="3.6621" stroke-miterlimit="10" d="M401.575,440.76
	c1.297-8.377,8.971-14.141,17.145-12.873c8.17,1.271,13.743,9.093,12.446,17.471c-1.293,8.381-8.971,14.145-17.141,12.873
	C405.852,456.964,400.278,449.141,401.575,440.76z"/>
<path id="SECONDARY_8_" fill="#F77300" stroke="#231F20" stroke-width="3.6621" stroke-miterlimit="10" d="M295.696,413.81h24.313
	c6.698,0,12.129,10.006,12.129,22.343l0,0c0,12.337-5.431,22.347-12.129,22.347h-24.313"/>
<path id="SECONDARY_7_" fill="#F77300" stroke="#231F20" stroke-width="3.6621" stroke-miterlimit="10" d="M385.613,434.194
	c4.912,0.773,8.35,4.923,7.682,9.276l0,0c-0.687,4.356-5.22,7.271-10.132,6.505l-54.188-8.435c-4.919-0.771-8.363-4.927-7.691-9.283
	l0,0c0.679-4.357,5.22-7.268,10.132-6.502L385.613,434.194z"/>
<path id="SECONDARY_6_" fill="#F77300" stroke="#231F20" stroke-width="3.6621" stroke-miterlimit="10" d="M378.4,441.87
	c1.301-8.378,8.979-14.138,17.145-12.867c8.171,1.274,13.736,9.101,12.436,17.479c-1.3,8.377-8.978,14.138-17.144,12.862
	C382.666,458.073,377.101,450.247,378.4,441.87z"/>
<path id="SECONDARY_5_" fill="#F77300" stroke="#231F20" stroke-width="3.6621" stroke-miterlimit="10" d="M358.198,434.691
	c4.923,0.666,8.449,4.748,7.867,9.115l0,0c-0.586,4.364-5.063,7.382-9.985,6.713l-54.352-7.285
	c-4.939-0.666-8.469-4.744-7.883-9.119l0,0c0.584-4.367,5.059-7.371,9.99-6.713L358.198,434.691z"/>
<path id="SECONDARY_4_" fill="#F77300" stroke="#231F20" stroke-width="3.6621" stroke-miterlimit="10" d="M368.016,429.222
	c8.191,1.099,13.929,8.8,12.8,17.206c-1.114,8.402-8.677,14.32-16.876,13.221c-8.181-1.103-13.922-8.793-12.804-17.202
	C352.265,434.04,359.816,428.119,368.016,429.222z"/>
</svg>
