<?xml version="1.0" encoding="utf-8"?>
<!-- Generator: Adobe Illustrator 16.0.0, SVG Export Plug-In . SVG Version: 6.00 Build 0)  -->
<svg version="1.1" id="Layer_1" xmlns="http://www.w3.org/2000/svg" xmlns:xlink="http://www.w3.org/1999/xlink" x="0px" y="0px"
	 width="612px" height="792px" viewBox="0 0 612 792" enable-background="new 0 0 612 792" xml:space="preserve">
<rect x="271.592" y="379.106" fill-opacity="0" fill="#231F20" width="69.979" height="35"/>
<path id="SECONDARY_11_" fill="#F77300" stroke="#231F20" stroke-miterlimit="10" d="M304.25,389.672v17.306c0,3.62,0,6.556,0,6.556
	H297c-4.004,0-7.25-2.936-7.25-6.556v-17.306"/>
<path id="SECONDARY_10_" fill="#F77300" stroke="#231F20" stroke-miterlimit="10" d="M333.162,406.373
	c2.021,0.315,3.513,1.532,3.33,2.721l0,0c-0.185,1.189-1.977,1.898-3.998,1.586l-22.298-3.451c-2.025-0.315-3.517-1.533-3.333-2.723
	l0,0c0.185-1.188,1.976-1.897,3.999-1.583L333.162,406.373z"/>
<ellipse id="SECONDARY_9_" transform="matrix(0.1532 -0.9882 0.9882 0.1532 -119.4294 679.1981)" fill="#F77300" stroke="#231F20" stroke-miterlimit="10" cx="336.595" cy="409.286" rx="4.188" ry="4.093"/>
<path id="SECONDARY_8_" fill="#F77300" stroke="#231F20" stroke-miterlimit="10" d="M303.606,401.299h6.646
	c1.831,0,3.315,2.729,3.315,6.095l0,0c0,3.365-1.484,6.095-3.315,6.095h-6.646"/>
<path id="SECONDARY_7_" fill="#F77300" stroke="#231F20" stroke-miterlimit="10" d="M328.186,406.859
	c1.342,0.211,2.282,1.343,2.099,2.531l0,0c-0.187,1.188-1.427,1.983-2.769,1.774l-14.813-2.301c-1.345-0.21-2.286-1.343-2.102-2.532
	l0,0c0.185-1.188,1.426-1.982,2.769-1.773L328.186,406.859z"/>
<ellipse id="SECONDARY_6_" transform="matrix(0.1537 -0.9881 0.9881 0.1537 -125.1917 672.9582)" fill="#F77300" stroke="#231F20" stroke-miterlimit="10" cx="330.256" cy="409.562" rx="4.188" ry="4.092"/>
<path id="SECONDARY_5_" fill="#F77300" stroke="#231F20" stroke-miterlimit="10" d="M320.691,406.995
	c1.346,0.182,2.31,1.295,2.151,2.486l0,0c-0.16,1.191-1.384,2.014-2.73,1.832l-14.857-1.988c-1.35-0.181-2.315-1.294-2.155-2.487
	l0,0c0.16-1.191,1.383-2.011,2.731-1.831L320.691,406.995z"/>
<path id="SECONDARY_4_" fill="#F77300" stroke="#231F20" stroke-miterlimit="10" d="M323.375,405.503
	c2.239,0.3,3.808,2.4,3.499,4.693c-0.305,2.292-2.372,3.907-4.613,3.607c-2.237-0.301-3.806-2.399-3.5-4.693
	C319.069,406.817,321.134,405.202,323.375,405.503z"/>
</svg>
