<?xml version="1.0" encoding="utf-8"?>
<!-- Generator: Adobe Illustrator 16.0.0, SVG Export Plug-In . SVG Version: 6.00 Build 0)  -->
<svg version="1.1" id="Layer_1" xmlns="http://www.w3.org/2000/svg" xmlns:xlink="http://www.w3.org/1999/xlink" x="0px" y="0px"
	 width="612px" height="792px" viewBox="0 0 612 792" enable-background="new 0 0 612 792" xml:space="preserve">
<rect id="body_frame_1_" x="230.5" y="300.5" fill-opacity="0" fill="#FFFFFF" width="151" height="191"/>
<path id="PRIMARY_4_" fill="#FFFA00" stroke="#231F20" stroke-miterlimit="10" d="M259.904,460.77
	c1.994,2.606,0.375,9.606-2.861,7.606c-12.946-7-19.561-22.376-21.784-43c0-4.626,6.242-13,6.242-8c0,11,3.406,27,11.237,35.888
	C256.604,457.594,259.904,460.77,259.904,460.77z"/>
<path id="PRIMARY_3_" fill="#FFF100" stroke="#231F20" stroke-miterlimit="10" d="M359.509,312.808h-9.96
	c-5.488-6.22-13.408-10.126-22.215-10.126h-44.667c-8.806,0-16.727,3.906-22.215,10.126h-7.961
	c-11.539,0-20.893,0.192-20.893,19.568v11.088c0,19.543,9.354,19.568,20.893,19.568h0.176v95.751c0,17.054,13.432,30.878,30,30.878
	h44.667c16.568,0,30-13.824,30-30.878v-95.751h2.175c11.539,0,20.893-0.025,20.893-19.568v-11.088
	C380.401,313,371.048,312.808,359.509,312.808z"/>
<path id="PRIMARY_55_" fill="#FFF100" stroke="#231F20" stroke-miterlimit="10" d="M345.24,396.001
	c0,42.522-15.174,76.999-33.893,76.999s-33.895-34.477-33.895-76.999c0-42.523,15.176-77.001,33.895-77.001
	S345.24,353.479,345.24,396.001z"/>
<path fill-opacity="0.7" fill="#FFFFFF" stroke="#231F20" stroke-miterlimit="10" d="M345.24,396.172
	c0,42.521-15.175,76.999-33.894,76.999s-33.894-34.478-33.894-76.999c0-42.523,15.175-77.001,33.894-77.001
	S345.24,353.649,345.24,396.172z"/>
<path id="SECONDARY_3_" fill="#894000" stroke="#231F20" stroke-miterlimit="10" d="M246.5,425.75c0,2.12-0.755,4.039-1.977,5.428
	c-1.221,1.39-2.909,2.249-4.773,2.249s-3.552-0.859-4.773-2.249c-1.222-1.389-1.977-3.308-1.977-5.428s2.024-15.635,1.977-5.428
	c1.257-11.584,6.405-20.139,4.773-2.249c2.035-17.89,5.004-15.681,4.773,2.249C245.259,403.027,246.5,423.63,246.5,425.75z"/>
</svg>
