<?xml version="1.0" encoding="utf-8"?>
<!-- Generator: Adobe Illustrator 16.0.0, SVG Export Plug-In . SVG Version: 6.00 Build 0)  -->
<svg version="1.1" id="Layer_1" xmlns="http://www.w3.org/2000/svg" xmlns:xlink="http://www.w3.org/1999/xlink" x="0px" y="0px"
	 width="612px" height="792px" viewBox="0 0 612 792" enable-background="new 0 0 612 792" xml:space="preserve">
<rect id="body_frame_1_" x="205" y="268" fill="#FFFFFF" fill-opacity="0" width="202" height="256"/>
<path id="PRIMARY_4_" fill="#FFFA00" stroke="#231F20" stroke-width="1.339" stroke-miterlimit="10" d="M244.335,482.812
	c2.667,3.493,0.501,12.876-3.827,10.195c-17.318-9.383-26.168-29.991-29.142-57.634c0-6.2,8.35-17.424,8.35-10.723
	c0,14.743,4.557,36.188,15.032,48.101C239.92,478.555,244.335,482.812,244.335,482.812z"/>
<path id="PRIMARY_3_" fill="#FFF100" stroke="#231F20" stroke-width="1.339" stroke-miterlimit="10" d="M377.581,284.497h-13.323
	c-7.343-8.337-17.938-13.572-29.719-13.572h-59.753c-11.78,0-22.376,5.235-29.718,13.572h-10.649
	c-15.437,0-27.95,0.257-27.95,26.227v14.861c0,26.194,12.513,26.228,27.95,26.228h0.235v128.336
	c0,22.857,17.969,41.386,40.132,41.386h59.753c22.165,0,40.133-18.528,40.133-41.386V351.813h2.909
	c15.437,0,27.95-0.034,27.95-26.228v-14.861C405.53,284.754,393.018,284.497,377.581,284.497z"/>
<path id="PRIMARY_55_" fill="#FFF100" stroke="#231F20" stroke-width="1.339" stroke-miterlimit="10" d="M358.493,396.001
	c0,56.994-20.299,103.203-45.341,103.203c-25.041,0-45.342-46.209-45.342-103.203c0-56.994,20.301-103.206,45.342-103.206
	C338.194,292.796,358.493,339.008,358.493,396.001z"/>
<path fill="#FFFFFF" fill-opacity="0.7" stroke="#231F20" stroke-width="1.339" stroke-miterlimit="10" d="M358.493,396.23
	c0,56.992-20.3,103.203-45.342,103.203c-25.041,0-45.341-46.211-45.341-103.203c0-56.994,20.3-103.206,45.341-103.206
	C338.193,293.025,358.493,339.236,358.493,396.23z"/>
<path id="SECONDARY_3_" fill="#894000" stroke="#231F20" stroke-width="1.339" stroke-miterlimit="10" d="M226.404,435.874
	c0,2.842-1.01,5.414-2.645,7.275c-1.634,1.863-3.892,3.015-6.385,3.015s-4.751-1.151-6.385-3.015
	c-1.635-1.861-2.645-4.434-2.645-7.275c0-2.841,2.708-20.955,2.645-7.274c1.681-15.526,8.568-26.993,6.385-3.015
	c2.723-23.979,6.694-21.019,6.385,3.015C224.744,405.419,226.404,433.033,226.404,435.874z"/>
</svg>
