<?xml version="1.0" encoding="utf-8"?>
<!-- Generator: Adobe Illustrator 16.0.0, SVG Export Plug-In . SVG Version: 6.00 Build 0)  -->
<svg version="1.1" id="Layer_1" xmlns="http://www.w3.org/2000/svg" xmlns:xlink="http://www.w3.org/1999/xlink" x="0px" y="0px"
	 width="612px" height="792px" viewBox="0 0 612 792" enable-background="new 0 0 612 792" xml:space="preserve">
<rect id="body_frame_1_" x="205" y="269" fill="#BBBCBE" fill-opacity="0" width="202" height="256"/>
<path id="PRIMARY_7_" fill="#666666" stroke="#231F20" stroke-width="1.339" stroke-miterlimit="10" d="M340.792,270.9h-35.291l0,0
	h-33.806c-24.553,0-61.1-3.667-61.1,18.54v63.451l29.632,130.01c0,22.207,6.915,40.422,31.466,40.422H305.5h1.483h33.807
	c24.543,0,31.458-18.215,31.458-40.422l29.643-130.01V289.44C401.892,267.233,365.334,270.9,340.792,270.9z"/>
<path id="SECONDARY_4_" fill="#F1F1F1" stroke="#231F20" stroke-width="1.339" stroke-miterlimit="10" d="M365.318,308.312
	c0-8.261,0.151-13.942-0.158-18.411c-1.672-7.5-4.83-14.179-9.774-18.923h-39.744c-15.557,15.048-14.84,16.325-19.043,34.821
	v156.055c5.764,22.084,3.347,22.084,20.336,37.243h41.087c7.778-10.721,6.563-18.324,7.778-21.661
	c0.146-1.948-0.481-6.505-0.481-8.488V308.312z"/>
<path opacity="0.8" fill="none" stroke="#231F20" stroke-width="2.6781" stroke-miterlimit="10" enable-background="new    " d="
	M234.698,291.289c6.54,7.873,35.848,17.903,45.38,12.122"/>
<path opacity="0.8" fill="none" stroke="#231F20" stroke-width="2.6781" stroke-miterlimit="10" enable-background="new    " d="
	M226.734,314.806c8.864,8.96,40.451,19.955,52.969,13.688"/>
<path opacity="0.8" fill="none" stroke="#231F20" stroke-width="2.6781" stroke-miterlimit="10" enable-background="new    " d="
	M224.63,339.954c7.241,8.721,38.098,18.541,48.824,12.009"/>
</svg>
