<?xml version="1.0" encoding="utf-8"?>
<!-- Generator: Adobe Illustrator 16.0.0, SVG Export Plug-In . SVG Version: 6.00 Build 0)  -->
<svg version="1.1" id="Layer_1" xmlns="http://www.w3.org/2000/svg" xmlns:xlink="http://www.w3.org/1999/xlink" x="0px" y="0px"
	 width="612px" height="792px" viewBox="0 0 612 792" enable-background="new 0 0 612 792" xml:space="preserve">
<rect id="body_frame_1_" x="230.5" y="301.5" fill-opacity="0" fill="#BBBCBE" width="151" height="191"/>
<path id="PRIMARY_7_" fill="#666666" stroke="#231F20" stroke-miterlimit="10" d="M332.008,302.918h-26.381v0h-25.271
	c-18.354,0-45.674-2.736-45.674,13.832v47.341l22.151,97c0,16.568,5.169,30.158,23.522,30.158h25.271h1.108h25.272
	c18.347,0,23.516-13.59,23.516-30.158l22.158-97V316.75C377.682,300.182,350.354,302.918,332.008,302.918z"/>
<path id="SECONDARY_4_" fill="#F1F1F1" stroke="#231F20" stroke-miterlimit="10" d="M350.342,330.83
	c0-6.163,0.113-10.402-0.118-13.736c-1.25-5.596-3.611-10.579-7.307-14.119l-29.71,0c-11.629,11.227-11.093,12.18-14.235,25.98
	v116.432c4.309,16.476,2.502,16.476,15.202,27.787h30.714c5.814-7.999,4.906-13.672,5.814-16.161c0.109-1.454-0.36-4.854-0.36-6.333
	V330.83z"/>
<path opacity="0.8" fill="none" stroke="#231F20" stroke-width="2" stroke-miterlimit="10" d="M252.7,318.13
	c4.889,5.874,26.797,13.357,33.923,9.044"/>
<path opacity="0.8" fill="none" stroke="#231F20" stroke-width="2" stroke-miterlimit="10" d="M246.747,335.676
	c6.626,6.685,30.238,14.888,39.596,10.212"/>
<path opacity="0.8" fill="none" stroke="#231F20" stroke-width="2" stroke-miterlimit="10" d="M245.174,354.438
	c5.413,6.507,28.479,13.833,36.497,8.96"/>
</svg>
