<?xml version="1.0" encoding="utf-8"?>
<!-- Generator: Adobe Illustrator 16.0.0, SVG Export Plug-In . SVG Version: 6.00 Build 0)  -->
<svg version="1.1" id="Layer_1" xmlns="http://www.w3.org/2000/svg" xmlns:xlink="http://www.w3.org/1999/xlink" x="0px" y="0px"
	 width="612px" height="792px" viewBox="0 0 612 792" enable-background="new 0 0 612 792" xml:space="preserve">
<rect x="266.5" y="369.004" fill="none" width="81" height="54.487"/>
<path class="secondary_color" id="SECONDARY_3_" fill="#FFFDB5" stroke="#231F20" stroke-miterlimit="10" d="M312.384,416.329
	c-0.057-3.926-0.177-7.918-0.037-11.275c-1.445,0.369-2.952,0.586-4.513,0.586c-1.161,0-2.293-0.12-3.394-0.327
	c-0.279,4.712,0.203,10.025,4.971,15.116c0.357,0.418,0.752,0.811,1.203,1.148c0.927,0.697,2.092,1.182,3.665,1.227
	c-0.47-1.459-0.924-2.939-1.335-4.393C312.745,417.708,312.558,417.013,312.384,416.329z"/>
<path class="secondary_color" id="SECONDARY_2_" fill="#FFFDB5" stroke="#231F20" stroke-miterlimit="10" d="M301.201,414.265
	c0.488-3.214,0.941-6.479,1.474-9.377c-2.716-0.801-5.157-2.221-7.185-4.09c-1.25,4.89-2.129,10.664,2.104,17.023
	c0.284,0.471,0.608,0.922,0.999,1.33c0.799,0.84,1.867,1.51,3.413,1.813c-0.224-1.518-0.429-3.053-0.595-4.553
	C301.332,415.685,301.26,414.968,301.201,414.265z"/>
<path class="secondary_color" id="SECONDARY_1_" fill="#FFFDB5" stroke="#231F20" stroke-miterlimit="10" d="M289.602,387.407c0-0.6,0.033-1.192,0.09-1.777
	c-0.264,0.037-0.486,0.148-0.644,0.371c-3.149,4.453-7.013,9.914-4.976,18.32c0.106,0.539,0.256,1.074,0.483,1.59
	c0.464,1.064,1.238,2.059,2.587,2.873c0.309-1.502,0.643-3.014,1-4.482c0.173-0.709,0.352-1.406,0.536-2.088
	c1.091-1.994,2.174-4.02,3.237-5.929C290.447,393.657,289.602,390.633,289.602,387.407z"/>
<path class="secondary_color" id="SECONDARY" fill="#FFFDB5" stroke="#231F20" stroke-miterlimit="10" d="M325.263,415.278
	c-0.33-0.652-0.648-1.297-0.949-1.938c-0.977-4.65-2.074-9.395-2.465-13.088c0.038-0.139,0.075-0.268,0.107-0.389
	c0.242-0.488,0.319-0.865,0.264-1.152c-0.006-0.032-0.022-0.059-0.032-0.089c-1.999,2.556-4.66,4.559-7.731,5.758
	c0.655,4.589,2.204,9.567,7.726,13.556c0.431,0.34,0.894,0.65,1.401,0.895c1.042,0.508,2.277,0.76,3.831,0.502
	C326.674,417.991,325.944,416.626,325.263,415.278z"/>
</svg>
