<?xml version="1.0" encoding="utf-8"?>
<!-- Generator: Adobe Illustrator 16.0.0, SVG Export Plug-In . SVG Version: 6.00 Build 0)  -->
<svg version="1.1" id="Layer_1" xmlns="http://www.w3.org/2000/svg" xmlns:xlink="http://www.w3.org/1999/xlink" x="0px" y="0px"
	 width="612px" height="792px" viewBox="0 0 612 792" enable-background="new 0 0 612 792" xml:space="preserve">
<rect x="262.5" y="379.004" fill="none" width="81" height="54.487"/>
<path class="secondary_color" id="SECONDARY_3_" fill="#FFFDB5" stroke="#231F20" stroke-miterlimit="10" d="M286.656,425.278
	c0.33-0.652,0.648-1.297,0.949-1.938c0.977-4.65,2.074-9.395,2.465-13.088c-0.038-0.139-0.075-0.268-0.107-0.389
	c-0.242-0.488-0.319-0.865-0.264-1.152c0.006-0.032,0.022-0.059,0.032-0.089c1.999,2.556,4.66,4.559,7.731,5.758
	c-0.655,4.589-2.204,9.567-7.726,13.556c-0.431,0.34-0.894,0.65-1.401,0.895c-1.042,0.508-2.277,0.76-3.831,0.502
	C285.245,427.991,285.975,426.626,286.656,425.278z"/>
<path class="secondary_color" id="SECONDARY_2_" fill="#FFFDB5" stroke="#231F20" stroke-miterlimit="10" d="M299.536,426.329
	c0.056-3.926,0.176-7.918,0.036-11.275c1.446,0.369,2.953,0.586,4.514,0.586c1.161,0,2.292-0.12,3.393-0.327
	c0.279,4.712-0.203,10.025-4.971,15.116c-0.357,0.418-0.752,0.811-1.204,1.148c-0.926,0.697-2.091,1.182-3.665,1.227
	c0.47-1.459,0.924-2.939,1.335-4.393C299.173,427.708,299.362,427.013,299.536,426.329z"/>
<path class="secondary_color" id="SECONDARY_1_" fill="#FFFDB5" stroke="#231F20" stroke-miterlimit="10" d="M310.719,424.265
	c-0.489-3.214-0.941-6.479-1.475-9.377c2.715-0.801,5.158-2.221,7.185-4.09c1.251,4.89,2.129,10.664-2.104,17.023
	c-0.283,0.471-0.608,0.922-0.998,1.33c-0.8,0.84-1.869,1.51-3.414,1.813c0.224-1.518,0.428-3.053,0.595-4.553
	C310.588,425.685,310.659,424.968,310.719,424.265z"/>
<path class="secondary_color" id="SECONDARY" fill="#FFFDB5" stroke="#231F20" stroke-miterlimit="10" d="M322.317,397.407c0-0.6-0.033-1.192-0.09-1.777
	c0.264,0.037,0.485,0.148,0.644,0.371c3.149,4.453,7.012,9.914,4.975,18.32c-0.105,0.539-0.256,1.074-0.482,1.59
	c-0.463,1.064-1.238,2.059-2.587,2.873c-0.309-1.502-0.642-3.014-1.001-4.482c-0.172-0.709-0.35-1.406-0.535-2.088
	c-1.091-1.994-2.174-4.02-3.237-5.929C321.473,403.657,322.317,400.633,322.317,397.407z"/>
</svg>
