<?xml version="1.0" encoding="utf-8"?>
<!-- Generator: Adobe Illustrator 16.0.0, SVG Export Plug-In . SVG Version: 6.00 Build 0)  -->
<svg version="1.1" id="Layer_1" xmlns="http://www.w3.org/2000/svg" xmlns:xlink="http://www.w3.org/1999/xlink" x="0px" y="0px"
	 width="612px" height="792px" viewBox="0 0 612 792" enable-background="new 0 0 612 792" xml:space="preserve">
<rect x="216.311" y="386.004" fill-opacity="0" fill="#231F20" width="81" height="54.487"/>
<path id="SECONDARY_33_" fill="#FFFDB5" stroke="#231F20" stroke-miterlimit="10" d="M252.282,418.096
	c0.267,0.477,0.362,0.849,0.323,1.139c-0.097,0.712-1.02,0.907-2.19,0.819c-0.573-0.04-1.208-0.148-1.837-0.298
	c-1.391-0.631-4.288-0.789-4.231-2.166c0.219-5.447,0.489-12.134,7.231-17.553c0.412-0.361,0.858-0.695,1.353-0.966
	c1.016-0.56,2.235-0.876,3.801-0.697c-0.671,1.378-1.329,2.778-1.94,4.159c-0.296,0.669-0.579,1.328-0.849,1.984
	c-0.735,4.695-1.588,9.487-1.788,13.199C252.199,417.852,252.244,417.978,252.282,418.096z"/>
<path id="SECONDARY_32_" fill="#FFFDB5" stroke="#231F20" stroke-miterlimit="10" d="M261.508,420.908
	c0.369,0.398,0.551,0.74,0.58,1.03c0.073,0.713-0.777,1.12-1.936,1.312c-0.567,0.096-1.209,0.14-1.856,0.142
	c-1.5-0.291-4.353,0.238-4.621-1.113c-1.065-5.349-2.373-11.909,2.908-18.758c0.316-0.45,0.672-0.879,1.088-1.258
	c0.856-0.783,1.97-1.376,3.531-1.571c-0.328,1.496-0.639,3.014-0.909,4.5c-0.131,0.719-0.251,1.429-0.358,2.126
	c0.386,4.739,0.683,9.6,1.357,13.249C261.369,420.688,261.442,420.801,261.508,420.908z"/>
<path id="SECONDARY_31_" fill="#FFFDB5" stroke="#231F20" stroke-miterlimit="10" d="M270.489,417.779
	c0.453,0.301,0.711,0.59,0.806,0.864c0.236,0.679-0.496,1.271-1.577,1.728c-0.53,0.225-1.144,0.417-1.773,0.569
	c-1.526,0.068-4.177,1.245-4.753-0.007c-2.281-4.955-5.078-11.031-1.536-18.921c0.202-0.511,0.448-1.01,0.766-1.476
	c0.65-0.961,1.594-1.797,3.068-2.351c0.029,1.534,0.081,3.081,0.163,4.588c0.04,0.73,0.087,1.449,0.145,2.153
	c1.479,4.517,2.898,9.175,4.405,12.567C270.305,417.596,270.401,417.688,270.489,417.779z"/>
<path id="SECONDARY_30_" fill="#FFFDB5" stroke="#231F20" stroke-miterlimit="10" d="M275.87,400.722
	c0.533,0.111,0.92,0.091,1.184-0.035c0.647-0.306,0.556-1.245,0.121-2.337c-0.213-0.533-0.508-1.105-0.84-1.659
	c-1.024-1.134-2.048-3.849-3.344-3.38c-5.129,1.856-11.42,4.131-14.55,12.195c-0.221,0.502-0.404,1.027-0.512,1.58
	c-0.229,1.139-0.16,2.398,0.481,3.836c1.112-1.057,2.249-2.107,3.383-3.107c0.546-0.483,1.091-0.954,1.631-1.408
	c4.256-2.119,8.568-4.381,12.043-5.691C275.61,400.72,275.746,400.721,275.87,400.722z"/>
</svg>
