<?xml version="1.0" encoding="utf-8"?>
<!-- Generator: Adobe Illustrator 16.0.0, SVG Export Plug-In . SVG Version: 6.00 Build 0)  -->
<svg version="1.1" id="Layer_1" xmlns="http://www.w3.org/2000/svg" xmlns:xlink="http://www.w3.org/1999/xlink" x="0px" y="0px"
	 width="612px" height="792px" viewBox="0 0 612 792" enable-background="new 0 0 612 792" xml:space="preserve">
<rect x="266.5" y="369.004" opacity="0" fill="#231F20" width="81" height="54.487"/>
<path class="secondary_color" id="SECONDARY_7_" fill="#FFFDB5" stroke="#231F20" stroke-miterlimit="10" d="M312.528,401.096
	c-0.267,0.477-0.362,0.849-0.323,1.139c0.097,0.712,1.02,0.907,2.19,0.819c0.573-0.04,1.208-0.148,1.837-0.298
	c1.391-0.631,4.288-0.789,4.231-2.166c-0.219-5.448-0.489-12.134-7.231-17.552c-0.412-0.362-0.858-0.696-1.353-0.966
	c-1.016-0.56-2.235-0.876-3.801-0.697c0.671,1.377,1.329,2.778,1.94,4.159c0.296,0.669,0.579,1.328,0.849,1.984
	c0.735,4.695,1.588,9.487,1.788,13.199C312.611,400.852,312.566,400.978,312.528,401.096z"/>
<path class="secondary_color" id="SECONDARY_6_" fill="#FFFDB5" stroke="#231F20" stroke-miterlimit="10" d="M303.303,403.908
	c-0.37,0.398-0.551,0.74-0.58,1.03c-0.073,0.713,0.777,1.12,1.936,1.312c0.567,0.096,1.208,0.14,1.856,0.142
	c1.5-0.291,4.353,0.238,4.622-1.113c1.065-5.349,2.373-11.909-2.908-18.758c-0.316-0.45-0.672-0.879-1.088-1.258
	c-0.856-0.783-1.97-1.376-3.531-1.571c0.328,1.496,0.638,3.014,0.909,4.5c0.131,0.719,0.251,1.429,0.358,2.126
	c-0.386,4.739-0.683,9.6-1.357,13.249C303.441,403.688,303.368,403.801,303.303,403.908z"/>
<path class="secondary_color" id="SECONDARY_5_" fill="#FFFDB5" stroke="#231F20" stroke-miterlimit="10" d="M294.321,400.779
	c-0.453,0.301-0.71,0.59-0.806,0.864c-0.236,0.679,0.496,1.271,1.578,1.728c0.53,0.225,1.144,0.417,1.773,0.569
	c1.526,0.068,4.177,1.245,4.753-0.007c2.281-4.955,5.078-11.031,1.536-18.921c-0.202-0.511-0.448-1.01-0.766-1.476
	c-0.65-0.96-1.594-1.797-3.068-2.351c-0.03,1.534-0.081,3.082-0.164,4.588c-0.04,0.73-0.087,1.449-0.145,2.153
	c-1.479,4.517-2.898,9.175-4.405,12.568C294.505,400.596,294.409,400.688,294.321,400.779z"/>
<path class="secondary_color" id="SECONDARY_4_" fill="#FFFDB5" stroke="#231F20" stroke-miterlimit="10" d="M288.94,383.722
	c-0.533,0.111-0.919,0.09-1.184-0.035c-0.647-0.305-0.555-1.245-0.121-2.336c0.212-0.533,0.507-1.105,0.839-1.66
	c1.024-1.134,2.048-3.849,3.344-3.38c5.129,1.857,11.42,4.132,14.55,12.196c0.221,0.502,0.404,1.027,0.512,1.58
	c0.229,1.139,0.16,2.398-0.482,3.836c-1.112-1.056-2.249-2.107-3.383-3.107c-0.545-0.483-1.091-0.954-1.631-1.408
	c-4.255-2.119-8.568-4.381-12.043-5.692C289.2,383.72,289.064,383.721,288.94,383.722z"/>
</svg>
