<?xml version="1.0" encoding="utf-8"?>
<!-- Generator: Adobe Illustrator 16.0.0, SVG Export Plug-In . SVG Version: 6.00 Build 0)  -->
<svg version="1.1" id="Layer_1" xmlns="http://www.w3.org/2000/svg" xmlns:xlink="http://www.w3.org/1999/xlink" x="0px" y="0px"
	 width="612px" height="792px" viewBox="0 0 612 792" enable-background="new 0 0 612 792" xml:space="preserve">
<rect x="178" y="311.248" fill-opacity="0" fill="#231F20" width="256" height="172"/>
<path id="SECONDARY_3_" fill="#FFFDB5" stroke="#231F20" stroke-width="3.1586" stroke-miterlimit="10" d="M353.877,405.079
	c0.407,4.198,0.586,8.298,0.74,12.188c0.179,4.347-8.979,4.847-13.373,6.838c-1.988,0.472-3.994,0.813-5.806,0.94
	c-3.433,0.256-6.161-0.271-6.787-2.14C338.614,419.324,347.321,413.128,353.877,405.079z"/>
<path id="SECONDARY_2_" fill="#FFFDB5" stroke="#231F20" stroke-width="3.1586" stroke-miterlimit="10" d="M309.16,426.355
	c5.908,0,11.603-0.894,16.967-2.543c-0.324,1.729-0.658,3.438-0.991,5.099c-0.849,4.267-9.864,2.596-14.604,3.515
	c-2.048-0.006-4.074-0.145-5.868-0.447c-3.661-0.604-6.349-1.89-6.117-4.14c0.068-0.685,0.407-1.465,1.062-2.337
	C302.722,426.02,305.899,426.355,309.16,426.355z"/>
<path id="SECONDARY_1_" fill="#FFFDB5" stroke="#231F20" stroke-width="3.1586" stroke-miterlimit="10" d="M266.731,413.711
	c0.509-1.752,0.827-3.293,1.197-4.748c6.003,6.15,13.386,10.919,21.633,13.906c-0.274,0.602-0.552,1.205-0.824,1.797
	c-0.911,1.977-3.463,2.035-6.386,1.572c-2.926-0.459-6.225-1.442-8.632-1.557c-2.485-2.962-8.806-2.962-7.831-10.105
	C266.148,414.299,266.426,414.019,266.731,413.711z"/>
<path id="SECONDARY" fill="#FFFDB5" stroke="#231F20" stroke-width="3.1586" stroke-miterlimit="10" d="M248.734,344.293
	c1.59-1.806,3.182-4.859,4.886-7.276c1.704-2.417,3.522-4.208,5.577-3.485c1.167,0.41,2.355,0.831,3.556,1.261
	c-4.876,6.625-8.404,14.295-10.08,22.655c-0.303-0.169-0.593-0.337-0.917-0.509c-0.429,0.003-0.828,0.006-1.21,0
	C244.734,352.667,249.136,348.134,248.734,344.293z"/>
</svg>
