<?xml version="1.0" encoding="utf-8"?>
<!-- Generator: Adobe Illustrator 16.0.0, SVG Export Plug-In . SVG Version: 6.00 Build 0)  -->
<svg version="1.1" id="Layer_1" xmlns="http://www.w3.org/2000/svg" xmlns:xlink="http://www.w3.org/1999/xlink" x="0px" y="0px"
	 width="612px" height="792px" viewBox="0 0 612 792" enable-background="new 0 0 612 792" xml:space="preserve">
<rect x="128.811" y="327.248" fill-opacity="0" fill="#231F20" width="256" height="172"/>
<path id="SECONDARY_33_" fill="#FFFDB5" stroke="#231F20" stroke-width="3.1586" stroke-miterlimit="10" d="M242.499,428.552
	c0.842,1.504,1.145,2.679,1.021,3.594c-0.306,2.248-3.222,2.864-6.923,2.587c-1.812-0.127-3.818-0.469-5.806-0.94
	c-4.395-1.991-13.552-2.491-13.374-6.838c0.691-17.195,1.546-38.303,22.855-55.409c1.303-1.141,2.713-2.195,4.275-3.049
	c3.21-1.767,7.065-2.765,12.012-2.201c-2.12,4.35-4.201,8.771-6.133,13.129c-0.935,2.112-1.83,4.192-2.682,6.264
	c-2.324,14.822-5.019,29.949-5.651,41.667C242.236,427.78,242.378,428.179,242.499,428.552z"/>
<path id="SECONDARY_32_" fill="#FFFDB5" stroke="#231F20" stroke-width="3.1586" stroke-miterlimit="10" d="M271.656,437.43
	c1.167,1.258,1.741,2.337,1.833,3.252c0.231,2.251-2.457,3.536-6.118,4.141c-1.793,0.302-3.821,0.44-5.867,0.447
	c-4.741-0.919-13.756,0.752-14.605-3.515c-3.367-16.884-7.5-37.594,9.191-59.213c1-1.421,2.124-2.774,3.438-3.971
	c2.707-2.472,6.225-4.343,11.161-4.96c-1.037,4.723-2.019,9.513-2.874,14.205c-0.414,2.269-0.793,4.51-1.133,6.711
	c1.219,14.96,2.157,30.303,4.29,41.823C271.218,436.736,271.449,437.091,271.656,437.43z"/>
<path id="SECONDARY_31_" fill="#FFFDB5" stroke="#231F20" stroke-width="3.1586" stroke-miterlimit="10" d="M300.042,427.553
	c1.432,0.949,2.247,1.861,2.546,2.729c0.747,2.142-1.568,4.014-4.985,5.453c-1.676,0.709-3.614,1.316-5.604,1.797
	c-4.824,0.216-13.201,3.931-15.022-0.021c-7.209-15.642-16.049-34.822-4.855-59.728c0.639-1.612,1.417-3.188,2.42-4.658
	c2.056-3.033,5.037-5.672,9.698-7.42c0.092,4.843,0.256,9.726,0.515,14.483c0.126,2.306,0.275,4.574,0.457,6.797
	c4.673,14.258,9.16,28.963,13.923,39.672C299.459,426.973,299.764,427.266,300.042,427.553z"/>
<path id="SECONDARY_30_" fill="#FFFDB5" stroke="#231F20" stroke-width="3.1586" stroke-miterlimit="10" d="M317.048,373.706
	c1.686,0.352,2.908,0.287,3.741-0.111c2.046-0.965,1.756-3.93,0.383-7.377c-0.673-1.683-1.605-3.49-2.654-5.238
	c-3.238-3.579-6.473-12.149-10.568-10.669c-16.209,5.86-36.092,13.04-45.984,38.497c-0.697,1.584-1.278,3.243-1.617,4.988
	c-0.722,3.594-0.506,7.572,1.521,12.109c3.516-3.335,7.108-6.652,10.691-9.809c1.726-1.526,3.448-3.012,5.154-4.445
	c13.451-6.689,27.08-13.829,38.062-17.966C316.228,373.7,316.656,373.703,317.048,373.706z"/>
</svg>
