<?xml version="1.0" encoding="utf-8"?>
<!-- Generator: Adobe Illustrator 16.0.0, SVG Export Plug-In . SVG Version: 6.00 Build 0)  -->
<svg version="1.1" id="Layer_1" xmlns="http://www.w3.org/2000/svg" xmlns:xlink="http://www.w3.org/1999/xlink" x="0px" y="0px"
	 width="612px" height="792px" viewBox="0 0 612 792" enable-background="new 0 0 612 792" xml:space="preserve">
<rect x="175" y="320.358" fill-opacity="0" fill="#231F20" width="256" height="171.778"/>
<path id="SECONDARY_3_" fill="#FFFDB5" stroke="#231F20" stroke-width="3.1566" stroke-miterlimit="10" d="M251.346,466.244
	c1.043-2.057,2.049-4.088,3-6.107c3.086-14.662,6.556-29.618,7.79-41.262c-0.12-0.438-0.238-0.844-0.339-1.226
	c-0.766-1.54-1.009-2.728-0.833-3.633c0.019-0.102,0.071-0.185,0.102-0.28c6.318,8.057,14.728,14.371,24.435,18.152
	c-2.071,14.467-6.966,30.162-24.417,42.736c-1.361,1.071-2.824,2.051-4.429,2.82c-3.293,1.601-7.197,2.395-12.108,1.582
	C246.886,474.797,249.191,470.493,251.346,466.244z"/>
<path id="SECONDARY_2_" fill="#FFFDB5" stroke="#231F20" stroke-width="3.1566" stroke-miterlimit="10" d="M292.051,469.558
	c0.176-12.377,0.557-24.963,0.114-35.548c4.569,1.164,9.332,1.848,14.266,1.848c3.668,0,7.245-0.379,10.724-1.031
	c0.883,14.854-0.642,31.606-15.71,47.656c-1.128,1.317-2.376,2.555-3.804,3.62c-2.928,2.198-6.61,3.726-11.582,3.867
	c1.484-4.6,2.92-9.268,4.219-13.849C290.906,473.904,291.501,471.713,292.051,469.558z"/>
<path id="SECONDARY_1_" fill="#FFFDB5" stroke="#231F20" stroke-width="3.1566" stroke-miterlimit="10" d="M327.396,463.049
	c-1.547-10.133-2.976-20.425-4.661-29.563c8.58-2.524,16.303-7.001,22.707-12.894c3.954,15.415,6.729,33.62-6.651,53.669
	c-0.895,1.484-1.923,2.906-3.154,4.193c-2.527,2.647-5.907,4.76-10.79,5.714c0.707-4.784,1.352-9.624,1.88-14.354
	C326.981,467.525,327.207,465.266,327.396,463.049z"/>
<path id="SECONDARY" fill="#FFFDB5" stroke="#231F20" stroke-width="3.1566" stroke-miterlimit="10" d="M364.053,378.376
	c0-1.892-0.105-3.759-0.284-5.604c0.833,0.117,1.534,0.466,2.034,1.17c9.953,14.04,22.16,31.255,15.722,57.758
	c-0.333,1.699-0.809,3.387-1.524,5.012c-1.463,3.355-3.914,6.49-8.176,9.058c-0.976-4.735-2.028-9.501-3.164-14.132
	c-0.543-2.234-1.104-4.433-1.691-6.582c-3.447-6.287-6.87-12.672-10.231-18.691C361.383,398.08,364.053,388.546,364.053,378.376z"/>
</svg>
