<?xml version="1.0" encoding="utf-8"?>
<!-- Generator: Adobe Illustrator 16.0.0, SVG Export Plug-In . SVG Version: 6.00 Build 0)  -->
<svg version="1.1" id="Layer_1" xmlns="http://www.w3.org/2000/svg" xmlns:xlink="http://www.w3.org/1999/xlink" x="0px" y="0px"
	 width="612px" height="792px" viewBox="0 0 612 792" enable-background="new 0 0 612 792" xml:space="preserve">
<rect x="179" y="310.248" fill-opacity="0" fill="#231F20" width="256" height="172"/>
<path id="SECONDARY_3_" fill="#FFFDB5" stroke="#231F20" stroke-width="3.1586" stroke-miterlimit="10" d="M324.016,459.639
	c-0.18-12.393-0.559-24.994-0.117-35.593c-4.568,1.165-9.33,1.85-14.263,1.85c-3.67,0-7.247-0.38-10.725-1.033
	c-0.883,14.874,0.642,31.647,15.709,47.718c1.13,1.319,2.377,2.559,3.803,3.626c2.929,2.2,6.611,3.729,11.583,3.871
	c-1.484-4.605-2.92-9.278-4.219-13.866C325.157,463.992,324.564,461.797,324.016,459.639z"/>
<path id="SECONDARY_2_" fill="#FFFDB5" stroke="#231F20" stroke-width="3.1586" stroke-miterlimit="10" d="M288.673,453.122
	c1.543-10.146,2.975-20.451,4.657-29.601c-8.583-2.527-16.299-7.01-22.707-12.91c-3.951,15.436-6.729,33.663,6.651,53.738
	c0.898,1.485,1.922,2.91,3.157,4.198c2.525,2.651,5.901,4.767,10.787,5.722c-0.707-4.79-1.355-9.637-1.88-14.371
	C289.086,457.604,288.858,455.342,288.673,453.122z"/>
<path id="SECONDARY_1_" fill="#FFFDB5" stroke="#231F20" stroke-width="3.1586" stroke-miterlimit="10" d="M252.012,368.341
	c0-1.895,0.105-3.764,0.284-5.611c-0.833,0.117-1.537,0.467-2.034,1.171c-9.954,14.057-22.164,31.296-15.725,57.832
	c0.336,1.702,0.809,3.392,1.528,5.019c1.466,3.36,3.914,6.499,8.176,9.07c0.975-4.742,2.031-9.514,3.161-14.15
	c0.546-2.238,1.111-4.439,1.694-6.591c3.447-6.295,6.87-12.688,10.231-18.715C254.685,388.07,252.012,378.523,252.012,368.341z"/>
<path id="SECONDARY" fill="#FFFDB5" stroke="#231F20" stroke-width="3.1586" stroke-miterlimit="10" d="M364.719,456.322
	c-1.043-2.06-2.049-4.094-3-6.116c-3.086-14.681-6.555-29.656-7.79-41.315c0.121-0.438,0.238-0.845,0.34-1.227
	c0.766-1.541,1.009-2.731,0.833-3.638c-0.019-0.102-0.07-0.185-0.102-0.28c-6.318,8.067-14.729,14.39-24.436,18.176
	c2.071,14.485,6.967,30.201,24.417,42.791c1.361,1.073,2.824,2.054,4.429,2.824c3.294,1.603,7.198,2.398,12.108,1.584
	C369.179,464.886,366.873,460.576,364.719,456.322z"/>
</svg>
