<?xml version="1.0" encoding="utf-8"?>
<!-- Generator: Adobe Illustrator 16.0.0, SVG Export Plug-In . SVG Version: 6.00 Build 0)  -->
<svg version="1.1" id="Layer_1" xmlns="http://www.w3.org/2000/svg" xmlns:xlink="http://www.w3.org/1999/xlink" x="0px" y="0px"
	 width="612px" height="792px" viewBox="0 0 612 792" enable-background="new 0 0 612 792" xml:space="preserve">
<rect id="body_frame" x="230.5" y="300.5" fill-opacity="0" fill="#BBBCBE" width="151" height="191"/>
<path id="PRIMARY_2_" fill="#F77300" stroke="#231F20" stroke-miterlimit="10" d="M371.375,315.25h-12h-19.224
	c-2.888-12.507-13.007-13.99-25.958-14.125c-2.839-0.173-5.94-0.11-9.194-0.11c-3.454,0-6.739-0.072-9.719,0.144
	c-11.989,0.284-21.227,2.233-23.965,14.091h-18.69h-12c-12.219,0-10.125,9.906-10.125,22.125s-2.094,22.125,10.125,22.125h12H280.5
	v121.706c0,11.231,10.964,9.42,24.499,9.42c13.536,0,24.501,2.061,24.501-9.42V359.5h29.875h12c12.22,0,10.125-9.906,10.125-22.125
	S383.595,315.25,371.375,315.25z"/>
<path id="SECONDARY_9_" fill="#7CD5FF" stroke="#231F20" stroke-miterlimit="10" d="M317.614,304l-8.137,3.001
	c-0.997-1.437-2.628-2.377-4.477-2.377s-3.479,0.94-4.478,2.377L292.388,304c-3.195,0-5.786,2.811-5.786,6.277
	s2.591,6.277,5.786,6.277l8.325-2.741c0.801,1.024,1.943,1.75,3.248,2.007l-10.237,79.993l11.01,11.01l10.401-10.401l-9.044-80.61
	c1.284-0.267,2.407-0.987,3.197-1.999l8.326,2.741c3.195,0,5.785-2.811,5.785-6.277S320.81,304,317.614,304z"/>
</svg>
