<?xml version="1.0" encoding="utf-8"?>
<!-- Generator: Adobe Illustrator 16.0.0, SVG Export Plug-In . SVG Version: 6.00 Build 0)  -->
<svg version="1.1" id="Layer_1" xmlns="http://www.w3.org/2000/svg" xmlns:xlink="http://www.w3.org/1999/xlink" x="0px" y="0px"
	 width="612px" height="792px" viewBox="0 0 612 792" enable-background="new 0 0 612 792" xml:space="preserve">
<rect id="body_frame" x="259.066" y="224.9" fill-opacity="0" fill="#BBBCBE" width="200.305" height="256"/>
<path id="PRIMARY_2_" fill="#F77300" stroke="#231F20" stroke-width="1.3334" stroke-miterlimit="10" d="M445.94,244.67h-15.919
	h-25.5c-3.831-16.763-17.254-18.751-34.434-18.933c-3.767-0.231-7.881-0.148-12.197-0.148c-4.582,0-8.939-0.097-12.893,0.193
	c-15.903,0.381-28.156,2.994-31.79,18.887h-24.792h-15.918c-16.208,0-13.431,13.277-13.431,29.654s-2.778,29.655,13.431,29.655
	h15.918h36.977v163.124c0,15.055,14.544,12.627,32.498,12.627c17.956,0,32.501,2.76,32.501-12.627V303.979h39.63h15.919
	c16.21,0,13.431-13.277,13.431-29.655S462.15,244.67,445.94,244.67z"/>
<path id="SECONDARY_9_" fill="#7CD5FF" stroke="#231F20" stroke-width="1.3334" stroke-miterlimit="10" d="M374.625,229.592
	l-10.793,4.022c-1.323-1.926-3.486-3.186-5.939-3.186c-2.451,0-4.615,1.26-5.939,3.186l-10.791-4.022
	c-4.238,0-7.676,3.767-7.676,8.414c0,4.646,3.438,8.414,7.676,8.414l11.043-3.673c1.063,1.373,2.578,2.345,4.31,2.69
	l-13.581,107.217l14.604,14.757l13.798-13.942L359.34,245.424c1.703-0.358,3.192-1.323,4.241-2.678l11.044,3.673
	c4.239,0,7.675-3.767,7.675-8.414C382.3,233.358,378.864,229.592,374.625,229.592z"/>
</svg>
