<?xml version="1.0" encoding="utf-8"?>
<!-- Generator: Adobe Illustrator 16.0.0, SVG Export Plug-In . SVG Version: 6.00 Build 0)  -->
<svg version="1.1" id="Layer_1" xmlns="http://www.w3.org/2000/svg" xmlns:xlink="http://www.w3.org/1999/xlink" x="0px" y="0px"
	 width="612px" height="792px" viewBox="0 0 612 792" enable-background="new 0 0 612 792" xml:space="preserve">
<rect x="178" y="313.884" fill="#231F20" fill-opacity="0" width="256" height="164.907"/>
<path id="SECONDARY_8_" fill="#FFC18C" stroke="#231F20" stroke-width="3.0928" stroke-miterlimit="10" d="M370.123,365.577
	c0,28.697,2.766,51.96-60.444,51.96c-60.444,0-60.444-23.263-60.444-51.96c0-12.299,4.968-23.603,13.278-32.498
	c2.772-2.969,5.909-5.668,9.361-8.051c3.451-2.382,10.562,0.696,11.225-6.131c5.525,4.222,14.396,13.715,12.721-3.91
	c4.867,16.975,14.063,19.965,13.859-1.372c2.488,21.226,11.463,23.234,13.858,1.372c-0.587,22.093,6.509,7.865,12.722,3.91
	c0.417,6.114,7.775,3.749,11.226,6.131C361.287,334.55,370.123,349.174,370.123,365.577z"/>
</svg>
