<?xml version="1.0" encoding="utf-8"?>
<!-- Generator: Adobe Illustrator 16.0.0, SVG Export Plug-In . SVG Version: 6.00 Build 0)  -->
<svg version="1.1" id="Layer_1" xmlns="http://www.w3.org/2000/svg" xmlns:xlink="http://www.w3.org/1999/xlink" x="0px" y="0px"
	 width="612px" height="792px" viewBox="0 0 612 792" enable-background="new 0 0 612 792" xml:space="preserve">
<rect x="265.5" y="369.004" fill-opacity="0" fill="#231F20" width="81" height="54.487"/>
<path id="SECONDARY_13_" fill="#FFC18C" stroke="#231F20" stroke-miterlimit="10" d="M293.483,400.787l3.587-13.21
	c0.492-1.812-0.576-3.678-2.387-4.169c-1.811-0.492-3.678,0.576-4.17,2.388l-2.068,7.616
	C289.003,396.477,290.329,399.044,293.483,400.787z"/>
<path id="SECONDARY_12_" fill="#FFC18C" stroke="#231F20" stroke-miterlimit="10" d="M301.497,385.745
	c-1.863-0.22-3.552,1.111-3.772,2.976l-1.557,13.2c1.802,0.575,4.013,0.974,6.702,1.176l1.603-13.579
	C304.692,387.653,303.36,385.965,301.497,385.745z"/>
<path id="SECONDARY_11_" fill="#FFC18C" stroke="#231F20" stroke-miterlimit="10" d="M308.377,386.692
	c-1.873,0.103-3.309,1.704-3.205,3.578l0.717,12.965c0.419,0.008,0.837,0.017,1.275,0.017c2.056,0,3.88-0.086,5.518-0.241
	l-0.725-13.114C311.854,388.022,310.25,386.588,308.377,386.692z"/>
<path id="SECONDARY_10_" fill="#FFC18C" stroke="#231F20" stroke-miterlimit="10" d="M318.961,387.089
	c-0.552-1.795-2.453-2.802-4.246-2.25c-1.793,0.551-2.801,2.451-2.249,4.246l4.103,13.346c2.832-0.61,4.842-1.546,6.267-2.739
	L318.961,387.089z"/>
<path id="SECONDARY_9_" fill="#FFC18C" stroke="#231F20" stroke-miterlimit="10" d="M313.402,391.856
	c1.417,1.229,3.563,1.078,4.793-0.34l7.701-8.875c-0.553-2.437-1.675-4.687-3.244-6.629l-9.59,11.051
	C311.832,388.481,311.985,390.627,313.402,391.856z"/>
</svg>
