<?xml version="1.0" encoding="utf-8"?>
<!-- Generator: Adobe Illustrator 16.0.0, SVG Export Plug-In . SVG Version: 6.00 Build 0)  -->
<svg version="1.1" id="Layer_1" xmlns="http://www.w3.org/2000/svg" xmlns:xlink="http://www.w3.org/1999/xlink" x="0px" y="0px"
	 width="612px" height="792px" viewBox="0 0 612 792" enable-background="new 0 0 612 792" xml:space="preserve">
<rect x="178" y="310.248" fill="#231F20" fill-opacity="0" width="256" height="172"/>
<path id="SECONDARY_3_" fill="#FFC18C" stroke="#231F20" stroke-width="3.1586" stroke-miterlimit="10" d="M369.617,384.737
	c-1.117,10.732-4.608,19.744-15.259,25.72l1.753,6.434c9.966-5.502,14.157-13.609,15.92-23.28L369.617,384.737z"/>
<path id="SECONDARY_4_" fill="#FFC18C" stroke="#231F20" stroke-width="3.1586" stroke-miterlimit="10" d="M322.546,417.958
	l0.731,6.224c8.5-0.639,15.488-1.896,21.183-3.712l-0.686-5.792C338.04,416.293,331.05,417.409,322.546,417.958z"/>
<path id="SECONDARY_5_" fill="#FFC18C" stroke="#231F20" stroke-width="3.1586" stroke-miterlimit="10" d="M309.679,418.358
	c-6.339,0-11.978-0.28-17.054-0.796l-0.351,6.348c5.176,0.49,10.941,0.762,17.438,0.762c1.386,0,2.707-0.027,4.031-0.053
	l0.346-6.316C312.645,418.33,311.197,418.358,309.679,418.358z"/>
<path id="SECONDARY_6_" fill="#FFC18C" stroke="#231F20" stroke-width="3.1586" stroke-miterlimit="10" d="M261.961,407.646
	l-1.779,5.786c4.504,3.764,10.856,6.72,19.807,8.644l1.884-6.116C273.08,414.126,266.654,411.29,261.961,407.646z"/>
<path id="SECONDARY_7_" fill="#FFC18C" stroke="#231F20" stroke-width="3.1586" stroke-miterlimit="10" d="M257.869,336.32
	l-3.429-3.946c-4.958,6.13-8.505,13.232-10.253,20.925l5.286,6.082C250.287,350.989,253.273,343.172,257.869,336.32z"/>
</svg>
