<?xml version="1.0" encoding="utf-8"?>
<!-- Generator: Adobe Illustrator 16.0.0, SVG Export Plug-In . SVG Version: 6.00 Build 0)  -->
<svg version="1.1" id="Layer_1" xmlns="http://www.w3.org/2000/svg" xmlns:xlink="http://www.w3.org/1999/xlink" x="0px" y="0px"
	 width="612px" height="792px" viewBox="0 0 612 792" enable-background="new 0 0 612 792" xml:space="preserve">
<rect x="178" y="310.511" fill="#231F20" fill-opacity="0" width="256" height="171.665"/>
<path id="SECONDARY_2_" fill="#FFC18C" stroke="#231F20" stroke-width="3.1555" stroke-miterlimit="10" d="M249.253,364.322
	c0,29.873-2.765,54.089,60.444,54.089c60.444,0,60.444-24.216,60.444-54.089c0-12.804-4.969-24.57-13.277-33.83
	c-2.771-3.087-5.91-5.901-9.361-8.381c-3.45-2.479-10.562,0.725-11.226-6.382c-5.524,4.395-14.395,14.277-12.722-4.07
	c-4.867,17.671-14.062,20.783-13.858-1.428c-2.487,22.095-11.463,24.186-13.858,1.428c0.588,22.998-6.507,8.187-12.722,4.07
	c-0.417,6.364-7.774,3.903-11.225,6.382C258.089,332.023,249.253,347.247,249.253,364.322z"/>
</svg>
