<?xml version="1.0" encoding="utf-8"?>
<!-- Generator: Adobe Illustrator 16.0.0, SVG Export Plug-In . SVG Version: 6.00 Build 0)  -->
<svg version="1.1" id="Layer_1" xmlns="http://www.w3.org/2000/svg" xmlns:xlink="http://www.w3.org/1999/xlink" x="0px" y="0px"
	 width="612px" height="792px" viewBox="0 0 612 792" enable-background="new 0 0 612 792" xml:space="preserve">
<rect x="178" y="310.248" fill="#231F20" fill-opacity="0" width="256" height="172"/>
<path id="SECONDARY_55_" fill="#FFC18C" stroke="#231F20" stroke-width="3.1586" stroke-miterlimit="10" d="M367.466,390.223
	l10.8,39.711c1.553,5.719-1.827,11.606-7.553,13.157c-5.723,1.554-11.623-1.818-13.176-7.534L351,411.506
	C361.216,406.542,365.604,399.153,367.466,390.223z"/>
<path id="SECONDARY_54_" fill="#FFC18C" stroke="#231F20" stroke-width="3.1586" stroke-miterlimit="10" d="M343.957,414.246
	l3.867,32.714c0.697,5.879-3.513,11.212-9.407,11.902c-5.886,0.693-11.226-3.509-11.917-9.39l-3.741-31.629
	C331.306,417.218,338.287,415.994,343.957,414.246z"/>
<path id="SECONDARY_53_" fill="#FFC18C" stroke="#231F20" stroke-width="3.1586" stroke-miterlimit="10" d="M308.361,418.361
	c0.817,0,1.577-0.021,2.373-0.027l-1.873,33.805c-0.33,5.913-5.392,10.438-11.312,10.111c-5.92-0.33-10.458-5.379-10.129-11.295
	l1.858-33.604C294.863,418.007,301.174,418.361,308.361,418.361z"/>
<path id="SECONDARY_52_" fill="#FFC18C" stroke="#231F20" stroke-width="3.1586" stroke-miterlimit="10" d="M222.766,389.547
	L248.1,360.39c-0.096,1.25-0.184,2.503-0.184,3.774c0,9.732,0.016,18.858,2.09,26.753l-11.022,12.69
	c-3.884,4.473-10.669,4.951-15.145,1.066C219.358,400.793,218.878,394.021,222.766,389.547z"/>
<path id="SECONDARY_51_" fill="#FFC18C" stroke="#231F20" stroke-width="3.1586" stroke-miterlimit="10" d="M260.451,407.495
	c4.671,3.687,11.074,6.563,19.874,8.431L270.052,449.3c-1.744,5.663-7.75,8.844-13.417,7.1c-5.67-1.739-8.852-7.738-7.111-13.401
	L260.451,407.495z"/>
</svg>
