<?xml version="1.0" encoding="utf-8"?>
<!-- Generator: Adobe Illustrator 16.0.0, SVG Export Plug-In . SVG Version: 6.00 Build 0)  -->
<svg version="1.1" id="Layer_1" xmlns="http://www.w3.org/2000/svg" xmlns:xlink="http://www.w3.org/1999/xlink" x="0px" y="0px"
	 width="612px" height="792px" viewBox="0 0 612 792" enable-background="new 0 0 612 792" xml:space="preserve">
<rect x="178" y="310.248" fill="#231F20" fill-opacity="0" width="256" height="172"/>
<path id="SECONDARY_50_" fill="#FFC18C" stroke="#231F20" stroke-width="3.1586" stroke-miterlimit="10" d="M250.855,390.223
	l-10.799,39.711c-1.551,5.719,1.827,11.606,7.551,13.157c5.724,1.554,11.625-1.818,13.176-7.534l6.54-24.051
	C257.104,406.542,252.718,399.153,250.855,390.223z"/>
<path id="SECONDARY_49_" fill="#FFC18C" stroke="#231F20" stroke-width="3.1586" stroke-miterlimit="10" d="M274.364,414.246
	l-3.866,32.714c-0.699,5.879,3.511,11.212,9.406,11.902c5.884,0.693,11.225-3.509,11.918-9.39l3.739-31.629
	C287.016,417.218,280.034,415.994,274.364,414.246z"/>
<path id="SECONDARY_48_" fill="#FFC18C" stroke="#231F20" stroke-width="3.1586" stroke-miterlimit="10" d="M309.96,418.361
	c-0.818,0-1.577-0.021-2.374-0.027l1.874,33.805c0.33,5.913,5.392,10.438,11.312,10.111c5.92-0.33,10.46-5.379,10.13-11.295
	l-1.858-33.604C323.46,418.007,317.148,418.361,309.96,418.361z"/>
<path id="SECONDARY_47_" fill="#FFC18C" stroke="#231F20" stroke-width="3.1586" stroke-miterlimit="10" d="M395.556,389.547
	l-25.333-29.158c0.092,1.25,0.182,2.503,0.182,3.774c0,9.732-0.016,18.858-2.09,26.753l11.021,12.69
	c3.883,4.473,10.67,4.951,15.146,1.066C398.963,400.793,399.444,394.021,395.556,389.547z"/>
<path id="SECONDARY_46_" fill="#FFC18C" stroke="#231F20" stroke-width="3.1586" stroke-miterlimit="10" d="M357.87,407.495
	c-4.673,3.687-11.074,6.563-19.873,8.431l10.271,33.374c1.744,5.663,7.75,8.844,13.417,7.1c5.669-1.739,8.852-7.738,7.11-13.401
	L357.87,407.495z"/>
</svg>
