<?xml version="1.0" encoding="utf-8"?>
<!-- Generator: Adobe Illustrator 16.0.0, SVG Export Plug-In . SVG Version: 6.00 Build 0)  -->
<svg version="1.1" id="Layer_1" xmlns="http://www.w3.org/2000/svg" xmlns:xlink="http://www.w3.org/1999/xlink" x="0px" y="0px"
	 width="612px" height="792px" viewBox="0 0 612 792" enable-background="new 0 0 612 792" xml:space="preserve">
<rect x="265.5" y="369.004" fill-opacity="0" fill="#231F20" width="81" height="54.487"/>
<path id="SECONDARY_8_" fill="#FFC18C" stroke="#231F20" stroke-miterlimit="10" d="M326.289,386.084
	c0,9.482,0.875,17.168-19.125,17.168c-19.125,0-19.125-7.686-19.125-17.168c0-4.064,1.572-7.799,4.201-10.738
	c0.877-0.981,1.87-1.873,2.962-2.66s3.342,0.23,3.552-2.026c1.748,1.395,4.555,4.532,4.025-1.292c1.54,5.609,4.45,6.597,4.385-0.453
	c0.787,7.013,3.627,7.677,4.385,0.453c-0.186,7.3,2.059,2.599,4.025,1.292c0.132,2.02,2.46,1.239,3.552,2.026
	C323.493,375.832,326.289,380.664,326.289,386.084z"/>
</svg>
