<?xml version="1.0" encoding="utf-8"?>
<!-- Generator: Adobe Illustrator 16.0.0, SVG Export Plug-In . SVG Version: 6.00 Build 0)  -->
<svg version="1.1" id="Layer_1" xmlns="http://www.w3.org/2000/svg" xmlns:xlink="http://www.w3.org/1999/xlink" x="0px" y="0px"
	 width="612px" height="792px" viewBox="0 0 612 792" enable-background="new 0 0 612 792" xml:space="preserve">
<rect x="265.5" y="369.004" fill-opacity="0" fill="#231F20" width="81" height="54.487"/>
<path id="SECONDARY_55_" fill="#FFC18C" stroke="#231F20" stroke-miterlimit="10" d="M325.448,394.339l3.417,12.58
	c0.491,1.811-0.578,3.677-2.389,4.168c-1.811,0.492-3.678-0.576-4.169-2.387l-2.069-7.619
	C323.471,399.509,324.859,397.168,325.448,394.339z"/>
<path id="SECONDARY_54_" fill="#FFC18C" stroke="#231F20" stroke-miterlimit="10" d="M318.01,401.949l1.223,10.363
	c0.221,1.863-1.111,3.552-2.976,3.771c-1.862,0.22-3.552-1.111-3.771-2.975l-1.183-10.019
	C314.007,402.891,316.216,402.503,318.01,401.949z"/>
<path id="SECONDARY_53_" fill="#FFC18C" stroke="#231F20" stroke-miterlimit="10" d="M306.747,403.253
	c0.259,0,0.499-0.007,0.751-0.009l-0.593,10.709c-0.104,1.873-1.706,3.307-3.579,3.203s-3.309-1.704-3.205-3.578l0.588-10.645
	C302.476,403.141,304.473,403.253,306.747,403.253z"/>
<path id="SECONDARY_52_" fill="#FFC18C" stroke="#231F20" stroke-miterlimit="10" d="M279.664,394.125l8.016-9.237
	c-0.03,0.396-0.058,0.793-0.058,1.196c0,3.083,0.005,5.974,0.661,8.475l-3.487,4.02c-1.229,1.417-3.376,1.568-4.792,0.338
	C278.586,397.688,278.434,395.542,279.664,394.125z"/>
<path id="SECONDARY_51_" fill="#FFC18C" stroke="#231F20" stroke-miterlimit="10" d="M291.588,399.811
	c1.478,1.168,3.504,2.079,6.288,2.67l-3.25,10.573c-0.552,1.794-2.452,2.801-4.245,2.249c-1.794-0.551-2.801-2.451-2.25-4.245
	L291.588,399.811z"/>
</svg>
