<?xml version="1.0" encoding="utf-8"?>
<!-- Generator: Adobe Illustrator 16.0.0, SVG Export Plug-In . SVG Version: 6.00 Build 0)  -->
<svg version="1.1" id="Layer_1" xmlns="http://www.w3.org/2000/svg" xmlns:xlink="http://www.w3.org/1999/xlink" x="0px" y="0px"
	 width="612px" height="792px" viewBox="0 0 612 792" enable-background="new 0 0 612 792" xml:space="preserve">
<rect x="178" y="310.248" fill="#231F20" fill-opacity="0" width="256" height="172"/>
<path id="SECONDARY_13_" fill="#FFC18C" stroke="#231F20" stroke-width="3.1586" stroke-miterlimit="10" d="M266.44,410.578
	l11.336-41.7c1.556-5.72-1.819-11.611-7.543-13.16c-5.724-1.554-11.625,1.817-13.179,7.537l-6.537,24.042
	C252.281,396.971,256.472,405.075,266.44,410.578z"/>
<path id="SECONDARY_12_" fill="#FFC18C" stroke="#231F20" stroke-width="3.1586" stroke-miterlimit="10" d="M291.769,363.095
	c-5.889-0.695-11.227,3.506-11.921,9.395l-4.921,41.667c5.696,1.816,12.684,3.074,21.182,3.712l5.066-42.863
	C301.866,369.117,297.656,363.788,291.769,363.095z"/>
<path id="SECONDARY_11_" fill="#FFC18C" stroke="#231F20" stroke-width="3.1586" stroke-miterlimit="10" d="M313.513,366.083
	c-5.92,0.325-10.458,5.38-10.13,11.295l2.267,40.927c1.323,0.024,2.644,0.053,4.029,0.053c6.497,0,12.263-0.271,17.438-0.762
	l-2.29-41.396C324.5,370.282,319.432,365.755,313.513,366.083z"/>
<path id="SECONDARY_10_" fill="#FFC18C" stroke="#231F20" stroke-width="3.1586" stroke-miterlimit="10" d="M346.963,367.336
	c-1.744-5.666-7.753-8.844-13.42-7.103c-5.666,1.74-8.852,7.738-7.107,13.404l12.969,42.128c8.95-1.924,15.303-4.88,19.806-8.644
	L346.963,367.336z"/>
<path id="SECONDARY_9_" fill="#FFC18C" stroke="#231F20" stroke-width="3.1586" stroke-miterlimit="10" d="M329.395,382.385
	c4.479,3.879,11.26,3.403,15.148-1.073l24.34-28.016c-1.75-7.692-5.297-14.795-10.253-20.925l-30.309,34.884
	C324.432,371.731,324.917,378.505,329.395,382.385z"/>
</svg>
