<?xml version="1.0" encoding="utf-8"?>
<!-- Generator: Adobe Illustrator 16.0.0, SVG Export Plug-In . SVG Version: 6.00 Build 0)  -->
<svg version="1.1" id="Layer_1" xmlns="http://www.w3.org/2000/svg" xmlns:xlink="http://www.w3.org/1999/xlink" x="0px" y="0px"
	 width="612px" height="792px" viewBox="0 0 612 792" enable-background="new 0 0 612 792" xml:space="preserve">
<rect id="body_frame_1_" x="231.5" y="300.5" fill-opacity="0" fill="#BBBCBE" width="151" height="191"/>
<path id="PRIMARY_7_" fill="#F1F1F1" stroke="#231F20" stroke-miterlimit="10" d="M318.066,400.58
	c4.266,12.387-8.176,20.232-11.832,7.68c3.656,12.553-9.381,19.266-9.961,7.137c0.58,12.129-6.121,19.088-8.303,6.646
	c2.182,12.442-4.393,18.879-6.855,6.202c2.463,12.677-4.165,18.666-5.618,5.812c1.453,12.854-1.453,17.528-4.592,5.468
	c3.139,12.061,0.405,16.535-3.776,5.174c4.181,11.361,1.174,16.396-3.17,4.932c4.344,11.465,2.145,16.295-2.776,4.736
	c4.92,11.559,4.118,15.092-2.592,4.594c6.71,10.498,5.217,15.086-2.618,4.498c7.834,10.588,3.878,16.324-2.856,4.455
	c6.733,11.871-0.495,17.91-3.303,4.457c2.806,13.457-4.8,16.564-3.274,2.863c-1.526,13.701-2.618,14.059-2.847,0.104
	c0.217,13.951-1.303,0.479-2.423-2.361c-0.737-1.162-1.405-2.688-2.002-4.525c-4.778-14.693-5.088-49.332-1.154-78.611
	c5.901-43.919,28.583-77.119,50.66-74.152c16.982,2.282,47.449,37.459,43.469,64.21c-0.4,2.675-1.143,5.266-2.275,7.731
	c-1.477,2.898-1.674,19.715-4.631,6.978C328.295,407.342,322.332,412.967,318.066,400.58z"/>
<path id="PRIMARY_8_" fill="#F1F1F1" stroke="#231F20" stroke-miterlimit="10" d="M241.445,409.701
	c10.892,2.328,12.1-5.912,1.58-9.869c10.835,2.581,6.872-4.937,2.026-9.533c6.043,0.858,7.269-5.456,2.443-9.156
	c6.453,0.053,7.88-4.851,2.832-8.739c6.581,0.506,9.094-3.718,3.191-8.278c7.297,1.834,10.996-2.725,3.521-7.779
	c8.586,3.131,12.188-1.271,3.822-7.238c9.186,4.663,12.742,1.033,4.094-6.655c9.245,6.942,13.015,2.745,4.338-6.032
	c9.082,8.292,11.677,4.222,4.55-5.367c7.773,9.138,11.424,5.35,4.736-4.661c7.113,9.631,8.686,5.805,4.891-3.913
	c4.66,9.099,4.012,1.304,5.018-3.126c1.553,3.015,3.398-1.673,5.117-2.295c-0.848-0.349-1.676-0.64-2.482-0.871
	c-0.807-0.23-1.59-0.399-2.346-0.501c-22.078-2.966-44.759,30.233-50.661,74.152c-4.187,31.158-3.565,68.379,2.131,81.178
	c0.633,1.422,1.329,2.543,2.087,3.318c0.758,0.779,3.296,0.844,2.465,1.262c1.128-2.219,0.054-4.533-1.577-6.332
	c0.85-2.234,0.819-4.969-1.297-6.637c1.51-2.363,2.651-5.836-1.009-6.92c3.414-2.631,6.306-6.375-0.71-7.174
	c6.91-1.852,7.851-6.719-0.404-7.406c8.302-1.572,10.704-6.643-0.086-7.612c10.866-0.271,11.907-5.477,0.239-7.792
	c11.761,1.553,11.846-4.352,0.574-7.946C251.932,420.533,252.082,413.352,241.445,409.701z"/>
<path fill-opacity="0.3" stroke="#231F20" stroke-miterlimit="10" d="M241.445,409.701c10.892,2.328,12.1-5.912,1.58-9.869
	c10.835,2.581,6.872-4.937,2.026-9.533c6.043,0.858,7.269-5.456,2.443-9.156c6.453,0.053,7.88-4.851,2.832-8.739
	c6.581,0.506,9.094-3.718,3.191-8.278c7.297,1.834,10.996-2.725,3.521-7.779c8.586,3.131,12.188-1.271,3.822-7.238
	c9.186,4.663,12.742,1.033,4.094-6.655c9.245,6.942,13.015,2.745,4.338-6.032c9.082,8.292,11.677,4.222,4.55-5.367
	c7.773,9.138,11.424,5.35,4.736-4.661c7.113,9.631,8.686,5.805,4.891-3.913c4.66,9.099,4.012,1.304,5.018-3.126
	c1.553,3.015,3.398-1.673,5.117-2.295c-0.848-0.349-1.676-0.64-2.482-0.871c-0.807-0.23-1.59-0.399-2.346-0.501
	c-22.078-2.966-44.759,30.233-50.661,74.152c-4.187,31.158-3.565,68.379,2.131,81.178c0.633,1.422,1.329,2.543,2.087,3.318
	c0.758,0.779,3.296,0.844,2.465,1.262c1.128-2.219,0.054-4.533-1.577-6.332c0.85-2.234,0.819-4.969-1.297-6.637
	c1.51-2.363,2.651-5.836-1.009-6.92c3.414-2.631,6.306-6.375-0.71-7.174c6.91-1.852,7.851-6.719-0.404-7.406
	c8.302-1.572,10.704-6.643-0.086-7.612c10.866-0.271,11.907-5.477,0.239-7.792c11.761,1.553,11.846-4.352,0.574-7.946
	C251.932,420.533,252.082,413.352,241.445,409.701z"/>
<path id="PRIMARY_10_" fill="#F1F1F1" stroke="#231F20" stroke-miterlimit="10" d="M296.842,400.58
	c-4.266,12.387,8.176,20.232,11.832,7.68c-3.656,12.553,9.381,19.266,9.961,7.137c-0.58,12.129,6.121,19.088,8.303,6.646
	c-2.182,12.442,4.393,18.878,6.855,6.202c-2.463,12.676,4.164,18.666,5.617,5.811c-1.453,12.855,1.453,17.527,4.592,5.469
	c-3.139,12.059-0.405,16.535,3.775,5.174c-4.181,11.361-1.174,16.396,3.17,4.93c-4.344,11.467-2.145,16.297,2.776,4.736
	c-4.921,11.561-4.118,15.094,2.592,4.596c-6.71,10.498-5.218,15.086,2.618,4.498c-7.835,10.588-3.879,16.324,2.855,4.455
	c-6.732,11.871,0.495,17.91,3.303,4.457c-2.806,13.457,4.801,16.564,3.275,2.863c1.525,13.701,2.617,14.059,2.847,0.104
	c-0.217,13.951,1.303,0.479,2.423-2.361c0.737-1.162,1.404-2.688,2.002-4.525c4.778-14.695,5.088-49.332,1.154-78.611
	c-5.901-43.919-28.583-77.119-50.66-74.152c-16.982,2.282-47.449,37.459-43.469,64.21c0.4,2.675,1.143,5.266,2.275,7.731
	c1.477,2.898,1.674,19.715,4.631,6.978C286.613,407.342,292.576,412.967,296.842,400.58z"/>
<path id="PRIMARY_9_" fill="#F1F1F1" stroke="#231F20" stroke-miterlimit="10" d="M373.463,409.701
	c-10.892,2.328-12.1-5.912-1.58-9.869c-10.836,2.581-6.872-4.937-2.025-9.533c-6.043,0.858-7.27-5.456-2.443-9.156
	c-6.453,0.053-7.881-4.851-2.832-8.739c-6.581,0.506-9.094-3.718-3.191-8.278c-7.297,1.834-10.996-2.725-3.521-7.779
	c-8.586,3.131-12.188-1.271-3.822-7.238c-9.186,4.663-12.742,1.033-4.094-6.655c-9.245,6.942-13.015,2.745-4.338-6.032
	c-9.081,8.292-11.677,4.222-4.55-5.367c-7.773,9.138-11.424,5.35-4.736-4.661c-7.113,9.631-8.686,5.805-4.891-3.913
	c-4.66,9.099-4.012,1.304-5.018-3.126c-1.553,3.015-3.398-1.673-5.117-2.295c0.848-0.349,1.676-0.64,2.482-0.871
	c0.807-0.23,1.59-0.399,2.346-0.501c22.078-2.966,44.759,30.233,50.66,74.152c4.187,31.158,3.565,68.379-2.131,81.178
	c-0.633,1.422-1.328,2.543-2.088,3.318c-0.758,0.779-3.296,0.844-2.465,1.262c-1.129-2.219-0.054-4.533,1.577-6.332
	c-0.85-2.234-0.819-4.969,1.297-6.637c-1.51-2.363-2.651-5.836,1.009-6.92c-3.414-2.633-6.306-6.377,0.711-7.176
	c-6.91-1.85-7.852-6.717,0.403-7.404c-8.302-1.572-10.704-6.643,0.087-7.613c-10.867-0.27-11.908-5.477-0.239-7.791
	c-11.761,1.553-11.847-4.352-0.573-7.946C362.976,420.533,362.826,413.352,373.463,409.701z"/>
<path fill-opacity="0.3" stroke="#231F20" stroke-miterlimit="10" d="M373.463,409.701c-10.892,2.328-12.1-5.912-1.58-9.869
	c-10.836,2.581-6.872-4.937-2.025-9.533c-6.043,0.858-7.27-5.456-2.443-9.156c-6.453,0.053-7.881-4.851-2.832-8.739
	c-6.581,0.506-9.094-3.718-3.191-8.278c-7.297,1.834-10.996-2.725-3.521-7.779c-8.586,3.131-12.188-1.271-3.822-7.238
	c-9.186,4.663-12.742,1.033-4.094-6.655c-9.245,6.942-13.015,2.745-4.338-6.032c-9.081,8.292-11.677,4.222-4.55-5.367
	c-7.773,9.138-11.424,5.35-4.736-4.661c-7.113,9.631-8.686,5.805-4.891-3.913c-4.66,9.099-4.012,1.304-5.018-3.126
	c-1.553,3.015-3.398-1.673-5.117-2.295c0.848-0.349,1.676-0.64,2.482-0.871c0.807-0.23,1.59-0.399,2.346-0.501
	c22.078-2.966,44.759,30.233,50.66,74.152c4.187,31.158,3.565,68.379-2.131,81.178c-0.633,1.422-1.328,2.543-2.088,3.318
	c-0.758,0.779-3.296,0.844-2.465,1.262c-1.129-2.219-0.054-4.533,1.577-6.332c-0.85-2.234-0.819-4.969,1.297-6.637
	c-1.51-2.363-2.651-5.836,1.009-6.92c-3.414-2.633-6.306-6.377,0.711-7.176c-6.91-1.85-7.852-6.717,0.403-7.404
	c-8.302-1.572-10.704-6.643,0.087-7.613c-10.867-0.27-11.908-5.477-0.239-7.791c-11.761,1.553-11.847-4.352-0.573-7.946
	C362.976,420.533,362.826,413.352,373.463,409.701z"/>
<path id="SECONDARY" fill="#894000" stroke="#231F20" stroke-miterlimit="10" d="M337.407,465.188
	c0,29.774,0.015,24.768-16.548,24.768h-30.013c-17.421,0-17.421,5.007-17.421-24.768l-13.073-125.766
	c0-16.445,13.653-29.776,30.494-29.776h30.013c16.845,0,30.493,13.332,30.493,29.776L337.407,465.188z"/>
<path id="PRIMARY_11_" fill="#F1F1F1" stroke="#231F20" stroke-miterlimit="10" d="M375.888,336.003
	c5.997,9.769,4.922,17.11-0.775,6.889c5.697,10.222,4.222,16.057-2.208,6.325c6.43,9.732,5.217,14.477-3.469,5.579
	c8.685,8.898,6.305,9.613-4.547,4.653c6.486,10.162-2.764,8.302-5.455,3.547c0.481,3.436,1.441,14.505-6.181,2.26
	c0.165,11.411-4.318,11.603-6.735,0.794c2.398,10.811-0.135,10.661-2.158,0c1.979,10.662-5.238,10.331-5.86,0
	c0.446,10.341-8.758,10.393-8.635,0c-0.248,10.405-10.861,10.508-10.485,0c-0.437,10.512-12.495,10.782-11.41,0
	c-1.272,10.797-11.871,11.304-11.412,0c-0.679,11.349-10.054,11.837-10.485,0c0.428,11.838-8.705,11.949-8.634,0
	c-0.071,11.949-5.423,11.253-5.859,0c0.437,11.253-2.543,10.892-2.159,0c-0.384,10.892-6.728,10.152-6.734-0.794
	c0.007,10.946-0.065,7.579-6.183-2.26c6.118,9.839-2.042,7.83-5.453-3.547c3.41,11.377-2.92,6.222-4.548-4.653
	c1.628,10.875-1.795,5.318-3.468-5.579c1.672,10.897-5.458,4.445-2.209-6.325c-3.248,10.77-11.348-1.25-0.775-6.889
	c-10.572,5.639-10.888,4.696,0-0.501c-10.888,5.197-10.699-1.572,0.775-6.889c-11.474,5.317-7.018,1.165,2.209-6.324
	c-9.228,7.489-8.925-3.427,3.468-5.579c-12.372,2.122,2.269-8.354,4.548-4.653c0.125-5.431,2.885-8.637,5.453-3.547
	c-1.802-5.474,2.634-6.56,6.183-2.261c-3.118-4.407,2.845-5.178,6.734-0.793c-3.724-4.384-1.572-4.53,2.159,0
	c-3.523-4.532,2.172-4.738,5.859,0c-3.305-4.745,5.009-4.718,8.634,0c-3.188-4.727,6.205-4.747,10.485,0
	c-3.834-4.762,7.223-4.842,11.412,0c-3.841-4.851,6.797-5.043,11.41,0c-4.386-5.052,5.437-5.562,10.485,0
	c-4.871-5.566,3.633-6.498,8.635,0c-4.818-6.5,1.005-7.25,5.86,0c-4.671-7.25-2.467-7.487,2.158,0
	c-4.414-7.487,16.837-4.047,6.735,0.793c10.102-4.841,10.856-7.894,6.181,2.261c4.676-10.155,17.355,3.383,5.455,3.547
	c11.9-0.164,15.917,5.851,4.547,4.653c11.37,1.198,14.835,10.53,3.469,5.579c11.366,4.951,9.486,15.463,2.208,6.324
	c7.278,9.139,6.772,16.637,0.775,6.889C381.885,345.25,381.885,345.771,375.888,336.003z"/>
</svg>
