<?xml version="1.0" encoding="utf-8"?>
<!-- Generator: Adobe Illustrator 16.0.0, SVG Export Plug-In . SVG Version: 6.00 Build 0)  -->
<svg version="1.1" id="Layer_1" xmlns="http://www.w3.org/2000/svg" xmlns:xlink="http://www.w3.org/1999/xlink" x="0px" y="0px"
	 width="612px" height="792px" viewBox="0 0 612 792" enable-background="new 0 0 612 792" xml:space="preserve">
<rect id="body_frame_1_" x="206" y="268.765" fill="#BBBCBE" fill-opacity="0" width="202" height="254.661"/>
<path id="PRIMARY_7_" fill="#F1F1F1" stroke="#231F20" stroke-width="1.3355" stroke-miterlimit="10" d="M321.804,402.202
	c5.707,16.515-10.938,26.975-15.828,10.239c4.89,16.736-12.55,25.688-13.326,9.515c0.776,16.173-8.188,25.452-11.107,8.862
	c2.918,16.59-5.877,25.171-9.17,8.27c3.295,16.901-5.572,24.887-7.516,7.748c1.944,17.139-1.944,23.371-6.143,7.292
	c4.199,16.08,0.542,22.045-5.051,6.897c5.593,15.147,1.57,21.86-4.241,6.576c5.811,15.286,2.87,21.726-3.713,6.314
	c6.582,15.411,5.508,20.122-3.468,6.125c8.976,13.997,6.979,20.114-3.502,5.997c10.48,14.117,5.188,21.766-3.82,5.94
	c9.007,15.827-0.663,23.879-4.419,5.942c3.754,17.942-6.421,22.084-4.38,3.817c-2.041,18.267-3.502,18.744-3.809,0.138
	c0.291,18.602-1.743,0.64-3.241-3.147c-0.986-1.549-1.88-3.584-2.678-6.033c-6.392-19.59-6.806-65.774-1.544-104.812
	c7.895-58.557,38.237-102.823,67.771-98.867c22.717,3.042,63.475,49.944,58.15,85.611c-0.535,3.566-1.529,7.021-3.044,10.308
	c-1.975,3.864-2.238,26.286-6.194,9.304C335.487,411.217,327.511,418.717,321.804,402.202z"/>
<path id="PRIMARY_8_" fill="#F1F1F1" stroke="#231F20" stroke-width="1.3355" stroke-miterlimit="10" d="M219.304,414.363
	c14.571,3.104,16.187-7.883,2.114-13.159c14.495,3.441,9.193-6.582,2.71-12.71c8.084,1.145,9.724-7.274,3.269-12.208
	c8.632,0.07,10.542-6.468,3.789-11.652c8.804,0.675,12.165-4.957,4.269-11.037c9.762,2.445,14.71-3.634,4.71-10.372
	c11.486,4.174,16.304-1.695,5.113-9.651c12.289,6.217,17.045,1.377,5.477-8.873c12.368,9.256,17.411,3.66,5.803-8.042
	c12.149,11.056,15.621,5.629,6.086-7.156c10.399,12.184,15.283,7.133,6.336-6.214c9.515,12.841,11.62,7.739,6.542-5.217
	c6.234,12.132,5.368,1.739,6.713-4.168c2.078,4.02,4.546-2.23,6.846-3.06c-1.135-0.465-2.243-0.854-3.32-1.161
	c-1.08-0.307-2.127-0.532-3.139-0.668c-29.535-3.955-59.876,40.31-67.772,98.867c-5.601,41.543-4.769,91.17,2.852,108.234
	c0.847,1.896,1.778,3.391,2.792,4.425c1.014,1.038,4.409,1.124,3.297,1.682c1.509-2.958,0.073-6.044-2.109-8.442
	c1.136-2.978,1.095-6.625-1.736-8.849c2.021-3.151,3.547-7.781-1.35-9.227c4.567-3.508,8.437-8.5-0.95-9.564
	c9.244-2.471,10.503-8.958-0.541-9.875c11.106-2.097,14.319-8.856-0.115-10.149c14.537-0.36,15.929-7.302,0.32-10.39
	c15.733,2.072,15.847-5.802,0.768-10.593C233.333,428.806,233.534,419.23,219.304,414.363z"/>
<path fill-opacity="0.3" stroke="#231F20" stroke-width="1.3355" stroke-miterlimit="10" d="M219.304,414.363
	c14.571,3.104,16.187-7.883,2.114-13.159c14.495,3.441,9.193-6.582,2.71-12.71c8.084,1.145,9.724-7.274,3.269-12.208
	c8.632,0.07,10.542-6.468,3.789-11.652c8.804,0.675,12.165-4.957,4.269-11.037c9.762,2.445,14.71-3.634,4.71-10.372
	c11.486,4.174,16.304-1.695,5.113-9.651c12.289,6.217,17.045,1.377,5.477-8.873c12.368,9.256,17.411,3.66,5.803-8.042
	c12.149,11.056,15.621,5.629,6.086-7.156c10.399,12.184,15.283,7.133,6.336-6.214c9.515,12.841,11.62,7.739,6.542-5.217
	c6.234,12.132,5.368,1.739,6.713-4.168c2.078,4.02,4.546-2.23,6.846-3.06c-1.135-0.465-2.243-0.854-3.32-1.161
	c-1.08-0.307-2.127-0.532-3.139-0.668c-29.535-3.955-59.876,40.31-67.772,98.867c-5.601,41.543-4.769,91.17,2.852,108.234
	c0.847,1.896,1.778,3.391,2.792,4.425c1.014,1.038,4.409,1.124,3.297,1.682c1.509-2.958,0.073-6.044-2.109-8.442
	c1.136-2.978,1.095-6.625-1.736-8.849c2.021-3.151,3.547-7.781-1.35-9.227c4.567-3.508,8.437-8.5-0.95-9.564
	c9.244-2.471,10.503-8.958-0.541-9.875c11.106-2.097,14.319-8.856-0.115-10.149c14.537-0.36,15.929-7.302,0.32-10.39
	c15.733,2.072,15.847-5.802,0.768-10.593C233.333,428.806,233.534,419.23,219.304,414.363z"/>
<path id="PRIMARY_10_" fill="#F1F1F1" stroke="#231F20" stroke-width="1.3355" stroke-miterlimit="10" d="M293.411,402.202
	c-5.707,16.515,10.938,26.975,15.828,10.239c-4.891,16.736,12.549,25.688,13.325,9.515c-0.776,16.173,8.188,25.452,11.108,8.862
	c-2.92,16.59,5.876,25.17,9.169,8.27c-3.294,16.9,5.571,24.887,7.515,7.747c-1.943,17.14,1.944,23.369,6.143,7.293
	c-4.198,16.077-0.542,22.045,5.051,6.897c-5.594,15.147-1.57,21.86,4.24,6.573c-5.811,15.289-2.87,21.729,3.713,6.315
	c-6.583,15.413-5.508,20.124,3.469,6.127c-8.977,13.997-6.981,20.114,3.501,5.997c-10.481,14.117-5.188,21.766,3.82,5.94
	c-9.007,15.827,0.662,23.879,4.418,5.942c-3.753,17.942,6.424,22.084,4.382,3.817c2.039,18.267,3.501,18.744,3.808,0.138
	c-0.29,18.602,1.743,0.64,3.241-3.147c0.986-1.549,1.879-3.584,2.679-6.033c6.392-19.593,6.808-65.774,1.544-104.812
	c-7.895-58.557-38.237-102.823-67.771-98.867c-22.717,3.042-63.475,49.944-58.15,85.611c0.535,3.566,1.529,7.021,3.043,10.308
	c1.976,3.864,2.24,26.286,6.196,9.304C279.727,411.217,287.705,418.717,293.411,402.202z"/>
<path id="PRIMARY_9_" fill="#F1F1F1" stroke="#231F20" stroke-width="1.3355" stroke-miterlimit="10" d="M395.91,414.363
	c-14.569,3.104-16.186-7.883-2.113-13.159c-14.496,3.441-9.193-6.582-2.708-12.71c-8.084,1.145-9.727-7.274-3.269-12.208
	c-8.633,0.07-10.543-6.468-3.789-11.652c-8.804,0.675-12.165-4.957-4.269-11.037c-9.762,2.445-14.709-3.634-4.71-10.372
	c-11.486,4.174-16.305-1.695-5.113-9.651c-12.288,6.217-17.046,1.377-5.477-8.873c-12.367,9.256-17.41,3.66-5.803-8.042
	c-12.148,11.056-15.621,5.629-6.087-7.156c-10.398,12.184-15.283,7.133-6.336-6.214c-9.516,12.841-11.619,7.739-6.542-5.217
	c-6.234,12.132-5.368,1.739-6.714-4.168c-2.077,4.02-4.545-2.23-6.846-3.06c1.136-0.465,2.243-0.854,3.321-1.161
	c1.079-0.307,2.127-0.532,3.138-0.668c29.535-3.955,59.876,40.31,67.771,98.867c5.602,41.543,4.77,91.17-2.851,108.234
	c-0.847,1.896-1.776,3.391-2.793,4.425c-1.014,1.038-4.409,1.124-3.297,1.682c-1.511-2.958-0.073-6.044,2.108-8.442
	c-1.137-2.978-1.095-6.625,1.736-8.849c-2.021-3.151-3.547-7.781,1.35-9.227c-4.567-3.51-8.438-8.502,0.95-9.567
	c-9.243-2.468-10.504-8.955,0.54-9.872c-11.107-2.097-14.319-8.856,0.116-10.15c-14.538-0.359-15.931-7.303-0.32-10.389
	c-15.732,2.072-15.848-5.802-0.767-10.593C381.881,428.806,381.682,419.23,395.91,414.363z"/>
<path fill-opacity="0.3" stroke="#231F20" stroke-width="1.3355" stroke-miterlimit="10" d="M395.91,414.363
	c-14.569,3.104-16.186-7.883-2.113-13.159c-14.496,3.441-9.193-6.582-2.708-12.71c-8.084,1.145-9.727-7.274-3.269-12.208
	c-8.633,0.07-10.543-6.468-3.789-11.652c-8.804,0.675-12.165-4.957-4.269-11.037c-9.762,2.445-14.709-3.634-4.71-10.372
	c-11.486,4.174-16.305-1.695-5.113-9.651c-12.288,6.217-17.046,1.377-5.477-8.873c-12.367,9.256-17.41,3.66-5.803-8.042
	c-12.148,11.056-15.621,5.629-6.087-7.156c-10.398,12.184-15.283,7.133-6.336-6.214c-9.516,12.841-11.619,7.739-6.542-5.217
	c-6.234,12.132-5.368,1.739-6.714-4.168c-2.077,4.02-4.545-2.23-6.846-3.06c1.136-0.465,2.243-0.854,3.321-1.161
	c1.079-0.307,2.127-0.532,3.138-0.668c29.535-3.955,59.876,40.31,67.771,98.867c5.602,41.543,4.77,91.17-2.851,108.234
	c-0.847,1.896-1.776,3.391-2.793,4.425c-1.014,1.038-4.409,1.124-3.297,1.682c-1.511-2.958-0.073-6.044,2.108-8.442
	c-1.137-2.978-1.095-6.625,1.736-8.849c-2.021-3.151-3.547-7.781,1.35-9.227c-4.567-3.51-8.438-8.502,0.95-9.567
	c-9.243-2.468-10.504-8.955,0.54-9.872c-11.107-2.097-14.319-8.856,0.116-10.15c-14.538-0.359-15.931-7.303-0.32-10.389
	c-15.732,2.072-15.848-5.802-0.767-10.593C381.881,428.806,381.682,419.23,395.91,414.363z"/>
<path id="SECONDARY" fill="#894000" stroke="#231F20" stroke-width="1.3355" stroke-miterlimit="10" d="M347.677,488.343
	c0,39.698,0.021,33.024-22.137,33.024h-40.15c-23.305,0-23.305,6.676-23.305-33.024L244.597,320.66
	c0-21.926,18.264-39.7,40.793-39.7h40.15c22.534,0,40.791,17.775,40.791,39.7L347.677,488.343z"/>
<path id="PRIMARY_11_" fill="#F1F1F1" stroke="#231F20" stroke-width="1.3355" stroke-miterlimit="10" d="M399.154,316.101
	c8.022,13.025,6.584,22.813-1.036,9.185c7.62,13.629,5.647,21.409-2.953,8.433c8.601,12.976,6.979,19.302-4.642,7.438
	c11.619,11.864,8.435,12.817-6.083,6.204c8.677,13.549-3.697,11.069-7.298,4.729c0.645,4.582,1.929,19.339-8.268,3.013
	c0.221,15.214-5.777,15.47-9.011,1.059c3.209,14.414-0.18,14.214-2.886,0c2.647,14.216-7.007,13.774-7.84,0
	c0.598,13.788-11.715,13.857-11.551,0c-0.332,13.873-14.529,14.011-14.026,0c-0.584,14.016-16.716,14.376-15.265,0
	c-1.7,14.396-15.879,15.072-15.266,0c-0.909,15.132-13.45,15.783-14.026,0c0.572,15.784-11.646,15.932-11.551,0
	c-0.095,15.932-7.254,15.004-7.837,0c0.584,15.004-3.402,14.522-2.889,0c-0.513,14.522-9,13.536-9.008-1.059
	c0.009,14.595-0.087,10.105-8.271-3.013c8.185,13.118-2.731,10.44-7.294-4.729c4.561,15.169-3.907,8.295-6.084-6.204
	c2.178,14.5-2.401,7.091-4.639-7.438c2.236,14.529-7.301,5.927-2.955-8.433c-4.345,14.36-15.181-1.667-1.037-9.185
	c-14.143,7.519-14.565,6.261,0-0.668c-14.565,6.929-14.313-2.096,1.037-9.186c-15.35,7.09-9.388,1.554,2.955-8.431
	c-12.345,9.985-11.94-4.57,4.639-7.439c-16.551,2.83,3.035-11.138,6.084-6.204c0.167-7.241,3.859-11.516,7.294-4.729
	c-2.41-7.298,3.524-8.746,8.271-3.014c-4.171-5.876,3.806-6.904,9.008-1.057c-4.981-5.846-2.103-6.041,2.889,0
	c-4.713-6.043,2.905-6.318,7.837,0c-4.42-6.327,6.701-6.291,11.551,0c-4.265-6.303,8.301-6.33,14.026,0
	c-5.129-6.35,9.663-6.457,15.266,0c-5.138-6.468,9.093-6.724,15.265,0c-5.867-6.736,7.273-7.416,14.026,0
	c-6.517-7.421,4.859-8.664,11.551,0c-6.445-8.667,1.345-9.667,7.84,0c-6.248-9.667-3.301-9.983,2.886,0
	c-5.903-9.983,22.525-5.396,9.011,1.057c13.515-6.455,14.523-10.525,8.268,3.014c6.257-13.54,23.218,4.511,7.298,4.729
	c15.92-0.219,21.293,7.801,6.083,6.204c15.21,1.598,19.847,14.04,4.642,7.439c15.205,6.601,12.688,20.617,2.953,8.431
	c9.735,12.186,9.059,22.183,1.036,9.186C407.177,328.43,407.177,329.125,399.154,316.101z"/>
</svg>
