<?xml version="1.0" encoding="utf-8"?>
<!-- Generator: Adobe Illustrator 16.0.0, SVG Export Plug-In . SVG Version: 6.00 Build 0)  -->
<svg version="1.1" id="Layer_1" xmlns="http://www.w3.org/2000/svg" xmlns:xlink="http://www.w3.org/1999/xlink" x="0px" y="0px"
	 width="612px" height="792px" viewBox="0 0 612 792" enable-background="new 0 0 612 792" xml:space="preserve">
<rect x="266.5" y="369.004" fill-opacity="0" fill="#231F20" width="81" height="54.487"/>
<path id="PRIMARY_15_" fill="#FFFA00" stroke="#231F20" stroke-miterlimit="10" d="M293.104,404.521
	c0.613-1.634,0.978-3.622,0.978-5.778c0-5.537-2.376-10.025-5.308-10.025c-1.684,0-3.181,1.483-4.152,3.794
	C285.316,397.259,288.442,401.475,293.104,404.521z"/>
<polygon fill="#FFFFFF" stroke="#231F20" stroke-miterlimit="10" points="288.827,384.463 291.437,389.443 288.903,389.416 
	286.323,389.389 "/>
<path id="PRIMARY_14_" fill="#FFFA00" stroke="#231F20" stroke-miterlimit="10" d="M304.254,408.513
	c0.076-0.669,0.129-1.353,0.129-2.063c0-5.537-2.376-10.027-5.308-10.027c-2.741,0-4.995,3.926-5.277,8.962
	C296.862,407.05,300.418,408.146,304.254,408.513z"/>
<polygon fill="#FFFFFF" stroke="#231F20" stroke-miterlimit="10" points="299.022,392.855 301.632,397.836 299.098,397.809 
	296.518,397.781 "/>
<path id="PRIMARY_13_" fill="#FFFA00" stroke="#231F20" stroke-miterlimit="10" d="M316.89,406.279
	c-0.255-5.089-2.521-9.072-5.282-9.072c-2.932,0-5.308,4.49-5.308,10.027c0,0.474,0.022,0.938,0.057,1.393
	C310.165,408.512,313.736,407.672,316.89,406.279z"/>
<polygon fill="#FFFFFF" stroke="#231F20" stroke-miterlimit="10" points="311.555,393.641 314.164,398.621 311.631,398.594 
	309.051,398.566 "/>
<path id="PRIMARY_6_" fill="#FFFA00" stroke="#231F20" stroke-miterlimit="10" d="M318.9,404.6
	c-0.613-1.634-0.977-3.622-0.977-5.778c0-5.537,2.376-10.025,5.307-10.025c1.684,0,3.182,1.483,4.152,3.794
	C326.689,397.338,323.563,401.554,318.9,404.6z"/>
<polygon fill="#FFFFFF" stroke="#231F20" stroke-miterlimit="10" points="323.179,384.542 320.568,389.522 323.103,389.495 
	325.683,389.468 "/>
</svg>
