<?xml version="1.0" encoding="utf-8"?>
<!-- Generator: Adobe Illustrator 16.0.0, SVG Export Plug-In . SVG Version: 6.00 Build 0)  -->
<svg version="1.1" id="Layer_1" xmlns="http://www.w3.org/2000/svg" xmlns:xlink="http://www.w3.org/1999/xlink" x="0px" y="0px"
	 width="612px" height="792px" viewBox="0 0 612 792" enable-background="new 0 0 612 792" xml:space="preserve">
<rect x="179" y="310.439" fill="#231F20" fill-opacity="0" width="256" height="171.618"/>
<path id="PRIMARY_34_" fill="#FFFA00" stroke="#231F20" stroke-width="3.1551" stroke-miterlimit="10" d="M237.454,384.327
	c-6.148,4.688-10.488,16.013-10.488,29.264c0,17.44,7.511,31.577,16.776,31.577c7.653,0,14.093-9.649,16.11-22.829
	C247.083,412.877,238.696,399.441,237.454,384.327z"/>
<path id="PRIMARY_33_" fill="#FFFA00" stroke="#231F20" stroke-width="3.1551" stroke-miterlimit="10" d="M266.151,426.51
	c-0.617,3.291-0.971,6.813-0.971,10.501c0,17.437,7.509,31.579,16.776,31.579c9.265,0,16.774-14.143,16.774-31.579
	c0-0.253-0.019-0.499-0.019-0.757C286.671,435.423,275.54,431.953,266.151,426.51z"/>
<path id="PRIMARY_32_" fill="#FFFA00" stroke="#231F20" stroke-width="3.1551" stroke-miterlimit="10" d="M304.799,436.463
	c0,0.193-0.012,0.363-0.012,0.551c0,17.437,7.509,31.58,16.777,31.58c9.266,0,16.775-14.144,16.775-31.58
	c0-2.777-0.207-5.463-0.568-8.031C328.043,433.664,316.814,436.396,304.799,436.463z"/>
<path id="PRIMARY_21_" fill="#FFFA00" stroke="#231F20" stroke-width="3.1551" stroke-miterlimit="10" d="M370.204,390.963
	c-3.241,14.237-12.936,26.528-26.438,34.75c2.266,12.398,8.5,21.313,15.854,21.313c9.266,0,16.774-14.137,16.774-31.577
	C376.392,405.563,373.979,396.754,370.204,390.963z"/>
<polygon fill="#FFFFFF" stroke="#231F20" stroke-width="3.1551" stroke-miterlimit="10" points="282.12,479.826 273.875,464.14 
	281.884,464.226 290.037,464.312 "/>
<polygon fill="#FFFFFF" stroke="#231F20" stroke-width="3.1551" stroke-miterlimit="10" points="243.579,458.566 235.326,442.879 
	243.335,442.965 251.492,443.051 "/>
<polygon fill="#FFFFFF" stroke="#231F20" stroke-width="3.1551" stroke-miterlimit="10" points="321.729,479.826 313.481,464.14 
	321.487,464.226 329.642,464.312 "/>
<polygon fill="#FFFFFF" stroke="#231F20" stroke-width="3.1551" stroke-miterlimit="10" points="360.247,458.566 352,442.879 
	360.006,442.965 368.16,443.051 "/>
</svg>
