<?xml version="1.0" encoding="utf-8"?>
<!-- Generator: Adobe Illustrator 16.0.0, SVG Export Plug-In . SVG Version: 6.00 Build 0)  -->
<svg version="1.1" id="Layer_1" xmlns="http://www.w3.org/2000/svg" xmlns:xlink="http://www.w3.org/1999/xlink" x="0px" y="0px"
	 width="612px" height="792px" viewBox="0 0 612 792" enable-background="new 0 0 612 792" xml:space="preserve">
<rect x="266.5" y="369.004" fill-opacity="0" fill="#231F20" width="81" height="54.487"/>
<path id="PRIMARY_25_" fill="#FFFA00" stroke="#231F20" stroke-miterlimit="10" d="M284.995,392.463
	c-1.945,1.488-3.318,5.084-3.318,9.291c0,5.537,2.376,10.025,5.308,10.025c2.421,0,4.459-3.063,5.097-7.248
	C288.042,401.527,285.388,397.262,284.995,392.463z"/>
<path id="PRIMARY_24_" fill="#FFFA00" stroke="#231F20" stroke-miterlimit="10" d="M294.075,405.855
	c-0.195,1.045-0.307,2.164-0.307,3.334c0,5.537,2.376,10.027,5.308,10.027s5.308-4.49,5.308-10.027c0-0.08-0.006-0.158-0.006-0.24
	C300.568,408.686,297.046,407.584,294.075,405.855z"/>
<path id="PRIMARY_23_" fill="#FFFA00" stroke="#231F20" stroke-miterlimit="10" d="M306.304,409.016
	c0,0.061-0.004,0.115-0.004,0.174c0,5.537,2.376,10.027,5.308,10.027s5.308-4.49,5.308-10.027c0-0.881-0.065-1.734-0.18-2.549
	C313.658,408.127,310.105,408.994,306.304,409.016z"/>
<path id="PRIMARY_22_" fill="#FFFA00" stroke="#231F20" stroke-miterlimit="10" d="M326.998,394.57
	c-1.025,4.52-4.093,8.422-8.365,11.033c0.717,3.936,2.689,6.766,5.016,6.766c2.932,0,5.308-4.488,5.308-10.025
	C328.956,399.205,328.192,396.408,326.998,394.57z"/>
<polygon fill="#FFFFFF" stroke="#231F20" stroke-miterlimit="10" points="299.128,422.783 296.519,417.803 299.053,417.83 
	301.633,417.857 "/>
<polygon fill="#FFFFFF" stroke="#231F20" stroke-miterlimit="10" points="286.933,416.033 284.322,411.053 286.856,411.08 
	289.437,411.107 "/>
<polygon fill="#FFFFFF" stroke="#231F20" stroke-miterlimit="10" points="311.66,422.783 309.051,417.803 311.584,417.83 
	314.164,417.857 "/>
<polygon fill="#FFFFFF" stroke="#231F20" stroke-miterlimit="10" points="323.848,416.033 321.238,411.053 323.771,411.08 
	326.352,411.107 "/>
</svg>
