<?xml version="1.0" encoding="utf-8"?>
<!-- Generator: Adobe Illustrator 16.0.0, SVG Export Plug-In . SVG Version: 6.00 Build 0)  -->
<svg version="1.1" id="Layer_1" xmlns="http://www.w3.org/2000/svg" xmlns:xlink="http://www.w3.org/1999/xlink" x="0px" y="0px"
	 width="612px" height="792px" viewBox="0 0 612 792" enable-background="new 0 0 612 792" xml:space="preserve">
<rect x="179" y="310.248" fill="#231F20" fill-opacity="0" width="256" height="172"/>
<path id="PRIMARY_15_" fill="#FFFA00" stroke="#231F20" stroke-width="3.1586" stroke-miterlimit="10" d="M263.082,422.366
	c1.937-5.161,3.091-11.435,3.091-18.241c0-17.479-7.509-31.646-16.776-31.646c-5.322,0-10.054,4.683-13.122,11.978
	C238.468,399.439,248.347,412.748,263.082,422.366z"/>
<polygon fill="#FFFFFF" stroke="#231F20" stroke-width="3.1586" stroke-miterlimit="10" points="249.565,359.047 257.813,374.767 
	249.804,374.683 241.651,374.598 "/>
<path id="PRIMARY_14_" fill="#FFFA00" stroke="#231F20" stroke-width="3.1586" stroke-miterlimit="10" d="M298.321,434.965
	c0.241-2.111,0.408-4.27,0.408-6.511c0-17.479-7.509-31.653-16.775-31.653c-8.664,0-15.787,12.393-16.679,28.29
	C274.958,430.347,286.197,433.809,298.321,434.965z"/>
<polygon fill="#FFFFFF" stroke="#231F20" stroke-width="3.1586" stroke-miterlimit="10" points="281.786,385.538 290.034,401.262 
	282.026,401.176 273.872,401.089 "/>
<path id="PRIMARY_13_" fill="#FFFA00" stroke="#231F20" stroke-width="3.1586" stroke-miterlimit="10" d="M338.256,427.915
	c-0.806-16.064-7.966-28.639-16.691-28.639c-9.269,0-16.777,14.175-16.777,31.653c0,1.495,0.071,2.959,0.182,4.396
	C317.003,434.962,328.29,432.311,338.256,427.915z"/>
<polygon fill="#FFFFFF" stroke="#231F20" stroke-width="3.1586" stroke-miterlimit="10" points="321.396,388.02 329.642,403.74 
	321.636,403.654 313.481,403.567 "/>
<path id="PRIMARY_6_" fill="#FFFA00" stroke="#231F20" stroke-width="3.1586" stroke-miterlimit="10" d="M344.611,422.612
	c-1.938-5.157-3.09-11.434-3.09-18.237c0-17.479,7.51-31.647,16.774-31.647c5.321,0,10.056,4.683,13.121,11.976
	C369.229,399.689,359.346,412.998,344.611,422.612z"/>
<polygon fill="#FFFFFF" stroke="#231F20" stroke-width="3.1586" stroke-miterlimit="10" points="358.133,359.297 349.883,375.017 
	357.892,374.932 366.046,374.846 "/>
</svg>
