<?xml version="1.0" encoding="utf-8"?>
<!-- Generator: Adobe Illustrator 16.0.0, SVG Export Plug-In . SVG Version: 6.00 Build 0)  -->
<svg version="1.1" id="Layer_1" xmlns="http://www.w3.org/2000/svg" xmlns:xlink="http://www.w3.org/1999/xlink" x="0px" y="0px"
	 width="612px" height="792px" viewBox="0 0 612 792" enable-background="new 0 0 612 792" xml:space="preserve">
<rect x="179" y="310.248" fill="#231F20" fill-opacity="0" width="256" height="172"/>
<path id="PRIMARY_38_" fill="#FFFA00" stroke="#231F20" stroke-width="3.1586" stroke-miterlimit="10" d="M237.255,380.99
	c-2.693,2.067-5.045,5.385-6.827,9.618c2.192,14.988,12.072,28.292,26.807,37.912c0.772-2.051,1.375-4.322,1.875-6.69
	C245.847,411.682,237.451,397.177,237.255,380.99z"/>
<path id="PRIMARY_37_" fill="#FFFA00" stroke="#231F20" stroke-width="3.1586" stroke-miterlimit="10" d="M266.685,426.91
	c-0.461,2.38-0.79,4.883-0.935,7.49c9.684,5.26,20.921,8.719,33.045,9.877c0.241-2.114,0.409-4.272,0.409-6.514
	c0-0.475-0.026-0.939-0.039-1.405C287.187,435.591,276.077,432.246,266.685,426.91z"/>
<path id="PRIMARY_36_" fill="#FFFA00" stroke="#231F20" stroke-width="3.1586" stroke-miterlimit="10" d="M305.386,436.527
	c-0.077,1.222-0.126,2.454-0.126,3.712c0,1.501,0.068,2.963,0.179,4.399c12.037-0.364,23.321-3.015,33.29-7.414
	c-0.143-2.842-0.494-5.573-1.01-8.145C328.167,433.68,317.154,436.374,305.386,436.527z"/>
<path id="PRIMARY_35_" fill="#FFFA00" stroke="#231F20" stroke-width="3.1586" stroke-miterlimit="10" d="M370.441,389.623
	c-2.793,14.126-11.837,26.454-24.726,34.929c0.513,3.822,1.353,7.396,2.531,10.524c14.734-9.612,24.611-22.924,26.809-37.911
	C373.781,394.144,372.21,391.602,370.441,389.623z"/>
</svg>
