<?xml version="1.0" encoding="utf-8"?>
<!-- Generator: Adobe Illustrator 16.0.0, SVG Export Plug-In . SVG Version: 6.00 Build 0)  -->
<svg version="1.1" id="Layer_1" xmlns="http://www.w3.org/2000/svg" xmlns:xlink="http://www.w3.org/1999/xlink" x="0px" y="0px"
	 width="612px" height="792px" viewBox="0 0 612 792" enable-background="new 0 0 612 792" xml:space="preserve">
<rect x="179" y="310.415" fill="#231F20" fill-opacity="0" width="256" height="171.665"/>
<path id="PRIMARY_25_" fill="#FFFA00" stroke="#231F20" stroke-width="3.1555" stroke-miterlimit="10" d="M237.454,384.324
	c-6.148,4.689-10.488,16.017-10.488,29.272c0,17.445,7.511,31.585,16.776,31.585c7.653,0,14.093-9.651,16.11-22.835
	C247.083,412.882,238.696,399.442,237.454,384.324z"/>
<path id="PRIMARY_24_" fill="#FFFA00" stroke="#231F20" stroke-width="3.1555" stroke-miterlimit="10" d="M266.151,426.518
	c-0.617,3.292-0.971,6.815-0.971,10.504c0,17.442,7.509,31.589,16.776,31.589c9.265,0,16.774-14.146,16.774-31.589
	c0-0.252-0.019-0.498-0.019-0.757C286.671,435.434,275.54,431.964,266.151,426.518z"/>
<path id="PRIMARY_23_" fill="#FFFA00" stroke="#231F20" stroke-width="3.1555" stroke-miterlimit="10" d="M304.799,436.474
	c0,0.194-0.012,0.363-0.012,0.551c0,17.442,7.509,31.589,16.777,31.589c9.266,0,16.775-14.146,16.775-31.589
	c0-2.778-0.207-5.464-0.568-8.033C328.043,433.674,316.814,436.406,304.799,436.474z"/>
<path id="PRIMARY_22_" fill="#FFFA00" stroke="#231F20" stroke-width="3.1555" stroke-miterlimit="10" d="M370.204,390.962
	c-3.241,14.24-12.936,26.535-26.438,34.759c2.266,12.402,8.5,21.318,15.854,21.318c9.266,0,16.774-14.141,16.774-31.585
	C376.392,405.565,373.979,396.754,370.204,390.962z"/>
<polygon fill="#FFFFFF" stroke="#231F20" stroke-width="3.1555" stroke-miterlimit="10" points="282.12,479.85 273.875,464.158 
	281.884,464.244 290.037,464.33 "/>
<polygon fill="#FFFFFF" stroke="#231F20" stroke-width="3.1555" stroke-miterlimit="10" points="243.579,458.583 235.326,442.892 
	243.335,442.979 251.492,443.064 "/>
<polygon fill="#FFFFFF" stroke="#231F20" stroke-width="3.1555" stroke-miterlimit="10" points="321.729,479.85 313.481,464.158 
	321.487,464.244 329.642,464.33 "/>
<polygon fill="#FFFFFF" stroke="#231F20" stroke-width="3.1555" stroke-miterlimit="10" points="360.247,458.583 352,442.892 
	360.006,442.979 368.16,443.064 "/>
</svg>
