<?xml version="1.0" encoding="utf-8"?>
<!-- Generator: Adobe Illustrator 16.0.0, SVG Export Plug-In . SVG Version: 6.00 Build 0)  -->
<svg version="1.1" id="Layer_1" xmlns="http://www.w3.org/2000/svg" xmlns:xlink="http://www.w3.org/1999/xlink" x="0px" y="0px"
	 width="612px" height="792px" viewBox="0 0 612 792" enable-background="new 0 0 612 792" xml:space="preserve">
<rect x="179" y="310.248" fill="#231F20" fill-opacity="0" width="256" height="172"/>
<path id="PRIMARY_7_" fill="#FFF100" stroke="#231F20" stroke-width="3.1586" stroke-miterlimit="10" d="M371.42,380.415
	c0,31.017-30.04,56.162-67.096,56.162l0,0c-37.062,0-67.102-25.146-67.102-56.162v-11.178c0-31.024,30.04-56.167,67.102-56.167l0,0
	c37.059,0,67.096,25.143,67.096,56.167V380.415z"/>
<path id="PRIMARY_27_" fill="#FFF100" stroke="#231F20" stroke-width="3.1586" stroke-miterlimit="10" d="M341.599,356.848
	c0,16.832-16.691,30.474-37.281,30.474l0,0c-20.588,0-37.279-13.643-37.279-30.474v-6.068c0-16.835,16.691-30.478,37.279-30.478l0,0
	c20.589,0,37.281,13.643,37.281,30.478V356.848z"/>
<path fill="#FFFFFF" fill-opacity="0.7" d="M339.734,356.68c0,15.894-15.854,28.78-35.414,28.78l0,0
	c-19.559,0-35.414-12.886-35.414-28.78v-5.732c0-15.897,15.855-28.783,35.414-28.783l0,0c19.559,0,35.414,12.886,35.414,28.783
	V356.68z"/>
<path id="PRIMARY_28_" fill="#FFF100" stroke="#231F20" stroke-width="3.1586" stroke-miterlimit="10" d="M267.307,388.074
	c0,4.678-5.003,8.465-11.185,8.465l0,0c-6.175,0-11.186-3.784-11.186-8.465v-1.683c0-4.678,5.008-8.473,11.186-8.473l0,0
	c6.179,0,11.185,3.792,11.185,8.473V388.074z"/>
<path fill="#FFFFFF" fill-opacity="0.7" d="M265.446,387.903c0,3.744-4.171,6.774-9.324,6.774l0,0c-5.145,0-9.316-3.033-9.316-6.774
	v-1.352c0-3.736,4.171-6.77,9.316-6.77l0,0c5.148,0,9.324,3.033,9.324,6.77V387.903z"/>
<path id="PRIMARY_29_" fill="#FFF100" stroke="#231F20" stroke-width="3.1586" stroke-miterlimit="10" d="M295.588,408.722
	c0,4.671-5.003,8.465-11.185,8.465l0,0c-6.176,0-11.182-3.791-11.182-8.465v-1.683c0-4.68,5.006-8.472,11.182-8.472l0,0
	c6.179,0,11.185,3.788,11.185,8.472V408.722z"/>
<path fill="#FFFFFF" fill-opacity="0.7" d="M293.726,408.556c0,3.736-4.171,6.77-9.32,6.77l0,0c-5.142,0-9.321-3.033-9.321-6.77
	v-1.359c0-3.736,4.176-6.771,9.321-6.771l0,0c5.148,0,9.32,3.034,9.32,6.771V408.556z"/>
<path id="PRIMARY_30_" fill="#FFF100" stroke="#231F20" stroke-width="3.1586" stroke-miterlimit="10" d="M332.747,408.722
	c0,4.671-5.01,8.465-11.186,8.465l0,0c-6.173,0-11.182-3.791-11.182-8.465v-1.683c0-4.68,5.009-8.472,11.182-8.472l0,0
	c6.176,0,11.186,3.788,11.186,8.472V408.722z"/>
<path fill="#FFFFFF" fill-opacity="0.7" d="M330.883,408.556c0,3.736-4.167,6.77-9.318,6.77l0,0c-5.142,0-9.317-3.033-9.317-6.77
	v-1.359c0-3.736,4.176-6.771,9.317-6.771l0,0c5.151,0,9.318,3.034,9.318,6.771V408.556z"/>
<path id="PRIMARY_31_" fill="#FFF100" stroke="#231F20" stroke-width="3.1586" stroke-miterlimit="10" d="M363.182,388.067
	c0,4.672-5.006,8.472-11.182,8.472l0,0c-6.179,0-11.186-3.796-11.186-8.472v-1.677c0-4.678,5.007-8.473,11.186-8.473l0,0
	c6.176,0,11.182,3.792,11.182,8.473V388.067z"/>
<path fill="#FFFFFF" fill-opacity="0.7" d="M361.321,387.903c0,3.738-4.17,6.774-9.318,6.774l0,0c-5.148,0-9.321-3.039-9.321-6.774
	v-1.352c0-3.742,4.173-6.77,9.321-6.77l0,0c5.148,0,9.318,3.027,9.318,6.77V387.903z"/>
</svg>
