<?xml version="1.0" encoding="utf-8"?>
<!-- Generator: Adobe Illustrator 16.0.0, SVG Export Plug-In . SVG Version: 6.00 Build 0)  -->
<svg version="1.1" id="Layer_1" xmlns="http://www.w3.org/2000/svg" xmlns:xlink="http://www.w3.org/1999/xlink" x="0px" y="0px"
	 width="612px" height="792px" viewBox="0 0 612 792" enable-background="new 0 0 612 792" xml:space="preserve">
<rect x="266.5" y="369.004" fill-opacity="0" fill="#231F20" width="81" height="54.487"/>
<path id="PRIMARY_38_" fill="#FFFA00" stroke="#231F20" stroke-miterlimit="10" d="M284.932,391.414
	c-0.852,0.655-1.596,1.706-2.16,3.047c0.694,4.748,3.82,8.963,8.482,12.01c0.244-0.65,0.435-1.369,0.593-2.119
	C287.651,401.137,284.994,396.542,284.932,391.414z"/>
<path id="PRIMARY_37_" fill="#FFFA00" stroke="#231F20" stroke-miterlimit="10" d="M294.244,405.961
	c-0.146,0.754-0.25,1.547-0.296,2.373c3.064,1.666,6.62,2.762,10.456,3.129c0.076-0.67,0.129-1.354,0.129-2.064
	c0-0.15-0.008-0.297-0.012-0.445C300.731,408.711,297.216,407.651,294.244,405.961z"/>
<path id="PRIMARY_36_" fill="#FFFA00" stroke="#231F20" stroke-miterlimit="10" d="M306.489,409.008
	c-0.024,0.387-0.04,0.777-0.04,1.176c0,0.475,0.022,0.938,0.057,1.393c3.808-0.115,7.379-0.955,10.533-2.348
	c-0.045-0.901-0.156-1.766-0.319-2.581C313.697,408.105,310.213,408.959,306.489,409.008z"/>
<path id="PRIMARY_35_" fill="#FFFA00" stroke="#231F20" stroke-miterlimit="10" d="M327.073,394.149
	c-0.884,4.475-3.745,8.38-7.823,11.065c0.162,1.211,0.428,2.343,0.801,3.334c4.662-3.045,7.787-7.262,8.482-12.01
	C328.13,395.581,327.633,394.776,327.073,394.149z"/>
</svg>
