<?xml version="1.0" encoding="utf-8"?>
<!-- Generator: Adobe Illustrator 16.0.0, SVG Export Plug-In . SVG Version: 6.00 Build 0)  -->
<svg version="1.1" id="Layer_1" xmlns="http://www.w3.org/2000/svg" xmlns:xlink="http://www.w3.org/1999/xlink" x="0px" y="0px"
	 width="612px" height="792px" viewBox="0 0 612 792" enable-background="new 0 0 612 792" xml:space="preserve">
<rect id="head_frame_1_" x="230.5" y="331.5" fill-opacity="0" fill="#231F20" width="151" height="131"/>
<path id="PRIMARY" stroke="#231F20" fill="#000000" stroke-miterlimit="10" d="M318.77,447.934c0,14,0,14-14.341,14h-19.319
	c-14.34,0-14.34,0-14.34-14l0,0c0-14,0-14,14.34-14h19.319C318.77,433.934,318.77,433.934,318.77,447.934L318.77,447.934z"/>
<path id="SECONDARY" fill="#F1F1F1" stroke="#231F20" stroke-miterlimit="10" d="M318.851,448c0,14,0,14-5.973,14h-8.047
	c-5.973,0-5.973,0-5.973-14l0,0c0-14,0-14,5.973-14h8.047C318.851,434,318.851,434,318.851,448L318.851,448z"/>
<circle fill="none" stroke="#231F20" stroke-miterlimit="10" cx="305" cy="441" r="2.5"/>
</svg>
