<?xml version="1.0" encoding="utf-8"?>
<!-- Generator: Adobe Illustrator 16.0.0, SVG Export Plug-In . SVG Version: 6.00 Build 0)  -->
<svg version="1.1" id="Layer_1" xmlns="http://www.w3.org/2000/svg" xmlns:xlink="http://www.w3.org/1999/xlink" x="0px" y="0px"
	 width="612px" height="792px" viewBox="0 0 612 792" enable-background="new 0 0 612 792" xml:space="preserve">
<rect id="head_frame_1_" x="229.5" y="331.5" fill-opacity="0" fill="#231F20" width="151" height="131"/>
<ellipse id="PRIMARY_1_" fill="#000000" stroke="#231F20" stroke-miterlimit="10" cx="296.189" cy="410.605" rx="27.189" ry="43.52"/>
<path id="SECONDARY_1_" fill="#F1F1F1" stroke="#231F20" stroke-miterlimit="10" d="M323.378,410.238
	c0-17.033-5.521-30.841-12.333-30.841c-4.505,0-8.444,6.042-10.597,15.06c-2.244-9.082-5.863-14.981-9.948-14.981
	c-6.812,0-12.333,16.393-12.333,36.614c0,20.222,5.208,35.098,11.761,36.874c0.09,0.024-0.092,0.006,0,0
	c2.161,0.566,4.248,1.161,6.261,1.161c7.761,0,19.062-7.959,21.894-18.564C321.282,429.988,323.378,420.729,323.378,410.238z"/>
<path fill="#F77300" stroke="#231F20" stroke-miterlimit="10" d="M344.489,426.656c0,0-10.358,2.346-28.111,1.33
	c-5.922-0.339-11.688-0.563-16.771-0.481v15.735c5.256,0.588,11.316,0.576,17.688-0.158
	C335.915,440.938,345.544,433.766,344.489,426.656z"/>
<path fill="#F77300" stroke="#231F20" stroke-miterlimit="10" d="M336.539,398.697c-13.76-2.459-26.854-1.949-36.932,0.859v27.793
	c9.027,0.986,20.396,0.844,32.216,0.33c27.037-1.176,47.628,10.788,47.628,10.788C382.611,424.848,364.189,403.638,336.539,398.697z
	"/>
<circle fill="#FFFFFF" stroke="#231F20" stroke-miterlimit="10" cx="290.918" cy="389.215" r="6.072"/>
<circle fill="#231F20" cx="293.487" cy="389.214" r="2.021"/>
<circle fill="#FFFFFF" stroke="#231F20" stroke-miterlimit="10" cx="311.967" cy="389.215" r="6.072"/>
<circle fill="#231F20" cx="314.537" cy="389.214" r="2.022"/>
<path fill="#930303" stroke="#231F20" stroke-miterlimit="10" d="M362.595,409.508c-0.741,0.395-1.416,0.924-1.987,1.63
	c-3.585,4.435-2.12,13.524,3.187,20.86c9.702,3.014,15.657,6.47,15.657,6.47C381.454,429.837,374.781,418.162,362.595,409.508z"/>
</svg>
