<?xml version="1.0" encoding="utf-8"?>
<!-- Generator: Adobe Illustrator 16.0.0, SVG Export Plug-In . SVG Version: 6.00 Build 0)  -->
<svg version="1.1" id="Layer_1" xmlns="http://www.w3.org/2000/svg" xmlns:xlink="http://www.w3.org/1999/xlink" x="0px" y="0px"
	 width="612px" height="792px" viewBox="0 0 612 792" enable-background="new 0 0 612 792" xml:space="preserve">
<rect id="head_frame_1_" x="178" y="286" fill="#231F20" fill-opacity="0" width="256" height="222"/>
<path id="PRIMARY" fill="#000000" stroke="#231F20" stroke-width="1.695" stroke-miterlimit="10" d="M327.649,483.314
	c0,23.725,0,23.725-24.313,23.725h-32.753c-24.311,0-24.311,0-24.311-23.725l0,0c0-23.726,0-23.726,24.311-23.726h32.753
	C327.649,459.589,327.649,459.589,327.649,483.314L327.649,483.314z"/>
<path id="SECONDARY" fill="#F1F1F1" stroke="#231F20" stroke-width="1.695" stroke-miterlimit="10" d="M327.786,483.428
	c0,23.725,0,23.725-10.126,23.725h-13.642c-10.126,0-10.126,0-10.126-23.725l0,0c0-23.725,0-23.725,10.126-23.725h13.642
	C327.786,459.703,327.786,459.703,327.786,483.428L327.786,483.428z"/>
<circle fill="none" stroke="#231F20" stroke-width="1.695" stroke-miterlimit="10" cx="304.305" cy="471.565" r="4.237"/>
</svg>
