<?xml version="1.0" encoding="utf-8"?>
<!-- Generator: Adobe Illustrator 16.0.0, SVG Export Plug-In . SVG Version: 6.00 Build 0)  -->
<svg version="1.1" id="Layer_1" xmlns="http://www.w3.org/2000/svg" xmlns:xlink="http://www.w3.org/1999/xlink" x="0px" y="0px"
	 width="612px" height="792px" viewBox="0 0 612 792" enable-background="new 0 0 612 792" xml:space="preserve">
<rect id="head_frame_1_" x="177" y="286" fill="#231F20" fill-opacity="0" width="256" height="222"/>
<ellipse id="PRIMARY_3_" stroke="#231F20" stroke-width="1.695" stroke-miterlimit="10" cx="290.062" cy="420.056" rx="46.095" ry="73.752"/>
<path id="SECONDARY_5_" fill="#F1F1F1" stroke="#231F20" stroke-width="1.695" stroke-miterlimit="10" d="M336.157,419.435
	c0-28.866-9.359-52.266-20.909-52.266c-7.637,0-14.315,10.239-17.965,25.521c-3.805-15.391-9.94-25.388-16.866-25.388
	c-11.549,0-20.909,27.781-20.909,62.048c0,34.271,8.83,59.48,19.938,62.489c0.153,0.041-0.155,0.01,0,0
	c3.664,0.96,7.202,1.968,10.615,1.968c13.158,0,32.317-13.488,37.119-31.461C332.604,452.904,336.157,437.212,336.157,419.435z"/>
<path fill="#F77300" stroke="#231F20" stroke-width="1.695" stroke-miterlimit="10" d="M373.351,466.997
	c0,0-17.857-2.316-45.52-14.3c-9.226-3.997-18.271-7.721-26.406-10.559l-9.195,25.032c8.02,4.003,17.674,7.525,28.244,10.077
	C351.362,484.708,370.876,478.923,373.351,466.997z"/>
<path fill="#F77300" stroke="#231F20" stroke-width="1.695" stroke-miterlimit="10" d="M358.47,399.876
	c-23.327-4.167-45.527-3.303-62.613,1.455v47.1c15.303,1.671,34.579,1.432,54.619,0.56c45.837-1.993,80.746,18.281,80.746,18.281
	C436.579,444.192,405.348,408.249,358.47,399.876z"/>
<circle fill="#FFFFFF" stroke="#231F20" stroke-width="1.695" stroke-miterlimit="10" cx="281.126" cy="383.807" r="10.29"/>
<circle fill="#231F20" cx="285.481" cy="383.805" r="3.425"/>
<circle fill="#FFFFFF" stroke="#231F20" stroke-width="1.695" stroke-miterlimit="10" cx="316.812" cy="383.807" r="10.29"/>
<circle fill="#231F20" cx="321.169" cy="383.805" r="3.427"/>
<path fill="#930303" stroke="#231F20" stroke-width="1.695" stroke-miterlimit="10" d="M402.644,418.196
	c-1.256,0.671-2.4,1.565-3.367,2.763c-6.078,7.517-3.595,22.919,5.402,35.351c16.448,5.107,26.545,10.964,26.545,10.964
	C434.617,452.647,423.305,432.862,402.644,418.196z"/>
<path fill="#F1F1F1" stroke="#231F20" stroke-width="1.695" stroke-miterlimit="10" d="M281.127,394.097"/>
<path id="SECONDARY_7_" fill="#F1F1F1" stroke="#231F20" stroke-width="1.695" stroke-miterlimit="10" d="M273.815,376.561
	c1.867-1.881,4.452-3.045,7.312-3.045c5.368,0,9.777,4.109,10.25,9.354L273.815,376.561z"/>
<path id="SECONDARY_6_" fill="#F1F1F1" stroke="#231F20" stroke-width="1.695" stroke-miterlimit="10" d="M324.079,376.561
	c-1.865-1.881-4.452-3.045-7.311-3.045c-5.368,0-9.778,4.109-10.251,9.354L324.079,376.561z"/>
</svg>
