<?xml version="1.0" encoding="utf-8"?>
<!-- Generator: Adobe Illustrator 16.0.0, SVG Export Plug-In . SVG Version: 6.00 Build 0)  -->
<svg version="1.1" id="Layer_1" xmlns="http://www.w3.org/2000/svg" xmlns:xlink="http://www.w3.org/1999/xlink" x="0px" y="0px"
	 width="612px" height="792px" viewBox="0 0 612 792" enable-background="new 0 0 612 792" xml:space="preserve">
<rect id="head_frame_1_" x="177" y="286" fill="#231F20" fill-opacity="0" width="256" height="222"/>
<ellipse id="PRIMARY_2_" fill="#000000" stroke="#231F20" stroke-width="1.695" stroke-miterlimit="10" cx="290.062" cy="420.056" rx="46.095" ry="73.752"/>
<path id="SECONDARY_2_" fill="#F1F1F1" stroke="#231F20" stroke-width="1.695" stroke-miterlimit="10" d="M336.159,419.435
	c0-28.866-9.359-52.266-20.911-52.266c-7.636,0-14.313,10.239-17.963,25.521c-3.805-15.391-9.94-25.388-16.868-25.388
	c-11.547,0-20.907,27.781-20.907,62.048c0,34.271,8.828,59.48,19.937,62.489c0.153,0.041-0.155,0.01,0,0
	c3.666,0.96,7.202,1.968,10.617,1.968c13.157,0,32.315-13.488,37.117-31.461C332.605,452.904,336.159,437.212,336.159,419.435z"/>
<path fill="#F77300" stroke="#231F20" stroke-width="1.695" stroke-miterlimit="10" d="M373.931,454.443
	c0,0-17.995,0.696-47.269-6.499c-9.767-2.401-19.312-4.56-27.805-6.003l-4.881,26.218c8.579,2.608,18.684,4.468,29.533,5.22
	C355.209,475.578,373.481,466.615,373.931,454.443z"/>
<path fill="#F77300" stroke="#231F20" stroke-width="1.695" stroke-miterlimit="10" d="M358.47,399.876
	c-23.327-4.167-45.527-3.303-62.613,1.455v47.1c15.303,1.671,34.579,1.432,54.62,0.56c45.838-1.993,80.745,18.281,80.745,18.281
	C436.579,444.192,405.348,408.249,358.47,399.876z"/>
<circle id="SECONDARY_4_" fill="#F1F1F1" stroke="#231F20" stroke-width="1.695" stroke-miterlimit="10" cx="281.127" cy="383.807" r="10.288"/>
<circle id="SECONDARY_3_" fill="#F1F1F1" stroke="#231F20" stroke-width="1.695" stroke-miterlimit="10" cx="316.813" cy="383.807" r="10.288"/>
<path fill="#930303" stroke="#231F20" stroke-width="1.695" stroke-miterlimit="10" d="M402.646,418.196
	c-1.258,0.671-2.4,1.565-3.369,2.763c-6.076,7.517-3.593,22.919,5.404,35.351c16.446,5.107,26.543,10.964,26.543,10.964
	C434.619,452.647,423.305,432.862,402.646,418.196z"/>
<line fill="none" stroke="#231F20" stroke-width="1.695" stroke-miterlimit="10" x1="288.53" y1="376.664" x2="271.337" y2="386.973"/>
<line fill="none" stroke="#231F20" stroke-width="1.695" stroke-miterlimit="10" x1="309.838" y1="376.249" x2="326.786" y2="386.354"/>
</svg>
