<?xml version="1.0" encoding="utf-8"?>
<!-- Generator: Adobe Illustrator 16.0.0, SVG Export Plug-In . SVG Version: 6.00 Build 0)  -->
<svg version="1.1" id="Layer_1" xmlns="http://www.w3.org/2000/svg" xmlns:xlink="http://www.w3.org/1999/xlink" x="0px" y="0px"
	 width="612px" height="792px" viewBox="0 0 612 792" enable-background="new 0 0 612 792" xml:space="preserve">
<rect id="head_frame_1_" x="229.5" y="331.5" fill-opacity="0" fill="#231F20" width="151" height="131"/>
<ellipse id="PRIMARY_2_" stroke="#231F20" fill="#000000" stroke-miterlimit="10" cx="296.189" cy="410.605" rx="27.189" ry="43.52"/>
<path id="SECONDARY_2_" fill="#F1F1F1" stroke="#231F20" stroke-miterlimit="10" d="M323.379,410.238
	c0-17.033-5.521-30.841-12.334-30.841c-4.504,0-8.443,6.042-10.596,15.06c-2.244-9.082-5.863-14.981-9.949-14.981
	c-6.811,0-12.332,16.393-12.332,36.614c0,20.222,5.207,35.098,11.76,36.874c0.09,0.024-0.092,0.006,0,0
	c2.162,0.566,4.248,1.161,6.262,1.161c7.76,0,19.061-7.959,21.893-18.564C321.283,429.988,323.379,420.729,323.379,410.238z"/>
<path fill="#F77300" stroke="#231F20" stroke-miterlimit="10" d="M345.658,430.896c0,0-10.614,0.412-27.881-3.834
	c-5.76-1.417-11.39-2.691-16.4-3.542l-2.879,15.47c5.06,1.539,11.021,2.637,17.42,3.08
	C334.615,443.368,345.394,438.079,345.658,430.896z"/>
<path fill="#F77300" stroke="#231F20" stroke-miterlimit="10" d="M336.539,398.697c-13.76-2.459-26.854-1.949-36.932,0.859v27.793
	c9.027,0.986,20.396,0.844,32.217,0.33c27.037-1.176,47.627,10.788,47.627,10.788C382.611,424.848,364.189,403.638,336.539,398.697z
	"/>
<circle id="SECONDARY_4_" fill="#F1F1F1" stroke="#231F20" stroke-miterlimit="10" cx="290.919" cy="389.215" r="6.071"/>
<circle id="SECONDARY_3_" fill="#F1F1F1" stroke="#231F20" stroke-miterlimit="10" cx="311.968" cy="389.215" r="6.071"/>
<path fill="#930303" stroke="#231F20" stroke-miterlimit="10" d="M362.596,409.508c-0.742,0.395-1.416,0.924-1.988,1.63
	c-3.584,4.435-2.119,13.524,3.188,20.86c9.701,3.014,15.656,6.47,15.656,6.47C381.455,429.837,374.781,418.162,362.596,409.508z"/>
<line fill="none" stroke="#231F20" stroke-miterlimit="10" x1="295.285" y1="385" x2="285.144" y2="391.083"/>
<line fill="none" stroke="#231F20" stroke-miterlimit="10" x1="307.854" y1="384.755" x2="317.851" y2="390.718"/>
</svg>
