<?xml version="1.0" encoding="utf-8"?>
<!-- Generator: Adobe Illustrator 16.0.0, SVG Export Plug-In . SVG Version: 6.00 Build 0)  -->
<svg version="1.1" id="Layer_1" xmlns="http://www.w3.org/2000/svg" xmlns:xlink="http://www.w3.org/1999/xlink" x="0px" y="0px"
	 width="612px" height="792px" viewBox="0 0 612 792" enable-background="new 0 0 612 792" xml:space="preserve">
<rect id="head_frame_1_" x="178" y="286" fill="#231F20" fill-opacity="0" width="256" height="222"/>
<path id="PRIMARY_1_" fill="#F1F1F1" stroke="#231F20" stroke-width="1.695" stroke-miterlimit="10" d="M374.214,404.812
	c0,45.891-28.44,83.093-63.523,83.093c-3.899,0-7.715-0.458-11.417-1.339c-3.703-0.879-7.297-2.178-10.748-3.857
	c-5.758,0.397-21.629,9.214-9.897-6.146c-13.195,14.479-23.381,9.75-8.865-8.198c-14.579,17.894-21.085,8.498-7.656-10.015
	c-13.432,18.509-17.176,7.196-6.266-11.599c-10.912,18.795-17.361,3.894-4.7-12.946c-12.662,16.84-17.429,1.841-2.95-14.057
	c-14.48,15.895-19.098-2.577-1.024-14.936c-18.075,12.341-17.646-6.925,1.024-14.938c-18.671,7.984-18.593-8.653,2.95-14.058
	c-21.511,5.218-16.502-17.067,4.698-12.945c-21.138-4.332-13.438-16.258,6.266-11.598c-19.704-4.66-12.305-11.077,7.658-10.016
	c-19.963-1.061-11.689-5.944,8.865-8.197c-20.553,2.252-11.345-4.993,9.897-6.146c-21.243,1.153-10.338-8.618,10.748-3.86
	c-21.085-4.758-8.357-7.997,11.417-1.338c-19.696-6.658,6.738,0.188,11.417,1.338c3.707,0.88,7.297,2.18,10.747,3.86
	C357.008,338.68,374.214,369.117,374.214,404.812z"/>
<path id="SECONDARY_4_" fill="#FFFA00" stroke="#231F20" stroke-width="1.695" stroke-miterlimit="10" d="M346.579,418.021
	c9.037,9.202,18.726,21.27,26.976,24.467c1.109,0.351,2.224,0.641,3.333,0.926c5.548,1.431,11.079,2.797,16.012,10.973
	c0.636,0.617,1.299,1.226,2.029,1.798c2.585,2.057,6.649,4.797,10.722,1.286c-5.463,13.957-13.846,26.224-20.607,21.819
	c0,0-0.813-0.523-2.252-1.461c-0.72-0.47-1.596-1.039-2.612-1.697c-8.936-2.675-18.355-5.755-27.4-13.913
	c-1.128-1.016-2.252-2.11-3.39-3.303c-1.15-0.892-12.533-9.929-13.684-10.864"/>
<path id="SECONDARY_3_" fill="#FFFA00" stroke="#231F20" stroke-width="1.695" stroke-miterlimit="10" d="M342.503,429.606
	c0.104-0.032,0.207-0.068,0.312-0.108c1.371-0.539,3.121-0.638,4.721,0.385c16.46,10.455,32.081,8.495,39.508,8.862
	c1.471,0.019,2.74,0.038,3.785,0.055c2.091,0.025,3.267,0.044,3.267,0.044c6.039,1.309,12.593,3.109,18.584,14.217
	c3.462,1.806,6.731,3.379,7.51,2.236c1.235-15.571-19.438-59.664-33.334-57.461c0,0-0.966,0.146-2.679,0.423
	c-0.857,0.132-1.901,0.299-3.107,0.492c-10.931-1.899-22.419-3.591-32.973,0.693c-1.321,0.532-2.625,1.161-3.934,1.885
	c-1.47,0.415-2.936,0.855-4.398,1.326"/>
<ellipse id="PRIMARY_3_" fill="#F1F1F1" stroke="#231F20" stroke-width="1.695" stroke-miterlimit="10" cx="311.086" cy="368.755" rx="9.324" ry="12.993"/>
<ellipse id="PRIMARY_2_" fill="#F1F1F1" stroke="#231F20" stroke-width="1.695" stroke-miterlimit="10" cx="349.086" cy="368.755" rx="9.324" ry="12.993"/>
<ellipse transform="matrix(-0.6932 -0.7207 0.7207 -0.6932 349.5654 957.7021)" fill="#231F20" cx="378.609" cy="404.454" rx="5.147" ry="1.977"/>
<line fill="none" stroke="#231F20" stroke-width="1.695" stroke-miterlimit="10" x1="304.305" y1="359.858" x2="318.495" y2="376.624"/>
<line fill="none" stroke="#231F20" stroke-width="1.695" stroke-miterlimit="10" x1="355.867" y1="359.858" x2="341.679" y2="376.624"/>
</svg>
