<?xml version="1.0" encoding="utf-8"?>
<!-- Generator: Adobe Illustrator 16.0.0, SVG Export Plug-In . SVG Version: 6.00 Build 0)  -->
<svg version="1.1" id="Layer_1" xmlns="http://www.w3.org/2000/svg" xmlns:xlink="http://www.w3.org/1999/xlink" x="0px" y="0px"
	 width="612px" height="792px" viewBox="0 0 612 792" enable-background="new 0 0 612 792" xml:space="preserve">
<rect id="head_frame_1_" x="178" y="286" fill="#231F20" fill-opacity="0" width="256" height="222"/>
<path id="PRIMARY_4_" fill="#F1F1F1" stroke="#231F20" stroke-width="1.695" stroke-miterlimit="10" d="M374.214,404.812
	c0,45.892-28.44,83.093-63.523,83.093c-3.899,0-7.715-0.459-11.417-1.339c-3.703-0.879-7.297-2.178-10.748-3.857
	c-5.758,0.396-21.629,9.214-9.897-6.146c-13.195,14.48-23.381,9.751-8.865-8.199c-14.579,17.896-21.085,8.498-7.656-10.014
	c-13.432,18.509-17.176,7.195-6.266-11.598c-10.912,18.793-17.361,3.893-4.7-12.947c-12.662,16.84-17.429,1.841-2.95-14.057
	c-14.48,15.895-19.098-2.577-1.024-14.936c-18.075,12.341-17.646-6.925,1.024-14.938c-18.671,7.985-18.593-8.653,2.95-14.057
	c-21.511,5.218-16.502-17.067,4.698-12.946c-21.138-4.332-13.438-16.258,6.266-11.598c-19.704-4.661-12.305-11.077,7.658-10.016
	c-19.963-1.061-11.689-5.945,8.865-8.197c-20.553,2.252-11.345-4.993,9.897-6.146c-21.243,1.154-10.338-8.617,10.748-3.859
	c-21.085-4.758-8.357-7.997,11.417-1.339c-19.696-6.658,6.738,0.189,11.417,1.339c3.707,0.88,7.297,2.18,10.747,3.859
	C357.008,338.68,374.214,369.118,374.214,404.812z"/>
<path fill="#FFFA00" stroke="#231F20" stroke-width="1.695" stroke-miterlimit="10" d="M347.55,422.003
	c9.71,8.495,20.284,19.791,28.755,22.358c1.131,0.263,2.264,0.468,3.391,0.67c5.643,1.003,11.264,1.946,16.798,9.727
	c0.683,0.567,1.391,1.123,2.161,1.637c2.733,1.854,6.995,4.279,10.788,0.471c-4.388,14.331-11.819,27.197-18.896,23.32
	c0,0-0.85-0.462-2.359-1.288c-0.749-0.415-1.666-0.918-2.732-1.497c-9.112-1.989-18.736-4.351-28.376-11.798
	c-1.198-0.927-2.402-1.935-3.627-3.034c-1.217-0.806-13.252-8.955-14.472-9.8"/>
<path fill="#FFFA00" stroke="#231F20" stroke-width="1.695" stroke-miterlimit="10" d="M345.932,441.62
	c0.092-0.06,0.176-0.129,0.261-0.2c1.12-0.953,2.748-1.61,4.591-1.16c18.955,4.581,33.107-2.313,40.257-4.362
	c1.397-0.458,2.604-0.849,3.599-1.172c1.989-0.65,3.106-1.013,3.106-1.013c6.138-0.706,12.922-1.12,22.181,7.459
	c3.859,0.593,7.462,1.022,7.831-0.31c-3.862-15.134-37.673-50.193-50.114-43.624c0,0-0.866,0.453-2.397,1.266
	c-0.77,0.401-1.704,0.896-2.783,1.469c-10.959,1.73-22.376,3.836-30.981,11.298c-1.078,0.93-2.109,1.946-3.114,3.055
	c-1.257,0.869-2.504,1.758-3.735,2.675"/>
<ellipse fill="#FFFFFF" stroke="#231F20" stroke-width="1.695" stroke-miterlimit="10" cx="311.086" cy="368.755" rx="9.324" ry="12.993"/>
<ellipse fill="#231F20" cx="314.519" cy="368.755" rx="4.56" ry="6.355"/>
<ellipse fill="#FFFFFF" stroke="#231F20" stroke-width="1.695" stroke-miterlimit="10" cx="349.086" cy="368.755" rx="9.324" ry="12.993"/>
<ellipse fill="#231F20" cx="352.517" cy="368.755" rx="4.562" ry="6.355"/>
<ellipse transform="matrix(-0.8887 -0.4585 0.4585 -0.8887 516.401 937.523)" fill="#231F20" cx="371.991" cy="406.084" rx="5.15" ry="1.978"/>
<path id="PRIMARY_5_" fill="#F1F1F1" stroke="#231F20" stroke-width="1.695" stroke-miterlimit="10" d="M320.397,368.05
	c-0.264-6.848-4.331-12.288-9.312-12.288c-3.017,0-5.698,1.996-7.402,5.094L320.397,368.05z"/>
<path id="PRIMARY_6_" fill="#F1F1F1" stroke="#231F20" stroke-width="1.695" stroke-miterlimit="10" d="M339.601,368.05
	c0.262-6.848,4.331-12.288,9.31-12.288c3.017,0,5.699,1.996,7.402,5.094L339.601,368.05z"/>
</svg>
