<?xml version="1.0" encoding="utf-8"?>
<!-- Generator: Adobe Illustrator 16.0.0, SVG Export Plug-In . SVG Version: 6.00 Build 0)  -->
<svg version="1.1" id="Layer_1" xmlns="http://www.w3.org/2000/svg" xmlns:xlink="http://www.w3.org/1999/xlink" x="0px" y="0px"
	 width="612px" height="792px" viewBox="0 0 612 792" enable-background="new 0 0 612 792" xml:space="preserve">
<rect id="head_frame_1_" x="230.5" y="331.5" fill-opacity="0" fill="#231F20" width="151" height="131"/>
<path id="PRIMARY_4_" fill="#F1F1F1" stroke="#231F20" stroke-miterlimit="10" d="M346.235,401.609
	c0,27.08-16.775,49.033-37.468,49.033c-2.3,0-4.551-0.271-6.735-0.79s-4.304-1.286-6.339-2.277
	c-3.396,0.235-12.758,5.438-5.838-3.627c-7.783,8.545-13.791,5.754-5.229-4.838c-8.599,10.56-12.437,5.015-4.516-5.909
	c-7.923,10.922-10.131,4.246-3.696-6.844c-6.436,11.09-10.24,2.297-2.772-7.639c-7.468,9.936-10.28,1.086-1.74-8.295
	c-8.541,9.379-11.265-1.521-0.604-8.814c-10.662,7.283-10.409-4.086,0.604-8.814c-11.013,4.712-10.967-5.106,1.74-8.295
	c-12.688,3.079-9.734-10.071,2.771-7.639c-12.468-2.556-7.926-9.594,3.696-6.844c-11.622-2.75-7.258-6.536,4.517-5.91
	c-11.775-0.626-6.895-3.508,5.229-4.837c-12.123,1.329-6.692-2.946,5.838-3.627c-12.53,0.681-6.098-5.085,6.339-2.277
	c-12.437-2.808-4.929-4.719,6.735-0.79c-11.618-3.929,3.974,0.111,6.734,0.79c2.186,0.519,4.304,1.286,6.339,2.277
	C336.087,362.586,346.235,380.547,346.235,401.609z"/>
<path fill="#FFFA00" stroke="#231F20" stroke-miterlimit="10" d="M330.508,411.754c5.727,5.013,11.965,11.679,16.961,13.193
	c0.667,0.156,1.335,0.277,2,0.396c3.328,0.592,6.643,1.148,9.908,5.739c0.402,0.335,0.82,0.663,1.274,0.966
	c1.613,1.094,4.126,2.525,6.364,0.278c-2.588,8.456-6.972,16.049-11.146,13.761c0,0-0.501-0.273-1.391-0.76
	c-0.442-0.245-0.983-0.542-1.612-0.884c-5.375-1.173-11.052-2.567-16.737-6.962c-0.707-0.546-1.417-1.141-2.14-1.79
	c-0.717-0.475-7.816-5.284-8.536-5.783"/>
<path fill="#FFFA00" stroke="#231F20" stroke-miterlimit="10" d="M329.554,423.33c0.053-0.035,0.103-0.076,0.153-0.118
	c0.661-0.563,1.621-0.95,2.708-0.685c11.181,2.703,19.528-1.365,23.745-2.574c0.824-0.27,1.536-0.501,2.123-0.691
	c1.173-0.384,1.832-0.598,1.832-0.598c3.62-0.417,7.622-0.661,13.083,4.401c2.277,0.35,4.402,0.604,4.619-0.182
	c-2.278-8.931-22.22-29.619-29.559-25.742c0,0-0.511,0.267-1.414,0.747c-0.454,0.236-1.005,0.528-1.642,0.866
	c-6.464,1.021-13.198,2.264-18.274,6.667c-0.636,0.549-1.244,1.148-1.837,1.803c-0.741,0.512-1.477,1.037-2.203,1.578"/>
<ellipse fill="#FFFFFF" stroke="#231F20" stroke-miterlimit="10" cx="309" cy="380.333" rx="5.5" ry="7.667"/>
<ellipse fill="#231F20" cx="311.024" cy="380.333" rx="2.69" ry="3.75"/>
<ellipse fill="#FFFFFF" stroke="#231F20" stroke-miterlimit="10" cx="331.414" cy="380.333" rx="5.5" ry="7.667"/>
<ellipse fill="#231F20" cx="333.438" cy="380.333" rx="2.69" ry="3.75"/>
<ellipse transform="matrix(0.4587 -0.8886 0.8886 0.4587 -170.8478 524.2892)" fill="#231F20" cx="344.925" cy="402.38" rx="1.167" ry="3.038"/>
<path id="PRIMARY_5_" fill="#F1F1F1" stroke="#231F20" stroke-miterlimit="10" d="M314.492,379.917
	c-0.155-4.041-2.555-7.251-5.492-7.251c-1.779,0-3.361,1.178-4.366,3.006L314.492,379.917z"/>
<path id="PRIMARY_6_" fill="#F1F1F1" stroke="#231F20" stroke-miterlimit="10" d="M325.819,379.917
	c0.155-4.041,2.555-7.251,5.492-7.251c1.779,0,3.361,1.178,4.366,3.006L325.819,379.917z"/>
</svg>
