<?xml version="1.0" encoding="utf-8"?>
<!-- Generator: Adobe Illustrator 16.0.0, SVG Export Plug-In . SVG Version: 6.00 Build 0)  -->
<svg version="1.1" id="Layer_1" xmlns="http://www.w3.org/2000/svg" xmlns:xlink="http://www.w3.org/1999/xlink" x="0px" y="0px"
	 width="612px" height="792px" viewBox="0 0 612 792" enable-background="new 0 0 612 792" xml:space="preserve">
<rect id="head_frame_1_" x="230.5" y="331.5" fill-opacity="0" fill="#231F20" width="151" height="131"/>
<path id="PRIMARY_1_" fill="#F1F1F1" stroke="#231F20" stroke-miterlimit="10" d="M346.235,401.609
	c0,27.08-16.775,49.033-37.468,49.033c-2.3,0-4.551-0.271-6.735-0.79s-4.304-1.286-6.339-2.277
	c-3.396,0.235-12.758,5.438-5.838-3.627c-7.783,8.545-13.791,5.754-5.229-4.838c-8.599,10.56-12.437,5.015-4.516-5.909
	c-7.923,10.922-10.131,4.246-3.696-6.844c-6.436,11.09-10.24,2.297-2.772-7.639c-7.468,9.936-10.28,1.086-1.74-8.295
	c-8.541,9.379-11.265-1.521-0.604-8.814c-10.662,7.283-10.409-4.086,0.604-8.814c-11.013,4.712-10.967-5.106,1.74-8.295
	c-12.688,3.079-9.734-10.071,2.771-7.639c-12.468-2.556-7.926-9.594,3.696-6.844c-11.622-2.75-7.258-6.536,4.517-5.91
	c-11.775-0.626-6.895-3.508,5.229-4.837c-12.123,1.329-6.692-2.946,5.838-3.627c-12.53,0.681-6.098-5.085,6.339-2.277
	c-12.437-2.808-4.929-4.719,6.735-0.79c-11.618-3.929,3.974,0.111,6.734,0.79c2.186,0.519,4.304,1.286,6.339,2.277
	C336.087,362.586,346.235,380.547,346.235,401.609z"/>
<path id="SECONDARY_4_" fill="#FFFA00" stroke="#231F20" stroke-miterlimit="10" d="M329.936,409.404
	c5.33,5.43,11.044,12.551,15.911,14.438c0.654,0.206,1.311,0.378,1.965,0.546c3.273,0.844,6.536,1.65,9.445,6.475
	c0.375,0.365,0.766,0.723,1.197,1.061c1.525,1.213,3.922,2.83,6.324,0.759c-3.222,8.235-8.167,15.474-12.155,12.876
	c0,0-0.479-0.31-1.328-0.863c-0.425-0.277-0.941-0.613-1.541-1.002c-5.271-1.578-10.827-3.396-16.162-8.21
	c-0.665-0.599-1.328-1.245-1.999-1.948c-0.679-0.527-7.393-5.859-8.072-6.412"/>
<path id="SECONDARY_3_" fill="#FFFA00" stroke="#231F20" stroke-miterlimit="10" d="M327.531,416.24
	c0.062-0.018,0.122-0.04,0.184-0.063c0.808-0.319,1.841-0.376,2.784,0.227c9.709,6.169,18.923,5.013,23.304,5.23
	c0.867,0.011,1.616,0.022,2.232,0.032c1.234,0.015,1.927,0.025,1.927,0.025c3.562,0.773,7.428,1.835,10.962,8.39
	c2.042,1.065,3.971,1.993,4.43,1.319c0.728-9.188-11.466-35.207-19.663-33.907c0,0-0.569,0.087-1.58,0.25
	c-0.506,0.077-1.121,0.176-1.833,0.29c-6.447-1.121-13.223-2.119-19.448,0.409c-0.779,0.315-1.549,0.686-2.32,1.113
	c-0.867,0.245-1.732,0.505-2.595,0.782"/>
<ellipse id="PRIMARY_3_" fill="#F1F1F1" stroke="#231F20" stroke-miterlimit="10" cx="309" cy="380.333" rx="5.5" ry="7.667"/>
<ellipse id="PRIMARY_2_" fill="#F1F1F1" stroke="#231F20" stroke-miterlimit="10" cx="331.414" cy="380.333" rx="5.5" ry="7.667"/>
<ellipse transform="matrix(0.721 -0.6929 0.6929 0.721 -180.8005 353.7202)" fill="#231F20" cx="348.843" cy="401.375" rx="1.167" ry="3.037"/>
<line fill="none" stroke="#231F20" stroke-miterlimit="10" x1="305" y1="375.083" x2="313.37" y2="384.976"/>
<line fill="none" stroke="#231F20" stroke-miterlimit="10" x1="335.414" y1="375.083" x2="327.045" y2="384.976"/>
</svg>
