<?xml version="1.0" encoding="utf-8"?>
<!-- Generator: Adobe Illustrator 16.0.0, SVG Export Plug-In . SVG Version: 6.00 Build 0)  -->
<svg version="1.1" id="Layer_1" xmlns="http://www.w3.org/2000/svg" xmlns:xlink="http://www.w3.org/1999/xlink" x="0px" y="0px"
	 width="612px" height="792px" viewBox="0 0 612 792" enable-background="new 0 0 612 792" xml:space="preserve">
<rect id="head_frame_1_" x="178" y="286" fill="#231F20" fill-opacity="0" width="256" height="222"/>
<path id="PRIMARY" fill="#F1F1F1" stroke="#231F20" stroke-width="1.695" stroke-miterlimit="10" d="M374.214,404.812
	c0,45.891-28.44,83.093-63.523,83.093c-3.899,0-7.715-0.459-11.417-1.339c-3.703-0.879-7.297-2.178-10.748-3.857
	c-5.758,0.396-21.629,9.215-9.897-6.146c-13.195,14.48-23.381,9.75-8.865-8.199c-14.579,17.895-21.085,8.498-7.656-10.014
	c-13.432,18.509-17.176,7.195-6.266-11.598c-10.912,18.793-17.361,3.893-4.7-12.947c-12.662,16.84-17.429,1.841-2.95-14.057
	c-14.48,15.895-19.098-2.576-1.024-14.936c-18.075,12.341-17.646-6.925,1.024-14.938c-18.671,7.985-18.593-8.652,2.95-14.057
	c-21.511,5.218-16.502-17.067,4.698-12.946c-21.138-4.332-13.438-16.258,6.266-11.598c-19.704-4.66-12.305-11.076,7.658-10.016
	c-19.963-1.061-11.689-5.944,8.865-8.197c-20.553,2.252-11.345-4.993,9.897-6.146c-21.243,1.154-10.338-8.617,10.748-3.859
	c-21.085-4.758-8.357-7.997,11.417-1.339c-19.696-6.658,6.738,0.188,11.417,1.339c3.707,0.879,7.297,2.179,10.747,3.859
	C357.008,338.68,374.214,369.118,374.214,404.812z"/>
<path id="SECONDARY_2_" fill="#FFFA00" stroke="#231F20" stroke-width="1.695" stroke-miterlimit="10" d="M343.141,429.608
	c12.227,4.115,26.331,10.482,35.14,9.6c1.146-0.189,2.27-0.436,3.389-0.682c5.595-1.236,11.146-2.526,19.248,2.529
	c0.848,0.264,1.714,0.504,2.624,0.684c3.237,0.66,8.102,1.265,10.141-3.71c1.456,14.917-0.458,29.649-8.483,28.786
	c0,0-0.96-0.102-2.67-0.285c-0.854-0.094-1.893-0.205-3.098-0.331c-9.179,1.663-18.972,3.18-30.732,0.004
	c-1.465-0.393-2.963-0.86-4.518-1.407c-1.433-0.277-15.674-3.179-17.128-3.492"/>
<path id="SECONDARY_1_" fill="#FFFA00" stroke="#231F20" stroke-width="1.695" stroke-miterlimit="10" d="M342.503,429.605
	c0.104-0.031,0.207-0.067,0.312-0.107c1.371-0.54,3.121-0.638,4.721,0.386c16.46,10.454,32.081,8.494,39.508,8.862
	c1.471,0.019,2.74,0.038,3.785,0.055c2.091,0.024,3.267,0.043,3.267,0.043c6.039,1.309,12.593,3.109,18.584,14.218
	c3.462,1.805,6.731,3.377,7.51,2.235c1.235-15.571-19.438-59.664-33.334-57.461c0,0-0.966,0.147-2.679,0.423
	c-0.857,0.131-1.901,0.299-3.107,0.492c-10.931-1.9-22.419-3.591-32.973,0.693c-1.321,0.533-2.625,1.162-3.934,1.885
	c-1.47,0.416-2.936,0.855-4.398,1.326"/>
<ellipse fill="#FFFFFF" stroke="#231F20" stroke-width="1.695" stroke-miterlimit="10" cx="311.086" cy="368.755" rx="9.324" ry="12.993"/>
<ellipse fill="#231F20" cx="314.519" cy="368.755" rx="4.56" ry="6.355"/>
<ellipse fill="#FFFFFF" stroke="#231F20" stroke-width="1.695" stroke-miterlimit="10" cx="349.086" cy="368.755" rx="9.324" ry="12.993"/>
<ellipse fill="#231F20" cx="352.517" cy="368.755" rx="4.562" ry="6.355"/>
<ellipse transform="matrix(-0.6931 -0.7208 0.7208 -0.6931 349.4926 957.6982)" fill="#231F20" cx="378.609" cy="404.454" rx="5.148" ry="1.978"/>
</svg>
