<?xml version="1.0" encoding="utf-8"?>
<!-- Generator: Adobe Illustrator 16.0.0, SVG Export Plug-In . SVG Version: 6.00 Build 0)  -->
<svg version="1.1" id="Layer_1" xmlns="http://www.w3.org/2000/svg" xmlns:xlink="http://www.w3.org/1999/xlink" x="0px" y="0px"
	 width="612px" height="792px" viewBox="0 0 612 792" enable-background="new 0 0 612 792" xml:space="preserve">
<rect x="178" y="310.177" fill="#231F20" fill-opacity="0" width="256" height="172"/>
<path id="SECONDARY_50_" fill="#8C8900" stroke="#231F20" stroke-width="3.1586" stroke-miterlimit="10" d="M240.951,371.751
	c0-8.39,5.932-15.193,13.245-15.193c7.313,0,13.246,6.799,13.246,15.193v22.893c0,3.72-1.21,7.076-3.141,9.715h-12.319
	c-3.688,0-7.162-1.751-10.259-4.79c-0.461-1.554-0.771-3.194-0.771-4.928V371.751L240.951,371.751z"/>
<path id="SECONDARY_49_" fill="#8C8900" stroke="#231F20" stroke-width="3.1586" stroke-miterlimit="10" d="M274.177,370.564
	c0-8.392,5.929-15.193,13.246-15.193c7.313,0,13.245,6.799,13.245,15.193v22.892c0,4.179-1.478,7.964-3.862,10.717h-18.77
	c-2.386-2.75-3.861-6.535-3.861-10.717v-22.892H274.177z"/>
<path id="SECONDARY_48_" fill="#8C8900" stroke="#231F20" stroke-width="3.1586" stroke-miterlimit="10" d="M307.401,370.564
	c0-8.392,5.932-15.193,13.243-15.193c7.315,0,13.247,6.799,13.247,15.193v22.892c0,4.179-1.475,7.964-3.86,10.717h-18.772
	c-2.386-2.75-3.86-6.535-3.86-10.717v-22.892H307.401z"/>
<path id="SECONDARY_47_" fill="#8C8900" stroke="#231F20" stroke-width="3.1586" stroke-miterlimit="10" d="M340.627,392.785
	v-22.893c0-8.391,5.932-15.193,13.246-15.193c7.315,0,13.244,6.799,13.244,15.193v17.57c-4.269,10.204-10.697,16.708-17.895,16.708
	h-4.034C342.414,401.384,340.627,397.34,340.627,392.785z"/>
<path id="SECONDARY_46_" fill="#8C8900" stroke="#231F20" stroke-width="3.1586" stroke-miterlimit="10" d="M371.333,343.726
	L352.33,356.28c-7.009,4.63-16.441,2.711-21.077-4.29c-4.636-6.993-2.713-16.418,4.293-21.046l19.114-12.631
	c1.43-0.946,2.976-1.549,4.547-1.962C364.92,321.758,369.346,331.626,371.333,343.726z"/>
</svg>
