<?xml version="1.0" encoding="utf-8"?>
<!-- Generator: Adobe Illustrator 16.0.0, SVG Export Plug-In . SVG Version: 6.00 Build 0)  -->
<svg version="1.1" id="Layer_1" xmlns="http://www.w3.org/2000/svg" xmlns:xlink="http://www.w3.org/1999/xlink" x="0px" y="0px"
	 width="612px" height="792px" viewBox="0 0 612 792" enable-background="new 0 0 612 792" xml:space="preserve">
<rect x="178" y="310.177" fill="#231F20" fill-opacity="0" width="256" height="172"/>
<path id="SECONDARY_40_" fill="#8C8900" stroke="#231F20" stroke-width="3.1586" stroke-miterlimit="10" d="M252.136,404.461h15.559
	v19.27c0,8.389-5.932,15.192-13.245,15.192c-7.313,0-13.246-6.798-13.246-15.192v-22.893c0-0.576,0.091-1.119,0.148-1.677
	C244.572,402.531,248.242,404.461,252.136,404.461z"/>
<path id="SECONDARY_39_" fill="#8C8900" stroke="#231F20" stroke-width="3.1586" stroke-miterlimit="10" d="M300.921,404.461v19.27
	c0,8.389-5.932,15.192-13.246,15.192c-7.316,0-13.247-6.798-13.247-15.192v-19.27H300.921z"/>
<path id="SECONDARY_38_" fill="#8C8900" stroke="#231F20" stroke-width="3.1586" stroke-miterlimit="10" d="M334.145,404.267v19.464
	c0,8.389-5.932,15.192-13.246,15.192c-7.313,0-13.244-6.798-13.244-15.192v-19.464H334.145z"/>
<path id="SECONDARY_37_" fill="#8C8900" stroke="#231F20" stroke-width="3.1586" stroke-miterlimit="10" d="M349.571,404.461
	c6.093,0,11.617-4.689,15.765-12.308c1.266,2.331,2.034,5.063,2.034,8.017v22.892c0,8.389-5.929,15.192-13.247,15.192
	c-7.312,0-13.243-6.801-13.243-15.192v-18.601H349.571L349.571,404.461z"/>
<path id="SECONDARY_36_" fill="#8C8900" stroke="#231F20" stroke-width="3.1586" stroke-miterlimit="10" d="M372.836,357.994
	c0-3.473-0.209-6.843-0.577-10.099c3.806-0.082,7.648,1.225,10.667,4.009l16.833,15.531c6.173,5.695,6.556,15.304,0.855,21.47
	c-5.701,6.162-15.321,6.543-21.494,0.852l-9.41-8.681C371.688,374.273,372.836,366.41,372.836,357.994z"/>
</svg>
