<?xml version="1.0" encoding="utf-8"?>
<!-- Generator: Adobe Illustrator 16.0.0, SVG Export Plug-In . SVG Version: 6.00 Build 0)  -->
<svg version="1.1" id="Layer_1" xmlns="http://www.w3.org/2000/svg" xmlns:xlink="http://www.w3.org/1999/xlink" x="0px" y="0px"
	 width="612px" height="792px" viewBox="0 0 612 792" enable-background="new 0 0 612 792" xml:space="preserve">
<rect x="178" y="310.292" fill="#231F20" fill-opacity="0" width="256" height="171.77"/>
<path id="SECONDARY_34_" fill="#8C8900" stroke="#231F20" stroke-width="3.1565" stroke-miterlimit="10" d="M229.904,358.578
	c0,25.523,10.417,46.21,23.259,46.21h97.247c12.853,0,23.266-20.689,23.266-46.21l0,0c0-25.52-10.413-46.21-23.266-46.21h-97.247
	C240.321,312.368,229.904,333.058,229.904,358.578L229.904,358.578z"/>
<rect id="PRIMARY_285_" x="233.596" y="315.975" fill="#F1F1F1" stroke="#231F20" stroke-width="3.1565" stroke-miterlimit="10" width="136.88" height="10.444"/>
<rect id="PRIMARY_284_" x="230.847" y="332.261" fill="#F1F1F1" stroke="#231F20" stroke-width="3.1565" stroke-miterlimit="10" width="138.687" height="13.301"/>
<polygon id="PRIMARY_283_" fill="#F1F1F1" stroke="#231F20" stroke-width="3.1565" stroke-miterlimit="10" points="231.144,370.343 
	373.447,347.126 372.534,325.023 230.23,348.248 "/>
<polygon id="PRIMARY_282_" fill="#F1F1F1" stroke="#231F20" stroke-width="3.1565" stroke-miterlimit="10" points="366.071,391.459 
	228.191,362.163 227.546,374.211 365.423,403.501 "/>
<rect id="PRIMARY_281_" x="239.497" y="391.162" fill="#F1F1F1" stroke="#231F20" stroke-width="3.1565" stroke-miterlimit="10" width="130.037" height="8.768"/>
<rect id="PRIMARY_280_" x="229.904" y="368.812" fill="#F1F1F1" stroke="#231F20" stroke-width="3.1565" stroke-miterlimit="10" width="143.194" height="14.617"/>
<polygon id="PRIMARY_279_" fill="#F1F1F1" stroke="#231F20" stroke-width="3.1565" stroke-miterlimit="10" points="230.214,352.901 
	375.824,384.366 376.599,370.246 230.989,338.784 "/>
<rect id="PRIMARY_278_" x="229.904" y="354.613" fill="#F1F1F1" stroke="#231F20" stroke-width="3.1565" stroke-miterlimit="10" width="146.469" height="8.767"/>
</svg>
