<?xml version="1.0" encoding="utf-8"?>
<!-- Generator: Adobe Illustrator 16.0.0, SVG Export Plug-In . SVG Version: 6.00 Build 0)  -->
<svg version="1.1" id="Layer_1" xmlns="http://www.w3.org/2000/svg" xmlns:xlink="http://www.w3.org/1999/xlink" x="0px" y="0px"
	 width="612px" height="792px" viewBox="0 0 612 792" enable-background="new 0 0 612 792" xml:space="preserve">
<rect x="265.5" y="368.933" fill-opacity="0" fill="#231F20" width="81" height="54.487"/>
<path id="SECONDARY_35_" fill="#8C8900" stroke="#231F20" stroke-miterlimit="10" d="M327.115,384.25
	c0,8.096-3.295,14.658-7.359,14.658h-30.77c-4.065,0-7.361-6.563-7.361-14.658l0,0c0-8.095,3.296-14.657,7.361-14.657h30.77
	C323.82,369.593,327.115,376.155,327.115,384.25L327.115,384.25z"/>
<rect id="PRIMARY_293_" x="282.639" y="370.736" fill="#F1F1F1" stroke="#231F20" stroke-miterlimit="10" width="43.309" height="3.313"/>
<rect id="PRIMARY_292_" x="282.937" y="375.903" fill="#F1F1F1" stroke="#231F20" stroke-miterlimit="10" width="43.882" height="4.219"/>
<polygon id="PRIMARY_291_" fill="#F1F1F1" stroke="#231F20" stroke-miterlimit="10" points="326.723,387.982 281.698,380.617 
	281.987,373.606 327.013,380.973 "/>
<polygon id="PRIMARY_290_" fill="#F1F1F1" stroke="#231F20" stroke-miterlimit="10" points="284.032,394.681 327.658,385.388 
	327.862,389.21 284.237,398.501 "/>
<rect id="PRIMARY_289_" x="282.937" y="394.586" fill="#F1F1F1" stroke="#231F20" stroke-miterlimit="10" width="41.144" height="2.782"/>
<rect id="PRIMARY_288_" x="281.809" y="387.497" fill="#F1F1F1" stroke="#231F20" stroke-miterlimit="10" width="45.307" height="4.637"/>
<polygon id="PRIMARY_287_" fill="#F1F1F1" stroke="#231F20" stroke-miterlimit="10" points="327.018,382.45 280.945,392.43 
	280.701,387.952 326.773,377.972 "/>
<rect id="PRIMARY_286_" x="280.771" y="382.992" fill="#F1F1F1" stroke="#231F20" stroke-miterlimit="10" width="46.344" height="2.782"/>
</svg>
