<?xml version="1.0" encoding="utf-8"?>
<!-- Generator: Adobe Illustrator 16.0.0, SVG Export Plug-In . SVG Version: 6.00 Build 0)  -->
<svg version="1.1" id="Layer_1" xmlns="http://www.w3.org/2000/svg" xmlns:xlink="http://www.w3.org/1999/xlink" x="0px" y="0px"
	 width="612px" height="792px" viewBox="0 0 612 792" enable-background="new 0 0 612 792" xml:space="preserve">
<rect x="265.5" y="368.933" fill-opacity="0" fill="#231F20" width="81" height="54.487"/>
<path id="SECONDARY_40_" fill="#8C8900" stroke="#231F20" stroke-miterlimit="10" d="M288.957,398.801h4.923v6.104
	c0,2.658-1.877,4.813-4.191,4.813s-4.191-2.154-4.191-4.813v-7.252c0-0.182,0.029-0.354,0.047-0.531
	C286.564,398.189,287.725,398.801,288.957,398.801z"/>
<path id="SECONDARY_39_" fill="#8C8900" stroke="#231F20" stroke-miterlimit="10" d="M304.393,398.801v6.104
	c0,2.658-1.877,4.813-4.191,4.813c-2.315,0-4.191-2.154-4.191-4.813v-6.104H304.393z"/>
<path id="SECONDARY_38_" fill="#8C8900" stroke="#231F20" stroke-miterlimit="10" d="M314.905,398.739v6.166
	c0,2.658-1.877,4.813-4.191,4.813s-4.191-2.154-4.191-4.813v-6.166H314.905z"/>
<path id="SECONDARY_37_" fill="#8C8900" stroke="#231F20" stroke-miterlimit="10" d="M319.786,398.801
	c1.928,0,3.676-1.486,4.988-3.899c0.401,0.738,0.644,1.604,0.644,2.539v7.252c0,2.658-1.876,4.813-4.191,4.813
	c-2.314,0-4.191-2.154-4.191-4.813v-5.892H319.786z"/>
<path id="SECONDARY_36_" fill="#8C8900" stroke="#231F20" stroke-miterlimit="10" d="M327.147,384.081
	c0-1.1-0.066-2.168-0.182-3.199c1.204-0.026,2.42,0.388,3.375,1.27l5.326,4.92c1.953,1.804,2.074,4.848,0.271,6.801
	c-1.804,1.952-4.848,2.073-6.801,0.27l-2.978-2.75C326.784,389.238,327.147,386.747,327.147,384.081z"/>
</svg>
