<?xml version="1.0" encoding="utf-8"?>
<!-- Generator: Adobe Illustrator 16.0.0, SVG Export Plug-In . SVG Version: 6.00 Build 0)  -->
<svg version="1.1" id="Layer_1" xmlns="http://www.w3.org/2000/svg" xmlns:xlink="http://www.w3.org/1999/xlink" x="0px" y="0px"
	 width="612px" height="792px" viewBox="0 0 612 792" enable-background="new 0 0 612 792" xml:space="preserve">
<rect x="266.5" y="356.58" fill-opacity="0" fill="#231F20" width="81" height="78.207"/>
<path id="SECONDARY_32_" fill="#8C8900" stroke="#231F20" stroke-miterlimit="10" d="M299.625,430.518
	c3.711,4.117,9.254,5.172,12.381,2.353l14.026-12.642c3.126-2.818,2.651-8.441-1.06-12.559l-27.779-30.819
	c-3.711-4.118-9.255-5.171-12.381-2.354l-14.025,12.643c-3.127,2.818-2.652,8.441,1.059,12.558L299.625,430.518z"/>
<rect id="PRIMARY_250_" x="264.284" y="381.401" transform="matrix(-0.7428 0.6695 -0.6695 -0.7428 742.8463 480.3416)" fill="#F1F1F1" stroke="#231F20" stroke-miterlimit="10" width="29.748" height="2.917"/>
<polygon id="PRIMARY_249_" fill="#F1F1F1" stroke="#231F20" stroke-miterlimit="10" points="269.674,396.861 297.654,377.145 
	296.307,375.436 268.326,395.152 "/>
<polygon id="PRIMARY_248_" fill="#F1F1F1" stroke="#231F20" stroke-miterlimit="10" points="273.709,402.279 297.754,377.042 
	296.844,376.113 272.799,401.35 "/>
<rect id="PRIMARY_247_" x="271.794" y="392.106" transform="matrix(-0.7428 0.6695 -0.6695 -0.7428 766.8302 491.4658)" fill="#F1F1F1" stroke="#231F20" stroke-miterlimit="10" width="34.442" height="1.837"/>
<rect id="PRIMARY_246_" x="264.743" y="384.025" transform="matrix(-0.7428 0.6695 -0.6695 -0.7428 748.7831 482.0215)" fill="#F1F1F1" stroke="#231F20" stroke-miterlimit="10" width="34.127" height="1.62"/>
<rect id="PRIMARY_245_" x="266.409" y="387.315" transform="matrix(0.7428 -0.6695 0.6695 0.7428 -187.0721 289.9402)" fill="#F1F1F1" stroke="#231F20" stroke-miterlimit="10" width="34.859" height="2.283"/>
<rect id="PRIMARY_244_" x="269.769" y="389.212" transform="matrix(-0.7428 0.6695 -0.6695 -0.7428 761.7977 488.9054)" fill="#F1F1F1" stroke="#231F20" stroke-miterlimit="10" width="34.442" height="3.132"/>
<rect id="PRIMARY_243_" x="272.319" y="394.389" transform="matrix(-0.7428 0.6695 -0.6695 -0.7428 769.7625 493.929)" fill="#F1F1F1" stroke="#231F20" stroke-miterlimit="10" width="35.375" height="0.865"/>
<rect id="PRIMARY_242_" x="277.261" y="398.516" transform="matrix(0.7428 -0.6695 0.6695 0.7428 -191.6652 300.1851)" fill="#F1F1F1" stroke="#231F20" stroke-miterlimit="10" width="35.185" height="2.052"/>
<rect id="PRIMARY_241_" x="274.211" y="395.607" transform="matrix(0.7428 -0.6695 0.6695 0.7428 -190.6666 297.5167)" fill="#F1F1F1" stroke="#231F20" stroke-miterlimit="10" width="35.376" height="2.628"/>
<rect id="PRIMARY_240_" x="280.044" y="402.008" transform="matrix(-0.7428 0.6695 -0.6695 -0.7428 789.2815 504.0381)" fill="#F1F1F1" stroke="#231F20" stroke-miterlimit="10" width="35.557" height="3.241"/>
<polygon id="PRIMARY_239_" fill="#F1F1F1" stroke="#231F20" stroke-miterlimit="10" points="287.44,417.338 308.078,387.929 
	305.357,385.573 284.721,414.98 "/>
<polygon id="PRIMARY_238_" fill="#F1F1F1" stroke="#231F20" stroke-miterlimit="10" points="286.727,416.773 317.121,398.467 
	315.349,396.033 284.956,414.338 "/>
<rect id="PRIMARY_237_" x="283.474" y="404.687" transform="matrix(-0.7428 0.6695 -0.6695 -0.7428 795.8647 506.2204)" fill="#F1F1F1" stroke="#231F20" stroke-miterlimit="10" width="34.443" height="2.593"/>
<rect id="PRIMARY_236_" x="286.499" y="409.333" transform="matrix(0.7428 -0.6695 0.6695 0.7428 -196.3486 309.1767)" fill="#F1F1F1" stroke="#231F20" stroke-miterlimit="10" width="35.462" height="1.62"/>
<rect id="PRIMARY_235_" x="288.931" y="412.314" transform="matrix(-0.7428 0.6695 -0.6695 -0.7428 810.5914 514.42)" fill="#F1F1F1" stroke="#231F20" stroke-miterlimit="10" width="35.11" height="1.188"/>
<polygon id="PRIMARY_234_" fill="#F1F1F1" stroke="#231F20" stroke-miterlimit="10" points="320.08,401.189 289.452,420.269 
	287.276,417.328 317.903,398.247 "/>
<polygon id="PRIMARY_233_" fill="#F1F1F1" stroke="#231F20" stroke-miterlimit="10" points="280.912,410.797 301.498,379.545 
	298.471,377.013 277.887,408.264 "/>
<polygon id="PRIMARY_232_" fill="#F1F1F1" stroke="#231F20" stroke-miterlimit="10" points="271.336,401.041 310.554,392.049 
	309.575,389.97 270.357,398.962 "/>
<rect id="PRIMARY_231_" x="290.563" y="413.077" transform="matrix(-0.7428 0.6695 -0.6695 -0.7428 815.3418 516.3622)" fill="#F1F1F1" stroke="#231F20" stroke-miterlimit="10" width="35.853" height="3.426"/>
<rect id="PRIMARY_230_" x="293.32" y="417.698" transform="matrix(0.7428 -0.6695 0.6695 0.7428 -199.9448 315.7605)" fill="#F1F1F1" stroke="#231F20" stroke-miterlimit="10" width="35.375" height="0.842"/>
<rect id="PRIMARY_229_" x="301.346" y="424.191" transform="matrix(0.7428 -0.6695 0.6695 0.7428 -203.1729 321.4672)" fill="#F1F1F1" stroke="#231F20" stroke-miterlimit="10" width="30.951" height="1.967"/>
<polygon id="PRIMARY_228_" fill="#F1F1F1" stroke="#231F20" stroke-miterlimit="10" points="296.32,428.064 328.979,413.494 
	327.649,411.371 294.992,425.941 "/>
<rect id="PRIMARY_227_" x="298.947" y="418.43" transform="matrix(-0.7428 0.6695 -0.6695 -0.7428 829.6486 521.0906)" fill="#F1F1F1" stroke="#231F20" stroke-miterlimit="10" width="31.58" height="2.937"/>
<rect id="PRIMARY_226_" x="292.575" y="416.602" transform="matrix(-0.7428 0.6695 -0.6695 -0.7428 820.1812 519.4614)" fill="#F1F1F1" stroke="#231F20" stroke-miterlimit="10" width="35.47" height="1.345"/>
<polygon id="PRIMARY_225_" fill="#F1F1F1" stroke="#231F20" stroke-miterlimit="10" points="304.26,436.128 322.022,403.844 
	319.412,401.854 301.648,434.138 "/>
<polygon id="PRIMARY_224_" fill="#F1F1F1" stroke="#231F20" stroke-miterlimit="10" points="298.284,429.352 326.775,412.14 
	328.715,414.803 300.223,432.014 "/>
</svg>
