<?xml version="1.0" encoding="utf-8"?>
<!-- Generator: Adobe Illustrator 16.0.0, SVG Export Plug-In . SVG Version: 6.00 Build 0)  -->
<svg version="1.1" id="Layer_1" xmlns="http://www.w3.org/2000/svg" xmlns:xlink="http://www.w3.org/1999/xlink" x="0px" y="0px"
	 width="612px" height="792px" viewBox="0 0 612 792" enable-background="new 0 0 612 792" xml:space="preserve">
<rect x="265.5" y="368.933" fill-opacity="0" fill="#231F20" width="81" height="54.487"/>
<path id="SECONDARY_34_" fill="#8C8900" stroke="#231F20" stroke-miterlimit="10" d="M281.923,384.25
	c0,8.096,3.296,14.658,7.359,14.658h30.77c4.066,0,7.361-6.563,7.361-14.658l0,0c0-8.095-3.295-14.658-7.361-14.658h-30.77
	C285.219,369.592,281.923,376.155,281.923,384.25L281.923,384.25z"/>
<rect id="PRIMARY_285_" x="283.091" y="370.736" fill="#F1F1F1" stroke="#231F20" stroke-miterlimit="10" width="43.309" height="3.313"/>
<rect id="PRIMARY_284_" x="282.221" y="375.902" fill="#F1F1F1" stroke="#231F20" stroke-miterlimit="10" width="43.882" height="4.219"/>
<polygon id="PRIMARY_283_" fill="#F1F1F1" stroke="#231F20" stroke-miterlimit="10" points="282.315,387.982 327.341,380.617 
	327.052,373.606 282.026,380.973 "/>
<polygon id="PRIMARY_282_" fill="#F1F1F1" stroke="#231F20" stroke-miterlimit="10" points="325.007,394.68 281.381,385.387 
	281.177,389.209 324.802,398.5 "/>
<rect id="PRIMARY_281_" x="284.958" y="394.586" fill="#F1F1F1" stroke="#231F20" stroke-miterlimit="10" width="41.145" height="2.781"/>
<rect id="PRIMARY_280_" x="281.923" y="387.496" fill="#F1F1F1" stroke="#231F20" stroke-miterlimit="10" width="45.307" height="4.637"/>
<polygon id="PRIMARY_279_" fill="#F1F1F1" stroke="#231F20" stroke-miterlimit="10" points="282.021,382.449 328.093,392.43 
	328.338,387.951 282.266,377.971 "/>
<rect id="PRIMARY_278_" x="281.923" y="382.992" fill="#F1F1F1" stroke="#231F20" stroke-miterlimit="10" width="46.344" height="2.781"/>
</svg>
