<?xml version="1.0" encoding="utf-8"?>
<!-- Generator: Adobe Illustrator 16.0.0, SVG Export Plug-In . SVG Version: 6.00 Build 0)  -->
<svg version="1.1" id="Layer_1" xmlns="http://www.w3.org/2000/svg" xmlns:xlink="http://www.w3.org/1999/xlink" x="0px" y="0px"
	 width="612px" height="792px" viewBox="0 0 612 792" enable-background="new 0 0 612 792" xml:space="preserve">
<rect x="179.034" y="272.39" fill="#231F20" fill-opacity="0" width="255.932" height="243.462"/>
<path id="SECONDARY_32_" fill="#8C8900" stroke="#231F20" stroke-width="3.1363" stroke-miterlimit="10" d="M283.697,502.561
	c11.726,12.816,29.239,16.103,39.119,7.326l44.319-39.357c9.877-8.771,8.374-26.275-3.352-39.095l-87.771-95.94
	c-11.725-12.82-29.242-16.097-39.119-7.328l-44.314,39.358c-9.88,8.772-8.38,26.277,3.346,39.094L283.697,502.561z"/>
<polygon id="PRIMARY_250_" fill="#F1F1F1" stroke="#231F20" stroke-width="3.1363" stroke-miterlimit="10" points="257.04,326.541 
	187.222,388.542 181.052,381.796 250.87,319.797 "/>
<polygon id="PRIMARY_249_" fill="#F1F1F1" stroke="#231F20" stroke-width="3.1363" stroke-miterlimit="10" points="189.062,397.787 
	277.469,336.409 273.214,331.089 184.804,392.465 "/>
<polygon id="PRIMARY_248_" fill="#F1F1F1" stroke="#231F20" stroke-width="3.1363" stroke-miterlimit="10" points="201.812,414.653 
	277.786,336.088 274.91,333.196 198.936,411.759 "/>
<polygon id="PRIMARY_247_" fill="#F1F1F1" stroke="#231F20" stroke-width="3.1363" stroke-miterlimit="10" points="292.55,352.07 
	211.715,423.853 207.829,419.605 288.664,347.821 "/>
<polygon id="PRIMARY_246_" fill="#F1F1F1" stroke="#231F20" stroke-width="3.1363" stroke-miterlimit="10" points="269.17,326.66 
	189.074,397.787 185.648,394.04 265.742,322.914 "/>
<polygon id="PRIMARY_245_" fill="#F1F1F1" stroke="#231F20" stroke-width="3.1363" stroke-miterlimit="10" points="190.484,405.308 
	272.298,332.654 277.128,337.934 195.313,410.586 "/>
<polygon id="PRIMARY_244_" fill="#F1F1F1" stroke="#231F20" stroke-width="3.1363" stroke-miterlimit="10" points="287.523,346.57 
	206.688,418.353 200.063,411.111 280.899,339.328 "/>
<polygon id="PRIMARY_243_" fill="#F1F1F1" stroke="#231F20" stroke-width="3.1363" stroke-miterlimit="10" points="295.753,355.553 
	212.729,429.279 210.899,427.281 293.923,353.552 "/>
<polygon id="PRIMARY_242_" fill="#F1F1F1" stroke="#231F20" stroke-width="3.1363" stroke-miterlimit="10" points="225.136,440.481 
	307.716,367.15 312.055,371.896 229.476,445.228 "/>
<polygon id="PRIMARY_241_" fill="#F1F1F1" stroke="#231F20" stroke-width="3.1363" stroke-miterlimit="10" points="214.978,431.806 
	298.005,358.076 303.566,364.153 220.538,437.883 "/>
<polygon id="PRIMARY_240_" fill="#F1F1F1" stroke="#231F20" stroke-width="3.1363" stroke-miterlimit="10" points="323.178,385.505 
	239.726,459.613 232.872,452.119 316.321,378.011 "/>
<polygon id="PRIMARY_239_" fill="#F1F1F1" stroke="#231F20" stroke-width="3.1363" stroke-miterlimit="10" points="245.197,461.531 
	310.406,369.98 301.809,362.646 236.606,454.192 "/>
<polygon id="PRIMARY_238_" fill="#F1F1F1" stroke="#231F20" stroke-width="3.1363" stroke-miterlimit="10" points="242.944,459.773 
	338.979,402.785 333.379,395.209 237.349,452.192 "/>
<polygon id="PRIMARY_237_" fill="#F1F1F1" stroke="#231F20" stroke-width="3.1363" stroke-miterlimit="10" points="330.263,393.252 
	249.424,465.036 243.939,459.041 324.776,387.256 "/>
<polygon id="PRIMARY_236_" fill="#F1F1F1" stroke="#231F20" stroke-width="3.1363" stroke-miterlimit="10" points="254.901,474.232 
	338.131,400.325 341.559,404.07 258.328,477.979 "/>
<polygon id="PRIMARY_235_" fill="#F1F1F1" stroke="#231F20" stroke-width="3.1363" stroke-miterlimit="10" points="347.854,412.516 
	265.449,485.69 262.936,482.942 345.339,409.768 "/>
<polygon id="PRIMARY_234_" fill="#F1F1F1" stroke="#231F20" stroke-width="3.1363" stroke-miterlimit="10" points="348.328,411.261 
	251.555,470.654 244.679,461.501 341.451,402.101 "/>
<polygon id="PRIMARY_233_" fill="#F1F1F1" stroke="#231F20" stroke-width="3.1363" stroke-miterlimit="10" points="224.571,441.169 
	289.616,343.88 280.052,335.999 215.014,433.283 "/>
<polygon id="PRIMARY_232_" fill="#F1F1F1" stroke="#231F20" stroke-width="3.1363" stroke-miterlimit="10" points="194.314,410.799 
	318.229,382.805 315.137,376.334 191.221,404.326 "/>
<polygon id="PRIMARY_231_" fill="#F1F1F1" stroke="#231F20" stroke-width="3.1363" stroke-miterlimit="10" points="357.419,420.198 
	273.271,494.924 266.023,487.001 350.171,412.275 "/>
<polygon id="PRIMARY_230_" fill="#F1F1F1" stroke="#231F20" stroke-width="3.1363" stroke-miterlimit="10" points="277.242,499.854 
	360.267,426.126 362.05,428.075 279.024,501.803 "/>
<polygon id="PRIMARY_229_" fill="#F1F1F1" stroke="#231F20" stroke-width="3.1363" stroke-miterlimit="10" points="299.615,515.906 
	372.258,451.398 376.417,455.949 303.775,520.457 "/>
<polygon id="PRIMARY_228_" fill="#F1F1F1" stroke="#231F20" stroke-width="3.1363" stroke-miterlimit="10" points="273.254,494.924 
	376.444,449.565 372.245,442.956 269.06,488.314 "/>
<polygon id="PRIMARY_227_" fill="#F1F1F1" stroke="#231F20" stroke-width="3.1363" stroke-miterlimit="10" points="371.622,440.014 
	297.502,505.831 291.29,499.04 365.407,433.222 "/>
<polygon id="PRIMARY_226_" fill="#F1F1F1" stroke="#231F20" stroke-width="3.1363" stroke-miterlimit="10" points="360.529,425.89 
	277.281,499.814 274.436,496.705 357.684,422.779 "/>
<polygon id="PRIMARY_225_" fill="#F1F1F1" stroke="#231F20" stroke-width="3.1363" stroke-miterlimit="10" points="298.342,520.025 
	354.466,419.523 346.218,413.328 290.089,513.83 "/>
<polygon id="PRIMARY_224_" fill="#F1F1F1" stroke="#231F20" stroke-width="3.1363" stroke-miterlimit="10" points="279.461,498.93 
	369.483,445.349 375.611,453.639 285.587,507.218 "/>
</svg>
