<?xml version="1.0" encoding="utf-8"?>
<!-- Generator: Adobe Illustrator 16.0.0, SVG Export Plug-In . SVG Version: 6.00 Build 0)  -->
<svg version="1.1" id="Layer_1" xmlns="http://www.w3.org/2000/svg" xmlns:xlink="http://www.w3.org/1999/xlink" x="0px" y="0px"
	 width="612px" height="792px" viewBox="0 0 612 792" enable-background="new 0 0 612 792" xml:space="preserve">
<rect x="191" y="269.349" fill="#231F20" fill-opacity="0" width="230" height="254.752"/>
<path id="SECONDARY_33_" fill="#8C8900" stroke="#231F20" stroke-width="2.8459" stroke-miterlimit="10" d="M349.064,480.051
	c0,22.714-9.19,41.126-20.531,41.126h-50.872c-11.341,0-20.535-18.412-20.535-41.126V310.069c0-22.71,9.193-41.125,20.535-41.125
	h50.872c11.341,0,20.531,18.415,20.531,41.125V480.051z"/>
<rect id="PRIMARY_277_" x="263.984" y="272.906" fill="#F1F1F1" stroke="#231F20" stroke-width="2.8459" stroke-miterlimit="10" width="80.149" height="11.948"/>
<polygon id="PRIMARY_276_" fill="#F1F1F1" stroke="#231F20" stroke-width="2.8459" stroke-miterlimit="10" points="348.299,295.48 
	256.729,312.225 256.349,303.329 347.913,286.58 "/>
<polygon id="PRIMARY_275_" fill="#F1F1F1" stroke="#231F20" stroke-width="2.8459" stroke-miterlimit="10" points="349.993,323.035 
	256.349,312.188 256.493,306.863 350.137,317.711 "/>
<rect id="PRIMARY_274_" x="256.266" y="333.094" fill="#F1F1F1" stroke="#231F20" stroke-width="2.8459" stroke-miterlimit="10" width="92.799" height="7.523"/>
<rect id="PRIMARY_273_" x="256.349" y="288.839" fill="#F1F1F1" stroke="#231F20" stroke-width="2.8459" stroke-miterlimit="10" width="91.95" height="6.641"/>
<rect id="PRIMARY_272_" x="257.828" y="304.076" fill="#F1F1F1" stroke="#231F20" stroke-width="2.8459" stroke-miterlimit="10" width="93.92" height="9.354"/>
<rect id="PRIMARY_271_" x="256.266" y="318.046" fill="#F1F1F1" stroke="#231F20" stroke-width="2.8459" stroke-miterlimit="10" width="92.799" height="12.833"/>
<rect id="PRIMARY_270_" x="256.266" y="343.273" fill="#F1F1F1" stroke="#231F20" stroke-width="2.8459" stroke-miterlimit="10" width="95.316" height="3.543"/>
<rect id="PRIMARY_269_" x="255.338" y="368.5" fill="#F1F1F1" stroke="#231F20" stroke-width="2.8459" stroke-miterlimit="10" width="94.799" height="8.408"/>
<rect id="PRIMARY_268_" x="256.266" y="351.24" fill="#F1F1F1" stroke="#231F20" stroke-width="2.8459" stroke-miterlimit="10" width="95.316" height="10.764"/>
<rect id="PRIMARY_267_" x="256.266" y="386.644" fill="#F1F1F1" stroke="#231F20" stroke-width="2.8459" stroke-miterlimit="10" width="95.805" height="13.277"/>
<polygon id="PRIMARY_266_" fill="#F1F1F1" stroke="#231F20" stroke-width="2.8459" stroke-miterlimit="10" points="349.68,406.525 
	255.323,373.64 256.525,359.004 350.869,391.892 "/>
<polygon id="PRIMARY_265_" fill="#F1F1F1" stroke="#231F20" stroke-width="2.8459" stroke-miterlimit="10" points="350.087,402.849 
	256.238,430.508 255.395,418.241 349.241,390.58 "/>
<rect id="PRIMARY_264_" x="256.266" y="403.019" fill="#F1F1F1" stroke="#231F20" stroke-width="2.8459" stroke-miterlimit="10" width="92.799" height="10.626"/>
<rect id="PRIMARY_263_" x="255.323" y="427.36" fill="#F1F1F1" stroke="#231F20" stroke-width="2.8459" stroke-miterlimit="10" width="95.543" height="6.641"/>
<rect id="PRIMARY_262_" x="256.266" y="442.854" fill="#F1F1F1" stroke="#231F20" stroke-width="2.8459" stroke-miterlimit="10" width="94.601" height="4.866"/>
<polygon id="PRIMARY_261_" fill="#F1F1F1" stroke="#231F20" stroke-width="2.8459" stroke-miterlimit="10" points="255.222,446.909 
	350.938,420.963 349.984,406.046 254.273,431.99 "/>
<polygon id="PRIMARY_260_" fill="#F1F1F1" stroke="#231F20" stroke-width="2.8459" stroke-miterlimit="10" points="350.944,368.713 
	253.369,330.076 254.861,314.066 352.431,352.707 "/>
<polygon id="PRIMARY_259_" fill="#F1F1F1" stroke="#231F20" stroke-width="2.8459" stroke-miterlimit="10" points="352.514,312.76 
	257.799,392.967 256.013,383.957 350.717,303.746 "/>
<rect id="PRIMARY_258_" x="254.659" y="449.494" fill="#F1F1F1" stroke="#231F20" stroke-width="2.8459" stroke-miterlimit="10" width="96.596" height="14.031"/>
<rect id="PRIMARY_257_" x="256.266" y="471.823" fill="#F1F1F1" stroke="#231F20" stroke-width="2.8459" stroke-miterlimit="10" width="95.316" height="3.448"/>
<rect id="PRIMARY_256_" x="263.323" y="506.932" fill="#F1F1F1" stroke="#231F20" stroke-width="2.8459" stroke-miterlimit="10" width="83.39" height="8.059"/>
<polygon id="PRIMARY_255_" fill="#F1F1F1" stroke="#231F20" stroke-width="2.8459" stroke-miterlimit="10" points="351.255,463.525 
	259.614,508.77 258.444,498.664 350.084,453.422 "/>
<rect id="PRIMARY_254_" x="257.124" y="483.177" fill="#F1F1F1" stroke="#231F20" stroke-width="2.8459" stroke-miterlimit="10" width="85.085" height="12.033"/>
<rect id="PRIMARY_253_" x="256.013" y="466.308" fill="#F1F1F1" stroke="#231F20" stroke-width="2.8459" stroke-miterlimit="10" width="95.572" height="5.516"/>
<polygon id="PRIMARY_252_" fill="#F1F1F1" stroke="#231F20" stroke-width="2.8459" stroke-miterlimit="10" points="349.912,509.84 
	256.127,460.318 257.763,447.104 351.546,496.625 "/>
<polygon id="PRIMARY_251_" fill="#F1F1F1" stroke="#231F20" stroke-width="2.8459" stroke-miterlimit="10" points="349.646,472.831 
	261.582,498.6 262.505,512.023 350.567,486.246 "/>
<ellipse fill="none" stroke="#231F20" stroke-width="2.8459" stroke-miterlimit="10" cx="303.871" cy="292.861" rx="7.098" ry="7.131"/>
<ellipse fill="none" stroke="#231F20" stroke-width="2.8459" stroke-miterlimit="10" cx="303.871" cy="502.909" rx="7.098" ry="7.131"/>
</svg>
