<?xml version="1.0" encoding="utf-8"?>
<!-- Generator: Adobe Illustrator 16.0.0, SVG Export Plug-In . SVG Version: 6.00 Build 0)  -->
<svg version="1.1" id="Layer_1" xmlns="http://www.w3.org/2000/svg" xmlns:xlink="http://www.w3.org/1999/xlink" x="0px" y="0px"
	 width="612px" height="792px" viewBox="0 0 612 792" enable-background="new 0 0 612 792" xml:space="preserve">
<rect x="265.5" y="368.933" fill-opacity="0" fill="#231F20" width="81" height="54.487"/>
<path id="SECONDARY_45_" fill="#8C8900" stroke="#231F20" stroke-miterlimit="10" d="M319.784,399.191h-4.922v6.104
	c0,2.658,1.877,4.813,4.191,4.813s4.191-2.154,4.191-4.813v-7.252c0-0.182-0.029-0.354-0.047-0.531
	C322.177,398.58,321.017,399.191,319.784,399.191z"/>
<path id="SECONDARY_44_" fill="#8C8900" stroke="#231F20" stroke-miterlimit="10" d="M304.349,399.191v6.104
	c0,2.658,1.877,4.813,4.191,4.813c2.315,0,4.191-2.154,4.191-4.813v-6.104H304.349z"/>
<path id="SECONDARY_43_" fill="#8C8900" stroke="#231F20" stroke-miterlimit="10" d="M293.837,399.13v6.166
	c0,2.658,1.876,4.813,4.191,4.813c2.314,0,4.191-2.154,4.191-4.813v-6.166H293.837z"/>
<path id="SECONDARY_42_" fill="#8C8900" stroke="#231F20" stroke-miterlimit="10" d="M288.956,399.191
	c-1.928,0-3.676-1.486-4.988-3.899c-0.402,0.738-0.645,1.604-0.645,2.539v7.252c0,2.658,1.877,4.813,4.191,4.813
	s4.191-2.154,4.191-4.813v-5.892H288.956z"/>
<path id="SECONDARY_41_" fill="#8C8900" stroke="#231F20" stroke-miterlimit="10" d="M281.595,384.472
	c0-1.1,0.065-2.168,0.181-3.199c-1.204-0.026-2.419,0.388-3.374,1.27l-5.327,4.92c-1.953,1.804-2.073,4.848-0.271,6.801
	c1.803,1.952,4.848,2.073,6.801,0.27l2.977-2.75C281.957,389.629,281.595,387.138,281.595,384.472z"/>
</svg>
