<?xml version="1.0" encoding="utf-8"?>
<!-- Generator: Adobe Illustrator 16.0.0, SVG Export Plug-In . SVG Version: 6.00 Build 0)  -->
<svg version="1.1" id="Layer_1" xmlns="http://www.w3.org/2000/svg" xmlns:xlink="http://www.w3.org/1999/xlink" x="0px" y="0px"
	 width="612px" height="792px" viewBox="0 0 612 792" enable-background="new 0 0 612 792" xml:space="preserve">
<rect x="265.5" y="368.933" fill-opacity="0" fill="#231F20" width="81" height="54.487"/>
<path id="SECONDARY_50_" fill="#8C8900" stroke="#231F20" stroke-miterlimit="10" d="M285.418,388.439
	c0-2.658,1.877-4.813,4.191-4.813s4.191,2.154,4.191,4.813v7.252c0,1.178-0.383,2.242-0.994,3.078h-3.898
	c-1.167,0-2.266-0.555-3.246-1.518c-0.146-0.492-0.244-1.012-0.244-1.561V388.439z"/>
<path id="SECONDARY_49_" fill="#8C8900" stroke="#231F20" stroke-miterlimit="10" d="M295.931,388.063
	c0-2.658,1.876-4.813,4.191-4.813c2.314,0,4.191,2.154,4.191,4.813v7.252c0,1.324-0.468,2.523-1.222,3.395h-5.939
	c-0.755-0.871-1.222-2.07-1.222-3.395V388.063z"/>
<path id="SECONDARY_48_" fill="#8C8900" stroke="#231F20" stroke-miterlimit="10" d="M306.443,388.063
	c0-2.658,1.877-4.813,4.191-4.813s4.191,2.154,4.191,4.813v7.252c0,1.324-0.467,2.523-1.222,3.395h-5.939
	c-0.755-0.871-1.222-2.07-1.222-3.395V388.063z"/>
<path id="SECONDARY_47_" fill="#8C8900" stroke="#231F20" stroke-miterlimit="10" d="M316.956,395.102v-7.252
	c0-2.658,1.877-4.813,4.191-4.813c2.315,0,4.191,2.154,4.191,4.813v5.566c-1.351,3.232-3.385,5.293-5.662,5.293h-1.277
	C317.521,397.826,316.956,396.545,316.956,395.102z"/>
<path id="SECONDARY_46_" fill="#8C8900" stroke="#231F20" stroke-miterlimit="10" d="M326.672,379.561l-6.013,3.977
	c-2.218,1.467-5.202,0.859-6.669-1.359c-1.467-2.215-0.858-5.201,1.359-6.667l6.047-4.001c0.453-0.3,0.942-0.491,1.439-0.622
	C324.643,372.602,326.043,375.728,326.672,379.561z"/>
</svg>
