<?xml version="1.0" encoding="utf-8"?>
<!-- Generator: Adobe Illustrator 16.0.0, SVG Export Plug-In . SVG Version: 6.00 Build 0)  -->
<svg version="1.1" id="Layer_1" xmlns="http://www.w3.org/2000/svg" xmlns:xlink="http://www.w3.org/1999/xlink" x="0px" y="0px"
	 width="612px" height="792px" viewBox="0 0 612 792" enable-background="new 0 0 612 792" xml:space="preserve">
<rect x="265.5" y="368.933" fill-opacity="0" fill="#231F20" width="81" height="54.487"/>
<path id="SECONDARY_55_" fill="#8C8900" stroke="#231F20" stroke-miterlimit="10" d="M320.049,398.888
	c0.829,0,1.623-0.285,2.367-0.788c-0.007,0.527-0.098,1.029-0.24,1.505c-0.98,0.962-2.078,1.517-3.245,1.517h-3.899
	c-0.461-0.631-0.791-1.393-0.926-2.233H320.049z"/>
<path id="SECONDARY_54_" fill="#8C8900" stroke="#231F20" stroke-miterlimit="10" d="M311.735,398.959
	c-0.196,0.802-0.552,1.527-1.05,2.102h-5.939c-0.497-0.574-0.853-1.3-1.049-2.102H311.735z"/>
<path id="SECONDARY_53_" fill="#8C8900" stroke="#231F20" stroke-miterlimit="10" d="M301.223,398.959
	c-0.196,0.802-0.552,1.527-1.049,2.102h-5.939c-0.498-0.574-0.854-1.3-1.05-2.102H301.223z"/>
<path id="SECONDARY_52_" fill="#8C8900" stroke="#231F20" stroke-miterlimit="10" d="M289.295,398.959h1.348
	c-0.241,0.816-0.649,1.545-1.203,2.102h-1.277c-2.277,0-4.313-2.06-5.662-5.293v-5.566c0-0.063,0.014-0.122,0.016-0.186
	C283.635,395.271,286.249,398.959,289.295,398.959z"/>
<path id="SECONDARY_51_" fill="#8C8900" stroke="#231F20" stroke-miterlimit="10" d="M282.324,380.34l-2.158-1.428
	c0.629-3.832,2.029-6.958,3.836-8.673c0.498,0.131,0.986,0.322,1.439,0.622l0.57,0.377
	C284.223,373.102,282.87,376.385,282.324,380.34z"/>
</svg>
