<?xml version="1.0" encoding="utf-8"?>
<!-- Generator: Adobe Illustrator 16.0.0, SVG Export Plug-In . SVG Version: 6.00 Build 0)  -->
<svg version="1.1" id="Layer_1" xmlns="http://www.w3.org/2000/svg" xmlns:xlink="http://www.w3.org/1999/xlink" x="0px" y="0px"
	 width="612px" height="792px" viewBox="0 0 612 792" enable-background="new 0 0 612 792" xml:space="preserve">
<rect x="178" y="310.177" fill="#231F20" fill-opacity="0" width="256" height="172"/>
<path id="SECONDARY_55_" fill="#8C8900" stroke="#231F20" stroke-width="3.1586" stroke-miterlimit="10" d="M350.401,404.734
	c2.62,0,5.13-0.899,7.481-2.487c-0.021,1.665-0.309,3.249-0.76,4.754c-3.096,3.036-6.567,4.787-10.256,4.787h-12.321
	c-1.456-1.991-2.5-4.399-2.926-7.05h18.781V404.734z"/>
<path id="SECONDARY_54_" fill="#8C8900" stroke="#231F20" stroke-width="3.1586" stroke-miterlimit="10" d="M324.127,404.96
	c-0.621,2.531-1.747,4.821-3.321,6.634h-18.769c-1.571-1.81-2.696-4.103-3.316-6.634H324.127z"/>
<path id="SECONDARY_53_" fill="#8C8900" stroke="#231F20" stroke-width="3.1586" stroke-miterlimit="10" d="M290.903,404.96
	c-0.621,2.531-1.746,4.821-3.316,6.634h-18.77c-1.574-1.81-2.699-4.103-3.318-6.634H290.903z"/>
<path id="SECONDARY_52_" fill="#8C8900" stroke="#231F20" stroke-width="3.1586" stroke-miterlimit="10" d="M253.204,404.96h4.261
	c-0.762,2.577-2.051,4.877-3.802,6.634h-4.036c-7.198,0-13.631-6.501-17.895-16.707v-17.57c0-0.199,0.045-0.385,0.051-0.587
	C235.315,393.318,243.577,404.96,253.204,404.96z"/>
<path id="SECONDARY_51_" fill="#8C8900" stroke="#231F20" stroke-width="3.1586" stroke-miterlimit="10" d="M231.173,346.185
	l-6.821-4.507c1.988-12.097,6.412-21.965,12.124-27.38c1.574,0.415,3.116,1.018,4.548,1.964l1.803,1.19
	C237.174,323.337,232.898,333.699,231.173,346.185z"/>
</svg>
