<?xml version="1.0" encoding="utf-8"?>
<!-- Generator: Adobe Illustrator 16.0.0, SVG Export Plug-In . SVG Version: 6.00 Build 0)  -->
<svg version="1.1" id="Layer_1" xmlns="http://www.w3.org/2000/svg" xmlns:xlink="http://www.w3.org/1999/xlink" x="0px" y="0px"
	 width="612px" height="792px" viewBox="0 0 612 792" enable-background="new 0 0 612 792" xml:space="preserve">
<rect x="178" y="310.177" fill="#231F20" fill-opacity="0" width="256" height="172"/>
<path id="SECONDARY_35_" fill="#8C8900" stroke="#231F20" stroke-width="3.1586" stroke-miterlimit="10" d="M372.734,358.528
	c0,25.557-10.413,46.272-23.259,46.272h-97.249c-12.847,0-23.264-20.718-23.264-46.272l0,0c0-25.555,10.417-46.269,23.264-46.269
	h97.249C362.321,312.259,372.734,332.973,372.734,358.528L372.734,358.528z"/>
<rect id="PRIMARY_293_" x="232.168" y="315.867" fill="#F1F1F1" stroke="#231F20" stroke-width="3.1586" stroke-miterlimit="10" width="136.878" height="10.458"/>
<rect id="PRIMARY_292_" x="233.109" y="332.178" fill="#F1F1F1" stroke="#231F20" stroke-width="3.1586" stroke-miterlimit="10" width="138.69" height="13.319"/>
<polygon id="PRIMARY_291_" fill="#F1F1F1" stroke="#231F20" stroke-width="3.1586" stroke-miterlimit="10" points="371.494,370.309 
	229.194,347.06 230.106,324.927 372.41,348.184 "/>
<polygon id="PRIMARY_290_" fill="#F1F1F1" stroke="#231F20" stroke-width="3.1586" stroke-miterlimit="10" points="236.571,391.456 
	374.45,362.121 375.096,374.185 237.218,403.514 "/>
<rect id="PRIMARY_289_" x="233.109" y="391.155" fill="#F1F1F1" stroke="#231F20" stroke-width="3.1586" stroke-miterlimit="10" width="130.036" height="8.783"/>
<rect id="PRIMARY_288_" x="229.545" y="368.778" fill="#F1F1F1" stroke="#231F20" stroke-width="3.1586" stroke-miterlimit="10" width="143.192" height="14.637"/>
<polygon id="PRIMARY_287_" fill="#F1F1F1" stroke="#231F20" stroke-width="3.1586" stroke-miterlimit="10" points="372.426,352.846 
	226.813,384.351 226.043,370.214 371.654,338.71 "/>
<rect id="PRIMARY_286_" x="226.264" y="354.557" fill="#F1F1F1" stroke="#231F20" stroke-width="3.1586" stroke-miterlimit="10" width="146.471" height="8.781"/>
</svg>
