<?xml version="1.0" encoding="utf-8"?>
<!-- Generator: Adobe Illustrator 16.0.0, SVG Export Plug-In . SVG Version: 6.00 Build 0)  -->
<svg version="1.1" id="Layer_1" xmlns="http://www.w3.org/2000/svg" xmlns:xlink="http://www.w3.org/1999/xlink" x="0px" y="0px"
	 width="612px" height="792px" viewBox="0 0 612 792" enable-background="new 0 0 612 792" xml:space="preserve">
<rect x="265.5" y="351.937" fill-opacity="0" fill="#231F20" width="81" height="89.313"/>
<path id="SECONDARY_33_" fill="#8C8900" stroke="#231F20" stroke-miterlimit="10" d="M321.166,425.807
	c0,7.963-3.236,14.418-7.23,14.418H296.02c-3.994,0-7.232-6.455-7.232-14.418v-59.594c0-7.962,3.238-14.418,7.232-14.418h17.916
	c3.994,0,7.23,6.456,7.23,14.418V425.807z"/>
<rect id="PRIMARY_277_" x="291.203" y="353.184" fill="#F1F1F1" stroke="#231F20" stroke-miterlimit="10" width="28.227" height="4.189"/>
<polygon id="PRIMARY_276_" fill="#F1F1F1" stroke="#231F20" stroke-miterlimit="10" points="320.896,361.098 288.648,366.969 
	288.514,363.85 320.761,357.978 "/>
<polygon id="PRIMARY_275_" fill="#F1F1F1" stroke="#231F20" stroke-miterlimit="10" points="321.493,370.759 288.514,366.956 
	288.565,365.089 321.544,368.892 "/>
<rect id="PRIMARY_274_" x="288.485" y="374.285" fill="#F1F1F1" stroke="#231F20" stroke-miterlimit="10" width="32.681" height="2.638"/>
<rect id="PRIMARY_273_" x="288.514" y="358.77" fill="#F1F1F1" stroke="#231F20" stroke-miterlimit="10" width="32.382" height="2.328"/>
<rect id="PRIMARY_272_" x="289.035" y="364.112" fill="#F1F1F1" stroke="#231F20" stroke-miterlimit="10" width="33.076" height="3.279"/>
<rect id="PRIMARY_271_" x="288.485" y="369.01" fill="#F1F1F1" stroke="#231F20" stroke-miterlimit="10" width="32.681" height="4.499"/>
<rect id="PRIMARY_270_" x="288.485" y="377.854" fill="#F1F1F1" stroke="#231F20" stroke-miterlimit="10" width="33.568" height="1.242"/>
<rect id="PRIMARY_269_" x="288.158" y="386.698" fill="#F1F1F1" stroke="#231F20" stroke-miterlimit="10" width="33.386" height="2.948"/>
<rect id="PRIMARY_268_" x="288.485" y="380.647" fill="#F1F1F1" stroke="#231F20" stroke-miterlimit="10" width="33.568" height="3.774"/>
<rect id="PRIMARY_267_" x="288.485" y="393.059" fill="#F1F1F1" stroke="#231F20" stroke-miterlimit="10" width="33.74" height="4.655"/>
<polygon id="PRIMARY_266_" fill="#F1F1F1" stroke="#231F20" stroke-miterlimit="10" points="321.383,400.029 288.153,388.5 
	288.576,383.369 321.802,394.899 "/>
<polygon id="PRIMARY_265_" fill="#F1F1F1" stroke="#231F20" stroke-miterlimit="10" points="321.526,398.74 288.475,408.438 
	288.178,404.137 321.229,394.439 "/>
<rect id="PRIMARY_264_" x="288.485" y="398.8" fill="#F1F1F1" stroke="#231F20" stroke-miterlimit="10" width="32.681" height="3.725"/>
<rect id="PRIMARY_263_" x="288.153" y="407.334" fill="#F1F1F1" stroke="#231F20" stroke-miterlimit="10" width="33.648" height="2.328"/>
<rect id="PRIMARY_262_" x="288.485" y="412.766" fill="#F1F1F1" stroke="#231F20" stroke-miterlimit="10" width="33.316" height="1.706"/>
<polygon id="PRIMARY_261_" fill="#F1F1F1" stroke="#231F20" stroke-miterlimit="10" points="288.117,414.188 321.826,405.091 
	321.49,399.861 287.783,408.957 "/>
<polygon id="PRIMARY_260_" fill="#F1F1F1" stroke="#231F20" stroke-miterlimit="10" points="321.828,386.773 287.465,373.227 
	287.99,367.614 322.352,381.161 "/>
<polygon id="PRIMARY_259_" fill="#F1F1F1" stroke="#231F20" stroke-miterlimit="10" points="322.381,367.156 289.025,395.276 
	288.396,392.117 321.748,363.996 "/>
<rect id="PRIMARY_258_" x="287.919" y="415.094" fill="#F1F1F1" stroke="#231F20" stroke-miterlimit="10" width="34.018" height="4.919"/>
<rect id="PRIMARY_257_" x="288.485" y="422.922" fill="#F1F1F1" stroke="#231F20" stroke-miterlimit="10" width="33.568" height="1.209"/>
<rect id="PRIMARY_256_" x="290.97" y="435.23" fill="#F1F1F1" stroke="#231F20" stroke-miterlimit="10" width="29.368" height="2.826"/>
<polygon id="PRIMARY_255_" fill="#F1F1F1" stroke="#231F20" stroke-miterlimit="10" points="321.937,420.013 289.664,435.875 
	289.252,432.332 321.525,416.471 "/>
<rect id="PRIMARY_254_" x="288.787" y="426.902" fill="#F1F1F1" stroke="#231F20" stroke-miterlimit="10" width="29.965" height="4.219"/>
<rect id="PRIMARY_253_" x="288.396" y="420.988" fill="#F1F1F1" stroke="#231F20" stroke-miterlimit="10" width="33.658" height="1.934"/>
<polygon id="PRIMARY_252_" fill="#F1F1F1" stroke="#231F20" stroke-miterlimit="10" points="321.465,436.25 288.436,418.889 
	289.012,414.256 322.04,431.617 "/>
<polygon id="PRIMARY_251_" fill="#F1F1F1" stroke="#231F20" stroke-miterlimit="10" points="321.371,423.275 290.357,432.31 
	290.682,437.016 321.695,427.979 "/>
<circle fill="none" stroke="#231F20" stroke-miterlimit="10" cx="305.25" cy="360.18" r="2.5"/>
<circle fill="none" stroke="#231F20" stroke-miterlimit="10" cx="305.25" cy="433.82" r="2.5"/>
</svg>
