<?xml version="1.0" encoding="utf-8"?>
<!-- Generator: Adobe Illustrator 16.0.0, SVG Export Plug-In . SVG Version: 6.00 Build 0)  -->
<svg version="1.1" id="Layer_1" xmlns="http://www.w3.org/2000/svg" xmlns:xlink="http://www.w3.org/1999/xlink" x="0px" y="0px"
	 width="612px" height="792px" viewBox="0 0 612 792" enable-background="new 0 0 612 792" xml:space="preserve">
<rect x="178" y="310.177" fill="#231F20" fill-opacity="0" width="256" height="172"/>
<path id="SECONDARY_45_" fill="#8C8900" stroke="#231F20" stroke-width="3.1586" stroke-miterlimit="10" d="M349.564,405.693
	h-15.556v19.268c0,8.391,5.933,15.194,13.244,15.194c7.315,0,13.247-6.8,13.247-15.194v-22.893c0-0.573-0.093-1.116-0.148-1.677
	C357.127,403.764,353.46,405.693,349.564,405.693z"/>
<path id="SECONDARY_44_" fill="#8C8900" stroke="#231F20" stroke-width="3.1586" stroke-miterlimit="10" d="M300.782,405.693v19.268
	c0,8.391,5.931,15.194,13.245,15.194c7.318,0,13.247-6.8,13.247-15.194v-19.268H300.782z"/>
<path id="SECONDARY_43_" fill="#8C8900" stroke="#231F20" stroke-width="3.1586" stroke-miterlimit="10" d="M267.559,405.499v19.465
	c0,8.392,5.929,15.194,13.245,15.194c7.313,0,13.247-6.8,13.247-15.194v-19.465H267.559z"/>
<path id="SECONDARY_42_" fill="#8C8900" stroke="#231F20" stroke-width="3.1586" stroke-miterlimit="10" d="M252.133,405.693
	c-6.094,0-11.619-4.691-15.766-12.309c-1.27,2.331-2.037,5.065-2.037,8.015v22.893c0,8.391,5.932,15.194,13.246,15.194
	c7.313,0,13.245-6.8,13.245-15.194v-18.599H252.133L252.133,405.693z"/>
<path id="SECONDARY_41_" fill="#8C8900" stroke="#231F20" stroke-width="3.1586" stroke-miterlimit="10" d="M228.869,359.229
	c0-3.473,0.206-6.844,0.571-10.099c-3.806-0.082-7.645,1.226-10.664,4.009l-16.835,15.531c-6.173,5.695-6.553,15.304-0.856,21.47
	c5.697,6.161,15.321,6.543,21.494,0.853l9.409-8.681C230.012,375.507,228.869,367.645,228.869,359.229z"/>
</svg>
