<?xml version="1.0" encoding="utf-8"?>
<!-- Generator: Adobe Illustrator 16.0.0, SVG Export Plug-In . SVG Version: 6.00 Build 0)  -->
<svg version="1.1" id="Layer_1" xmlns="http://www.w3.org/2000/svg" xmlns:xlink="http://www.w3.org/1999/xlink" x="0px" y="0px"
	 width="612px" height="792px" viewBox="0 0 612 792" enable-background="new 0 0 612 792" xml:space="preserve">
<rect x="278.5" y="344.963" fill-opacity="0" fill="#231F20" width="57" height="103.121"/>
<path id="SECONDARY_7_" fill="#7CD5FF" stroke="#231F20" stroke-miterlimit="10" d="M314.184,425.849
	c0,3.55-3.439,6.427-7.684,6.427l0,0c-4.242,0-7.682-2.877-7.682-6.427v-74.46c0-3.548,3.439-6.426,7.682-6.426l0,0
	c4.244,0,7.684,2.878,7.684,6.426V425.849z"/>
<path fill="none" stroke="#231F20" stroke-miterlimit="10" d="M298.816,362.087c0,4.537,15.367,4.589,15.367,0"/>
<path fill="none" stroke="#231F20" stroke-miterlimit="10" d="M298.816,355.334c0,4.538,15.367,4.59,15.367,0"/>
<path fill="none" stroke="#231F20" stroke-miterlimit="10" d="M298.816,368.839c0,4.538,15.367,4.59,15.367,0"/>
<path fill="none" stroke="#231F20" stroke-miterlimit="10" d="M298.816,375.591c0,4.538,15.367,4.59,15.367,0"/>
<path fill="none" stroke="#231F20" stroke-miterlimit="10" d="M298.816,382.344c0,4.537,15.367,4.589,15.367,0"/>
<path fill="none" stroke="#231F20" stroke-miterlimit="10" d="M298.816,389.095c0,4.538,15.367,4.59,15.367,0"/>
<path fill="none" stroke="#231F20" stroke-miterlimit="10" d="M298.816,395.847c0,4.538,15.367,4.59,15.367,0"/>
<path fill="none" stroke="#231F20" stroke-miterlimit="10" d="M298.816,402.6c0,4.537,15.367,4.589,15.367,0"/>
<path fill="none" stroke="#231F20" stroke-miterlimit="10" d="M298.816,409.352c0,4.537,15.367,4.59,15.367,0"/>
<path fill="none" stroke="#231F20" stroke-miterlimit="10" d="M298.816,416.104c0,4.538,15.367,4.59,15.367,0"/>
<path fill="none" stroke="#231F20" stroke-miterlimit="10" d="M298.816,422.855c0,4.538,15.367,4.59,15.367,0"/>
<circle fill="none" stroke="#231F20" stroke-miterlimit="10" cx="306.5" cy="354.534" r="2.5"/>
<circle fill="none" stroke="#231F20" stroke-miterlimit="10" cx="304" cy="427.534" r="2.5"/>
</svg>
