<?xml version="1.0" encoding="utf-8"?>
<!-- Generator: Adobe Illustrator 16.0.0, SVG Export Plug-In . SVG Version: 6.00 Build 0)  -->
<svg version="1.1" id="Layer_1" xmlns="http://www.w3.org/2000/svg" xmlns:xlink="http://www.w3.org/1999/xlink" x="0px" y="0px"
	 width="612px" height="792px" viewBox="0 0 612 792" enable-background="new 0 0 612 792" xml:space="preserve">
<rect x="236.5" y="268.917" fill="#231F20" fill-opacity="0" width="141" height="255.213"/>
<path id="SECONDARY_7_" fill="#7CD5FF" stroke="#231F20" stroke-width="2.4743" stroke-miterlimit="10" d="M324.77,469.101
	c0,8.787-8.505,15.907-19.006,15.907l0,0c-10.494,0-19.003-7.12-19.003-15.907v-184.28c0-8.782,8.507-15.904,19.003-15.904l0,0
	c10.499,0,19.006,7.123,19.006,15.904V469.101z"/>
<path fill="none" stroke="#231F20" stroke-width="2.4743" stroke-miterlimit="10" d="M286.755,311.297
	c0,11.229,38.012,11.357,38.012,0"/>
<path fill="none" stroke="#231F20" stroke-width="2.4743" stroke-miterlimit="10" d="M286.755,294.584
	c0,11.231,38.012,11.359,38.012,0"/>
<path fill="none" stroke="#231F20" stroke-width="2.4743" stroke-miterlimit="10" d="M286.755,328.007
	c0,11.231,38.012,11.36,38.012,0"/>
<path fill="none" stroke="#231F20" stroke-width="2.4743" stroke-miterlimit="10" d="M286.755,344.717
	c0,11.231,38.012,11.361,38.012,0"/>
<path fill="none" stroke="#231F20" stroke-width="2.4743" stroke-miterlimit="10" d="M286.755,361.43
	c0,11.229,38.012,11.358,38.012,0"/>
<path fill="none" stroke="#231F20" stroke-width="2.4743" stroke-miterlimit="10" d="M286.755,378.14
	c0,11.23,38.012,11.359,38.012,0"/>
<path fill="none" stroke="#231F20" stroke-width="2.4743" stroke-miterlimit="10" d="M286.755,394.85
	c0,11.23,38.012,11.358,38.012,0"/>
<path fill="none" stroke="#231F20" stroke-width="2.4743" stroke-miterlimit="10" d="M286.755,411.562
	c0,11.229,38.012,11.359,38.012,0"/>
<path fill="none" stroke="#231F20" stroke-width="2.4743" stroke-miterlimit="10" d="M286.755,428.271
	c0,11.229,38.012,11.362,38.012,0"/>
<path fill="none" stroke="#231F20" stroke-width="2.4743" stroke-miterlimit="10" d="M286.755,444.982
	c0,11.23,38.012,11.361,38.012,0"/>
<path fill="none" stroke="#231F20" stroke-width="2.4743" stroke-miterlimit="10" d="M286.755,461.692
	c0,11.229,38.012,11.359,38.012,0"/>
<circle fill="none" stroke="#231F20" stroke-width="2.4743" stroke-miterlimit="10" cx="305.763" cy="292.605" r="6.187"/>
<circle fill="none" stroke="#231F20" stroke-width="2.4743" stroke-miterlimit="10" cx="299.579" cy="473.271" r="6.188"/>
</svg>
