<?xml version="1.0" encoding="utf-8"?>
<!-- Generator: Adobe Illustrator 16.0.0, SVG Export Plug-In . SVG Version: 6.00 Build 0)  -->
<svg version="1.1" id="Layer_1" xmlns="http://www.w3.org/2000/svg" xmlns:xlink="http://www.w3.org/1999/xlink" x="0px" y="0px"
	 width="612px" height="792px" viewBox="0 0 612 792" enable-background="new 0 0 612 792" xml:space="preserve">
<rect x="271.592" y="379.106" fill-opacity="0" fill="#231F20" width="69.979" height="35"/>
<path id="SECONDARY_9_" fill="#7CD5FF" stroke="#231F20" stroke-miterlimit="10" d="M328.944,401.732
	c-1.05,2.223-3.365,3.541-5.173,2.944l-18.428-6.076c-1.808-0.596-2.425-2.881-1.375-5.104l0,0c1.048-2.224,3.365-3.541,5.173-2.944
	l18.428,6.075C329.378,397.224,329.993,399.508,328.944,401.732L328.944,401.732z"/>
<path fill="none" stroke="#231F20" stroke-miterlimit="10" d="M323.002,404.144c-1.876-0.62,1.786-8.438,3.685-7.811"/>
<path fill="none" stroke="#231F20" stroke-miterlimit="10" d="M318.803,402.758c-1.878-0.619,1.789-8.435,3.687-7.81"/>
<path fill="none" stroke="#231F20" stroke-miterlimit="10" d="M314.604,401.374c-1.874-0.618,1.789-8.436,3.687-7.81"/>
<path fill="none" stroke="#231F20" stroke-miterlimit="10" d="M310.408,399.99c-1.878-0.619,1.789-8.436,3.687-7.81"/>
<path fill="none" stroke="#231F20" stroke-miterlimit="10" d="M306.152,398.729c-1.875-0.618,1.786-8.436,3.685-7.811"/>
<polygon fill="#FFFFFF" stroke="#231F20" stroke-miterlimit="10" points="326.619,401.667 328.588,399.214 335.47,411.648 
	324.651,404.122 "/>
<path id="SECONDARY_5_" fill="#7CD5FF" stroke="#231F20" stroke-miterlimit="10" d="M278.87,402.195
	c0.603,2.223,1.934,3.541,2.973,2.944l10.59-6.076c1.04-0.596,1.394-2.881,0.791-5.104l0,0c-0.602-2.224-1.934-3.541-2.973-2.944
	l-10.589,6.075C278.621,397.687,278.267,399.971,278.87,402.195L278.87,402.195z"/>
<path fill="none" stroke="#231F20" stroke-miterlimit="10" d="M283.284,404.606c1.079-0.62-1.026-8.438-2.117-7.811"/>
<path fill="none" stroke="#231F20" stroke-miterlimit="10" d="M287.11,401.837c1.077-0.618-1.028-8.436-2.119-7.81"/>
<path fill="none" stroke="#231F20" stroke-miterlimit="10" d="M290.968,400.191c1.078-0.618-1.027-8.436-2.118-7.811"/>
<polygon fill="#FFFFFF" stroke="#231F20" stroke-miterlimit="10" points="280.206,402.13 279.074,399.677 275.12,412.111 
	281.336,404.585 "/>
<path id="SECONDARY_8_" fill="#7CD5FF" stroke="#231F20" stroke-miterlimit="10" d="M307.182,398.806c0,0.839-3.439,1.52-7.684,1.52
	l0,0c-4.242,0-7.682-0.681-7.682-1.52v-17.593c0-0.838,3.439-1.519,7.682-1.519l0,0c4.244,0,7.684,0.681,7.684,1.519V398.806z"/>
<path fill="none" stroke="#231F20" stroke-miterlimit="10" d="M291.817,385.079c0,4.538,15.367,4.59,15.367,0"/>
<path fill="none" stroke="#231F20" stroke-miterlimit="10" d="M291.817,391.832c0,4.537,15.367,4.589,15.367,0"/>
<path id="SECONDARY_6_" fill="#7CD5FF" stroke="#231F20" stroke-miterlimit="10" d="M318.417,402.077
	c-0.877,2.223-2.813,3.541-4.323,2.944l-15.403-6.076c-1.511-0.596-2.026-2.881-1.149-5.104l0,0
	c0.876-2.224,2.813-3.541,4.324-2.944l15.402,6.075C318.779,397.568,319.294,399.853,318.417,402.077L318.417,402.077z"/>
<path fill="none" stroke="#231F20" stroke-miterlimit="10" d="M313.45,404.488c-1.568-0.62,1.493-8.438,3.08-7.811"/>
<path fill="none" stroke="#231F20" stroke-miterlimit="10" d="M309.94,403.103c-1.569-0.619,1.495-8.435,3.081-7.81"/>
<path fill="none" stroke="#231F20" stroke-miterlimit="10" d="M306.432,401.719c-1.566-0.618,1.495-8.436,3.081-7.81"/>
<path fill="none" stroke="#231F20" stroke-miterlimit="10" d="M302.924,400.335c-1.569-0.619,1.495-8.436,3.081-7.81"/>
<path fill="none" stroke="#231F20" stroke-miterlimit="10" d="M299.366,399.073c-1.568-0.618,1.493-8.436,3.08-7.811"/>
<polygon fill="#FFFFFF" stroke="#231F20" stroke-miterlimit="10" points="316.474,402.012 318.119,399.559 323.871,411.993 
	314.829,404.467 "/>
</svg>
