<?xml version="1.0" encoding="utf-8"?>
<!-- Generator: Adobe Illustrator 16.0.0, SVG Export Plug-In . SVG Version: 6.00 Build 0)  -->
<svg version="1.1" id="Layer_1" xmlns="http://www.w3.org/2000/svg" xmlns:xlink="http://www.w3.org/1999/xlink" x="0px" y="0px"
	 width="612px" height="792px" viewBox="0 0 612 792" enable-background="new 0 0 612 792" xml:space="preserve">
<rect x="236.5" y="268.659" fill-opacity="0" fill="#231F20" width="141" height="255.729"/>
<path id="PRIMARY_18_" fill="#666666" stroke="#231F20" stroke-width="2.4768" stroke-miterlimit="10" d="M345.612,414.624
	c0,11.396-17.84,20.636-39.851,20.636l0,0c-22.008,0-39.851-9.239-39.851-20.636V290.571c0-11.396,17.843-20.636,39.851-20.636l0,0
	c22.011,0,39.851,9.239,39.851,20.636V414.624z"/>
<path stroke="#231F20" stroke-width="2.4768" stroke-miterlimit="10" d="M345.612,286.733c0,11.397-17.84-4.686-39.851-4.686l0,0
	c-22.008,0-39.851,16.083-39.851,4.686v3.838c0-11.396,17.843-20.636,39.851-20.636l0,0c22.011,0,39.851,9.239,39.851,20.636
	V286.733z"/>
<ellipse id="PRIMARY_17_" fill="#666666" stroke="#231F20" stroke-width="2.4768" stroke-miterlimit="10" cx="305.762" cy="353.941" rx="27.289" ry="35.462"/>
<ellipse fill="none" stroke="#231F20" stroke-width="2.4768" stroke-miterlimit="10" cx="299.579" cy="473.605" rx="6.184" ry="6.2"/>
</svg>
