<?xml version="1.0" encoding="utf-8"?>
<!-- Generator: Adobe Illustrator 16.0.0, SVG Export Plug-In . SVG Version: 6.00 Build 0)  -->
<svg version="1.1" id="Layer_1" xmlns="http://www.w3.org/2000/svg" xmlns:xlink="http://www.w3.org/1999/xlink" x="0px" y="0px"
	 width="612px" height="792px" viewBox="0 0 612 792" enable-background="new 0 0 612 792" xml:space="preserve">
<rect x="240.5" y="268.56" fill-opacity="0" fill="#231F20" width="133" height="256"/>
<ellipse fill="none" stroke="#231F20" stroke-width="2.343" stroke-miterlimit="10" cx="307" cy="293.147" rx="5.833" ry="5.882"/>
<path id="SECONDARY_59_" fill="#00BC03" d="M333.99,405.771c6.706-2.771,7.461-6.084,5.407-9.567
	c-0.526-0.869-1.217-1.755-2.039-2.645c-1.383-0.627-2.917-1.011-4.551-1.233c-1.647-0.104-3.454,0.354-5.479,1.236
	c-5.161,2.705-9.242,7.846-17.414,10.422c-2.034-3.862,0-7.718,2.044-11.571c0.516-0.965,0.907-1.889,0.957-2.72
	c-1.494-0.565-3.268-0.85-4.669-1.638c-1.205-1.032-2.061-1.641-3.149-2.357c0.736,0.287-7.431-15.132,0.736,0.287
	c0,2.569,12.252-2.571,16.035,2.667c0.148,0.809,0.226,1.641,0.265,2.489c0.034,0.841,0.034,1.7,0.034,2.557
	c4.603,0,4.023-2.442,4.211-4.611c0.014-0.712,0.116-1.395,0.111-1.85c7.935-6.395,3.847-8.965-4.322-8.965
	c8.169,0,12.257,0,16.331-5.138c-4.074,2.569-4.074,5.138-8.162,5.138c-12.25-2.569-24.502-15.42-36.752-5.138
	c0-0.641,0-1.287,0-1.93c0-1.928,0-3.853,0-5.783c1.228,0,2.668,0.035,4.671-0.264c15.75-4.875,23.913,13.115,36.169,5.409
	c0-2.571,4.074-7.713-2.054-9.71c0.317-0.799,0.844-1.542,1.34-2.341c0.454-0.965,0.714-2.093,0.714-3.375c0,1.928,0,3.853,0,5.783
	c0.079,0.694,0.489,1.592,0.95,2.564c0.731-0.855,2.053-1.264,3.258-1.721c8.933-2.81,11.61-7.591,8.044-14.337
	c-4.09-5.14-20.428-5.14-26.97-10.372c-0.793-0.565-2.261-0.974-5.633-1.261c-2.054,0.228-3.881,0.195-5.496-0.027
	c-1.609-0.223-3.02-0.646-4.234-1.211c-1.343,0.002-2.757,0.062-4.175,0.149c-0.622,0.609-1.094,1.548-1.573,2.573
	c-0.479,1.029-0.972,2.142-1.633,3.1c0.704,1.909,0.704,1.909-5.062,1.824c-1.33,0.064-2.398,0.085-2.398,0.085
	c-0.684-0.43-1.136-1.001-1.421-1.682c-1.418-3.394,1.421-9.462,1.421-13.743c0,2.574,0,7.709,8.164,5.14c0,0,0-2.566-0.06-3.003
	c1.519-0.267,3.028-0.648,4.503-1.084c4.432-1.321,8.527-3.219,11.417-4.515c0.763-0.687,1.383-1.062,1.916-1.133
	c1.055,0.023,1.962-0.119,2.644-0.544c2.041-3.858,0-6.429-3.575-8.033c-1.194-0.538-2.553-0.969-3.988-1.3
	c-0.508,5.631-6.259,10.144-12.889,12.977c-1.328,0.568-2.69,1.064-4.05,1.496c-0.735,0.375-2.266-1.144-3.174-2.571
	c-1.814-2.856-3.63-6.858-9.076-5.142c-1.53,0.646-2.81,1.365-3.842,2.146c-0.878,0.772-0.652,1.611,1.384,2.626
	c2.458,2.941,10.626,5.515,10.626,8.081c0,7.708-8.169,10.284-20.419,10.284c1.706,2.674,3.581,4.462,5.592,5.595
	c1.005,0.57,2.114,0.903,4.361,0.273c1.159-0.057,2.334-0.195,3.505-0.386c1.24-0.239,2.697-0.706,4.577-1.521
	c6.465-3.961,18.715-3.961,32.386-4.533c1.803-0.044,3.578-0.025,5.294,0.073c8.602,0.499,15.747,3.065,17.787,10.778
	c-3.067-0.644-6.388-1.284-9.765-1.767c-1.695-0.241-3.324-0.314-4.466,0.735c-1.388,1.967-3.705,3.493-6.52,4.786
	c-0.932,0.437-1.921,0.846-2.941,1.236c7.354,0.152-0.809,7.863,7.354,7.863c-8.162,0-20.415-7.711-28.936-0.048
	c-1.721,0.689-3.106,1.294-4.398,2.121c-1.245,0.779-2.394,1.783-3.412,3.072c1.019,0,2.306-0.039,3.746-0.126
	c4.418-5.018,12.585-2.445,16.666-2.445c-8.161-7.713-12.248,0-15.79,3.821c-1.449,1.319-1.899,1.319-0.541-1.25
	c0-1.289,0.383-2.254,1.067-2.976c0.749-0.774,1.882-1.42,3.517-2.107c7.666-10.344,23.999,7.651,32.168-5.202
	c0,2.571,0,7.713-4.088,7.713c-12.243,0-28.582-5.142-32.665,5.14c8.17-7.713,28.583-5.14,28.583,5.138
	c-4.081-7.707-16.333-15.42-27.857-8.814c-1.72,0.51-3.278,0.784-4.808,1.107c1.019-0.644,2.038-1.207,3.069-1.7
	c1.062-0.536,2.13-1,3.433-1.675c9.829-4.338,18-4.338,26.163-1.769c-8.162,0-20.414,0-28.583,0c0,0.641,0,1.285,0,1.93
	c0,1.282,0,2.571,0,3.853c0,0.644,0,1.289,0,1.93c4.083-7.713,20.421-5.14,24.502,0c-4.081-7.713-12.252-5.14-21.401-3.173
	c-1.439,0.416-2.785,0.68-3.95,0.255c-1.126-0.533-2.213-1.264-3.232-2.222c1.53-0.324,3.211-0.556,5.03-0.758
	c11.301-4.384,19.473,0.758,31.716,0.758c4.088,0,4.088-5.142,4.088-7.713c-8.169,7.713-24.502-2.571-33.757,5.344
	c-0.987,0.489-1.767,1.052-2.338,1.73s-0.941,1.478-1.07,2.431c-0.116,0.956,0,2.061,0.413,3.348c4.083-5.14,12.25-5.14,20.421-5.14
	c-8.171,0-16.338,0-19.08,4.127c-2.25,1.583-4.065,1.868-5.423,1.013c-1.024-3.212,0.255-5.14,2.723-6.388
	c1.229-0.623,2.801-1.114,4.6-1.535c4.929-7.502,21.261,5.354,19.874-7.557c0.624-0.379,1.672-0.735,2.716-1.107
	c3.208-1.101,6.335-2.268,9.347-3.609c0.937-0.586,2.129-0.513,3.353-0.402c3.773,0.556,7.405-0.29,10.473-5.107
	c-4.897-0.77-9.796-1.771-14.709-2.661c-1.629-0.298-3.266-0.577-4.893-0.836c-18.902-4.361-29.024,0.455-37.917,7.759
	c-0.992,0.812-1.963,1.652-2.929,2.516c-8.972,3.504-8.972,8.646-11.894,10.358c-1.161,1.002-2.181,0.644-3.205,0.214
	c-3.063-1.285-6.126-3.212-10.206-4.497c0,6.247,4.526,8.696,10.028,9.781c1.094,0.211,2.236,0.382,3.225-0.179
	c-1.003-7.031,11.247-7.031,10.479-15.15c0.843-1.009,1.764-2.02,2.782-3.01c8.179-7.915,20.22-13.229,38.963-8.002
	c1.436,0.441,2.857,0.923,4.268,1.436c4.209,1.525,8.246,3.302,11.92,4.843c-3.396-2.144-6.807-4.285-12.567-4.94
	c-1.07-0.081-1.873,0.163-2.21,0.873c-1.554,1.496,2.527,1.496,6.615,2.139c1.531,0,3.064-0.163,4.471-0.324
	c1.392-0.159,2.677-0.319,3.691-0.319c-3.264-1.032-6.533-1.85-9.787-2.458c-1.632-0.306-3.235-0.54-4.785-0.706
	c-18.379-1.388-27.897,0.722-34.753,6.519c-0.887,0.799-1.714,1.677-1.709,2.463c-2.298,4.565,0.859,5.979,5.27,6.493
	c1.474,0.17,3.086,0.246,4.68,0.306c1.442,0.078,3.315-0.151,5.318-0.31c1.004-0.076,2.047-0.138,3.141-0.14
	c4.041,0.687,8.132,0.687,12.213,3.258c-4.081,0-12.252,0-16.357-0.161c-1.455,0.331-2.792,0.641-3.95,0.813
	c-1.093,0.133-2.242,0.29-3.485,0.48c-1.665-0.12-3.205-0.133-4.488,0.104c-2.575,0.476-4.389,2.189-4.389,6.477
	c0-5.145,4.086-7.713,8.167-10.284c-20.418,0-16.333,12.853-17.759,19.344c-2.055,0.239-3.834,0.726-5.13,1.597
	c-1.295,0.871-2.106,2.123-2.226,3.885c-1.094,0.041-2.125,0.174-3.083,0.517c-1.914,0.683-3.445,2.287-4.472,5.505
	c0,2.569,1.366,4.278,3.324,5.521c0.975,0.613,2.107,1.116,3.283,1.546c0.81-0.374,1.646-0.754,2.481-1.135
	c0.842-0.375,1.687-0.749,2.603-1.487c0.562-1.877,16.898-1.877,4.647-7.021c1.359-0.855,2.722-1.498,4.083-1.951
	c1.285-0.501,2.568-0.809,3.583-1.142c8.667,0.524,12.75,3.093,16.727,5.662c-1.832,0.244-3.516,0.551-5.009,0.921
	c-10.546,2.566-11.644,8-11.03,13.062c0.12,0.963,0.484,1.96,2.425,3.387c5.554,3.201,5.554,8.338,5.554,10.909
	c-8.167-2.571-4.081-12.851-14.94-13.314c-0.689-0.905-1.094-1.82-1.254-2.726c-1.019-5.539,7.063-10.753,16.283-11.968
	c1.313-0.172,2.651-0.264,3.994-0.264c0-2.576-4.083-2.576-6.512-2.374c-1.695-0.218-3.696-0.202-5.738-0.202
	c-8.166,2.576-12.251,7.713-12.042,12.69c-0.17,0.997-0.46,1.627-0.742,2.268c-0.505,1.177-0.833,2.364-1.047,3.531
	c5.666,2.075,5.666,4.651,5.666,7.218c0,2.57-8.167,2.57-12.249,2.57c4.081,0,16.331,2.571,16.331-5.137
	c0-5.143-12.25,0-8.977-5.528c0.263-1.078,0.589-2.114,1.018-3.113c-0.208-4.212-0.208-9.354,12.042-11.923
	c-12.251,2.569-12.251,7.711-11.967,12.414c-0.462,1.014-0.793,2.062-0.987,3.118c25.204,5.032-3.379,15.31,8.871,23.024
	c2.042,1.287,5.106,1.287,8.676,1.064c1.192-0.078,2.439-0.173,3.723-0.258c2.953-0.604,8.283-0.754,12.487-0.795
	c1.397-0.012,2.824-0.09,4.362-0.324c3.423,0.313,3.423,0.313,7.504,0.313c-8.172-2.573-8.172,7.711-17.465,6.321
	c-0.161-0.485,0.009-1.326-0.092-2.109c-0.198-1.576-1.62-2.794-8.536-1.372c-1.844-0.034-3.461-0.186-4.881-0.434
	c-9.989-1.724-10.885-8.191-18.028-12.69c-4.081,2.569-8.17,5.145-10.489,7.755c-0.286,1.121,0.232,2.911-0.249,3.598
	c1.599,0.331,1.646-0.352,2.446,1.211c0.238,1.146,0.121,2.004,0.121,2.863c0.513,0.96,1.148,1.886,1.899,2.762
	c0.754,0.875,1.618,1.698,2.57,2.447c0.618-0.873,1.356-1.742,2.202-2.578c0.682-0.876,0.983-1.866,0.145-3.256
	c1.354-1.948-2.728-1.948-2.728-4.518c10.206-2.144,17.58,2.854,24.479,4.579c1.417,0.287,2.813,0.443,4.568-0.158
	c0,0-1.291,0.99-2.697,1.85c-1.208,0.487-2.602,0.812-3.352,0.182c-1.644,0.53-3.082,1.153-4.343,1.854
	c-7.592,4.2-8.08,10.872-0.858,14.429c0.158,0.82,0.64,1.652,1.564,2.51c0.928,0.856,2.291,1.743,4.225,2.658
	c1.01,1.146,0.913,2.088,0.913,2.943c2.038,0,3.631-0.287,4.896-0.772c-0.814-1.802-0.814-1.802-2.428-4.705
	c-0.723-0.476-1.342-1.034-1.928-1.8c-0.184-5.284,0.152-7.098,0.706-7.187c0.554-0.092,1.627,0.668,2.292,1.425
	c8.713,2.752,4.626,7.896,3.084,10.325c-0.097,1.629-1.182,2.284-2.541,2.714c1.021-0.212,1.716-0.621,2.09-1.248
	c4.049-2.599,1.773-5.746,1.014-8.319c-0.382-1.282-0.382-2.429,0.979-3.286c4.087-5.14,8.167-10.282,20.419-12.851
	c-16.333,2.568-24.502,15.417-9.71,23.911c-0.086,0.92-0.677,1.708-1.958,2.374c-1.38,0.62-3.444,1.116-6.466,1.454
	c-1.888,0.044-3.451,0.099-4.731,0.173c-14.06,0.771,6.533,2.934,6.533,2.934c0.817,1.027,1.752,1.797,2.778,2.346
	c3.226,1.708,7.288,1.172,11.009-0.688c1.135-0.609,2.222-1.356,1.969-2.101c0.146-0.528,0-1.25-0.241-2.072
	c-0.392-0.861-0.887-1.817-1.755-2.897c-1.508-4.871-5.599-4.871-9.679-7.442c8.171,0,12.252,10.282,24.502,2.571
	c-4.088,0-20.422,2.568-16.331-5.145c8.162-5.135,24.493-5.135,24.493-12.849c-4.074-5.142-12.25-10.284-24.901-11.318
	c-1.169-0.491-2.404-0.997-3.683-1.532c-0.633-0.563-0.246-1.031,0.991-1.673c1.235-0.644,2.529-0.768,3.92-0.703
	c2.771,0.127,6.197,0.738,8.802,0.531c0.894-0.251,1.521-0.82,1.707-2.077c0.111-1.44,0.472-2.78,1.021-4.014
	c0.144-0.609,0.019-1.216-1.155-1.887c-0.759-0.756-1.572-1.486-2.449-2.196c-0.54-0.366-1.26-0.731-2.285-1.133
	c-0.796-0.761-2.683-0.975-4.904-0.942c-0.776,1.907-3.21,2.856-5.448,3.332c-2.232,0.476-4.279,0.476-4.279,0.476
	c-1.054-1.278-0.801-1.921,0.159-2.24c2.778-0.947,11.603,1.055,10.122-2.512c1.331-0.294,2.252,0.168,3.25,0.547
	c2,0.751,4.311,1.163,7.12,0.919c2.594,0.197,4.173,0.382,5.653,0.482c5.882,0.411,11.523-0.691,16.698-4.188
	c1.438-0.618,2.541-0.857,3.664-1.109c0.791,0.103,1.57,0.231,2.333,0.393c-0.677-0.43-1.467-0.999-2.374-1.622
	c-0.477-0.236-1.189-0.131-2.292,0.409c-1.568,0.634-3.24,1.183-4.936,1.638c-1.705,0.453-3.445,0.823-5.2,1.094
	c-5.17,0.393-11.266,0.642-16.661,0.251c-1.796-0.129-3.514-0.326-5.093-0.616c-3.206-2.792-4.011,3.738-7.654,3.922
	c-0.61,0.035-1.297-0.11-2.083-0.508c-2.707-2.001-10.874-2.001-10.874-7.134c8.167,2.566,16.338-2.576,23.083-1.078
	c0.44,0.304,0.593,0.91,0.916,1.526c0.656,1.22,2.771,2.059,7.996,2.031C331.108,406.361,332.571,406.12,333.99,405.771z"/>
</svg>
