<?xml version="1.0" encoding="utf-8"?>
<!-- Generator: Adobe Illustrator 16.0.0, SVG Export Plug-In . SVG Version: 6.00 Build 0)  -->
<svg version="1.1" id="Layer_1" xmlns="http://www.w3.org/2000/svg" xmlns:xlink="http://www.w3.org/1999/xlink" x="0px" y="0px"
	 width="612px" height="792px" viewBox="0 0 612 792" enable-background="new 0 0 612 792" xml:space="preserve">
<rect x="270.592" y="379.106" fill-opacity="0" fill="#231F20" width="69.979" height="35"/>
<path id="SECONDARY_63_" fill="#00BC03" d="M293.251,379.563h-0.88c0.027,0.104,0.03,0.207,0.03,0.313
	c0,0.373-1.716,0.373-2.575,0.373C290.669,380.249,293.159,380.603,293.251,379.563z"/>
<path id="SECONDARY_62_" fill="#00BC03" d="M295.835,386.58c0.215-0.031,0.36-0.091,0.439-0.181c0.462-0.205,0.528-0.433,0.47-0.657
	c-0.107,0.173-0.269,0.328-0.375,0.443C296.349,386.421,296.121,386.519,295.835,386.58z"/>
<path id="SECONDARY_61_" fill="#00BC03" d="M300.042,381.589c-0.246-0.068-0.505-0.146-0.774-0.222
	c-0.133-0.08-0.052-0.149,0.208-0.242c0.26-0.094,0.531-0.112,0.823-0.101c0.583,0.016,1.304,0.106,1.851,0.075
	c0.188-0.037,0.319-0.118,0.358-0.299c0.024-0.209,0.099-0.405,0.216-0.582c0.029-0.091,0.001-0.177-0.243-0.274
	c-0.159-0.109-0.332-0.215-0.517-0.318c-0.045-0.021-0.102-0.042-0.162-0.063h-1.64c-0.234,0.122-0.548,0.201-0.854,0.247
	c-0.47,0.066-0.9,0.066-0.9,0.066c-0.209-0.173-0.168-0.264,0.005-0.313h-2.948c0.358,0.389,0.367,0.808,0.367,1.058
	c-0.845-0.183-1.066-0.636-1.345-1.058h-0.859c0.326,0.764-2.208,1.751-0.37,2.549c0.429,0.188,1.073,0.188,1.824,0.152
	c0.25-0.009,0.513-0.022,0.782-0.033c0.62-0.088,1.741-0.111,2.625-0.119c0.294,0,0.593-0.012,0.917-0.044
	c0.306,0.019,0.481,0.03,0.648,0.035c-0.883,0.219-1.223,1.082-2.742,0.925c-0.034-0.068,0.002-0.192-0.019-0.305
	c-0.042-0.228-0.34-0.405-1.795-0.2c-0.387-0.003-0.727-0.027-1.026-0.065c-2.1-0.245-2.288-1.183-3.789-1.837
	c-0.858,0.373-1.717,0.747-2.205,1.128c-0.06,0.158,0.049,0.417-0.053,0.516c0.336,0.05,0.346-0.05,0.515,0.178
	c0.05,0.166,0.026,0.29,0.026,0.417c0.107,0.135,0.241,0.271,0.398,0.399c0.158,0.124,0.34,0.245,0.54,0.353
	c0.129-0.126,0.285-0.25,0.463-0.375c0.144-0.124,0.208-0.268,0.03-0.467c0.285-0.283-0.573-0.283-0.573-0.657
	c2.146-0.312,3.696,0.414,5.146,0.663c0.298,0.045,0.591,0.063,0.959-0.024c0,0-0.271,0.146-0.565,0.271
	c-0.254,0.069-0.548,0.116-0.705,0.028c-0.346,0.075-0.648,0.164-0.915,0.269c-1.595,0.606-1.698,1.575-0.18,2.089
	c0.034,0.119,0.135,0.236,0.33,0.364c0.194,0.122,0.481,0.25,0.886,0.383c0.212,0.166,0.192,0.302,0.192,0.427
	c0.429,0,0.763-0.04,1.03-0.111c-0.172-0.262-0.172-0.262-0.51-0.683c-0.152-0.068-0.282-0.149-0.406-0.259
	c-0.039-0.766,0.032-1.027,0.148-1.043c0.117-0.012,0.342,0.096,0.481,0.21c0.324,0.069,0.56,0.151,0.733,0.239
	c0.026-0.081,0.097-0.152,0.241-0.215c0.508-0.441,1.026-0.881,1.892-1.244c-1.609,0.748-1.882,1.96,0.359,2.845
	c-0.017,0.134-0.142,0.249-0.411,0.346c-0.29,0.089-0.724,0.161-1.359,0.211c-0.398,0.006-0.726,0.013-0.995,0.021
	c-2.955,0.112,1.372,0.427,1.372,0.427c0.172,0.149,0.37,0.259,0.584,0.34c0.679,0.249,1.533,0.168,2.314-0.1
	c0.239-0.087,0.468-0.196,0.415-0.303c0.031-0.077,0-0.181-0.051-0.301c-0.083-0.125-0.186-0.263-0.368-0.419
	c-0.318-0.706-1.177-0.706-2.035-1.08c1.717,0,2.575,1.489,5.15,0.374c-0.858,0-4.292,0.371-3.433-0.745
	c1.716-0.746,5.15-0.746,5.15-1.861C304.419,382.485,302.702,381.738,300.042,381.589z"/>
<path id="SECONDARY_60_" fill="#00BC03" d="M296.487,385.194c0.073,0.171,0.208,0.358,0.257,0.548
	c0.164-0.263,0.197-0.562-0.291-0.809C296.427,385.013,296.447,385.102,296.487,385.194z"/>
<path id="PRIMARY_16_" fill="#666666" stroke="#231F20" stroke-miterlimit="10" d="M339.313,413.084c0,0-8.714,0-16.519,0h-26.921
	c-7.805,0-14.132,0.957-14.132-1.459v-20.519c0-3.293,6.327-2.606,14.132-2.606h19.002
	C314.875,388.5,343.375,401.75,339.313,413.084L339.313,413.084z"/>
<path id="PRIMARY_15_" fill="#666666" stroke="#231F20" stroke-miterlimit="10" d="M292.853,388.5
	c-0.09,0.404-0.141,0.824-0.141,1.256c0,3.197,2.591,5.788,5.788,5.788s5.788-2.591,5.788-5.788c0-0.432-0.051-0.852-0.141-1.256
	H292.853z"/>
</svg>
