<?xml version="1.0" encoding="utf-8"?>
<!-- Generator: Adobe Illustrator 16.0.0, SVG Export Plug-In . SVG Version: 6.00 Build 0)  -->
<svg version="1.1" id="Layer_1" xmlns="http://www.w3.org/2000/svg" xmlns:xlink="http://www.w3.org/1999/xlink" x="0px" y="0px"
	 width="612px" height="792px" viewBox="0 0 612 792" enable-background="new 0 0 612 792" xml:space="preserve">
<rect x="178" y="354.681" fill-opacity="0" fill="#231F20" width="256" height="83.85"/>
<path id="SECONDARY_58_" fill="#00BC03" d="M280.417,361.3c4.267-1.751,9.367-1.946,14.736-1.409
	c1.338,0.135,2.702,0.315,4.067,0.53c0.966,0.364,1.559,0.764,1.902,1.19c0.155,0.431-0.545,0.903-1.905,1.433
	c-4.165,1.346-12.079,2.411-16.041,4.544c5.938,0.532,11.876,0,17.812-0.535c1.483-0.132,2.909-0.236,4.186-0.248
	c0.874,0.39,1.31,0.853,2.521,1.219c1.591,0.315,2.523,0.537,3.633,0.824c-0.445-0.195,23.298,1.938-0.445-0.195
	c-3.954,0,3.96-3.198-4.102-4.186c-1.245-0.039-2.531-0.058-3.831-0.07c-1.303-0.007-2.622-0.007-3.938-0.007
	c0-1.199,3.757-1.05,7.098-1.098c1.093-0.005,2.146-0.032,2.846-0.032c9.845-2.071,13.8-1.004,13.8,1.13
	c0-2.134,0-3.201,7.917-4.268c-3.962,1.067-7.917,1.067-7.917,2.134c3.955,3.198,23.747,6.396,7.917,9.597c0.99,0,1.979,0,2.966,0
	c2.972,0,5.938,0,8.907,0c0-0.32-0.055-0.696,0.41-1.221c7.507-4.111-20.2-6.242-8.329-9.443c3.96,0,11.876-1.067,14.948,0.532
	c1.235-0.08,2.371-0.217,3.606-0.349c1.483-0.116,3.22-0.183,5.195-0.183c-2.969,0-5.936,0-8.902,0
	c-1.071-0.022-2.454-0.128-3.945-0.248c1.308-0.193,1.945-0.54,2.646-0.853c4.321-2.332,11.686-3.03,22.074-2.098
	c7.914,1.067,7.914,5.33,15.971,7.042c0.864,0.205,1.498,0.59,1.94,1.469c-0.35,0.537-0.307,1.014,0.041,1.433
	c0.34,0.424,0.993,0.79,1.866,1.108c-0.002,0.352-0.095,0.72-0.23,1.091c-0.938,0.164-2.386,0.286-3.962,0.412
	c-1.581,0.123-3.298,0.25-4.771,0.426c-2.94-0.186-2.94-0.186-2.81,1.32c-0.098,0.347-0.131,0.626-0.131,0.626
	c0.659,0.178,1.54,0.296,2.586,0.371c5.224,0.369,14.566-0.371,21.161-0.371c-3.959,0-11.871,0-7.914-2.131c0,0,3.955,0,4.624,0.015
	c0.409-0.395,0.997-0.79,1.671-1.175c2.031-1.156,4.953-2.226,6.95-2.979c1.06-0.2,1.636-0.361,1.743-0.5
	c-0.033-0.277,0.186-0.513,0.841-0.691c5.94-0.532,9.895,0,12.366,0.932c0.826,0.313,1.49,0.667,2.003,1.042
	c-8.672,0.133-15.619,1.636-19.981,3.367c-0.871,0.344-1.638,0.701-2.303,1.057c-0.576,0.193,1.76,0.592,3.96,0.829
	c4.397,0.475,10.553,0.949,7.917,2.37c-0.993,0.4-2.105,0.732-3.303,1.004c-1.19,0.229-2.485,0.168-4.048-0.364
	c-4.526-0.641-8.485-2.774-12.44-2.774c-11.871,0-15.833,2.134-15.833,5.333c-4.122-0.446-6.872-0.935-8.614-1.46
	c-0.879-0.262-1.394-0.551-0.422-1.139c0.088-0.304,0.303-0.609,0.596-0.916c0.366-0.325,1.085-0.703,2.338-1.194
	c6.103-1.688,6.103-4.889,6.983-8.458c0.066-0.47,0.038-0.935-0.117-1.385c-0.764-2.242-4.719-4.108-16.593-4.641
	c0.991,0.799,1.979,1.667,2.72,2.548c0.371,0.441,0.485,0.867-1.129,1.166c-3.031,0.364-5.379,0.971-7.374,1.703
	c-0.671,0.246-1.298,0.501-1.902,0.771c-0.23-1.924-12.103,0.209-12.103-1.924c0,2.134,11.872,5.332,0.074,7.558
	c-1.064,0.45-1.995,0.812-3.265,1.148c-1.202,0.325-2.745,0.626-4.729,0.891c0-0.265,0.06-0.602,0.195-0.978
	c7.724-1.154,3.765-3.288,3.765-4.352c11.876,2.131,0,3.198-5.889,4.121c-2.025,0.38-2.025,0.499,1.929,0.145
	c1.983,0,3.465-0.101,4.579-0.282c1.195-0.192,2.188-0.489,3.25-0.915c15.921-2.004-11.783-6.267,8.007-8.4
	c-3.96,0-11.876,0-11.876,1.064c0,3.201,7.916,7.466-7.914,8.533c11.873-2.134,7.914-7.463-7.917-7.463
	c11.871,1.064,23.747,4.263,13.573,7.271c-0.785,0.45-1.202,0.857-1.702,1.257c0.99-0.265,1.857-0.532,2.617-0.802
	c0.821-0.277,1.535-0.557,2.576-0.894c6.683-2.57,6.683-4.701,2.726-6.833c0,2.131,0,5.33,0,7.463c-0.99,0-1.976,0-2.969,0
	c-1.979,0-3.96,0-5.938,0c-0.987,0-1.976,0-2.966,0c11.873-1.067,7.914-5.332,0-6.399c11.873,1.067,7.914,3.198,4.888,5.587
	c-0.643,0.378-1.055,0.73-0.396,1.033c0.824,0.294,1.938,0.578,3.422,0.843c0.5-0.4,0.854-0.838,1.166-1.313
	c6.75-2.953-1.166-5.084-1.166-8.285c0-1.064,7.916-1.064,11.876-1.064c-11.876,2.134,3.955,6.396-8.227,8.814
	c-0.757,0.258-1.623,0.462-2.669,0.612c-1.043,0.149-2.278,0.246-3.745,0.277c-1.469,0.031-3.171,0-5.149-0.106
	c7.914-1.067,7.914-3.201,7.914-5.332c0,2.131,0,4.265-6.355,4.98c-2.44,0.587-2.876,1.062-1.559,1.416
	c4.944,0.268,7.914-0.067,9.835-0.71c0.96-0.323,1.712-0.732,2.359-1.202c11.551-1.286-8.24-5.551,11.632-5.188
	c0.588-0.167,1.138-0.438,1.709-0.71c1.695-0.838,3.49-1.655,5.56-2.44c0.9-0.248,0.788-0.556,0.616-0.874
	c-0.856-0.988,0.445-1.937,7.865-2.736c1.186,1.279,2.732,2.558,4.098,3.836c0.454,0.426,0.885,0.853,1.287,1.279
	c6.715,4.937-0.699,7.582-11.947,9.903c-1.247,0.26-2.545,0.513-3.871,0.766c-5.397,2.341-13.313,2.341-15.952,3.104
	c-1.541,0.304-0.988,0.571-0.329,0.838c1.977,0.797,4.947,1.597,6.929,2.664c-9.621,0-13.396-1.18-15.062-2.618
	c-0.329-0.287-0.584-0.585,0.273-0.843c10.828,0.263,10.828-2.936,23.328-2.736c1.553-0.219,3.11-0.46,4.634-0.728
	c12.186-2.136,20.366-5.277,12.316-10.175c-0.676-0.374-1.416-0.744-2.202-1.11c-2.354-1.101-5.083-2.155-7.462-3.116
	c3.303,0.891,6.6,1.777,7.604,3.282c0.124,0.282-0.255,0.489-1.34,0.581c-2.305,0.405-2.305-0.665-3.293-1.729
	c0-0.4,0.245-0.8,0.492-1.166c0.248-0.366,0.496-0.701,0.496-0.968c1.585,0.855,2.85,1.708,3.785,2.558
	c0.472,0.426,0.833,0.845,1.088,1.25c2.134,4.8-1.111,7.283-10.035,9.075c-1.236,0.231-2.586,0.448-3.798,0.445
	c-7.026,0.6-9.197-0.224-9.995-1.375c-0.262-0.385-0.379-0.807-0.467-1.221c-0.124-0.378,0.233-0.867,0.477-1.39
	c0.114-0.262,0.212-0.537,0.214-0.821c-1.055-1.055-1.055-2.122-5.015-3.188c0,1.067,0,3.198,0.246,4.27
	c-0.513,0.38-0.991,0.73-1.253,1.033c-0.207,0.284-0.445,0.585-0.735,0.91c0.183,0.434,0.204,0.836-0.162,1.17
	c-0.735,0.672-3.371,1.146-9.972,1.146c7.919,0,11.876-1.067,15.836-2.131c0,5.33-19.79,4.263-29.786,4.636
	c-0.369,0.537-1.119,1.002-2.459,1.339c-1.341,0.34-3.267,0.552-5.981,0.583c-0.057,0.284-0.273,0.556-0.795,0.804
	c-1.053,0.501-3.523,0.901-8.474,1.166c-3.955,0-6.593-0.354-8.502-0.865c-0.948-0.255-1.724-0.549-2.381-0.86
	c0.576-0.212,1.159-0.429,1.748-0.648c0.576-0.219,1.152-0.44,2.288-0.677c2.893-0.149,2.893-4.415,10.81-1.216
	c1.319-0.354,2.307-0.708,3.002-1.065c0.771-0.337,1.25-0.669,1.76-0.937c-0.808-2.262-4.762-3.329-8.717-4.367
	c-0.376,0.479-0.854,0.918-1.419,1.308c-3.952,2.753-12.316,3.04-20.109,2.881c-1.481-0.031-3.019-0.128-5.214-0.634
	c-4.926-1.45-12.84-1.45-16.8-1.45c3.96,2.131,19.791,1.064,20.502,3.902c1.398,0.178,2.803,0.284,4.193,0.327
	c8.534,0.265,16.557-1.847,18.431-4.253c0.269-0.345,0.41-0.694,0.41-1.043c3.962,0,3.962,1.067,3.652,1.7
	c0.333,0.443,0.31,0.966,0.31,1.498c-3.962,2.132-11.876,3.198-19.538,3.146c-1.536,0.043-2.505,0.121-3.491,0.192
	c-1.81,0.133-3.643,0.217-5.436,0.272c-3.198-1.479-7.16-1.479-11.114-1.479c-3.959,0-3.959,2.134-3.959,3.2
	c0-1.066-3.96-4.265,7.914-4.265c7.917,0,0,3.199,8.51,2.343c1.657-0.067,3.254-0.154,4.792-0.265
	c6.486,0.053,14.405,0.053,18.36-3.146c-3.955,3.198-11.874,3.198-19.114,3.126c-1.567,0.121-3.174,0.208-4.805,0.258
	c-7.743-6.582-23.572,0.882-35.448-2.317c-1.981-0.535-1.981-1.334-1.633-2.266c0.114-0.311,0.262-0.636,0.393-0.973
	c0.934-0.771,1.165-2.163,1.227-3.261c0.014-0.364,0.136-0.737,0.498-1.139c-0.483-0.891-0.483-0.891-0.483-1.958
	c3.959,2.134-11.872,2.134-9.733,4.562c0.75,0.041,2.043-0.005,3.25,0.024c2.426,0.051,4.3,0.421,2.112,2.228
	c0.055,0.481,0.286,0.903,0.664,1.274c2.657,2.608,12.615,2.842,19.538,4.708c-3.955,1.066-7.917,2.131-11.938,2.738
	c-1.726,0.074-4.483-0.061-5.536,0.067c-0.509-0.419,0.538-0.431-1.862-0.641c-1.771-0.063-3.09-0.034-4.407-0.034
	c-1.483-0.133-2.907-0.299-4.257-0.494c-1.347-0.195-2.614-0.422-3.764-0.67c1.341-0.164,2.674-0.354,3.967-0.575
	c1.353-0.179,2.876-0.258,5.014-0.039c2.998-0.354,2.998,0.712,6.953,0.712c3.3-2.666-4.396-4.593-7.05-6.394
	c-0.44-0.369-0.681-0.734,0.241-1.192c0,0-1.524,0.337-2.843,0.703c-0.75,0.315-1.252,0.679-0.279,0.876
	c-0.819,0.429-1.781,0.805-2.859,1.134c-6.464,1.982-16.742,2.11-22.211,0.224c-1.262-0.041-2.546-0.168-3.865-0.409
	c-1.321-0.241-2.68-0.6-4.093-1.101c-1.765-0.265-3.216-0.241-4.531-0.241c0-0.532,0.44-0.946,1.189-1.279
	c2.768,0.214,2.768,0.214,7.247,0.633c0.727,0.188,1.589,0.352,2.764,0.506c8.139,0.046,10.929-0.041,11.068-0.186
	c0.14-0.144-1.025-0.424-2.19-0.597c-4.244-2.276-12.161-1.209-15.906-0.807c-2.501,0.026-3.514,0.308-4.171,0.665
	c0.329-0.267,0.955-0.448,1.923-0.546c3.996-1.058,8.844-0.463,12.806-0.265c1.979,0.099,3.743,0.099,5.06-0.255
	c7.917-1.067,15.831-2.134,19.791-5.332c-3.959,4.265-23.745,6.399-36.82,2.536c-1.417,0.021-2.627,0.176-3.655,0.51
	c-0.95,0.359-1.718,0.901-2.234,1.688c-0.071,0.494-0.158,0.901-0.27,1.235c-1.191,3.67-4.513-1.705-4.513-1.705
	c-1.587-0.214-2.772-0.46-3.614-0.725c-2.632-0.843-1.804-1.902,1.064-2.875c0.931-0.296,2.08-0.581,3.23-0.515
	c0.814-0.036,1.929,0.002,3.188,0.065c1.326,0.104,2.801,0.229,4.464,0.458c7.499,0.395,7.499,1.462,11.454,2.526
	c0-2.131-15.826-3.198-3.955-6.396c0,1.064-3.96,5.332,7.917,4.265c7.914-2.131,7.914-6.399,19.786-6.399
	c7.917,1.067,15.831,3.198,17.429,6.502c0.755,0.306,1.533,0.628,2.357,0.963c0.867,0.164,1.59,0.063,2.579-0.258
	c0.991-0.325,1.179-0.66,1.079-1.023c-0.198-0.725-1.136-1.621-0.814-2.298c0.381-0.236,1.265-0.397,3.195-0.445
	c2.217-0.031,4.276-0.123,6.179-0.27c0.94-0.036,1.872-0.002,2.907,0.301c1.164,0.197,2.288,0.414,3.378,0.643
	c0.564,0.14,1.128,0.33,1.743,0.595c1.171,0.209,1.504,0.701,1.45,1.279c-2.931,0.205-4.395,0.841-5.126,1.424
	c-0.733,0.585-0.733,1.117-0.733,1.117c1.966,0.274,2.957,0.209,3.452-0.041c1.458-0.725-1.624-3.03,3.862-2.642
	c0.455-0.347-0.254-0.587-0.835-0.848c-1.157-0.525-1.791-1.127-1.421-1.859c-0.3-0.679-0.586-1.093-0.741-1.476
	c-0.633-1.539,1.067-3.013,6.45-4.364c0.95-0.375,1.319-0.662,1.705-0.954c-0.155-0.207-0.352-0.412-0.6-0.612
	c0.657,0.178,1.536,0.386,2.498,0.622c0.359,0.123,0.2,0.313-0.631,0.597c-0.976,0.412-1.821,0.846-2.523,1.291
	c-0.7,0.445-1.265,0.901-1.681,1.356c-0.607,1.351-0.991,2.943-0.391,4.352c0.2,0.47,0.505,0.917,0.955,1.329
	c4.295,0.838-5.757,1.048-6.045,1.999c-0.048,0.159,0.174,0.34,0.783,0.544c3.081,0.706,3.081,2.839,10.991,2.839
	c-3.955-2.134,3.962-4.265,1.655-6.028c-0.464-0.113-1.4-0.154-2.348-0.238c-1.881-0.173-3.171-0.728-3.131-2.088
	C279.512,362.053,279.878,361.67,280.417,361.3z"/>
<path id="PRIMARY_14_" fill="#666666" stroke="#231F20" stroke-width="2.4521" stroke-miterlimit="10" d="M426.686,396.592
	c0,22.302-55.119,40.384-123.124,40.384c-68.005,0-123.124-18.082-123.124-40.384c0-22.304,54.534-15.409,122.538-15.409
	S426.686,374.288,426.686,396.592z"/>
<path stroke="#231F20" stroke-width="2.4521" stroke-miterlimit="10" d="M414.523,385.14c0,5.024-49.666,9.099-110.933,9.099
	c-61.267,0-110.933-4.075-110.933-9.099s49.128-3.47,110.395-3.47C364.343,381.67,414.523,380.116,414.523,385.14z"/>
</svg>
