<?xml version="1.0" encoding="utf-8"?>
<!-- Generator: Adobe Illustrator 16.0.0, SVG Export Plug-In . SVG Version: 6.00 Build 0)  -->
<svg version="1.1" id="Layer_1" xmlns="http://www.w3.org/2000/svg" xmlns:xlink="http://www.w3.org/1999/xlink" x="0px" y="0px"
	 width="612px" height="792px" viewBox="0 0 612 792" enable-background="new 0 0 612 792" xml:space="preserve">
<rect x="253.5" y="379.606" fill-opacity="0" fill="#231F20" width="105" height="34"/>
<path id="SECONDARY_58_" fill="#00BC03" d="M295.507,382.29c1.75-0.71,3.842-0.789,6.044-0.571c0.549,0.055,1.108,0.128,1.668,0.215
	c0.396,0.147,0.64,0.31,0.78,0.482c0.063,0.175-0.224,0.366-0.781,0.581c-1.708,0.546-4.954,0.978-6.579,1.843
	c2.436,0.216,4.871,0,7.306-0.217c0.608-0.054,1.193-0.096,1.717-0.101c0.358,0.158,0.537,0.346,1.034,0.494
	c0.652,0.128,1.035,0.218,1.49,0.334c-0.183-0.079,9.556,0.786-0.183-0.079c-1.622,0,1.624-1.297-1.683-1.697
	c-0.511-0.016-1.038-0.023-1.571-0.028c-0.534-0.003-1.075-0.003-1.615-0.003c0-0.486,1.541-0.426,2.911-0.445
	c0.448-0.002,0.88-0.013,1.167-0.013c4.038-0.84,5.66-0.407,5.66,0.458c0-0.865,0-1.298,3.247-1.73
	c-1.625,0.433-3.247,0.433-3.247,0.865c1.622,1.297,9.74,2.594,3.247,3.892c0.406,0,0.812,0,1.217,0c1.219,0,2.436,0,3.653,0
	c0-0.13-0.022-0.282,0.168-0.495c3.079-1.667-8.285-2.531-3.416-3.829c1.624,0,4.871-0.433,6.131,0.216
	c0.507-0.032,0.973-0.088,1.479-0.142c0.608-0.047,1.32-0.074,2.131-0.074c-1.218,0-2.435,0-3.651,0
	c-0.439-0.009-1.007-0.052-1.618-0.101c0.536-0.078,0.798-0.219,1.085-0.346c1.772-0.945,4.793-1.229,9.054-0.851
	c3.246,0.433,3.246,2.161,6.551,2.855c0.354,0.083,0.614,0.239,0.796,0.596c-0.144,0.218-0.126,0.411,0.017,0.581
	c0.14,0.172,0.407,0.32,0.766,0.449c-0.001,0.143-0.039,0.292-0.095,0.442c-0.385,0.066-0.979,0.116-1.625,0.167
	c-0.648,0.05-1.353,0.102-1.957,0.173c-1.206-0.075-1.206-0.075-1.152,0.535c-0.04,0.141-0.054,0.254-0.054,0.254
	c0.271,0.072,0.632,0.12,1.061,0.15c2.143,0.149,5.975-0.15,8.68-0.15c-1.624,0-4.869,0-3.246-0.864c0,0,1.622,0,1.896,0.006
	c0.168-0.16,0.409-0.32,0.686-0.477c0.833-0.469,2.031-0.902,2.851-1.208c0.435-0.081,0.671-0.146,0.715-0.203
	c-0.014-0.112,0.076-0.208,0.345-0.28c2.437-0.216,4.059,0,5.072,0.378c0.339,0.127,0.611,0.271,0.821,0.423
	c-3.557,0.054-6.406,0.663-8.195,1.365c-0.357,0.14-0.672,0.284-0.944,0.429c-0.236,0.078,0.722,0.24,1.624,0.336
	c1.804,0.192,4.328,0.385,3.247,0.961c-0.407,0.162-0.863,0.297-1.354,0.407c-0.488,0.093-1.02,0.068-1.66-0.147
	c-1.856-0.26-3.48-1.125-5.103-1.125c-4.869,0-6.494,0.865-6.494,2.162c-1.69-0.181-2.818-0.379-3.533-0.592
	c-0.36-0.106-0.571-0.224-0.173-0.462c0.036-0.123,0.124-0.247,0.244-0.371c0.15-0.132,0.445-0.285,0.959-0.484
	c2.503-0.685,2.503-1.982,2.864-3.43c0.027-0.19,0.016-0.379-0.048-0.562c-0.313-0.909-1.936-1.666-6.806-1.882
	c0.406,0.324,0.812,0.676,1.115,1.033c0.152,0.179,0.199,0.352-0.463,0.473c-1.243,0.147-2.206,0.394-3.024,0.69
	c-0.275,0.1-0.532,0.203-0.78,0.313c-0.095-0.78-4.964,0.085-4.964-0.78c0,0.865,4.869,2.162,0.03,3.064
	c-0.437,0.183-0.818,0.329-1.339,0.466c-0.493,0.132-1.126,0.254-1.939,0.361c0-0.107,0.024-0.244,0.08-0.396
	c3.168-0.468,1.544-1.333,1.544-1.765c4.871,0.864,0,1.297-2.415,1.671c-0.831,0.154-0.831,0.202,0.791,0.059
	c0.813,0,1.421-0.041,1.878-0.114c0.49-0.078,0.897-0.198,1.333-0.371c6.53-0.813-4.833-2.541,3.284-3.406
	c-1.624,0-4.871,0-4.871,0.432c0,1.298,3.247,3.027-3.246,3.46c4.87-0.865,3.246-3.026-3.247-3.026
	c4.869,0.432,9.74,1.729,5.567,2.948c-0.322,0.183-0.493,0.348-0.698,0.51c0.406-0.107,0.762-0.216,1.073-0.325
	c0.337-0.112,0.63-0.226,1.057-0.362c2.741-1.042,2.741-1.906,1.118-2.771c0,0.864,0,2.161,0,3.026c-0.406,0-0.811,0-1.218,0
	c-0.812,0-1.624,0-2.436,0c-0.405,0-0.811,0-1.217,0c4.87-0.433,3.246-2.162,0-2.595c4.87,0.433,3.246,1.297,2.005,2.266
	c-0.264,0.153-0.433,0.296-0.162,0.419c0.338,0.119,0.795,0.234,1.403,0.342c0.205-0.162,0.351-0.34,0.479-0.532
	c2.769-1.197-0.479-2.062-0.479-3.359c0-0.432,3.247-0.432,4.871-0.432c-4.871,0.865,1.622,2.594-3.374,3.574
	c-0.311,0.104-0.666,0.188-1.095,0.248c-0.428,0.061-0.935,0.1-1.536,0.112c-0.603,0.013-1.301,0-2.112-0.043
	c3.246-0.433,3.246-1.298,3.246-2.162c0,0.864,0,1.729-2.606,2.02c-1.001,0.238-1.18,0.431-0.64,0.574
	c2.028,0.108,3.246-0.027,4.034-0.288c0.394-0.131,0.702-0.297,0.968-0.487c4.737-0.521-3.38-2.251,4.771-2.104
	c0.241-0.067,0.467-0.178,0.701-0.288c0.695-0.34,1.432-0.671,2.28-0.989c0.369-0.101,0.323-0.226,0.253-0.354
	c-0.352-0.4,0.183-0.785,3.226-1.109c0.486,0.519,1.121,1.037,1.681,1.556c0.187,0.173,0.363,0.346,0.528,0.519
	c2.754,2.002-0.287,3.074-4.9,4.016c-0.512,0.105-1.044,0.208-1.588,0.311c-2.214,0.949-5.46,0.949-6.543,1.259
	c-0.632,0.123-0.405,0.231-0.135,0.34c0.811,0.323,2.029,0.647,2.842,1.08c-3.946,0-5.494-0.479-6.178-1.062
	c-0.135-0.116-0.239-0.237,0.112-0.342c4.441,0.106,4.441-1.19,9.568-1.109c0.637-0.089,1.275-0.187,1.9-0.295
	c4.998-0.866,8.354-2.14,5.052-4.126c-0.277-0.151-0.581-0.302-0.903-0.45c-0.966-0.446-2.085-0.874-3.061-1.264
	c1.354,0.361,2.707,0.721,3.119,1.331c0.051,0.114-0.104,0.198-0.55,0.235c-0.945,0.164-0.945-0.27-1.351-0.701
	c0-0.162,0.101-0.324,0.202-0.473s0.203-0.284,0.203-0.393c0.65,0.347,1.169,0.692,1.553,1.037c0.193,0.173,0.342,0.343,0.446,0.507
	c0.875,1.946-0.456,2.953-4.116,3.68c-0.507,0.094-1.061,0.182-1.558,0.181c-2.882,0.243-3.772-0.091-4.1-0.558
	c-0.107-0.156-0.155-0.327-0.191-0.495c-0.051-0.153,0.096-0.352,0.195-0.563c0.047-0.106,0.087-0.218,0.088-0.333
	c-0.433-0.428-0.433-0.86-2.057-1.293c0,0.433,0,1.297,0.101,1.731c-0.21,0.154-0.406,0.296-0.514,0.419
	c-0.085,0.115-0.183,0.237-0.302,0.369c0.075,0.176,0.084,0.339-0.066,0.475c-0.302,0.272-1.383,0.465-4.09,0.465
	c3.248,0,4.871-0.433,6.495-0.864c0,2.161-8.117,1.729-12.217,1.88c-0.151,0.218-0.459,0.406-1.009,0.543
	c-0.55,0.138-1.34,0.224-2.453,0.236c-0.023,0.115-0.112,0.226-0.326,0.326c-0.432,0.203-1.445,0.365-3.476,0.473
	c-1.622,0-2.704-0.144-3.487-0.351c-0.389-0.104-0.707-0.223-0.977-0.349c0.236-0.086,0.476-0.174,0.717-0.263
	c0.236-0.089,0.473-0.179,0.938-0.274c1.187-0.061,1.187-1.79,4.434-0.493c0.541-0.144,0.946-0.287,1.231-0.432
	c0.316-0.137,0.513-0.271,0.722-0.38c-0.331-0.917-1.953-1.35-3.575-1.771c-0.154,0.194-0.351,0.372-0.582,0.53
	c-1.621,1.116-5.052,1.232-8.248,1.168c-0.607-0.013-1.238-0.052-2.139-0.257c-2.021-0.588-5.267-0.588-6.891-0.588
	c1.624,0.864,8.117,0.432,8.409,1.582c0.573,0.072,1.149,0.115,1.72,0.133c3.5,0.107,6.791-0.749,7.56-1.725
	c0.11-0.14,0.168-0.281,0.168-0.423c1.625,0,1.625,0.433,1.498,0.689c0.137,0.18,0.127,0.392,0.127,0.607
	c-1.625,0.864-4.871,1.297-8.014,1.275c-0.63,0.018-1.027,0.049-1.432,0.078c-0.742,0.054-1.494,0.088-2.229,0.11
	c-1.312-0.6-2.937-0.6-4.559-0.6c-1.624,0-1.624,0.865-1.624,1.298c0-0.433-1.624-1.729,3.246-1.729c3.247,0,0,1.297,3.49,0.95
	c0.68-0.027,1.335-0.063,1.966-0.107c2.66,0.021,5.908,0.021,7.53-1.275c-1.622,1.297-4.87,1.297-7.84,1.268
	c-0.643,0.049-1.302,0.084-1.971,0.104c-3.176-2.669-9.668,0.357-14.539-0.939c-0.813-0.217-0.813-0.541-0.67-0.919
	c0.047-0.126,0.107-0.258,0.161-0.395c0.383-0.313,0.478-0.877,0.503-1.322c0.006-0.147,0.056-0.299,0.204-0.462
	c-0.198-0.361-0.198-0.361-0.198-0.794c1.624,0.865-4.869,0.865-3.992,1.85c0.308,0.017,0.838-0.002,1.333,0.01
	c0.995,0.021,1.764,0.171,0.866,0.903c0.022,0.195,0.117,0.366,0.272,0.517c1.09,1.058,5.174,1.152,8.014,1.909
	c-1.622,0.433-3.247,0.864-4.896,1.11c-0.708,0.03-1.839-0.024-2.271,0.027c-0.209-0.17,0.221-0.175-0.764-0.26
	c-0.727-0.025-1.268-0.014-1.808-0.014c-0.608-0.054-1.192-0.121-1.746-0.2c-0.553-0.079-1.072-0.171-1.544-0.271
	c0.55-0.066,1.097-0.144,1.627-0.233c0.555-0.072,1.18-0.104,2.057-0.016c1.229-0.144,1.229,0.289,2.852,0.289
	c1.354-1.081-1.803-1.862-2.892-2.593c-0.181-0.149-0.279-0.298,0.099-0.483c0,0-0.625,0.137-1.166,0.285
	c-0.308,0.128-0.514,0.275-0.114,0.355c-0.336,0.174-0.73,0.326-1.173,0.46c-2.651,0.804-6.867,0.855-9.11,0.091
	c-0.518-0.017-1.044-0.068-1.585-0.166c-0.542-0.098-1.099-0.243-1.679-0.446c-0.724-0.107-1.319-0.098-1.858-0.098
	c0-0.216,0.181-0.384,0.488-0.519c1.135,0.087,1.135,0.087,2.972,0.257c0.298,0.076,0.652,0.143,1.134,0.205
	c3.338,0.019,4.482-0.017,4.54-0.075c0.058-0.059-0.42-0.172-0.898-0.242c-1.741-0.923-4.988-0.49-6.524-0.327
	c-1.026,0.011-1.441,0.125-1.711,0.27c0.135-0.108,0.392-0.182,0.789-0.222c1.639-0.429,3.627-0.188,5.252-0.107
	c0.812,0.04,1.535,0.04,2.075-0.104c3.247-0.433,6.493-0.865,8.117-2.162c-1.624,1.729-9.739,2.595-15.102,1.028
	c-0.582,0.009-1.078,0.071-1.499,0.207c-0.39,0.146-0.705,0.365-0.917,0.685c-0.029,0.2-0.065,0.365-0.111,0.501
	c-0.488,1.488-1.851-0.691-1.851-0.691c-0.651-0.087-1.137-0.187-1.482-0.294c-1.08-0.342-0.74-0.771,0.437-1.166
	c0.382-0.12,0.853-0.235,1.325-0.209c0.334-0.015,0.791,0.001,1.308,0.026c0.544,0.042,1.149,0.093,1.831,0.186
	c3.076,0.16,3.076,0.593,4.698,1.024c0-0.864-6.491-1.297-1.622-2.594c0,0.432-1.624,2.162,3.247,1.729
	c3.246-0.864,3.246-2.595,8.115-2.595c3.247,0.433,6.493,1.297,7.148,2.637c0.31,0.124,0.629,0.255,0.967,0.391
	c0.355,0.066,0.652,0.025,1.058-0.104c0.406-0.132,0.483-0.268,0.442-0.415c-0.081-0.294-0.466-0.657-0.334-0.932
	c0.156-0.096,0.519-0.161,1.311-0.181c0.909-0.013,1.754-0.05,2.534-0.109c0.386-0.015,0.768-0.001,1.192,0.122
	c0.478,0.08,0.938,0.168,1.386,0.261c0.231,0.057,0.463,0.134,0.715,0.241c0.48,0.085,0.617,0.284,0.595,0.519
	c-1.202,0.083-1.803,0.341-2.103,0.577c-0.301,0.237-0.301,0.453-0.301,0.453c0.807,0.111,1.213,0.085,1.416-0.017
	c0.598-0.294-0.666-1.229,1.584-1.071c0.187-0.141-0.104-0.238-0.343-0.344c-0.475-0.213-0.734-0.457-0.583-0.754
	c-0.123-0.275-0.24-0.443-0.304-0.599c-0.26-0.624,0.438-1.222,2.646-1.77c0.39-0.152,0.541-0.269,0.699-0.387
	c-0.063-0.084-0.145-0.167-0.246-0.248c0.27,0.072,0.63,0.156,1.024,0.252c0.147,0.05,0.082,0.127-0.259,0.242
	c-0.4,0.167-0.747,0.343-1.035,0.523c-0.287,0.181-0.519,0.365-0.689,0.55c-0.249,0.548-0.406,1.193-0.16,1.765
	c0.082,0.19,0.207,0.372,0.392,0.539c1.762,0.34-2.361,0.425-2.479,0.811c-0.02,0.064,0.071,0.138,0.321,0.221
	c1.264,0.286,1.264,1.151,4.508,1.151c-1.622-0.865,1.625-1.729,0.679-2.444c-0.19-0.046-0.574-0.063-0.963-0.097
	c-0.771-0.07-1.301-0.295-1.284-0.847C295.136,382.596,295.286,382.44,295.507,382.29z"/>
<path id="PRIMARY_14_" fill="#666666" stroke="#231F20" stroke-miterlimit="10" d="M355.5,396.601
	c0,9.043-22.607,16.375-50.5,16.375s-50.5-7.332-50.5-16.375c0-9.044,22.367-6.248,50.26-6.248S355.5,387.557,355.5,396.601z"/>
<path stroke="#231F20" stroke-miterlimit="10" d="M350.512,391.957c0,2.037-20.371,3.689-45.5,3.689s-45.5-1.652-45.5-3.689
	s20.15-1.407,45.279-1.407C329.93,390.55,350.512,389.92,350.512,391.957z"/>
</svg>
