<?xml version="1.0" encoding="utf-8"?>
<!-- Generator: Adobe Illustrator 16.0.0, SVG Export Plug-In . SVG Version: 6.00 Build 0)  -->
<svg version="1.1" id="Layer_1" xmlns="http://www.w3.org/2000/svg" xmlns:xlink="http://www.w3.org/1999/xlink" x="0px" y="0px"
	 width="612px" height="792px" viewBox="0 0 612 792" enable-background="new 0 0 612 792" xml:space="preserve">
<rect x="177.581" y="332.167" fill-opacity="0" fill="#231F20" width="256" height="128.879"/>
<path id="SECONDARY_63_" fill="#00BC03" d="M260.476,333.846h-3.219c0.098,0.381,0.111,0.762,0.111,1.154
	c0,1.374-6.279,1.374-9.419,1.374C251.03,336.374,260.139,337.676,260.476,333.846z"/>
<path id="SECONDARY_62_" fill="#00BC03" d="M269.927,359.687c0.788-0.115,1.318-0.334,1.608-0.665
	c1.691-0.755,1.933-1.593,1.718-2.42c-0.393,0.636-0.984,1.208-1.372,1.632C271.807,359.101,270.974,359.46,269.927,359.687z"/>
<path id="SECONDARY_61_" fill="#00BC03" d="M285.319,341.308c-0.9-0.251-1.849-0.539-2.833-0.816
	c-0.487-0.295-0.189-0.55,0.761-0.892c0.95-0.345,1.943-0.413,3.012-0.37c2.132,0.058,4.769,0.392,6.77,0.277
	c0.689-0.137,1.168-0.435,1.311-1.101c0.087-0.77,0.361-1.492,0.791-2.143c0.105-0.334,0.005-0.651-0.888-1.01
	c-0.583-0.403-1.214-0.792-1.89-1.172c-0.167-0.076-0.374-0.155-0.591-0.234h-5.999c-0.855,0.45-2.004,0.741-3.124,0.91
	C280.92,335,279.348,335,279.348,335c-0.765-0.636-0.615-0.971,0.02-1.154h-10.784c1.311,1.431,1.343,2.974,1.343,3.895
	c-3.092-0.672-3.899-2.341-4.921-3.895h-3.144c1.191,2.812-8.077,6.448-1.354,9.385c1.568,0.69,3.924,0.69,6.673,0.562
	c0.915-0.033,1.876-0.083,2.862-0.123c2.269-0.324,6.37-0.41,9.603-0.439c1.075,0,2.17-0.043,3.354-0.162
	c1.118,0.068,1.759,0.112,2.37,0.129c-3.229,0.806-4.475,3.984-10.031,3.405c-0.125-0.251,0.009-0.708-0.07-1.122
	c-0.154-0.838-1.245-1.493-6.566-0.737c-1.417-0.011-2.658-0.101-3.753-0.241c-7.681-0.903-8.369-4.355-13.861-6.764
	c-3.14,1.374-6.281,2.751-8.067,4.153c-0.22,0.583,0.179,1.536-0.193,1.899c1.231,0.183,1.267-0.184,1.883,0.654
	c0.182,0.611,0.096,1.068,0.096,1.535c0.394,0.497,0.883,1,1.458,1.471c0.579,0.457,1.243,0.903,1.976,1.298
	c0.473-0.464,1.043-0.92,1.693-1.381c0.525-0.457,0.759-0.985,0.111-1.719c1.043-1.043-2.097-1.043-2.097-2.42
	c7.849-1.147,13.52,1.525,18.825,2.442c1.09,0.166,2.163,0.234,3.51-0.09c0,0-0.992,0.54-2.069,0.996
	c-0.929,0.255-2.004,0.428-2.577,0.104c-1.267,0.277-2.372,0.604-3.346,0.989c-5.836,2.233-6.213,5.8-0.657,7.691
	c0.123,0.439,0.495,0.87,1.207,1.342c0.709,0.449,1.76,0.92,3.242,1.409c0.777,0.611,0.704,1.111,0.704,1.571
	c1.57,0,2.79-0.147,3.767-0.41c-0.629-0.964-0.629-0.964-1.867-2.514c-0.558-0.251-1.032-0.55-1.484-0.953
	c-0.141-2.819,0.118-3.783,0.541-3.841c0.429-0.043,1.25,0.353,1.762,0.773c1.184,0.255,2.047,0.557,2.681,0.881
	c0.095-0.298,0.355-0.561,0.881-0.791c1.859-1.625,3.753-3.244,6.92-4.581c-5.886,2.754-6.886,7.217,1.313,10.475
	c-0.063,0.493-0.52,0.917-1.504,1.273c-1.06,0.328-2.647,0.593-4.971,0.777c-1.456,0.021-2.656,0.047-3.639,0.079
	c-10.811,0.414,5.02,1.571,5.02,1.571c0.628,0.55,1.352,0.953,2.136,1.251c2.483,0.917,5.607,0.619,8.465-0.367
	c0.873-0.32,1.713-0.723,1.516-1.115c0.113-0.284,0-0.666-0.186-1.107c-0.304-0.46-0.679-0.967-1.347-1.543
	c-1.163-2.6-4.307-2.6-7.445-3.977c6.282,0,9.42,5.484,18.839,1.377c-3.14,0-15.701,1.366-12.557-2.744
	c6.277-2.748,18.84-2.748,18.84-6.854C301.332,344.609,295.047,341.858,285.319,341.308z"/>
<path id="SECONDARY_60_" fill="#00BC03" d="M272.313,354.584c0.267,0.629,0.761,1.32,0.94,2.018c0.6-0.967,0.72-2.068-1.065-2.978
	C272.094,353.915,272.167,354.243,272.313,354.584z"/>
<path id="PRIMARY_16_" fill="#666666" stroke="#231F20" stroke-width="3.6702" stroke-miterlimit="10" d="M428.979,457.281
	c0,0-31.878,0-60.429,0h-98.484c-28.551,0-51.698,3.523-51.698-5.373v-75.554c0-12.125,23.146-9.598,51.698-9.598h69.515
	C339.581,366.756,443.842,415.547,428.979,457.281L428.979,457.281z"/>
<path id="PRIMARY_15_" fill="#666666" stroke="#231F20" stroke-width="3.6702" stroke-miterlimit="10" d="M259.019,366.756
	c-0.329,1.489-0.515,3.035-0.515,4.625c0,11.773,9.48,21.313,21.173,21.313s21.174-9.54,21.174-21.313
	c0-1.589-0.186-3.136-0.514-4.625H259.019z"/>
</svg>
