<?xml version="1.0" encoding="utf-8"?>
<!-- Generator: Adobe Illustrator 16.0.0, SVG Export Plug-In . SVG Version: 6.00 Build 0)  -->
<svg version="1.1" id="Layer_1" xmlns="http://www.w3.org/2000/svg" xmlns:xlink="http://www.w3.org/1999/xlink" x="0px" y="0px"
	 width="612px" height="792px" viewBox="0 0 612 792" enable-background="new 0 0 612 792" xml:space="preserve">
<rect x="278.5" y="342.156" fill-opacity="0" fill="#231F20" width="57" height="108.807"/>
<circle fill="none" stroke="#231F20" stroke-miterlimit="10" cx="307" cy="352.606" r="2.5"/>
<path id="SECONDARY_59_" fill="#00BC03" d="M318.567,400.475c2.874-1.178,3.197-2.586,2.317-4.066
	c-0.226-0.369-0.521-0.746-0.874-1.124c-0.593-0.267-1.25-0.43-1.95-0.524c-0.706-0.044-1.48,0.15-2.349,0.525
	c-2.212,1.149-3.961,3.335-7.463,4.43c-0.872-1.642,0-3.28,0.876-4.918c0.221-0.41,0.389-0.803,0.41-1.156
	c-0.641-0.24-1.4-0.361-2.001-0.696c-0.517-0.438-0.883-0.697-1.35-1.002c0.315,0.122-3.185-6.432,0.315,0.122
	c0,1.092,5.251-1.093,6.872,1.134c0.063,0.344,0.097,0.697,0.113,1.058c0.015,0.357,0.015,0.723,0.015,1.087
	c1.973,0,1.725-1.038,1.805-1.96c0.006-0.303,0.05-0.593,0.048-0.786c3.4-2.718,1.648-3.811-1.853-3.811
	c3.501,0,5.253,0,6.999-2.184c-1.746,1.092-1.746,2.184-3.498,2.184c-5.25-1.092-10.501-6.554-15.751-2.184c0-0.272,0-0.547,0-0.82
	c0-0.819,0-1.638,0-2.458c0.526,0,1.144,0.015,2.002-0.112c6.75-2.072,10.248,5.574,15.501,2.299c0-1.093,1.746-3.278-0.88-4.127
	c0.136-0.34,0.361-0.655,0.574-0.995c0.194-0.41,0.306-0.89,0.306-1.435c0,0.819,0,1.638,0,2.458c0.034,0.295,0.21,0.677,0.407,1.09
	c0.313-0.363,0.88-0.537,1.396-0.731c3.828-1.194,4.976-3.227,3.447-6.094c-1.753-2.185-8.755-2.185-11.559-4.408
	c-0.34-0.24-0.969-0.414-2.414-0.536c-0.88,0.097-1.663,0.083-2.355-0.012c-0.689-0.095-1.294-0.274-1.814-0.515
	c-0.576,0.001-1.182,0.026-1.789,0.063c-0.267,0.259-0.469,0.658-0.674,1.094c-0.205,0.438-0.417,0.91-0.7,1.317
	c0.302,0.812,0.302,0.812-2.169,0.775c-0.57,0.027-1.028,0.036-1.028,0.036c-0.293-0.183-0.487-0.426-0.609-0.715
	c-0.608-1.442,0.609-4.021,0.609-5.841c0,1.094,0,3.276,3.499,2.185c0,0,0-1.091-0.026-1.276c0.651-0.113,1.298-0.275,1.93-0.461
	c1.899-0.562,3.654-1.368,4.893-1.919c0.327-0.292,0.593-0.451,0.821-0.481c0.452,0.01,0.841-0.051,1.133-0.231
	c0.875-1.64,0-2.732-1.532-3.414c-0.512-0.229-1.094-0.412-1.709-0.553c-0.218,2.394-2.683,4.312-5.524,5.516
	c-0.569,0.241-1.153,0.452-1.736,0.636c-0.315,0.159-0.971-0.486-1.36-1.093c-0.777-1.214-1.556-2.915-3.89-2.186
	c-0.656,0.274-1.204,0.58-1.646,0.912c-0.376,0.328-0.279,0.685,0.593,1.116c1.053,1.25,4.554,2.344,4.554,3.435
	c0,3.276-3.501,4.371-8.751,4.371c0.731,1.137,1.535,1.896,2.396,2.378c0.431,0.242,0.906,0.384,1.869,0.116
	c0.497-0.024,1-0.083,1.502-0.164c0.531-0.102,1.156-0.3,1.961-0.646c2.771-1.684,8.021-1.684,13.88-1.927
	c0.772-0.019,1.533-0.011,2.269,0.031c3.687,0.212,6.749,1.303,7.623,4.581c-1.314-0.273-2.737-0.546-4.185-0.751
	c-0.727-0.103-1.425-0.134-1.914,0.313c-0.595,0.836-1.588,1.484-2.794,2.034c-0.399,0.186-0.823,0.359-1.261,0.525
	c3.151,0.064-0.347,3.342,3.151,3.342c-3.498,0-8.749-3.277-12.401-0.021c-0.737,0.293-1.331,0.55-1.885,0.901
	c-0.534,0.331-1.026,0.758-1.462,1.306c0.437,0,0.988-0.017,1.605-0.054c1.894-2.133,5.394-1.039,7.143-1.039
	c-3.498-3.278-5.249,0-6.767,1.624c-0.621,0.561-0.814,0.561-0.232-0.531c0-0.548,0.164-0.958,0.458-1.265
	c0.321-0.329,0.807-0.604,1.507-0.896c3.285-4.396,10.285,3.252,13.786-2.211c0,1.093,0,3.278-1.752,3.278
	c-5.247,0-12.249-2.186-13.999,2.185c3.501-3.278,12.25-2.185,12.25,2.184c-1.749-3.275-7-6.554-11.938-3.746
	c-0.737,0.217-1.405,0.333-2.061,0.471c0.437-0.273,0.874-0.513,1.315-0.723c0.455-0.228,0.913-0.425,1.471-0.712
	c4.212-1.844,7.714-1.844,11.212-0.752c-3.498,0-8.749,0-12.25,0c0,0.272,0,0.546,0,0.82c0,0.545,0,1.093,0,1.638
	c0,0.273,0,0.548,0,0.82c1.75-3.278,8.752-2.185,10.501,0c-1.749-3.278-5.251-2.185-9.172-1.349
	c-0.617,0.177-1.193,0.289-1.693,0.108c-0.483-0.227-0.949-0.537-1.385-0.944c0.656-0.138,1.376-0.236,2.156-0.322
	c4.843-1.863,8.345,0.322,13.592,0.322c1.752,0,1.752-2.186,1.752-3.278c-3.501,3.278-10.501-1.093-14.467,2.271
	c-0.423,0.208-0.757,0.447-1.002,0.735s-0.403,0.628-0.458,1.033c-0.05,0.406,0,0.876,0.177,1.423
	c1.75-2.185,5.25-2.185,8.752-2.185c-3.502,0-7.002,0-8.177,1.754c-0.964,0.673-1.742,0.794-2.324,0.431
	c-0.439-1.365,0.109-2.185,1.167-2.715c0.527-0.265,1.2-0.474,1.971-0.652c2.112-3.188,9.112,2.275,8.517-3.212
	c0.268-0.161,0.717-0.313,1.164-0.471c1.375-0.468,2.715-0.964,4.006-1.534c0.401-0.249,0.912-0.218,1.437-0.171
	c1.617,0.236,3.174-0.123,4.488-2.171c-2.099-0.327-4.198-0.753-6.304-1.131c-0.698-0.127-1.399-0.245-2.097-0.355
	c-8.101-1.854-12.439,0.193-16.25,3.298c-0.425,0.345-0.841,0.702-1.255,1.069c-3.845,1.489-3.845,3.675-5.097,4.402
	c-0.498,0.426-0.935,0.273-1.374,0.091c-1.313-0.546-2.625-1.365-4.374-1.911c0,2.655,1.94,3.696,4.298,4.157
	c0.469,0.09,0.958,0.162,1.382-0.076c-0.43-2.988,4.82-2.988,4.491-6.439c0.361-0.429,0.756-0.858,1.192-1.279
	c3.505-3.364,8.666-5.623,16.698-3.401c0.615,0.188,1.225,0.393,1.829,0.61c1.804,0.648,3.534,1.403,5.108,2.059
	c-1.455-0.911-2.917-1.821-5.386-2.1c-0.459-0.034-0.803,0.069-0.947,0.371c-0.666,0.636,1.083,0.636,2.835,0.909
	c0.656,0,1.313-0.069,1.916-0.138c0.597-0.067,1.147-0.136,1.582-0.136c-1.398-0.438-2.8-0.786-4.194-1.045
	c-0.699-0.13-1.387-0.229-2.051-0.3c-7.877-0.59-11.956,0.307-14.894,2.771c-0.38,0.34-0.735,0.713-0.732,1.047
	c-0.985,1.94,0.368,2.541,2.258,2.76c0.632,0.072,1.323,0.104,2.006,0.13c0.618,0.033,1.421-0.064,2.279-0.132
	c0.43-0.032,0.877-0.059,1.346-0.06c1.732,0.292,3.485,0.292,5.234,1.385c-1.749,0-5.251,0-7.01-0.068
	c-0.624,0.141-1.196,0.272-1.693,0.346c-0.468,0.057-0.961,0.123-1.494,0.204c-0.713-0.051-1.374-0.057-1.923,0.044
	c-1.104,0.202-1.881,0.931-1.881,2.753c0-2.187,1.751-3.278,3.5-4.371c-8.75,0-7,5.463-7.611,8.222
	c-0.881,0.102-1.643,0.309-2.199,0.679c-0.555,0.37-0.903,0.902-0.954,1.651c-0.469,0.018-0.911,0.074-1.321,0.22
	c-0.82,0.29-1.477,0.972-1.917,2.34c0,1.092,0.585,1.818,1.424,2.347c0.418,0.261,0.903,0.475,1.407,0.657
	c0.347-0.159,0.705-0.32,1.063-0.482c0.361-0.159,0.723-0.318,1.115-0.632c0.241-0.798,7.242-0.798,1.992-2.984
	c0.583-0.363,1.167-0.637,1.75-0.829c0.551-0.213,1.101-0.344,1.536-0.485c3.714,0.223,5.464,1.314,7.168,2.406
	c-0.785,0.104-1.507,0.234-2.146,0.392c-4.52,1.091-4.99,3.4-4.727,5.552c0.051,0.409,0.208,0.833,1.039,1.439
	c2.38,1.36,2.38,3.544,2.38,4.637c-3.5-1.093-1.749-5.462-6.403-5.659c-0.295-0.385-0.469-0.773-0.538-1.158
	c-0.437-2.354,3.027-4.57,6.979-5.087c0.563-0.073,1.136-0.112,1.712-0.112c0-1.095-1.75-1.095-2.791-1.009
	c-0.727-0.093-1.584-0.086-2.459-0.086c-3.5,1.095-5.25,3.278-5.161,5.394c-0.073,0.424-0.197,0.691-0.318,0.964
	c-0.216,0.5-0.357,1.005-0.449,1.501c2.428,0.882,2.428,1.977,2.428,3.067c0,1.093-3.5,1.093-5.25,1.093
	c1.749,0,6.999,1.093,6.999-2.184c0-2.186-5.25,0-3.847-2.35c0.113-0.458,0.252-0.898,0.436-1.323
	c-0.089-1.79-0.089-3.976,5.161-5.067c-5.25,1.092-5.25,3.277-5.129,5.276c-0.198,0.431-0.34,0.876-0.423,1.325
	c10.802,2.139-1.448,6.507,3.802,9.786c0.875,0.547,2.188,0.547,3.718,0.452c0.511-0.033,1.045-0.073,1.596-0.109
	c1.266-0.257,3.55-0.32,5.352-0.338c0.599-0.005,1.21-0.038,1.87-0.138c1.467,0.133,1.467,0.133,3.216,0.133
	c-3.502-1.094-3.502,3.277-7.485,2.687c-0.069-0.206,0.004-0.563-0.04-0.896c-0.085-0.67-0.694-1.188-3.658-0.583
	c-0.791-0.015-1.483-0.079-2.092-0.185c-4.281-0.732-4.665-3.481-7.727-5.394c-1.749,1.092-3.501,2.187-4.495,3.296
	c-0.123,0.477,0.1,1.237-0.106,1.529c0.685,0.141,0.705-0.149,1.048,0.515c0.102,0.487,0.052,0.852,0.052,1.217
	c0.22,0.408,0.492,0.802,0.814,1.174c0.323,0.372,0.693,0.722,1.102,1.04c0.265-0.371,0.581-0.74,0.944-1.096
	c0.292-0.372,0.421-0.793,0.062-1.384c0.58-0.828-1.169-0.828-1.169-1.92c4.374-0.911,7.534,1.213,10.491,1.946
	c0.607,0.122,1.206,0.188,1.958-0.067c0,0-0.553,0.421-1.156,0.786c-0.518,0.207-1.115,0.345-1.437,0.077
	c-0.705,0.226-1.321,0.49-1.861,0.788c-3.254,1.785-3.463,4.621-0.368,6.133c0.068,0.349,0.274,0.702,0.67,1.066
	c0.398,0.364,0.982,0.741,1.811,1.13c0.433,0.487,0.391,0.888,0.391,1.251c0.874,0,1.556-0.122,2.098-0.328
	c-0.349-0.766-0.349-0.766-1.041-2c-0.31-0.202-0.575-0.439-0.826-0.765c-0.079-2.246,0.065-3.017,0.303-3.055
	c0.237-0.039,0.697,0.284,0.982,0.605c3.734,1.17,1.983,3.356,1.322,4.389c-0.042,0.692-0.506,0.971-1.089,1.153
	c0.438-0.09,0.735-0.264,0.896-0.53c1.735-1.104,0.76-2.442,0.435-3.536c-0.164-0.545-0.164-1.032,0.419-1.396
	c1.751-2.185,3.5-4.37,8.751-5.462c-7,1.092-10.501,6.553-4.161,10.163c-0.037,0.391-0.29,0.726-0.839,1.009
	c-0.591,0.264-1.476,0.475-2.771,0.618c-0.809,0.019-1.479,0.042-2.028,0.073c-6.025,0.328,2.8,1.247,2.8,1.247
	c0.35,0.437,0.751,0.764,1.19,0.997c1.382,0.726,3.124,0.498,4.718-0.293c0.486-0.259,0.952-0.576,0.844-0.893
	c0.063-0.225,0-0.531-0.104-0.881c-0.168-0.366-0.38-0.772-0.752-1.231c-0.646-2.07-2.399-2.07-4.148-3.163
	c3.502,0,5.251,4.37,10.501,1.093c-1.752,0-8.752,1.092-6.999-2.187c3.498-2.183,10.497-2.183,10.497-5.461
	c-1.746-2.186-5.25-4.371-10.672-4.811c-0.501-0.209-1.03-0.424-1.578-0.651c-0.271-0.239-0.105-0.438,0.425-0.711
	c0.529-0.273,1.084-0.326,1.68-0.299c1.188,0.054,2.656,0.313,3.772,0.226c0.383-0.106,0.651-0.349,0.731-0.883
	c0.048-0.612,0.202-1.182,0.438-1.706c0.062-0.259,0.008-0.517-0.495-0.802c-0.325-0.321-0.674-0.632-1.05-0.934
	c-0.231-0.155-0.54-0.311-0.979-0.481c-0.341-0.323-1.149-0.414-2.102-0.4c-0.333,0.811-1.376,1.214-2.335,1.416
	c-0.957,0.202-1.834,0.202-1.834,0.202c-0.452-0.543-0.343-0.816,0.068-0.952c1.19-0.402,4.973,0.448,4.338-1.067
	c0.57-0.125,0.965,0.071,1.393,0.232c0.857,0.319,1.848,0.494,3.052,0.391c1.111,0.084,1.788,0.162,2.423,0.205
	c2.521,0.175,4.938-0.294,7.156-1.78c0.616-0.263,1.089-0.364,1.57-0.472c0.339,0.044,0.673,0.099,1,0.167
	c-0.29-0.183-0.629-0.425-1.018-0.689c-0.204-0.101-0.51-0.056-0.982,0.174c-0.672,0.27-1.389,0.503-2.115,0.696
	c-0.73,0.192-1.477,0.35-2.229,0.465c-2.216,0.167-4.828,0.272-7.141,0.106c-0.77-0.055-1.506-0.139-2.183-0.262
	c-1.374-1.187-1.719,1.589-3.28,1.667c-0.262,0.015-0.556-0.047-0.893-0.216c-1.16-0.851-4.66-0.851-4.66-3.032
	c3.5,1.091,7.002-1.095,9.893-0.458c0.188,0.129,0.254,0.387,0.393,0.648c0.281,0.519,1.188,0.875,3.427,0.863
	C317.332,400.726,317.959,400.623,318.567,400.475z"/>
</svg>
