<?xml version="1.0" encoding="utf-8"?>
<!-- Generator: Adobe Illustrator 16.0.0, SVG Export Plug-In . SVG Version: 6.00 Build 0)  -->
<svg version="1.1" id="Layer_1" xmlns="http://www.w3.org/2000/svg" xmlns:xlink="http://www.w3.org/1999/xlink" x="0px" y="0px"
	 width="612px" height="792px" viewBox="0 0 612 792" enable-background="new 0 0 612 792" xml:space="preserve">
<rect x="177.582" y="331.827" fill="#231F20" fill-opacity="0" width="256" height="128.347"/>
<path id="PRIMARY_12_" fill="#FF0000" stroke="#231F20" stroke-width="3.6626" stroke-miterlimit="10" d="M194.44,459.063
	c-0.764-4.072-0.538-8.391-1.186-12.459c-17.198-108.444,47.414-83.996,113.729-86.688c105.339-4.272,113.733,38.815,113.733,86.688
	c0,4.229-0.418,8.387-1.182,12.459H194.44z"/>
<path id="SECONDARY_16_" fill="#FFFDB5" stroke="#231F20" stroke-width="3.6626" stroke-miterlimit="10" d="M280.371,456.016
	c13.261,4.975,26.313,3.173,33.787-0.526c24.265-7.362-7.293-33.666-18.997-36.266c-2.133-0.612-4.266-0.945-6.332-0.978
	c-4.133-0.068-8.029,1.066-11.219,3.531c-4.786,3.691-7.101,9.672-6.968,16.354c0.042,2.224,0.357,4.53,0.947,6.857
	c0.611,2.31,1.588,4.58,3.029,6.504C276.057,453.43,277.997,454.924,280.371,456.016z"/>
<path id="SECONDARY_15_" fill="#FFFDB5" stroke="#231F20" stroke-width="3.6626" stroke-miterlimit="10" d="M339.857,456.016
	c13.262,4.975,26.312,3.173,33.778-0.526c24.268-7.362-7.284-33.666-18.988-36.266c-2.136-0.612-4.266-0.945-6.337-0.978
	c-4.138-0.068-8.027,1.066-11.215,3.531c-4.79,3.691-7.102,9.672-6.973,16.354c0.043,2.224,0.357,4.53,0.95,6.857
	c0.607,2.31,1.59,4.58,3.029,6.504C335.542,453.43,337.479,454.924,339.857,456.016z"/>
<path id="SECONDARY_14_" fill="#FFFDB5" stroke="#231F20" stroke-width="3.6626" stroke-miterlimit="10" d="M390.13,448.811
	c10.402,6.951,22.481,8.122,30.126,6.528c23.564-1.218,2.798-30.006-6.88-34.618c-1.723-0.967-3.522-1.684-5.352-2.139
	c-3.651-0.909-7.417-0.755-10.925,0.674c-5.263,2.138-8.964,6.718-10.689,12.404c-0.571,1.898-0.929,3.911-1.05,6.006
	c-0.089,2.077,0.15,4.201,0.9,6.135C387.011,445.73,388.322,447.393,390.13,448.811z"/>
</svg>
