<?xml version="1.0" encoding="utf-8"?>
<!-- Generator: Adobe Illustrator 16.0.0, SVG Export Plug-In . SVG Version: 6.00 Build 0)  -->
<svg version="1.1" id="Layer_1" xmlns="http://www.w3.org/2000/svg" xmlns:xlink="http://www.w3.org/1999/xlink" x="0px" y="0px"
	 width="612px" height="792px" viewBox="0 0 612 792" enable-background="new 0 0 612 792" xml:space="preserve">
<rect x="253.5" y="379.606" fill-opacity="0" fill="#231F20" width="105" height="34"/>
<path id="PRIMARY_6_" fill="#F77300" stroke="#231F20" stroke-miterlimit="10" d="M337.182,387.779
	c-0.597-2.979-3.889-5.479-8.443-6.697c-0.06-0.017-0.12-0.034-0.182-0.051c-0.285-0.073-0.576-0.139-0.87-0.202
	c-0.131-0.028-0.263-0.057-0.396-0.083c-0.265-0.052-0.53-0.1-0.801-0.143c-0.179-0.029-0.359-0.055-0.539-0.079
	c-0.245-0.034-0.49-0.066-0.741-0.094c-0.231-0.024-0.465-0.043-0.698-0.061c-0.215-0.018-0.427-0.037-0.643-0.049
	c-0.402-0.021-0.81-0.032-1.222-0.034c-0.051-0.001-0.101-0.005-0.152-0.005h-0.024h-0.014h-0.026h-32.884h-0.027h-0.014h-0.024
	c-0.052,0-0.102,0.004-0.152,0.005c-0.412,0.002-0.819,0.013-1.222,0.034c-0.216,0.012-0.428,0.031-0.643,0.049
	c-0.233,0.018-0.468,0.036-0.698,0.061c-0.251,0.027-0.496,0.06-0.741,0.094c-0.18,0.024-0.36,0.05-0.538,0.079
	c-0.271,0.043-0.537,0.091-0.802,0.143c-0.134,0.026-0.265,0.055-0.396,0.083c-0.294,0.063-0.585,0.129-0.87,0.202
	c-0.062,0.017-0.122,0.034-0.182,0.051c-4.555,1.219-7.845,3.719-8.442,6.697c-9.186,7.031-18.493,13.808-18.793,25.151
	c0.353,0,0.74,0,1.158,0c7.124,0,23.514,0,29.827,0l19.002-8.402l19.002,8.402c6.313,0,22.703,0,29.825,0c0.422,0,0.809,0,1.159,0
	C355.674,401.587,346.365,394.812,337.182,387.779z"/>
<path id="SECONDARY_20_" fill="#7CD5FF" stroke="#231F20" stroke-miterlimit="10" d="M283.229,383.012c-2.023,0-2.023,0-2.023,1.79
	v1.354c0,1.79,0,1.79,2.023,1.79c2.024,0,2.024,0,2.024-1.79v-1.354C285.253,383.012,285.253,383.012,283.229,383.012z"/>
<path id="SECONDARY_19_" fill="#7CD5FF" stroke="#231F20" stroke-miterlimit="10" d="M304.955,381.973c-5.307,0-5.307,0-5.307,2.544
	v1.925c0,2.544,0,2.544,5.307,2.544c5.308,0,5.308,0,5.308-2.544v-1.925C310.263,381.973,310.263,381.973,304.955,381.973z"/>
<path id="SECONDARY_18_" fill="#7CD5FF" stroke="#231F20" stroke-miterlimit="10" d="M292.396,383.012c-2.023,0-2.023,0-2.023,1.79
	v1.354c0,1.79,0,1.79,2.023,1.79c2.024,0,2.024,0,2.024-1.79v-1.354C294.42,383.012,294.42,383.012,292.396,383.012z"/>
<path id="SECONDARY_16_" fill="#7CD5FF" stroke="#231F20" stroke-miterlimit="10" d="M316.812,383.012c-2.023,0-2.023,0-2.023,1.79
	v1.354c0,1.79,0,1.79,2.023,1.79c2.024,0,2.024,0,2.024-1.79v-1.354C318.836,383.012,318.836,383.012,316.812,383.012z"/>
<path id="SECONDARY_15_" fill="#7CD5FF" stroke="#231F20" stroke-miterlimit="10" d="M327.104,383.012c-2.023,0-2.023,0-2.023,1.79
	v1.354c0,1.79,0,1.79,2.023,1.79c2.024,0,2.024,0,2.024-1.79v-1.354C329.128,383.012,329.128,383.012,327.104,383.012z"/>
</svg>
