<?xml version="1.0" encoding="utf-8"?>
<!-- Generator: Adobe Illustrator 16.0.0, SVG Export Plug-In . SVG Version: 6.00 Build 0)  -->
<svg version="1.1" id="Layer_1" xmlns="http://www.w3.org/2000/svg" xmlns:xlink="http://www.w3.org/1999/xlink" x="0px" y="0px"
	 width="612px" height="792px" viewBox="0 0 612 792" enable-background="new 0 0 612 792" xml:space="preserve">
<rect x="178.581" y="332.584" fill-opacity="0" fill="#231F20" width="256" height="128.044"/>
<path id="PRIMARY_9_" fill="#F77300" stroke="#231F20" stroke-width="3.6583" stroke-miterlimit="10" d="M425.535,396.828
	c0,13.576-10.567,24.58-23.61,24.58H249.769c-13.04,0-23.609-11.004-23.609-24.58l0,0c0-13.576,10.569-24.58,23.609-24.58h152.156
	C414.968,372.248,425.535,383.252,425.535,396.828L425.535,396.828z"/>
<rect id="SECONDARY_23_" x="252.631" y="434.934" fill="#7CD5FF" stroke="#231F20" stroke-width="3.6583" stroke-miterlimit="10" width="18.9" height="25.695"/>
<rect id="SECONDARY_22_" x="390.117" y="434.934" fill="#7CD5FF" stroke="#231F20" stroke-width="3.6583" stroke-miterlimit="10" width="18.902" height="25.695"/>
<polygon id="SECONDARY_21_" fill="#7CD5FF" stroke="#231F20" stroke-width="3.6583" stroke-miterlimit="10" points="
	291.239,419.925 333.36,372.248 408.58,372.248 418.458,419.539 427.236,419.539 416.461,367.814 416.461,362.073 325.294,362.073 
	325.294,362.966 274.968,419.925 226.051,419.925 226.051,437.139 429.29,437.139 429.29,419.925 "/>
</svg>
