<?xml version="1.0" encoding="utf-8"?>
<!-- Generator: Adobe Illustrator 16.0.0, SVG Export Plug-In . SVG Version: 6.00 Build 0)  -->
<svg version="1.1" id="Layer_1" xmlns="http://www.w3.org/2000/svg" xmlns:xlink="http://www.w3.org/1999/xlink" x="0px" y="0px"
	 width="612px" height="792px" viewBox="0 0 612 792" enable-background="new 0 0 612 792" xml:space="preserve">
<rect x="178" y="354.712" fill-opacity="0" fill="#231F20" width="256" height="83.789"/>
<path id="PRIMARY_6_" fill="#F77300" stroke="#231F20" stroke-width="2.4512" stroke-miterlimit="10" d="M382.023,374.853
	c-1.454-7.34-9.48-13.504-20.585-16.505c-0.146-0.041-0.293-0.084-0.443-0.125c-0.695-0.181-1.404-0.342-2.121-0.499
	c-0.319-0.07-0.641-0.14-0.967-0.205c-0.646-0.127-1.293-0.245-1.952-0.351c-0.436-0.072-0.877-0.135-1.314-0.195
	c-0.598-0.084-1.195-0.164-1.808-0.231c-0.563-0.06-1.133-0.106-1.702-0.149c-0.523-0.043-1.04-0.092-1.566-0.121
	c-0.981-0.053-1.974-0.079-2.979-0.084c-0.124-0.002-0.245-0.012-0.372-0.012h-0.06h-0.033h-0.064h-80.173h-0.067h-0.033h-0.06
	c-0.126,0-0.248,0.01-0.371,0.012c-1.005,0.005-1.998,0.031-2.979,0.084c-0.526,0.029-1.043,0.077-1.567,0.121
	c-0.569,0.043-1.141,0.089-1.703,0.149c-0.612,0.067-1.209,0.147-1.807,0.231c-0.438,0.061-0.879,0.123-1.312,0.195
	c-0.662,0.106-1.31,0.224-1.955,0.351c-0.326,0.065-0.645,0.135-0.966,0.205c-0.717,0.157-1.426,0.318-2.122,0.499
	c-0.15,0.041-0.298,0.084-0.443,0.125c-11.105,3.003-19.127,9.165-20.583,16.505c-22.395,17.328-45.088,34.027-45.819,61.983
	c0.859,0,1.804,0,2.823,0c17.368,0,57.33,0,72.72,0l46.329-20.707l46.329,20.707c15.391,0,55.353,0,72.717,0
	c1.028,0,1.971,0,2.826,0C427.109,408.88,404.414,392.183,382.023,374.853z"/>
<path id="SECONDARY_20_" fill="#7CD5FF" stroke="#231F20" stroke-width="2.4512" stroke-miterlimit="10" d="M250.481,363.104
	c-4.933,0-4.933,0-4.933,4.412v3.338c0,4.411,0,4.411,4.933,4.411c4.936,0,4.936,0,4.936-4.411v-3.338
	C255.417,363.104,255.417,363.104,250.481,363.104z"/>
<path id="SECONDARY_19_" fill="#7CD5FF" stroke="#231F20" stroke-width="2.4512" stroke-miterlimit="10" d="M303.452,360.543
	c-12.938,0-12.938,0-12.938,6.27v4.743c0,6.27,0,6.27,12.938,6.27c12.94,0,12.94,0,12.94-6.27v-4.743
	C316.393,360.543,316.393,360.543,303.452,360.543z"/>
<path id="SECONDARY_18_" fill="#7CD5FF" stroke="#231F20" stroke-width="2.4512" stroke-miterlimit="10" d="M272.831,363.104
	c-4.934,0-4.934,0-4.934,4.412v3.338c0,4.411,0,4.411,4.934,4.411c4.936,0,4.936,0,4.936-4.411v-3.338
	C277.767,363.104,277.767,363.104,272.831,363.104z"/>
<path id="SECONDARY_16_" fill="#7CD5FF" stroke="#231F20" stroke-width="2.4512" stroke-miterlimit="10" d="M332.359,363.104
	c-4.934,0-4.934,0-4.934,4.412v3.338c0,4.411,0,4.411,4.934,4.411c4.936,0,4.936,0,4.936-4.411v-3.338
	C337.295,363.104,337.295,363.104,332.359,363.104z"/>
<path id="SECONDARY_15_" fill="#7CD5FF" stroke="#231F20" stroke-width="2.4512" stroke-miterlimit="10" d="M357.452,363.104
	c-4.933,0-4.933,0-4.933,4.412v3.338c0,4.411,0,4.411,4.933,4.411c4.936,0,4.936,0,4.936-4.411v-3.338
	C362.388,363.104,362.388,363.104,357.452,363.104z"/>
</svg>
