<?xml version="1.0" encoding="utf-8"?>
<!-- Generator: Adobe Illustrator 16.0.0, SVG Export Plug-In . SVG Version: 6.00 Build 0)  -->
<svg version="1.1" id="Layer_1" xmlns="http://www.w3.org/2000/svg" xmlns:xlink="http://www.w3.org/1999/xlink" x="0px" y="0px"
	 width="612px" height="792px" viewBox="0 0 612 792" enable-background="new 0 0 612 792" xml:space="preserve">
<rect x="271.592" y="379.106" fill-opacity="0" fill="#231F20" width="69.979" height="35"/>
<path id="PRIMARY_9_" fill="#F77300" stroke="#231F20" stroke-miterlimit="10" d="M339.098,396.667c0,3.711-2.889,6.719-6.454,6.719
	h-41.592c-3.564,0-6.454-3.008-6.454-6.719l0,0c0-3.711,2.889-6.719,6.454-6.719h41.592
	C336.209,389.948,339.098,392.956,339.098,396.667L339.098,396.667z"/>
<rect id="SECONDARY_23_" x="291.833" y="407.083" fill="#7CD5FF" stroke="#231F20" stroke-miterlimit="10" width="5.167" height="7.023"/>
<rect id="SECONDARY_22_" x="329.416" y="407.083" fill="#7CD5FF" stroke="#231F20" stroke-miterlimit="10" width="5.167" height="7.023"/>
<polygon id="SECONDARY_21_" fill="#7CD5FF" stroke="#231F20" stroke-miterlimit="10" points="302.387,402.98 313.901,389.948 
	334.463,389.948 337.163,402.875 339.563,402.875 336.617,388.736 336.617,387.167 311.696,387.167 311.696,387.411 297.939,402.98 
	284.568,402.98 284.568,407.686 340.124,407.686 340.124,402.98 "/>
</svg>
