<?xml version="1.0" encoding="utf-8"?>
<!-- Generator: Adobe Illustrator 16.0.0, SVG Export Plug-In . SVG Version: 6.00 Build 0)  -->
<svg version="1.1" id="Layer_1" xmlns="http://www.w3.org/2000/svg" xmlns:xlink="http://www.w3.org/1999/xlink" x="0px" y="0px"
	 width="612px" height="792px" viewBox="0 0 612 792" enable-background="new 0 0 612 792" xml:space="preserve">
<rect id="body_frame_1_" x="229.5" y="298.5" fill-opacity="0" fill="#BBBCBE" width="151" height="191"/>
<path id="SECONDARY_21_" fill="#005601" stroke="#231F20" stroke-miterlimit="10" d="M337.529,392.5
	c0,51.635-23.519,93.492-52.532,93.492c-32.997,0-53.796-19.325-53.796-93.492c0-70.5-3.535-93.492,53.796-93.492
	C314.01,299.008,337.529,340.866,337.529,392.5z"/>
<line fill="none" stroke="#231F20" stroke-miterlimit="10" x1="239.593" y1="313.533" x2="282.353" y2="356.858"/>
<line fill="none" stroke="#231F20" stroke-miterlimit="10" x1="232" y1="348.667" x2="274" y2="370.11"/>
<line fill="none" stroke="#231F20" stroke-miterlimit="10" x1="231" y1="385" x2="280" y2="385.667"/>
<line fill="none" stroke="#231F20" stroke-miterlimit="10" x1="231.77" y1="417" x2="283.192" y2="403.334"/>
<line fill="none" stroke="#231F20" stroke-miterlimit="10" x1="237.445" y1="448.472" x2="284.149" y2="429"/>
<line fill="none" stroke="#231F20" stroke-miterlimit="10" x1="249" y1="471.334" x2="287.073" y2="449.472"/>
<path fill="none" stroke="#231F20" stroke-miterlimit="10" d="M263.138,482.015c-41.769-78.579-33.632-158.199,13.63-183.321"/>
<path id="PRIMARY_8_" fill="#00BC03" stroke="#231F20" stroke-miterlimit="10" d="M359.682,393.955c0-0.018,0-0.034,0-0.052
	c0-0.037-0.019-0.079-0.001-0.111c50.652-94.784-23.796-95.062-53.567-94.75c-0.782-0.055-1.567-0.09-2.357-0.09
	c-0.779,0-1.553,0.034-2.324,0.088c-29.789-0.366-98.765-0.388-53.602,94.755c0.016,0.033-0.001,0.072-0.001,0.108
	c0,0.018,0,0.034,0,0.052s0,0.034,0,0.052c0,0.036,0.001,0.072,0.001,0.108c0.034,101.082,23.809,95.122,53.596,94.756
	c0.773,0.054,1.549,0.088,2.33,0.088c0.792,0,1.579-0.035,2.363-0.09c29.77,0.311,53.527,5.095,53.562-94.751
	c0-0.037,0.001-0.074,0.001-0.111C359.682,393.989,359.682,393.973,359.682,393.955z"/>
<ellipse id="SECONDARY_22_" fill="#005601" stroke="#231F20" stroke-miterlimit="10" cx="314.238" cy="390.5" rx="30.791" ry="76.833"/>
<line fill="none" stroke="#231F20" stroke-miterlimit="10" x1="283.447" y1="390.5" x2="345.028" y2="390.5"/>
<path fill="none" stroke="#231F20" stroke-miterlimit="10" d="M284.043,375.743c0-1.554,35.49-6.079,60.391,0"/>
<path fill="none" stroke="#231F20" stroke-miterlimit="10" d="M286.051,360.089c0-1.554,33.13-6.079,56.375,0"/>
<path fill="none" stroke="#231F20" stroke-miterlimit="10" d="M289.566,344.749c0-1.554,29.007-6.079,49.359,0"/>
<path fill="none" stroke="#231F20" stroke-miterlimit="10" d="M295.586,330.03c0-1.554,21.933-6.079,37.32,0"/>
<path fill="none" stroke="#231F20" stroke-miterlimit="10" d="M284.041,405.939c0,1.555,35.49,6.079,60.391,0"/>
<path fill="none" stroke="#231F20" stroke-miterlimit="10" d="M285.557,420.635c0,1.554,33.72,6.078,57.379,0"/>
<path fill="none" stroke="#231F20" stroke-miterlimit="10" d="M289.055,435.463c0,1.555,29.597,6.08,50.363,0"/>
<path fill="none" stroke="#231F20" stroke-miterlimit="10" d="M294.586,448.708c0,1.554,23.107,6.079,39.32,0"/>
<ellipse id="SECONDARY_29_" transform="matrix(0.9997 0.0256 -0.0256 0.9997 9.0851 -6.0882)" fill="#005601" cx="242.454" cy="351.978" rx="4.046" ry="6.907"/>
<circle id="SECONDARY_28_" fill="#005601" cx="247.139" cy="323.048" r="2.471"/>
<ellipse id="SECONDARY_27_" transform="matrix(0.9454 0.326 -0.326 0.9454 125.7579 -63.2378)" fill="#005601" cx="251.567" cy="343.616" rx="1.183" ry="1.334"/>
<ellipse id="SECONDARY_26_" transform="matrix(0.9976 0.0687 -0.0687 0.9976 23.4176 -16.5119)" fill="#005601" cx="251.83" cy="332.29" rx="2.126" ry="3.625"/>
<ellipse id="SECONDARY_25_" transform="matrix(-0.7376 -0.6752 0.6752 -0.7376 237.2111 718.2363)" fill="#005601" cx="258.151" cy="313.031" rx="2.39" ry="7.625"/>
<ellipse id="SECONDARY_24_" transform="matrix(-0.9454 -0.326 0.326 -0.9454 364.0828 735.1056)" fill="#005601" cx="243.634" cy="337.047" rx="1.25" ry="3.625"/>
<ellipse id="SECONDARY_23_" transform="matrix(-0.9454 -0.3259 0.3259 -0.9454 398.7251 727.1794)" fill="#005601" cx="260.275" cy="330.19" rx="3.125" ry="4.125"/>
<ellipse id="SECONDARY_36_" transform="matrix(-0.5609 0.8279 -0.8279 -0.5609 794.873 195.1259)" fill="#005601" cx="345.69" cy="308.36" rx="4.045" ry="6.907"/>
<circle id="SECONDARY_35_" fill="#005601" cx="367.52" cy="327.913" r="2.471"/>
<ellipse id="SECONDARY_34_" transform="matrix(-0.7845 0.6201 -0.6201 -0.7845 819.4504 356.3516)" fill="#005601" cx="347.814" cy="320.544" rx="1.183" ry="1.335"/>
<ellipse id="SECONDARY_33_" transform="matrix(-0.5961 0.8029 -0.8029 -0.5961 832.5952 234.9419)" fill="#005601" cx="357.208" cy="326.876" rx="2.126" ry="3.624"/>
<ellipse id="SECONDARY_32_" transform="matrix(0.9665 -0.2566 0.2566 0.9665 -75.5307 106.4367)" fill="#005601" cx="370.013" cy="342.59" rx="2.39" ry="7.625"/>
<ellipse id="SECONDARY_31_" transform="matrix(0.7846 -0.6201 0.6201 0.7846 -119.7646 290.1342)" fill="#005601" cx="357.624" cy="317.41" rx="1.25" ry="3.625"/>
<ellipse id="SECONDARY_30_" transform="matrix(0.7844 -0.6202 0.6202 0.7844 -131.4443 292.0518)" fill="#005601" cx="354.419" cy="335.12" rx="3.125" ry="4.125"/>
</svg>
