<?xml version="1.0" encoding="utf-8"?>
<!-- Generator: Adobe Illustrator 16.0.0, SVG Export Plug-In . SVG Version: 6.00 Build 0)  -->
<svg version="1.1" id="Layer_1" xmlns="http://www.w3.org/2000/svg" xmlns:xlink="http://www.w3.org/1999/xlink" x="0px" y="0px"
	 width="612px" height="792px" viewBox="0 0 612 792" enable-background="new 0 0 612 792" xml:space="preserve">
<rect id="body_frame_1_" x="204" y="266.236" fill="#BBBCBE" fill-opacity="0" width="202" height="255.527"/>
<path id="SECONDARY_21_" fill="#005601" stroke="#231F20" stroke-width="1.3378" stroke-miterlimit="10" d="M348.516,391.993
	c0,69.079-31.463,125.077-70.274,125.077c-44.142,0-71.965-25.854-71.965-125.077c0-94.317-4.729-125.078,71.965-125.078
	C317.053,266.916,348.516,322.916,348.516,391.993z"/>
<line fill="none" stroke="#231F20" stroke-width="1.3378" stroke-miterlimit="10" x1="217.501" y1="286.348" x2="274.704" y2="344.31"/>
<line fill="none" stroke="#231F20" stroke-width="1.3378" stroke-miterlimit="10" x1="207.344" y1="333.352" x2="263.53" y2="362.039"/>
<line fill="none" stroke="#231F20" stroke-width="1.3378" stroke-miterlimit="10" x1="206.007" y1="381.959" x2="271.556" y2="382.852"/>
<line fill="none" stroke="#231F20" stroke-width="1.3378" stroke-miterlimit="10" x1="207.037" y1="424.771" x2="275.826" y2="406.487"/>
<line fill="none" stroke="#231F20" stroke-width="1.3378" stroke-miterlimit="10" x1="214.628" y1="466.874" x2="277.106" y2="440.824"/>
<line fill="none" stroke="#231F20" stroke-width="1.3378" stroke-miterlimit="10" x1="230.086" y1="497.461" x2="281.019" y2="468.212"/>
<path fill="none" stroke="#231F20" stroke-width="1.3378" stroke-miterlimit="10" d="M249,511.75
	c-55.876-105.127-44.992-211.645,18.233-245.254"/>
<path id="PRIMARY_8_" fill="#00BC03" stroke="#231F20" stroke-width="1.3378" stroke-miterlimit="10" d="M378.15,393.94
	c0-0.024,0-0.046,0-0.07c0-0.049-0.025-0.105-0.001-0.148c67.76-126.806-31.833-127.178-71.659-126.76
	c-1.046-0.074-2.097-0.12-3.154-0.12c-1.042,0-2.077,0.045-3.108,0.118c-39.851-0.49-132.123-0.52-71.706,126.767
	c0.021,0.044-0.001,0.097-0.001,0.145c0,0.024,0,0.046,0,0.07s0,0.046,0,0.069c0,0.048,0.001,0.097,0.001,0.145
	c0.045,135.231,31.851,127.258,71.697,126.768c1.035,0.072,2.073,0.118,3.117,0.118c1.06,0,2.112-0.047,3.162-0.12
	c39.824,0.415,71.606,6.815,71.652-126.762c0-0.05,0.001-0.1,0.001-0.149C378.15,393.986,378.15,393.964,378.15,393.94z"/>
<ellipse id="SECONDARY_22_" fill="#005601" stroke="#231F20" stroke-width="1.3378" stroke-miterlimit="10" cx="317.358" cy="389.317" rx="41.19" ry="102.79"/>
<line fill="none" stroke="#231F20" stroke-width="1.3378" stroke-miterlimit="10" x1="276.167" y1="389.317" x2="358.548" y2="389.317"/>
<path fill="none" stroke="#231F20" stroke-width="1.3378" stroke-miterlimit="10" d="M276.965,369.575
	c0-2.079,47.477-8.133,80.787,0"/>
<path fill="none" stroke="#231F20" stroke-width="1.3378" stroke-miterlimit="10" d="M279.651,348.632
	c0-2.079,44.319-8.133,75.416,0"/>
<path fill="none" stroke="#231F20" stroke-width="1.3378" stroke-miterlimit="10" d="M284.353,328.11c0-2.08,38.804-8.133,66.03,0"
	/>
<path fill="none" stroke="#231F20" stroke-width="1.3378" stroke-miterlimit="10" d="M292.406,308.418
	c0-2.079,29.341-8.132,49.926,0"/>
<path fill="none" stroke="#231F20" stroke-width="1.3378" stroke-miterlimit="10" d="M276.962,409.973c0,2.08,47.478,8.132,80.788,0
	"/>
<path fill="none" stroke="#231F20" stroke-width="1.3378" stroke-miterlimit="10" d="M278.99,429.633c0,2.08,45.109,8.132,76.758,0"
	/>
<path fill="none" stroke="#231F20" stroke-width="1.3378" stroke-miterlimit="10" d="M283.67,449.471c0,2.08,39.594,8.134,67.373,0"
	/>
<path fill="none" stroke="#231F20" stroke-width="1.3378" stroke-miterlimit="10" d="M291.069,467.19c0,2.079,30.912,8.133,52.6,0"
	/>
<ellipse id="SECONDARY_29_" transform="matrix(0.0256 -0.9997 0.9997 0.0256 -122.0231 550.4097)" fill="#005601" cx="221.331" cy="337.799" rx="9.241" ry="5.413"/>
<circle id="SECONDARY_28_" fill="#005601" cx="227.597" cy="299.078" r="3.306"/>
<ellipse id="SECONDARY_27_" transform="matrix(0.3259 -0.9454 0.9454 0.3259 -151.3536 440.961)" fill="#005601" cx="233.525" cy="326.61" rx="1.785" ry="1.583"/>
<ellipse id="SECONDARY_26_" transform="matrix(0.0687 -0.9976 0.9976 0.0687 -92.9127 523.3274)" fill="#005601" cx="233.852" cy="311.43" rx="4.849" ry="2.843"/>
<ellipse id="SECONDARY_25_" transform="matrix(-0.6752 0.7376 -0.7376 -0.6752 616.6973 299.8285)" fill="#005601" cx="242.337" cy="285.69" rx="10.2" ry="3.198"/>
<ellipse id="SECONDARY_24_" transform="matrix(-0.3259 0.9454 -0.9454 -0.3259 595.9896 210.6443)" fill="#005601" cx="222.9" cy="317.792" rx="4.85" ry="1.672"/>
<ellipse id="SECONDARY_23_" transform="matrix(-0.3259 0.9454 -0.9454 -0.3259 616.8469 177.4402)" fill="#005601" cx="245.163" cy="308.638" rx="5.518" ry="4.181"/>
<ellipse id="SECONDARY_36_" transform="matrix(0.8279 0.5609 -0.5609 0.8279 218.6176 -153.5134)" fill="#005601" cx="359.425" cy="279.432" rx="9.24" ry="5.412"/>
<circle id="SECONDARY_35_" fill="#005601" cx="388.636" cy="305.586" r="3.306"/>
<ellipse id="SECONDARY_34_" transform="matrix(0.62 0.7846 -0.7846 0.62 369.7289 -171.8614)" fill="#005601" cx="362.284" cy="295.755" rx="1.785" ry="1.583"/>
<ellipse id="SECONDARY_33_" transform="matrix(0.8029 0.5961 -0.5961 0.8029 255.222 -163.4877)" fill="#005601" cx="374.85" cy="304.222" rx="4.848" ry="2.844"/>
<ellipse id="SECONDARY_32_" transform="matrix(-0.2566 -0.9665 0.9665 -0.2566 178.1754 787.525)" fill="#005601" cx="391.948" cy="325.241" rx="10.201" ry="3.197"/>
<ellipse id="SECONDARY_31_" transform="matrix(-0.6201 -0.7846 0.7846 -0.6201 379.501 766.8584)" fill="#005601" cx="375.437" cy="291.537" rx="4.85" ry="1.672"/>
<ellipse id="SECONDARY_30_" transform="matrix(-0.6203 -0.7844 0.7844 -0.6203 354.0088 801.8083)" fill="#005601" cx="371.089" cy="315.213" rx="5.518" ry="4.18"/>
</svg>
