<?xml version="1.0" encoding="utf-8"?>
<!-- Generator: Adobe Illustrator 16.0.0, SVG Export Plug-In . SVG Version: 6.00 Build 0)  -->
<svg version="1.1" id="Layer_1" xmlns="http://www.w3.org/2000/svg" xmlns:xlink="http://www.w3.org/1999/xlink" x="0px" y="0px"
	 width="612px" height="792px" viewBox="0 0 612 792" enable-background="new 0 0 612 792" xml:space="preserve">
<rect x="179" y="310.248" fill="#231F20" fill-opacity="0" width="256" height="172"/>
<path id="SECONDARY_20_" fill="#FFFDB5" stroke="#231F20" stroke-width="3.1586" stroke-miterlimit="10" d="M349.84,391.909
	c-2.68-7.482-6.537-13.578-10.337-16.946c-2.435,6.608-6.107,12.4-10.691,16.914c0.488,2.21,1.143,4.505,1.976,6.83
	c4.537,12.679,12.476,21.431,17.737,19.551C353.784,416.386,354.37,404.585,349.84,391.909z"/>
<path id="SECONDARY_19_" fill="#FFFDB5" stroke="#231F20" stroke-width="3.1586" stroke-miterlimit="10" d="M324.648,395.396
	c-5.087,3.766-10.948,6.121-17.244,6.633c-0.226,2.737-0.247,5.688-0.009,8.758c1.024,13.422,6.376,23.959,11.944,23.533
	c5.57-0.428,9.253-11.649,8.225-25.074C327.167,404.03,326.111,399.264,324.648,395.396z"/>
<path id="SECONDARY_18_" fill="#FFFDB5" stroke="#231F20" stroke-width="3.1586" stroke-miterlimit="10" d="M284.726,395.153
	c-1.514,3.907-2.614,8.757-3.028,14.077c-1.043,13.422,2.627,24.649,8.195,25.081c5.569,0.435,10.929-10.093,11.975-23.515
	c0.241-3.089,0.221-6.049-0.003-8.799C295.594,401.406,289.766,398.978,284.726,395.153z"/>
<path id="SECONDARY_17_" fill="#FFFDB5" stroke="#231F20" stroke-width="3.1586" stroke-miterlimit="10" d="M270.082,374.673
	c-3.903,3.305-7.911,9.536-10.667,17.235c-4.535,12.676-3.947,24.477,1.315,26.351c5.262,1.881,13.205-6.875,17.741-19.551
	c0.878-2.454,1.557-4.875,2.054-7.198C276.043,386.981,272.449,381.227,270.082,374.673z"/>
</svg>
