<?xml version="1.0" encoding="utf-8"?>
<!-- Generator: Adobe Illustrator 16.0.0, SVG Export Plug-In . SVG Version: 6.00 Build 0)  -->
<svg version="1.1" id="Layer_1" xmlns="http://www.w3.org/2000/svg" xmlns:xlink="http://www.w3.org/1999/xlink" x="0px" y="0px"
	 width="612px" height="792px" viewBox="0 0 612 792" enable-background="new 0 0 612 792" xml:space="preserve">
<rect x="179" y="310.248" fill="#231F20" fill-opacity="0" width="256" height="172"/>
<path id="SECONDARY_24_" fill="#FFFDB5" stroke="#231F20" stroke-width="3.1586" stroke-miterlimit="10" d="M270.494,375.963
	c-0.768,1.629-1.489,3.343-2.134,5.15c-0.164,0.458-0.305,0.906-0.455,1.359c2.086,8.018,5.977,15.056,11.062,20.497
	c1.906-2.137,3.749-4.96,5.421-8.191C278.414,390.213,273.588,383.695,270.494,375.963z"/>
<path id="SECONDARY_23_" fill="#FFFDB5" stroke="#231F20" stroke-width="3.1586" stroke-miterlimit="10" d="M304.63,401.891
	c-6.204,0-12.045-1.834-17.212-5.021c0.17,2.623,0.523,5.064,1.048,7.238c4.454,2.432,9.36,3.85,14.529,4.025
	c0.977-1.778,1.844-3.918,2.57-6.301C305.253,401.841,304.944,401.891,304.63,401.891z"/>
<path id="SECONDARY_22_" fill="#FFFDB5" stroke="#231F20" stroke-width="3.1586" stroke-miterlimit="10" d="M308.883,401.582
	c0.639,2.143,1.361,4.137,2.2,5.812c5.867-1.323,11.238-4.282,15.818-8.462c0.203-1.902,0.266-3.945,0.247-6.044
	C321.92,397.56,315.686,400.667,308.883,401.582z"/>
<path id="SECONDARY_21_" fill="#FFFDB5" stroke="#231F20" stroke-width="3.1586" stroke-miterlimit="10" d="M341.269,367.772
	c-1.954,8.971-6.09,16.854-11.707,22.781c1.38,2.819,2.889,5.354,4.476,7.435c5.336-6.417,9.059-14.751,10.481-24.057
	C343.521,371.686,342.42,369.625,341.269,367.772z"/>
</svg>
