<?xml version="1.0" encoding="utf-8"?>
<!-- Generator: Adobe Illustrator 16.0.0, SVG Export Plug-In . SVG Version: 6.00 Build 0)  -->
<svg version="1.1" id="Layer_1" xmlns="http://www.w3.org/2000/svg" xmlns:xlink="http://www.w3.org/1999/xlink" x="0px" y="0px"
	 width="612px" height="792px" viewBox="0 0 612 792" enable-background="new 0 0 612 792" xml:space="preserve">
<rect x="266.5" y="369.004" fill-opacity="0" fill="#231F20" width="81" height="54.487"/>
<path id="SECONDARY_16_" fill="#FFFDB5" stroke="#231F20" stroke-miterlimit="10" d="M312.942,381.258
	c-1.665,0.595-1.851,4.333-0.417,8.349c0.595,1.663,1.374,3.106,2.201,4.192c1.686-2.033,2.865-4.673,3.314-7.621
	C316.574,382.87,314.424,380.729,312.942,381.258z"/>
<path id="SECONDARY_15_" fill="#FFFDB5" stroke="#231F20" stroke-miterlimit="10" d="M313.507,391.944
	c-0.325-4.252-2.018-7.589-3.78-7.456c-1.762,0.136-2.928,3.692-2.602,7.945c0.161,2.112,0.66,3.997,1.338,5.345
	c1.855-0.419,3.557-1.356,5.006-2.68C313.572,394.128,313.592,393.062,313.507,391.944z"/>
<path id="SECONDARY_14_" fill="#FFFDB5" stroke="#231F20" stroke-miterlimit="10" d="M304.784,384.489
	c-1.762-0.137-3.46,3.2-3.79,7.451c-0.139,1.792-0.011,3.456,0.313,4.797c1.409,0.771,2.961,1.22,4.597,1.276
	c0.743-1.357,1.297-3.337,1.472-5.577C307.707,388.185,306.546,384.628,304.784,384.489z"/>
<path id="SECONDARY_13_" fill="#FFFDB5" stroke="#231F20" stroke-miterlimit="10" d="M300.973,389.606
	c1.434-4.016,1.248-7.754-0.417-8.349s-4.177,2.18-5.612,6.195c-0.052,0.145-0.097,0.287-0.144,0.431
	c0.66,2.54,1.891,4.769,3.5,6.493C299.299,393.256,300.267,391.583,300.973,389.606z"/>
</svg>
