<?xml version="1.0" encoding="utf-8"?>
<!-- Generator: Adobe Illustrator 16.0.0, SVG Export Plug-In . SVG Version: 6.00 Build 0)  -->
<svg version="1.1" id="Layer_1" xmlns="http://www.w3.org/2000/svg" xmlns:xlink="http://www.w3.org/1999/xlink" x="0px" y="0px"
	 width="612px" height="792px" viewBox="0 0 612 792" enable-background="new 0 0 612 792" xml:space="preserve">
<rect x="266.5" y="369.004" fill-opacity="0" fill="#231F20" width="81" height="54.487"/>
<path id="SECONDARY_24_" fill="#FFFDB5" stroke="#231F20" stroke-miterlimit="10" d="M295.449,389.822
	c-0.243,0.516-0.471,1.059-0.675,1.631c-0.052,0.145-0.097,0.287-0.144,0.431c0.66,2.54,1.891,4.769,3.5,6.493
	c0.603-0.677,1.186-1.571,1.715-2.595C297.955,394.336,296.428,392.271,295.449,389.822z"/>
<path id="SECONDARY_23_" fill="#FFFDB5" stroke="#231F20" stroke-miterlimit="10" d="M306.25,398.035
	c-1.963,0-3.811-0.581-5.446-1.591c0.054,0.831,0.166,1.605,0.332,2.293c1.409,0.771,2.961,1.22,4.597,1.276
	c0.309-0.564,0.583-1.242,0.813-1.996C306.447,398.02,306.35,398.035,306.25,398.035z"/>
<path id="SECONDARY_22_" fill="#FFFDB5" stroke="#231F20" stroke-miterlimit="10" d="M307.596,397.938
	c0.202,0.678,0.43,1.31,0.696,1.84c1.856-0.419,3.556-1.356,5.005-2.68c0.064-0.603,0.084-1.25,0.078-1.915
	C311.721,396.663,309.748,397.647,307.596,397.938z"/>
<path id="SECONDARY_21_" fill="#FFFDB5" stroke="#231F20" stroke-miterlimit="10" d="M317.843,387.227
	c-0.618,2.842-1.927,5.339-3.704,7.217c0.436,0.893,0.914,1.696,1.416,2.355c1.688-2.033,2.866-4.673,3.316-7.621
	C318.556,388.467,318.207,387.814,317.843,387.227z"/>
</svg>
