<?xml version="1.0" encoding="utf-8"?>
<!-- Generator: Adobe Illustrator 16.0.0, SVG Export Plug-In . SVG Version: 6.00 Build 0)  -->
<svg version="1.1" id="Layer_1" xmlns="http://www.w3.org/2000/svg" xmlns:xlink="http://www.w3.org/1999/xlink" x="0px" y="0px"
	 width="612px" height="792px" viewBox="0 0 612 792" enable-background="new 0 0 612 792" xml:space="preserve">
<rect x="179" y="310.248" fill="#231F20" fill-opacity="0" width="256" height="172"/>
<path id="SECONDARY_16_" fill="#FFFDB5" stroke="#231F20" stroke-width="3.1586" stroke-miterlimit="10" d="M325.781,348.93
	c-5.263,1.879-5.853,13.678-1.318,26.355c1.88,5.25,4.343,9.805,6.954,13.232c5.33-6.417,9.056-14.75,10.475-24.058
	C337.26,354.019,330.463,347.26,325.781,348.93z"/>
<path id="SECONDARY_15_" fill="#FFFDB5" stroke="#231F20" stroke-width="3.1586" stroke-miterlimit="10" d="M327.564,382.662
	c-1.027-13.422-6.376-23.956-11.947-23.537c-5.567,0.43-9.253,11.656-8.222,25.081c0.509,6.667,2.086,12.616,4.228,16.874
	c5.864-1.322,11.241-4.282,15.821-8.461C327.771,389.557,327.833,386.192,327.564,382.662z"/>
<path id="SECONDARY_14_" fill="#FFFDB5" stroke="#231F20" stroke-width="3.1586" stroke-miterlimit="10" d="M299.997,359.13
	c-5.569-0.433-10.936,10.1-11.979,23.52c-0.44,5.657-0.036,10.91,0.989,15.144c4.452,2.432,9.358,3.85,14.528,4.025
	c2.35-4.281,4.1-10.533,4.653-17.604C309.234,370.797,305.565,359.568,299.997,359.13z"/>
<path id="SECONDARY_13_" fill="#FFFDB5" stroke="#231F20" stroke-width="3.1586" stroke-miterlimit="10" d="M287.952,375.282
	c4.532-12.678,3.944-24.477-1.318-26.356c-5.262-1.877-13.202,6.882-17.738,19.557c-0.164,0.458-0.306,0.904-0.455,1.359
	c2.086,8.018,5.977,15.054,11.062,20.497C282.661,386.804,285.721,381.523,287.952,375.282z"/>
</svg>
