<?xml version="1.0" encoding="utf-8"?>
<!-- Generator: Adobe Illustrator 16.0.0, SVG Export Plug-In . SVG Version: 6.00 Build 0)  -->
<svg version="1.1" id="Layer_1" xmlns="http://www.w3.org/2000/svg" xmlns:xlink="http://www.w3.org/1999/xlink" x="0px" y="0px"
	 width="612px" height="792px" viewBox="0 0 612 792" enable-background="new 0 0 612 792" xml:space="preserve">
<rect id="body_frame" x="230.5" y="301.5" fill-opacity="0" fill="#BBBCBE" width="151" height="191"/>
<path class="primary_color" id="PRIMARY" fill="#00BC03" stroke="#231F20" stroke-width="0.9621" stroke-miterlimit="10" d="M255.691,491.519H356.62
	c8.577-20.623,13.195-47.101,13.195-75.978c0-39.985,9.501-72.425-0.068-94.898c-0.955-2.247-2.102-4.394-3.469-6.439
	c-7.529-14.436-23.262-11.472-36.128-11.47c-1.621,0-3.289,0-4.994,0c-12.077,0-26.063,0-38.271,0c-2.442,0-4.812,0-7.082,0.005
	c-12.669-0.006-28.401-1.983-34.781,13.148c-1.348,2.362-2.46,4.814-3.371,7.355c-8.199,22.878-0.092,53.054-0.092,92.299
	C241.559,444.418,246.735,470.896,255.691,491.519z"/>
<path class="secondary_color" id="SECONDARY" fill="#FFFDB5" stroke="#231F20" stroke-width="0.9965" stroke-miterlimit="10" d="M348.95,395.695
	c0,44.139-19.229,79.916-42.95,79.916s-42.949-35.777-42.949-79.916c0-44.138,5.027-80.546,42.949-79.918
	C343.658,316.401,348.95,351.558,348.95,395.695z"/>
<line fill="none" stroke="#231F20" stroke-width="0.9965" stroke-miterlimit="10" x1="263.051" y1="395.695" x2="348.95" y2="395.695"/>
<path fill="none" stroke="#231F20" stroke-width="0.9965" stroke-miterlimit="10" d="M265.319,420.973
	c26.536,6.621,54.333,5.65,81.377-0.07"/>
<path fill="none" stroke="#231F20" stroke-width="0.9965" stroke-miterlimit="10" d="M272.744,446.367
	c21.407,3.552,44.24,4.522,66.491-0.055"/>
<path fill="none" stroke="#231F20" stroke-width="0.9965" stroke-miterlimit="10" d="M264.303,370.533
	c28.395-6.033,55.521-6.033,83.391,0.077"/>
<path fill="none" stroke="#231F20" stroke-width="0.9965" stroke-miterlimit="10" d="M268.263,345.197
	c25.416-4.963,51.091-5.934,75.448,0.197"/>
</svg>
