<?xml version="1.0" encoding="utf-8"?>
<!-- Generator: Adobe Illustrator 16.0.0, SVG Export Plug-In . SVG Version: 6.00 Build 0)  -->
<svg version="1.1" id="Layer_1" xmlns="http://www.w3.org/2000/svg" xmlns:xlink="http://www.w3.org/1999/xlink" x="0px" y="0px"
	 width="612px" height="792px" viewBox="0 0 612 792" enable-background="new 0 0 612 792" xml:space="preserve">
<rect id="body_frame" x="205" y="269" fill-opacity="0" fill="#BBBCBE" width="202" height="256"/>
<path id="PRIMARY" fill="#00BC03" stroke="#231F20" stroke-width="1.2882" stroke-miterlimit="10" d="M238.699,523.685h135.018
	c11.475-27.642,17.652-63.13,17.652-101.834c0-53.593,12.71-97.072-0.092-127.193c-1.277-3.011-2.812-5.89-4.641-8.63
	c-10.072-19.349-31.118-15.375-48.33-15.374c-2.168-0.001-4.399-0.001-6.681-0.001c-16.156,0-34.865,0-51.197,0
	c-3.268,0-6.437,0-9.474,0.007c-16.948-0.008-37.994-2.658-46.528,17.623c-1.804,3.166-3.291,6.452-4.51,9.858
	c-10.969,30.665-0.123,71.109-0.123,123.71C219.793,460.555,226.719,496.043,238.699,523.685z"/>
<path id="SECONDARY" fill="#FFFDB5" stroke="#231F20" stroke-width="1.3343" stroke-miterlimit="10" d="M363.457,395.251
	c0,59.16-25.724,107.113-57.457,107.113s-57.455-47.953-57.455-107.113c0-59.159,6.725-107.958,57.455-107.115
	C356.377,288.972,363.457,336.093,363.457,395.251z"/>
<line fill="none" stroke="#231F20" stroke-width="1.3343" stroke-miterlimit="10" x1="248.545" y1="395.251" x2="363.457" y2="395.251"/>
<path fill="none" stroke="#231F20" stroke-width="1.3343" stroke-miterlimit="10" d="M251.58,429.131
	c35.499,8.874,72.684,7.573,108.862-0.094"/>
<path fill="none" stroke="#231F20" stroke-width="1.3343" stroke-miterlimit="10" d="M261.512,463.168
	c28.637,4.76,59.182,6.062,88.949-0.074"/>
<path fill="none" stroke="#231F20" stroke-width="1.3343" stroke-miterlimit="10" d="M250.22,361.526
	c37.984-8.086,74.273-8.086,111.556,0.103"/>
<path fill="none" stroke="#231F20" stroke-width="1.3343" stroke-miterlimit="10" d="M255.517,327.567
	c34-6.652,68.346-7.953,100.93,0.265"/>
</svg>
