<?xml version="1.0" encoding="utf-8"?>
<!-- Generator: Adobe Illustrator 16.0.0, SVG Export Plug-In . SVG Version: 6.00 Build 0)  -->
<svg version="1.1" id="Layer_1" xmlns="http://www.w3.org/2000/svg" xmlns:xlink="http://www.w3.org/1999/xlink" x="0px" y="0px"
	 width="612px" height="792px" viewBox="0 0 612 792" enable-background="new 0 0 612 792" xml:space="preserve">
<rect id="body_frame_1_" x="204" y="268" fill="#BBBCBE" fill-opacity="0" width="202" height="256"/>
<path id="PRIMARY_3_" fill="#666666" stroke="#231F20" stroke-width="1.339" stroke-miterlimit="10" d="M392.231,470.477
	c10.449,31.297,10.449,45.431-2.921,15.347c13.368,30.084,13.379,38.738-7.965,12.535c21.344,26.204,20.806,20.133-11.813,8.45
	c32.426,11.776-6.427,14.511-11.557,14.511c0,0-2.545,0-6.824,0c-17.108,0-61.919,0-82.288,0c-6.365,0-11.193,0.262-10.343,0
	c-5.877,0.262-45.539,1.238-17.377-14.511c-28.215,15.722-28.087,17.484-11.813-8.45c-16.274,25.935-17.622,19.393-7.965-12.535
	c-9.657,31.927-12.687,15.126-2.92-15.347c-9.767,30.473-9.915,24.546,0-6.919c-9.915,31.466-10.046,14.61,0-18.241
	c-10.046,32.853-9.931,5.072,0-25.789c-9.931,30.861-12.966,1,0-29.563c-12.966,30.562-14.27-11.111,0-29.563
	c-14.271,18.282-14.242-10.086,0-25.789c-14.244,15.534-14.311-2.689,0-18.241c-14.311,15.498-14.341,8.861,0-6.92
	c-14.341,15.76-14.324-0.232,2.92-15.35c-17.227,15.076-15.827-2.293,7.965-12.535c-23.335,9.756-1.812-4.942,11.813-8.452
	c-7.23,0.642,9.336-3.099,14.467-3.099h99.456c5.13,0,10.02,1.104,14.467,3.099c4.469,1.996,40.623,21.982,11.813,8.452
	c29.095,13.831,26.89,39.146,7.965,12.535c18.923,26.612,17.924,43.997,2.921,15.35c15.004,28.648,14.879,35.762,0,6.919
	c14.879,28.843,14.431,45.701,0,18.241c14.431,27.458,13.896,55.632,0,25.789c13.896,29.844,10.448,61.059,0,29.563
	c10.448,31.496,10.448,60.335,0,29.563c10.448,30.772,10.448,54.604,0,25.789c10.448,28.815,10.448,48.866,0,18.241
	C402.681,494.184,402.681,501.773,392.231,470.477z"/>
<path id="PRIMARY_2_" fill="#666666" stroke="#231F20" stroke-width="1.339" stroke-miterlimit="10" d="M373.214,379.577
	c10.422,23.766,10.422,50.716-2.046,27.749c12.468,22.967,12.412,42.858-5.697,24.098c18.103,18.776,16.273,32.464-8.688,19.006
	c24.71,13.851-11.737,45.354-11.018,12.463c-1.302,33.301-14.197,41.156-12.684,4.476c-1.753,36.539-20.694,23.2-12.685-4.476
	c-8.009,27.674-23.462,15.262-11.016-12.463c-12.447,27.725-17.676,13.178-8.688-19.006c-8.989,32.184-22.23,4.795-5.698-24.098
	c-16.532,28.894-24.146-3.808-2.045-27.749c-22.101,23.941-18.688-2.856,2.045-27.749c-20.732,24.893-17.79-4.042,5.698-24.099
	c-23.488,20.058-19.105-4.972,8.688-19.004c-27.792,14.032-19.716-0.422,11.016-12.463c-30.563,11.917,1.203-2.32,12.685-4.475
	c-4.397,2.155,26.192,6.725,12.684,4.475c18.502,5.604,37.286,27.996,11.018,12.463c26.287,15.56,23.771,41.388,8.688,19.004
	c15.082,22.385,18.109,49.97,5.697,24.099C383.58,377.7,383.636,403.343,373.214,379.577z"/>
<path fill="#FFFFFF" fill-opacity="0.2" stroke="#231F20" stroke-width="1.339" stroke-miterlimit="10" d="M373.214,379.577
	c10.422,23.766,10.422,50.716-2.046,27.749c12.468,22.967,12.412,42.858-5.697,24.098c18.103,18.776,16.273,32.464-8.688,19.006
	c24.71,13.851-11.737,45.354-11.018,12.463c-1.302,33.301-14.197,41.156-12.684,4.476c-1.753,36.539-20.694,23.2-12.685-4.476
	c-8.009,27.674-23.462,15.262-11.016-12.463c-12.447,27.725-17.676,13.178-8.688-19.006c-8.989,32.184-22.23,4.795-5.698-24.098
	c-16.532,28.894-24.146-3.808-2.045-27.749c-22.101,23.941-18.688-2.856,2.045-27.749c-20.732,24.893-17.79-4.042,5.698-24.099
	c-23.488,20.058-19.105-4.972,8.688-19.004c-27.792,14.032-19.716-0.422,11.016-12.463c-30.563,11.917,1.203-2.32,12.685-4.475
	c-4.397,2.155,26.192,6.725,12.684,4.475c18.502,5.604,37.286,27.996,11.018,12.463c26.287,15.56,23.771,41.388,8.688,19.004
	c15.082,22.385,18.109,49.97,5.697,24.099C383.58,377.7,383.636,403.343,373.214,379.577z"/>
</svg>
