<?xml version="1.0" encoding="utf-8"?>
<!-- Generator: Adobe Illustrator 16.0.0, SVG Export Plug-In . SVG Version: 6.00 Build 0)  -->
<svg version="1.1" id="Layer_1" xmlns="http://www.w3.org/2000/svg" xmlns:xlink="http://www.w3.org/1999/xlink" x="0px" y="0px"
	 width="612px" height="792px" viewBox="0 0 612 792" enable-background="new 0 0 612 792" xml:space="preserve">
<rect id="body_frame_1_" x="229.5" y="300.5" fill-opacity="0" fill="#BBBCBE" width="151" height="191"/>
<path id="PRIMARY_3_" fill="#666666" stroke="#231F20" stroke-miterlimit="10" d="M370.208,451.566
	c7.811,23.351,7.811,33.896-2.184,11.451c9.994,22.445,10.001,28.902-5.954,9.352c15.955,19.551,15.553,15.021-8.831,6.305
	c24.24,8.786-4.803,10.826-8.638,10.826c0,0-1.903,0-5.102,0c-12.789,0-46.286,0-61.512,0c-4.758,0-8.367,0.195-7.732,0
	c-4.393,0.195-34.041,0.924-12.99-10.826c-21.091,11.729-20.996,13.045-8.831-6.305c-12.165,19.35-13.173,14.469-5.954-9.352
	c-7.219,23.82-9.484,11.285-2.183-11.451c-7.301,22.736-7.412,18.314,0-5.162c-7.412,23.477-7.51,10.901,0-13.609
	c-7.51,24.511-7.424,3.784,0-19.241c-7.424,23.025-9.693,0.746,0-22.057c-9.693,22.802-10.667-8.29,0-22.057
	c-10.668,13.64-10.646-7.525,0-19.241c-10.648,11.59-10.698-2.006,0-13.609c-10.698,11.563-10.721,6.611,0-5.163
	c-10.721,11.758-10.708-0.173,2.183-11.453c-12.878,11.248-11.831-1.711,5.954-9.352c-17.444,7.279-1.354-3.687,8.831-6.306
	c-5.405,0.479,6.979-2.312,10.814-2.312h74.346c3.835,0,7.49,0.823,10.814,2.312c3.341,1.489,30.367,16.401,8.83,6.306
	c21.749,10.319,20.101,29.207,5.954,9.352c14.146,19.855,13.399,32.826,2.184,11.453c11.216,21.374,11.122,26.682,0,5.162
	c11.122,21.52,10.787,34.097,0,13.609c10.787,20.487,10.388,41.507,0,19.241c10.388,22.266,7.811,45.556,0,22.057
	c7.811,23.499,7.811,45.016,0,22.057c7.811,22.959,7.811,40.74,0,19.241c7.811,21.499,7.811,36.459,0,13.609
	C378.019,469.254,378.019,474.917,370.208,451.566z"/>
<path id="PRIMARY_2_" fill="#666666" stroke="#231F20" stroke-miterlimit="10" d="M355.991,383.747
	c7.791,17.732,7.791,37.839-1.529,20.703c9.32,17.136,9.278,31.977-4.259,17.98c13.532,14.008,12.165,24.22-6.494,14.179
	c18.472,10.334-8.773,33.838-8.235,9.299c-0.974,24.846-10.614,30.706-9.482,3.339c-1.31,27.262-15.47,17.31-9.482-3.339
	c-5.987,20.648-17.539,11.387-8.235-9.299c-9.304,20.686-13.213,9.832-6.494-14.179c-6.719,24.011-16.617,3.577-4.259-17.98
	c-12.358,21.558-18.05-2.841-1.529-20.703c-16.521,17.862-13.969-2.131,1.529-20.703c-15.498,18.572-13.299-3.016,4.259-17.98
	c-17.558,14.965-14.281-3.71,6.494-14.179c-20.775,10.469-14.738-0.315,8.235-9.299c-22.847,8.891,0.899-1.731,9.482-3.339
	c-3.287,1.608,19.579,5.017,9.482,3.339c13.83,4.181,27.872,20.887,8.235,9.299c19.65,11.609,17.77,30.879,6.494,14.179
	c11.275,16.701,13.537,37.282,4.259,17.98C363.74,382.346,363.782,401.479,355.991,383.747z"/>
<path fill-opacity="0.2" fill="#FFFFFF" stroke="#231F20" stroke-miterlimit="10" d="M355.991,383.747
	c7.791,17.732,7.791,37.839-1.529,20.703c9.32,17.136,9.278,31.977-4.259,17.98c13.532,14.008,12.165,24.22-6.494,14.179
	c18.472,10.334-8.773,33.838-8.235,9.299c-0.974,24.846-10.614,30.706-9.482,3.339c-1.31,27.262-15.47,17.31-9.482-3.339
	c-5.987,20.648-17.539,11.387-8.235-9.299c-9.304,20.686-13.213,9.832-6.494-14.179c-6.719,24.011-16.617,3.577-4.259-17.98
	c-12.358,21.558-18.05-2.841-1.529-20.703c-16.521,17.862-13.969-2.131,1.529-20.703c-15.498,18.572-13.299-3.016,4.259-17.98
	c-17.558,14.965-14.281-3.71,6.494-14.179c-20.775,10.469-14.738-0.315,8.235-9.299c-22.847,8.891,0.899-1.731,9.482-3.339
	c-3.287,1.608,19.579,5.017,9.482,3.339c13.83,4.181,27.872,20.887,8.235,9.299c19.65,11.609,17.77,30.879,6.494,14.179
	c11.275,16.701,13.537,37.282,4.259,17.98C363.74,382.346,363.782,401.479,355.991,383.747z"/>
</svg>
