<?xml version="1.0" encoding="utf-8"?>
<!-- Generator: Adobe Illustrator 16.0.0, SVG Export Plug-In . SVG Version: 6.00 Build 0)  -->
<svg version="1.1" id="Layer_1" xmlns="http://www.w3.org/2000/svg" xmlns:xlink="http://www.w3.org/1999/xlink" x="0px" y="0px"
	 width="612px" height="792px" viewBox="0 0 612 792" enable-background="new 0 0 612 792" xml:space="preserve">
<rect x="265.5" y="368.933" fill-opacity="0" fill="#231F20" width="81" height="54.487"/>
<path id="PRIMARY_70_" fill="#FFFA00" stroke="#231F20" stroke-miterlimit="10" d="M318.896,404.542
	c-0.613-1.634-0.978-3.622-0.978-5.778c0-5.537,2.377-10.025,5.308-10.025c1.684,0,3.181,1.483,4.152,3.794
	C326.684,397.28,323.559,401.496,318.896,404.542z"/>
<polygon fill="#FFFFFF" stroke="#231F20" stroke-miterlimit="10" points="323.174,384.484 320.563,389.465 323.098,389.438 
	325.678,389.41 "/>
<path id="PRIMARY_69_" fill="#FFFA00" stroke="#231F20" stroke-miterlimit="10" d="M307.746,408.534
	c-0.076-0.669-0.129-1.353-0.129-2.063c0-5.537,2.376-10.027,5.308-10.027c2.741,0,4.995,3.926,5.276,8.962
	C315.138,407.071,311.582,408.168,307.746,408.534z"/>
<polygon fill="#FFFFFF" stroke="#231F20" stroke-miterlimit="10" points="312.978,392.877 310.367,397.857 312.902,397.83 
	315.482,397.803 "/>
<path id="PRIMARY_68_" fill="#FFFA00" stroke="#231F20" stroke-miterlimit="10" d="M295.11,406.301
	c0.255-5.089,2.521-9.072,5.282-9.072c2.932,0,5.308,4.49,5.308,10.027c0,0.474-0.022,0.938-0.058,1.393
	C301.835,408.533,298.264,407.693,295.11,406.301z"/>
<polygon fill="#FFFFFF" stroke="#231F20" stroke-miterlimit="10" points="300.445,393.662 297.836,398.643 300.369,398.615 
	302.949,398.588 "/>
<path id="PRIMARY_67_" fill="#FFFA00" stroke="#231F20" stroke-miterlimit="10" d="M293.1,404.621
	c0.613-1.634,0.977-3.622,0.977-5.778c0-5.537-2.376-10.025-5.307-10.025c-1.684,0-3.182,1.483-4.152,3.794
	C285.311,397.359,288.437,401.575,293.1,404.621z"/>
<polygon fill="#FFFFFF" stroke="#231F20" stroke-miterlimit="10" points="288.821,384.563 291.432,389.544 288.897,389.517 
	286.317,389.489 "/>
</svg>
