<?xml version="1.0" encoding="utf-8"?>
<!-- Generator: Adobe Illustrator 16.0.0, SVG Export Plug-In . SVG Version: 6.00 Build 0)  -->
<svg version="1.1" id="Layer_1" xmlns="http://www.w3.org/2000/svg" xmlns:xlink="http://www.w3.org/1999/xlink" x="0px" y="0px"
	 width="612px" height="792px" viewBox="0 0 612 792" enable-background="new 0 0 612 792" xml:space="preserve">
<rect x="265.5" y="368.933" fill-opacity="0" fill="#231F20" width="81" height="54.487"/>
<path id="PRIMARY_86_" fill="#FFF100" stroke="#231F20" stroke-miterlimit="10" d="M284.617,391.162
	c0,9.826,9.505,17.791,21.23,17.791l0,0c11.727,0,21.231-7.965,21.231-17.791v-3.541c0-9.828-9.505-17.794-21.231-17.794l0,0
	c-11.726,0-21.23,7.966-21.23,17.794V391.162z"/>
<path id="PRIMARY_85_" fill="#FFF100" stroke="#231F20" stroke-miterlimit="10" d="M294.053,383.695
	c0,5.332,5.281,9.654,11.796,9.654l0,0c6.515,0,11.795-4.322,11.795-9.654v-1.922c0-5.333-5.28-9.655-11.795-9.655l0,0
	c-6.515,0-11.796,4.322-11.796,9.655V383.695z"/>
<path fill-opacity="0.7" fill="#FFFFFF" d="M294.643,383.643c0,5.035,5.016,9.117,11.205,9.117l0,0c6.188,0,11.205-4.082,11.205-9.117
	v-1.816c0-5.036-5.017-9.118-11.205-9.118l0,0c-6.189,0-11.205,4.082-11.205,9.118V383.643z"/>
<path id="PRIMARY_84_" fill="#FFF100" stroke="#231F20" stroke-miterlimit="10" d="M317.559,393.588
	c0,1.482,1.584,2.682,3.539,2.682l0,0c1.954,0,3.539-1.199,3.539-2.682v-0.533c0-1.482-1.585-2.684-3.539-2.684l0,0
	c-1.955,0-3.539,1.201-3.539,2.684V393.588z"/>
<path fill-opacity="0.7" fill="#FFFFFF" d="M318.148,393.533c0,1.186,1.32,2.146,2.949,2.146l0,0c1.628,0,2.948-0.961,2.948-2.146v-0.428
	c0-1.184-1.32-2.145-2.948-2.145l0,0c-1.629,0-2.949,0.961-2.949,2.145V393.533z"/>
<path id="PRIMARY_83_" fill="#FFF100" stroke="#231F20" stroke-miterlimit="10" d="M308.611,400.129c0,1.48,1.583,2.682,3.538,2.682
	l0,0c1.954,0,3.538-1.201,3.538-2.682v-0.533c0-1.482-1.584-2.684-3.538-2.684l0,0c-1.955,0-3.538,1.201-3.538,2.684V400.129z"/>
<path fill-opacity="0.7" fill="#FFFFFF" d="M309.2,400.076c0,1.184,1.319,2.145,2.949,2.145l0,0c1.628,0,2.948-0.961,2.948-2.145v-0.43
	c0-1.184-1.32-2.145-2.948-2.145l0,0c-1.63,0-2.949,0.961-2.949,2.145V400.076z"/>
<path id="PRIMARY_82_" fill="#FFF100" stroke="#231F20" stroke-miterlimit="10" d="M296.854,400.129c0,1.48,1.584,2.682,3.539,2.682
	l0,0c1.953,0,3.538-1.201,3.538-2.682v-0.533c0-1.482-1.585-2.684-3.538-2.684l0,0c-1.955,0-3.539,1.201-3.539,2.684V400.129z"/>
<path fill-opacity="0.7" fill="#FFFFFF" d="M297.443,400.076c0,1.184,1.319,2.145,2.949,2.145l0,0c1.627,0,2.948-0.961,2.948-2.145v-0.43
	c0-1.184-1.321-2.145-2.948-2.145l0,0c-1.63,0-2.949,0.961-2.949,2.145V400.076z"/>
<path id="PRIMARY_81_" fill="#FFF100" stroke="#231F20" stroke-miterlimit="10" d="M287.224,393.586c0,1.48,1.584,2.684,3.538,2.684
	l0,0c1.955,0,3.539-1.203,3.539-2.684v-0.531c0-1.482-1.584-2.684-3.539-2.684l0,0c-1.954,0-3.538,1.201-3.538,2.684V393.586z"/>
<path fill-opacity="0.7" fill="#FFFFFF" d="M287.813,393.533c0,1.184,1.319,2.146,2.948,2.146l0,0c1.629,0,2.949-0.963,2.949-2.146
	v-0.428c0-1.186-1.32-2.145-2.949-2.145l0,0c-1.629,0-2.948,0.959-2.948,2.145V393.533z"/>
</svg>
