<?xml version="1.0" encoding="utf-8"?>
<!-- Generator: Adobe Illustrator 16.0.0, SVG Export Plug-In . SVG Version: 6.00 Build 0)  -->
<svg version="1.1" id="Layer_1" xmlns="http://www.w3.org/2000/svg" xmlns:xlink="http://www.w3.org/1999/xlink" x="0px" y="0px"
	 width="612px" height="792px" viewBox="0 0 612 792" enable-background="new 0 0 612 792" xml:space="preserve">
<rect x="178" y="310.177" fill="#231F20" fill-opacity="0" width="256" height="172"/>
<path id="PRIMARY_86_" fill="#FFF100" stroke="#231F20" stroke-width="3.1586" stroke-miterlimit="10" d="M238.42,380.347
	c0,31.019,30.04,56.162,67.097,56.162l0,0c37.063,0,67.1-25.143,67.1-56.162v-11.178c0-31.025-30.04-56.171-67.1-56.171l0,0
	c-37.06,0-67.097,25.146-67.097,56.171V380.347z"/>
<path id="PRIMARY_85_" fill="#FFF100" stroke="#231F20" stroke-width="3.1586" stroke-miterlimit="10" d="M268.242,356.775
	c0,16.832,16.69,30.476,37.281,30.476l0,0c20.591,0,37.277-13.644,37.277-30.476v-6.067c0-16.835-16.686-30.478-37.277-30.478l0,0
	c-20.591,0-37.281,13.643-37.281,30.478V356.775z"/>
<path fill="#FFFFFF" fill-opacity="0.7" d="M270.106,356.612c0,15.895,15.854,28.779,35.414,28.779l0,0
	c19.557,0,35.412-12.884,35.412-28.779v-5.732c0-15.898-15.854-28.784-35.412-28.784l0,0c-19.56,0-35.414,12.886-35.414,28.784
	V356.612z"/>
<path id="PRIMARY_84_" fill="#FFF100" stroke="#231F20" stroke-width="3.1586" stroke-miterlimit="10" d="M342.531,388.005
	c0,4.678,5.006,8.465,11.185,8.465l0,0c6.176,0,11.186-3.784,11.186-8.465v-1.682c0-4.678-5.01-8.473-11.186-8.473l0,0
	c-6.179,0-11.185,3.792-11.185,8.473V388.005z"/>
<path fill="#FFFFFF" fill-opacity="0.7" d="M344.395,387.832c0,3.743,4.17,6.774,9.318,6.774l0,0c5.146,0,9.318-3.035,9.318-6.774
	v-1.352c0-3.738-4.173-6.771-9.318-6.771l0,0c-5.148,0-9.318,3.034-9.318,6.771V387.832z"/>
<path id="PRIMARY_83_" fill="#FFF100" stroke="#231F20" stroke-width="3.1586" stroke-miterlimit="10" d="M314.253,408.653
	c0,4.673,5.003,8.465,11.183,8.465l0,0c6.173,0,11.179-3.788,11.179-8.465v-1.684c0-4.677-5.006-8.472-11.179-8.472l0,0
	c-6.18,0-11.183,3.792-11.183,8.472V408.653z"/>
<path fill="#FFFFFF" fill-opacity="0.7" d="M316.114,408.486c0,3.736,4.167,6.77,9.321,6.77l0,0c5.145,0,9.314-3.033,9.314-6.77
	v-1.356c0-3.739-4.17-6.772-9.314-6.772l0,0c-5.154,0-9.321,3.033-9.321,6.772V408.486z"/>
<path id="PRIMARY_82_" fill="#FFF100" stroke="#231F20" stroke-width="3.1586" stroke-miterlimit="10" d="M277.094,408.653
	c0,4.673,5.006,8.465,11.185,8.465l0,0c6.173,0,11.182-3.788,11.182-8.465v-1.684c0-4.677-5.009-8.472-11.182-8.472l0,0
	c-6.179,0-11.185,3.792-11.185,8.472V408.653z"/>
<path fill="#FFFFFF" fill-opacity="0.7" d="M278.955,408.486c0,3.736,4.17,6.77,9.321,6.77l0,0c5.142,0,9.316-3.033,9.316-6.77
	v-1.356c0-3.739-4.175-6.772-9.316-6.772l0,0c-5.151,0-9.321,3.033-9.321,6.772V408.486z"/>
<path id="PRIMARY_81_" fill="#FFF100" stroke="#231F20" stroke-width="3.1586" stroke-miterlimit="10" d="M246.659,387.999
	c0,4.672,5.006,8.472,11.182,8.472l0,0c6.178,0,11.184-3.796,11.184-8.472v-1.675c0-4.678-5.006-8.473-11.184-8.473l0,0
	c-6.176,0-11.182,3.79-11.182,8.473V387.999z"/>
<path fill="#FFFFFF" fill-opacity="0.7" d="M248.52,387.832c0,3.736,4.168,6.774,9.316,6.774l0,0c5.15,0,9.321-3.041,9.321-6.774
	v-1.352c0-3.744-4.171-6.771-9.321-6.771l0,0c-5.148,0-9.316,3.027-9.316,6.771V387.832z"/>
</svg>
