<?xml version="1.0" encoding="utf-8"?>
<!-- Generator: Adobe Illustrator 16.0.0, SVG Export Plug-In . SVG Version: 6.00 Build 0)  -->
<svg version="1.1" id="Layer_1" xmlns="http://www.w3.org/2000/svg" xmlns:xlink="http://www.w3.org/1999/xlink" x="0px" y="0px"
	 width="612px" height="792px" viewBox="0 0 612 792" enable-background="new 0 0 612 792" xml:space="preserve">
<rect x="178" y="310.38" fill="#231F20" fill-opacity="0" width="256" height="171.594"/>
<path id="PRIMARY_45_" fill="#FFFA00" stroke="#231F20" stroke-width="3.1549" stroke-miterlimit="10" d="M372.386,384.481
	c6.146,4.687,10.484,16.011,10.484,29.26c0,17.438-7.509,31.572-16.774,31.572c-7.654,0-14.093-9.647-16.111-22.825
	C362.753,413.027,371.146,399.594,372.386,384.481z"/>
<path id="PRIMARY_44_" fill="#FFFA00" stroke="#231F20" stroke-width="3.1549" stroke-miterlimit="10" d="M343.691,426.658
	c0.617,3.291,0.973,6.813,0.973,10.5c0,17.435-7.513,31.575-16.781,31.575c-9.266,0-16.771-14.141-16.771-31.575
	c0-0.253,0.019-0.499,0.019-0.757C323.167,435.57,334.296,432.102,343.691,426.658z"/>
<path id="PRIMARY_43_" fill="#FFFA00" stroke="#231F20" stroke-width="3.1549" stroke-miterlimit="10" d="M305.036,436.61
	c0.003,0.193,0.017,0.363,0.017,0.551c0,17.435-7.509,31.575-16.776,31.575c-9.267,0-16.776-14.141-16.776-31.575
	c0-2.777,0.205-5.462,0.569-8.03C281.796,433.812,293.026,436.543,305.036,436.61z"/>
<path id="PRIMARY_42_" fill="#FFFA00" stroke="#231F20" stroke-width="3.1549" stroke-miterlimit="10" d="M239.636,391.117
	c3.239,14.235,12.937,26.524,26.438,34.745c-2.267,12.397-8.499,21.311-15.854,21.311c-9.267,0-16.776-14.135-16.776-31.573
	C233.447,405.714,235.863,396.906,239.636,391.117z"/>
<polygon fill="#FFFFFF" stroke="#231F20" stroke-width="3.1549" stroke-miterlimit="10" points="327.716,479.968 335.966,464.283 
	327.957,464.369 319.803,464.455 "/>
<polygon fill="#FFFFFF" stroke="#231F20" stroke-width="3.1549" stroke-miterlimit="10" points="366.263,458.711 374.513,443.025 
	366.503,443.111 358.346,443.198 "/>
<polygon fill="#FFFFFF" stroke="#231F20" stroke-width="3.1549" stroke-miterlimit="10" points="288.111,479.968 296.358,464.283 
	288.352,464.369 280.197,464.455 "/>
<polygon fill="#FFFFFF" stroke="#231F20" stroke-width="3.1549" stroke-miterlimit="10" points="249.591,458.711 257.841,443.025 
	249.835,443.111 241.677,443.198 "/>
</svg>
