<?xml version="1.0" encoding="utf-8"?>
<!-- Generator: Adobe Illustrator 16.0.0, SVG Export Plug-In . SVG Version: 6.00 Build 0)  -->
<svg version="1.1" id="Layer_1" xmlns="http://www.w3.org/2000/svg" xmlns:xlink="http://www.w3.org/1999/xlink" x="0px" y="0px"
	 width="612px" height="792px" viewBox="0 0 612 792" enable-background="new 0 0 612 792" xml:space="preserve">
<rect x="178" y="310.177" fill="#231F20" fill-opacity="0" width="256" height="172"/>
<path id="PRIMARY_60_" fill="#FFFA00" stroke="#231F20" stroke-width="3.1586" stroke-miterlimit="10" d="M372.586,381.143
	c2.691,2.067,5.044,5.386,6.824,9.618c-2.191,14.988-12.07,28.294-26.806,37.911c-0.771-2.05-1.379-4.321-1.873-6.689
	C363.994,411.834,372.389,397.33,372.586,381.143z"/>
<path id="PRIMARY_59_" fill="#FFFA00" stroke="#231F20" stroke-width="3.1586" stroke-miterlimit="10" d="M343.154,427.063
	c0.463,2.38,0.79,4.883,0.938,7.491c-9.683,5.259-20.923,8.718-33.047,9.877c-0.237-2.115-0.41-4.273-0.41-6.514
	c0-0.476,0.028-0.94,0.037-1.406C322.651,435.744,333.759,432.399,343.154,427.063z"/>
<path id="PRIMARY_58_" fill="#FFFA00" stroke="#231F20" stroke-width="3.1586" stroke-miterlimit="10" d="M304.458,436.682
	c0.072,1.221,0.122,2.453,0.122,3.711c0,1.502-0.066,2.963-0.179,4.399c-12.039-0.363-23.326-3.015-33.29-7.414
	c0.142-2.842,0.494-5.573,1.007-8.145C281.674,433.833,292.685,436.527,304.458,436.682z"/>
<path id="PRIMARY_57_" fill="#FFFA00" stroke="#231F20" stroke-width="3.1586" stroke-miterlimit="10" d="M239.398,389.776
	c2.795,14.126,11.836,26.455,24.726,34.929c-0.512,3.822-1.354,7.396-2.531,10.524c-14.735-9.612-24.611-22.923-26.809-37.911
	C236.059,394.297,237.629,391.755,239.398,389.776z"/>
</svg>
