<?xml version="1.0" encoding="utf-8"?>
<!-- Generator: Adobe Illustrator 16.0.0, SVG Export Plug-In . SVG Version: 6.00 Build 0)  -->
<svg version="1.1" id="Layer_1" xmlns="http://www.w3.org/2000/svg" xmlns:xlink="http://www.w3.org/1999/xlink" x="0px" y="0px"
	 width="612px" height="792px" viewBox="0 0 612 792" enable-background="new 0 0 612 792" xml:space="preserve">
<rect x="265.5" y="368.933" fill-opacity="0" fill="#231F20" width="81" height="54.487"/>
<path id="PRIMARY_45_" fill="#FFFA00" stroke="#231F20" stroke-miterlimit="10" d="M327.005,392.463
	c1.944,1.488,3.317,5.084,3.317,9.291c0,5.537-2.376,10.025-5.307,10.025c-2.422,0-4.459-3.063-5.098-7.248
	C323.957,401.527,326.612,397.262,327.005,392.463z"/>
<path id="PRIMARY_44_" fill="#FFFA00" stroke="#231F20" stroke-miterlimit="10" d="M317.926,405.855
	c0.195,1.045,0.307,2.164,0.307,3.334c0,5.537-2.377,10.027-5.309,10.027s-5.307-4.49-5.307-10.027c0-0.08,0.006-0.158,0.006-0.24
	C311.432,408.686,314.953,407.584,317.926,405.855z"/>
<path id="PRIMARY_43_" fill="#FFFA00" stroke="#231F20" stroke-miterlimit="10" d="M305.695,409.016
	c0.001,0.061,0.005,0.115,0.005,0.174c0,5.537-2.376,10.027-5.308,10.027s-5.308-4.49-5.308-10.027c0-0.881,0.065-1.734,0.18-2.549
	C298.342,408.127,301.895,408.994,305.695,409.016z"/>
<path id="PRIMARY_42_" fill="#FFFA00" stroke="#231F20" stroke-miterlimit="10" d="M285.002,394.57
	c1.025,4.52,4.093,8.422,8.365,11.033c-0.717,3.936-2.689,6.766-5.016,6.766c-2.932,0-5.308-4.488-5.308-10.025
	C283.044,399.205,283.808,396.408,285.002,394.57z"/>
<polygon fill="#FFFFFF" stroke="#231F20" stroke-miterlimit="10" points="312.871,422.783 315.481,417.803 312.947,417.83 
	310.367,417.857 "/>
<polygon fill="#FFFFFF" stroke="#231F20" stroke-miterlimit="10" points="325.067,416.033 327.678,411.053 325.144,411.08 
	322.563,411.107 "/>
<polygon fill="#FFFFFF" stroke="#231F20" stroke-miterlimit="10" points="300.34,422.783 302.949,417.803 300.416,417.83 
	297.836,417.857 "/>
<polygon fill="#FFFFFF" stroke="#231F20" stroke-miterlimit="10" points="288.152,416.033 290.762,411.053 288.229,411.08 
	285.648,411.107 "/>
</svg>
