<?xml version="1.0" encoding="utf-8"?>
<!-- Generator: Adobe Illustrator 16.0.0, SVG Export Plug-In . SVG Version: 6.00 Build 0)  -->
<svg version="1.1" id="Layer_1" xmlns="http://www.w3.org/2000/svg" xmlns:xlink="http://www.w3.org/1999/xlink" x="0px" y="0px"
	 width="612px" height="792px" viewBox="0 0 612 792" enable-background="new 0 0 612 792" xml:space="preserve">
<rect x="265.5" y="368.933" fill-opacity="0" fill="#231F20" width="81" height="54.487"/>
<path id="PRIMARY_60_" fill="#FFFA00" stroke="#231F20" stroke-miterlimit="10" d="M327.068,391.414
	c0.852,0.655,1.596,1.706,2.16,3.047c-0.694,4.748-3.82,8.963-8.482,12.01c-0.244-0.65-0.436-1.369-0.593-2.119
	C324.35,401.137,327.006,396.542,327.068,391.414z"/>
<path id="PRIMARY_59_" fill="#FFFA00" stroke="#231F20" stroke-miterlimit="10" d="M317.756,405.961
	c0.146,0.754,0.25,1.547,0.297,2.373c-3.064,1.666-6.62,2.762-10.456,3.129c-0.076-0.67-0.13-1.354-0.13-2.064
	c0-0.15,0.009-0.297,0.012-0.445C311.269,408.711,314.783,407.651,317.756,405.961z"/>
<path id="PRIMARY_58_" fill="#FFFA00" stroke="#231F20" stroke-miterlimit="10" d="M305.512,409.008
	c0.023,0.387,0.039,0.777,0.039,1.176c0,0.475-0.021,0.938-0.057,1.393c-3.809-0.115-7.38-0.955-10.533-2.348
	c0.045-0.901,0.156-1.766,0.319-2.581C298.303,408.105,301.787,408.959,305.512,409.008z"/>
<path id="PRIMARY_57_" fill="#FFFA00" stroke="#231F20" stroke-miterlimit="10" d="M284.927,394.149
	c0.884,4.475,3.745,8.38,7.823,11.065c-0.162,1.211-0.428,2.343-0.801,3.334c-4.662-3.045-7.787-7.262-8.482-12.01
	C283.87,395.581,284.367,394.776,284.927,394.149z"/>
</svg>
