<?xml version="1.0" encoding="utf-8"?>
<!-- Generator: Adobe Illustrator 16.0.0, SVG Export Plug-In . SVG Version: 6.00 Build 0)  -->
<svg version="1.1" id="Layer_1" xmlns="http://www.w3.org/2000/svg" xmlns:xlink="http://www.w3.org/1999/xlink" x="0px" y="0px"
	 width="612px" height="792px" viewBox="0 0 612 792" enable-background="new 0 0 612 792" xml:space="preserve">
<rect x="178" y="310.177" fill="#231F20" fill-opacity="0" width="256" height="172"/>
<path id="PRIMARY_70_" fill="#FFFA00" stroke="#231F20" stroke-width="3.1586" stroke-miterlimit="10" d="M346.759,422.584
	c-1.938-5.157-3.092-11.434-3.092-18.24c0-17.478,7.512-31.646,16.774-31.646c5.324,0,10.056,4.683,13.123,11.979
	C371.37,399.661,361.494,412.969,346.759,422.584z"/>
<polygon fill="#FFFFFF" stroke="#231F20" stroke-width="3.1586" stroke-miterlimit="10" points="360.277,359.266 352.024,374.989 
	360.037,374.905 368.191,374.817 "/>
<path id="PRIMARY_69_" fill="#FFFA00" stroke="#231F20" stroke-width="3.1586" stroke-miterlimit="10" d="M311.519,435.187
	c-0.241-2.112-0.407-4.272-0.407-6.515c0-17.479,7.509-31.65,16.774-31.65c8.664,0,15.787,12.393,16.676,28.291
	C334.88,430.568,323.642,434.03,311.519,435.187z"/>
<polygon fill="#FFFFFF" stroke="#231F20" stroke-width="3.1586" stroke-miterlimit="10" points="328.053,385.761 319.803,401.482 
	327.814,401.396 335.969,401.31 "/>
<path id="PRIMARY_68_" fill="#FFFA00" stroke="#231F20" stroke-width="3.1586" stroke-miterlimit="10" d="M271.582,428.136
	c0.807-16.063,7.967-28.639,16.694-28.639c9.267,0,16.776,14.175,16.776,31.653c0,1.499-0.069,2.963-0.184,4.399
	C292.836,435.184,281.551,432.532,271.582,428.136z"/>
<polygon fill="#FFFFFF" stroke="#231F20" stroke-width="3.1586" stroke-miterlimit="10" points="288.443,388.239 280.197,403.961 
	288.204,403.875 296.358,403.788 "/>
<path id="PRIMARY_67_" fill="#FFFA00" stroke="#231F20" stroke-width="3.1586" stroke-miterlimit="10" d="M265.23,422.834
	c1.937-5.158,3.088-11.435,3.088-18.241c0-17.478-7.509-31.646-16.773-31.646c-5.323,0-10.057,4.681-13.122,11.977
	C240.613,399.91,250.492,413.219,265.23,422.834z"/>
<polygon fill="#FFFFFF" stroke="#231F20" stroke-width="3.1586" stroke-miterlimit="10" points="251.705,359.516 259.958,375.239 
	251.946,375.154 243.792,375.066 "/>
</svg>
