<?xml version="1.0" encoding="utf-8"?>
<!-- Generator: Adobe Illustrator 16.0.0, SVG Export Plug-In . SVG Version: 6.00 Build 0)  -->
<svg version="1.1" id="Layer_1" xmlns="http://www.w3.org/2000/svg" xmlns:xlink="http://www.w3.org/1999/xlink" x="0px" y="0px"
	 width="612px" height="792px" viewBox="0 0 612 792" enable-background="new 0 0 612 792" xml:space="preserve">
<rect x="265.5" y="368.933" fill-opacity="0" fill="#231F20" width="81" height="54.487"/>
<path id="SECONDARY_34_" fill="#FFFDB5" stroke="#231F20" stroke-miterlimit="10" d="M319.626,394.435
	c-0.848-2.369-2.069-4.301-3.271-5.367c-0.77,2.092-1.932,3.928-3.383,5.357c0.155,0.701,0.362,1.428,0.625,2.164
	c1.436,4.016,3.948,6.789,5.613,6.193C320.874,402.188,321.06,398.45,319.626,394.435z"/>
<path id="SECONDARY_33_" fill="#FFFDB5" stroke="#231F20" stroke-miterlimit="10" d="M311.655,395.54
	c-1.609,1.193-3.464,1.939-5.456,2.1c-0.071,0.867-0.078,1.803-0.003,2.775c0.324,4.252,2.018,7.59,3.779,7.455
	c1.763-0.135,2.928-3.691,2.603-7.943C312.452,398.274,312.118,396.765,311.655,395.54z"/>
<path id="SECONDARY_32_" fill="#FFFDB5" stroke="#231F20" stroke-miterlimit="10" d="M299.022,395.464
	c-0.479,1.238-0.826,2.773-0.957,4.459c-0.33,4.252,0.83,7.809,2.593,7.945c1.762,0.137,3.458-3.197,3.789-7.449
	c0.076-0.979,0.069-1.916-0.001-2.787C302.462,397.444,300.618,396.675,299.022,395.464z"/>
<path id="SECONDARY_31_" fill="#FFFDB5" stroke="#231F20" stroke-miterlimit="10" d="M294.391,388.976
	c-1.235,1.047-2.503,3.021-3.375,5.459c-1.435,4.016-1.249,7.754,0.415,8.348c1.666,0.596,4.178-2.178,5.613-6.193
	c0.277-0.777,0.493-1.545,0.65-2.281C296.276,392.874,295.14,391.052,294.391,388.976z"/>
</svg>
