<?xml version="1.0" encoding="utf-8"?>
<!-- Generator: Adobe Illustrator 16.0.0, SVG Export Plug-In . SVG Version: 6.00 Build 0)  -->
<svg version="1.1" id="Layer_1" xmlns="http://www.w3.org/2000/svg" xmlns:xlink="http://www.w3.org/1999/xlink" x="0px" y="0px"
	 width="612px" height="792px" viewBox="0 0 612 792" enable-background="new 0 0 612 792" xml:space="preserve">
<rect x="178" y="310.177" fill="#231F20" fill-opacity="0" width="256" height="172"/>
<path id="SECONDARY_30_" fill="#FFFDB5" stroke="#231F20" stroke-width="3.1586" stroke-miterlimit="10" d="M348.84,392.264
	c-2.68-7.482-6.537-13.576-10.337-16.946c-2.435,6.608-6.108,12.4-10.691,16.914c0.488,2.21,1.143,4.504,1.976,6.828
	c4.537,12.683,12.476,21.432,17.737,19.554C352.784,416.739,353.37,404.938,348.84,392.264z"/>
<path id="SECONDARY_29_" fill="#FFFDB5" stroke="#231F20" stroke-width="3.1586" stroke-miterlimit="10" d="M323.648,395.749
	c-5.087,3.767-10.948,6.122-17.244,6.631c-0.225,2.737-0.247,5.69-0.009,8.761c1.025,13.42,6.376,23.956,11.945,23.534
	c5.57-0.429,9.253-11.653,8.225-25.078C326.167,404.384,325.111,399.617,323.648,395.749z"/>
<path id="SECONDARY_28_" fill="#FFFDB5" stroke="#231F20" stroke-width="3.1586" stroke-miterlimit="10" d="M283.722,395.508
	c-1.514,3.909-2.611,8.758-3.025,14.076c-1.043,13.422,2.624,24.652,8.195,25.084c5.569,0.432,10.929-10.096,11.975-23.518
	c0.241-3.086,0.218-6.049-0.003-8.799C294.594,401.76,288.766,399.331,283.722,395.508z"/>
<path id="SECONDARY_27_" fill="#FFFDB5" stroke="#231F20" stroke-width="3.1586" stroke-miterlimit="10" d="M269.082,375.028
	c-3.903,3.305-7.911,9.536-10.667,17.235c-4.536,12.678-3.947,24.479,1.312,26.353c5.266,1.878,13.206-6.874,17.741-19.554
	c0.875-2.45,1.557-4.874,2.054-7.196C275.043,387.333,271.449,381.582,269.082,375.028z"/>
</svg>
