<?xml version="1.0" encoding="utf-8"?>
<!-- Generator: Adobe Illustrator 16.0.0, SVG Export Plug-In . SVG Version: 6.00 Build 0)  -->
<svg version="1.1" id="Layer_1" xmlns="http://www.w3.org/2000/svg" xmlns:xlink="http://www.w3.org/1999/xlink" x="0px" y="0px"
	 width="612px" height="792px" viewBox="0 0 612 792" enable-background="new 0 0 612 792" xml:space="preserve">
<rect x="178" y="310.177" fill="#231F20" fill-opacity="0" width="256" height="172"/>
<path id="SECONDARY_42_" fill="#FFFDB5" stroke="#231F20" stroke-width="3.1586" stroke-miterlimit="10" d="M337.476,377.317
	c0.769,1.628,1.487,3.342,2.136,5.148c0.166,0.458,0.309,0.906,0.46,1.358c-2.087,8.021-5.979,15.058-11.063,20.499
	c-1.91-2.14-3.75-4.964-5.419-8.194C329.556,391.565,334.383,385.047,337.476,377.317z"/>
<path id="SECONDARY_41_" fill="#FFFDB5" stroke="#231F20" stroke-width="3.1586" stroke-miterlimit="10" d="M303.339,403.243
	c6.204,0,12.043-1.838,17.21-5.025c-0.17,2.627-0.522,5.065-1.047,7.238c-4.453,2.433-9.361,3.854-14.531,4.029
	c-0.979-1.778-1.846-3.918-2.569-6.298C302.716,403.193,303.026,403.243,303.339,403.243z"/>
<path id="SECONDARY_40_" fill="#FFFDB5" stroke="#231F20" stroke-width="3.1586" stroke-miterlimit="10" d="M299.088,402.935
	c-0.639,2.14-1.359,4.137-2.199,5.808c-5.867-1.319-11.239-4.278-15.819-8.462c-0.202-1.899-0.266-3.946-0.245-6.041
	C286.051,398.908,292.284,402.016,299.088,402.935z"/>
<path id="SECONDARY_39_" fill="#FFFDB5" stroke="#231F20" stroke-width="3.1586" stroke-miterlimit="10" d="M266.699,369.122
	c1.954,8.972,6.091,16.85,11.707,22.783c-1.378,2.818-2.889,5.349-4.475,7.433c-5.335-6.417-9.059-14.754-10.48-24.056
	C264.449,373.04,265.549,370.978,266.699,369.122z"/>
</svg>
