<?xml version="1.0" encoding="utf-8"?>
<!-- Generator: Adobe Illustrator 16.0.0, SVG Export Plug-In . SVG Version: 6.00 Build 0)  -->
<svg version="1.1" id="Layer_1" xmlns="http://www.w3.org/2000/svg" xmlns:xlink="http://www.w3.org/1999/xlink" x="0px" y="0px"
	 width="612px" height="792px" viewBox="0 0 612 792" enable-background="new 0 0 612 792" xml:space="preserve">
<rect x="178" y="310.177" fill="#231F20" fill-opacity="0" width="256" height="172"/>
<path id="SECONDARY_34_" fill="#FFFDB5" stroke="#231F20" stroke-width="3.1586" stroke-miterlimit="10" d="M349.064,390.679
	c-2.679-7.479-6.54-13.578-10.336-16.943c-2.436,6.605-6.108,12.4-10.694,16.91c0.49,2.214,1.145,4.509,1.975,6.832
	c4.541,12.679,12.479,21.431,17.741,19.551C353.009,415.151,353.596,403.354,349.064,390.679z"/>
<path id="SECONDARY_33_" fill="#FFFDB5" stroke="#231F20" stroke-width="3.1586" stroke-miterlimit="10" d="M323.873,394.167
	c-5.086,3.768-10.947,6.119-17.243,6.628c-0.226,2.737-0.247,5.694-0.01,8.762c1.021,13.422,6.377,23.959,11.941,23.533
	c5.574-0.426,9.257-11.652,8.229-25.075C326.392,402.799,325.336,398.033,323.873,394.167z"/>
<path id="SECONDARY_32_" fill="#FFFDB5" stroke="#231F20" stroke-width="3.1586" stroke-miterlimit="10" d="M283.946,393.927
	c-1.514,3.909-2.611,8.755-3.024,14.076c-1.043,13.422,2.624,24.652,8.196,25.081c5.568,0.432,10.929-10.093,11.974-23.516
	c0.241-3.089,0.219-6.048-0.003-8.798C294.818,400.179,288.991,397.749,283.946,393.927z"/>
<path id="SECONDARY_31_" fill="#FFFDB5" stroke="#231F20" stroke-width="3.1586" stroke-miterlimit="10" d="M269.31,373.447
	c-3.903,3.305-7.911,9.536-10.667,17.232c-4.536,12.678-3.948,24.479,1.312,26.353c5.266,1.88,13.204-6.875,17.739-19.551
	c0.875-2.453,1.559-4.877,2.054-7.2C275.267,385.751,271.677,379.999,269.31,373.447z"/>
</svg>
