<?xml version="1.0" encoding="utf-8"?>
<!-- Generator: Adobe Illustrator 16.0.0, SVG Export Plug-In . SVG Version: 6.00 Build 0)  -->
<svg version="1.1" id="Layer_1" xmlns="http://www.w3.org/2000/svg" xmlns:xlink="http://www.w3.org/1999/xlink" x="0px" y="0px"
	 width="612px" height="792px" viewBox="0 0 612 792" enable-background="new 0 0 612 792" xml:space="preserve">
<rect x="265.5" y="368.933" fill-opacity="0" fill="#231F20" width="81" height="54.487"/>
<path id="SECONDARY_38_" fill="#FFFDB5" stroke="#231F20" stroke-miterlimit="10" d="M298.729,380.638
	c1.665,0.595,1.851,4.333,0.417,8.349c-0.595,1.663-1.374,3.106-2.201,4.192c-1.686-2.033-2.865-4.673-3.314-7.621
	C295.097,382.25,297.247,380.108,298.729,380.638z"/>
<path id="SECONDARY_37_" fill="#FFFDB5" stroke="#231F20" stroke-miterlimit="10" d="M298.164,391.324
	c0.325-4.252,2.018-7.589,3.78-7.456c1.762,0.136,2.928,3.692,2.602,7.945c-0.161,2.112-0.66,3.997-1.338,5.345
	c-1.855-0.419-3.557-1.356-5.006-2.68C298.099,393.508,298.079,392.441,298.164,391.324z"/>
<path id="SECONDARY_36_" fill="#FFFDB5" stroke="#231F20" stroke-miterlimit="10" d="M306.888,383.869
	c1.762-0.137,3.459,3.2,3.789,7.451c0.14,1.792,0.012,3.456-0.313,4.797c-1.409,0.771-2.961,1.22-4.598,1.276
	c-0.742-1.357-1.297-3.337-1.472-5.577C303.964,387.564,305.125,384.008,306.888,383.869z"/>
<path id="SECONDARY_35_" fill="#FFFDB5" stroke="#231F20" stroke-miterlimit="10" d="M310.698,388.986
	c-1.434-4.016-1.248-7.754,0.416-8.349c1.665-0.595,4.178,2.18,5.612,6.195c0.052,0.145,0.097,0.287,0.144,0.431
	c-0.66,2.54-1.891,4.769-3.5,6.493C312.372,392.636,311.404,390.963,310.698,388.986z"/>
</svg>
