<?xml version="1.0" encoding="utf-8"?>
<!-- Generator: Adobe Illustrator 16.0.0, SVG Export Plug-In . SVG Version: 6.00 Build 0)  -->
<svg version="1.1" id="Layer_1" xmlns="http://www.w3.org/2000/svg" xmlns:xlink="http://www.w3.org/1999/xlink" x="0px" y="0px"
	 width="612px" height="792px" viewBox="0 0 612 792" enable-background="new 0 0 612 792" xml:space="preserve">
<rect x="265.5" y="368.933" fill-opacity="0" fill="#231F20" width="81" height="54.487"/>
<path id="SECONDARY_42_" fill="#FFFDB5" stroke="#231F20" stroke-miterlimit="10" d="M315.959,390.202
	c0.243,0.516,0.471,1.059,0.676,1.631c0.052,0.145,0.097,0.287,0.145,0.43c-0.66,2.541-1.891,4.77-3.5,6.494
	c-0.604-0.678-1.186-1.572-1.715-2.596C313.453,394.716,314.98,392.651,315.959,390.202z"/>
<path id="SECONDARY_41_" fill="#FFFDB5" stroke="#231F20" stroke-miterlimit="10" d="M305.158,398.415
	c1.963,0,3.811-0.582,5.446-1.592c-0.054,0.832-0.166,1.605-0.332,2.293c-1.409,0.771-2.961,1.221-4.597,1.277
	c-0.31-0.564-0.584-1.242-0.813-1.996C304.961,398.399,305.059,398.415,305.158,398.415z"/>
<path id="SECONDARY_40_" fill="#FFFDB5" stroke="#231F20" stroke-miterlimit="10" d="M303.813,398.317
	c-0.202,0.678-0.43,1.311-0.696,1.84c-1.856-0.418-3.556-1.355-5.005-2.68c-0.064-0.602-0.084-1.25-0.078-1.914
	C299.688,397.042,301.66,398.026,303.813,398.317z"/>
<path id="SECONDARY_39_" fill="#FFFDB5" stroke="#231F20" stroke-miterlimit="10" d="M293.565,387.606
	c0.618,2.842,1.927,5.338,3.704,7.217c-0.436,0.893-0.914,1.695-1.416,2.355c-1.688-2.033-2.866-4.674-3.316-7.621
	C292.853,388.847,293.201,388.194,293.565,387.606z"/>
</svg>
