<?xml version="1.0" encoding="utf-8"?>
<!-- Generator: Adobe Illustrator 16.0.0, SVG Export Plug-In . SVG Version: 6.00 Build 0)  -->
<svg version="1.1" id="Layer_1" xmlns="http://www.w3.org/2000/svg" xmlns:xlink="http://www.w3.org/1999/xlink" x="0px" y="0px"
	 width="612px" height="792px" viewBox="0 0 612 792" enable-background="new 0 0 612 792" xml:space="preserve">
<rect x="178" y="310.177" fill="#231F20" fill-opacity="0" width="256" height="172"/>
<path id="SECONDARY_38_" fill="#FFFDB5" stroke="#231F20" stroke-width="3.1586" stroke-miterlimit="10" d="M283.02,347.126
	c5.262,1.877,5.85,13.678,1.318,26.354c-1.881,5.25-4.343,9.805-6.957,13.234c-5.329-6.418-9.054-14.752-10.474-24.058
	C271.542,352.214,278.336,345.452,283.02,347.126z"/>
<path id="SECONDARY_37_" fill="#FFFDB5" stroke="#231F20" stroke-width="3.1586" stroke-miterlimit="10" d="M281.234,380.859
	c1.028-13.424,6.378-23.958,11.946-23.537c5.569,0.429,9.254,11.654,8.224,25.08c-0.509,6.667-2.086,12.618-4.229,16.874
	c-5.862-1.322-11.242-4.28-15.821-8.46C281.029,387.752,280.966,384.384,281.234,380.859z"/>
<path id="SECONDARY_36_" fill="#FFFDB5" stroke="#231F20" stroke-width="3.1586" stroke-miterlimit="10" d="M308.806,357.325
	c5.571-0.433,10.932,10.101,11.976,23.52c0.444,5.657,0.04,10.91-0.988,15.144c-4.453,2.433-9.357,3.851-14.532,4.026
	c-2.346-4.282-4.099-10.533-4.653-17.604C299.565,368.989,303.234,357.763,308.806,357.325z"/>
<path id="SECONDARY_35_" fill="#FFFDB5" stroke="#231F20" stroke-width="3.1586" stroke-miterlimit="10" d="M320.849,373.478
	c-4.534-12.676-3.944-24.477,1.315-26.354c5.262-1.879,13.203,6.881,17.734,19.556c0.166,0.458,0.309,0.906,0.456,1.361
	c-2.086,8.018-5.978,15.055-11.062,20.496C326.139,384.999,323.08,379.719,320.849,373.478z"/>
</svg>
