<?xml version="1.0" encoding="utf-8"?>
<!-- Generator: Adobe Illustrator 16.0.0, SVG Export Plug-In . SVG Version: 6.00 Build 0)  -->
<svg version="1.1" id="Layer_1" xmlns="http://www.w3.org/2000/svg" xmlns:xlink="http://www.w3.org/1999/xlink" x="0px" y="0px"
	 width="612px" height="792px" viewBox="0 0 612 792" enable-background="new 0 0 612 792" xml:space="preserve">
<rect x="265.5" y="368.933" fill-opacity="0" fill="#231F20" width="81" height="54.487"/>
<path id="SECONDARY_30_" fill="#FFFDB5" stroke="#231F20" stroke-miterlimit="10" d="M319.555,394.937
	c-0.848-2.37-2.069-4.301-3.271-5.368c-0.77,2.093-1.932,3.928-3.383,5.358c0.155,0.7,0.362,1.427,0.625,2.163
	c1.436,4.017,3.948,6.789,5.613,6.194C320.803,402.69,320.988,398.952,319.555,394.937z"/>
<path id="SECONDARY_29_" fill="#FFFDB5" stroke="#231F20" stroke-miterlimit="10" d="M311.584,396.041
	c-1.609,1.193-3.464,1.939-5.456,2.101c-0.071,0.867-0.078,1.802-0.003,2.775c0.324,4.251,2.018,7.589,3.779,7.455
	c1.763-0.136,2.928-3.691,2.603-7.944C312.381,398.776,312.047,397.267,311.584,396.041z"/>
<path id="SECONDARY_28_" fill="#FFFDB5" stroke="#231F20" stroke-miterlimit="10" d="M298.951,395.965
	c-0.479,1.238-0.826,2.774-0.957,4.459c-0.33,4.252,0.83,7.809,2.593,7.946c1.762,0.137,3.458-3.198,3.789-7.45
	c0.076-0.978,0.069-1.916-0.001-2.787C302.391,397.945,300.547,397.176,298.951,395.965z"/>
<path id="SECONDARY_27_" fill="#FFFDB5" stroke="#231F20" stroke-miterlimit="10" d="M294.319,389.477
	c-1.235,1.047-2.503,3.021-3.375,5.46c-1.435,4.016-1.249,7.754,0.415,8.348c1.666,0.595,4.178-2.178,5.613-6.194
	c0.277-0.777,0.493-1.544,0.65-2.28C296.205,393.375,295.068,391.553,294.319,389.477z"/>
</svg>
