<?xml version="1.0" encoding="utf-8"?>
<!-- Generator: Adobe Illustrator 16.0.0, SVG Export Plug-In . SVG Version: 6.00 Build 0)  -->
<svg version="1.1" id="Layer_1" xmlns="http://www.w3.org/2000/svg" xmlns:xlink="http://www.w3.org/1999/xlink" x="0px" y="0px"
	 width="612px" height="792px" viewBox="0 0 612 792" enable-background="new 0 0 612 792" xml:space="preserve">
<rect x="179" y="271.673" fill="#231F20" fill-opacity="0" width="256" height="247.826"/>
<path id="PRIMARY_20_" fill="#00BC03" stroke="#231F20" stroke-width="3.1647" stroke-miterlimit="10" d="M261.722,500.685
	c18.767,22.544,52.209,25.563,74.692,6.752l0,0c22.481-18.818,25.5-52.348,6.728-74.889l-68.054-81.756
	c-18.767-22.542-52.208-25.563-74.691-6.746l0,0c-22.48,18.816-25.492,52.343-6.729,74.883L261.722,500.685z"/>
<path id="SECONDARY_71_" fill="#005601" d="M302.944,452.508c2.577,9.574,9.229,16.116,14.855,14.609
	c5.626-1.504,8.102-10.487,5.521-20.059c-2.581-9.572-9.231-16.11-14.853-14.606C302.841,433.959,300.366,442.939,302.944,452.508z"
	/>
<path id="SECONDARY_70_" fill="#005601" d="M278.154,383.013c1.912,2.989,5.896,3.867,8.9,1.956
	c2.992-1.911,3.872-5.878,1.957-8.869c-1.915-2.989-5.901-3.864-8.896-1.956C277.114,376.058,276.236,380.025,278.154,383.013z"/>
<path id="SECONDARY_69_" fill="#005601" d="M282.326,435.865c1.034,1.618,3.037,2.185,4.475,1.269
	c1.432-0.913,1.758-2.961,0.724-4.58c-1.03-1.612-3.034-2.179-4.469-1.259C281.625,432.204,281.293,434.256,282.326,435.865z"/>
<path id="SECONDARY_68_" fill="#005601" d="M272.054,407.42c1.568,4.964,5.208,8.24,8.124,7.328
	c2.923-0.92,4.014-5.688,2.442-10.646c-1.571-4.961-5.202-8.239-8.123-7.325C271.58,397.693,270.483,402.462,272.054,407.42z"/>
<path id="SECONDARY_67_" fill="#005601" d="M253.031,355.809c-9.099-6.115-18.046-8.771-19.964-5.925
	c-1.921,2.846,3.899,10.108,13.003,16.224c9.105,6.113,18.043,8.768,19.968,5.923C267.955,369.188,262.137,361.922,253.031,355.809z
	"/>
<path id="SECONDARY_66_" fill="#005601" d="M303.767,411.04c2.81,4.386,3.86,8.721,2.338,9.689
	c-1.512,0.966-5.025-1.808-7.835-6.189c-2.809-4.385-3.858-8.72-2.344-9.686C297.446,403.886,300.957,406.655,303.767,411.04z"/>
<path id="SECONDARY_65_" fill="#005601" d="M261.517,401.228c3.199,4.991,2.714,10.992-1.074,13.405
	c-3.79,2.411-9.457,0.328-12.657-4.66c-3.196-4.988-2.711-10.992,1.077-13.405C252.653,394.152,258.322,396.241,261.517,401.228z"/>
</svg>
