<?xml version="1.0" encoding="utf-8"?>
<!-- Generator: Adobe Illustrator 16.0.0, SVG Export Plug-In . SVG Version: 6.00 Build 0)  -->
<svg version="1.1" id="Layer_1" xmlns="http://www.w3.org/2000/svg" xmlns:xlink="http://www.w3.org/1999/xlink" x="0px" y="0px"
	 width="612px" height="792px" viewBox="0 0 612 792" enable-background="new 0 0 612 792" xml:space="preserve">
<rect x="191" y="269.405" fill="#231F20" fill-opacity="0" width="230" height="254.482"/>
<path id="PRIMARY_21_" fill="#00BC03" stroke="#231F20" stroke-width="2.8444" stroke-miterlimit="10" d="M247.08,396.096
	c0,70.059,25.423,126.851,56.791,126.851c31.365,0,56.79-56.792,56.79-126.851c0-70.058-0.948-126.854-56.79-126.854
	C247.08,269.242,247.08,326.039,247.08,396.096z"/>
<path id="SECONDARY_78_" fill="#005601" d="M330.751,442.882c-2.778,9.399-2.423,19.272,0.799,22.046
	c3.223,2.791,8.092-2.568,10.876-11.962c2.778-9.402,2.421-19.27-0.799-22.049C338.402,428.135,333.535,433.493,330.751,442.882z"/>
<path id="SECONDARY_77_" fill="#005601" d="M348.141,370.394c-0.354,3.719,1.126,7.229,3.3,7.833
	c2.177,0.606,4.229-1.915,4.584-5.633c0.354-3.717-1.123-7.216-3.297-7.83C350.545,364.157,348.495,366.679,348.141,370.394z"/>
<path id="SECONDARY_76_" fill="#005601" d="M328.14,415.156c-0.194,2.01,0.493,3.873,1.539,4.163
	c1.039,0.292,2.038-1.103,2.231-3.111c0.194-2.009-0.493-3.862-1.541-4.157C329.332,411.762,328.328,413.153,328.14,415.156z"/>
<path id="SECONDARY_75_" fill="#005601" d="M335.199,385.398c-1.339,5.032-1.015,10.197,0.71,11.529
	c1.728,1.342,4.212-1.664,5.546-6.697c1.337-5.028,1.012-10.194-0.71-11.528C339.015,377.37,336.53,380.363,335.199,385.398z"/>
<path id="SECONDARY_74_" fill="#005601" d="M347.827,331.133c-1.664-11.264-4.691-19.681-6.763-18.789
	c-2.069,0.892-2.396,10.751-0.727,22.02c1.669,11.264,4.697,19.681,6.766,18.789C349.169,352.256,349.496,342.4,347.827,331.133z"/>
<path id="SECONDARY_73_" fill="#005601" d="M348.338,410.654c-0.519,5.454-1.836,9.628-2.937,9.321
	c-1.102-0.312-1.572-4.98-1.052-10.435c0.524-5.448,1.842-9.622,2.939-9.318C348.391,400.531,348.858,405.2,348.338,410.654z"/>
<path id="SECONDARY_72_" fill="#005601" d="M332.903,373.058c-0.599,6.207-3.309,10.614-6.062,9.847
	c-2.751-0.767-4.504-6.419-3.91-12.623c0.594-6.205,3.306-10.612,6.059-9.847C331.744,361.202,333.497,366.855,332.903,373.058z"/>
<ellipse fill="none" stroke="#231F20" stroke-width="2.8444" stroke-miterlimit="10" cx="303.871" cy="292.684" rx="7.098" ry="7.124"/>
<ellipse fill="none" stroke="#231F20" stroke-width="2.8444" stroke-miterlimit="10" cx="303.871" cy="502.512" rx="7.098" ry="7.123"/>
</svg>
