<?xml version="1.0" encoding="utf-8"?>
<!-- Generator: Adobe Illustrator 16.0.0, SVG Export Plug-In . SVG Version: 6.00 Build 0)  -->
<svg version="1.1" id="Layer_1" xmlns="http://www.w3.org/2000/svg" xmlns:xlink="http://www.w3.org/1999/xlink" x="0px" y="0px"
	 width="612px" height="792px" viewBox="0 0 612 792" enable-background="new 0 0 612 792" xml:space="preserve">
<rect x="266.5" y="356.58" fill-opacity="0" fill="#231F20" width="81" height="78.207"/>
<path id="PRIMARY_20_" fill="#00BC03" stroke="#231F20" stroke-miterlimit="10" d="M292.674,428.85
	c5.938,7.114,16.519,8.067,23.633,2.13l0,0c7.113-5.938,8.068-16.519,2.129-23.632l-21.533-25.8
	c-5.938-7.114-16.519-8.067-23.633-2.129l0,0c-7.113,5.938-8.066,16.518-2.129,23.631L292.674,428.85z"/>
<path id="SECONDARY_71_" fill="#005601" d="M305.717,413.646c0.815,3.022,2.92,5.086,4.7,4.611s2.563-3.31,1.747-6.33
	c-0.816-3.021-2.921-5.084-4.699-4.61C305.684,407.793,304.901,410.627,305.717,413.646z"/>
<path id="SECONDARY_70_" fill="#005601" d="M297.873,391.716c0.605,0.943,1.866,1.22,2.816,0.617
	c0.947-0.603,1.225-1.855,0.619-2.799c-0.606-0.943-1.867-1.219-2.815-0.617C297.544,389.521,297.266,390.773,297.873,391.716z"/>
<path id="SECONDARY_69_" fill="#005601" d="M299.193,408.395c0.327,0.51,0.961,0.689,1.416,0.4c0.453-0.288,0.556-0.935,0.229-1.445
	c-0.326-0.509-0.96-0.688-1.414-0.398C298.971,407.239,298.866,407.887,299.193,408.395z"/>
<path id="SECONDARY_68_" fill="#005601" d="M295.943,399.418c0.496,1.566,1.648,2.601,2.57,2.312c0.925-0.29,1.27-1.794,0.773-3.359
	s-1.646-2.6-2.57-2.311C295.793,396.349,295.446,397.854,295.943,399.418z"/>
<path id="SECONDARY_67_" fill="#005601" d="M289.924,383.131c-2.879-1.93-5.71-2.768-6.317-1.87c-0.608,0.898,1.234,3.19,4.114,5.12
	c2.881,1.929,5.709,2.767,6.318,1.869C294.646,387.353,292.805,385.06,289.924,383.131z"/>
<path id="SECONDARY_66_" fill="#005601" d="M305.977,400.561c0.889,1.383,1.221,2.751,0.74,3.057
	c-0.479,0.305-1.59-0.57-2.479-1.953c-0.889-1.384-1.221-2.752-0.742-3.057C303.977,398.303,305.088,399.177,305.977,400.561z"/>
<path id="SECONDARY_65_" fill="#005601" d="M292.609,397.464c1.012,1.575,0.859,3.469-0.34,4.23s-2.992,0.104-4.005-1.47
	c-1.011-1.575-0.858-3.469,0.341-4.231S291.598,395.89,292.609,397.464z"/>
</svg>
