<?xml version="1.0" encoding="utf-8"?>
<!-- Generator: Adobe Illustrator 16.0.0, SVG Export Plug-In . SVG Version: 6.00 Build 0)  -->
<svg version="1.1" id="Layer_1" xmlns="http://www.w3.org/2000/svg" xmlns:xlink="http://www.w3.org/1999/xlink" x="0px" y="0px"
	 width="612px" height="792px" viewBox="0 0 612 792" enable-background="new 0 0 612 792" xml:space="preserve">
<rect x="265.5" y="351.937" fill-opacity="0" fill="#231F20" width="81" height="89.313"/>
<path id="PRIMARY_21_" fill="#00BC03" stroke="#231F20" stroke-miterlimit="10" d="M285.25,396.4c0,24.588,8.953,44.52,20,44.52
	c11.046,0,20-19.932,20-44.52c0-24.587-0.334-44.52-20-44.52C285.25,351.88,285.25,371.813,285.25,396.4z"/>
<path id="SECONDARY_78_" fill="#005601" d="M314.717,412.82c-0.979,3.299-0.854,6.764,0.281,7.738
	c1.135,0.979,2.85-0.902,3.83-4.199c0.979-3.299,0.853-6.762-0.281-7.738C317.411,407.645,315.697,409.525,314.717,412.82z"/>
<path id="SECONDARY_77_" fill="#005601" d="M320.841,387.38c-0.125,1.305,0.396,2.537,1.162,2.749
	c0.767,0.213,1.489-0.672,1.614-1.977c0.125-1.305-0.395-2.533-1.161-2.748C321.688,385.191,320.966,386.076,320.841,387.38z"/>
<path id="SECONDARY_76_" fill="#005601" d="M313.797,403.09c-0.068,0.705,0.174,1.359,0.542,1.461
	c0.366,0.102,0.718-0.387,0.786-1.092s-0.174-1.355-0.543-1.459C314.217,401.898,313.863,402.387,313.797,403.09z"/>
<path id="SECONDARY_75_" fill="#005601" d="M316.283,392.646c-0.471,1.766-0.357,3.579,0.25,4.046
	c0.609,0.471,1.484-0.584,1.953-2.35c0.471-1.765,0.357-3.578-0.25-4.046C317.627,389.828,316.752,390.879,316.283,392.646z"/>
<path id="SECONDARY_74_" fill="#005601" d="M320.73,373.601c-0.585-3.953-1.652-6.907-2.381-6.594
	c-0.729,0.313-0.844,3.773-0.256,7.728c0.588,3.953,1.654,6.907,2.383,6.594C321.203,381.014,321.318,377.555,320.73,373.601z"/>
<path id="SECONDARY_73_" fill="#005601" d="M320.91,401.51c-0.182,1.914-0.646,3.379-1.034,3.271
	c-0.388-0.109-0.554-1.748-0.37-3.662c0.184-1.912,0.648-3.377,1.035-3.27C320.929,397.957,321.094,399.596,320.91,401.51z"/>
<path id="SECONDARY_72_" fill="#005601" d="M315.475,388.315c-0.211,2.178-1.165,3.725-2.135,3.456
	c-0.969-0.269-1.586-2.253-1.377-4.43c0.209-2.178,1.164-3.725,2.134-3.456C315.066,384.154,315.684,386.138,315.475,388.315z"/>
<circle fill="none" stroke="#231F20" stroke-miterlimit="10" cx="305.25" cy="360.107" r="2.5"/>
<circle fill="none" stroke="#231F20" stroke-miterlimit="10" cx="305.25" cy="433.748" r="2.5"/>
</svg>
