<?xml version="1.0" encoding="utf-8"?>
<!-- Generator: Adobe Illustrator 16.0.0, SVG Export Plug-In . SVG Version: 6.00 Build 0)  -->
<svg version="1.1" id="Layer_1" xmlns="http://www.w3.org/2000/svg" xmlns:xlink="http://www.w3.org/1999/xlink" x="0px" y="0px"
	 width="612px" height="792px" viewBox="0 0 612 792" enable-background="new 0 0 612 792" xml:space="preserve">
<rect x="266.5" y="369.004" fill-opacity="0" fill="#231F20" width="81" height="54.487"/>
<path id="PRIMARY_41_" fill="#02007A" stroke="#231F20" stroke-miterlimit="10" d="M296.166,388.221
	c-0.992,1.857-1.919,4.315-2.6,7.077c-1.565,6.346-1.24,11.883,0.726,12.367c1.69,0.417,4.041-3.04,5.662-8.048
	C297.904,396.875,296.497,392.833,296.166,388.221z"/>
<path id="PRIMARY_40_" fill="#02007A" stroke="#231F20" stroke-miterlimit="10" d="M306.25,403.328
	c-1.256,0-2.454-0.403-3.565-1.108c0.382,5.22,1.831,9.108,3.565,9.108c1.734,0,3.184-3.889,3.564-9.108
	C308.704,402.925,307.506,403.328,306.25,403.328z"/>
<path id="PRIMARY_19_" fill="#02007A" stroke="#231F20" stroke-miterlimit="10" d="M318.686,395.615
	c-0.639-2.586-1.493-4.897-2.413-6.708c-0.434,4.507-1.897,8.417-3.976,11.026c1.621,5.009,3.973,8.467,5.662,8.049
	C319.926,407.498,320.25,401.961,318.686,395.615z"/>
</svg>
