<?xml version="1.0" encoding="utf-8"?>
<!-- Generator: Adobe Illustrator 16.0.0, SVG Export Plug-In . SVG Version: 6.00 Build 0)  -->
<svg version="1.1" id="Layer_1" xmlns="http://www.w3.org/2000/svg" xmlns:xlink="http://www.w3.org/1999/xlink" x="0px" y="0px"
	 width="612px" height="792px" viewBox="0 0 612 792" enable-background="new 0 0 612 792" xml:space="preserve">
<rect x="179" y="310.248" fill="#231F20" fill-opacity="0" width="256" height="172"/>
<path id="PRIMARY_41_" fill="#02007A" stroke="#231F20" stroke-width="3.1586" stroke-miterlimit="10" d="M272.759,370.911
	c-3.136,5.862-6.065,13.621-8.218,22.339c-4.946,20.032-3.918,37.51,2.295,39.04c5.341,1.316,12.771-9.597,17.895-25.404
	C278.251,398.229,273.806,385.469,272.759,370.911z"/>
<path id="PRIMARY_40_" fill="#02007A" stroke="#231F20" stroke-width="3.1586" stroke-miterlimit="10" d="M304.63,418.599
	c-3.969,0-7.756-1.272-11.267-3.499c1.207,16.48,5.787,28.753,11.267,28.753c5.481,0,10.062-12.275,11.266-28.753
	C312.386,417.326,308.599,418.599,304.63,418.599z"/>
<path id="PRIMARY_19_" fill="#02007A" stroke="#231F20" stroke-width="3.1586" stroke-miterlimit="10" d="M343.932,394.251
	c-2.018-8.165-4.716-15.459-7.623-21.175c-1.373,14.227-5.997,26.57-12.568,34.804c5.124,15.814,12.556,26.73,17.896,25.411
	C347.852,431.762,348.877,414.283,343.932,394.251z"/>
</svg>
