<?xml version="1.0" encoding="utf-8"?>
<!-- Generator: Adobe Illustrator 16.0.0, SVG Export Plug-In . SVG Version: 6.00 Build 0)  -->
<svg version="1.1" id="Layer_1" xmlns="http://www.w3.org/2000/svg" xmlns:xlink="http://www.w3.org/1999/xlink" x="0px" y="0px"
	 width="612px" height="792px" viewBox="0 0 612 792" enable-background="new 0 0 612 792" xml:space="preserve">
<rect x="266.5" y="369.004" fill-opacity="0" fill="#231F20" width="81" height="54.487"/>
<path id="PRIMARY_44_" fill="#02007A" stroke="#231F20" stroke-miterlimit="10" d="M311.504,383.407
	c-1.984,0.402-2.54,5.921-1.24,12.326c0.367,1.808,0.848,3.474,1.387,4.949c0.581-0.618,1.123-1.329,1.617-2.127
	c0.54-1.805,1.248-3.443,2.097-4.842c0.37-1.268,0.657-2.615,0.833-4.035C314.813,385.708,312.974,383.107,311.504,383.407z"/>
<path id="PRIMARY_43_" fill="#02007A" stroke="#231F20" stroke-miterlimit="10" d="M306.375,384.771
	c-2.017,0-3.724,7.126-4.33,17.003c1.283,0.988,2.704,1.554,4.205,1.554c1.595,0,3.098-0.639,4.441-1.746
	C310.074,391.808,308.378,384.771,306.375,384.771z"/>
<path id="PRIMARY_42_" fill="#02007A" stroke="#231F20" stroke-miterlimit="10" d="M298.548,397.336
	c0.586,1.153,1.256,2.18,2.002,3.036c0.577-1.422,1.108-3.015,1.537-4.75c1.565-6.346,1.24-11.883-0.726-12.367
	c-1.494-0.368-3.501,2.29-5.068,6.368c0.169,1.384,0.445,2.697,0.798,3.938C297.672,394.696,298.158,395.97,298.548,397.336z"/>
</svg>
