<?xml version="1.0" encoding="utf-8"?>
<!-- Generator: Adobe Illustrator 16.0.0, SVG Export Plug-In . SVG Version: 6.00 Build 0)  -->
<svg version="1.1" id="Layer_1" xmlns="http://www.w3.org/2000/svg" xmlns:xlink="http://www.w3.org/1999/xlink" x="0px" y="0px"
	 width="612px" height="792px" viewBox="0 0 612 792" enable-background="new 0 0 612 792" xml:space="preserve">
<rect x="266.5" y="346.008" fill-opacity="0" fill="#231F20" width="81" height="89.313"/>
<path id="SECONDARY_11_" fill="#7CD5FF" stroke="#231F20" stroke-miterlimit="10" d="M284.985,346.211
	c-2.228,7.978-4.04,16.607-5.297,25.683c-6.114,44.127,28.136,74.803,32.786,57.85c0.314-1.15,0.525-2.555,0.676-4.182
	c0.149-1.629,0.238-3.482,0.311-5.535c0.071-2.055,0.853-4.445,0.205-6.736c0.844-2.385,2.623-5.453,0.367-7.781
	c2.717-2.459,4.047-5.66,0.789-8.675c4.133-1.83,4.574-5.98,1.475-9.413c4.39-1.697,7.261-6.061,2.424-9.996
	c6.287-0.636,11.494-6.045,3.637-10.426c9.385,1.058,14.808-3.193,5.11-10.701c10.321,5.766,13.74-1.93,7.438-10.086"/>
<path id="PRIMARY_13_" fill="#02007A" stroke="#231F20" stroke-miterlimit="10" d="M284.926,346.008
	c-2.198,7.916-3.99,16.471-5.236,25.463c-2.007,14.483,0.335,27.515,4.551,37.89c1.054,2.594,2.247,5.016,3.475,7.264
	c1.457,2.164,2.617,4.699,3.946,6.156c2.015-3.277,0.825-5.699-2.893-6.969c2.305-2.814-0.45-5.467-2.245-7.746
	c0.686-2.785,0.369-5.893-1.427-8.441c1.248-2.824,0.914-6.218-0.438-9.053c1.528-2.924,4.393-6.919,0.723-9.58
	c4.925-3.3,12.671-8.873,2.209-12.903c11.147,1.24,8.571-7.092,2.898-12.128c6.388,0.259,8.516-5.786,4.835-9.952"/>
<circle fill="none" stroke="#231F20" stroke-miterlimit="10" cx="306.25" cy="354.11" r="2.5"/>
<circle fill="none" stroke="#231F20" stroke-miterlimit="10" cx="306.25" cy="427.75" r="2.5"/>
</svg>
