<?xml version="1.0" encoding="utf-8"?>
<!-- Generator: Adobe Illustrator 16.0.0, SVG Export Plug-In . SVG Version: 6.00 Build 0)  -->
<svg version="1.1" id="Layer_1" xmlns="http://www.w3.org/2000/svg" xmlns:xlink="http://www.w3.org/1999/xlink" x="0px" y="0px"
	 width="612px" height="792px" viewBox="0 0 612 792" enable-background="new 0 0 612 792" xml:space="preserve">
<rect x="179" y="310.248" fill="#231F20" fill-opacity="0" width="256" height="172"/>
<path id="PRIMARY_44_" fill="#02007A" stroke="#231F20" stroke-width="3.1586" stroke-miterlimit="10" d="M321.234,355.715
	c-6.271,1.268-8.027,18.69-3.92,38.908c1.161,5.708,2.683,10.967,4.386,15.621c1.837-1.947,3.55-4.195,5.108-6.714
	c1.707-5.696,3.944-10.868,6.63-15.284c1.17-4.003,2.077-8.254,2.633-12.738C331.691,362.978,325.88,354.767,321.234,355.715z"/>
<path id="PRIMARY_43_" fill="#02007A" stroke="#231F20" stroke-width="3.1586" stroke-miterlimit="10" d="M305.025,360.02
	c-6.375,0-11.77,22.495-13.686,53.675c4.056,3.116,8.546,4.904,13.291,4.904c5.04,0,9.79-2.016,14.037-5.512
	C316.716,382.233,311.354,360.02,305.025,360.02z"/>
<path id="PRIMARY_42_" fill="#02007A" stroke="#231F20" stroke-width="3.1586" stroke-miterlimit="10" d="M280.287,399.684
	c1.852,3.641,3.971,6.881,6.327,9.584c1.824-4.488,3.503-9.517,4.858-14.995c4.946-20.033,3.92-37.51-2.294-39.04
	c-4.721-1.16-11.065,7.229-16.017,20.103c0.534,4.368,1.406,8.513,2.521,12.431C277.519,391.349,279.056,395.372,280.287,399.684z"
	/>
</svg>
