<?xml version="1.0" encoding="utf-8"?>
<!-- Generator: Adobe Illustrator 16.0.0, SVG Export Plug-In . SVG Version: 6.00 Build 0)  -->
<svg version="1.1" id="Layer_1" xmlns="http://www.w3.org/2000/svg" xmlns:xlink="http://www.w3.org/1999/xlink" x="0px" y="0px"
	 width="612px" height="792px" viewBox="0 0 612 792" enable-background="new 0 0 612 792" xml:space="preserve">
<rect x="179" y="310.248" fill="#231F20" fill-opacity="0" width="256" height="172"/>
<path id="PRIMARY_47_" fill="#02007A" stroke="#231F20" stroke-width="3.1586" stroke-miterlimit="10" d="M273.025,369.07
	c-2.15,3.339-4.264,7.619-6.17,12.579c0.534,4.368,1.407,8.513,2.523,12.431c1.835,3.586,3.369,7.603,4.605,11.917
	c1.852,3.641,3.969,6.88,6.327,9.584c1.298-3.197,2.519-6.681,3.605-10.392C277.832,396.215,273.767,383.458,273.025,369.07z"/>
<path id="PRIMARY_46_" fill="#02007A" stroke="#231F20" stroke-width="3.1586" stroke-miterlimit="10" d="M305.016,418.599
	c-4.719,0-9.186-1.763-13.221-4.846c-0.161,2.044-0.313,4.124-0.443,6.255c4.055,3.116,8.546,4.904,13.29,4.904
	c5.04,0,9.787-2.016,14.037-5.512c-0.123-1.93-0.256-3.822-0.404-5.679C314.229,416.826,309.747,418.599,305.016,418.599z"/>
<path id="PRIMARY_45_" fill="#02007A" stroke="#231F20" stroke-width="3.1586" stroke-miterlimit="10" d="M336.617,369.165
	c-0.79,14.998-5.173,28.235-11.7,37.23c0.923,3.622,1.972,7.041,3.114,10.167c1.839-1.948,3.549-4.196,5.11-6.715
	c1.707-5.696,3.941-10.866,6.63-15.284c1.167-4.003,2.074-8.254,2.633-12.736C340.651,376.8,338.664,372.489,336.617,369.165z"/>
</svg>
