<?xml version="1.0" encoding="utf-8"?>
<!-- Generator: Adobe Illustrator 16.0.0, SVG Export Plug-In . SVG Version: 6.00 Build 0)  -->
<svg version="1.1" id="Layer_1" xmlns="http://www.w3.org/2000/svg" xmlns:xlink="http://www.w3.org/1999/xlink" x="0px" y="0px"
	 width="612px" height="792px" viewBox="0 0 612 792" enable-background="new 0 0 612 792" xml:space="preserve">
<rect x="264.5" y="357.651" fill-opacity="0" fill="#231F20" width="81" height="78.206"/>
<path id="SECONDARY_10_" fill="#7CD5FF" stroke="#231F20" stroke-miterlimit="10" d="M330.254,435.477
	c-0.617-1.525-2.131-3.334-4.786-5.391c10.632,5.939,13.948-2.405,6.85-10.822c9.212,6.204,14.515-0.627,8.85-10.791
	c7.466,8.76,2.654-3.853,3.044-6.318c0.436-2.403,0.32-5.046-0.258-7.75c-2.314-10.819-12.049-22.645-23.66-24.253
	c-16.054-2.226-33.512,26.351-40.933,65.404"/>
<path id="PRIMARY_12_" fill="#02007A" stroke="#231F20" stroke-miterlimit="10" d="M292.743,435.547
	c-0.533-0.922-2.527-4.264-4.255-5.799c7.06,0.287,8.941-7.135,3.5-11.199c7.352-0.348,13.171-4.757,4.016-10.115
	c10.456,3.221,15.122-1.238,4.441-8.873c11.206,6.832,14.663,2.813,4.782-7.477c10.169,9.928,12.865,5.977,5.033-5.925
	c8.176,11.561,9.443,7.542,5.194-4.218c5.054,11.252,5.616,7.379,5.272-2.355c1.816,9.351,2.867,7.24,5.259-0.337
	c-0.319,7.865,1.681,6.396,6.163,1.848c-1.922,5.736,2.313,3.607,5.576,3.496c-0.196,2.566,3.348,2.992,4.79,4.725
	c-0.926-2.331-2.155-4.634-3.634-6.8c-4.439-6.498-11.123-11.756-18.586-12.789c-16.111-2.233-33.635,26.549-41.012,65.811"/>
</svg>
