<?xml version="1.0" encoding="utf-8"?>
<!-- Generator: Adobe Illustrator 16.0.0, SVG Export Plug-In . SVG Version: 6.00 Build 0)  -->
<svg version="1.1" id="Layer_1" xmlns="http://www.w3.org/2000/svg" xmlns:xlink="http://www.w3.org/1999/xlink" x="0px" y="0px"
	 width="612px" height="792px" viewBox="0 0 612 792" enable-background="new 0 0 612 792" xml:space="preserve">
<rect x="192" y="263.058" fill="#231F20" fill-opacity="0" width="230" height="255.214"/>
<path id="SECONDARY_11_" fill="#7CD5FF" stroke="#231F20" stroke-width="2.8485" stroke-miterlimit="10" d="M244.488,263.638
	c-6.327,22.797-11.472,47.455-15.041,73.39c-17.36,126.094,79.894,213.75,93.095,165.307c0.894-3.287,1.492-7.3,1.922-11.949
	c0.422-4.657,0.674-9.951,0.882-15.817c0.202-5.873,2.424-12.702,0.582-19.248c2.396-6.814,7.448-15.583,1.043-22.235
	c7.715-7.026,11.491-16.174,2.24-24.788c11.735-5.229,12.989-17.088,4.188-26.898c12.467-4.849,20.617-17.319,6.883-28.563
	c17.852-1.817,32.638-17.273,10.329-29.792c26.648,3.023,42.046-9.124,14.508-30.579c29.308,16.477,39.016-5.514,21.122-28.821"/>
<path id="PRIMARY_13_" fill="#02007A" stroke="#231F20" stroke-width="2.8485" stroke-miterlimit="10" d="M244.32,263.058
	c-6.241,22.62-11.329,47.066-14.867,72.762c-5.699,41.385,0.951,78.625,12.923,108.271c2.992,7.411,6.379,14.332,9.866,20.756
	c4.138,6.184,7.432,13.428,11.206,17.592c5.722-9.365,2.342-16.286-8.215-19.913c6.546-8.043-1.278-15.625-6.375-22.135
	c1.948-7.959,1.048-16.841-4.051-24.121c3.544-8.07,2.596-17.768-1.244-25.869c4.338-8.356,12.474-19.772,2.052-27.375
	c13.985-9.431,35.98-25.355,6.272-36.872c31.653,3.544,24.338-20.265,8.23-34.655c18.138,0.741,24.18-16.534,13.729-28.437"/>
<ellipse fill="none" stroke="#231F20" stroke-width="2.8485" stroke-miterlimit="10" cx="304.87" cy="286.209" rx="7.099" ry="7.144"/>
<ellipse fill="none" stroke="#231F20" stroke-width="2.8485" stroke-miterlimit="10" cx="304.87" cy="496.636" rx="7.099" ry="7.144"/>
</svg>
