<?xml version="1.0" encoding="utf-8"?>
<!-- Generator: Adobe Illustrator 16.0.0, SVG Export Plug-In . SVG Version: 6.00 Build 0)  -->
<svg version="1.1" id="Layer_1" xmlns="http://www.w3.org/2000/svg" xmlns:xlink="http://www.w3.org/1999/xlink" x="0px" y="0px"
	 width="612px" height="792px" viewBox="0 0 612 792" enable-background="new 0 0 612 792" xml:space="preserve">
<rect x="177.191" y="272.488" fill="#231F20" fill-opacity="0" width="255.619" height="248.531"/>
<path id="SECONDARY_10_" fill="#7CD5FF" stroke="#231F20" stroke-width="3.1668" stroke-miterlimit="10" d="M384.695,519.81
	c-1.947-4.845-6.724-10.595-15.104-17.131c33.552,18.875,44.018-7.644,21.619-34.392c29.07,19.716,45.805-1.993,27.928-34.293
	c23.561,27.841,8.376-12.243,9.605-20.076c1.378-7.637,1.011-16.035-0.813-24.628c-7.304-34.382-38.023-71.963-74.666-77.075
	c-50.662-7.074-105.756,83.741-129.176,207.846"/>
<path id="PRIMARY_12_" fill="#02007A" stroke="#231F20" stroke-width="3.1668" stroke-miterlimit="10" d="M266.32,520.033
	c-1.683-2.93-7.976-13.55-13.429-18.429c22.28,0.913,28.217-22.673,11.045-35.59c23.201-1.104,41.566-15.116,12.674-32.145
	c32.997,10.238,47.722-3.933,14.015-28.197c35.365,21.711,46.275,8.94,15.091-23.76c32.092,31.549,40.598,18.992,15.882-18.829
	c25.801,36.738,29.801,23.968,16.393-13.405c15.948,35.757,17.724,23.45,16.636-7.484c5.731,29.717,9.048,23.009,16.599-1.07
	c-1.008,24.995,5.304,20.326,19.449,5.873c-6.068,18.228,7.298,11.462,17.594,11.108c-0.616,8.156,10.567,9.509,15.116,15.016
	c-2.921-7.408-6.798-14.726-11.467-21.609c-14.008-20.65-35.103-37.359-58.653-40.643c-50.843-7.096-106.145,84.371-129.424,209.14"
	/>
</svg>
