<?xml version="1.0" encoding="utf-8"?>
<!-- Generator: Adobe Illustrator 16.0.0, SVG Export Plug-In . SVG Version: 6.00 Build 0)  -->
<svg version="1.1" id="Layer_1" xmlns="http://www.w3.org/2000/svg" xmlns:xlink="http://www.w3.org/1999/xlink" x="0px" y="0px"
	 width="612px" height="792px" viewBox="0 0 612 792" enable-background="new 0 0 612 792" xml:space="preserve">
<rect x="236.5" y="268.917" fill="#231F20" fill-opacity="0" width="141" height="255.213"/>
<path id="SECONDARY_37_" fill="#FFFA00" stroke="#231F20" stroke-width="2.4743" stroke-miterlimit="10" d="M340.395,469.101
	c0,8.787-15.496,15.907-34.631,15.907l0,0c-19.117,0-34.629-7.12-34.629-15.907v-184.28c0-8.782,15.513-15.904,34.629-15.904l0,0
	c19.135,0,34.631,7.123,34.631,15.904V469.101z"/>
<path fill="none" stroke="#231F20" stroke-width="2.4743" stroke-miterlimit="10" d="M271.132,311.297
	c0,11.229,69.263,11.357,69.263,0"/>
<path fill="none" stroke="#231F20" stroke-width="2.4743" stroke-miterlimit="10" d="M271.132,294.584
	c0,11.231,69.263,11.359,69.263,0"/>
<path fill="none" stroke="#231F20" stroke-width="2.4743" stroke-miterlimit="10" d="M271.132,328.007
	c0,11.231,69.263,11.36,69.263,0"/>
<path fill="none" stroke="#231F20" stroke-width="2.4743" stroke-miterlimit="10" d="M271.132,344.717
	c0,11.231,69.263,11.361,69.263,0"/>
<path fill="none" stroke="#231F20" stroke-width="2.4743" stroke-miterlimit="10" d="M271.132,361.43
	c0,11.229,69.263,11.358,69.263,0"/>
<path fill="none" stroke="#231F20" stroke-width="2.4743" stroke-miterlimit="10" d="M271.132,378.14
	c0,11.23,69.263,11.359,69.263,0"/>
<path fill="none" stroke="#231F20" stroke-width="2.4743" stroke-miterlimit="10" d="M271.132,394.85
	c0,11.23,69.263,11.358,69.263,0"/>
<path fill="none" stroke="#231F20" stroke-width="2.4743" stroke-miterlimit="10" d="M271.132,411.562
	c0,11.229,69.263,11.359,69.263,0"/>
<path fill="none" stroke="#231F20" stroke-width="2.4743" stroke-miterlimit="10" d="M271.132,428.271
	c0,11.229,69.263,11.362,69.263,0"/>
<path fill="none" stroke="#231F20" stroke-width="2.4743" stroke-miterlimit="10" d="M271.132,444.982
	c0,11.23,69.263,11.361,69.263,0"/>
<path fill="none" stroke="#231F20" stroke-width="2.4743" stroke-miterlimit="10" d="M271.132,461.692
	c0,11.229,69.263,11.359,69.263,0"/>
<circle fill="none" stroke="#231F20" stroke-width="2.4743" stroke-miterlimit="10" cx="305.763" cy="292.605" r="6.187"/>
<circle fill="none" stroke="#231F20" stroke-width="2.4743" stroke-miterlimit="10" cx="299.579" cy="473.271" r="6.188"/>
</svg>
