<?xml version="1.0" encoding="utf-8"?>
<!-- Generator: Adobe Illustrator 16.0.0, SVG Export Plug-In . SVG Version: 6.00 Build 0)  -->
<svg version="1.1" id="Layer_1" xmlns="http://www.w3.org/2000/svg" xmlns:xlink="http://www.w3.org/1999/xlink" x="0px" y="0px"
	 width="612px" height="792px" viewBox="0 0 612 792" enable-background="new 0 0 612 792" xml:space="preserve">
<rect x="240.5" y="269.112" fill="#231F20" fill-opacity="0" width="133" height="254.895"/>
<path id="SECONDARY_36_" fill="#FFFA00" stroke="#231F20" stroke-width="2.338" stroke-miterlimit="10" d="M344.333,504.822
	c0,10.319-17.229,18.688-38.5,18.688l0,0c-21.25,0-38.498-8.366-38.498-18.688V288.291c0-10.316,17.249-18.686,38.498-18.686l0,0
	c21.271,0,38.5,8.367,38.5,18.686V504.822z"/>
<path fill="none" stroke="#231F20" stroke-width="2.338" stroke-miterlimit="10" d="M267.333,319.401c0,13.195,77,13.345,77,0"/>
<path fill="none" stroke="#231F20" stroke-width="2.338" stroke-miterlimit="10" d="M267.333,299.766c0,13.196,77,13.346,77,0"/>
<path fill="none" stroke="#231F20" stroke-width="2.338" stroke-miterlimit="10" d="M267.333,339.037c0,13.196,77,13.346,77,0"/>
<path fill="none" stroke="#231F20" stroke-width="2.338" stroke-miterlimit="10" d="M267.333,358.674c0,13.195,77,13.345,77,0"/>
<path fill="none" stroke="#231F20" stroke-width="2.338" stroke-miterlimit="10" d="M267.333,378.309c0,13.196,77,13.346,77,0"/>
<path fill="none" stroke="#231F20" stroke-width="2.338" stroke-miterlimit="10" d="M267.333,397.941c0,13.195,77,13.344,77,0"/>
<path fill="none" stroke="#231F20" stroke-width="2.338" stroke-miterlimit="10" d="M267.333,417.577c0,13.195,77,13.344,77,0"/>
<path fill="none" stroke="#231F20" stroke-width="2.338" stroke-miterlimit="10" d="M267.333,437.213c0,13.195,77,13.347,77,0"/>
<path fill="none" stroke="#231F20" stroke-width="2.338" stroke-miterlimit="10" d="M267.333,456.848c0,13.196,77,13.347,77,0"/>
<path fill="none" stroke="#231F20" stroke-width="2.338" stroke-miterlimit="10" d="M267.333,476.483c0,13.196,77,13.347,77,0"/>
<path fill="none" stroke="#231F20" stroke-width="2.338" stroke-miterlimit="10" d="M267.333,496.119c0,13.198,77,13.347,77,0"/>
<ellipse fill="none" stroke="#231F20" stroke-width="2.338" stroke-miterlimit="10" cx="307" cy="293.592" rx="5.833" ry="5.856"/>
</svg>
