<?xml version="1.0" encoding="utf-8"?>
<!-- Generator: Adobe Illustrator 16.0.0, SVG Export Plug-In . SVG Version: 6.00 Build 0)  -->
<svg version="1.1" id="Layer_1" xmlns="http://www.w3.org/2000/svg" xmlns:xlink="http://www.w3.org/1999/xlink" x="0px" y="0px"
	 width="612px" height="792px" viewBox="0 0 612 792" enable-background="new 0 0 612 792" xml:space="preserve">
<rect x="278.5" y="344.963" fill-opacity="0" fill="#231F20" width="57" height="103.121"/>
<path id="SECONDARY_37_" fill="#FFFA00" stroke="#231F20" stroke-miterlimit="10" d="M320.5,425.849c0,3.55-6.265,6.427-14,6.427
	l0,0c-7.728,0-13.999-2.877-13.999-6.427v-74.46c0-3.548,6.271-6.426,13.999-6.426l0,0c7.735,0,14,2.878,14,6.426V425.849z"/>
<path fill="none" stroke="#231F20" stroke-miterlimit="10" d="M292.5,362.087c0,4.537,28,4.589,28,0"/>
<path fill="none" stroke="#231F20" stroke-miterlimit="10" d="M292.5,355.334c0,4.538,28,4.59,28,0"/>
<path fill="none" stroke="#231F20" stroke-miterlimit="10" d="M292.5,368.839c0,4.538,28,4.59,28,0"/>
<path fill="none" stroke="#231F20" stroke-miterlimit="10" d="M292.5,375.591c0,4.538,28,4.59,28,0"/>
<path fill="none" stroke="#231F20" stroke-miterlimit="10" d="M292.5,382.344c0,4.537,28,4.589,28,0"/>
<path fill="none" stroke="#231F20" stroke-miterlimit="10" d="M292.5,389.095c0,4.538,28,4.59,28,0"/>
<path fill="none" stroke="#231F20" stroke-miterlimit="10" d="M292.5,395.847c0,4.538,28,4.59,28,0"/>
<path fill="none" stroke="#231F20" stroke-miterlimit="10" d="M292.5,402.6c0,4.537,28,4.589,28,0"/>
<path fill="none" stroke="#231F20" stroke-miterlimit="10" d="M292.5,409.352c0,4.537,28,4.59,28,0"/>
<path fill="none" stroke="#231F20" stroke-miterlimit="10" d="M292.5,416.104c0,4.538,28,4.59,28,0"/>
<path fill="none" stroke="#231F20" stroke-miterlimit="10" d="M292.5,422.855c0,4.538,28,4.59,28,0"/>
<circle fill="none" stroke="#231F20" stroke-miterlimit="10" cx="306.5" cy="354.534" r="2.5"/>
<circle fill="none" stroke="#231F20" stroke-miterlimit="10" cx="304" cy="427.534" r="2.5"/>
</svg>
