<?xml version="1.0" encoding="utf-8"?>
<!-- Generator: Adobe Illustrator 16.0.0, SVG Export Plug-In . SVG Version: 6.00 Build 0)  -->
<svg version="1.1" id="Layer_1" xmlns="http://www.w3.org/2000/svg" xmlns:xlink="http://www.w3.org/1999/xlink" x="0px" y="0px"
	 width="612px" height="792px" viewBox="0 0 612 792" enable-background="new 0 0 612 792" xml:space="preserve">
<rect x="178.022" y="332.393" fill="#231F20" fill-opacity="0" width="255.118" height="128.427"/>
<path id="PRIMARY_15_" fill="#894000" stroke="#231F20" stroke-width="3.6574" stroke-miterlimit="10" d="M414.567,458.985
	c0,0-30.589,0-56.777,0H244.931c-26.19,0-47.418-21.983-47.418-49.105l0,0c0-27.119,21.233-38.094,47.418-38.094h100.747
	c24.01,19.841,23.099,31.157,28.603,33.296C431.137,427.184,432.411,451.693,414.567,458.985L414.567,458.985z"/>
<path fill="none" stroke="#231F20" stroke-width="3.6574" stroke-miterlimit="10" d="M403.449,460.737
	c0-16.899-21.863-30.58-48.867-30.58"/>
<path fill="none" stroke="#231F20" stroke-width="3.6574" stroke-miterlimit="10" d="M418.786,457.168
	c0-19.751-21.956-35.725-49.099-35.725"/>
<polygon fill="#FFFFFF" stroke="#231F20" stroke-width="3.6574" stroke-miterlimit="10" points="432.411,449.371 418.451,456.803 
	418.526,449.59 418.604,442.247 "/>
<polygon fill="#FFFFFF" stroke="#231F20" stroke-width="3.6574" stroke-miterlimit="10" points="421.453,451.112 406.906,458.853 
	406.987,451.338 407.066,443.688 "/>
<polygon fill="#FFFFFF" stroke="#231F20" stroke-width="3.6574" stroke-miterlimit="10" points="407.439,451.844 395.592,457.942 
	395.517,451.75 395.435,445.443 "/>
</svg>
