<?xml version="1.0" encoding="utf-8"?>
<!-- Generator: Adobe Illustrator 16.0.0, SVG Export Plug-In . SVG Version: 6.00 Build 0)  -->
<svg version="1.1" id="Layer_1" xmlns="http://www.w3.org/2000/svg" xmlns:xlink="http://www.w3.org/1999/xlink" x="0px" y="0px"
	 width="612px" height="792px" viewBox="0 0 612 792" enable-background="new 0 0 612 792" xml:space="preserve">
<rect x="278.5" y="342.156" fill-opacity="0" fill="#231F20" width="57" height="108.807"/>
<path id="SECONDARY_36_" fill="#FFFA00" stroke="#231F20" stroke-miterlimit="10" d="M323,442.773c0,4.406-7.384,7.978-16.5,7.978
	l0,0c-9.107,0-16.499-3.571-16.499-7.978v-92.43c0-4.404,7.392-7.977,16.499-7.977l0,0c9.116,0,16.5,3.572,16.5,7.977V442.773z"/>
<path fill="none" stroke="#231F20" stroke-miterlimit="10" d="M290,363.623c0,5.633,33,5.697,33,0"/>
<path fill="none" stroke="#231F20" stroke-miterlimit="10" d="M290,355.241c0,5.633,33,5.697,33,0"/>
<path fill="none" stroke="#231F20" stroke-miterlimit="10" d="M290,372.005c0,5.633,33,5.697,33,0"/>
<path fill="none" stroke="#231F20" stroke-miterlimit="10" d="M290,380.387c0,5.633,33,5.697,33,0"/>
<path fill="none" stroke="#231F20" stroke-miterlimit="10" d="M290,388.769c0,5.633,33,5.697,33,0"/>
<path fill="none" stroke="#231F20" stroke-miterlimit="10" d="M290,397.149c0,5.633,33,5.697,33,0"/>
<path fill="none" stroke="#231F20" stroke-miterlimit="10" d="M290,405.531c0,5.633,33,5.697,33,0"/>
<path fill="none" stroke="#231F20" stroke-miterlimit="10" d="M290,413.913c0,5.633,33,5.697,33,0"/>
<path fill="none" stroke="#231F20" stroke-miterlimit="10" d="M290,422.295c0,5.633,33,5.697,33,0"/>
<path fill="none" stroke="#231F20" stroke-miterlimit="10" d="M290,430.677c0,5.633,33,5.697,33,0"/>
<path fill="none" stroke="#231F20" stroke-miterlimit="10" d="M290,439.059c0,5.633,33,5.697,33,0"/>
<circle fill="none" stroke="#231F20" stroke-miterlimit="10" cx="307" cy="352.606" r="2.5"/>
</svg>
