<?xml version="1.0" encoding="utf-8"?>
<!-- Generator: Adobe Illustrator 16.0.0, SVG Export Plug-In . SVG Version: 6.00 Build 0)  -->
<svg version="1.1" id="Layer_1" xmlns="http://www.w3.org/2000/svg" xmlns:xlink="http://www.w3.org/1999/xlink" x="0px" y="0px"
	 width="612px" height="792px" viewBox="0 0 612 792" enable-background="new 0 0 612 792" xml:space="preserve">
<rect x="192" y="268.945" fill-opacity="0" fill="#231F20" width="230" height="255.438"/>
<path id="PRIMARY_4_" fill="#00BC03" stroke="#231F20" stroke-width="2.8498" stroke-miterlimit="10" d="M250.687,463.794
	c0,31.868,26.166,57.703,58.443,57.703l0,0c32.277,0,58.445-25.835,58.445-57.703V327.449c0-31.868-26.168-57.704-58.445-57.704l0,0
	c-32.277,0-58.443,25.835-58.443,57.704V463.794z"/>
<ellipse fill="none" stroke="#231F20" stroke-width="2.8498" stroke-miterlimit="10" cx="309.13" cy="292.118" rx="7.099" ry="7.15"/>
<ellipse fill="none" stroke="#231F20" stroke-width="2.8498" stroke-miterlimit="10" cx="309.13" cy="502.731" rx="7.099" ry="7.149"/>
<path fill="none" stroke="#231F20" stroke-width="2.8498" stroke-miterlimit="10" d="M272.493,508.739
	c0-129.032-2.019-229.421,4.398-229.421"/>
<path fill="none" stroke="#231F20" stroke-width="2.8498" stroke-miterlimit="10" d="M297.669,520.38
	c0-138.533-1.972-250.196,4.362-250.196"/>
<path fill="none" stroke="#231F20" stroke-width="2.8498" stroke-miterlimit="10" d="M324.55,519.456
	c0-134.956,2.146-246.352,4.257-246.352"/>
<path fill="none" stroke="#231F20" stroke-width="2.8498" stroke-miterlimit="10" d="M351.013,504.019
	c0-121.71-1.637-220.198-3.655-220.198"/>
<polygon id="SECONDARY_65_" fill="#005601" points="260.339,466.847 268.7,462.222 241.004,432.783 250.856,472.104 "/>
<polygon id="SECONDARY_66_" fill="#005601" points="266.737,349.525 275.006,344.741 246.766,315.833 257.35,354.956 "/>
<polygon id="SECONDARY_67_" fill="#005601" points="264.091,422.365 273.503,420.801 257.106,383.762 253.41,424.142 "/>
<polygon id="SECONDARY_68_" fill="#005601" points="360.998,352.25 369.702,356.177 376.315,316.172 351.118,347.798 "/>
<polygon id="SECONDARY_69_" fill="#005601" points="349.177,419.231 356.354,425.561 374.339,389.278 341.032,412.054 "/>
<polygon id="SECONDARY_70_" fill="#005601" points="342.846,485.146 351.584,489.001 357.87,448.943 332.933,480.778 "/>
<polygon id="SECONDARY_71_" fill="#005601" points="286.583,469.802 296.113,470.143 287.312,430.568 275.766,469.416 "/>
<polygon id="SECONDARY_72_" fill="#005601" points="320.734,446.341 330.007,444.089 310.974,408.355 310.214,448.896 "/>
<polygon id="SECONDARY_73_" fill="#005601" points="289.018,396.929 298.185,399.58 299.136,359.038 278.616,393.923 "/>
<polygon id="SECONDARY_74_" fill="#005601" points="318.657,369.587 328.191,369.928 319.387,330.355 307.843,369.202 "/>
</svg>
