<?xml version="1.0" encoding="utf-8"?>
<!-- Generator: Adobe Illustrator 16.0.0, SVG Export Plug-In . SVG Version: 6.00 Build 0)  -->
<svg version="1.1" id="Layer_1" xmlns="http://www.w3.org/2000/svg" xmlns:xlink="http://www.w3.org/1999/xlink" x="0px" y="0px"
	 width="612px" height="792px" viewBox="0 0 612 792" enable-background="new 0 0 612 792" xml:space="preserve">
<rect x="179" y="310.562" fill-opacity="0" fill="#231F20" width="256" height="171.423"/>
<path id="PRIMARY_5_" fill="#00BC03" stroke="#231F20" stroke-width="3.1533" stroke-miterlimit="10" d="M262.333,388.717
	c0,24.591,21.062,44.528,47.037,44.528l0,0c25.976,0,47.034-19.937,47.034-44.528v-33.704c0-24.591-21.059-44.528-47.034-44.528l0,0
	c-25.975,0-47.037,19.937-47.037,44.528V388.717z"/>
<path fill="none" stroke="#231F20" stroke-width="3.1533" stroke-miterlimit="10" d="M276.5,417.527
	c0-59.54,4.617-100.75,10.327-100.75"/>
<path fill="none" stroke="#231F20" stroke-width="3.1533" stroke-miterlimit="10" d="M309.37,433.168c0-71.346,0-122.683,0-122.683"
	/>
<path fill="none" stroke="#231F20" stroke-width="3.1533" stroke-miterlimit="10" d="M342.231,419.834
	c0-63.346-1.654-100.816-5.179-100.816"/>
</svg>
