<?xml version="1.0" encoding="utf-8"?>
<!-- Generator: Adobe Illustrator 16.0.0, SVG Export Plug-In . SVG Version: 6.00 Build 0)  -->
<svg version="1.1" id="Layer_1" xmlns="http://www.w3.org/2000/svg" xmlns:xlink="http://www.w3.org/1999/xlink" x="0px" y="0px"
	 width="612px" height="792px" viewBox="0 0 612 792" enable-background="new 0 0 612 792" xml:space="preserve">
<rect x="265.5" y="370.004" fill-opacity="0" fill="#231F20" width="81" height="54.487"/>
<path id="SECONDARY_2_" fill="#005601" d="M321.517,396.536l2.042,1.687c-0.437,4.305-2.899,8.046-6.473,10.349l-1.039-2.685
	C319.013,403.626,321.043,400.311,321.517,396.536z"/>
<path id="SECONDARY_1_" fill="#005601" d="M306.75,408.999c2.121,0,4.135-0.429,5.961-1.189l0.415,1.811
	c-1.936,0.875-4.091,1.379-6.376,1.379c-2.153,0-4.193-0.444-6.041-1.227l0.525-1.789C302.941,408.632,304.8,408.999,306.75,408.999
	z"/>
<path id="SECONDARY" fill="#005601" d="M292.224,397.898c0.876,3.783,3.344,6.988,6.7,8.969l-0.822,2.627
	c-3.982-1.896-6.948-5.432-7.902-9.686L292.224,397.898z"/>
</svg>
