<?xml version="1.0" encoding="utf-8"?>
<!-- Generator: Adobe Illustrator 16.0.0, SVG Export Plug-In . SVG Version: 6.00 Build 0)  -->
<svg version="1.1" id="Layer_1" xmlns="http://www.w3.org/2000/svg" xmlns:xlink="http://www.w3.org/1999/xlink" x="0px" y="0px"
	 width="612px" height="792px" viewBox="0 0 612 792" enable-background="new 0 0 612 792" xml:space="preserve">
<rect x="179" y="310.756" fill-opacity="0" fill="#231F20" width="256" height="171.035"/>
<path id="PRIMARY_5_" fill="#00BC03" stroke="#231F20" stroke-width="3.1497" stroke-miterlimit="10" d="M262.333,388.734
	c0,24.535,21.062,44.427,47.037,44.427l0,0c25.976,0,47.034-19.892,47.034-44.427v-33.628c0-24.535-21.059-44.427-47.034-44.427l0,0
	c-25.975,0-47.037,19.892-47.037,44.427V388.734z"/>
<path fill="none" stroke="#231F20" stroke-width="3.1497" stroke-miterlimit="10" d="M276.5,417.479
	c0-59.404,4.617-100.521,10.327-100.521"/>
<path fill="none" stroke="#231F20" stroke-width="3.1497" stroke-miterlimit="10" d="M309.37,433.085c0-71.186,0-122.405,0-122.405"
	/>
<path fill="none" stroke="#231F20" stroke-width="3.1497" stroke-miterlimit="10" d="M342.231,419.781
	c0-63.203-1.654-100.589-5.179-100.589"/>
<polygon id="SECONDARY_75_" fill="#005601" points="295.021,356.271 305.417,354.12 285.479,314.262 283.229,358.706 "/>
<polygon id="SECONDARY_76_" fill="#005601" points="324.777,370.397 334.24,375.173 343.766,331.679 314.037,364.98 "/>
<polygon id="SECONDARY_80_" fill="#005601" points="309.16,406.611 319.194,403.169 294.321,366.146 297.775,410.523 "/>
</svg>
