<?xml version="1.0" encoding="utf-8"?>
<!-- Generator: Adobe Illustrator 16.0.0, SVG Export Plug-In . SVG Version: 6.00 Build 0)  -->
<svg version="1.1" id="Layer_1" xmlns="http://www.w3.org/2000/svg" xmlns:xlink="http://www.w3.org/1999/xlink" x="0px" y="0px"
	 width="612px" height="792px" viewBox="0 0 612 792" enable-background="new 0 0 612 792" xml:space="preserve">
<rect x="178" y="311.248" fill-opacity="0" fill="#231F20" width="256" height="172"/>
<path id="SECONDARY_2_" fill="#005601" d="M355.04,395l6.454,5.326c-1.38,13.588-9.164,25.398-20.457,32.667l-3.284-8.475
	C347.127,417.383,353.543,406.916,355.04,395z"/>
<path id="SECONDARY_1_" fill="#005601" d="M308.37,434.344c6.704,0,13.068-1.354,18.84-3.755l1.312,5.715
	c-6.117,2.763-12.929,4.353-20.151,4.353c-6.805,0-13.253-1.402-19.092-3.871l1.661-5.647
	C296.333,433.185,302.207,434.344,308.37,434.344z"/>
<path id="SECONDARY" fill="#005601" d="M262.46,399.303c2.769,11.941,10.568,22.06,21.176,28.312l-2.599,8.292
	c-12.586-5.986-21.96-17.146-24.976-30.574L262.46,399.303z"/>
</svg>
