<?xml version="1.0" encoding="utf-8"?>
<!-- Generator: Adobe Illustrator 16.0.0, SVG Export Plug-In . SVG Version: 6.00 Build 0)  -->
<svg version="1.1" id="Layer_1" xmlns="http://www.w3.org/2000/svg" xmlns:xlink="http://www.w3.org/1999/xlink" x="0px" y="0px"
	 width="612px" height="792px" viewBox="0 0 612 792" enable-background="new 0 0 612 792" xml:space="preserve">
<rect x="240.5" y="269.06" fill-opacity="0" fill="#231F20" width="133" height="255"/>
<path id="PRIMARY_13_" fill="#FFFA00" stroke="#231F20" stroke-width="2.3385" stroke-miterlimit="10" d="M354.542,476.309
	c0,26.372-21.285,47.751-47.542,47.751l0,0c-26.257,0-47.542-21.379-47.542-47.751V316.811c0-26.373,21.285-47.751,47.542-47.751
	l0,0c26.257,0,47.542,21.378,47.542,47.751V476.309z"/>
<path id="SECONDARY_11_" fill="#C802FF" stroke="#231F20" stroke-width="2.3385" stroke-miterlimit="10" d="M301.145,451.732
	c-1.456,4.434-3.1,20.187-9.665,17.559c-4.925-5.252,0.001-15.75,1.644-21c-0.818,1.309-2.048,3.277-3.488,4.593
	c-3.076,3.282-9.644-1.973-8.003-9.851c1.105-1.76,8.388-5.243,4.927-5.243c-3.284,2.625-7.761,2.758-7.761-2.494
	c-1.642-5.246,2.839-10.632,4.479-15.884c-1.641,2.625-1.639,5.252-3.282,5.252c-8.211-2.632-4.922-21.003,1.645-23.626
	c-1.643-2.625-4.924-2.625-6.359-6.238c-0.511-1.477-0.766-3.202-0.789-5.209c-0.025-2.012,0.182-4.31,0.597-6.938
	c0.809-6.555,2.042-6.557,3.477-4.916c1.436,1.644,3.076,4.923,4.717,4.923c-1.641-5.245-3.66-7.573-5.297-12.821
	c-2.278-4.447-1.539-5.912-0.514-6.894c1.028-0.984,2.256-1.154,3.899-1.154c1.641,0.005,3.898,2.14,5.541,4.763
	c-4.192-4.9-5.267-7.514-6.596-13.767c-0.173-2.085-0.127-4.131,0.178-5.939c0.608-3.616,2.25-6.271,5.26-6.313
	c1.436,0.042,2.871,0.948,4.105,2.422c2.457,2.952,4.102,8.205,3.279,13.455c0-7.875,0.002-13.121,1.485-20.097
	c0.743-1.975,1.659-3.382,2.62-4.266c4.838-4.424,11.015,4.175,3.918,19.456c11.357-24.45,30.353-7.42,8.018,3.937
	c22.335-11.356,25.105-8.047,6.539,10.746c18.566-18.792,27.152,10.395,4.412,15.927c22.74-5.532,26.746,11.075,1.617,19.501
	c25.129-8.427,22.695,8.777-1.622,19.505c24.317-10.728,20.152,24.285-4.416,15.934c24.568,8.352,15.153,31.579-6.544,10.74
	c13.558,13.022,5.751,23.466-1.208,21.861c-1.391-0.315-2.749-1.121-3.897-2.479c-1.144-1.361-2.078-3.279-2.621-5.833
	C300.892,458.793,300.737,455.619,301.145,451.732z"/>
<ellipse fill="none" stroke="#231F20" stroke-width="2.3385" stroke-miterlimit="10" cx="307" cy="293.551" rx="5.833" ry="5.859"/>
</svg>
