<?xml version="1.0" encoding="utf-8"?>
<!-- Generator: Adobe Illustrator 16.0.0, SVG Export Plug-In . SVG Version: 6.00 Build 0)  -->
<svg version="1.1" id="Layer_1" xmlns="http://www.w3.org/2000/svg" xmlns:xlink="http://www.w3.org/1999/xlink" x="0px" y="0px"
	 width="612px" height="792px" viewBox="0 0 612 792" enable-background="new 0 0 612 792" xml:space="preserve">
<rect x="178.581" y="332.737" fill-opacity="0" fill="#231F20" width="256" height="127.739"/>
<path id="PRIMARY_15_" fill="#FFFA00" stroke="#231F20" stroke-width="3.654" stroke-miterlimit="10" d="M376.417,460.394
	c0,0-33.071-0.271-70.847-0.271h-33.246c-37.776,0-69.096,0.271-69.096,0.271l0.695-62.761c0-34.512,30.625-62.494,68.401-62.494
	h33.246c37.775,0,68.402,27.982,68.402,62.494L376.417,460.394z"/>
<path id="SECONDARY_14_" fill="#C802FF" stroke="#231F20" stroke-width="3.654" stroke-miterlimit="10" d="M374.412,460.476
	c0,0-5.723-0.121-12.257-0.121h-5.752c-6.534,0-11.957,0.121-11.957,0.121l0.121-28.113c0-15.462,5.302-27.997,11.836-27.997h5.752
	c6.534,0,11.836,12.535,11.836,27.997L374.412,460.476z"/>
<path id="SECONDARY_13_" fill="#C802FF" stroke="#231F20" stroke-width="3.654" stroke-miterlimit="10" d="M332.539,460.476
	c0,0-5.724-0.121-12.258-0.121h-5.751c-6.534,0-11.958,0.121-11.958,0.121l0.122-28.113c0-15.462,5.302-27.997,11.836-27.997h5.751
	c6.534,0,11.836,12.535,11.836,27.997L332.539,460.476z"/>
<path id="SECONDARY_12_" fill="#C802FF" stroke="#231F20" stroke-width="3.654" stroke-miterlimit="10" d="M289.822,460.476
	c0,0-5.723-0.121-12.257-0.121h-5.751c-6.534,0-11.958,0.121-11.958,0.121l0.122-28.113c0-15.462,5.302-27.997,11.836-27.997h5.751
	c6.534,0,11.836,12.535,11.836,27.997L289.822,460.476z"/>
</svg>
