<?xml version="1.0" encoding="utf-8"?>
<!-- Generator: Adobe Illustrator 16.0.0, SVG Export Plug-In . SVG Version: 6.00 Build 0)  -->
<svg version="1.1" id="Layer_1" xmlns="http://www.w3.org/2000/svg" xmlns:xlink="http://www.w3.org/1999/xlink" x="0px" y="0px"
	 width="612px" height="792px" viewBox="0 0 612 792" enable-background="new 0 0 612 792" xml:space="preserve">
<rect x="278.5" y="342.156" fill-opacity="0" fill="#231F20" width="57" height="108.807"/>
<path class="primary_color" id="PRIMARY_13_" fill="#FFFA00" stroke="#231F20" stroke-miterlimit="10" d="M327.375,430.588
	c0,11.253-9.122,20.375-20.375,20.375l0,0c-11.253,0-20.375-9.122-20.375-20.375v-68.057c0-11.253,9.122-20.375,20.375-20.375l0,0
	c11.253,0,20.375,9.122,20.375,20.375V430.588z"/>
<path class="secondary_color" id="SECONDARY_11_" fill="#C802FF" stroke="#231F20" stroke-miterlimit="10" d="M304.491,420.102
	c-0.624,1.892-1.329,8.613-4.142,7.492c-2.111-2.241,0-6.721,0.705-8.961c-0.351,0.559-0.878,1.398-1.495,1.96
	c-1.318,1.4-4.133-0.842-3.43-4.203c0.474-0.751,3.595-2.237,2.111-2.237c-1.407,1.12-3.326,1.177-3.326-1.064
	c-0.704-2.238,1.217-4.536,1.919-6.777c-0.703,1.12-0.703,2.241-1.407,2.241c-3.519-1.123-2.109-8.962,0.705-10.081
	c-0.704-1.12-2.11-1.12-2.726-2.662c-0.219-0.63-0.328-1.366-0.338-2.223c-0.011-0.858,0.078-1.839,0.256-2.96
	c0.347-2.797,0.875-2.798,1.49-2.098c0.615,0.701,1.318,2.101,2.021,2.101c-0.703-2.238-1.568-3.231-2.27-5.471
	c-0.977-1.897-0.66-2.522-0.22-2.941c0.44-0.42,0.967-0.492,1.671-0.492c0.703,0.002,1.671,0.913,2.375,2.032
	c-1.796-2.091-2.257-3.206-2.827-5.874c-0.074-0.89-0.055-1.763,0.076-2.534c0.261-1.543,0.964-2.676,2.254-2.693
	c0.615,0.018,1.23,0.404,1.759,1.033c1.053,1.26,1.758,3.501,1.405,5.741c0-3.36,0.001-5.599,0.636-8.575
	c0.318-0.843,0.711-1.443,1.123-1.82c2.073-1.888,4.721,1.781,1.679,8.302c4.868-10.433,13.008-3.166,3.436,1.68
	c9.572-4.846,10.76-3.434,2.803,4.585c7.957-8.019,11.637,4.436,1.891,6.796c9.746-2.36,11.463,4.726,0.693,8.321
	c10.77-3.596,9.727,3.745-0.695,8.322c10.422-4.577,8.637,10.362-1.893,6.799c10.529,3.563,6.494,13.475-2.805,4.583
	c5.811,5.557,2.465,10.013-0.518,9.328c-0.596-0.135-1.178-0.479-1.67-1.058c-0.49-0.581-0.891-1.399-1.123-2.489
	C304.382,423.114,304.316,421.76,304.491,420.102z"/>
<circle fill="none" stroke="#231F20" stroke-miterlimit="10" cx="307" cy="352.606" r="2.5"/>
</svg>
