<?xml version="1.0" encoding="utf-8"?>
<!-- Generator: Adobe Illustrator 16.0.0, SVG Export Plug-In . SVG Version: 6.00 Build 0)  -->
<svg version="1.1" id="Layer_1" xmlns="http://www.w3.org/2000/svg" xmlns:xlink="http://www.w3.org/1999/xlink" x="0px" y="0px"
	 width="612px" height="792px" viewBox="0 0 612 792" enable-background="new 0 0 612 792" xml:space="preserve">
<rect x="271.592" y="379.106" fill-opacity="0" fill="#231F20" width="69.979" height="35"/>
<path class="primary_color" id="PRIMARY_15_" fill="#FFFA00" stroke="#231F20" stroke-miterlimit="10" d="M325.671,414.084c0,0-9.04-0.074-19.366-0.074
	h-9.088c-10.326,0-18.888,0.074-18.888,0.074l0.19-17.196c0-9.456,8.372-17.123,18.698-17.123h9.088
	c10.326,0,18.698,7.667,18.698,17.123L325.671,414.084z"/>
<path class="secondary_color" id="SECONDARY_14_" fill="#C802FF" stroke="#231F20" stroke-miterlimit="10" d="M325.123,414.106c0,0-1.564-0.033-3.351-0.033
	H320.2c-1.786,0-3.269,0.033-3.269,0.033l0.033-7.703c0-4.236,1.449-7.671,3.235-7.671h1.572c1.786,0,3.235,3.435,3.235,7.671
	L325.123,414.106z"/>
<path class="secondary_color" id="SECONDARY_13_" fill="#C802FF" stroke="#231F20" stroke-miterlimit="10" d="M313.677,414.106c0,0-1.564-0.033-3.351-0.033
	h-1.572c-1.786,0-3.269,0.033-3.269,0.033l0.033-7.703c0-4.236,1.449-7.671,3.235-7.671h1.572c1.786,0,3.235,3.435,3.235,7.671
	L313.677,414.106z"/>
<path class="secondary_color" id="SECONDARY_12_" fill="#C802FF" stroke="#231F20" stroke-miterlimit="10" d="M302,414.106c0,0-1.564-0.033-3.351-0.033
	h-1.572c-1.786,0-3.269,0.033-3.269,0.033l0.033-7.703c0-4.236,1.449-7.671,3.235-7.671h1.572c1.786,0,3.235,3.435,3.235,7.671
	L302,414.106z"/>
</svg>
