<?xml version="1.0" encoding="utf-8"?>
<!-- Generator: Adobe Illustrator 16.0.0, SVG Export Plug-In . SVG Version: 6.00 Build 0)  -->
<svg version="1.1" id="Layer_1" xmlns="http://www.w3.org/2000/svg" xmlns:xlink="http://www.w3.org/1999/xlink" x="0px" y="0px"
	 width="612px" height="792px" viewBox="0 0 612 792" enable-background="new 0 0 612 792" xml:space="preserve">
<rect id="head_frame_1_" x="178" y="286" fill="#231F20" fill-opacity="0" width="256" height="222"/>
<path fill="#FFFFFF" stroke="#231F20" stroke-width="1.695" stroke-miterlimit="10" d="M360.738,451.318
	c0,1.479-1.2,2.68-2.681,2.68l0,0c-1.479,0-2.68-1.2-2.68-2.68v-2.565c0-1.479,1.2-2.679,2.68-2.679l0,0
	c1.48,0,2.681,1.199,2.681,2.679V451.318z"/>
<path fill="#FFFFFF" stroke="#231F20" stroke-width="1.695" stroke-miterlimit="10" d="M344.981,450.88c0,1.479-1.2,2.68-2.68,2.68
	l0,0c-1.48,0-2.681-1.2-2.681-2.68v-2.565c0-1.479,1.2-2.679,2.681-2.679l0,0c1.479,0,2.68,1.199,2.68,2.679V450.88z"/>
<path fill="#FFFFFF" stroke="#231F20" stroke-width="1.695" stroke-miterlimit="10" d="M329.353,451.318
	c0,1.479-1.2,2.68-2.681,2.68l0,0c-1.479,0-2.68-1.2-2.68-2.68v-2.565c0-1.479,1.2-2.679,2.68-2.679l0,0
	c1.48,0,2.681,1.199,2.681,2.679V451.318z"/>
<path fill="#FFFFFF" stroke="#231F20" stroke-width="1.695" stroke-miterlimit="10" d="M337.003,457.956c0,1.479-1.2,2.68-2.68,2.68
	l0,0c-1.48,0-2.681-1.2-2.681-2.68v-2.564c0-1.479,1.2-2.68,2.681-2.68l0,0c1.479,0,2.68,1.2,2.68,2.68V457.956z"/>
<path fill="#FFFFFF" stroke="#231F20" stroke-width="1.695" stroke-miterlimit="10" d="M353.674,457.956
	c0,1.479-1.2,2.68-2.681,2.68l0,0c-1.479,0-2.681-1.2-2.681-2.68v-2.564c0-1.479,1.201-2.68,2.681-2.68l0,0
	c1.48,0,2.681,1.2,2.681,2.68V457.956z"/>
<path id="SECONDARY" fill="#8C8900" stroke="#231F20" stroke-width="1.695" stroke-miterlimit="10" d="M357.874,455.689
	c-14.729,0-42.996-0.588-42.996-1.495c0-2.33,23.864-3.485,38.594-3.485c2.967,0,5.812,0.226,8.477,0.624l-1.271-9.532v-58.358
	c0-28.077-22.771-50.84-50.86-50.84h-11.02c-28.088,0-50.861,22.763-50.861,50.84v62.702c0,28.078,22.772,41.52,50.861,41.52h11.02
	c18.389,0,34.496-5.763,43.429-17.62c0.909-1.206,7.419-13.139,8.172-14.473C360.255,455.641,359.078,455.689,357.874,455.689z"/>
<rect id="PRIMARY_18_" x="267.854" y="332.603" fill="#F1F1F1" stroke="#231F20" stroke-width="1.695" stroke-miterlimit="10" width="68.855" height="7.695"/>
<rect id="PRIMARY_17_" x="256.67" y="340.604" transform="matrix(-0.9969 0.0786 -0.0786 -0.9969 631.3159 663.1485)" fill="#F1F1F1" stroke="#231F20" stroke-width="1.695" stroke-miterlimit="10" width="91.884" height="6.779"/>
<rect id="PRIMARY_16_" x="250.265" y="355.481" fill="#F1F1F1" stroke="#231F20" stroke-width="1.695" stroke-miterlimit="10" width="106.727" height="6.779"/>
<rect id="PRIMARY_15_" x="255.298" y="349.402" fill="#F1F1F1" stroke="#231F20" stroke-width="1.695" stroke-miterlimit="10" width="99.606" height="5.272"/>
<rect id="PRIMARY_14_" x="246.748" y="408.024" transform="matrix(-0.9958 -0.092 0.092 -0.9958 571.5885 851.7049)" fill="#F1F1F1" stroke="#231F20" stroke-width="1.695" stroke-miterlimit="10" width="117.337" height="9.321"/>
<rect id="PRIMARY_13_" x="244.575" y="374.97" fill="#F1F1F1" stroke="#231F20" stroke-width="1.695" stroke-miterlimit="10" width="118.349" height="10.167"/>
<rect id="PRIMARY_12_" x="242.831" y="385.137" fill="#F1F1F1" stroke="#231F20" stroke-width="1.695" stroke-miterlimit="10" width="121.695" height="4.947"/>
<polygon id="PRIMARY_11_" fill="#F1F1F1" stroke="#231F20" stroke-width="1.695" stroke-miterlimit="10" points="249.546,368.875 
	362.896,375.329 362.457,368.354 249.102,361.9 "/>
<polygon id="PRIMARY_10_" fill="#F1F1F1" stroke="#231F20" stroke-width="1.695" stroke-miterlimit="10" points="357.521,366.635 
	244.514,378.498 244.119,371.416 357.128,359.553 "/>
<rect id="PRIMARY_9_" x="244.904" y="377.687" transform="matrix(-0.9786 0.2058 -0.2058 -0.9786 681.9327 699.2249)" fill="#F1F1F1" stroke="#231F20" stroke-width="1.695" stroke-miterlimit="10" width="119.393" height="14.784"/>
<path stroke="#231F20" stroke-width="1.695" stroke-miterlimit="10" d="M331.841,397.225c0,6.129-1.089,11.307-8.483,11.307
	c-6.369,0-8.481-6.216-8.481-11.307c0-3.684,3.795-6.673,8.481-6.673C328.043,390.552,331.841,393.541,331.841,397.225z"/>
<path stroke="#231F20" stroke-width="1.695" stroke-miterlimit="10" d="M358.752,397.225c0,6.129-1.088,11.307-8.482,11.307
	c-6.369,0-8.483-6.216-8.483-11.307c0-3.684,3.797-6.673,8.483-6.673C354.955,390.552,358.752,393.541,358.752,397.225z"/>
<rect id="PRIMARY_8_" x="244.958" y="413.665" fill="#F1F1F1" stroke="#231F20" stroke-width="1.695" stroke-miterlimit="10" width="119.116" height="9.012"/>
<rect id="PRIMARY_7_" x="246.072" y="432.336" fill="#F1F1F1" stroke="#231F20" stroke-width="1.695" stroke-miterlimit="10" width="115.896" height="5.023"/>
<rect id="PRIMARY_6_" x="245.994" y="424.719" transform="matrix(-0.994 0.1098 -0.1098 -0.994 656.5325 818.9519)" fill="#F1F1F1" stroke="#231F20" stroke-width="1.695" stroke-miterlimit="10" width="119.466" height="5.653"/>
<rect id="PRIMARY_5_" x="245.674" y="424.538" fill="#F1F1F1" stroke="#231F20" stroke-width="1.695" stroke-miterlimit="10" width="116.293" height="6.496"/>
<rect id="PRIMARY_4_" x="243.381" y="438.874" transform="matrix(0.9979 0.0653 -0.0653 0.9979 29.4567 -18.9935)" fill="#F1F1F1" stroke="#231F20" stroke-width="1.695" stroke-miterlimit="10" width="124.005" height="4.806"/>
<rect id="PRIMARY_3_" x="240.705" y="443.332" transform="matrix(-0.9865 0.1636 -0.1636 -0.9865 679.4787 836.9718)" fill="#F1F1F1" stroke="#231F20" stroke-width="1.695" stroke-miterlimit="10" width="129.129" height="6.276"/>
<rect id="PRIMARY_2_" x="237.327" y="454.382" transform="matrix(-0.9851 -0.1717 0.1717 -0.9851 517.2205 959.6477)" fill="#F1F1F1" stroke="#231F20" stroke-width="1.695" stroke-miterlimit="10" width="125.58" height="6.142"/>
<rect id="PRIMARY_1_" x="242.831" y="461.963" fill="#F1F1F1" stroke="#231F20" stroke-width="1.695" stroke-miterlimit="10" width="122.536" height="5.365"/>
<rect id="PRIMARY" x="253.255" y="467.142" transform="matrix(-0.9988 0.0494 -0.0494 -0.9988 631.2459 927.5497)" fill="#F1F1F1" stroke="#231F20" stroke-width="1.695" stroke-miterlimit="10" width="101.818" height="8.861"/>
</svg>
