<?xml version="1.0" encoding="utf-8"?>
<!-- Generator: Adobe Illustrator 16.0.0, SVG Export Plug-In . SVG Version: 6.00 Build 0)  -->
<svg version="1.1" id="Layer_1" xmlns="http://www.w3.org/2000/svg" xmlns:xlink="http://www.w3.org/1999/xlink" x="0px" y="0px"
	 width="612px" height="792px" viewBox="0 0 612 792" enable-background="new 0 0 612 792" xml:space="preserve">
<rect id="head_frame_1_" x="178" y="286" fill="#231F20" fill-opacity="0" width="256" height="222"/>
<path fill="#FFFFFF" stroke="#231F20" stroke-width="1.695" stroke-miterlimit="10" d="M360.797,448.564
	c0,1.479-1.201,2.68-2.681,2.68l0,0c-1.48,0-2.681-1.2-2.681-2.68v-2.565c0-1.479,1.2-2.679,2.681-2.679l0,0
	c1.479,0,2.681,1.199,2.681,2.679V448.564z"/>
<path fill="#FFFFFF" stroke="#231F20" stroke-width="1.695" stroke-miterlimit="10" d="M345.04,448.564c0,1.479-1.2,2.68-2.681,2.68
	l0,0c-1.48,0-2.681-1.2-2.681-2.68v-2.565c0-1.479,1.2-2.679,2.681-2.679l0,0c1.48,0,2.681,1.199,2.681,2.679V448.564z"/>
<path fill="#FFFFFF" stroke="#231F20" stroke-width="1.695" stroke-miterlimit="10" d="M329.41,451.318c0,1.479-1.2,2.68-2.68,2.68
	l0,0c-1.479,0-2.679-1.2-2.679-2.68v-2.565c0-1.479,1.2-2.679,2.679-2.679l0,0c1.479,0,2.68,1.199,2.68,2.679V451.318z"/>
<path fill="#FFFFFF" stroke="#231F20" stroke-width="1.695" stroke-miterlimit="10" d="M327.03,467.234
	c0,1.479-1.201,2.679-2.681,2.679l0,0c-1.48,0-2.681-1.199-2.681-2.679v-2.567c0-1.479,1.2-2.68,2.681-2.68l0,0
	c1.479,0,2.681,1.2,2.681,2.68V467.234z"/>
<path fill="#FFFFFF" stroke="#231F20" stroke-width="1.695" stroke-miterlimit="10" d="M348.717,470.878
	c0,1.479-1.2,2.68-2.681,2.68l0,0c-1.479,0-2.681-1.2-2.681-2.68v-2.565c0-1.479,1.201-2.679,2.681-2.679l0,0
	c1.48,0,2.681,1.199,2.681,2.679V470.878z"/>
<path id="SECONDARY_2_" fill="#8C8900" stroke="#231F20" stroke-width="1.695" stroke-miterlimit="10" d="M353.258,468.176
	c-14.728,0-48.259-2.225-38.324-13.981c1.507-1.78,22.964-6.454,37.69-6.454c2.967,0,5.812,0.227,8.477,0.626l-0.367-6.563v-58.36
	c0-28.077-22.773-50.84-50.86-50.84h-11.021c-28.089,0-50.861,22.763-50.861,50.84v62.702c0,28.078,22.771,41.52,50.861,41.52
	h11.021c18.389,0,34.027-2.707,42.961-14.565c0.909-1.206,3.554-3.731,4.309-5.063C355.98,468.104,354.462,468.176,353.258,468.176z
	"/>
<rect id="PRIMARY_56_" x="267.912" y="332.603" fill="#F1F1F1" stroke="#231F20" stroke-width="1.695" stroke-miterlimit="10" width="68.856" height="7.695"/>
<rect id="PRIMARY_55_" x="256.727" y="340.605" transform="matrix(-0.9969 0.0786 -0.0786 -0.9969 631.4301 663.1444)" fill="#F1F1F1" stroke="#231F20" stroke-width="1.695" stroke-miterlimit="10" width="91.886" height="6.779"/>
<rect id="PRIMARY_54_" x="250.323" y="355.481" fill="#F1F1F1" stroke="#231F20" stroke-width="1.695" stroke-miterlimit="10" width="106.727" height="6.779"/>
<rect id="PRIMARY_53_" x="255.356" y="349.402" fill="#F1F1F1" stroke="#231F20" stroke-width="1.695" stroke-miterlimit="10" width="99.606" height="5.272"/>
<rect id="PRIMARY_52_" x="246.805" y="408.024" transform="matrix(-0.9958 -0.092 0.092 -0.9958 571.7039 851.71)" fill="#F1F1F1" stroke="#231F20" stroke-width="1.695" stroke-miterlimit="10" width="117.338" height="9.321"/>
<rect id="PRIMARY_51_" x="244.633" y="374.97" fill="#F1F1F1" stroke="#231F20" stroke-width="1.695" stroke-miterlimit="10" width="118.348" height="10.167"/>
<rect id="PRIMARY_50_" x="242.888" y="385.137" fill="#F1F1F1" stroke="#231F20" stroke-width="1.695" stroke-miterlimit="10" width="121.695" height="4.947"/>
<polygon id="PRIMARY_49_" fill="#F1F1F1" stroke="#231F20" stroke-width="1.695" stroke-miterlimit="10" points="249.604,368.875 
	362.954,375.329 362.515,368.354 249.162,361.9 "/>
<polygon id="PRIMARY_48_" fill="#F1F1F1" stroke="#231F20" stroke-width="1.695" stroke-miterlimit="10" points="357.579,366.635 
	244.572,378.498 244.177,371.416 357.186,359.553 "/>
<polygon id="PRIMARY_47_" fill="#F1F1F1" stroke="#231F20" stroke-width="1.695" stroke-miterlimit="10" points="244.718,390.132 
	361.553,365.56 364.6,380.026 247.763,404.598 "/>
<path stroke="#231F20" stroke-width="1.695" stroke-miterlimit="10" d="M331.899,397.225c3.644,4.927-1.09,11.307-8.483,11.307
	c-6.371,0-8.484-6.216-8.484-11.307c0-3.684,4.642-9.355,8.484-6.673C328.604,394.175,330.583,395.446,331.899,397.225z"/>
<rect id="PRIMARY_46_" x="245.016" y="413.665" fill="#F1F1F1" stroke="#231F20" stroke-width="1.695" stroke-miterlimit="10" width="119.117" height="9.012"/>
<rect id="PRIMARY_45_" x="246.132" y="432.336" fill="#F1F1F1" stroke="#231F20" stroke-width="1.695" stroke-miterlimit="10" width="115.896" height="5.023"/>
<rect id="PRIMARY_44_" x="246.051" y="424.72" transform="matrix(-0.994 0.1097 -0.1097 -0.994 656.64 818.9509)" fill="#F1F1F1" stroke="#231F20" stroke-width="1.695" stroke-miterlimit="10" width="119.464" height="5.651"/>
<rect id="PRIMARY_43_" x="245.732" y="424.538" fill="#F1F1F1" stroke="#231F20" stroke-width="1.695" stroke-miterlimit="10" width="116.292" height="6.496"/>
<polygon id="PRIMARY_42_" fill="#F1F1F1" stroke="#231F20" stroke-width="1.6499" stroke-miterlimit="10" points="363.286,447.723 
	246.04,439.628 246.338,434.832 363.583,442.926 "/>
<polygon id="PRIMARY_41_" fill="#F1F1F1" stroke="#231F20" stroke-width="1.6127" stroke-miterlimit="10" points="247.557,453.939 
	362.873,432.81 363.803,439.001 248.488,460.131 "/>
<polygon id="PRIMARY_40_" fill="#F1F1F1" stroke="#231F20" stroke-width="1.5884" stroke-miterlimit="10" points="248.397,452.118 
	357.043,473.684 356.116,479.733 247.47,458.166 "/>
<rect id="PRIMARY_39_" x="255.424" y="470.437" fill="#F1F1F1" stroke="#231F20" stroke-width="1.5521" stroke-miterlimit="10" width="102.745" height="5.365"/>
<polygon id="PRIMARY_38_" fill="#F1F1F1" stroke="#231F20" stroke-width="1.4982" stroke-miterlimit="10" points="268.219,479.83 
	347.671,474.802 348.012,483.652 268.562,488.681 "/>
<path stroke="#231F20" stroke-width="1.695" stroke-miterlimit="10" d="M342.035,398.155c-3.645,4.929,1.089,11.307,8.483,11.307
	c6.369,0,8.481-6.216,8.481-11.307c0-3.683-4.639-9.354-8.481-6.671C345.329,395.107,343.351,396.378,342.035,398.155z"/>
</svg>
