<?xml version="1.0" encoding="utf-8"?>
<!-- Generator: Adobe Illustrator 16.0.0, SVG Export Plug-In . SVG Version: 6.00 Build 0)  -->
<svg version="1.1" id="Layer_1" xmlns="http://www.w3.org/2000/svg" xmlns:xlink="http://www.w3.org/1999/xlink" x="0px" y="0px"
	 width="612px" height="792px" viewBox="0 0 612 792" enable-background="new 0 0 612 792" xml:space="preserve">
<rect id="head_frame_1_" x="230.5" y="331.5" fill-opacity="0" fill="#231F20" width="151" height="131"/>
<path fill="#FFFFFF" stroke="#231F20" stroke-miterlimit="10" d="M338.287,429.053c0,0.873-0.708,1.581-1.581,1.581l0,0
	c-0.873,0-1.581-0.708-1.581-1.581v-1.514c0-0.873,0.708-1.581,1.581-1.581l0,0c0.873,0,1.581,0.708,1.581,1.581V429.053z"/>
<path fill="#FFFFFF" stroke="#231F20" stroke-miterlimit="10" d="M328.993,428.794c0,0.873-0.708,1.581-1.581,1.581l0,0
	c-0.873,0-1.581-0.708-1.581-1.581v-1.514c0-0.873,0.708-1.581,1.581-1.581l0,0c0.873,0,1.581,0.708,1.581,1.581V428.794z"/>
<path fill="#FFFFFF" stroke="#231F20" stroke-miterlimit="10" d="M319.774,429.053c0,0.873-0.708,1.581-1.581,1.581l0,0
	c-0.873,0-1.581-0.708-1.581-1.581v-1.514c0-0.873,0.708-1.581,1.581-1.581l0,0c0.873,0,1.581,0.708,1.581,1.581V429.053z"/>
<path fill="#FFFFFF" stroke="#231F20" stroke-miterlimit="10" d="M324.287,432.97c0,0.873-0.708,1.581-1.581,1.581l0,0
	c-0.873,0-1.581-0.708-1.581-1.581v-1.514c0-0.873,0.708-1.581,1.581-1.581l0,0c0.873,0,1.581,0.708,1.581,1.581V432.97z"/>
<path fill="#FFFFFF" stroke="#231F20" stroke-miterlimit="10" d="M334.12,432.97c0,0.873-0.708,1.581-1.581,1.581l0,0
	c-0.873,0-1.581-0.708-1.581-1.581v-1.514c0-0.873,0.708-1.581,1.581-1.581l0,0c0.873,0,1.581,0.708,1.581,1.581V432.97z"/>
<path id="SECONDARY" fill="#8C8900" stroke="#231F20" stroke-miterlimit="10" d="M336.598,431.632
	c-8.688,0-25.362-0.347-25.362-0.882c0-1.375,14.077-2.057,22.765-2.057c1.75,0,3.428,0.133,5,0.369l-0.75-5.625V389
	c0-16.568-13.432-30-30-30h-6.5c-16.568,0-30,13.432-30,30v37c0,16.568,13.432,24.5,30,24.5h6.5c10.847,0,20.348-3.4,25.616-10.397
	c0.536-0.712,4.376-7.753,4.821-8.54C338.002,431.604,337.308,431.632,336.598,431.632z"/>
<rect id="PRIMARY_18_" x="283.5" y="359" fill="#F1F1F1" stroke="#231F20" stroke-miterlimit="10" width="40.614" height="4.541"/>
<rect id="PRIMARY_17_" x="276.888" y="363.74" transform="matrix(0.9969 -0.0786 0.0786 0.9969 -27.7902 25.0088)" fill="#F1F1F1" stroke="#231F20" stroke-miterlimit="10" width="54.198" height="4"/>
<rect id="PRIMARY_16_" x="273.125" y="372.5" fill="#F1F1F1" stroke="#231F20" stroke-miterlimit="10" width="62.952" height="4"/>
<rect id="PRIMARY_15_" x="276.094" y="368.913" fill="#F1F1F1" stroke="#231F20" stroke-miterlimit="10" width="58.752" height="3.111"/>
<rect id="PRIMARY_14_" x="271.051" y="403.481" transform="matrix(0.9958 0.092 -0.092 0.9958 38.6574 -26.39)" fill="#F1F1F1" stroke="#231F20" stroke-miterlimit="10" width="69.208" height="5.5"/>
<rect id="PRIMARY_13_" x="269.769" y="384" fill="#F1F1F1" stroke="#231F20" stroke-miterlimit="10" width="69.807" height="6"/>
<rect id="PRIMARY_12_" x="268.74" y="390" fill="#F1F1F1" stroke="#231F20" stroke-miterlimit="10" width="71.781" height="2.919"/>
<polygon id="PRIMARY_11_" fill="#F1F1F1" stroke="#231F20" stroke-miterlimit="10" points="272.701,380.404 339.56,384.212 
	339.301,380.096 272.439,376.288 "/>
<polygon id="PRIMARY_10_" fill="#F1F1F1" stroke="#231F20" stroke-miterlimit="10" points="336.39,379.082 269.733,386.082 
	269.5,381.903 336.157,374.903 "/>
<rect id="PRIMARY_9_" x="269.945" y="385.606" transform="matrix(0.9786 -0.2059 0.2059 0.9786 -73.7454 71.175)" fill="#F1F1F1" stroke="#231F20" stroke-miterlimit="10" width="70.422" height="8.723"/>
<path stroke="#231F20" stroke-miterlimit="10" d="M321.242,397.133c0,3.616-0.642,6.672-5.004,6.672
	c-3.757,0-5.003-3.668-5.003-6.672c0-2.174,2.239-3.938,5.003-3.938S321.242,394.959,321.242,397.133z"/>
<path stroke="#231F20" stroke-miterlimit="10" d="M337.115,397.133c0,3.616-0.641,6.672-5.003,6.672
	c-3.757,0-5.004-3.668-5.004-6.672c0-2.174,2.24-3.938,5.004-3.938S337.115,394.959,337.115,397.133z"/>
<rect id="PRIMARY_8_" x="269.995" y="406.834" fill="#F1F1F1" stroke="#231F20" stroke-miterlimit="10" width="70.26" height="5.317"/>
<rect id="PRIMARY_7_" x="270.652" y="417.852" fill="#F1F1F1" stroke="#231F20" stroke-miterlimit="10" width="68.361" height="2.963"/>
<rect id="PRIMARY_6_" x="270.585" y="413.345" transform="matrix(0.994 -0.1098 0.1098 0.994 -43.7115 36.0807)" fill="#F1F1F1" stroke="#231F20" stroke-miterlimit="10" width="70.463" height="3.335"/>
<rect id="PRIMARY_5_" x="270.417" y="413.25" fill="#F1F1F1" stroke="#231F20" stroke-miterlimit="10" width="68.595" height="3.833"/>
<rect id="PRIMARY_4_" x="269.085" y="421.72" transform="matrix(-0.9979 -0.0653 0.0653 -0.9979 583.0194 865.3362)" fill="#F1F1F1" stroke="#231F20" stroke-miterlimit="10" width="73.141" height="2.836"/>
<rect id="PRIMARY_3_" x="267.5" y="424.333" transform="matrix(0.9865 -0.1637 0.1637 0.9865 -65.6553 55.7843)" fill="#F1F1F1" stroke="#231F20" stroke-miterlimit="10" width="76.167" height="3.704"/>
<rect id="PRIMARY_2_" x="265.5" y="430.875" transform="matrix(0.9851 0.1718 -0.1718 0.9851 78.8358 -45.5437)" fill="#F1F1F1" stroke="#231F20" stroke-miterlimit="10" width="74.076" height="3.624"/>
<rect id="PRIMARY_1_" x="268.74" y="435.334" fill="#F1F1F1" stroke="#231F20" stroke-miterlimit="10" width="72.278" height="3.166"/>
<rect id="PRIMARY" x="274.876" y="438.386" transform="matrix(0.9988 -0.0494 0.0494 0.9988 -21.4066 15.5956)" fill="#F1F1F1" stroke="#231F20" stroke-miterlimit="10" width="60.056" height="5.229"/>
</svg>
