<?xml version="1.0" encoding="utf-8"?>
<!-- Generator: Adobe Illustrator 16.0.0, SVG Export Plug-In . SVG Version: 6.00 Build 0)  -->
<svg version="1.1" id="Layer_1" xmlns="http://www.w3.org/2000/svg" xmlns:xlink="http://www.w3.org/1999/xlink" x="0px" y="0px"
	 width="612px" height="792px" viewBox="0 0 612 792" enable-background="new 0 0 612 792" xml:space="preserve">
<rect id="head_frame_1_" x="230.5" y="331.5" fill-opacity="0" fill="#231F20" width="151" height="131"/>
<path fill="#FFFFFF" stroke="#231F20" stroke-miterlimit="10" d="M338.321,427.428c0,0.873-0.708,1.581-1.581,1.581l0,0
	c-0.873,0-1.581-0.708-1.581-1.581v-1.514c0-0.873,0.708-1.581,1.581-1.581l0,0c0.873,0,1.581,0.708,1.581,1.581V427.428z"/>
<path fill="#FFFFFF" stroke="#231F20" stroke-miterlimit="10" d="M329.027,427.428c0,0.873-0.708,1.581-1.581,1.581l0,0
	c-0.873,0-1.581-0.708-1.581-1.581v-1.514c0-0.873,0.708-1.581,1.581-1.581l0,0c0.873,0,1.581,0.708,1.581,1.581V427.428z"/>
<path fill="#FFFFFF" stroke="#231F20" stroke-miterlimit="10" d="M319.809,429.053c0,0.873-0.708,1.581-1.581,1.581l0,0
	c-0.873,0-1.581-0.708-1.581-1.581v-1.514c0-0.873,0.708-1.581,1.581-1.581l0,0c0.873,0,1.581,0.708,1.581,1.581V429.053z"/>
<path fill="#FFFFFF" stroke="#231F20" stroke-miterlimit="10" d="M318.404,438.444c0,0.873-0.708,1.581-1.581,1.581l0,0
	c-0.873,0-1.581-0.708-1.581-1.581v-1.514c0-0.873,0.708-1.581,1.581-1.581l0,0c0.873,0,1.581,0.708,1.581,1.581V438.444z"/>
<path fill="#FFFFFF" stroke="#231F20" stroke-miterlimit="10" d="M331.196,440.595c0,0.873-0.708,1.581-1.581,1.581l0,0
	c-0.873,0-1.581-0.708-1.581-1.581v-1.514c0-0.873,0.708-1.581,1.581-1.581l0,0c0.873,0,1.581,0.708,1.581,1.581V440.595z"/>
<path id="SECONDARY_2_" fill="#8C8900" stroke="#231F20" stroke-miterlimit="10" d="M333.875,439c-8.688,0-28.466-1.313-22.605-8.25
	c0.888-1.051,13.544-3.809,22.231-3.809c1.75,0,3.428,0.134,5,0.37l-0.217-3.874V389c0-16.568-13.432-30-30-30h-6.5
	c-16.568,0-30,13.432-30,30v37c0,16.568,13.432,24.5,30,24.5h6.5c10.847,0,20.072-1.598,25.341-8.595
	c0.536-0.712,2.096-2.202,2.541-2.988C335.48,438.958,334.585,439,333.875,439z"/>
<rect id="PRIMARY_56_" x="283.534" y="359" fill="#F1F1F1" stroke="#231F20" stroke-miterlimit="10" width="40.614" height="4.541"/>
<rect id="PRIMARY_55_" x="276.922" y="363.74" transform="matrix(0.9969 -0.0786 0.0786 0.9969 -27.79 25.0115)" fill="#F1F1F1" stroke="#231F20" stroke-miterlimit="10" width="54.198" height="4"/>
<rect id="PRIMARY_54_" x="273.159" y="372.5" fill="#F1F1F1" stroke="#231F20" stroke-miterlimit="10" width="62.952" height="4"/>
<rect id="PRIMARY_53_" x="276.128" y="368.913" fill="#F1F1F1" stroke="#231F20" stroke-miterlimit="10" width="58.752" height="3.111"/>
<rect id="PRIMARY_52_" x="271.085" y="403.481" transform="matrix(0.9958 0.092 -0.092 0.9958 38.6576 -26.3931)" fill="#F1F1F1" stroke="#231F20" stroke-miterlimit="10" width="69.208" height="5.5"/>
<rect id="PRIMARY_51_" x="269.803" y="384" fill="#F1F1F1" stroke="#231F20" stroke-miterlimit="10" width="69.807" height="6"/>
<rect id="PRIMARY_50_" x="268.774" y="390" fill="#F1F1F1" stroke="#231F20" stroke-miterlimit="10" width="71.781" height="2.919"/>
<polygon id="PRIMARY_49_" fill="#F1F1F1" stroke="#231F20" stroke-miterlimit="10" points="272.735,380.404 339.594,384.212 
	339.335,380.096 272.474,376.288 "/>
<polygon id="PRIMARY_48_" fill="#F1F1F1" stroke="#231F20" stroke-miterlimit="10" points="336.424,379.082 269.767,386.082 
	269.534,381.903 336.191,374.903 "/>
<rect id="PRIMARY_47_" x="269.979" y="385.606" transform="matrix(0.9786 -0.2059 0.2059 0.9786 -73.7447 71.182)" fill="#F1F1F1" stroke="#231F20" stroke-miterlimit="10" width="70.422" height="8.723"/>
<path stroke="#231F20" stroke-miterlimit="10" d="M321.276,397.133c2.15,2.907-0.642,6.672-5.004,6.672
	c-3.757,0-5.003-3.668-5.003-6.672c0-2.174,2.737-5.521,5.003-3.938C319.333,395.333,320.5,396.083,321.276,397.133z"/>
<rect id="PRIMARY_46_" x="270.029" y="406.834" fill="#F1F1F1" stroke="#231F20" stroke-miterlimit="10" width="70.26" height="5.317"/>
<rect id="PRIMARY_45_" x="270.687" y="417.852" fill="#F1F1F1" stroke="#231F20" stroke-miterlimit="10" width="68.361" height="2.963"/>
<rect id="PRIMARY_44_" x="270.619" y="413.345" transform="matrix(0.994 -0.1098 0.1098 0.994 -43.7113 36.0845)" fill="#F1F1F1" stroke="#231F20" stroke-miterlimit="10" width="70.463" height="3.335"/>
<rect id="PRIMARY_43_" x="270.451" y="413.25" fill="#F1F1F1" stroke="#231F20" stroke-miterlimit="10" width="68.595" height="3.833"/>
<rect id="PRIMARY_42_" x="269.119" y="421.72" transform="matrix(-0.9979 -0.0653 0.0653 -0.9979 583.0876 865.3385)" fill="#F1F1F1" stroke="#231F20" stroke-miterlimit="10" width="73.141" height="2.836"/>
<rect id="PRIMARY_41_" x="267.534" y="424.333" transform="matrix(0.9865 -0.1637 0.1637 0.9865 -65.6549 55.7899)" fill="#F1F1F1" stroke="#231F20" stroke-miterlimit="10" width="76.167" height="3.704"/>
<rect id="PRIMARY_40_" x="265.534" y="435.875" transform="matrix(0.9851 0.1718 -0.1718 0.9851 79.6954 -45.4752)" fill="#F1F1F1" stroke="#231F20" stroke-miterlimit="10" width="74.076" height="3.624"/>
<rect id="PRIMARY_39_" x="268.774" y="440.334" fill="#F1F1F1" stroke="#231F20" stroke-miterlimit="10" width="72.278" height="3.166"/>
<rect id="PRIMARY_38_" x="274.91" y="443.386" transform="matrix(0.9988 -0.0494 0.0494 0.9988 -21.6534 15.6034)" fill="#F1F1F1" stroke="#231F20" stroke-miterlimit="10" width="60.056" height="5.229"/>
<path stroke="#231F20" stroke-miterlimit="10" d="M327.255,397.682c-2.15,2.908,0.642,6.672,5.004,6.672
	c3.757,0,5.003-3.668,5.003-6.672c0-2.173-2.737-5.52-5.003-3.937C329.198,395.883,328.031,396.633,327.255,397.682z"/>
</svg>
