<?xml version="1.0" encoding="utf-8"?>
<!-- Generator: Adobe Illustrator 16.0.0, SVG Export Plug-In . SVG Version: 6.00 Build 0)  -->
<svg version="1.1" id="Layer_1" xmlns="http://www.w3.org/2000/svg" xmlns:xlink="http://www.w3.org/1999/xlink" x="0px" y="0px"
	 width="612px" height="792px" viewBox="0 0 612 792" enable-background="new 0 0 612 792" xml:space="preserve">
<rect x="265.5" y="369.004" fill-opacity="0" fill="#231F20" width="81" height="54.487"/>
<path class="secondary_color" id="SECONDARY_4_" fill="#FFC18C" stroke="#231F20" stroke-miterlimit="10" d="M319.197,394.154l-2.375,0.75
	c-1.381,1.563-0.457,6.223-0.457,8.063l0.133,4.047l0.006-0.186c2.731-0.068,5.144-0.414,6.838-1.673v-5.478
	C323.342,397.838,321.037,394.154,319.197,394.154z"/>
<path class="secondary_color" id="SECONDARY_3_" fill="#FFC18C" stroke="#231F20" stroke-miterlimit="10" d="M288.079,404.691
	c1.65,1.392,4.066,1.88,6.862,2.025c0.014-0.001,0.026-0.002,0.04-0.003v-7.544c0-1.84-2.304-5.523-4.144-5.523l-2.375,0.75
	c-1.382,1.563-0.456,6.223-0.456,8.063L288.079,404.691z"/>
<path class="secondary_color" id="SECONDARY_1_" fill="#FFC18C" stroke="#231F20" stroke-miterlimit="10" d="M297.597,406.696h6.838v-7.505
	c0-1.84-2.304-5.523-4.144-5.523l-2.375,0.75c-1.382,1.563-0.457,6.223-0.457,8.063L297.597,406.696z"/>
<path class="secondary_color" id="SECONDARY_2_" fill="#FFC18C" stroke="#231F20" stroke-miterlimit="10" d="M307.05,406.696h6.838v-7.505
	c0-1.84-2.304-5.523-4.144-5.523l-2.375,0.75c-1.382,1.563-0.457,6.223-0.457,8.063L307.05,406.696z"/>
<path class="secondary_color" id="SECONDARY" fill="#FFC18C" stroke="#231F20" stroke-miterlimit="10" d="M294.212,391.188l-7.914-5.815
	c0.001,0.013,0.001,0.024,0.002,0.037c0.164,0.182,0.336,0.365,0.541,0.563c-0.322,0.254-0.457,0.608-0.512,1.02v1.891v5.421
	l2.295,1.986c1.43,1.159,0.566,9.362,2.65,9.272l3.125,0.001C296.4,403.625,295.642,392.345,294.212,391.188z"/>
</svg>
