<?xml version="1.0" encoding="utf-8"?>
<!-- Generator: Adobe Illustrator 16.0.0, SVG Export Plug-In . SVG Version: 6.00 Build 0)  -->
<svg version="1.1" id="Layer_1" xmlns="http://www.w3.org/2000/svg" xmlns:xlink="http://www.w3.org/1999/xlink" x="0px" y="0px"
	 width="612px" height="792px" viewBox="0 0 612 792" enable-background="new 0 0 612 792" xml:space="preserve">
<rect x="266.5" y="369.004" fill-opacity="0" fill="#231F20" width="81" height="54.487"/>
<path id="SECONDARY_4_" fill="#FFC18C" stroke="#231F20" stroke-miterlimit="10" d="M328.67,388.883v5.421l-1.115,0.966v-4.717
	c0-1.188-0.241-2.315-0.004-3.108c-0.225-0.282-0.426-0.547-0.584-0.797l1.734-1.275c-0.001,0.013-0.001,0.024-0.002,0.037
	c-0.164,0.182-0.336,0.365-0.541,0.563c0.322,0.254,0.457,0.608,0.512,1.02V388.883z"/>
<path id="SECONDARY_3_" fill="#FFC18C" stroke="#231F20" stroke-miterlimit="10" d="M324.965,405.361l-0.044,1.33
	c-1.649,1.392-4.066,1.88-6.862,2.025c-0.014-0.001-0.026-0.002-0.039-0.003v-1.711C320.79,406.945,323.239,406.613,324.965,405.361
	z"/>
<polygon id="SECONDARY_2_" fill="#FFC18C" stroke="#231F20" stroke-miterlimit="10" points="315.458,407.014 315.403,408.696 
	308.565,408.696 308.565,407.014 "/>
<polygon id="SECONDARY_1_" fill="#FFC18C" stroke="#231F20" stroke-miterlimit="10" points="306.005,407.014 305.95,408.696 
	299.112,408.696 299.112,407.014 "/>
<path id="SECONDARY" fill="#FFC18C" stroke="#231F20" stroke-miterlimit="10" d="M296.569,406.971l-0.067,2.043l-0.006-0.186
	c-2.731-0.068-5.144-0.414-6.838-1.673v-2.586C291.205,406.304,293.677,406.837,296.569,406.971z"/>
</svg>
