<?xml version="1.0" encoding="utf-8"?>
<!-- Generator: Adobe Illustrator 16.0.0, SVG Export Plug-In . SVG Version: 6.00 Build 0)  -->
<svg version="1.1" id="Layer_1" xmlns="http://www.w3.org/2000/svg" xmlns:xlink="http://www.w3.org/1999/xlink" x="0px" y="0px"
	 width="612px" height="792px" viewBox="0 0 612 792" enable-background="new 0 0 612 792" xml:space="preserve">
<rect x="178" y="310.248" fill-opacity="0" fill="#231F20" width="256" height="172"/>
<path id="SECONDARY_4_" fill="#FFC18C" stroke="#231F20" stroke-width="3.1586" stroke-miterlimit="10" d="M347.71,389.64
	l-7.506,2.368c-4.364,4.932-1.445,19.643-1.445,25.451l0.42,12.775l0.019-0.586c8.633-0.216,16.257-1.308,21.611-5.281v-17.29
	C360.809,401.268,353.524,389.64,347.71,389.64z"/>
<path id="SECONDARY_3_" fill="#FFC18C" stroke="#231F20" stroke-width="3.1586" stroke-miterlimit="10" d="M249.359,422.902
	c5.215,4.393,12.852,5.935,21.688,6.394c0.043-0.003,0.083-0.006,0.125-0.009v-23.814c0-5.808-7.281-17.436-13.096-17.436
	l-7.506,2.368c-4.367,4.933-1.441,19.643-1.441,25.451L249.359,422.902z"/>
<path id="SECONDARY_1_" fill="#FFC18C" stroke="#231F20" stroke-width="3.1586" stroke-miterlimit="10" d="M279.441,429.231h21.611
	V405.54c0-5.808-7.281-17.436-13.095-17.436l-7.506,2.368c-4.367,4.932-1.444,19.643-1.444,25.451L279.441,429.231z"/>
<path id="SECONDARY_2_" fill="#FFC18C" stroke="#231F20" stroke-width="3.1586" stroke-miterlimit="10" d="M309.318,429.231h21.61
	V405.54c0-5.808-7.28-17.436-13.096-17.436l-7.506,2.368c-4.367,4.932-1.444,19.643-1.444,25.451L309.318,429.231z"/>
<path id="SECONDARY" fill="#FFC18C" stroke="#231F20" stroke-width="3.1586" stroke-miterlimit="10" d="M268.745,380.274
	l-25.012-18.357c0.003,0.04,0.003,0.077,0.006,0.117c0.519,0.573,1.062,1.153,1.71,1.779c-1.019,0.801-1.445,1.92-1.617,3.218v5.968
	v17.112l7.253,6.271c4.519,3.659,1.79,29.554,8.376,29.271l9.876,0.003C275.659,419.536,273.264,383.928,268.745,380.274z"/>
</svg>
