<?xml version="1.0" encoding="utf-8"?>
<!-- Generator: Adobe Illustrator 16.0.0, SVG Export Plug-In . SVG Version: 6.00 Build 0)  -->
<svg version="1.1" id="Layer_1" xmlns="http://www.w3.org/2000/svg" xmlns:xlink="http://www.w3.org/1999/xlink" x="0px" y="0px"
	 width="612px" height="792px" viewBox="0 0 612 792" enable-background="new 0 0 612 792" xml:space="preserve">
<rect x="266.5" y="357.651" fill-opacity="0" fill="#231F20" width="81" height="78.206"/>
<path id="PRIMARY_6_" fill="#7CD5FF" stroke="#231F20" stroke-miterlimit="10" d="M321.494,408.363
	c1.626-0.341,3.221-0.722,4.398,0.979c2-2.426,3.582-2.772,6.025,1.202c0.761-4.517,2.382-4.714,6.01-1.716
	c-0.297-3.127,1.414-3.061,3.389-2.627c1.252-0.141,2.472-0.084,3.33-0.036c0.857,0.047,1.354,0.085,1.354,0.085
	s0.045-3.783,0.106-8.828c0.03-2.522,0.064-5.36,0.136-8.19c-0.003-2.845,0.031-5.682,0.263-8.231
	c-0.171-2.496-0.144-4.703-0.124-6.279c0.019-1.577,0.029-2.522,0.029-2.522s-0.445,0.086-1.246,0.261
	c-0.802,0.174-1.96,0.438-2.775,0.141c-2.035,1.006-3.729,1.452-3.887-2.782c-3.584,5.313-5.635,5.946-10.563-2.441
	c0.648,9.847-1.582,10.673-16.081,5.842c10.038,6.682,7.808,7.706-13.886,6.912c17.407,3.046,15.35,4.274-4.069,7.387
	c15.663-0.45,13.96,0.986,0.207,8.877c11.796-5.787,11.309-5.211,0.893,2.469c9.521-6.501,9.113-5.897,1.106,1.911
	c6.767-5.982,6.079-4.628,1.612,1.902c3.18-3.603,2.581-2.029,0.939,0.871c0.674-0.655,0.411-0.058,0.112,0.601
	c-0.214,0.541-0.464,1.141-0.706,1.742c-3.392,8.426-5.318,17.096-3.573,26.396c0.007,2.069,0.007,3.368,0.007,3.368l24.166-0.045
	c0,0,0.01-1.617,0.02-4.357c0.005-1.37,0.012-3.018,0.023-4.872C319,421,319,415,321.078,410.233
	C321.329,409.113,321.494,408.363,321.494,408.363z"/>
<path id="SECONDARY" fill="#FFC18C" stroke="#231F20" stroke-miterlimit="10" d="M293.838,425.173c0,7.545,0-0.839,0.662,10.481
	l24.166-0.045c0.243-7.441,0.258-6.056,0.258-13.601l0,0c0-7.545,2.154-11.775,2.57-13.646l-25.568,2.346
	c-1.166,5.84-1.303,6.519-2.088,11.149V425.173z"/>
</svg>
