<?xml version="1.0" encoding="utf-8"?>
<!-- Generator: Adobe Illustrator 16.0.0, SVG Export Plug-In . SVG Version: 6.00 Build 0)  -->
<svg version="1.1" id="Layer_1" xmlns="http://www.w3.org/2000/svg" xmlns:xlink="http://www.w3.org/1999/xlink" x="0px" y="0px"
	 width="612px" height="792px" viewBox="0 0 612 792" enable-background="new 0 0 612 792" xml:space="preserve">
<rect x="179" y="311.971" fill-opacity="0" fill="#231F20" width="256" height="170.554"/>
<path id="PRIMARY_8_" fill="#7CD5FF" stroke="#231F20" stroke-width="3.1453" stroke-miterlimit="10" d="M254.339,334.863
	c15.605,5.838,14.985,3.641,9.423-3.846c9.621,3.57,8.269,1.16,4.213-4.452c6.814,1.973,16.167,10.694,1.284-8.391
	c29.629,16.451,15.802,13.161,16.198,0c4.654,12.843,18.734,18.312,14.571-3.737c16.256,22.049,10.003,12.583,19.959-1.528
	c-0.892,14.112,6.037,16.368,14.063,8.226c-4.643,8.721,0.586,8.898,7.493,5.209c-1.864,4.498-4.283,8.07,5.784,4.146
	c-6.009,7.839-3.691,10.211,10.481,4.064c-8.969,11.026-6.123,13.41,11.602,12.441c-12.306,6.123-9.737,8.889,2.541,13.496
	c-7.84,1.314-5.967,4.466-2.581,8.669c-0.75,2.482,0.013,6.01,0.013,9.73v26.135c0,22.993-15.043,25.393-33.605,25.393h-0.012
	h-57.951h-0.012c-18.562,0-33.605-2.399-33.605-25.393V378.89c0-3.72,0.763-7.248-1.617-9.109c5.016-4.824,6.889-7.975-3.111-10.097
	c14.438-3.799,17.006-6.566,2.685-13.587C261.895,347.964,264.741,345.58,254.339,334.863z"/>
</svg>
