<?xml version="1.0" encoding="utf-8"?>
<!-- Generator: Adobe Illustrator 16.0.0, SVG Export Plug-In . SVG Version: 6.00 Build 0)  -->
<svg version="1.1" id="Layer_1" xmlns="http://www.w3.org/2000/svg" xmlns:xlink="http://www.w3.org/1999/xlink" x="0px" y="0px"
	 width="612px" height="792px" viewBox="0 0 612 792" enable-background="new 0 0 612 792" xml:space="preserve">
<rect x="266.5" y="370.004" fill-opacity="0" fill="#231F20" width="81" height="54.487"/>
<path class="primary_color" id="PRIMARY_8_" fill="#7CD5FF" stroke="#231F20" stroke-miterlimit="10" d="M322.846,377.317
	c-4.938,1.865-4.741,1.163-2.981-1.229c-3.044,1.141-2.616,0.371-1.333-1.422c-2.156,0.63-5.115,3.417-0.406-2.681
	c-9.375,5.256-5,4.205-5.125,0c-1.473,4.103-5.928,5.85-4.61-1.194c-5.143,7.044-3.165,4.02-6.316-0.488
	c0.283,4.508-1.91,5.229-4.449,2.628c1.469,2.786-0.186,2.843-2.372,1.664c0.59,1.437,1.355,2.578-1.829,1.325
	c1.901,2.504,1.168,3.262-3.317,1.298c2.838,3.522,1.937,4.284-3.671,3.975c3.894,1.956,3.082,2.84-0.804,4.312
	c2.48,0.42,1.888,1.427,0.816,2.77c0.238,0.793-0.003,1.92-0.003,3.108v8.35c0,7.346,4.76,8.112,10.632,8.112h0.004h18.336h0.004
	c5.873,0,10.633-0.767,10.633-8.112v-8.35c0-1.188-0.241-2.315,0.512-2.91c-1.587-1.541-2.18-2.548,0.984-3.226
	c-4.568-1.214-5.381-2.098-0.85-4.341C320.455,381.503,319.555,380.741,322.846,377.317z"/>
</svg>
