<?xml version="1.0" encoding="utf-8"?>
<!-- Generator: Adobe Illustrator 16.0.0, SVG Export Plug-In . SVG Version: 6.00 Build 0)  -->
<svg version="1.1" id="Layer_1" xmlns="http://www.w3.org/2000/svg" xmlns:xlink="http://www.w3.org/1999/xlink" x="0px" y="0px"
	 width="612px" height="792px" viewBox="0 0 612 792" enable-background="new 0 0 612 792" xml:space="preserve">
<rect x="179" y="311.971" fill-opacity="0" fill="#231F20" width="256" height="170.554"/>
<path id="PRIMARY_8_" fill="#7CD5FF" stroke="#231F20" stroke-width="3.1453" stroke-miterlimit="10" d="M357.08,334.863
	c-15.604,5.838-14.984,3.641-9.423-3.846c-9.62,3.57-8.269,1.16-4.213-4.452c-6.814,1.973-16.167,10.694-1.284-8.391
	c-29.629,16.451-15.802,13.161-16.197,0c-4.654,12.843-18.734,18.312-14.571-3.737c-16.254,22.049-10.001,12.583-19.961-1.528
	c0.894,14.112-6.037,16.368-14.061,8.226c4.642,8.721-0.588,8.898-7.495,5.209c1.866,4.498,4.284,8.07-5.781,4.146
	c6.008,7.839,3.691,10.211-10.483,4.064c8.969,11.026,6.122,13.41-11.602,12.441c12.307,6.123,9.739,8.889-2.542,13.496
	c7.839,1.314,5.967,4.466,2.58,8.669c0.751,2.482-0.011,6.01-0.011,9.73v26.135c0,22.993,15.045,25.393,33.604,25.393h0.014h57.95
	h0.013c18.562,0,33.605-2.399,33.605-25.393V378.89c0-3.72-0.763-7.248,1.617-9.109c-5.016-4.824-6.889-7.975,3.111-10.097
	c-14.438-3.799-17.007-6.566-2.686-13.587C349.524,347.964,346.679,345.58,357.08,334.863z"/>
</svg>
