<?xml version="1.0" encoding="utf-8"?>
<!-- Generator: Adobe Illustrator 16.0.0, SVG Export Plug-In . SVG Version: 6.00 Build 0)  -->
<svg version="1.1" id="Layer_1" xmlns="http://www.w3.org/2000/svg" xmlns:xlink="http://www.w3.org/1999/xlink" x="0px" y="0px"
	 width="612px" height="792px" viewBox="0 0 612 792" enable-background="new 0 0 612 792" xml:space="preserve">
<rect x="179" y="272.598" fill-opacity="0" fill="#231F20" width="256" height="248.313"/>
<path id="PRIMARY_6_" fill="#7CD5FF" stroke="#231F20" stroke-width="3.1678" stroke-miterlimit="10" d="M352.809,433.614
	c5.139-1.082,10.179-2.292,13.901,3.106c6.321-7.702,11.321-8.803,19.043,3.817c2.404-14.341,7.528-14.968,18.994-5.448
	c-0.938-9.929,4.469-9.718,10.71-8.341c3.957-0.446,7.812-0.267,10.524-0.114c2.71,0.148,4.278,0.27,4.278,0.27
	s0.142-12.013,0.336-28.03c0.096-8.009,0.204-17.019,0.429-26.006c-0.009-9.032,0.099-18.042,0.831-26.134
	c-0.541-7.925-0.454-14.933-0.393-19.938c0.059-5.006,0.093-8.009,0.093-8.009s-1.407,0.273-3.938,0.828
	c-2.534,0.554-6.194,1.389-8.771,0.446c-6.432,3.194-11.784,4.609-12.284-8.834c-11.327,16.87-17.809,18.88-33.383-7.751
	c2.05,31.266-5,33.889-50.824,18.548c31.726,21.217,24.677,24.468-43.887,21.945c55.014,9.673,48.514,13.57-12.861,23.455
	c49.502-1.428,44.122,3.13,0.654,28.186c37.281-18.375,35.741-16.547,2.821,7.84c30.091-20.643,28.801-18.725,3.497,6.068
	c21.386-18.995,19.211-14.696,5.094,6.04c10.051-11.438,8.156-6.443,2.968,2.766c2.131-2.08,1.299-0.183,0.354,1.907
	c-0.676,1.718-1.466,3.622-2.231,5.531c-10.719,26.753-16.807,54.281-11.293,83.81c0.023,6.57,0.023,10.694,0.023,10.694
	l76.376-0.144c0,0,0.031-5.135,0.062-13.835c0.016-4.351,0.037-9.581,0.074-15.47c0.92-17.081,0.92-36.132,7.488-51.267
	C352.287,435.995,352.809,433.614,352.809,433.614z"/>
<path id="SECONDARY" fill="#FFC18C" stroke="#231F20" stroke-width="3.1678" stroke-miterlimit="10" d="M265.401,486.986
	c0,23.956,0-2.663,2.092,33.28l76.376-0.144c0.769-23.627,0.815-19.227,0.815-43.183l0,0c0-23.956,6.809-37.389,8.123-43.326
	L272,441.062c-3.685,18.543-4.117,20.697-6.599,35.401V486.986z"/>
</svg>
