<?xml version="1.0" encoding="utf-8"?>
<!-- Generator: Adobe Illustrator 16.0.0, SVG Export Plug-In . SVG Version: 6.00 Build 0)  -->
<svg version="1.1" id="Layer_1" xmlns="http://www.w3.org/2000/svg" xmlns:xlink="http://www.w3.org/1999/xlink" x="0px" y="0px"
	 width="612px" height="792px" viewBox="0 0 612 792" enable-background="new 0 0 612 792" xml:space="preserve">
<rect x="179" y="310.248" fill-opacity="0" fill="#231F20" width="256" height="172"/>
<path id="SECONDARY_4_" fill="#FFC18C" stroke="#231F20" stroke-width="3.1586" stroke-miterlimit="10" d="M375.487,372.999v17.112
	l-3.524,3.049v-14.891c0-3.751-0.762-7.309-0.012-9.812c-0.711-0.89-1.346-1.728-1.846-2.516l5.48-4.024
	c-0.003,0.04-0.003,0.077-0.006,0.117c-0.519,0.573-1.062,1.153-1.71,1.779c1.019,0.801,1.444,1.92,1.617,3.218V372.999z"/>
<path id="SECONDARY_3_" fill="#FFC18C" stroke="#231F20" stroke-width="3.1586" stroke-miterlimit="10" d="M363.777,425.018
	l-0.139,4.198c-5.213,4.393-12.852,5.935-21.688,6.394c-0.043-0.003-0.083-0.006-0.123-0.01v-5.4
	C350.583,430.018,358.324,428.969,363.777,425.018z"/>
<polygon id="SECONDARY_2_" fill="#FFC18C" stroke="#231F20" stroke-width="3.1586" stroke-miterlimit="10" points="333.731,430.233 
	333.559,435.545 311.947,435.545 311.947,430.233 "/>
<polygon id="SECONDARY_1_" fill="#FFC18C" stroke="#231F20" stroke-width="3.1586" stroke-miterlimit="10" points="303.855,430.233 
	303.682,435.545 282.071,435.545 282.071,430.233 "/>
<path id="SECONDARY" fill="#FFC18C" stroke="#231F20" stroke-width="3.1586" stroke-miterlimit="10" d="M274.034,430.098
	l-0.213,6.449l-0.018-0.586c-8.633-0.216-16.256-1.308-21.611-5.281v-8.163C257.08,427.992,264.892,429.675,274.034,430.098z"/>
</svg>
