<?xml version="1.0" encoding="utf-8"?>
<!-- Generator: Adobe Illustrator 16.0.0, SVG Export Plug-In . SVG Version: 6.00 Build 0)  -->
<svg version="1.1" id="Layer_1" xmlns="http://www.w3.org/2000/svg" xmlns:xlink="http://www.w3.org/1999/xlink" x="0px" y="0px"
	 width="612px" height="792px" viewBox="0 0 612 792" enable-background="new 0 0 612 792" xml:space="preserve">
<path fill-opacity="0" fill="#231F20" d="M347.5,441.32h-81v-89.313c0,0,1,0,2.778,0c0.889,0,1.972,0,3.218-0.004
	c9.453-0.003,19.148-0.003,28.822-0.001c1.383,0.002,2.765,0.005,4.149,0.01C316,352,327,352,338.418,352.008
	c1.392,0,2.655,0,3.768,0c3.337,0,5.314,0,5.314,0V441.32z"/>
<path class="primary_color" id="PRIMARY_7_" fill="#7CD5FF" stroke="#231F20" stroke-miterlimit="10" d="M340.838,406.521
	c-12.436-10.944-12.831-12.041,0.002-3.892c-14.098-11.659-14.966-14.072-3.216-13.37c-13.646-5.968-14.673-8.819-9.724-15.281
	c-6.846,1.196-7.715-1.217-7.947-4.288c-1.031-0.439-1.426-1.536-1.426-1.536c0-1.602-0.193-3.145-0.549-4.594
	c-0.355-1.45-0.875-2.806-1.529-4.033c-1.449-5.56-6.449-6.544-11.235-7.052c-1.053,0.141-2.041,0.473-2.959,0.957
	c-4.591,2.426-7.442,8.654-7.755,13.981c0,0-0.154,0.428-0.424,1.178s-0.656,1.82-1.41,2.098c-0.264,2.551-0.931,4.402-5.489,2.644
	c3.137,5.707,2.381,7.804-5.713,9.594c6.628,2.282,5.917,4.257-3.786,8.131c8.458-0.419,7.925,1.061-1.514,4.856
	c8.684-1.697,8.461-1.08-0.224,1.818c7.897-1.939,7.317-0.609,0.052,4.265c6.465-1.667,6.245,0.208,0.156,6.362
	c5.955-2.052,6.04,0.175,0.334,6.943c6.128-2.159,6.465,0.224,2.079,7.766c5.255-2.816,5.788-0.473,2.405,6.835
	c4.589-2.855,5.263-0.746,3.68,5.027c3.016-1.984,3.776-0.304,3.635,2.967c1.694-0.535,2.485,0.52,3.187,1.464
	c0.153,0.176,0.38,0.547,0.816,0.799s1.082,0.385,1.994,0.385c0,0,9.193,0,16.547,0c2.451,0,4.698,0,6.333,0.003
	c1.634-0.003,2.655-0.003,2.652,0.036c0.819-0.039,1.675-0.611,2.554-0.45c0.833-2.195,1.691-3.658,3.631-0.788
	c-0.291-6.431,0.5-8.531,5.26-3.124c-3.317-9.989-2.665-12.474,3.85-5.715c-5.42-11.856-4.977-14.472,1.34-6.339
	c-5.713-13.238-5.551-15.73,2.104-7.291c-7.683-13.048-7.872-15.164,1.805-7.104C329.873,398.111,329.262,396.624,340.838,406.521z"
	/>
<path fill="none" stroke="#231F20" stroke-miterlimit="10" d="M308.75,360.11c0,1.381-1.119,2.5-2.5,2.5s-2.501-1.119-2.508-2.506
	c-0.006-1.388,1.112-2.508,2.5-2.502C307.629,357.608,308.75,358.729,308.75,360.11z"/>
<circle fill="none" stroke="#231F20" stroke-miterlimit="10" cx="306.25" cy="433.75" r="2.5"/>
</svg>
