<?xml version="1.0" encoding="utf-8"?>
<!-- Generator: Adobe Illustrator 16.0.0, SVG Export Plug-In . SVG Version: 6.00 Build 0)  -->
<svg version="1.1" id="Layer_1" xmlns="http://www.w3.org/2000/svg" xmlns:xlink="http://www.w3.org/1999/xlink" x="0px" y="0px"
	 width="612px" height="792px" viewBox="0 0 612 792" enable-background="new 0 0 612 792" xml:space="preserve">
<path fill-opacity="0" fill="#231F20" d="M422,524.414H192V268.926c0,0,2.839,0,7.888,0c2.523,0,5.599-0.001,9.138-0.011
	c26.841-0.008,54.372-0.01,81.84-0.003c3.926,0.007,7.852,0.016,11.781,0.029c29.909-0.038,61.144-0.038,93.565-0.015
	c3.951,0,7.539,0,10.697,0c9.476,0,15.091,0,15.091,0V524.414z"/>
<path id="PRIMARY_7_" fill="#7CD5FF" stroke="#231F20" stroke-width="2.85" stroke-miterlimit="10" d="M403.083,424.868
	c-35.311-31.306-36.434-34.445,0.006-11.133c-40.031-33.352-42.496-40.255-9.132-38.245c-38.746-17.071-41.664-25.229-27.61-43.712
	c-19.438,3.42-21.906-3.481-22.566-12.267c-2.928-1.256-4.048-4.393-4.048-4.393c0-4.582-0.55-8.995-1.559-13.142
	c-1.01-4.148-2.484-8.026-4.343-11.536c-4.115-15.904-18.313-18.72-31.901-20.172c-2.989,0.402-5.795,1.352-8.403,2.738
	c-13.036,6.94-21.133,24.756-22.02,39.994c0,0-0.438,1.225-1.205,3.37s-1.862,5.208-4.004,6c-0.75,7.298-2.643,12.592-15.587,7.564
	c8.907,16.324,6.762,22.325-16.222,27.445c18.82,6.528,16.8,12.177-10.75,23.261c24.017-1.2,22.502,3.035-4.299,13.891
	c24.657-4.855,24.026-3.089-0.637,5.2c22.425-5.546,20.778-1.743,0.147,12.199c18.358-4.769,17.733,0.596,0.444,18.2
	c16.908-5.869,17.151,0.5,0.948,19.862c17.402-6.177,18.357,0.64,5.902,22.215c14.921-8.057,16.434-1.353,6.829,19.552
	c13.03-8.168,14.943-2.134,10.45,14.382c8.564-5.677,10.723-0.869,10.321,8.486c4.81-1.53,7.057,1.486,9.05,4.188
	c0.434,0.503,1.079,1.564,2.318,2.285c1.24,0.721,3.073,1.101,5.661,1.101c0,0,26.103,0,46.987,0c6.96,0,13.34,0,17.982,0.009
	c4.639-0.009,7.539-0.009,7.531,0.104c2.326-0.112,4.756-1.749,7.251-1.288c2.365-6.28,4.803-10.465,10.31-2.254
	c-0.826-18.396,1.42-24.405,14.936-8.938c-9.42-28.575-7.567-35.682,10.931-16.348c-15.39-33.917-14.131-41.397,3.805-18.133
	c-16.222-37.87-15.762-44.999,5.976-20.856c-21.814-37.325-22.353-43.379,5.125-20.32
	C371.948,400.81,370.212,396.554,403.083,424.868z"/>
<path fill="none" stroke="#231F20" stroke-width="2.85" stroke-miterlimit="10" d="M311.969,292.103c0,3.95-3.178,7.151-7.099,7.151
	s-7.102-3.201-7.121-7.168c-0.017-3.97,3.158-7.174,7.099-7.157C308.786,284.945,311.969,288.152,311.969,292.103z"/>
<ellipse fill="none" stroke="#231F20" stroke-width="2.85" stroke-miterlimit="10" cx="304.87" cy="502.759" rx="7.099" ry="7.151"/>
</svg>
