<?xml version="1.0" encoding="utf-8"?>
<!-- Generator: Adobe Illustrator 16.0.0, SVG Export Plug-In . SVG Version: 6.00 Build 0)  -->
<svg version="1.1" id="Layer_1" xmlns="http://www.w3.org/2000/svg" xmlns:xlink="http://www.w3.org/1999/xlink" x="0px" y="0px"
	 width="612px" height="792px" viewBox="0 0 612 792" enable-background="new 0 0 612 792" xml:space="preserve">
<rect id="body_frame_1_" x="231.5" y="301.5" fill-opacity="0" fill="#BBBCBE" width="151" height="191"/>
<path id="SECONDARY_3_" fill="#8C8900" stroke="#231F20" stroke-miterlimit="10" d="M378.333,461.018
	c0,17.106-14.295,30.975-31.938,30.975h-79.128c-17.635,0-31.934-13.868-31.934-30.975V332.99c0-17.106,14.299-30.974,31.934-30.974
	h79.128c17.643,0,31.938,13.868,31.938,30.974V461.018z"/>
<rect id="PRIMARY_83_" x="246" y="305" fill="#F1F1F1" stroke="#231F20" stroke-miterlimit="10" width="124.661" height="9"/>
<rect id="PRIMARY_82_" x="234.144" y="321.594" transform="matrix(0.9961 -0.0882 0.0882 0.9961 -27.4779 28.2316)" fill="#F1F1F1" stroke="#231F20" stroke-miterlimit="10" width="142.972" height="6.728"/>
<rect id="PRIMARY_81_" x="234.126" y="334.658" transform="matrix(0.9984 0.056 -0.056 0.9984 19.3387 -16.6701)" fill="#F1F1F1" stroke="#231F20" stroke-miterlimit="10" width="145.874" height="4.017"/>
<rect id="PRIMARY_80_" x="234" y="350.333" fill="#F1F1F1" stroke="#231F20" stroke-miterlimit="10" width="144.333" height="5.667"/>
<rect id="PRIMARY_79_" x="234.126" y="317" fill="#F1F1F1" stroke="#231F20" stroke-miterlimit="10" width="143.008" height="5.002"/>
<rect id="PRIMARY_78_" x="236.424" y="328.479" fill="#F1F1F1" stroke="#231F20" stroke-miterlimit="10" width="146.076" height="7.042"/>
<rect id="PRIMARY_77_" x="234" y="339" fill="#F1F1F1" stroke="#231F20" stroke-miterlimit="10" width="144.333" height="9.667"/>
<rect id="PRIMARY_76_" x="234" y="358" fill="#F1F1F1" stroke="#231F20" stroke-miterlimit="10" width="148.242" height="2.667"/>
<rect id="PRIMARY_75_" x="232.559" y="377" fill="#F1F1F1" stroke="#231F20" stroke-miterlimit="10" width="147.441" height="6.333"/>
<rect id="PRIMARY_74_" x="234" y="364" fill="#F1F1F1" stroke="#231F20" stroke-miterlimit="10" width="148.242" height="8.11"/>
<rect id="PRIMARY_73_" x="234" y="390.667" fill="#F1F1F1" stroke="#231F20" stroke-miterlimit="10" width="149" height="10"/>
<rect id="PRIMARY_72_" x="232.428" y="382.154" transform="matrix(0.9861 0.1664 -0.1664 0.9861 68.8172 -45.6625)" fill="#F1F1F1" stroke="#231F20" stroke-miterlimit="10" width="148.82" height="11.178"/>
<rect id="PRIMARY_71_" x="232.558" y="404" transform="matrix(0.99 -0.1413 0.1413 0.99 -54.6704 47.3763)" fill="#F1F1F1" stroke="#231F20" stroke-miterlimit="10" width="147.442" height="9.334"/>
<rect id="PRIMARY_70_" x="234" y="403" fill="#F1F1F1" stroke="#231F20" stroke-miterlimit="10" width="144.333" height="8"/>
<rect id="PRIMARY_69_" x="232.536" y="421.334" fill="#F1F1F1" stroke="#231F20" stroke-miterlimit="10" width="148.604" height="5"/>
<rect id="PRIMARY_68_" x="234" y="433" fill="#F1F1F1" stroke="#231F20" stroke-miterlimit="10" width="147.14" height="3.666"/>
<rect id="PRIMARY_67_" x="231" y="415.001" transform="matrix(-0.9915 0.1302 -0.1302 -0.9915 664.2919 797.9154)" fill="#F1F1F1" stroke="#231F20" stroke-miterlimit="10" width="150.14" height="11.333"/>
<rect id="PRIMARY_66_" x="229.273" y="350.444" transform="matrix(0.9821 0.1883 -0.1883 0.9821 72.6475 -51.3527)" fill="#F1F1F1" stroke="#231F20" stroke-miterlimit="10" width="154.517" height="12.276"/>
<rect id="PRIMARY_65_" x="229.041" y="358.16" transform="matrix(0.9252 -0.3794 0.3794 0.9252 -114.2122 144.1741)" fill="#F1F1F1" stroke="#231F20" stroke-miterlimit="10" width="159.207" height="7.337"/>
<rect id="PRIMARY_64_" x="231.5" y="438.004" fill="#F1F1F1" stroke="#231F20" stroke-miterlimit="10" width="150.23" height="10.565"/>
<rect id="PRIMARY_63_" x="234" y="454.818" fill="#F1F1F1" stroke="#231F20" stroke-miterlimit="10" width="148.242" height="2.599"/>
<rect id="PRIMARY_62_" x="244.969" y="481.266" fill="#F1F1F1" stroke="#231F20" stroke-miterlimit="10" width="129.698" height="6.067"/>
<rect id="PRIMARY_61_" x="236.288" y="457.89" transform="matrix(0.9726 -0.2325 0.2325 0.9726 -98.8947 84.6369)" fill="#F1F1F1" stroke="#231F20" stroke-miterlimit="10" width="146.541" height="7.824"/>
<rect id="PRIMARY_60_" x="235.333" y="463.372" fill="#F1F1F1" stroke="#231F20" stroke-miterlimit="10" width="132.334" height="9.061"/>
<rect id="PRIMARY_59_" x="233.603" y="450.667" fill="#F1F1F1" stroke="#231F20" stroke-miterlimit="10" width="148.64" height="4.151"/>
<rect id="PRIMARY_58_" x="232.706" y="454.692" transform="matrix(0.9688 0.2477 -0.2477 0.9688 123.5144 -61.9642)" fill="#F1F1F1" stroke="#231F20" stroke-miterlimit="10" width="150.557" height="10.272"/>
<rect id="PRIMARY_57_" x="242.299" y="465.233" transform="matrix(0.9901 -0.1403 0.1403 0.9901 -62.9133 48.3558)" fill="#F1F1F1" stroke="#231F20" stroke-miterlimit="10" width="138.334" height="10.209"/>
</svg>
