<?xml version="1.0" encoding="utf-8"?>
<!-- Generator: Adobe Illustrator 16.0.0, SVG Export Plug-In . SVG Version: 6.00 Build 0)  -->
<svg version="1.1" id="Layer_1" xmlns="http://www.w3.org/2000/svg" xmlns:xlink="http://www.w3.org/1999/xlink" x="0px" y="0px"
	 width="612px" height="792px" viewBox="0 0 612 792" enable-background="new 0 0 612 792" xml:space="preserve">
<rect id="body_frame_1_" x="208.979" y="269" fill="#BBBCBE" fill-opacity="0" width="202" height="256"/>
<path id="SECONDARY_3_" fill="#8C8900" stroke="#231F20" stroke-width="1.32" stroke-miterlimit="10" d="M399.852,482.804
	c0,22.929-18.584,41.517-41.52,41.517H255.473c-22.924,0-41.512-18.587-41.512-41.517V311.207c0-22.927,18.587-41.515,41.512-41.515
	h102.86c22.936,0,41.52,18.588,41.52,41.515L399.852,482.804L399.852,482.804z"/>
<rect id="PRIMARY_83_" x="227.828" y="273.691" fill="#F1F1F1" stroke="#231F20" stroke-width="1.32" stroke-miterlimit="10" width="162.049" height="12.063"/>
<polygon id="PRIMARY_82_" fill="#F1F1F1" stroke="#231F20" stroke-width="1.32" stroke-miterlimit="10" points="212.381,304.411 
	397.51,287.509 398.281,296.493 213.153,313.394 "/>
<polygon id="PRIMARY_81_" fill="#F1F1F1" stroke="#231F20" stroke-width="1.32" stroke-miterlimit="10" points="212.682,307.954 
	402.007,318.903 401.712,324.279 212.39,313.331 "/>
<rect id="PRIMARY_80_" x="212.229" y="334.451" fill="#F1F1F1" stroke="#231F20" stroke-width="1.32" stroke-miterlimit="10" width="187.623" height="7.596"/>
<rect id="PRIMARY_79_" x="212.392" y="289.774" fill="#F1F1F1" stroke="#231F20" stroke-width="1.32" stroke-miterlimit="10" width="185.9" height="6.704"/>
<rect id="PRIMARY_78_" x="215.379" y="305.161" fill="#F1F1F1" stroke="#231F20" stroke-width="1.32" stroke-miterlimit="10" width="189.889" height="9.438"/>
<rect id="PRIMARY_77_" x="212.229" y="319.262" fill="#F1F1F1" stroke="#231F20" stroke-width="1.32" stroke-miterlimit="10" width="187.623" height="12.957"/>
<rect id="PRIMARY_76_" x="212.229" y="344.728" fill="#F1F1F1" stroke="#231F20" stroke-width="1.32" stroke-miterlimit="10" width="192.704" height="3.575"/>
<rect id="PRIMARY_75_" x="210.355" y="370.193" fill="#F1F1F1" stroke="#231F20" stroke-width="1.32" stroke-miterlimit="10" width="191.664" height="8.488"/>
<rect id="PRIMARY_74_" x="212.229" y="352.77" fill="#F1F1F1" stroke="#231F20" stroke-width="1.32" stroke-miterlimit="10" width="192.704" height="10.87"/>
<rect id="PRIMARY_73_" x="212.229" y="388.512" fill="#F1F1F1" stroke="#231F20" stroke-width="1.32" stroke-miterlimit="10" width="193.69" height="13.402"/>
<polygon id="PRIMARY_72_" fill="#F1F1F1" stroke="#231F20" stroke-width="1.32" stroke-miterlimit="10" points="212.779,360.618 
	403.547,393.81 401.128,408.582 210.362,375.392 "/>
<polygon id="PRIMARY_71_" fill="#F1F1F1" stroke="#231F20" stroke-width="1.32" stroke-miterlimit="10" points="210.47,420.423 
	400.219,392.499 401.932,404.885 212.185,432.809 "/>
<rect id="PRIMARY_70_" x="212.229" y="405.042" fill="#F1F1F1" stroke="#231F20" stroke-width="1.32" stroke-miterlimit="10" width="187.623" height="10.723"/>
<rect id="PRIMARY_69_" x="210.325" y="429.614" fill="#F1F1F1" stroke="#231F20" stroke-width="1.32" stroke-miterlimit="10" width="193.175" height="6.703"/>
<rect id="PRIMARY_68_" x="212.229" y="445.251" fill="#F1F1F1" stroke="#231F20" stroke-width="1.32" stroke-miterlimit="10" width="191.271" height="4.914"/>
<polygon id="PRIMARY_67_" fill="#F1F1F1" stroke="#231F20" stroke-width="1.32" stroke-miterlimit="10" points="403.607,423.16 
	210.095,449.361 208.176,434.302 401.689,408.1 "/>
<polygon id="PRIMARY_66_" fill="#F1F1F1" stroke="#231F20" stroke-width="1.32" stroke-miterlimit="10" points="209.405,315.228 
	406.67,354.225 403.665,370.384 206.4,331.388 "/>
<polygon id="PRIMARY_65_" fill="#F1F1F1" stroke="#231F20" stroke-width="1.32" stroke-miterlimit="10" points="211.686,385.803 
	403.163,304.843 406.78,313.941 215.304,394.9 "/>
<rect id="PRIMARY_64_" x="208.979" y="451.958" fill="#F1F1F1" stroke="#231F20" stroke-width="1.32" stroke-miterlimit="10" width="195.289" height="14.161"/>
<rect id="PRIMARY_63_" x="212.229" y="474.495" fill="#F1F1F1" stroke="#231F20" stroke-width="1.32" stroke-miterlimit="10" width="192.704" height="3.482"/>
<rect id="PRIMARY_62_" x="226.486" y="509.943" fill="#F1F1F1" stroke="#231F20" stroke-width="1.32" stroke-miterlimit="10" width="168.598" height="8.131"/>
<polygon id="PRIMARY_61_" fill="#F1F1F1" stroke="#231F20" stroke-width="1.32" stroke-miterlimit="10" points="216.62,501.604 
	401.894,455.938 404.259,466.138 218.984,511.802 "/>
<rect id="PRIMARY_60_" x="213.961" y="485.959" fill="#F1F1F1" stroke="#231F20" stroke-width="1.32" stroke-miterlimit="10" width="172.024" height="12.145"/>
<rect id="PRIMARY_59_" x="211.713" y="468.931" fill="#F1F1F1" stroke="#231F20" stroke-width="1.32" stroke-miterlimit="10" width="193.222" height="5.564"/>
<polygon id="PRIMARY_58_" fill="#F1F1F1" stroke="#231F20" stroke-width="1.32" stroke-miterlimit="10" points="215.261,449.518 
	404.868,499.502 401.562,512.839 211.953,462.854 "/>
<polygon id="PRIMARY_57_" fill="#F1F1F1" stroke="#231F20" stroke-width="1.32" stroke-miterlimit="10" points="222.965,501.529 
	401.009,475.515 402.871,489.064 224.826,515.076 "/>
</svg>
