<?xml version="1.0" encoding="utf-8"?>
<!-- Generator: Adobe Illustrator 16.0.0, SVG Export Plug-In . SVG Version: 6.00 Build 0)  -->
<svg version="1.1" id="Layer_1" xmlns="http://www.w3.org/2000/svg" xmlns:xlink="http://www.w3.org/1999/xlink" x="0px" y="0px"
	 width="612px" height="792px" viewBox="0 0 612 792" enable-background="new 0 0 612 792" xml:space="preserve">
<rect id="head_frame" x="230.5" y="331.5" fill-opacity="0" fill="#BBBCBE" width="151" height="131"/>
<path id="PRIMARY" fill="#FF0000" stroke="#231F20" stroke-miterlimit="10" d="M323.59,437.473c0,5.814-8.202,10.527-18.321,10.527
	l0,0c-10.119,0-18.321-4.713-18.321-10.527v-20.665c0-5.814,8.202-10.527,18.321-10.527l0,0c10.119,0,18.321,4.713,18.321,10.527
	V437.473z"/>
<ellipse fill="#FFFFFF" stroke="#231F20" stroke-miterlimit="10" cx="313.55" cy="390.185" rx="4.296" ry="6.815"/>
<ellipse fill="#231F20" cx="315.329" cy="390.185" rx="0.889" ry="1.411"/>
<ellipse fill="#FFFFFF" stroke="#231F20" stroke-miterlimit="10" cx="295.455" cy="390.185" rx="4.296" ry="6.815"/>
<ellipse fill="#231F20" cx="297.233" cy="390.186" rx="0.889" ry="1.411"/>
<path id="SECONDARY_4_" fill="#960303" stroke="#231F20" stroke-miterlimit="10" d="M296.552,407.547v-10.779
	c-0.351,0.147-0.718,0.232-1.098,0.232s-0.747-0.085-1.098-0.232v11.598C295.056,408.066,295.78,407.786,296.552,407.547z"/>
<path id="SECONDARY_3_" fill="#960303" stroke="#231F20" stroke-miterlimit="10" d="M314.647,407.776v-11.009
	c-0.351,0.147-0.718,0.232-1.098,0.232s-0.747-0.085-1.098-0.232v10.354C313.216,407.309,313.941,407.533,314.647,407.776z"/>
<path id="SECONDARY" fill="#960303" stroke="#231F20" stroke-miterlimit="10" d="M334.656,429.734l-14.693-4.38l-14.694-4.38
	c0.755-2.534,4.084-3.969,8.496-4.053c0.63-0.012,1.282,0.004,1.937,0.023c0.687,0.067,1.374,0.139,2.053-0.49
	c0.725,0.832,1.439,0.961,2.67-0.044c0.217,1.325,0.95,1.515,2.848,0.265c-0.422,1.689,0.295,1.933,2.758,0.746
	c-1.077,1.712-0.407,1.994,2.488,0.863c-1.611,1.73-0.996,2.047,2.817,0.588c-2.644,2.119-2.09,2.464,3.202,2.126
	c-4.25,1.048-3.763,1.415,0.953,3.669c-3.815-1.506-3.401-1.124-0.74,1.303c-1.914-1.652-1.581-1.261-0.253,0.252
	c-0.748-0.725-0.501-0.329-0.181,0.223c0.081,0.238,0.234,0.633,0.339,1.021C334.863,428.247,334.872,429.011,334.656,429.734z"/>
<rect id="SECONDARY_2_" x="289.641" y="381.229" fill="#960303" stroke="#231F20" stroke-miterlimit="10" width="11.627" height="3"/>
<rect id="SECONDARY_1_" x="307.736" y="381.229" fill="#960303" stroke="#231F20" stroke-miterlimit="10" width="11.627" height="3"/>
</svg>
