<?xml version="1.0" encoding="utf-8"?>
<!-- Generator: Adobe Illustrator 16.0.0, SVG Export Plug-In . SVG Version: 6.00 Build 0)  -->
<svg version="1.1" id="Layer_1" xmlns="http://www.w3.org/2000/svg" xmlns:xlink="http://www.w3.org/1999/xlink" x="0px" y="0px"
	 width="612px" height="792px" viewBox="0 0 612 792" enable-background="new 0 0 612 792" xml:space="preserve">
<rect id="head_frame" x="179" y="285" fill-opacity="0" fill="#BBBCBE" width="256" height="222"/>
<path id="PRIMARY" fill="#FF0000" stroke="#231F20" stroke-width="1.695" stroke-miterlimit="10" d="M336.821,464.587
	c0,9.854-13.905,17.841-31.062,17.841l0,0c-17.155,0-31.061-7.987-31.061-17.841v-35.02c0-9.854,13.906-17.841,31.061-17.841l0,0
	c17.156,0,31.062,7.987,31.062,17.841V464.587z"/>
<ellipse id="PRIMARY_2_" fill="#FF0000" stroke="#231F20" stroke-width="1.695" stroke-miterlimit="10" cx="289.122" cy="384.451" rx="7.284" ry="11.549"/>
<path id="SECONDARY_4_" fill="#960303" stroke="#231F20" stroke-width="1.695" stroke-miterlimit="10" d="M290.982,413.873v-18.267
	c-0.595,0.249-1.217,0.394-1.861,0.394s-1.267-0.145-1.861-0.394v19.654C288.445,414.754,289.674,414.278,290.982,413.873z"/>
<path id="SECONDARY_3_" fill="#960303" stroke="#231F20" stroke-width="1.695" stroke-miterlimit="10" d="M321.66,414.262v-18.656
	c-0.594,0.249-1.217,0.394-1.86,0.394c-0.645,0-1.267-0.145-1.861-0.394v17.547C319.233,413.47,320.464,413.851,321.66,414.262z"/>
<path id="SECONDARY" fill="#960303" stroke="#231F20" stroke-width="1.695" stroke-miterlimit="10" d="M355.583,451.474
	l-24.911-7.423l-24.912-7.422c1.28-4.295,6.924-6.726,14.404-6.868c1.067-0.02,2.174,0.007,3.283,0.04
	c1.164,0.114,2.329,0.234,3.479-0.831c1.229,1.41,2.44,1.628,4.527-0.074c0.367,2.245,1.61,2.566,4.827,0.448
	c-0.715,2.863,0.5,3.275,4.676,1.265c-1.826,2.9-0.69,3.379,4.219,1.463c-2.732,2.933-1.689,3.469,4.776,0.996
	c-4.481,3.591-3.543,4.175,5.429,3.603c-7.205,1.776-6.379,2.398,1.616,6.218c-6.469-2.552-5.767-1.905-1.255,2.208
	c-3.245-2.801-2.681-2.137-0.43,0.427c-1.268-1.229-0.849-0.558-0.306,0.377c0.138,0.404,0.397,1.072,0.574,1.731
	C355.934,448.953,355.948,450.247,355.583,451.474z"/>
<rect id="SECONDARY_2_" x="272.485" y="360.801" transform="matrix(0.783 -0.622 0.622 0.783 -164.7348 254.4469)" fill="#960303" stroke="#231F20" stroke-width="1.695" stroke-miterlimit="10" width="19.708" height="5.085"/>
<rect id="SECONDARY_1_" x="316.565" y="360.801" transform="matrix(-0.783 -0.622 0.622 -0.783 356.0117 850.8794)" fill="#960303" stroke="#231F20" stroke-width="1.695" stroke-miterlimit="10" width="19.708" height="5.085"/>
<line fill="none" stroke="#231F20" stroke-width="1.695" stroke-miterlimit="10" x1="283.2" y1="377.744" x2="295.38" y2="390.338"/>
<ellipse id="PRIMARY_1_" fill="#FF0000" stroke="#231F20" stroke-width="1.695" stroke-miterlimit="10" cx="319.799" cy="384.452" rx="7.284" ry="11.548"/>
<line fill="none" stroke="#231F20" stroke-width="1.695" stroke-miterlimit="10" x1="325.721" y1="377.744" x2="313.54" y2="390.338"/>
</svg>
