<?xml version="1.0" encoding="utf-8"?>
<!-- Generator: Adobe Illustrator 16.0.0, SVG Export Plug-In . SVG Version: 6.00 Build 0)  -->
<svg version="1.1" id="Layer_1" xmlns="http://www.w3.org/2000/svg" xmlns:xlink="http://www.w3.org/1999/xlink" x="0px" y="0px"
	 width="612px" height="792px" viewBox="0 0 612 792" enable-background="new 0 0 612 792" xml:space="preserve">
<rect id="head_frame" x="231.5" y="330.5" fill-opacity="0" fill="#BBBCBE" width="151" height="131"/>
<path id="PRIMARY" fill="#FF0000" stroke="#231F20" stroke-miterlimit="10" d="M324.59,436.473c0,5.814-8.202,10.527-18.321,10.527
	l0,0c-10.119,0-18.321-4.713-18.321-10.527v-20.665c0-5.814,8.202-10.527,18.321-10.527l0,0c10.119,0,18.321,4.713,18.321,10.527
	V436.473z"/>
<ellipse id="PRIMARY_2_" fill="#FF0000" stroke="#231F20" stroke-miterlimit="10" cx="296.455" cy="389.185" rx="4.296" ry="6.815"/>
<path id="SECONDARY_4_" fill="#960303" stroke="#231F20" stroke-miterlimit="10" d="M297.552,406.547v-10.779
	c-0.351,0.147-0.718,0.232-1.098,0.232s-0.747-0.085-1.098-0.232v11.598C296.056,407.066,296.78,406.786,297.552,406.547z"/>
<path id="SECONDARY_3_" fill="#960303" stroke="#231F20" stroke-miterlimit="10" d="M315.647,406.776v-11.009
	c-0.351,0.147-0.718,0.232-1.098,0.232s-0.747-0.085-1.098-0.232v10.354C314.216,406.309,314.941,406.533,315.647,406.776z"/>
<path id="SECONDARY" fill="#960303" stroke="#231F20" stroke-miterlimit="10" d="M335.656,428.734l-14.693-4.38l-14.694-4.38
	c0.755-2.534,4.084-3.969,8.496-4.053c0.63-0.012,1.282,0.004,1.937,0.023c0.687,0.067,1.374,0.139,2.053-0.49
	c0.725,0.832,1.439,0.961,2.67-0.044c0.217,1.325,0.95,1.515,2.848,0.265c-0.422,1.689,0.295,1.933,2.758,0.746
	c-1.077,1.712-0.407,1.994,2.488,0.863c-1.611,1.73-0.996,2.047,2.817,0.588c-2.644,2.119-2.09,2.464,3.202,2.126
	c-4.25,1.048-3.763,1.415,0.953,3.669c-3.815-1.506-3.401-1.124-0.74,1.303c-1.914-1.652-1.581-1.261-0.253,0.252
	c-0.748-0.725-0.501-0.329-0.181,0.223c0.081,0.238,0.234,0.633,0.339,1.021C335.863,427.247,335.872,428.011,335.656,428.734z"/>
<rect id="SECONDARY_2_" x="286.641" y="375.23" transform="matrix(0.7829 -0.6221 0.6221 0.7829 -170.8886 263.7338)" fill="#960303" stroke="#231F20" stroke-miterlimit="10" width="11.627" height="3"/>
<rect id="SECONDARY_1_" x="312.641" y="375.23" transform="matrix(-0.7829 -0.6221 0.6221 -0.7829 333.3945 869.7963)" fill="#960303" stroke="#231F20" stroke-miterlimit="10" width="11.627" height="3"/>
<line fill="none" stroke="#231F20" stroke-miterlimit="10" x1="292.962" y1="385.228" x2="300.146" y2="392.659"/>
<ellipse id="PRIMARY_1_" fill="#FF0000" stroke="#231F20" stroke-miterlimit="10" cx="314.549" cy="389.186" rx="4.296" ry="6.814"/>
<line fill="none" stroke="#231F20" stroke-miterlimit="10" x1="318.042" y1="385.228" x2="310.857" y2="392.659"/>
</svg>
