<?xml version="1.0" encoding="utf-8"?>
<!-- Generator: Adobe Illustrator 16.0.0, SVG Export Plug-In . SVG Version: 6.00 Build 0)  -->
<svg version="1.1" id="Layer_1" xmlns="http://www.w3.org/2000/svg" xmlns:xlink="http://www.w3.org/1999/xlink" x="0px" y="0px"
	 width="612px" height="792px" viewBox="0 0 612 792" enable-background="new 0 0 612 792" xml:space="preserve">
<rect x="266.5" y="352.008" fill-opacity="0" fill="#231F20" width="81" height="89.313"/>
<path id="PRIMARY_2_" fill="#FF0000" stroke="#231F20" stroke-miterlimit="10" d="M337.75,396.663
	c0,24.663-14.099,44.657-31.5,44.657c-6.328,0-12.219-2.644-17.154-7.194c-1.234-1.138-2.408-2.396-3.607-3.454
	c-1.014-1.67-2.052-3.143-5.214-2.658c1.238-3.621,0.351-5.285-5.094-5.893c3.84-2.891,3.122-4.725-2.737-7.469
	c4.607-1.07,4.073-3.05-1.021-6.717c4.228-0.416,3.894-2.52-0.814-6.351c4.258-0.476,4.142-2.68-0.806-7.01
	c4.948-0.154,5.064-2.358-0.123-7.916c5.638,1.251,5.971-0.852,1.696-7.62c5.142,2.685,5.676,0.705,1.733-6.607
	c5.195,3.498,5.914,1.664,1.768-6.771c5.75,4.938,6.637,3.273,5.195-5.667c3.366,5.804,4.404,4.332,5.632-2.22
	c0.985,3.823,2.159,2.566,3.675,0.025c0.951,0.266,2.245-0.753,3.59-1.641c4.035-2.663,8.536-4.15,13.281-4.15
	C323.651,352.007,337.75,372,337.75,396.663z"/>
<circle fill="none" stroke="#231F20" stroke-miterlimit="10" cx="306.25" cy="360.11" r="2.5"/>
<circle fill="none" stroke="#231F20" stroke-miterlimit="10" cx="306.25" cy="433.75" r="2.5"/>
</svg>
