<?xml version="1.0" encoding="utf-8"?>
<!-- Generator: Adobe Illustrator 16.0.0, SVG Export Plug-In . SVG Version: 6.00 Build 0)  -->
<svg version="1.1" id="Layer_1" xmlns="http://www.w3.org/2000/svg" xmlns:xlink="http://www.w3.org/1999/xlink" x="0px" y="0px"
	 width="612px" height="792px" viewBox="0 0 612 792" enable-background="new 0 0 612 792" xml:space="preserve">
<rect x="202" y="304.248" fill-opacity="0" fill="#231F20" width="256" height="172"/>
<path id="PRIMARY" fill="#FF0000" stroke="#231F20" stroke-width="3.1586" stroke-miterlimit="10" d="M397.531,372.693
	c-3.297-38.109-25.568-39.371-51.732-50.307c1.254,2.539,4.016,4.028,7.855,5.204c-0.013,4.184,2.312,7.726,4.531,11.617
	c0.993,3.969,1.879,8.294,1.879,12.83c0,12.527-6.777,23.401-16.731,28.936c-2.237,1.246-4.63,2.204-6.981,3.006
	c1.361,4.624,2.46,7.861,2.861,8.715c10.63,22.602,3.266,48.179,0.667,61.232c1.284,2.725,2.562,5.277,3.747,7.605
	c0.617-0.349,1.28-0.75,2.052-1.283C382.571,434.81,400.979,412.473,397.531,372.693z"/>
</svg>
