<?xml version="1.0" encoding="utf-8"?>
<!-- Generator: Adobe Illustrator 16.0.0, SVG Export Plug-In . SVG Version: 6.00 Build 0)  -->
<svg version="1.1" id="Layer_1" xmlns="http://www.w3.org/2000/svg" xmlns:xlink="http://www.w3.org/1999/xlink" x="0px" y="0px"
	 width="612px" height="792px" viewBox="0 0 612 792" enable-background="new 0 0 612 792" xml:space="preserve">
<rect x="183" y="286.004" fill-opacity="0" fill="#231F20" width="256" height="170.487"/>
<path id="SECONDARY_12_" fill="#960303" stroke="#231F20" stroke-width="3.1447" stroke-miterlimit="10" d="M311.346,383.902
	c0.164-0.724,0.407-2.891,0.642-6.059c0.235-3.163,0.463-7.331,1.111-11.599c3.226-0.95,6.76-2.167,9.957-3.963
	c9.58-5.381,16.099-15.953,16.099-28.133c0-4.409-0.852-8.614-1.809-12.473c-2.133-3.783-4.37-7.227-4.358-11.295
	c-5.533-1.711-8.823-4.05-8.228-9.589c-7.901,2.306-11.914,1.41-11.68-6.545c-7.756,7.955-10.935,8.51-10.45-2.206
	c-6.438,12.756-9.212,14.242-10.651,0.436c-3.549,17.551-5.766,19.806-10.956,2.918c-0.824,22.166-4.917,24.628-20.605,14.099
	c7.875,15.318,4.155,17.646-7.997,16.39c5.329,6.148,2.224,8.718-2.121,11.434c-1.003,3.046-3.245,6.243-4.937,9.934
	c-3.381,7.382-4.553,16.775-2.537,29.688c6.458,41.416,32.196,59.973,78.818,77.433
	C345.611,463.342,302.071,425.056,311.346,383.902z"/>
</svg>
