<?xml version="1.0" encoding="utf-8"?>
<!-- Generator: Adobe Illustrator 16.0.0, SVG Export Plug-In . SVG Version: 6.00 Build 0)  -->
<svg version="1.1" id="Layer_1" xmlns="http://www.w3.org/2000/svg" xmlns:xlink="http://www.w3.org/1999/xlink" x="0px" y="0px"
	 width="612px" height="792px" viewBox="0 0 612 792" enable-background="new 0 0 612 792" xml:space="preserve">
<rect x="192" y="270.068" fill-opacity="0" fill="#231F20" width="230" height="253.194"/>
<path id="PRIMARY_2_" fill="#FF0000" stroke="#231F20" stroke-width="2.8372" stroke-miterlimit="10" d="M394.315,396.662
	c0,69.918-40.033,126.6-89.445,126.6c-17.967,0-34.696-7.494-48.708-20.396c-3.503-3.226-6.838-6.791-10.242-9.791
	c-2.879-4.735-5.826-8.91-14.806-7.536c3.514-10.266,0.997-14.982-14.464-16.705c10.905-8.195,8.866-13.395-7.772-21.174
	c13.081-3.034,11.566-8.646-2.901-19.041c12.004-1.18,11.057-7.143-2.313-18.004c12.091-1.348,11.762-7.596-2.29-19.872
	c14.051-0.437,14.381-6.684-0.349-22.441c16.008,3.548,16.955-2.415,4.815-21.603c14.601,7.612,16.118,1.999,4.922-18.73
	c14.752,9.917,16.792,4.717,5.021-19.197c16.327,13.998,18.845,9.279,14.752-16.067c9.559,16.453,12.506,12.279,15.992-6.294
	c2.797,10.837,6.131,7.274,10.436,0.07c2.701,0.753,6.375-2.134,10.195-4.651c11.458-7.549,24.237-11.766,37.712-11.766
	C354.282,270.065,394.315,326.744,394.315,396.662z"/>
<ellipse fill="none" stroke="#231F20" stroke-width="2.8372" stroke-miterlimit="10" cx="304.871" cy="293.037" rx="7.099" ry="7.087"/>
<ellipse fill="none" stroke="#231F20" stroke-width="2.8372" stroke-miterlimit="10" cx="304.871" cy="501.802" rx="7.099" ry="7.087"/>
</svg>
