<?xml version="1.0" encoding="utf-8"?>
<!-- Generator: Adobe Illustrator 16.0.0, SVG Export Plug-In . SVG Version: 6.00 Build 0)  -->
<svg version="1.1" id="Layer_1" xmlns="http://www.w3.org/2000/svg" xmlns:xlink="http://www.w3.org/1999/xlink" x="0px" y="0px"
	 width="612px" height="792px" viewBox="0 0 612 792" enable-background="new 0 0 612 792" xml:space="preserve">
<rect x="183" y="285.565" fill-opacity="0" fill="#231F20" width="256" height="171.364"/>
<path id="SECONDARY_12_" fill="#960303" stroke="#231F20" stroke-width="3.1528" stroke-miterlimit="10" d="M311.346,383.967
	c0.164-0.728,0.407-2.905,0.642-6.09c0.235-3.179,0.463-7.368,1.111-11.659c3.226-0.955,6.76-2.177,9.957-3.983
	c9.58-5.409,16.099-16.036,16.099-28.278c0-4.432-0.852-8.658-1.809-12.537c-2.133-3.802-4.37-7.264-4.358-11.353
	c-5.533-1.72-8.823-4.071-8.228-9.638c-7.901,2.317-11.914,1.417-11.68-6.579c-7.756,7.996-10.935,8.554-10.45-2.218
	c-6.438,12.821-9.212,14.315-10.651,0.438c-3.549,17.642-5.766,19.909-10.956,2.934c-0.824,22.279-4.917,24.755-20.605,14.171
	c7.875,15.396,4.155,17.737-7.997,16.475c5.329,6.179,2.224,8.762-2.121,11.493c-1.003,3.062-3.245,6.275-4.937,9.985
	c-3.381,7.42-4.553,16.861-2.537,29.841c6.458,41.629,32.196,60.281,78.818,77.83C345.611,463.815,302.071,425.332,311.346,383.967z
	"/>
</svg>
