<?xml version="1.0" encoding="utf-8"?>
<!-- Generator: Adobe Illustrator 16.0.0, SVG Export Plug-In . SVG Version: 6.00 Build 0)  -->
<svg version="1.1" id="Layer_1" xmlns="http://www.w3.org/2000/svg" xmlns:xlink="http://www.w3.org/1999/xlink" x="0px" y="0px"
	 width="612px" height="792px" viewBox="0 0 612 792" enable-background="new 0 0 612 792" xml:space="preserve">
<rect x="179.188" y="272.486" fill-opacity="0" fill="#231F20" width="255.625" height="248.536"/>
<path id="SECONDARY_11_" fill="#960303" stroke="#231F20" stroke-width="3.1669" stroke-miterlimit="10" d="M433.185,408.745
	c0,59.953-54.857,108.557-122.526,108.557S188.13,468.698,188.13,408.745c-0.001-5.45,0.453-10.807,1.325-16.041
	c0.877-5.235,2.176-10.348-0.763-15.59c6.312-4.684,8.391-9.497,1.897-18.755c11.364-0.014,14.16-4.472,9.882-18.014
	c10.52,5.038,13.968,0.991,13.301-13.713c8.155,7.079,12.195,3.5,14.195-9.964c6.606,6.831,11.174,3.775,14.658-7.71
	c6.115,5.956,11.146,3.479,15.621-6.921c5.99,6.083,11.423,4.243,16.989-6.389c5.638,7.643,11.409,6.493,18.675-4.591
	c4.55,9.534,10.597,9.132,20.009-4.319c2.891,13.451,8.938,13.853,22.97-4.685c-2.217,20.087,3.556,21.237,27.939-3.302
	c-13.181,27.528-7.747,29.368,35.553,10.91c-32.834,22.775-27.805,25.252,11.872,29.144c-30.079,1.639-25.512,4.694-4.324,15.539
	c-12.58-4.211-8.54-0.633-2.715,4.763c1.664,2.229,5.109,6.276,8.231,10.528C425.93,366.645,433.185,386.944,433.185,408.745z"/>
</svg>
