<?xml version="1.0" encoding="utf-8"?>
<!-- Generator: Adobe Illustrator 16.0.0, SVG Export Plug-In . SVG Version: 6.00 Build 0)  -->
<svg version="1.1" id="Layer_1" xmlns="http://www.w3.org/2000/svg" xmlns:xlink="http://www.w3.org/1999/xlink" x="0px" y="0px"
	 width="612px" height="792px" viewBox="0 0 612 792" enable-background="new 0 0 612 792" xml:space="preserve">
<rect id="body_frame" x="205" y="268.036" fill-opacity="0" fill="#BBBCBE" width="202" height="256"/>
<path id="PRIMARY_17_" fill="#FFFA00" stroke="#231F20" stroke-width="1.3388" stroke-miterlimit="10" d="M394.444,483.98
	c0,22.075,1.429,39.306-20.735,39.306H238.374c-22.165,0-21.182-17.23-21.182-39.306V309.446c0-22.075,17.968-39.97,40.133-39.97
	h96.986c22.165,0,40.133,17.895,40.133,39.97V483.98z"/>
<path fill="#350000" stroke="#000000" stroke-width="1.3388" stroke-miterlimit="10" d="M373.087,455.525
	c-1.893,11.187,0,19.356-30.051,19.356l-72.514-0.589c-19.117-1.075-31.61-3.522-31.21-18.768l-0.4-51.025
	c0-8.826,11.944,2.767,31.389,2.767h72.764c19.444,0,29.835-3.69,29.835,5.137L373.087,455.525z"/>
<path fill="#FFFFFF" d="M304.6,407.267c-0.38,0.95-0.389,2.437-0.389,4.794v5.915c0,7.838,4.517,7.03,10.089,7.03
	c5.571,0,10.089,1.616,10.089-7.03v-5.915c0-2.357-0.009-3.844-0.389-4.794H304.6z"/>
<path d="M366.305,470.917c0,0-2.229,5.415-58.238,3.294l-1.795,0.223c-28.705-1.896-69.228,5.695-66.967-20.098l-0.392-8.509
	c1.141-17.677-1.813-14.997,3.817-15.219c9.325-0.369,23.311-0.392,23.311-0.392l38.17-0.894
	c58.764,2.01,68.876,19.183,68.876,26.353L371.601,465l-2.54,3.711L366.305,470.917z"/>
<path fill="#350000" d="M305.253,444.702c0,2.603-2.492,4.714-5.568,4.714c-2.691,0-4.936-1.616-5.455-3.764
	c-0.074-0.308-0.133-0.618-0.192-0.931c-0.94-2.742,1.1-4.786,3-5.565c0.104-0.313,0.197-0.629,0.281-0.948
	c0.993-3.837-0.093-10.94,1.9-11.556c3.024,1.012,0.906,7.719,2.178,11.556c0.104,0.32,0.222,0.636,0.355,0.95
	c1.547,0.777,3.587,1.798,3.449,4.901C305.234,444.271,305.253,444.485,305.253,444.702z"/>
<path id="SECONDARY_1_" fill="#C802FF" d="M308.835,474.676c-0.519-0.007-1.144-0.014-1.856-0.022
	c-2.137-0.023-5.056-0.049-8.185-0.049l0,0c-6.255,0-11.645-0.094-11.645-0.094s0.006-0.479,0.039-1.338
	c0.066-0.617,0.162-1.229,0.285-1.838c0.124-0.614,0.273-1.224,0.458-1.844c0.228-0.543,0.464-1.089,0.709-1.642
	c5.278-19.028,19.107-29.552,37.005-30.59c0.813-0.049,1.637-0.075,2.465-0.08c1.3,0.155,2.722,0.109,4.188,0.102
	c0.487-0.002,0.979,0,1.471,0.016c3.346,0.452,5.471,0.452,7.477,5.525c0.054,0.548,0.079,1.148,0.092,1.815
	c0.027,10.135-12.719,5.878-17.344,11.506c-0.874,0.38-1.842,1.1-2.624,1.866c-0.78,0.767-1.373,1.581-1.496,2.146
	c-0.212,0.234-0.396,0.481-0.558,0.737c-3.422,5.387,2.903,15.078-7.427,13.672C311.072,474.776,309.106,474.678,308.835,474.676z"
	/>
<path id="SECONDARY_2_" fill="#C802FF" stroke="#000000" stroke-width="1.3388" stroke-miterlimit="10" d="M369.008,331.046
	c-1.384,1.659-1.384,4.976,0,4.976c6.914-3.317,12.445,6.634,11.063,11.609c-1.383,2.488-2.766,4.561-4.455,6.178
	c-0.339,0.323-0.688,0.628-1.053,0.915c-3.013,2.418-7.026,3.758-10.157,5.654c-0.359,0.116-0.729,0.22-1.114,0.308
	c-0.385,0.087-0.784,0.16-1.199,0.214c-8.297,0-16.596-4.976-20.5-12.54c-0.843-0.611-1.584-0.937-2.32-1.207
	c-1.306-0.054-2.629-0.082-3.969-0.082c-7.958,0-15.352,0.974-21.509,2.643c-6.158-1.669-13.553-2.643-21.51-2.643
	c-1.34,0-2.664,0.027-3.97,0.082c-0.735,0.27-1.476,0.595-2.319,1.207c-3.905,7.564-12.203,12.54-20.5,12.54
	c-0.415-0.055-0.814-0.127-1.199-0.214c-0.385-0.088-0.756-0.191-1.112-0.309c-4.005-1.895-6.68-3.234-10.159-5.653
	c-0.365-0.286-0.715-0.591-1.053-0.915c-1.689-1.617-3.073-3.69-4.456-6.178c-1.383-4.975,4.149-14.926,11.064-11.609
	c1.383,0,1.383-3.317,0-4.976c-9.681-8.292-17.979,4.976-14.828,17.097c0.053,0.9,0.152,1.811,0.293,2.726
	c0.141,0.914,0.321,1.83,0.537,2.742c2.934,7.29,7.083,12.265,11.934,15.379c0.981,0.943,2.184,1.84,3.579,2.68
	c6.976,4.196,18.791,6.955,32.189,6.955c7.957,0,15.352-0.974,21.51-2.643c6.157,1.669,13.551,2.643,21.509,2.643
	c13.398,0,25.213-2.759,32.189-6.955c1.396-0.839,2.597-1.736,3.578-2.68c4.852-3.114,9-8.089,11.934-15.379
	c0.216-0.912,0.397-1.828,0.537-2.742c0.142-0.915,0.24-1.825,0.294-2.726C386.984,336.022,378.688,322.754,369.008,331.046z"/>
<path id="PRIMARY_2_" fill="#FFFA00" stroke="#231F20" stroke-width="1.3388" stroke-miterlimit="10" d="M289.412,355.029
	c105.051,8.813,48.87-37.76,12.95-74.729"/>
<path id="PRIMARY_1_" fill="#FFFA00" stroke="#231F20" stroke-width="1.3388" stroke-miterlimit="10" d="M292.206,331.362
	c-19.759,2.504-9.071,33.592,9.056,21.681"/>
<path fill="#231F20" d="M326.694,349.284c5.458,7.78-6.634,6.56-14.846,6.572c-9.598,0.014-15.013,0.667-13.568-3.905
	c1.087-3.442,5.371-9.242,13.568-9.242C320.049,342.709,324.651,346.374,326.694,349.284z"/>
<path fill="none" stroke="#231F20" stroke-width="1.3388" stroke-miterlimit="10" d="M278.207,494.24
	c0,0.269,17.793,32.269,35.587,0.483"/>
<path fill="none" stroke="#231F20" stroke-width="1.3388" stroke-miterlimit="10" d="M313.794,494.24
	c0,0.269,17.792,32.269,35.585,0.483"/>
</svg>
