<?xml version="1.0" encoding="utf-8"?>
<!-- Generator: Adobe Illustrator 16.0.0, SVG Export Plug-In . SVG Version: 6.00 Build 0)  -->
<svg version="1.1" id="Layer_1" xmlns="http://www.w3.org/2000/svg" xmlns:xlink="http://www.w3.org/1999/xlink" x="0px" y="0px"
	 width="612px" height="792px" viewBox="0 0 612 792" enable-background="new 0 0 612 792" xml:space="preserve">
<rect id="body_frame" x="230.5" y="300.5" fill-opacity="0" fill="#BBBCBE" width="151" height="191"/>
<path class="primary_color" id="PRIMARY_17_" fill="#FFFA00" stroke="#231F20" stroke-miterlimit="10" d="M372.114,461.66
	c0,16.475,1.068,29.334-15.5,29.334H255.448c-16.568,0-15.833-12.859-15.833-29.334V331.404c0-16.475,13.432-29.83,30-29.83h72.5
	c16.568,0,30,13.355,30,29.83V461.66z"/>
<path fill="#350000" stroke="#000000" stroke-miterlimit="10" d="M356.149,440.424c-1.415,8.349,0,14.446-22.464,14.446
	l-54.206-0.439c-14.29-0.803-23.629-2.629-23.33-14.007l-0.299-38.08c0-6.587,8.929,2.064,23.464,2.064h54.393
	c14.535,0,22.303-2.754,22.303,3.834L356.149,440.424z"/>
<path fill="#FFFFFF" d="M304.953,404.408c-0.284,0.709-0.291,1.818-0.291,3.578v4.414c0,5.85,3.377,5.247,7.542,5.247
	s7.542,1.206,7.542-5.247v-4.414c0-1.76-0.007-2.869-0.291-3.578H304.953z"/>
<path d="M351.079,451.911c0,0-1.666,4.041-43.534,2.458l-1.342,0.166c-21.458-1.415-51.75,4.251-50.06-14.999l-0.293-6.35
	c0.853-13.192-1.355-11.192,2.853-11.358c6.971-0.275,17.425-0.292,17.425-0.292l28.533-0.667
	c43.928,1.5,51.487,14.316,51.487,19.667l-1.111,6.959l-1.898,2.77L351.079,451.911z"/>
<path fill="#350000" d="M305.441,432.347c0,1.942-1.862,3.518-4.162,3.518c-2.012,0-3.689-1.206-4.077-2.809
	c-0.056-0.229-0.1-0.461-0.144-0.694c-0.703-2.047,0.822-3.572,2.242-4.153c0.078-0.233,0.147-0.47,0.21-0.708
	c0.742-2.863-0.069-8.165,1.42-8.624c2.261,0.755,0.678,5.761,1.628,8.624c0.078,0.239,0.166,0.475,0.266,0.709
	c1.156,0.58,2.682,1.342,2.578,3.658C305.428,432.025,305.441,432.185,305.441,432.347z"/>
<path class="secondary_color" id="SECONDARY_1_" fill="#C802FF" d="M308.119,454.716c-0.388-0.005-0.854-0.01-1.388-0.017
	c-1.598-0.018-3.779-0.036-6.118-0.036l0,0c-4.676,0-8.705-0.07-8.705-0.07s0.005-0.357,0.029-0.998
	c0.05-0.461,0.121-0.918,0.213-1.372c0.093-0.458,0.204-0.913,0.343-1.376c0.17-0.405,0.347-0.813,0.53-1.225
	c3.945-14.201,14.283-22.055,27.662-22.83c0.607-0.036,1.224-0.056,1.843-0.06c0.972,0.116,2.034,0.082,3.131,0.076
	c0.364-0.002,0.731,0,1.1,0.012c2.501,0.337,4.089,0.337,5.589,4.123c0.04,0.409,0.059,0.857,0.068,1.355
	c0.021,7.563-9.508,4.387-12.965,8.587c-0.653,0.283-1.377,0.82-1.962,1.393c-0.583,0.572-1.026,1.18-1.118,1.602
	c-0.158,0.175-0.296,0.359-0.417,0.551c-2.558,4.02,2.171,11.253-5.552,10.203C309.792,454.791,308.322,454.718,308.119,454.716z"/>
<path class="secondary_color" id="SECONDARY_2_" fill="#C802FF" stroke="#000000" stroke-miterlimit="10" d="M353.1,347.525
	c-1.034,1.238-1.034,3.713,0,3.713c5.169-2.476,9.304,4.951,8.27,8.664c-1.033,1.856-2.067,3.404-3.33,4.61
	c-0.253,0.241-0.515,0.469-0.787,0.683C355,367,352,368,349.659,369.415c-0.269,0.087-0.545,0.164-0.833,0.229
	c-0.287,0.065-0.586,0.119-0.896,0.16c-6.202,0-12.405-3.713-15.324-9.358c-0.63-0.456-1.184-0.699-1.734-0.9
	c-0.976-0.041-1.965-0.061-2.967-0.061c-5.948,0-11.476,0.727-16.078,1.973c-4.604-1.246-10.131-1.973-16.079-1.973
	c-1.002,0-1.991,0.021-2.968,0.061c-0.55,0.201-1.104,0.444-1.733,0.9c-2.919,5.645-9.122,9.358-15.325,9.358
	c-0.31-0.041-0.609-0.095-0.896-0.16s-0.565-0.143-0.831-0.23C271,368,269,367,266.4,365.195c-0.273-0.213-0.535-0.441-0.788-0.683
	c-1.263-1.207-2.297-2.754-3.331-4.61c-1.034-3.713,3.102-11.14,8.271-8.664c1.034,0,1.034-2.476,0-3.713
	c-7.237-6.189-13.439,3.713-11.084,12.759c0.04,0.672,0.114,1.352,0.219,2.034c0.105,0.682,0.24,1.366,0.401,2.046
	c2.193,5.44,5.294,9.154,8.921,11.478c0.734,0.704,1.632,1.374,2.675,2c5.214,3.131,14.046,5.19,24.062,5.19
	c5.948,0,11.476-0.727,16.079-1.973c4.603,1.246,10.13,1.973,16.078,1.973c10.016,0,18.848-2.059,24.063-5.19
	c1.043-0.626,1.941-1.296,2.675-2c3.627-2.324,6.728-6.037,8.921-11.478c0.161-0.68,0.297-1.364,0.401-2.046
	c0.105-0.683,0.18-1.362,0.22-2.034C366.538,351.238,360.336,341.336,353.1,347.525z"/>
<path class="primary_color" id="PRIMARY_2_" fill="#FFFA00" stroke="#231F20" stroke-miterlimit="10" d="M293.6,365.423
	c78.528,6.577,36.531-28.18,9.681-55.771"/>
<path class="primary_color" id="PRIMARY_1_" fill="#FFFA00" stroke="#231F20" stroke-miterlimit="10" d="M295.688,347.761
	c-14.771,1.869-6.781,25.07,6.77,16.18"/>
<path fill="#231F20" d="M321.47,361.136c4.08,5.806-4.959,4.896-11.098,4.905c-7.175,0.011-11.223,0.498-10.143-2.915
	c0.813-2.569,4.015-6.897,10.143-6.897C316.502,356.229,319.942,358.963,321.47,361.136z"/>
<path fill="none" stroke="#231F20" stroke-miterlimit="10" d="M285.224,469.317c0,0.2,13.301,24.082,26.603,0.36"/>
<path fill="none" stroke="#231F20" stroke-miterlimit="10" d="M311.826,469.317c0,0.2,13.3,24.082,26.601,0.36"/>
</svg>
