<?xml version="1.0" encoding="utf-8"?>
<!-- Generator: Adobe Illustrator 16.0.0, SVG Export Plug-In . SVG Version: 6.00 Build 0)  -->
<svg version="1.1" id="Layer_1" xmlns="http://www.w3.org/2000/svg" xmlns:xlink="http://www.w3.org/1999/xlink" x="0px" y="0px"
	 width="612px" height="792px" viewBox="0 0 612 792" enable-background="new 0 0 612 792" xml:space="preserve">
<rect x="178" y="312.248" fill-opacity="0" fill="#231F20" width="256" height="172"/>
<path id="SECONDARY_4_" fill="#7CD5FF" stroke="#231F20" stroke-width="3.1586" stroke-miterlimit="10" d="M339.019,338.395
	c0.564,0.564,1.093,1.096,1.636,1.643l2.756-2.785c-0.42-0.399-0.849-0.752-1.266-1.168c-3.629-3.626-6.86-6.857-9.737-9.808
	l-2.78,2.809C332.466,331.852,335.564,334.945,339.019,338.395z"/>
<path id="SECONDARY_3_" fill="#7CD5FF" stroke="#231F20" stroke-width="3.1586" stroke-miterlimit="10" d="M280.352,417.029v6.375
	c7.212,3.918,10.292,3.301,15.559,5.339v-5.306C290.639,422.359,285.421,420.21,280.352,417.029z"/>
<path id="SECONDARY_2_" fill="#7CD5FF" stroke="#231F20" stroke-width="3.1586" stroke-miterlimit="10" d="M308.191,424.073v5.616
	c5.259-1.192,9.527-0.946,15.556-4.47v-5.854C318.66,421.946,313.447,423.54,308.191,424.073z"/>
<path id="SECONDARY_1_" fill="#7CD5FF" stroke="#231F20" stroke-width="3.1586" stroke-miterlimit="10" d="M339.019,408.117
	c-0.984,0.983-1.991,1.871-2.994,2.765v6.372c5.154-6.705,11.92-11.551,15.559-16.631v-5.299
	C348.086,399.057,343.898,403.243,339.019,408.117z"/>
<path id="SECONDARY" fill="#7CD5FF" stroke="#231F20" stroke-width="3.1586" stroke-miterlimit="10" d="M252.517,390.878v6.326
	c3.876,5.579,9.858,8.619,15.93,16.462l-0.059-6.372C261.819,400.73,256.531,395.419,252.517,390.878z"/>
</svg>
