<?xml version="1.0" encoding="utf-8"?>
<!-- Generator: Adobe Illustrator 16.0.0, SVG Export Plug-In . SVG Version: 6.00 Build 0)  -->
<svg version="1.1" id="Layer_1" xmlns="http://www.w3.org/2000/svg" xmlns:xlink="http://www.w3.org/1999/xlink" x="0px" y="0px"
	 width="612px" height="792px" viewBox="0 0 612 792" enable-background="new 0 0 612 792" xml:space="preserve">
<rect x="179" y="311.248" fill-opacity="0" fill="#231F20" width="256" height="172"/>
<path id="SECONDARY_4_" fill="#7CD5FF" stroke="#231F20" stroke-width="3.1586" stroke-miterlimit="10" d="M344.553,406.353
	C344.343,406.09,344.763,406.621,344.553,406.353l0.373-40.402c0-6.362,3.481-11.517,7.778-11.517c4.296,0,7.777,5.154,7.777,11.517
	v23.94C356.604,395.47,350.623,398.51,344.553,406.353z"/>
<path id="SECONDARY_3_" fill="#7CD5FF" stroke="#231F20" stroke-width="3.1586" stroke-miterlimit="10" d="M317.09,421.43v-45.709
	c0-8.305,3.484-15.034,7.777-15.034c4.297,0,7.781,6.729,7.781,15.034v40.37C325.436,420.009,322.354,419.393,317.09,421.43z"/>
<path id="SECONDARY_2_" fill="#7CD5FF" stroke="#231F20" stroke-width="3.1586" stroke-miterlimit="10" d="M289.253,417.906v-42.186
	c0-8.305,3.481-15.034,7.778-15.034s7.778,6.729,7.778,15.034v46.655C299.549,421.184,295.281,421.43,289.253,417.906z"/>
<path id="SECONDARY_1_" fill="#7CD5FF" stroke="#231F20" stroke-width="3.1586" stroke-miterlimit="10" d="M276.976,409.94
	c-5.155-6.705-11.92-11.551-15.559-16.631v-19.315c0-6.36,3.485-11.519,7.781-11.519c4.293,0,7.778,5.159,7.778,11.519V409.94
	C276.876,410.055,277.071,409.83,276.976,409.94C276.278,409.127,277.657,410.822,276.976,409.94z"/>
<path id="SECONDARY" fill="#7CD5FF" stroke="#231F20" stroke-width="3.1586" stroke-miterlimit="10" d="M274.016,338.241
	c3.629-3.627,6.861-6.857,9.737-9.808l14.201,14.346c3.012,3.056,2.981,7.977-0.077,10.986c-3.071,3.014-7.988,2.974-11.003-0.075
	L272.75,339.41C273.17,339.011,273.599,338.657,274.016,338.241z"/>
</svg>
