<?xml version="1.0" encoding="utf-8"?>
<!-- Generator: Adobe Illustrator 16.0.0, SVG Export Plug-In . SVG Version: 6.00 Build 0)  -->
<svg version="1.1" id="Layer_1" xmlns="http://www.w3.org/2000/svg" xmlns:xlink="http://www.w3.org/1999/xlink" x="0px" y="0px"
	 width="612px" height="792px" viewBox="0 0 612 792" enable-background="new 0 0 612 792" xml:space="preserve">
<rect x="266.5" y="369.004" fill-opacity="0" fill="#231F20" width="81" height="54.487"/>
<path id="SECONDARY_14_" fill="#7CD5FF" stroke="#231F20" stroke-miterlimit="10" d="M283.392,393.049l5.442-5.455
	c-0.318,1.71,0.291,3.286,1.753,5.213l-3.71,3.719c-0.96,0.961-2.519,0.964-3.48,0.004
	C282.434,395.566,282.434,394.01,283.392,393.049z"/>
<path id="SECONDARY_13_" fill="#7CD5FF" stroke="#231F20" stroke-miterlimit="10" d="M296.725,399.374L296.725,399.374
	c0.255,0.255,0.516,0.48,0.775,0.717v7.581c0,1.604-1.103,2.904-2.461,2.904c-1.359,0-2.462-1.301-2.462-2.904v-12.534
	C293.717,396.365,295.102,397.75,296.725,399.374z"/>
<path id="SECONDARY_12_" fill="#7CD5FF" stroke="#231F20" stroke-miterlimit="10" d="M306.307,404.419v7.519
	c0,1.359-1.102,2.461-2.461,2.461s-2.461-1.102-2.461-2.461v-9.09C302.993,403.689,304.643,404.228,306.307,404.419z"/>
<path id="SECONDARY_11_" fill="#7CD5FF" stroke="#231F20" stroke-miterlimit="10" d="M315.114,402.309v9.63
	c0,1.359-1.102,2.461-2.461,2.461s-2.461-1.102-2.461-2.461v-7.682C311.858,403.938,313.51,403.291,315.114,402.309z"/>
<path id="SECONDARY_10_" fill="#7CD5FF" stroke="#231F20" stroke-miterlimit="10" d="M323.922,394.109v13.563
	c0,1.604-1.102,2.904-2.461,2.904s-2.461-1.3-2.461-2.904v-8.487C321.018,397.168,322.659,395.521,323.922,394.109z"/>
</svg>
