<?xml version="1.0" encoding="utf-8"?>
<!-- Generator: Adobe Illustrator 16.0.0, SVG Export Plug-In . SVG Version: 6.00 Build 0)  -->
<svg version="1.1" id="Layer_1" xmlns="http://www.w3.org/2000/svg" xmlns:xlink="http://www.w3.org/1999/xlink" x="0px" y="0px"
	 width="612px" height="792px" viewBox="0 0 612 792" enable-background="new 0 0 612 792" xml:space="preserve">
<rect x="266.5" y="370.004" fill-opacity="0" fill="#231F20" width="81" height="54.487"/>
<path id="SECONDARY_4_" fill="#7CD5FF" stroke="#231F20" stroke-miterlimit="10" d="M318.882,400.132
	C318.815,400.049,318.948,400.217,318.882,400.132L319,387.333c0-2.016,1.102-3.648,2.461-3.648s2.461,1.633,2.461,3.648v7.584
	C322.695,396.685,320.803,397.647,318.882,400.132z"/>
<path id="SECONDARY_3_" fill="#7CD5FF" stroke="#231F20" stroke-miterlimit="10" d="M310.192,404.908v-14.48
	c0-2.631,1.103-4.763,2.461-4.763c1.359,0,2.462,2.132,2.462,4.763v12.789C312.833,404.458,311.858,404.263,310.192,404.908z"/>
<path id="SECONDARY_2_" fill="#7CD5FF" stroke="#231F20" stroke-miterlimit="10" d="M301.385,403.792v-13.364
	c0-2.631,1.102-4.763,2.461-4.763s2.461,2.132,2.461,4.763v14.78C304.643,404.83,303.292,404.908,301.385,403.792z"/>
<path id="SECONDARY_1_" fill="#7CD5FF" stroke="#231F20" stroke-miterlimit="10" d="M297.5,401.269
	c-1.631-2.124-3.771-3.659-4.923-5.269v-6.119c0-2.015,1.103-3.649,2.462-3.649c1.358,0,2.461,1.634,2.461,3.649V401.269
	C297.469,401.305,297.53,401.233,297.5,401.269C297.279,401.011,297.716,401.548,297.5,401.269z"/>
<path id="SECONDARY" fill="#7CD5FF" stroke="#231F20" stroke-miterlimit="10" d="M296.563,378.555
	c1.148-1.149,2.171-2.172,3.081-3.107l4.493,4.544c0.953,0.968,0.943,2.527-0.024,3.48c-0.972,0.955-2.527,0.942-3.481-0.024
	l-4.469-4.524C296.296,378.799,296.432,378.687,296.563,378.555z"/>
</svg>
