<?xml version="1.0" encoding="utf-8"?>
<!-- Generator: Adobe Illustrator 16.0.0, SVG Export Plug-In . SVG Version: 6.00 Build 0)  -->
<svg version="1.1" id="Layer_1" xmlns="http://www.w3.org/2000/svg" xmlns:xlink="http://www.w3.org/1999/xlink" x="0px" y="0px"
	 width="612px" height="792px" viewBox="0 0 612 792" enable-background="new 0 0 612 792" xml:space="preserve">
<rect x="179" y="310.248" fill-opacity="0" fill="#231F20" width="256" height="172"/>
<path id="SECONDARY_14_" fill="#7CD5FF" stroke="#231F20" stroke-width="3.1586" stroke-miterlimit="10" d="M381.614,386.15
	l-17.2-17.22c1.006,5.398-0.92,10.374-5.541,16.456l11.726,11.739c3.034,3.033,7.96,3.042,11,0.012
	C384.642,394.098,384.642,389.184,381.614,386.15z"/>
<path id="SECONDARY_13_" fill="#7CD5FF" stroke="#231F20" stroke-width="3.1586" stroke-miterlimit="10" d="M339.476,406.117
	L339.476,406.117c-0.806,0.805-1.63,1.517-2.451,2.263v23.931c0,5.063,3.485,9.168,7.778,9.168c4.296,0,7.78-4.105,7.78-9.168
	v-39.566C348.981,396.619,344.604,400.99,339.476,406.117z"/>
<path id="SECONDARY_12_" fill="#7CD5FF" stroke="#231F20" stroke-width="3.1586" stroke-miterlimit="10" d="M309.191,422.042v23.734
	c0,4.291,3.481,7.769,7.777,7.769c4.297,0,7.778-3.478,7.778-7.769v-28.694C319.664,419.739,314.45,421.438,309.191,422.042z"/>
<path id="SECONDARY_11_" fill="#7CD5FF" stroke="#231F20" stroke-width="3.1586" stroke-miterlimit="10" d="M281.354,415.381v30.398
	c0,4.291,3.483,7.769,7.779,7.769c4.295,0,7.778-3.478,7.778-7.769V421.53C291.644,420.522,286.426,418.481,281.354,415.381z"/>
<path id="SECONDARY_10_" fill="#7CD5FF" stroke="#231F20" stroke-width="3.1586" stroke-miterlimit="10" d="M253.517,389.498v42.815
	c0,5.065,3.483,9.168,7.779,9.168c4.294,0,7.778-4.103,7.778-9.168v-26.792C262.697,399.153,257.508,393.953,253.517,389.498z"/>
</svg>
