<?xml version="1.0" encoding="utf-8"?>
<!-- Generator: Adobe Illustrator 16.0.0, SVG Export Plug-In . SVG Version: 6.00 Build 0)  -->
<svg version="1.1" id="Layer_1" xmlns="http://www.w3.org/2000/svg" xmlns:xlink="http://www.w3.org/1999/xlink" x="0px" y="0px"
	 width="612px" height="792px" viewBox="0 0 612 792" enable-background="new 0 0 612 792" xml:space="preserve">
<rect x="265.5" y="371.004" fill-opacity="0" fill="#231F20" width="81" height="54.487"/>
<path id="SECONDARY_4_" fill="#7CD5FF" stroke="#231F20" stroke-miterlimit="10" d="M316.447,379.287
	c0.179,0.179,0.346,0.347,0.518,0.521l0.872-0.882c-0.133-0.126-0.269-0.238-0.4-0.37c-1.148-1.149-2.171-2.172-3.081-3.107
	l-0.88,0.89C314.374,377.214,315.354,378.194,316.447,379.287z"/>
<path id="SECONDARY_3_" fill="#7CD5FF" stroke="#231F20" stroke-miterlimit="10" d="M297.885,404.197v2.02
	c2.282,1.241,3.256,1.046,4.923,1.691v-1.681C301.14,405.886,299.489,405.205,297.885,404.197z"/>
<path id="SECONDARY_2_" fill="#7CD5FF" stroke="#231F20" stroke-miterlimit="10" d="M306.693,406.429v1.779
	c1.664-0.378,3.015-0.3,4.922-1.416v-1.854C310.006,405.755,308.356,406.26,306.693,406.429z"/>
<path id="SECONDARY_1_" fill="#7CD5FF" stroke="#231F20" stroke-miterlimit="10" d="M316.447,401.374
	c-0.312,0.312-0.63,0.593-0.947,0.876v2.019c1.631-2.124,3.771-3.659,4.923-5.269v-1.679
	C319.316,398.504,317.991,399.83,316.447,401.374z"/>
<path id="SECONDARY" fill="#7CD5FF" stroke="#231F20" stroke-miterlimit="10" d="M289.078,395.913v2.004
	c1.227,1.768,3.119,2.73,5.041,5.215l-0.019-2.019C292.021,399.034,290.348,397.352,289.078,395.913z"/>
</svg>
