<?xml version="1.0" encoding="utf-8"?>
<!-- Generator: Adobe Illustrator 16.0.0, SVG Export Plug-In . SVG Version: 6.00 Build 0)  -->
<svg version="1.1" id="Layer_1" xmlns="http://www.w3.org/2000/svg" xmlns:xlink="http://www.w3.org/1999/xlink" x="0px" y="0px"
	 width="612px" height="792px" viewBox="0 0 612 792" enable-background="new 0 0 612 792" xml:space="preserve">
<rect x="179" y="310.248" fill="#231F20" fill-opacity="0" width="256" height="172"/>
<path id="SECONDARY_19_" fill="#FFFA00" stroke="#231F20" stroke-width="3.1586" stroke-miterlimit="10" d="M260.431,378.297
	l-3.686,5.714c1.409,11.967,5.938,22.707,12.613,30.883l4.874-7.562C267.389,399.767,262.446,389.708,260.431,378.297z"/>
<path id="SECONDARY_18_" fill="#FFFA00" stroke="#231F20" stroke-width="3.1586" stroke-miterlimit="10" d="M304.63,421.604
	c-4.832,0-9.482-0.956-13.846-2.673v6.394c4.313,1.671,8.902,2.59,13.673,2.59c4.771,0,9.357-0.919,13.67-2.593v-6.236
	C313.87,420.72,309.333,421.604,304.63,421.604z"/>
<path id="SECONDARY_17_" fill="#FFFA00" stroke="#231F20" stroke-width="3.1586" stroke-miterlimit="10" d="M348.407,378.691
	c-1.91,10.439-6.24,19.765-12.266,27.027l6.893,7.482c5.413-8.392,8.846-18.742,9.487-30.043L348.407,378.691z"/>
</svg>
