<?xml version="1.0" encoding="utf-8"?>
<!-- Generator: Adobe Illustrator 16.0.0, SVG Export Plug-In . SVG Version: 6.00 Build 0)  -->
<svg version="1.1" id="Layer_1" xmlns="http://www.w3.org/2000/svg" xmlns:xlink="http://www.w3.org/1999/xlink" x="0px" y="0px"
	 width="612px" height="792px" viewBox="0 0 612 792" enable-background="new 0 0 612 792" xml:space="preserve">
<rect x="266.5" y="369.004" fill-opacity="0" fill="#231F20" width="81" height="54.487"/>
<path id="SECONDARY_9_" fill="#FFFA00" stroke="#231F20" stroke-miterlimit="10" d="M292.032,387.827l-7.472,19.263
	c-0.864,2.228,0.241,4.733,2.469,5.598c2.228,0.864,4.733-0.241,5.598-2.469l4.059-10.462
	C293.99,396.772,292.241,392.555,292.032,387.827z"/>
<path id="SECONDARY_7_" fill="#FFFA00" stroke="#231F20" stroke-miterlimit="10" d="M306.38,404.28c-1.559,0-3.055-0.315-4.458-0.88
	v8.064c0,2.39,1.937,4.326,4.326,4.326s4.326-1.937,4.326-4.326v-7.952C309.248,404.01,307.84,404.28,306.38,404.28z"/>
<path id="SECONDARY_5_" fill="#FFFA00" stroke="#231F20" stroke-miterlimit="10" d="M327.115,406.185l-7.401-13.628
	c-0.979,3.462-2.824,6.425-5.226,8.507l5.023,9.25c1.139,2.1,3.765,2.878,5.865,1.737
	C327.477,410.911,328.254,408.284,327.115,406.185z"/>
<path fill="none" stroke="#231F20" stroke-miterlimit="10" d="M292.806,409.035c0.897-2.312-6.92-5.375-7.827-3.036"/>
<path fill="none" stroke="#231F20" stroke-miterlimit="10" d="M294.813,403.863c0.897-2.312-6.921-5.372-7.827-3.036"/>
<polygon fill="#FFFFFF" stroke="#231F20" stroke-miterlimit="10" points="288.611,410.412 285.586,410.231 288.485,416.061 
	291.638,410.595 "/>
<path fill="none" stroke="#231F20" stroke-miterlimit="10" d="M319.182,409.163c-1.184-2.18,6.182-6.212,7.379-4.007"/>
<path fill="none" stroke="#231F20" stroke-miterlimit="10" d="M316.533,404.287c-1.182-2.178,6.184-6.209,7.379-4.007"/>
<polygon fill="#FFFFFF" stroke="#231F20" stroke-miterlimit="10" points="323.519,409.995 326.496,409.433 324.361,415.581 
	320.539,410.561 "/>
<path fill="none" stroke="#231F20" stroke-miterlimit="10" d="M302.183,410.297c0-2.479,8.396-2.509,8.396,0"/>
<polygon fill="#FFFFFF" stroke="#231F20" stroke-miterlimit="10" points="306.497,413.975 309.527,413.987 306.263,419.619 
	303.465,413.963 "/>
</svg>
