<?xml version="1.0" encoding="utf-8"?>
<!-- Generator: Adobe Illustrator 16.0.0, SVG Export Plug-In . SVG Version: 6.00 Build 0)  -->
<svg version="1.1" id="Layer_1" xmlns="http://www.w3.org/2000/svg" xmlns:xlink="http://www.w3.org/1999/xlink" x="0px" y="0px"
	 width="612px" height="792px" viewBox="0 0 612 792" enable-background="new 0 0 612 792" xml:space="preserve">
<rect x="266.5" y="369.004" fill-opacity="0" fill="#231F20" width="81" height="54.487"/>
<path id="SECONDARY_16_" fill="#FFFA00" stroke="#231F20" stroke-miterlimit="10" d="M292.031,387.945l-7.472,19.263
	c-0.864,2.228,0.241,4.733,2.469,5.598c2.228,0.864,4.733-0.241,5.598-2.469l4.059-10.462
	C293.989,396.891,292.24,392.673,292.031,387.945z"/>
<path id="SECONDARY_15_" fill="#FFFA00" stroke="#231F20" stroke-miterlimit="10" d="M306.379,404.398
	c-1.559,0-3.055-0.315-4.458-0.88v8.064c0,2.39,1.937,4.326,4.326,4.326s4.326-1.937,4.326-4.326v-7.952
	C309.247,404.128,307.84,404.398,306.379,404.398z"/>
<path id="SECONDARY_14_" fill="#FFFA00" stroke="#231F20" stroke-miterlimit="10" d="M327.113,406.303l-7.4-13.628
	c-0.98,3.462-2.824,6.425-5.226,8.507l5.022,9.25c1.141,2.1,3.766,2.878,5.867,1.737
	C327.476,411.029,328.254,408.402,327.113,406.303z"/>
<polygon fill="#FFFFFF" stroke="#231F20" stroke-miterlimit="10" points="288.611,410.58 285.585,410.399 288.484,416.229 
	291.638,410.763 "/>
<polygon fill="#FFFFFF" stroke="#231F20" stroke-miterlimit="10" points="323.518,410.163 326.495,409.601 324.36,415.749 
	320.538,410.729 "/>
<polygon fill="#FFFFFF" stroke="#231F20" stroke-miterlimit="10" points="306.497,414.143 309.527,414.155 306.262,419.787 
	303.464,414.131 "/>
</svg>
