<?xml version="1.0" encoding="utf-8"?>
<!-- Generator: Adobe Illustrator 16.0.0, SVG Export Plug-In . SVG Version: 6.00 Build 0)  -->
<svg version="1.1" id="Layer_1" xmlns="http://www.w3.org/2000/svg" xmlns:xlink="http://www.w3.org/1999/xlink" x="0px" y="0px"
	 width="612px" height="792px" viewBox="0 0 612 792" enable-background="new 0 0 612 792" xml:space="preserve">
<rect x="177.5" y="271.698" fill="#231F20" fill-opacity="0" width="253.933" height="248.11"/>
<path id="PRIMARY_12_" fill="#F1F1F1" stroke="#231F20" stroke-width="3.1537" stroke-miterlimit="10" d="M407.394,358.308
	c24.376-20.898,31.534-11.136,8.327,16.771c23.203-27.905,22.15-7.384,2.156,19.213c19.997-26.598,18.791-7.135-3.668,20.543
	c22.459-27.679,21.718,2.841-9.16,20.795c30.878-17.954,21.296,17.235-14.304,19.931c35.6-2.699,16.691,24.255-19.112,17.972
	c35.804,6.283,5.535,31.248-22.092,14.05c27.624,17.201-34.978,34.65-22.72,8.84c-12.258,25.811-36.764,31.194-22.211,3.591
	c-14.553,27.604-35.801,25.708-20.566-1.717c-15.235,27.425-51.503-15.314-17.781-7.07c-33.723-8.247-48.796-7.721-13.863-12.47
	c-34.933,4.749-43.862-16.612-8.327-16.773c-35.535,0.161-24.55-43.687-2.157-19.208c-22.394-24.481-25.76-33.702,3.671-20.55
	c-29.431-13.152-25.601-8.635,9.158-20.792c-34.759,12.157-22.396-17.61,14.305-19.929c-36.704,2.319-9.644-15.796,19.11-17.976
	c-28.738,2.167,8.453-43.14,22.092-14.045c-10.711-30.986,5.667-40.232,22.722-8.842c-16.773-31.496,6.02-35.104,22.212-3.588
	c-16.192-31.516,7.681-28.199,20.567,1.716c-12.884-29.912,4.9-25.592,17.783,7.069C380.651,313.179,431.764,337.4,407.394,358.308z
	"/>
</svg>
