<?xml version="1.0" encoding="utf-8"?>
<!-- Generator: Adobe Illustrator 16.0.0, SVG Export Plug-In . SVG Version: 6.00 Build 0)  -->
<svg version="1.1" id="Layer_1" xmlns="http://www.w3.org/2000/svg" xmlns:xlink="http://www.w3.org/1999/xlink" x="0px" y="0px"
	 width="612px" height="792px" viewBox="0 0 612 792" enable-background="new 0 0 612 792" xml:space="preserve">
<rect x="179" y="310.248" fill="#231F20" fill-opacity="0" width="256" height="172"/>
<path id="SECONDARY_13_" fill="#FFFA00" stroke="#231F20" stroke-width="3.1586" stroke-miterlimit="10" d="M336.269,356.122
	c-5.108-5.554-13.756-5.916-19.314-0.813c-5.563,5.105-5.923,13.745-0.815,19.298l23.904,25.964
	c5.414-8.392,8.846-18.742,9.491-30.043L336.269,356.122z"/>
<path id="SECONDARY_12_" fill="#FFFA00" stroke="#231F20" stroke-width="3.1586" stroke-miterlimit="10" d="M304.633,377.354
	c-7.554,0-13.673,8.365-13.673,18.689v22.972c4.315,1.671,8.904,2.59,13.673,2.59s9.357-0.919,13.676-2.593v-22.969
	C318.306,385.719,312.186,377.354,304.633,377.354z"/>
<path id="SECONDARY_11_" fill="#FFFA00" stroke="#231F20" stroke-width="3.1586" stroke-miterlimit="10" d="M294.548,371.526
	c4.089-6.341,2.256-14.792-4.089-18.874c-6.347-4.082-14.811-2.253-18.897,4.087l-11.479,17.801
	c1.41,11.967,5.939,22.708,12.614,30.883L294.548,371.526z"/>
<polygon fill="#FFFFFF" stroke="#231F20" stroke-width="3.1586" stroke-miterlimit="10" points="286.216,357.993 294.029,363.529 
	296.001,343.074 278.404,352.453 "/>
<polygon fill="#FFFFFF" stroke="#231F20" stroke-width="3.1586" stroke-miterlimit="10" points="320.531,359.922 314.414,367.276 
	307.223,348.031 326.642,352.547 "/>
<polygon fill="#FFFFFF" stroke="#231F20" stroke-width="3.1586" stroke-miterlimit="10" points="303.843,383.701 294.267,383.656 
	304.586,362.627 313.426,383.749 "/>
</svg>
