<?xml version="1.0" encoding="utf-8"?>
<!-- Generator: Adobe Illustrator 16.0.0, SVG Export Plug-In . SVG Version: 6.00 Build 0)  -->
<svg version="1.1" id="Layer_1" xmlns="http://www.w3.org/2000/svg" xmlns:xlink="http://www.w3.org/1999/xlink" x="0px" y="0px"
	 width="612px" height="792px" viewBox="0 0 612 792" enable-background="new 0 0 612 792" xml:space="preserve">
<rect x="266.5" y="352.008" fill-opacity="0" fill="#231F20" width="81" height="89.313"/>
<path id="SECONDARY_6_" fill="#FFFA00" stroke="#231F20" stroke-miterlimit="10" d="M320.75,434.561c0,3.597-6.488,6.513-14.5,6.513
	l0,0c-8.003,0-14.5-2.916-14.5-6.513v-75.468c0-3.596,6.496-6.513,14.5-6.513l0,0c8.011,0,14.5,2.917,14.5,6.513V434.561z"/>
<path fill="none" stroke="#231F20" stroke-miterlimit="10" d="M291.75,369.935c0,4.599,29,4.652,29,0"/>
<path fill="none" stroke="#231F20" stroke-miterlimit="10" d="M291.75,363.091c0,4.599,29,4.652,29,0"/>
<path fill="none" stroke="#231F20" stroke-miterlimit="10" d="M291.75,376.778c0,4.599,29,4.652,29,0"/>
<path fill="none" stroke="#231F20" stroke-miterlimit="10" d="M291.75,383.622c0,4.599,29,4.651,29,0"/>
<path fill="none" stroke="#231F20" stroke-miterlimit="10" d="M291.75,390.466c0,4.599,29,4.651,29,0"/>
<path fill="none" stroke="#231F20" stroke-miterlimit="10" d="M291.75,397.309c0,4.6,29,4.651,29,0"/>
<path fill="none" stroke="#231F20" stroke-miterlimit="10" d="M291.75,404.152c0,4.599,29,4.651,29,0"/>
<path fill="none" stroke="#231F20" stroke-miterlimit="10" d="M291.75,410.996c0,4.599,29,4.651,29,0"/>
<path fill="none" stroke="#231F20" stroke-miterlimit="10" d="M291.75,417.84c0,4.6,29,4.651,29,0"/>
<path fill="none" stroke="#231F20" stroke-miterlimit="10" d="M291.75,424.683c0,4.599,29,4.651,29,0"/>
<path fill="none" stroke="#231F20" stroke-miterlimit="10" d="M291.75,431.527c0,4.599,29,4.651,29,0"/>
<circle fill="none" stroke="#231F20" stroke-miterlimit="10" cx="306.25" cy="360.11" r="2.5"/>
<circle fill="none" stroke="#231F20" stroke-miterlimit="10" cx="306.25" cy="433.75" r="2.5"/>
</svg>
