<?xml version="1.0" encoding="utf-8"?>
<!-- Generator: Adobe Illustrator 16.0.0, SVG Export Plug-In . SVG Version: 6.00 Build 0)  -->
<svg version="1.1" id="Layer_1" xmlns="http://www.w3.org/2000/svg" xmlns:xlink="http://www.w3.org/1999/xlink" x="0px" y="0px"
	 width="612px" height="792px" viewBox="0 0 612 792" enable-background="new 0 0 612 792" xml:space="preserve">
<rect x="266.5" y="369.004" fill-opacity="0" fill="#231F20" width="81" height="54.487"/>
<path id="SECONDARY_19_" fill="#FFFA00" stroke="#231F20" stroke-miterlimit="10" d="M292.265,390.561l-1.166,1.81
	c0.446,3.791,1.879,7.193,3.991,9.783l1.542-2.395C294.467,397.362,292.903,394.176,292.265,390.561z"/>
<path id="SECONDARY_18_" fill="#FFFA00" stroke="#231F20" stroke-miterlimit="10" d="M306.25,404.28c-1.529,0-3-0.302-4.381-0.846
	v2.025c1.365,0.529,2.817,0.82,4.326,0.82c1.51,0,2.961-0.291,4.326-0.821v-1.976C309.174,404,307.738,404.28,306.25,404.28z"/>
<path id="SECONDARY_17_" fill="#FFFA00" stroke="#231F20" stroke-miterlimit="10" d="M320.102,390.686
	c-0.605,3.307-1.975,6.261-3.881,8.562l2.18,2.37c1.713-2.658,2.799-5.937,3.002-9.517L320.102,390.686z"/>
</svg>
