<?xml version="1.0" encoding="utf-8"?>
<!-- Generator: Adobe Illustrator 16.0.0, SVG Export Plug-In . SVG Version: 6.00 Build 0)  -->
<svg version="1.1" id="Layer_1" xmlns="http://www.w3.org/2000/svg" xmlns:xlink="http://www.w3.org/1999/xlink" x="0px" y="0px"
	 width="612px" height="792px" viewBox="0 0 612 792" enable-background="new 0 0 612 792" xml:space="preserve">
<rect x="264.5" y="356.651" fill-opacity="0" fill="#231F20" width="81" height="78.206"/>
<path id="PRIMARY_12_" fill="#F1F1F1" stroke="#231F20" stroke-miterlimit="10" d="M337.832,383.951
	c7.775-6.587,10.059-3.51,2.656,5.287c7.402-8.796,7.066-2.328,0.688,6.056c6.379-8.384,5.994-2.249-1.17,6.476
	c7.164-8.725,6.928,0.895-2.922,6.554c9.85-5.659,6.793,5.433-4.563,6.282c11.356-0.85,5.325,7.646-6.096,5.666
	c11.421,1.98,1.765,9.849-7.047,4.428c8.811,5.422-11.157,10.922-7.247,2.786c-3.91,8.136-11.727,9.833-7.085,1.132
	c-4.642,8.701-11.42,8.104-6.56-0.541c-4.86,8.645-16.429-4.827-5.672-2.228c-10.757-2.6-15.565-2.434-4.422-3.931
	c-11.143,1.497-13.991-5.236-2.656-5.287c-11.335,0.051-7.831-13.771-0.688-6.055c-7.143-7.717-8.217-10.623,1.171-6.477
	c-9.388-4.146-8.166-2.722,2.921-6.554c-11.087,3.832-7.144-5.551,4.563-6.282c-11.708,0.731-3.076-4.979,6.096-5.666
	c-9.167,0.683,2.696-13.598,7.047-4.427c-3.417-9.767,1.807-12.682,7.248-2.787c-5.351-9.928,1.92-11.065,7.085-1.131
	c-5.165-9.934,2.45-8.889,6.56,0.541c-4.109-9.429,1.564-8.067,5.673,2.228C329.302,369.726,345.605,377.361,337.832,383.951z"/>
</svg>
