<?xml version="1.0" encoding="utf-8"?>
<!-- Generator: Adobe Illustrator 16.0.0, SVG Export Plug-In . SVG Version: 6.00 Build 0)  -->
<svg version="1.1" id="Layer_1" xmlns="http://www.w3.org/2000/svg" xmlns:xlink="http://www.w3.org/1999/xlink" x="0px" y="0px"
	 width="612px" height="792px" viewBox="0 0 612 792" enable-background="new 0 0 612 792" xml:space="preserve">
<rect x="179" y="310.248" fill="#231F20" fill-opacity="0" width="256" height="172"/>
<path id="SECONDARY_9_" fill="#FFFA00" stroke="#231F20" stroke-width="3.1586" stroke-miterlimit="10" d="M259.694,369.667
	l-23.616,60.807c-2.731,7.034,0.761,14.941,7.803,17.67c7.042,2.729,14.959-0.759,17.693-7.793l12.829-33.025
	C265.883,397.904,260.355,384.592,259.694,369.667z"/>
<path id="SECONDARY_7_" fill="#FFFA00" stroke="#231F20" stroke-width="3.1586" stroke-miterlimit="10" d="M305.04,421.604
	c-4.927,0-9.654-0.996-14.089-2.777v25.454c0,7.543,6.122,13.656,13.673,13.656c7.549,0,13.672-6.116,13.672-13.656v-25.103
	C314.104,420.751,309.654,421.604,305.04,421.604z"/>
<path id="SECONDARY_5_" fill="#FFFA00" stroke="#231F20" stroke-width="3.1586" stroke-miterlimit="10" d="M370.574,427.615
	l-23.393-43.017c-3.092,10.926-8.926,20.283-16.515,26.855l15.873,29.199c3.602,6.628,11.901,9.085,18.537,5.481
	C371.716,442.536,374.173,434.244,370.574,427.615z"/>
<path fill="none" stroke="#231F20" stroke-width="3.1586" stroke-miterlimit="10" d="M262.141,436.614
	c2.835-7.3-21.872-16.968-24.738-9.584"/>
<path fill="none" stroke="#231F20" stroke-width="3.1586" stroke-miterlimit="10" d="M268.483,420.288
	c2.835-7.3-21.874-16.958-24.738-9.584"/>
<polygon fill="#FFFFFF" stroke="#231F20" stroke-width="3.1586" stroke-miterlimit="10" points="248.881,440.961 239.321,440.391 
	248.483,458.791 258.449,441.537 "/>
<path fill="none" stroke="#231F20" stroke-width="3.1586" stroke-miterlimit="10" d="M345.5,437.018
	c-3.74-6.88,19.54-19.608,23.321-12.648"/>
<path fill="none" stroke="#231F20" stroke-width="3.1586" stroke-miterlimit="10" d="M337.13,421.626
	c-3.738-6.874,19.543-19.6,23.32-12.648"/>
<polygon fill="#FFFFFF" stroke="#231F20" stroke-width="3.1586" stroke-miterlimit="10" points="359.207,439.645 368.617,437.869 
	361.87,457.277 349.79,441.43 "/>
<path fill="none" stroke="#231F20" stroke-width="3.1586" stroke-miterlimit="10" d="M291.776,440.597
	c0-7.823,26.535-7.919,26.535,0"/>
<polygon fill="#FFFFFF" stroke="#231F20" stroke-width="3.1586" stroke-miterlimit="10" points="305.411,452.207 314.987,452.246 
	304.67,470.024 295.827,452.17 "/>
</svg>
