<?xml version="1.0" encoding="utf-8"?>
<!-- Generator: Adobe Illustrator 16.0.0, SVG Export Plug-In . SVG Version: 6.00 Build 0)  -->
<svg version="1.1" id="Layer_1" xmlns="http://www.w3.org/2000/svg" xmlns:xlink="http://www.w3.org/1999/xlink" x="0px" y="0px"
	 width="612px" height="792px" viewBox="0 0 612 792" enable-background="new 0 0 612 792" xml:space="preserve">
<rect x="266.5" y="369.004" fill-opacity="0" fill="#231F20" width="81" height="54.487"/>
<path id="SECONDARY_13_" fill="#FFFA00" stroke="#231F20" stroke-miterlimit="10" d="M316.261,383.536
	c-1.616-1.759-4.353-1.874-6.112-0.257c-1.759,1.617-1.874,4.354-0.257,6.113l7.563,8.225c1.713-2.658,2.799-5.937,3.003-9.517
	L316.261,383.536z"/>
<path id="SECONDARY_12_" fill="#FFFA00" stroke="#231F20" stroke-miterlimit="10" d="M306.251,390.262
	c-2.39,0-4.326,2.65-4.326,5.921v7.277c1.365,0.529,2.817,0.82,4.326,0.82c1.509,0,2.961-0.291,4.327-0.821v-7.276
	C310.577,392.912,308.641,390.262,306.251,390.262z"/>
<path id="SECONDARY_11_" fill="#FFFA00" stroke="#231F20" stroke-miterlimit="10" d="M303.06,388.416
	c1.294-2.009,0.714-4.686-1.294-5.979s-4.686-0.714-5.979,1.295l-3.632,5.639c0.446,3.791,1.879,7.193,3.991,9.783L303.06,388.416z"
	/>
<polygon fill="#FFFFFF" stroke="#231F20" stroke-miterlimit="10" points="300.424,384.129 302.896,385.883 303.52,379.403 
	297.952,382.374 "/>
<polygon fill="#FFFFFF" stroke="#231F20" stroke-miterlimit="10" points="311.281,384.74 309.346,387.07 307.07,380.973 
	313.215,382.404 "/>
<polygon fill="#FFFFFF" stroke="#231F20" stroke-miterlimit="10" points="306.001,392.273 302.971,392.259 306.236,385.597 
	309.033,392.288 "/>
</svg>
