<?xml version="1.0" encoding="utf-8"?>
<!-- Generator: Adobe Illustrator 16.0.0, SVG Export Plug-In . SVG Version: 6.00 Build 0)  -->
<svg version="1.1" id="Layer_1" xmlns="http://www.w3.org/2000/svg" xmlns:xlink="http://www.w3.org/1999/xlink" x="0px" y="0px"
	 width="612px" height="792px" viewBox="0 0 612 792" enable-background="new 0 0 612 792" xml:space="preserve">
<rect x="179" y="310.248" fill="#231F20" fill-opacity="0" width="256" height="172"/>
<path id="SECONDARY_16_" fill="#FFFA00" stroke="#231F20" stroke-width="3.1586" stroke-miterlimit="10" d="M259.691,370.038
	l-23.616,60.809c-2.731,7.031,0.761,14.941,7.802,17.67c7.042,2.729,14.96-0.759,17.693-7.793l12.829-33.025
	C265.88,398.277,260.352,384.963,259.691,370.038z"/>
<path id="SECONDARY_15_" fill="#FFFA00" stroke="#231F20" stroke-width="3.1586" stroke-miterlimit="10" d="M305.037,421.978
	c-4.928,0-9.654-0.996-14.09-2.78v25.457c0,7.543,6.122,13.656,13.673,13.656c7.55,0,13.673-6.116,13.673-13.656v-25.103
	C314.102,421.123,309.654,421.978,305.037,421.978z"/>
<path id="SECONDARY_14_" fill="#FFFA00" stroke="#231F20" stroke-width="3.1586" stroke-miterlimit="10" d="M370.568,427.988
	l-23.39-43.019c-3.096,10.928-8.926,20.281-16.515,26.854l15.87,29.199c3.607,6.631,11.904,9.085,18.543,5.484
	C371.713,442.909,374.173,434.616,370.568,427.988z"/>
<polygon fill="#FFFFFF" stroke="#231F20" stroke-width="3.1586" stroke-miterlimit="10" points="248.881,441.491 239.318,440.921 
	248.48,459.321 258.449,442.067 "/>
<polygon fill="#FFFFFF" stroke="#231F20" stroke-width="3.1586" stroke-miterlimit="10" points="359.204,440.175 368.614,438.399 
	361.867,457.808 349.787,441.96 "/>
<polygon fill="#FFFFFF" stroke="#231F20" stroke-width="3.1586" stroke-miterlimit="10" points="305.411,452.736 314.987,452.777 
	304.667,470.555 295.824,452.7 "/>
</svg>
