<?xml version="1.0" encoding="utf-8"?>
<!-- Generator: Adobe Illustrator 16.0.0, SVG Export Plug-In . SVG Version: 6.00 Build 0)  -->
<svg version="1.1" id="Layer_1" xmlns="http://www.w3.org/2000/svg" xmlns:xlink="http://www.w3.org/1999/xlink" x="0px" y="0px"
	 width="612px" height="792px" viewBox="0 0 612 792" enable-background="new 0 0 612 792" xml:space="preserve">
<rect id="head_frame_1_" x="231.272" y="331.083" fill-opacity="0" fill="#231F20" width="151" height="131"/>
<path id="SECONDARY_5_" fill="#894000" stroke="#231F20" stroke-miterlimit="10" d="M359.817,419.77
	c-6.49-10.535-6.49-13.209,1.303-8.449c-7.793-9.893-7.793-12.353-0.191-8.154c-7.602-8.476-7.602-10.294-0.457-6.125
	c-7.145-6.736-7.145-7.484-0.203-2.35c-6.941-6.834-7.096-8.505-0.092-5.869c-7.592-5.902-8.029-7.497-0.822-5.558
	c-8.344-5.036-9.043-6.537-1.004-5.208c-9.68-4.22-10.621-5.611-1.439-4.055c-11.285-4.208-12.447-5.47-1.047-2.169
	c-13.922-5.68-15.281-6.796-1.342-2.325c-16.838-6.541-18.377-7.493-1.752-3.072c-19.857-6.147-21.553-6.919-2.379-3.739
	c-22.697-4.526-24.527-5.101-8.523-10.042c-19.777,4.009-21.721,3.651-13.881-5.81c-11.818,8.978-13.855,8.852-13.959,0.655
	c-1.969,8.197-3.293,8.197-5.525,1.858c-0.666,3.26-1.576,4.836-2.682,5.398c-0.945-0.707-1.732-2.27-2.326-5.173
	c-2.232,6.339-3.557,6.339-5.525-1.858c-0.104,8.197-2.139,8.323-13.957-0.655c7.838,9.461,5.895,9.819-13.881,5.81
	c16.002,4.942,14.172,5.516-8.525,10.042c19.174-3.18,17.479-2.408-2.377,3.739c16.623-4.421,15.086-3.469-1.752,3.072
	c13.939-4.471,12.578-3.355-1.342,2.325c11.398-3.301,10.236-2.039-1.047,2.169c9.182-1.556,8.24-0.165-1.441,4.055
	c8.041-1.328,7.34,0.173-1.004,5.208c7.209-1.939,6.771-0.344-0.822,5.558c7.004-2.637,6.852-0.966-0.09,5.869
	c6.941-5.134,6.941-4.386-0.203,2.35c7.145-4.169,7.145-2.351-0.457,6.125c7.602-4.198,7.602-1.738-0.191,8.154
	c7.793-4.76,7.793-2.086,1.303,8.449c6.49-5.402,6.49-2.941,1.74,5.76c4.75-4.424,4.75-2.605,1.256,2.983
	c3.494-3.022,3.494-2.274,0.557,1.199c2.938-1.915,3.271-0.381,2.076,3.343c2.424-0.719,3.316,0.752,2.801,4.357
	c2.748-0.738,4.088,0.656,3.906,5.041c3.195-1.684,4.871-0.379,5.828,4.656c2.613-2.526,4.512-1.324,6.354,2.555
	c2.066-1.59,4.074-0.504,5.742,2.812c2.352-1.272,4.361-0.315,5.809,3.241c2.459-1.788,4.357-0.975,5.744,3.212
	c2.186-2.718,3.859-2.062,5.588,2.002c1.285-2.921,2.625-2.435,4.27-0.366c0.219-0.478,0.48-0.734,0.756-0.855
	c0.32,0.109,0.494,0.166,0.494,0.166s0.189-0.06,0.533-0.152c0.117,0.038,0.232,0.08,0.338,0.123
	c0.588,0.148,0.922,0.254,0.922,0.254s0.318-0.104,0.895-0.304c0.125,0.14,0.248,0.308,0.355,0.544
	c0.311-0.389,0.607-0.721,0.898-0.986c0.506-0.182,1.094-0.395,1.75-0.639c0.563,0.178,1.098,0.795,1.623,1.991
	c1.729-4.063,3.402-4.72,5.588-2.002c1.387-4.187,3.283-5,5.744-3.212c0.717-1.76,1.57-2.881,2.535-3.413
	c0.047-0.022,0.092-0.045,0.139-0.067c0.949-0.464,2.002-0.374,3.135,0.239c1.666-3.315,3.676-4.401,5.742-2.812
	c1.84-3.879,3.738-5.081,6.352-2.555c0.959-5.035,2.633-6.34,5.83-4.656c-0.184-4.385,1.156-5.779,3.904-5.041
	c-0.516-3.605,0.379-5.076,2.801-4.357c-1.195-3.724-0.859-5.258,2.076-3.343c-2.936-3.474-2.936-4.222,0.557-1.199
	c-3.492-5.589-3.492-7.407,1.258-2.983C353.327,416.828,353.327,414.367,359.817,419.77z"/>
<circle id="PRIMARY_12_" fill="#FFFA00" stroke="#231F20" stroke-miterlimit="10" cx="338.332" cy="383.888" r="4.167"/>
<circle id="PRIMARY_11_" fill="#FFFA00" stroke="#231F20" stroke-miterlimit="10" cx="281.166" cy="383.888" r="4.167"/>
<path id="PRIMARY_10_" fill="#FFFA00" stroke="#231F20" stroke-miterlimit="10" d="M346.292,407.658l-9.475-27.767
	c-2.824-8.274-11.822-12.692-20.096-9.869c-2.527,0.862-4.688,2.305-6.4,4.123c-1.711-1.817-3.873-3.26-6.398-4.123
	c-8.273-2.824-17.271,1.594-20.096,9.869l-9.477,27.767c-2.822,8.274,1.596,17.271,9.869,20.095
	c4.865,1.661,9.973,0.803,13.936-1.856v-8.137c0-6.205,6.941-11.234,15.5-11.234s15.5,5.029,15.5,11.234v9.531
	c0,0.385-0.027,0.766-0.08,1.141c2.395,0.344,4.902,0.156,7.35-0.679C344.698,424.93,349.116,415.933,346.292,407.658z"/>
<path fill-opacity="0.6" fill="#FFFFFF" stroke="#231F20" stroke-miterlimit="10" d="M329.155,427.291c0,6.205-6.941,11.234-15.5,11.234
	l0,0c-8.559,0-15.5-5.029-15.5-11.234v-9.531c0-6.205,6.941-11.234,15.5-11.234l0,0c8.559,0,15.5,5.029,15.5,11.234V427.291z"/>
<path id="SECONDARY_4_" fill="#894000" stroke="#231F20" stroke-miterlimit="10" d="M313.653,415.844
	c4.68,0,8.559-3.037,9.348-7.031c-2.602-1.43-5.832-2.287-9.346-2.287c-3.516,0-6.746,0.857-9.346,2.287
	C305.097,412.807,308.978,415.844,313.653,415.844z"/>
<path d="M318.249,411.185c-1.658,0-3,1.344-3,3.001c0,0.518,0.143,0.996,0.373,1.422c2.084-0.396,3.918-1.414,5.26-2.836
	C320.374,411.831,319.394,411.185,318.249,411.185z"/>
<path d="M309.562,411.185c-1.258,0-2.332,0.776-2.777,1.874c1.398,1.357,3.266,2.303,5.369,2.616c0.254-0.44,0.41-0.944,0.41-1.489
	C312.563,412.528,311.22,411.185,309.562,411.185z"/>
<line fill="none" stroke="#231F20" stroke-miterlimit="10" x1="313.821" y1="415.844" x2="313.821" y2="425.525"/>
<path fill="none" stroke="#231F20" stroke-miterlimit="10" d="M329.155,427.291c0,6.205-6.941,11.234-15.5,11.234l0,0
	c-8.559,0-15.5-5.029-15.5-11.234v-9.531c0-6.205,6.941-11.234,15.5-11.234l0,0c8.559,0,15.5,5.029,15.5,11.234V427.291z"/>
<g id="XMLID_2_">
	<g>
		<path d="M298.041,427.93c-0.36-0.72,0.11-3.479,0.11-6.71l0.06-0.02c1.02,4.55,14.339,4.58,15.53,0.09
			c1.15,4.49,14.19,4.46,15.19-0.09l0.06,0.02c0,3.59,0.71,6.601,0.1,6.87v0.01c-0.989,4.62-13.93,6.24-15.319,2.051
			c-1,4.71-15.96,3.119-15.96-2.03L298.041,427.93z"/>
	</g>
	<g>
		<path fill="none" stroke="#231F20" stroke-miterlimit="10" d="M298.151,420.64c0,0.2,0.02,0.38,0.06,0.561
			c1.02,4.55,14.339,4.58,15.53,0.09c0.05-0.2,0.08-0.42,0.08-0.65"/>
		<path fill="none" stroke="#231F20" stroke-miterlimit="10" d="M313.651,420.64c0,0.23,0.03,0.45,0.09,0.65
			c1.15,4.49,14.19,4.46,15.19-0.09c0.04-0.181,0.06-0.36,0.06-0.561"/>
		<path fill="none" stroke="#231F20" stroke-miterlimit="10" d="M313.771,430.14c0.029-0.159,0.05-0.33,0.05-0.5"/>
		<path fill="none" stroke="#231F20" stroke-miterlimit="10" d="M297.811,428.12c0,5.149,14.96,6.74,15.96,2.03"/>
		<path fill="none" stroke="#231F20" stroke-miterlimit="10" d="M329.091,428.09c0.04-0.18,0.061-0.37,0.061-0.56"/>
		<path fill="none" stroke="#231F20" stroke-miterlimit="10" d="M313.651,429.38c0,0.271,0.04,0.53,0.12,0.76v0.011
			c1.39,4.189,14.33,2.569,15.319-2.051"/>
		<path fill="none" stroke="#231F20" stroke-miterlimit="10" d="M298.151,421.22c0,3.23-0.47,5.99-0.11,6.71
			c0.06,0.13,0.15,0.19,0.26,0.19"/>
		<path fill="none" stroke="#231F20" stroke-miterlimit="10" d="M328.991,421.22c0,3.59,0.71,6.601,0.1,6.87v0.01
			c-0.029,0.011-0.06,0.021-0.1,0.021"/>
	</g>
</g>
<polygon fill="#FFFFFF" stroke="#231F20" stroke-miterlimit="10" points="306.558,428.893 304.343,424.67 306.491,424.693 
	308.679,424.717 "/>
<polygon fill="#FFFFFF" stroke="#231F20" stroke-miterlimit="10" points="322.927,428.893 320.714,424.67 322.862,424.693 
	325.05,424.717 "/>
<ellipse fill="#FFFFFF" stroke="#231F20" stroke-miterlimit="10" cx="298.741" cy="388.363" rx="5.532" ry="7.243"/>
<ellipse cx="300.183" cy="388.363" rx="2.781" ry="3.641"/>
<ellipse fill="#FFFFFF" stroke="#231F20" stroke-miterlimit="10" cx="321.322" cy="388.055" rx="5.532" ry="7.243"/>
<ellipse cx="322.764" cy="388.055" rx="2.781" ry="3.641"/>
<path id="PRIMARY_9_" fill="#FFFA00" stroke="#231F20" stroke-miterlimit="10" d="M304.272,388.363l-5.532-2.425l-4.351-2.049
	c0.651-1.407,2.485-2.769,4.35-2.769C301.794,381.12,304.272,384.363,304.272,388.363z"/>
<path id="PRIMARY_8_" fill="#FFFA00" stroke="#231F20" stroke-miterlimit="10" d="M315.79,388.036l5.532-2.425l4.351-2.049
	c-0.651-1.407-2.485-2.769-4.35-2.769C318.269,380.792,315.79,384.036,315.79,388.036z"/>
</svg>
