<?xml version="1.0" encoding="utf-8"?>
<!-- Generator: Adobe Illustrator 16.0.0, SVG Export Plug-In . SVG Version: 6.00 Build 0)  -->
<svg version="1.1" id="Layer_1" xmlns="http://www.w3.org/2000/svg" xmlns:xlink="http://www.w3.org/1999/xlink" x="0px" y="0px"
	 width="612px" height="792px" viewBox="0 0 612 792" enable-background="new 0 0 612 792" xml:space="preserve">
<rect id="head_frame_1_" x="158.303" y="334.464" fill="#231F20" fill-opacity="0" width="256" height="221.439"/>
<path id="SECONDARY_9_" fill="#894000" stroke="#231F20" stroke-width="1.6929" stroke-miterlimit="10" d="M376.216,484.378
	c-11.003-17.807-11.003-22.328,2.209-14.281c-13.212-16.724-13.212-20.882-0.325-13.784c-12.887-14.327-12.887-17.4-0.772-10.353
	c-12.114-11.387-12.114-12.651-0.347-3.974c-11.767-11.551-12.027-14.376-0.153-9.92c-12.873-9.977-13.613-12.672-1.395-9.395
	c-14.146-8.513-15.331-11.051-1.702-8.804c-16.41-7.134-18.006-9.485-2.44-6.854c-19.131-7.113-21.101-9.246-1.776-3.667
	c-23.601-9.602-25.903-11.487-2.274-3.93c-28.545-11.058-31.154-12.666-2.971-5.193c-33.662-10.39-36.538-11.695-4.031-6.32
	c-38.479-7.651-41.581-8.623-14.448-16.975c-33.53,6.777-36.826,6.172-23.535-9.822c-20.034,15.177-23.488,14.963-23.665,1.108
	c-3.338,13.855-5.583,13.855-9.366,3.141c-1.131,5.511-2.672,8.175-4.547,9.125c-1.602-1.195-2.937-3.837-3.944-8.744
	c-3.784,10.715-6.03,10.715-9.367-3.141c-0.176,13.855-3.628,14.068-23.664-1.108c13.29,15.993,9.996,16.599-23.533,9.822
	c27.13,8.354,24.028,9.324-14.451,16.975c32.506-5.375,29.633-4.07-4.03,6.321c28.181-7.473,25.574-5.864-2.971,5.192
	c23.63-7.558,21.325-5.671-2.275,3.931c19.324-5.58,17.354-3.446-1.775,3.667c15.565-2.631,13.968-0.279-2.443,6.854
	c13.63-2.244,12.444,0.293-1.703,8.804c12.22-3.278,11.479-0.581-1.393,9.396c11.874-4.457,11.617-1.633-0.152,9.92
	c11.767-8.678,11.767-7.413-0.346,3.972c12.115-7.046,12.115-3.974-0.773,10.354c12.888-7.095,12.888-2.937-0.324,13.784
	c13.212-8.046,13.212-3.526,2.207,14.282c11.005-9.133,11.005-4.972,2.952,9.735c8.053-7.478,8.053-4.402,2.129,5.043
	c5.924-5.109,5.924-3.844,0.944,2.029c4.981-3.239,5.545-0.646,3.52,5.65c4.109-1.217,5.622,1.271,4.748,7.363
	c4.659-1.246,6.931,1.109,6.62,8.521c5.419-2.846,8.258-0.641,9.882,7.871c4.431-4.271,7.65-2.238,10.771,4.317
	c3.502-2.687,6.909-0.851,9.735,4.755c3.988-2.151,7.393-0.534,9.849,5.479c4.17-3.022,7.386-1.648,9.737,5.43
	c3.706-4.596,6.543-3.487,9.475,3.384c2.178-4.938,4.45-4.117,7.241-0.619c0.371-0.808,0.813-1.241,1.281-1.446
	c0.542,0.185,0.838,0.281,0.838,0.281s0.32-0.102,0.901-0.257c0.199,0.064,0.394,0.136,0.575,0.208
	c0.995,0.25,1.563,0.43,1.563,0.43s0.54-0.176,1.517-0.516c0.214,0.238,0.42,0.521,0.603,0.922c0.526-0.658,1.029-1.22,1.521-1.667
	c0.859-0.308,1.854-0.669,2.967-1.079c0.954,0.3,1.861,1.343,2.753,3.363c2.931-6.867,5.767-7.978,9.474-3.384
	c2.352-7.077,5.566-8.452,9.738-5.43c1.214-2.974,2.661-4.869,4.299-5.769c0.077-0.037,0.155-0.076,0.234-0.112
	c1.609-0.785,3.395-0.633,5.314,0.402c2.825-5.603,6.232-7.438,9.735-4.752c3.119-6.558,6.338-8.59,10.769-4.319
	c1.626-8.511,4.465-10.718,9.884-7.87c-0.312-7.412,1.96-9.77,6.619-8.521c-0.874-6.095,0.641-8.581,4.748-7.365
	c-2.024-6.294-1.457-8.889,3.521-5.651c-4.979-5.872-4.979-7.137,0.943-2.027c-5.921-9.447-5.921-12.52,2.133-5.042
	C365.211,479.404,365.211,475.245,376.216,484.378z"/>
<ellipse id="PRIMARY_20_" fill="#FFFA00" stroke="#231F20" stroke-width="1.6929" stroke-miterlimit="10" cx="339.79" cy="423.725" rx="7.065" ry="7.044"/>
<ellipse id="PRIMARY_19_" fill="#FFFA00" stroke="#231F20" stroke-width="1.6929" stroke-miterlimit="10" cx="242.873" cy="423.725" rx="7.065" ry="7.044"/>
<path id="PRIMARY_18_" fill="#FFFA00" stroke="#231F20" stroke-width="1.6929" stroke-miterlimit="10" d="M353.285,463.904
	l-16.066-46.936c-4.786-13.986-20.039-21.455-34.067-16.684c-4.284,1.457-7.947,3.896-10.851,6.97
	c-2.901-3.071-6.565-5.511-10.848-6.97c-14.026-4.773-29.281,2.695-34.069,16.684l-16.067,46.936
	c-4.786,13.985,2.706,29.194,16.731,33.968c8.249,2.808,16.907,1.357,23.625-3.137V480.98c0-10.489,11.768-18.989,26.277-18.989
	c14.514,0,26.278,8.5,26.278,18.989v16.111c0,0.65-0.045,1.293-0.133,1.928c4.06,0.582,8.308,0.264,12.459-1.147
	C350.583,493.1,358.073,477.892,353.285,463.904z"/>
<path fill="#FFFFFF" fill-opacity="0.6" stroke="#231F20" stroke-width="1.6929" stroke-miterlimit="10" d="M324.23,497.092
	c0,10.489-11.765,18.991-26.277,18.991l0,0c-14.51,0-26.277-8.502-26.277-18.991V480.98c0-10.489,11.767-18.989,26.277-18.989l0,0
	c14.513,0,26.277,8.5,26.277,18.989V497.092z"/>
<path id="SECONDARY_8_" fill="#894000" stroke="#231F20" stroke-width="1.6929" stroke-miterlimit="10" d="M297.951,477.741
	c7.934,0,14.512-5.134,15.848-11.885c-4.41-2.417-9.886-3.865-15.846-3.865c-5.959,0-11.434,1.448-15.845,3.865
	C283.444,472.607,290.022,477.741,297.951,477.741z"/>
<path d="M305.742,469.866c-2.811,0-5.088,2.272-5.088,5.072c0,0.876,0.242,1.683,0.633,2.404c3.535-0.67,6.643-2.391,8.917-4.793
	C309.345,470.959,307.682,469.866,305.742,469.866z"/>
<path d="M291.014,469.866c-2.134,0-3.953,1.312-4.708,3.167c2.371,2.295,5.538,3.895,9.103,4.423
	c0.429-0.743,0.693-1.595,0.693-2.518C296.102,472.138,293.825,469.866,291.014,469.866z"/>
<line fill="none" stroke="#231F20" stroke-width="1.6929" stroke-miterlimit="10" x1="298.236" y1="477.741" x2="298.236" y2="494.106"/>
<path fill="none" stroke="#231F20" stroke-width="1.6929" stroke-miterlimit="10" d="M324.23,497.092
	c0,10.489-11.765,18.991-26.277,18.991l0,0c-14.51,0-26.277-8.502-26.277-18.991V480.98c0-10.489,11.767-18.989,26.277-18.989l0,0
	c14.513,0,26.277,8.5,26.277,18.989V497.092z"/>
<ellipse id="PRIMARY_17_" fill="#FFFA00" stroke="#231F20" stroke-width="1.6929" stroke-miterlimit="10" cx="272.667" cy="431.289" rx="9.379" ry="12.243"/>
<ellipse id="PRIMARY_16_" fill="#FFFA00" stroke="#231F20" stroke-width="1.6929" stroke-miterlimit="10" cx="310.949" cy="430.769" rx="9.379" ry="12.243"/>
<g id="XMLID_3_">
	<g>
		<path d="M271.482,498.171c-0.61-1.217,0.187-5.88,0.187-11.343l0.102-0.033c1.728,7.691,24.311,7.742,26.33,0.152
			c1.946,7.59,24.054,7.539,25.749-0.152l0.104,0.033c0,6.068,1.204,11.159,0.169,11.613v0.017
			c-1.679,7.811-23.615,10.549-25.974,3.47c-1.695,7.961-27.058,5.271-27.058-3.434L271.482,498.171z"/>
	</g>
	<g>
		<path fill="none" stroke="#231F20" stroke-width="1.6929" stroke-miterlimit="10" d="M271.669,485.848
			c0,0.339,0.034,0.643,0.102,0.949c1.729,7.69,24.311,7.742,26.33,0.152c0.084-0.338,0.132-0.71,0.132-1.1"/>
		<path fill="none" stroke="#231F20" stroke-width="1.6929" stroke-miterlimit="10" d="M297.946,485.848
			c0,0.39,0.051,0.762,0.155,1.1c1.947,7.59,24.055,7.539,25.75-0.152c0.068-0.306,0.104-0.608,0.104-0.948"/>
		<path fill="none" stroke="#231F20" stroke-width="1.6929" stroke-miterlimit="10" d="M298.149,501.906
			c0.052-0.266,0.085-0.557,0.085-0.844"/>
		<path fill="none" stroke="#231F20" stroke-width="1.6929" stroke-miterlimit="10" d="M271.092,498.492
			c0,8.705,25.362,11.396,27.058,3.434"/>
		<path fill="none" stroke="#231F20" stroke-width="1.6929" stroke-miterlimit="10" d="M324.123,498.441
			c0.068-0.304,0.102-0.626,0.102-0.945"/>
		<path fill="none" stroke="#231F20" stroke-width="1.6929" stroke-miterlimit="10" d="M297.946,500.623
			c0,0.459,0.067,0.896,0.203,1.283v0.021c2.359,7.079,24.295,4.341,25.974-3.47"/>
		<path fill="none" stroke="#231F20" stroke-width="1.6929" stroke-miterlimit="10" d="M271.669,486.828
			c0,5.461-0.797,10.126-0.186,11.343c0.101,0.219,0.254,0.321,0.44,0.321"/>
		<path fill="none" stroke="#231F20" stroke-width="1.6929" stroke-miterlimit="10" d="M323.954,486.828
			c0,6.068,1.204,11.159,0.169,11.613v0.017c-0.051,0.02-0.104,0.036-0.169,0.036"/>
	</g>
</g>
<line fill="none" stroke="#231F20" stroke-width="1.6929" stroke-miterlimit="10" x1="280.756" y1="425.113" x2="264.862" y2="438.07"/>
<line fill="none" stroke="#231F20" stroke-width="1.6929" stroke-miterlimit="10" x1="302.258" y1="424.291" x2="318.151" y2="437.246"/>
<polygon fill="#FFFFFF" stroke="#231F20" stroke-width="1.6929" stroke-miterlimit="10" points="285.92,499.799 282.167,492.661 
	285.806,492.701 289.518,492.739 "/>
<polygon fill="#FFFFFF" stroke="#231F20" stroke-width="1.6929" stroke-miterlimit="10" points="313.673,499.799 309.92,492.661 
	313.563,492.701 317.271,492.739 "/>
</svg>
