<?xml version="1.0" encoding="utf-8"?>
<!-- Generator: Adobe Illustrator 16.0.0, SVG Export Plug-In . SVG Version: 6.00 Build 0)  -->
<svg version="1.1" id="Layer_1" xmlns="http://www.w3.org/2000/svg" xmlns:xlink="http://www.w3.org/1999/xlink" x="0px" y="0px"
	 width="612px" height="792px" viewBox="0 0 612 792" enable-background="new 0 0 612 792" xml:space="preserve">
<rect id="head_frame_1_" x="172.315" y="421.501" fill="#231F20" fill-opacity="0" width="256" height="221.439"/>
<path id="SECONDARY_5_" fill="#894000" stroke="#231F20" stroke-width="1.6929" stroke-miterlimit="10" d="M390.246,571.416
	c-11.004-17.807-11.004-22.328,2.208-14.281c-13.212-16.724-13.212-20.882-0.324-13.785c-12.888-14.326-12.888-17.399-0.774-10.353
	c-12.113-11.387-12.113-12.65-0.345-3.972c-11.767-11.553-12.03-14.378-0.155-9.921c-12.871-9.978-13.611-12.673-1.393-9.396
	c-14.147-8.513-15.333-11.051-1.704-8.803c-16.41-7.134-18.005-9.485-2.438-6.855c-19.133-7.112-21.103-9.245-1.775-3.666
	c-23.602-9.602-25.906-11.488-2.274-3.931c-28.548-11.057-31.157-12.667-2.972-5.193c-33.664-10.391-36.54-11.695-4.033-6.321
	c-38.479-7.649-41.581-8.622-14.448-16.975c-33.53,6.777-36.825,6.173-23.533-9.821c-20.036,15.177-23.49,14.964-23.666,1.107
	c-3.339,13.856-5.582,13.856-9.367,3.142c-1.129,5.511-2.672,8.175-4.547,9.124c-1.602-1.195-2.936-3.837-3.943-8.744
	c-3.784,10.716-6.03,10.716-9.367-3.141c-0.176,13.856-3.626,14.068-23.662-1.107c13.288,15.993,9.994,16.599-23.534,9.821
	c27.129,8.354,24.026,9.324-14.453,16.976c32.506-5.376,29.633-4.071-4.03,6.32c28.182-7.473,25.576-5.864-2.97,5.193
	c23.631-7.559,21.324-5.672-2.276,3.931c19.325-5.581,17.354-3.447-1.775,3.666c15.567-2.631,13.97-0.279-2.443,6.854
	c13.633-2.246,12.444,0.293-1.702,8.804c12.222-3.279,11.479-0.582-1.394,9.395c11.875-4.457,11.617-1.633-0.152,9.921
	c11.767-8.678,11.767-7.414-0.345,3.972c12.114-7.047,12.114-3.974-0.774,10.353c12.888-7.095,12.888-2.936-0.324,13.785
	c13.212-8.047,13.212-3.527,2.209,14.281c11.002-9.132,11.002-4.972,2.949,9.737c8.053-7.479,8.053-4.402,2.129,5.043
	c5.924-5.109,5.924-3.846,0.944,2.027c4.981-3.236,5.545-0.646,3.52,5.65c4.109-1.217,5.622,1.271,4.748,7.364
	c4.659-1.246,6.932,1.109,6.623,8.521c5.417-2.845,8.258-0.64,9.881,7.871c4.43-4.271,7.649-2.238,10.772,4.318
	c3.502-2.687,6.906-0.852,9.734,4.756c3.988-2.153,7.394-0.534,9.849,5.479c4.169-3.024,7.387-1.649,9.738,5.428
	c3.706-4.596,6.542-3.486,9.474,3.385c2.179-4.937,4.45-4.118,7.239-0.618c0.371-0.807,0.813-1.242,1.281-1.446
	c0.543,0.185,0.838,0.28,0.838,0.28s0.32-0.102,0.903-0.255c0.198,0.064,0.394,0.134,0.573,0.206c0.996,0.25,1.563,0.43,1.563,0.43
	s0.54-0.176,1.518-0.516c0.213,0.238,0.421,0.523,0.602,0.923c0.528-0.659,1.029-1.221,1.523-1.667
	c0.857-0.309,1.854-0.669,2.967-1.08c0.955,0.3,1.86,1.343,2.751,3.363c2.931-6.867,5.769-7.979,9.474-3.383
	c2.352-7.078,5.566-8.452,9.738-5.43c1.216-2.976,2.662-4.871,4.299-5.77c0.079-0.037,0.155-0.076,0.234-0.113
	c1.609-0.784,3.395-0.632,5.314,0.403c2.825-5.604,6.233-7.438,9.735-4.753c3.119-6.558,6.338-8.589,10.77-4.319
	c1.626-8.51,4.464-10.717,9.885-7.868c-0.313-7.413,1.958-9.771,6.617-8.522c-0.874-6.095,0.643-8.581,4.748-7.366
	c-2.024-6.294-1.455-8.888,3.521-5.651c-4.978-5.871-4.978-7.136,0.945-2.025c-5.921-9.449-5.921-12.521,2.132-5.042
	C379.242,566.442,379.242,562.283,390.246,571.416z"/>
<ellipse id="PRIMARY_12_" fill="#FFFA00" stroke="#231F20" stroke-width="1.6929" stroke-miterlimit="10" cx="353.82" cy="510.762" rx="7.064" ry="7.044"/>
<ellipse id="PRIMARY_11_" fill="#FFFA00" stroke="#231F20" stroke-width="1.6929" stroke-miterlimit="10" cx="256.903" cy="510.762" rx="7.064" ry="7.044"/>
<path id="PRIMARY_10_" fill="#FFFA00" stroke="#231F20" stroke-width="1.6929" stroke-miterlimit="10" d="M367.315,550.942
	l-16.063-46.937c-4.788-13.987-20.043-21.454-34.071-16.684c-4.283,1.458-7.947,3.897-10.85,6.971
	c-2.9-3.071-6.566-5.512-10.848-6.971c-14.025-4.772-29.28,2.695-34.069,16.684l-16.067,46.937
	c-4.785,13.985,2.705,29.192,16.731,33.968c8.248,2.809,16.908,1.357,23.626-3.137v-13.756c0-10.489,11.768-18.988,26.279-18.988
	c14.51,0,26.278,8.499,26.278,18.988v16.112c0,0.649-0.047,1.294-0.136,1.927c4.06,0.584,8.31,0.266,12.46-1.146
	C364.613,580.137,372.104,564.93,367.315,550.942z"/>
<path fill="#FFFFFF" fill-opacity="0.6" stroke="#231F20" stroke-width="1.6929" stroke-miterlimit="10" d="M338.263,584.13
	c0,10.489-11.769,18.989-26.278,18.989l0,0c-14.511,0-26.279-8.5-26.279-18.989v-16.112c0-10.489,11.768-18.988,26.279-18.988l0,0
	c14.51,0,26.278,8.499,26.278,18.988V584.13z"/>
<path id="SECONDARY_4_" fill="#894000" stroke="#231F20" stroke-width="1.6929" stroke-miterlimit="10" d="M311.981,564.779
	c7.934,0,14.51-5.134,15.848-11.886c-4.411-2.418-9.888-3.864-15.845-3.864c-5.962,0-11.438,1.446-15.845,3.864
	C297.476,559.646,304.054,564.779,311.981,564.779z"/>
<path d="M319.772,556.904c-2.812,0-5.086,2.271-5.086,5.071c0,0.877,0.241,1.685,0.632,2.406c3.533-0.671,6.643-2.391,8.918-4.795
	C323.375,557.996,321.713,556.904,319.772,556.904z"/>
<path d="M305.046,556.904c-2.134,0-3.954,1.313-4.709,3.166c2.369,2.295,5.536,3.896,9.103,4.422
	c0.431-0.742,0.695-1.593,0.695-2.517C310.132,559.176,307.855,556.904,305.046,556.904z"/>
<line fill="none" stroke="#231F20" stroke-width="1.6929" stroke-miterlimit="10" x1="312.266" y1="564.779" x2="312.266" y2="581.146"/>
<path fill="none" stroke="#231F20" stroke-width="1.6929" stroke-miterlimit="10" d="M338.263,584.13
	c0,10.489-11.769,18.989-26.278,18.989l0,0c-14.511,0-26.279-8.5-26.279-18.989v-16.112c0-10.489,11.768-18.988,26.279-18.988l0,0
	c14.51,0,26.278,8.499,26.278,18.988V584.13z"/>
<g id="XMLID_2_">
	<g>
		<path d="M285.513,585.209c-0.61-1.217,0.186-5.881,0.186-11.342l0.102-0.033c1.729,7.689,24.31,7.742,26.329,0.151
			c1.949,7.591,24.057,7.538,25.752-0.151l0.103,0.033c0,6.067,1.203,11.158,0.169,11.613v0.018
			c-1.677,7.809-23.616,10.548-25.972,3.467c-1.695,7.962-27.057,5.271-27.057-3.432L285.513,585.209z"/>
	</g>
	<g>
		<path fill="none" stroke="#231F20" stroke-width="1.6929" stroke-miterlimit="10" d="M285.699,572.886
			c0,0.338,0.034,0.642,0.102,0.95c1.729,7.689,24.31,7.742,26.329,0.151c0.085-0.339,0.136-0.709,0.136-1.1"/>
		<path fill="none" stroke="#231F20" stroke-width="1.6929" stroke-miterlimit="10" d="M311.978,572.886
			c0,0.391,0.05,0.761,0.152,1.1c1.949,7.591,24.057,7.538,25.752-0.151c0.067-0.309,0.103-0.61,0.103-0.95"/>
		<path fill="none" stroke="#231F20" stroke-width="1.6929" stroke-miterlimit="10" d="M312.182,588.945
			c0.048-0.268,0.084-0.559,0.084-0.846"/>
		<path fill="none" stroke="#231F20" stroke-width="1.6929" stroke-miterlimit="10" d="M285.123,585.531
			c0,8.703,25.364,11.394,27.059,3.434"/>
		<path fill="none" stroke="#231F20" stroke-width="1.6929" stroke-miterlimit="10" d="M338.153,585.48
			c0.067-0.305,0.104-0.627,0.104-0.946"/>
		<path fill="none" stroke="#231F20" stroke-width="1.6929" stroke-miterlimit="10" d="M311.978,587.662
			c0,0.457,0.068,0.895,0.204,1.283v0.02c2.355,7.081,24.293,4.342,25.97-3.467"/>
		<path fill="none" stroke="#231F20" stroke-width="1.6929" stroke-miterlimit="10" d="M285.699,573.867
			c0,5.461-0.796,10.125-0.186,11.342c0.102,0.221,0.254,0.322,0.44,0.322"/>
		<path fill="none" stroke="#231F20" stroke-width="1.6929" stroke-miterlimit="10" d="M337.984,573.867
			c0,6.067,1.203,11.158,0.169,11.613v0.018c-0.048,0.02-0.102,0.035-0.169,0.035"/>
	</g>
</g>
<polygon fill="#FFFFFF" stroke="#231F20" stroke-width="1.6929" stroke-miterlimit="10" points="299.951,586.836 296.196,579.698 
	299.839,579.737 303.547,579.778 "/>
<polygon fill="#FFFFFF" stroke="#231F20" stroke-width="1.6929" stroke-miterlimit="10" points="327.703,586.836 323.951,579.698 
	327.594,579.737 331.303,579.778 "/>
<ellipse fill="#FFFFFF" stroke="#231F20" stroke-width="1.6929" stroke-miterlimit="10" cx="286.7" cy="518.326" rx="9.378" ry="12.243"/>
<ellipse cx="289.144" cy="518.326" rx="4.714" ry="6.154"/>
<ellipse fill="#FFFFFF" stroke="#231F20" stroke-width="1.6929" stroke-miterlimit="10" cx="324.982" cy="517.806" rx="9.378" ry="12.243"/>
<ellipse cx="327.427" cy="517.806" rx="4.715" ry="6.154"/>
<path id="PRIMARY_9_" fill="#FFFA00" stroke="#231F20" stroke-width="1.6929" stroke-miterlimit="10" d="M296.076,518.326
	l-9.378-4.1l-7.377-3.463c1.104-2.378,4.213-4.681,7.375-4.681C291.875,506.083,296.076,511.564,296.076,518.326z"/>
<path id="PRIMARY_8_" fill="#FFFA00" stroke="#231F20" stroke-width="1.6929" stroke-miterlimit="10" d="M315.604,517.773l9.379-4.1
	l7.376-3.464c-1.103-2.378-4.212-4.68-7.374-4.68C319.806,505.529,315.604,511.012,315.604,517.773z"/>
</svg>
