<?xml version="1.0" encoding="utf-8"?>
<!-- Generator: Adobe Illustrator 16.0.0, SVG Export Plug-In . SVG Version: 6.00 Build 0)  -->
<svg version="1.1" id="Layer_1" xmlns="http://www.w3.org/2000/svg" xmlns:xlink="http://www.w3.org/1999/xlink" x="0px" y="0px"
	 width="612px" height="792px" viewBox="0 0 612 792" enable-background="new 0 0 612 792" xml:space="preserve">
<rect id="head_frame_1_" x="231.272" y="331.083" fill-opacity="0" fill="#231F20" width="151" height="131"/>
<path id="SECONDARY" fill="#894000" stroke="#231F20" stroke-miterlimit="10" d="M359.818,419.882
	c-6.491-10.535-6.491-13.208,1.302-8.449c-7.793-9.893-7.793-12.353-0.191-8.155c-7.602-8.475-7.602-10.293-0.456-6.125
	c-7.146-6.735-7.146-7.483-0.204-2.349c-6.941-6.834-7.095-8.505-0.091-5.869c-7.593-5.902-8.029-7.497-0.822-5.558
	c-8.344-5.036-9.043-6.537-1.004-5.208c-9.68-4.22-10.621-5.611-1.44-4.055c-11.284-4.208-12.446-5.47-1.047-2.169
	c-13.921-5.68-15.28-6.796-1.342-2.325c-16.837-6.541-18.376-7.493-1.752-3.072c-19.856-6.147-21.552-6.919-2.378-3.739
	c-22.697-4.526-24.527-5.101-8.523-10.042c-19.777,4.009-21.721,3.651-13.881-5.81c-11.818,8.978-13.855,8.852-13.959,0.655
	c-1.969,8.197-3.293,8.197-5.525,1.858c-0.667,3.26-1.576,4.836-2.682,5.398c-0.945-0.707-1.732-2.27-2.326-5.173
	c-2.232,6.339-3.557,6.339-5.525-1.858c-0.104,8.197-2.14,8.323-13.958-0.655c7.839,9.461,5.896,9.819-13.881,5.81
	c16.003,4.942,14.173,5.516-8.524,10.042c19.173-3.18,17.478-2.408-2.378,3.739c16.624-4.421,15.085-3.469-1.752,3.072
	c13.939-4.471,12.579-3.355-1.342,2.325c11.398-3.301,10.237-2.039-1.047,2.169c9.181-1.556,8.24-0.165-1.441,4.055
	c8.04-1.328,7.34,0.173-1.003,5.208c7.208-1.939,6.771-0.344-0.822,5.558c7.003-2.637,6.851-0.966-0.091,5.869
	c6.941-5.134,6.941-4.386-0.204,2.349c7.145-4.168,7.145-2.35-0.457,6.125c7.602-4.197,7.602-1.737-0.191,8.155
	c7.793-4.759,7.793-2.086,1.302,8.449c6.491-5.401,6.491-2.942,1.741,5.761c4.75-4.425,4.75-2.607,1.257,2.982
	c3.493-3.022,3.493-2.273,0.556,1.199c2.937-1.914,3.272-0.381,2.076,3.343c2.423-0.719,3.316,0.753,2.801,4.358
	c2.749-0.74,4.088,0.655,3.905,5.039c3.196-1.684,4.871-0.377,5.829,4.657c2.614-2.526,4.512-1.323,6.353,2.556
	c2.066-1.591,4.075-0.504,5.742,2.811c2.352-1.272,4.361-0.316,5.809,3.24c2.46-1.787,4.357-0.975,5.744,3.213
	c2.186-2.717,3.859-2.061,5.588,2.002c1.285-2.921,2.625-2.436,4.271-0.365c0.219-0.479,0.48-0.735,0.756-0.856
	c0.32,0.108,0.494,0.166,0.494,0.166s0.189-0.06,0.532-0.152c0.117,0.038,0.232,0.079,0.339,0.122
	c0.587,0.149,0.922,0.255,0.922,0.255s0.318-0.104,0.894-0.304c0.126,0.139,0.248,0.307,0.356,0.545
	c0.31-0.389,0.607-0.723,0.897-0.986c0.507-0.182,1.094-0.396,1.75-0.641c0.563,0.18,1.098,0.797,1.624,1.992
	c1.729-4.063,3.402-4.719,5.588-2.002c1.387-4.188,3.283-5,5.744-3.213c0.716-1.76,1.57-2.881,2.535-3.412
	c0.046-0.022,0.092-0.045,0.139-0.068c0.949-0.463,2.002-0.373,3.135,0.24c1.666-3.314,3.676-4.401,5.742-2.811
	c1.84-3.879,3.738-5.082,6.352-2.556c0.959-5.034,2.633-6.341,5.83-4.657c-0.184-4.384,1.156-5.779,3.904-5.039
	c-0.516-3.605,0.378-5.077,2.801-4.358c-1.195-3.724-0.86-5.257,2.076-3.343c-2.937-3.473-2.937-4.222,0.557-1.199
	c-3.493-5.59-3.493-7.407,1.257-2.982C353.327,416.939,353.327,414.48,359.818,419.882z"/>
<circle id="PRIMARY" fill="#FFFA00" stroke="#231F20" stroke-miterlimit="10" cx="338.333" cy="384" r="4.167"/>
<circle id="PRIMARY_1_" fill="#FFFA00" stroke="#231F20" stroke-miterlimit="10" cx="281.167" cy="384" r="4.167"/>
<path id="PRIMARY_2_" fill="#FFFA00" stroke="#231F20" stroke-miterlimit="10" d="M346.293,407.77l-9.476-27.766
	c-2.824-8.274-11.821-12.692-20.095-9.869c-2.527,0.862-4.688,2.305-6.4,4.123c-1.711-1.817-3.873-3.26-6.399-4.123
	c-8.273-2.824-17.271,1.594-20.095,9.869l-9.476,27.766c-2.824,8.275,1.595,17.271,9.869,20.096
	c4.865,1.661,9.972,0.803,13.935-1.856v-8.136c0-6.205,6.941-11.235,15.5-11.235c8.56,0,15.5,5.03,15.5,11.235v9.53
	c0,0.386-0.027,0.766-0.079,1.141c2.395,0.345,4.901,0.157,7.349-0.679C344.698,425.041,349.117,416.045,346.293,407.77z"/>
<path fill-opacity="0.6" fill="#FFFFFF" stroke="#231F20" stroke-miterlimit="10" d="M329.155,427.403c0,6.205-6.94,11.234-15.5,11.234
	l0,0c-8.559,0-15.5-5.029-15.5-11.234v-9.53c0-6.205,6.941-11.235,15.5-11.235l0,0c8.56,0,15.5,5.03,15.5,11.235V427.403z"/>
<path id="SECONDARY_1_" fill="#894000" stroke="#231F20" stroke-miterlimit="10" d="M313.654,415.956
	c4.679,0,8.559-3.037,9.347-7.031c-2.601-1.429-5.831-2.287-9.346-2.287s-6.745,0.858-9.346,2.287
	C305.098,412.919,308.978,415.956,313.654,415.956z"/>
<path d="M318.25,411.297c-1.658,0-3.001,1.344-3.001,3.002c0,0.517,0.143,0.996,0.373,1.42c2.085-0.395,3.918-1.412,5.26-2.836
	C320.375,411.943,319.394,411.297,318.25,411.297z"/>
<path d="M309.563,411.297c-1.259,0-2.332,0.775-2.778,1.874c1.399,1.358,3.267,2.303,5.37,2.616c0.253-0.44,0.409-0.943,0.409-1.488
	C312.563,412.641,311.221,411.297,309.563,411.297z"/>
<line fill="none" stroke="#231F20" stroke-miterlimit="10" x1="313.822" y1="415.956" x2="313.822" y2="425.638"/>
<path fill="none" stroke="#231F20" stroke-miterlimit="10" d="M329.155,427.403c0,6.205-6.94,11.234-15.5,11.234l0,0
	c-8.559,0-15.5-5.029-15.5-11.234v-9.53c0-6.205,6.941-11.235,15.5-11.235l0,0c8.56,0,15.5,5.03,15.5,11.235V427.403z"/>
<path fill="none" stroke="#231F20" stroke-miterlimit="10" d="M298.155,423.75c0,5.33,15.667,5.33,15.667,0"/>
<path fill="none" stroke="#231F20" stroke-miterlimit="10" d="M313.655,423.75c0,5.33,15.333,5.33,15.333,0"/>
<ellipse fill="#FFFFFF" stroke="#231F20" stroke-miterlimit="10" cx="298.741" cy="388.475" rx="5.532" ry="7.243"/>
<ellipse cx="300.183" cy="388.475" rx="2.781" ry="3.641"/>
<ellipse fill="#FFFFFF" stroke="#231F20" stroke-miterlimit="10" cx="321.322" cy="388.167" rx="5.532" ry="7.243"/>
<ellipse cx="322.764" cy="388.167" rx="2.781" ry="3.641"/>
</svg>
