<?xml version="1.0" encoding="utf-8"?>
<!-- Generator: Adobe Illustrator 16.0.0, SVG Export Plug-In . SVG Version: 6.00 Build 0)  -->
<svg version="1.1" id="Layer_1" xmlns="http://www.w3.org/2000/svg" xmlns:xlink="http://www.w3.org/1999/xlink" x="0px" y="0px"
	 width="612px" height="792px" viewBox="0 0 612 792" enable-background="new 0 0 612 792" xml:space="preserve">
<rect id="head_frame_1_" x="178.772" y="285.726" fill="#231F20" fill-opacity="0" width="256" height="222"/>
<path id="SECONDARY" fill="#894000" stroke="#231F20" stroke-width="1.6939" stroke-miterlimit="10" d="M396.704,436.016
	c-11.005-17.83-11.005-22.354,2.207-14.3c-13.212-16.743-13.212-20.906-0.324-13.801c-12.888-14.345-12.888-17.422-0.773-10.367
	c-12.114-11.399-12.114-12.665-0.346-3.976c-11.767-11.567-12.028-14.395-0.154-9.933c-12.872-9.989-13.61-12.689-1.393-9.407
	c-14.146-8.523-15.332-11.064-1.703-8.814c-16.411-7.142-18.005-9.496-2.44-6.863c-19.131-7.122-21.101-9.257-1.775-3.671
	c-23.601-9.613-25.905-11.502-2.274-3.935c-28.546-11.07-31.155-12.682-2.972-5.2c-33.662-10.403-36.538-11.71-4.031-6.328
	c-38.479-7.66-41.581-8.633-14.449-16.996c-33.529,6.785-36.824,6.179-23.533-9.833c-20.036,15.195-23.489,14.982-23.665,1.108
	c-3.339,13.874-5.583,13.874-9.367,3.145c-1.131,5.518-2.673,8.186-4.547,9.137c-1.602-1.197-2.937-3.842-3.943-8.756
	c-3.784,10.729-6.031,10.729-9.367-3.145c-0.176,13.874-3.628,14.087-23.664-1.108c13.29,16.012,9.996,16.618-23.534,9.833
	c27.131,8.364,24.029,9.335-14.451,16.996c32.506-5.382,29.631-4.076-4.031,6.328c28.184-7.482,25.574-5.871-2.97,5.199
	c23.631-7.566,21.326-5.678-2.276,3.936c19.325-5.587,17.356-3.451-1.775,3.671c15.565-2.633,13.97-0.28-2.443,6.863
	c13.631-2.248,12.444,0.292-1.7,8.814c12.22-3.282,11.479-0.583-1.394,9.407c11.874-4.463,11.615-1.635-0.154,9.933
	c11.767-8.689,11.767-7.423-0.346,3.976c12.113-7.055,12.113-3.978-0.775,10.366c12.888-7.104,12.888-2.94-0.324,13.803
	c13.212-8.055,13.212-3.53,2.208,14.3c11.004-9.142,11.004-4.979,2.951,9.75c8.053-7.489,8.053-4.413,2.131,5.046
	c5.921-5.113,5.921-3.846,0.942,2.03c4.979-3.24,5.547-0.645,3.52,5.657c4.108-1.217,5.622,1.274,4.749,7.377
	c4.661-1.253,6.931,1.108,6.621,8.528c5.418-2.85,8.258-0.639,9.883,7.882c4.431-4.275,7.649-2.239,10.771,4.325
	c3.502-2.692,6.908-0.853,9.734,4.757c3.987-2.151,7.393-0.533,9.848,5.484c4.171-3.024,7.387-1.649,9.739,5.438
	c3.706-4.598,6.542-3.487,9.473,3.389c2.179-4.943,4.451-4.122,7.241-0.617c0.371-0.811,0.814-1.244,1.282-1.449
	c0.543,0.184,0.838,0.281,0.838,0.281s0.32-0.101,0.901-0.258c0.199,0.064,0.394,0.134,0.575,0.206
	c0.994,0.253,1.564,0.434,1.564,0.434s0.538-0.177,1.515-0.516c0.214,0.236,0.421,0.521,0.604,0.922
	c0.524-0.657,1.028-1.223,1.52-1.667c0.859-0.31,1.854-0.672,2.967-1.086c0.956,0.306,1.861,1.349,2.754,3.371
	c2.932-6.875,5.768-7.986,9.474-3.388c2.351-7.088,5.565-8.463,9.738-5.438c1.213-2.978,2.662-4.875,4.298-5.774
	c0.078-0.036,0.155-0.076,0.235-0.116c1.608-0.783,3.394-0.629,5.314,0.407c2.824-5.608,6.233-7.448,9.734-4.757
	c3.119-6.565,6.338-8.602,10.771-4.327c1.625-8.519,4.463-10.731,9.884-7.881c-0.313-7.421,1.959-9.781,6.617-8.528
	c-0.874-6.103,0.641-8.593,4.749-7.377c-2.025-6.302-1.457-8.896,3.52-5.657c-4.979-5.879-4.979-7.146,0.945-2.029
	c-5.922-9.461-5.922-12.537,2.131-5.046C385.699,431.036,385.699,426.874,396.704,436.016z"/>
<ellipse id="PRIMARY" fill="#FFFA00" stroke="#231F20" stroke-width="1.6939" stroke-miterlimit="10" cx="360.279" cy="375.286" rx="7.064" ry="7.052"/>
<ellipse id="PRIMARY_1_" fill="#FFFA00" stroke="#231F20" stroke-width="1.6939" stroke-miterlimit="10" cx="263.362" cy="375.286" rx="7.064" ry="7.052"/>
<path id="PRIMARY_2_" fill="#FFFA00" stroke="#231F20" stroke-width="1.6939" stroke-miterlimit="10" d="M373.774,415.516
	l-16.064-46.992c-4.788-14.004-20.042-21.481-34.07-16.704c-4.282,1.459-7.946,3.901-10.849,6.978
	c-2.9-3.075-6.566-5.517-10.85-6.978c-14.025-4.779-29.28,2.698-34.068,16.704l-16.065,46.992
	c-4.788,14.006,2.704,29.232,16.731,34.014c8.248,2.812,16.906,1.358,23.624-3.143v-13.77c0-10.502,11.769-19.016,26.279-19.016
	c14.512,0,26.277,8.514,26.277,19.016v16.13c0,0.653-0.046,1.296-0.134,1.931c4.06,0.584,8.308,0.267,12.459-1.148
	C371.07,444.748,378.563,429.521,373.774,415.516z"/>
<path fill="#FFFFFF" fill-opacity="0.6" stroke="#231F20" stroke-width="1.6939" stroke-miterlimit="10" d="M344.72,448.746
	c0,10.502-11.767,19.012-26.278,19.012l0,0c-14.511,0-26.279-8.51-26.279-19.012v-16.13c0-10.502,11.768-19.016,26.279-19.016l0,0
	c14.512,0,26.278,8.514,26.278,19.016V448.746z"/>
<path id="SECONDARY_1_" fill="#894000" stroke="#231F20" stroke-width="1.6939" stroke-miterlimit="10" d="M318.439,429.371
	c7.933,0,14.51-5.14,15.847-11.899c-4.409-2.419-9.886-3.871-15.845-3.871c-5.96,0-11.436,1.452-15.845,3.871
	C303.934,424.231,310.511,429.371,318.439,429.371z"/>
<path d="M326.231,421.486c-2.812,0-5.088,2.273-5.088,5.08c0,0.876,0.241,1.687,0.632,2.403c3.535-0.668,6.643-2.39,8.918-4.8
	C329.834,422.58,328.17,421.486,326.231,421.486z"/>
<path d="M311.503,421.486c-2.134,0-3.952,1.312-4.709,3.172c2.371,2.299,5.538,3.896,9.104,4.428
	c0.429-0.746,0.693-1.597,0.693-2.52C316.589,423.76,314.314,421.486,311.503,421.486z"/>
<line fill="none" stroke="#231F20" stroke-width="1.6939" stroke-miterlimit="10" x1="318.725" y1="429.371" x2="318.725" y2="445.758"/>
<path fill="none" stroke="#231F20" stroke-width="1.6939" stroke-miterlimit="10" d="M344.72,448.746
	c0,10.502-11.767,19.012-26.278,19.012l0,0c-14.511,0-26.279-8.51-26.279-19.012v-16.13c0-10.502,11.768-19.016,26.279-19.016l0,0
	c14.512,0,26.278,8.514,26.278,19.016V448.746z"/>
<path fill="none" stroke="#231F20" stroke-width="1.6939" stroke-miterlimit="10" d="M292.163,442.563
	c0,9.021,26.562,9.021,26.562,0"/>
<path fill="none" stroke="#231F20" stroke-width="1.6939" stroke-miterlimit="10" d="M318.441,442.563
	c0,9.021,25.995,9.021,25.995,0"/>
<ellipse fill="#FFFFFF" stroke="#231F20" stroke-width="1.6939" stroke-miterlimit="10" cx="293.157" cy="382.86" rx="9.378" ry="12.259"/>
<ellipse cx="295.601" cy="382.861" rx="4.714" ry="6.162"/>
<ellipse fill="#FFFFFF" stroke="#231F20" stroke-width="1.6939" stroke-miterlimit="10" cx="331.439" cy="382.339" rx="9.378" ry="12.259"/>
<ellipse cx="333.884" cy="382.339" rx="4.715" ry="6.162"/>
</svg>
