<?xml version="1.0" encoding="utf-8"?>
<!-- Generator: Adobe Illustrator 16.0.0, SVG Export Plug-In . SVG Version: 6.00 Build 0)  -->
<svg version="1.1" id="Layer_1" xmlns="http://www.w3.org/2000/svg" xmlns:xlink="http://www.w3.org/1999/xlink" x="0px" y="0px"
	 width="612px" height="792px" viewBox="0 0 612 792" enable-background="new 0 0 612 792" xml:space="preserve">
<rect id="body_frame_1_" x="205" y="271.134" fill="#BBBCBE" fill-opacity="0" width="202" height="256"/>
<path id="PRIMARY_11_" fill="#8C8900" stroke="#231F20" stroke-width="1.3383" stroke-miterlimit="10" d="M367.857,526.271
	c19.992-69.068,33.123-154.746,33.123-199.355c0-61.343-44.617-55.001-94.596-55.001c-0.131,0-0.255,0.007-0.384,0.008
	c-0.131,0-0.254-0.008-0.385-0.008c-49.981,0-94.595-6.342-94.595,55.001c0,44.609,13.128,130.287,33.118,199.355H367.857z"/>
<path fill="#F1F1F1" stroke="#231F20" stroke-width="1.3383" stroke-miterlimit="10" d="M361.299,509.063
	c15.261-57.377,25.283-128.55,25.283-165.606c0-50.959-34.06-45.69-72.215-45.69c-0.099,0-0.193,0.007-0.292,0.007
	c-0.1,0-0.196-0.007-0.294-0.007c-38.156,0-72.215-5.269-72.215,45.69c0,37.058,10.023,108.23,25.283,165.606H361.299
	L361.299,509.063z"/>
</svg>
