<?xml version="1.0" encoding="utf-8"?>
<!-- Generator: Adobe Illustrator 16.0.0, SVG Export Plug-In . SVG Version: 6.00 Build 0)  -->
<svg version="1.1" id="Layer_1" xmlns="http://www.w3.org/2000/svg" xmlns:xlink="http://www.w3.org/1999/xlink" x="0px" y="0px"
	 width="612px" height="792px" viewBox="0 0 612 792" enable-background="new 0 0 612 792" xml:space="preserve">
<rect id="body_frame_1_" x="230.5" y="303.5" fill-opacity="0" fill="#BBBCBE" width="151" height="191"/>
<path id="PRIMARY_11_" fill="#8C8900" stroke="#231F20" stroke-miterlimit="10" d="M352.24,494.057
	C367.185,442.471,377,378.48,377,345.162c0-45.816-33.353-41.079-70.713-41.079c-0.098,0-0.19,0.005-0.287,0.006
	c-0.098,0-0.19-0.006-0.288-0.006c-37.362,0-70.712-4.737-70.712,41.079c0,33.318,9.814,97.309,24.757,148.895H352.24z"/>
<path fill="#F1F1F1" stroke="#231F20" stroke-miterlimit="10" d="M347.337,481.204c11.408-42.853,18.9-96.011,18.9-123.688
	c0-38.06-25.461-34.125-53.982-34.125c-0.074,0-0.145,0.005-0.219,0.005c-0.074,0-0.146-0.005-0.22-0.005
	c-28.522,0-53.982-3.935-53.982,34.125c0,27.678,7.492,80.836,18.9,123.688H347.337z"/>
</svg>
