<?xml version="1.0" encoding="utf-8"?>
<!-- Generator: Adobe Illustrator 16.0.0, SVG Export Plug-In . SVG Version: 6.00 Build 0)  -->
<svg version="1.1" id="Layer_1" xmlns="http://www.w3.org/2000/svg" xmlns:xlink="http://www.w3.org/1999/xlink" x="0px" y="0px"
	 width="612px" height="792px" viewBox="0 0 612 792" enable-background="new 0 0 612 792" xml:space="preserve">
<rect x="179" y="272.254" fill="#231F20" fill-opacity="0" width="256" height="249"/>
<path id="PRIMARY_5_" fill="#666666" stroke="#231F20" stroke-width="3.1722" stroke-miterlimit="10" d="M415.401,422.498
	c10.333-12.483,14.667-27.999,13.314-43.001c-0.673-7.498-2.771-14.869-6.24-21.67c-3.476-6.794,3.346-57.01-14.524-18.224
	c17.459-39.47,17.459-39.47,0,0c17.117-39.764,8.87-43.209-20.405-11.122c29.238-32.103-21.96-45.865-22.283-2.296
	c0.11-43.495-23.813-36.375-21.51,6.289c-2.303-42.664-17.979-25.748-18.089,14.631c0.107-40.378-8.321-29.384-9.67,11.675
	c1.349-41.063-23.485-15.49-21.266,25.687c-2.219-41.177-20.045-15.643-21.267,25.684c1.222-41.327-8.354-29.63-9.665,11.675
	c1.312-41.305-17.081-20.176-11.043,20.559c-6.04-40.734-29.769-10.944-2.277,22.445c-27.491-33.384-34.633,8.268,6.244,21.672
	c-40.876-13.404-28.258,19.656,14.523,18.224c-42.769,1.442-42.769,1.442,0,0c-42.754,1.455,13.142,8.898,20.404,11.122
	c7.259,2.223,14.835,2.975,22.282,2.297c14.893-1.358,29.266-8.438,39.596-20.922L415.401,422.498z"/>
</svg>
