<?xml version="1.0" encoding="utf-8"?>
<!-- Generator: Adobe Illustrator 16.0.0, SVG Export Plug-In . SVG Version: 6.00 Build 0)  -->
<svg version="1.1" id="Layer_1" xmlns="http://www.w3.org/2000/svg" xmlns:xlink="http://www.w3.org/1999/xlink" x="0px" y="0px"
	 width="612px" height="792px" viewBox="0 0 612 792" enable-background="new 0 0 612 792" xml:space="preserve">
<rect x="266.5" y="357.651" fill-opacity="0" fill="#231F20" width="81" height="78.206"/>
<path id="PRIMARY_5_" fill="#666666" stroke="#231F20" stroke-miterlimit="10" d="M341.299,404.84
	c3.269-3.921,4.64-8.794,4.213-13.506c-0.213-2.355-0.877-4.67-1.975-6.806c-1.1-2.134,1.059-17.906-4.596-5.724
	c5.525-12.397,5.525-12.397,0,0c5.416-12.489,2.807-13.571-6.456-3.493c9.251-10.083-6.948-14.405-7.05-0.721
	c0.035-13.661-7.535-11.425-6.806,1.975c-0.729-13.4-5.689-8.087-5.724,4.595c0.034-12.682-2.633-9.229-3.059,3.667
	c0.426-12.897-7.431-4.865-6.729,8.068c-0.702-12.933-6.342-4.913-6.729,8.067c0.387-12.98-2.643-9.306-3.058,3.667
	c0.415-12.973-5.404-6.337-3.494,6.457c-1.911-12.794-9.419-3.437-0.721,7.05c-8.698-10.486-10.958,2.596,1.976,6.806
	c-12.934-4.21-8.941,6.174,4.595,5.724c-13.532,0.453-13.532,0.453,0,0c-13.528,0.457,4.158,2.795,6.456,3.493
	c2.297,0.698,4.694,0.935,7.05,0.722c4.712-0.427,9.26-2.65,12.529-6.571L341.299,404.84z"/>
</svg>
