<?xml version="1.0" encoding="utf-8"?>
<!-- Generator: Adobe Illustrator 16.0.0, SVG Export Plug-In . SVG Version: 6.00 Build 0)  -->
<svg version="1.1" id="Layer_1" xmlns="http://www.w3.org/2000/svg" xmlns:xlink="http://www.w3.org/1999/xlink" x="0px" y="0px"
	 width="612px" height="792px" viewBox="0 0 612 792" enable-background="new 0 0 612 792" xml:space="preserve">
<rect x="266.5" y="352.008" fill-opacity="0" fill="#231F20" width="81" height="89.313"/>
<path id="PRIMARY_4_" fill="#666666" stroke="#231F20" stroke-miterlimit="10" d="M324.083,423.416
	c0,9.849-7.984,17.833-17.833,17.833l0,0c-2.462,0-17.413-6.508-6.941-1.401c-10.766-5.23-18.287-4.252-5.668-3.822
	c-12.619-0.43-16.798-6.267-3.822-5.668c-12.977-0.599-14.368-9.006-1.401-6.941c-12.967-2.065-12.464-5.916,0-2.968
	c-12.464-2.978-11.54-12.351,0-7.653c-11.512-4.895-11.796-14.559,0-10.465c-11.777-4.195-12.198-15.146,0-11.403
	c-12.167-3.976-11.621-15.209,0-10.465c-11.607-4.844-11.593-13.387,0-7.653c-11.591-5.762-8.462-13.518,0-2.968
	c-8.461-10.556-2.198-16.123,1.401-6.941c-3.599-9.181-3.452-9.4,3.822-5.668c-7.273-3.732-5.75-3.315,5.668-3.822
	c-10.562,0.184,4.479-1.401,6.941-1.401l0,0c9.849,0,17.833,7.984,17.833,17.833V423.416z"/>
<circle fill="none" stroke="#231F20" stroke-miterlimit="10" cx="306.25" cy="360.11" r="2.5"/>
<circle fill="none" stroke="#231F20" stroke-miterlimit="10" cx="306.25" cy="433.75" r="2.5"/>
</svg>
