<?xml version="1.0" encoding="utf-8"?>
<!-- Generator: Adobe Illustrator 16.0.0, SVG Export Plug-In . SVG Version: 6.00 Build 0)  -->
<svg version="1.1" id="Layer_1" xmlns="http://www.w3.org/2000/svg" xmlns:xlink="http://www.w3.org/1999/xlink" x="0px" y="0px"
	 width="612px" height="792px" viewBox="0 0 612 792" enable-background="new 0 0 612 792" xml:space="preserve">
<rect x="192" y="269.47" fill="#231F20" fill-opacity="0" width="230" height="254.39"/>
<path id="PRIMARY_4_" fill="#666666" stroke="#231F20" stroke-width="2.8439" stroke-miterlimit="10" d="M355.508,472.86
	c0,28.052-22.672,50.793-50.638,50.793l0,0c-6.99,0-49.444-18.536-19.708-3.991c-30.57-14.896-51.926-12.111-16.094-10.884
	c-35.832-1.228-47.699-17.853-10.854-16.145c-36.848-1.708-40.797-25.653-3.978-19.771c-36.819-5.883-35.392-16.851,0-8.453
	c-35.392-8.484-32.768-35.181,0-21.799c-32.688-13.941-33.495-41.467,0-29.807c-33.44-11.949-34.636-43.141,0-32.479
	c-34.548-11.325-32.998-43.32,0-29.809c-32.958-13.796-32.918-38.129,0-21.797c-32.912-16.412-24.028-38.503,0-8.453
	c-24.025-30.067-6.241-45.923,3.978-19.771c-10.218-26.149-9.801-26.773,10.854-16.144c-20.651-10.63-16.327-9.442,16.094-10.886
	c-29.991,0.524,12.718-3.99,19.708-3.99l0,0c27.966,0,50.638,22.74,50.638,50.793V472.86z"/>
<ellipse fill="none" stroke="#231F20" stroke-width="2.8439" stroke-miterlimit="10" cx="304.87" cy="292.547" rx="7.099" ry="7.121"/>
<ellipse fill="none" stroke="#231F20" stroke-width="2.8439" stroke-miterlimit="10" cx="304.87" cy="502.294" rx="7.099" ry="7.121"/>
</svg>
