<?xml version="1.0" encoding="utf-8"?>
<!-- Generator: Adobe Illustrator 16.0.0, SVG Export Plug-In . SVG Version: 6.00 Build 0)  -->
<svg version="1.1" id="Layer_1" xmlns="http://www.w3.org/2000/svg" xmlns:xlink="http://www.w3.org/1999/xlink" x="0px" y="0px"
	 width="612px" height="792px" viewBox="0 0 612 792" enable-background="new 0 0 612 792" xml:space="preserve">
<rect id="body_frame" x="230.5" y="301.5" fill-opacity="0" fill="#BBBCBE" width="151" height="191"/>
<path id="PRIMARY_1_" fill="#FF0000" stroke="#231F20" stroke-miterlimit="10" d="M311.233,302.216h-2.572h-5.538h-2.572
	c-16.568,0-69.482,9.63-69.482,26.808V363l27.205,29.451l12.278,68.426c0,17.179,13.432,31.104,30,31.104h2.572h5.538h2.572
	c16.568,0,30-13.926,30-31.104l12.278-68.427L380.716,363v-33.976C380.716,311.846,327.802,302.216,311.233,302.216z"/>
<path id="SECONDARY_10_" fill="#960303" stroke="#231F20" stroke-miterlimit="10" d="M380.5,329.024l-6.75,4.726l-40.119-4.726
	c0-11.465,10.492-20.048,23.434-20.048C370.009,308.976,380.5,317.559,380.5,329.024z"/>
<path id="SECONDARY_9_" fill="#960303" stroke="#231F20" stroke-miterlimit="10" d="M231.068,329.024l6.75,4.726l40.119-4.726
	c0-11.465-10.492-20.048-23.434-20.048C241.56,308.976,231.068,317.559,231.068,329.024z"/>
<path id="SECONDARY_8_" fill="#960303" stroke="#231F20" stroke-miterlimit="10" d="M281.565,330.019L305,329.604l23.435,0.414
	c0-15.912,40.408-27.7-23.434-27.824C245,302.078,281.565,314.107,281.565,330.019z"/>
<path id="SECONDARY_7_" fill="#960303" stroke="#231F20" stroke-miterlimit="10" d="M305.255,355.943
	c0,10.644-8.976,19.271-20.046,19.271h-24.374c-11.071,0-20.046-8.628-20.046-19.271l0,0c0-10.643,8.975-19.271,20.046-19.271
	h24.374C296.279,336.673,305.255,345.301,305.255,355.943L305.255,355.943z"/>
<path id="SECONDARY_6_" fill="#960303" stroke="#231F20" stroke-miterlimit="10" d="M329.541,449.249
	c0,13.117-10.634,23.751-23.751,23.751l0,0c-13.118,0-23.752-10.634-23.752-23.751v-42.165c0-13.117,10.634-23.751,23.752-23.751
	l0,0c13.117,0,23.751,10.634,23.751,23.751V449.249z"/>
<path id="SECONDARY_5_" fill="#960303" stroke="#231F20" stroke-miterlimit="10" d="M370.789,355.943
	c0,10.644-8.976,19.271-20.047,19.271h-24.373c-11.071,0-20.046-8.628-20.046-19.271l0,0c0-10.643,8.975-19.271,20.046-19.271
	h24.373C361.813,336.673,370.789,345.301,370.789,355.943L370.789,355.943z"/>
<path fill="none" stroke="#231F20" stroke-miterlimit="10" d="M282.995,401.666c0,7.555,46,7.998,46,0"/>
<path fill="none" stroke="#231F20" stroke-miterlimit="10" d="M288.755,389.963c0,6.54,33.637,6.349,33.637,0.529"/>
<path fill="none" stroke="#231F20" stroke-miterlimit="10" d="M281.902,414.017c0,9.494,47.414,9.217,47.414,0.768"/>
<path fill="none" stroke="#231F20" stroke-miterlimit="10" d="M281.902,428.166c0,9.494,47.414,9.217,47.414,0.768"/>
<path fill="none" stroke="#231F20" stroke-miterlimit="10" d="M282.083,443.25c0,9.494,47.414,9.217,47.414,0.768"/>
<path fill="none" stroke="#231F20" stroke-miterlimit="10" d="M283.833,457.976c0,7.554,43.966,7.997,43.966,0"/>
</svg>
