<?xml version="1.0" encoding="utf-8"?>
<!-- Generator: Adobe Illustrator 16.0.0, SVG Export Plug-In . SVG Version: 6.00 Build 0)  -->
<svg version="1.1" id="Layer_1" xmlns="http://www.w3.org/2000/svg" xmlns:xlink="http://www.w3.org/1999/xlink" x="0px" y="0px"
	 width="612px" height="792px" viewBox="0 0 612 792" enable-background="new 0 0 612 792" xml:space="preserve">
<rect id="body_frame" x="205" y="269.03" fill-opacity="0" fill="#BBBCBE" width="202" height="256"/>
<path id="PRIMARY_1_" fill="#FF0000" stroke="#231F20" stroke-width="1.3389" stroke-miterlimit="10" d="M313.001,269.989h-3.441
	h-7.408h-3.441c-22.165,0-92.95,12.904-92.95,35.923v45.528l36.393,39.464l16.424,91.691c0,23.019,17.968,41.68,40.133,41.68h3.441
	h7.408h3.441c22.164,0,40.133-18.661,40.133-41.679l16.425-91.692l36.393-39.464v-45.528
	C405.951,282.893,335.165,269.989,313.001,269.989z"/>
<path id="SECONDARY_10_" fill="#960303" stroke="#231F20" stroke-width="1.3389" stroke-miterlimit="10" d="M405.662,305.912
	l-9.029,6.333l-53.67-6.333c0-15.363,14.036-26.865,31.349-26.865C391.628,279.047,405.662,290.549,405.662,305.912z"/>
<path id="SECONDARY_9_" fill="#960303" stroke="#231F20" stroke-width="1.3389" stroke-miterlimit="10" d="M205.76,305.912
	l9.03,6.333l53.669-6.333c0-15.363-14.036-26.865-31.348-26.865C219.795,279.047,205.76,290.549,205.76,305.912z"/>
<path id="SECONDARY_8_" fill="#960303" stroke="#231F20" stroke-width="1.3389" stroke-miterlimit="10" d="M273.313,307.245
	l31.35-0.555l31.35,0.555c0-21.321,54.056-37.118-31.348-37.284C224.397,269.804,273.313,285.923,273.313,307.245z"/>
<path id="SECONDARY_7_" fill="#960303" stroke="#231F20" stroke-width="1.3389" stroke-miterlimit="10" d="M305.003,341.984
	c0,14.263-12.007,25.824-26.816,25.824h-32.606c-14.811,0-26.817-11.561-26.817-25.824l0,0c0-14.261,12.006-25.822,26.817-25.822
	h32.606C292.996,316.162,305.003,327.723,305.003,341.984L305.003,341.984z"/>
<path id="SECONDARY_6_" fill="#960303" stroke="#231F20" stroke-width="1.3389" stroke-miterlimit="10" d="M337.492,467.014
	c0,17.577-14.226,31.826-31.773,31.826l0,0c-17.549,0-31.774-14.249-31.774-31.826v-56.501c0-17.577,14.226-31.827,31.774-31.827
	l0,0c17.547,0,31.773,14.25,31.773,31.827V467.014z"/>
<path id="SECONDARY_5_" fill="#960303" stroke="#231F20" stroke-width="1.3389" stroke-miterlimit="10" d="M392.672,341.984
	c0,14.263-12.008,25.824-26.818,25.824h-32.604c-14.811,0-26.816-11.561-26.816-25.824l0,0c0-14.261,12.006-25.822,26.816-25.822
	h32.604C380.664,316.162,392.672,327.723,392.672,341.984L392.672,341.984z"/>
<path fill="none" stroke="#231F20" stroke-width="1.3389" stroke-miterlimit="10" d="M275.225,403.252
	c0,10.124,61.537,10.718,61.537,0"/>
<path fill="none" stroke="#231F20" stroke-width="1.3389" stroke-miterlimit="10" d="M282.93,387.571
	c0,8.763,44.998,8.507,44.998,0.709"/>
<path fill="none" stroke="#231F20" stroke-width="1.3389" stroke-miterlimit="10" d="M273.763,419.803
	c0,12.722,63.428,12.35,63.428,1.028"/>
<path fill="none" stroke="#231F20" stroke-width="1.3389" stroke-miterlimit="10" d="M273.763,438.763
	c0,12.722,63.428,12.351,63.428,1.028"/>
<path fill="none" stroke="#231F20" stroke-width="1.3389" stroke-miterlimit="10" d="M274.005,458.975
	c0,12.723,63.429,12.351,63.429,1.029"/>
<path fill="none" stroke="#231F20" stroke-width="1.3389" stroke-miterlimit="10" d="M276.346,478.707
	c0,10.122,58.815,10.717,58.815,0"/>
</svg>
