<?xml version="1.0" encoding="utf-8"?>
<!-- Generator: Adobe Illustrator 16.0.0, SVG Export Plug-In . SVG Version: 6.00 Build 0)  -->
<svg version="1.1" id="Layer_1" xmlns="http://www.w3.org/2000/svg" xmlns:xlink="http://www.w3.org/1999/xlink" x="0px" y="0px"
	 width="612px" height="792px" viewBox="0 0 612 792" enable-background="new 0 0 612 792" xml:space="preserve">
<rect id="body_frame_1_" x="228.5" y="310.5" fill-opacity="0" fill="#BBBCBE" width="151" height="191"/>
<path id="PRIMARY_12_" fill="#FFC18C" stroke="#231F20" stroke-miterlimit="10" d="M299.644,493.035
	c22.354-7.299,38.136-20.379,35.251-29.217c-1.443-4.42-7.28-6.939-15.55-7.444c-1.442,0.175-2.978,0.598-4.742,1.593
	c-8.737,14.102-22.725,26.033-41.058,24.655c-21.496-1.397-28.014-21.36-31.7-39.093c-10.457,3.415-11.485,16.374-10.593,25.551
	c1.532,7.915,5.296,12.998,10.32,18.721c9.428,9.545,23.649,11.214,36.929,9.72c3.225-0.284,6.647-0.797,10.194-1.544
	C292.244,495.231,295.919,494.252,299.644,493.035z"/>
<path id="PRIMARY_9_" fill="#FFC18C" stroke="#231F20" stroke-miterlimit="10" d="M369.82,406c-13.271,49.618-29.916,93-66.82,93
	c-36.903,0-56.77-42.631-66.82-93c-22.847-114.5,29.917-93,66.82-93C339.904,313,400,293.159,369.82,406z"/>
<ellipse id="SECONDARY_6_" fill="#FFFDB5" stroke="#231F20" stroke-miterlimit="10" cx="305.5" cy="388.787" rx="28.421" ry="72.75"/>
<path id="PRIMARY_8_" fill="#FFC18C" stroke="#231F20" stroke-miterlimit="10" d="M246.496,445c11.596,31.556,29.4,54,56.175,54
	c26.684,0,42.774-22.682,54.657-54H246.496z"/>
</svg>
