<?xml version="1.0" encoding="utf-8"?>
<!-- Generator: Adobe Illustrator 16.0.0, SVG Export Plug-In . SVG Version: 6.00 Build 0)  -->
<svg version="1.1" id="Layer_1" xmlns="http://www.w3.org/2000/svg" xmlns:xlink="http://www.w3.org/1999/xlink" x="0px" y="0px"
	 width="612px" height="792px" viewBox="0 0 612 792" enable-background="new 0 0 612 792" xml:space="preserve">
<rect id="body_frame_1_" x="203" y="278" fill="#BBBCBE" fill-opacity="0" width="202" height="256"/>
<path id="PRIMARY_12_" fill="#FFC18C" stroke="#231F20" stroke-width="1.339" stroke-miterlimit="10" d="M298.173,522.654
	c29.904-9.782,51.017-27.314,47.156-39.159c-1.93-5.925-9.738-9.302-20.802-9.979c-1.928,0.234-3.983,0.802-6.343,2.136
	c-11.688,18.901-30.401,34.893-54.926,33.045c-28.756-1.873-37.475-28.629-42.406-52.396c-13.989,4.577-15.364,21.946-14.171,34.246
	c2.049,10.609,7.084,17.422,13.806,25.092c12.612,12.793,31.636,15.03,49.401,13.029c4.314-0.381,8.892-1.07,13.637-2.071
	C288.273,525.598,293.189,524.285,298.173,522.654z"/>
<path id="PRIMARY_9_" fill="#FFC18C" stroke="#231F20" stroke-width="1.339" stroke-miterlimit="10" d="M392.051,406
	c-17.754,66.504-40.02,124.649-89.389,124.649c-49.367,0-75.944-57.139-89.388-124.649
	c-30.563-153.466,40.021-124.649,89.388-124.649C352.031,281.351,432.424,254.758,392.051,406z"/>
<ellipse id="SECONDARY_6_" fill="#FFFDB5" stroke="#231F20" stroke-width="1.339" stroke-miterlimit="10" cx="306.007" cy="382.929" rx="38.02" ry="97.508"/>
<path id="PRIMARY_8_" fill="#FFC18C" stroke="#231F20" stroke-width="1.339" stroke-miterlimit="10" d="M227.074,458.272
	c15.512,42.294,39.33,72.377,75.148,72.377c35.697,0,57.221-30.4,73.118-72.377H227.074z"/>
</svg>
