<?xml version="1.0" encoding="utf-8"?>
<!-- Generator: Adobe Illustrator 16.0.0, SVG Export Plug-In . SVG Version: 6.00 Build 0)  -->
<svg version="1.1" id="Layer_1" xmlns="http://www.w3.org/2000/svg" xmlns:xlink="http://www.w3.org/1999/xlink" x="0px" y="0px"
	 width="612px" height="792px" viewBox="0 0 612 792" enable-background="new 0 0 612 792" xml:space="preserve">
<rect x="179" y="311.248" fill-opacity="0" fill="#231F20" width="256" height="172"/>
<path id="SECONDARY_4_" fill="#00BC03" d="M350.697,402.296v-14.992c0-5.137-3.593-9.3-8.024-9.3c-4.433,0-8.024,4.163-8.024,9.3
	v23.129C341.524,408.245,347.059,405.471,350.697,402.296z"/>
<path id="SECONDARY_3_" fill="#00BC03" d="M326.309,413.695v-24.6c0-6.125-3.593-11.091-8.024-11.091
	c-4.43,0-8.021,4.966-8.021,11.091v26.351C315.926,415.153,321.303,414.549,326.309,413.695z"/>
<path id="SECONDARY_2_" fill="#00BC03" d="M300.762,415.363v-26.044c0-6.25-3.592-11.315-8.024-11.315
	c-4.431,0-8.023,5.064-8.023,11.315v24.534C289.749,414.626,295.13,415.142,300.762,415.363z"/>
<path id="SECONDARY_1_" fill="#00BC03" d="M274.605,410.431v-22.963c0-5.227-3.593-9.464-8.025-9.464
	c-4.43,0-8.023,4.237-8.023,9.464v14.825C262.197,405.468,267.729,408.242,274.605,410.431z"/>
<path id="SECONDARY" fill="#00BC03" d="M338.306,387.693c3.716,2.411,8.685,1.353,11.099-2.362l4.34-6.674v-0.381
	c-0.383-1.029-0.643-2.076-0.643-3.149v-20.429c-0.293-0.761-0.716-1.504-1.2-2.236c-0.436,0.413-0.833,0.873-1.176,1.398
	l-14.784,22.748C333.531,380.319,334.59,385.282,338.306,387.693z"/>
</svg>
