<?xml version="1.0" encoding="utf-8"?>
<!-- Generator: Adobe Illustrator 16.0.0, SVG Export Plug-In . SVG Version: 6.00 Build 0)  -->
<svg version="1.1" id="Layer_1" xmlns="http://www.w3.org/2000/svg" xmlns:xlink="http://www.w3.org/1999/xlink" x="0px" y="0px"
	 width="612px" height="792px" viewBox="0 0 612 792" enable-background="new 0 0 612 792" xml:space="preserve">
<rect x="266.5" y="369.004" fill-opacity="0" fill="#231F20" width="81" height="54.487"/>
<path id="SECONDARY_10_" fill="#00BC03" d="M327.18,396.146l-4.678-7.206c-0.201-0.311-0.461-0.558-0.752-0.746v7.483
	c0,0.368-0.09,0.727-0.229,1.079l1.398,2.153c0.764,1.177,2.336,1.512,3.512,0.748S327.942,397.321,327.18,396.146z"/>
<path id="SECONDARY_9_" fill="#00BC03" d="M315.748,400.845v7.651c0,1.505,1.137,2.725,2.539,2.725s2.539-1.22,2.539-2.725v-9.22
	c0-0.401-0.086-0.78-0.231-1.124C319.561,399.222,317.874,400.146,315.748,400.845z"/>
<path id="SECONDARY_7_" fill="#00BC03" d="M308.032,402.18v6.502c0,1.402,1.137,2.539,2.538,2.539c1.402,0,2.539-1.137,2.539-2.539
	v-7.139C311.547,401.87,309.84,402.093,308.032,402.18z"/>
<path id="SECONDARY_6_" fill="#00BC03" d="M299.949,401.657v7.024c0,1.402,1.137,2.539,2.538,2.539c1.402,0,2.539-1.137,2.539-2.539
	V402.2C303.229,402.141,301.521,401.953,299.949,401.657z"/>
<path id="SECONDARY_5_" fill="#00BC03" d="M291.904,398.151c-0.146,0.344-0.231,0.723-0.231,1.125v9.22
	c0,1.505,1.137,2.725,2.538,2.725c1.402,0,2.539-1.22,2.539-2.725v-7.652C294.624,400.145,292.938,399.221,291.904,398.151z"/>
</svg>
