<?xml version="1.0" encoding="utf-8"?>
<!-- Generator: Adobe Illustrator 16.0.0, SVG Export Plug-In . SVG Version: 6.00 Build 0)  -->
<svg version="1.1" id="Layer_1" xmlns="http://www.w3.org/2000/svg" xmlns:xlink="http://www.w3.org/1999/xlink" x="0px" y="0px"
	 width="612px" height="792px" viewBox="0 0 612 792" enable-background="new 0 0 612 792" xml:space="preserve">
<rect x="266.5" y="352.008" fill-opacity="0" fill="#231F20" width="81" height="89.313"/>
<path id="SECONDARY_4_" fill="#00BC03" d="M318.248,391.92c2.678,1.012,2.979,2.221,2.156,3.493
	c-0.206,0.318-0.482,0.641-0.811,0.965c-0.555,0.229-1.167,0.369-1.818,0.45c-0.661,0.037-1.382-0.129-2.193-0.452
	c-2.058-0.987-3.688-2.863-6.951-3.802c-0.814,1.407,0,2.815,0.816,4.222c0.204,0.352,0.361,0.689,0.381,0.992
	c-0.598,0.207-1.305,0.311-1.863,0.598c-0.482,0.377-0.823,0.599-1.26,0.861c0.295-0.105-2.966,5.523,0.295-0.105
	c0-0.938,4.894,0.938,6.403-0.973c0.061-0.295,0.091-0.6,0.106-0.908c0.015-0.309,0.015-0.621,0.015-0.934
	c1.835,0,1.605,0.891,1.68,1.683c0.007,0.26,0.048,0.509,0.046,0.675c3.168,2.334,1.537,3.271-1.726,3.271
	c3.263,0,4.894,0,6.524,1.877c-1.631-0.939-1.631-1.877-3.262-1.877c-4.894,0.938-9.787,5.63-14.68,1.877c0,0.234,0,0.469,0,0.703
	c0,0.704,0,1.407,0,2.111c0.49,0,1.065-0.013,1.865,0.097c6.292,1.78,9.553-4.788,14.446-1.974c0,0.938,1.631,2.815-0.815,3.543
	c0.122,0.293,0.335,0.563,0.535,0.855c0.179,0.352,0.28,0.763,0.28,1.231c0-0.704,0-1.407,0-2.11
	c0.031-0.254,0.195-0.582,0.379-0.936c0.297,0.311,0.825,0.461,1.304,0.627c3.567,1.025,4.638,2.771,3.211,5.233
	c-1.632,1.876-8.155,1.876-10.771,3.786c-0.315,0.205-0.903,0.355-2.249,0.46c-0.819-0.083-1.549-0.072-2.193,0.01
	c-0.646,0.081-1.207,0.235-1.693,0.442c-0.537-0.001-1.1-0.022-1.668-0.055c-0.249-0.223-0.437-0.565-0.628-0.939
	c-0.191-0.375-0.386-0.781-0.652-1.131c0.283-0.697,0.283-0.697-2.021-0.666c-0.53-0.023-0.958-0.031-0.958-0.031
	c-0.271,0.156-0.453,0.365-0.566,0.613c-0.566,1.238,0.566,3.453,0.566,5.017c0-0.938,0-2.814,3.263-1.876c0,0,0,0.938-0.024,1.096
	c0.605,0.098,1.21,0.236,1.799,0.396c1.77,0.481,3.407,1.174,4.558,1.647c0.306,0.251,0.553,0.388,0.766,0.413
	c0.423-0.008,0.785,0.044,1.057,0.199c0.815,1.408,0,2.346-1.427,2.932c-0.477,0.196-1.02,0.354-1.594,0.475
	c-0.201-2.056-2.5-3.702-5.149-4.736c-0.529-0.207-1.072-0.389-1.617-0.546c-0.294-0.137-0.906,0.417-1.269,0.938
	c-0.724,1.043-1.449,2.502-3.624,1.877c-0.612-0.235-1.122-0.499-1.536-0.783c-0.349-0.282-0.259-0.589,0.553-0.959
	c0.983-1.073,4.245-2.012,4.245-2.949c0-2.814-3.262-3.754-8.155-3.754c0.68-0.977,1.43-1.629,2.232-2.042
	c0.401-0.208,0.846-0.33,1.743-0.1c0.463,0.021,0.931,0.071,1.401,0.141c0.495,0.087,1.075,0.258,1.827,0.555
	c2.582,1.446,7.475,1.446,12.936,1.655c0.721,0.016,1.43,0.009,2.117-0.027c3.432-0.182,6.287-1.119,7.102-3.934
	c-1.224,0.234-2.549,0.469-3.898,0.645c-0.676,0.088-1.327,0.115-1.783-0.268c-0.557-0.719-1.483-1.275-2.604-1.748
	c-0.374-0.159-0.769-0.308-1.178-0.451c2.94-0.055-0.322-2.869,2.94-2.869c-3.263,0-8.156,2.814-11.56,0.018
	c-0.687-0.252-1.24-0.473-1.756-0.773c-0.497-0.285-0.956-0.651-1.364-1.121c0.408,0,0.921,0.014,1.497,0.046
	c1.766,1.831,5.027,0.893,6.658,0.893c-3.262,2.815-4.892,0-6.307-1.396c-0.58-0.48-0.761-0.48-0.217,0.457
	c0,0.47,0.153,0.821,0.428,1.085c0.297,0.283,0.75,0.519,1.403,0.771c3.063,3.774,9.587-2.793,12.85,1.898
	c0-0.938,0-2.815-1.631-2.815c-4.893,0-11.417,1.877-13.049-1.876c3.262,2.814,11.417,1.876,11.417-1.877
	c-1.631,2.814-6.524,5.63-11.126,3.218c-0.688-0.187-1.311-0.285-1.922-0.403c0.408,0.234,0.816,0.439,1.227,0.62
	c0.424,0.194,0.853,0.364,1.37,0.61c3.927,1.585,7.191,1.585,10.452,0.646c-3.261,0-8.155,0-11.417,0c0-0.234,0-0.469,0-0.704
	c0-0.469,0-0.938,0-1.407c0-0.234,0-0.469,0-0.703c1.632,2.814,8.157,1.876,9.787,0c-1.63,2.814-4.894,1.876-8.548,1.158
	c-0.575-0.152-1.113-0.25-1.576-0.094c-0.452,0.195-0.885,0.46-1.293,0.812c0.611,0.118,1.283,0.202,2.009,0.276
	c4.515,1.601,7.778-0.276,12.671-0.276c1.631,0,1.631,1.877,1.631,2.815c-3.263-2.815-9.787,0.938-13.485-1.95
	c-0.393-0.18-0.706-0.385-0.934-0.633c-0.228-0.247-0.375-0.54-0.425-0.888c-0.048-0.349,0-0.752,0.163-1.221
	c1.632,1.876,4.893,1.876,8.157,1.876c-3.264,0-6.525,0-7.62-1.507c-0.899-0.578-1.624-0.682-2.167-0.369
	c-0.407,1.172,0.103,1.876,1.087,2.331c0.493,0.228,1.121,0.406,1.837,0.56c1.969,2.738,8.493-1.953,7.939,2.758
	c0.25,0.139,0.668,0.27,1.084,0.404c1.284,0.402,2.532,0.828,3.731,1.318c0.38,0.214,0.853,0.187,1.339,0.146
	c1.51-0.203,2.962,0.105,4.186,1.864c-1.957,0.281-3.914,0.647-5.871,0.972c-0.652,0.107-1.305,0.21-1.957,0.305
	c-7.55,1.592-11.594-0.166-15.146-2.832c-0.396-0.296-0.784-0.604-1.17-0.918c-3.583-1.279-3.583-3.155-4.749-3.781
	c-0.464-0.365-0.873-0.234-1.28-0.078c-1.223,0.469-2.447,1.173-4.078,1.643c0-2.281,1.807-3.176,4.004-3.57
	c0.44-0.078,0.896-0.139,1.29,0.064c-0.4,2.567,4.493,2.567,4.186,5.53c0.335,0.368,0.704,0.737,1.112,1.099
	c3.267,2.889,8.074,4.828,15.564,2.92c0.573-0.16,1.141-0.336,1.7-0.522c1.683-0.558,3.298-1.205,4.766-1.769
	c-1.359,0.782-2.718,1.564-5.021,1.803c-0.428,0.029-0.746-0.061-0.885-0.318c-0.618-0.546,1.014-0.546,2.645-0.78
	c0.611,0,1.223,0.059,1.783,0.117s1.07,0.117,1.479,0.117c-1.305,0.376-2.609,0.676-3.91,0.897
	c-0.651,0.111-1.293,0.197-1.911,0.258c-7.342,0.506-11.144-0.264-13.883-2.379c-0.353-0.293-0.685-0.613-0.682-0.9
	c-0.918-1.666,0.343-2.181,2.105-2.369c0.588-0.063,1.231-0.09,1.868-0.111c0.577-0.029,1.325,0.056,2.125,0.113
	c0.401,0.027,0.817,0.05,1.254,0.051c1.615-0.25,3.248-0.25,4.878-1.188c-1.63,0-4.894,0-6.532,0.058
	c-0.583-0.121-1.116-0.234-1.58-0.297c-0.436-0.049-0.896-0.105-1.392-0.174c-0.664,0.043-1.28,0.048-1.792-0.039
	c-1.028-0.174-1.752-0.799-1.752-2.363c0,1.877,1.63,2.815,3.261,3.754c-8.155,0-6.524-4.691-7.093-7.062
	c-0.821-0.087-1.532-0.265-2.05-0.583c-0.518-0.317-0.841-0.774-0.888-1.418c-0.436-0.014-0.85-0.064-1.232-0.188
	c-0.765-0.249-1.376-0.835-1.785-2.009c0-0.938,0.544-1.563,1.326-2.015c0.391-0.226,0.842-0.408,1.313-0.564
	c0.324,0.136,0.655,0.275,0.99,0.413s0.675,0.274,1.038,0.543c0.226,0.685,6.75,0.685,1.856,2.563
	c0.544,0.313,1.087,0.547,1.632,0.712c0.513,0.183,1.024,0.296,1.431,0.417c3.462-0.191,5.094-1.129,6.682-2.066
	c-0.732-0.089-1.406-0.202-2.002-0.336c-4.211-0.938-4.649-2.92-4.404-4.768c0.046-0.352,0.194-0.716,0.968-1.236
	c2.218-1.167,2.218-3.044,2.218-3.982c-3.261,0.938-1.631,4.692-5.968,4.86c-0.273,0.331-0.437,0.664-0.502,0.994
	c-0.404,2.022,2.824,3.925,6.505,4.369c0.526,0.063,1.061,0.097,1.597,0.097c0,0.939-1.632,0.939-2.602,0.866
	c-0.678,0.079-1.477,0.073-2.292,0.073c-3.263-0.939-4.894-2.815-4.812-4.632c-0.066-0.365-0.183-0.594-0.295-0.828
	c-0.203-0.429-0.333-0.863-0.417-1.288c2.261-0.759,2.261-1.697,2.261-2.636c0-0.938-3.261-0.938-4.893-0.938
	c1.631,0,6.524-0.938,6.524,1.876c0,1.877-4.893,0-3.585,2.018c0.104,0.392,0.233,0.771,0.404,1.135
	c-0.081,1.538-0.081,3.415,4.813,4.353c-4.894-0.938-4.894-2.814-4.78-4.532c-0.187-0.37-0.318-0.751-0.396-1.139
	c10.069-1.835-1.349-5.588,3.544-8.403c0.815-0.469,2.038-0.469,3.466-0.388c0.475,0.027,0.974,0.063,1.486,0.094
	c1.179,0.221,3.309,0.276,4.987,0.29c0.56,0.004,1.129,0.032,1.743,0.118c1.366-0.114,1.366-0.114,2.996-0.114
	c-3.263,0.938-3.263-2.814-6.976-2.308c-0.065,0.177,0.004,0.484-0.037,0.771c-0.079,0.575-0.646,1.02-3.41,0.501
	c-0.736,0.013-1.381,0.067-1.95,0.157c-3.99,0.63-4.346,2.99-7.2,4.632c-1.631-0.938-3.263-1.876-4.19-2.831
	c-0.115-0.409,0.092-1.063-0.101-1.312c0.64-0.122,0.658,0.127,0.978-0.442c0.095-0.42,0.05-0.732,0.05-1.045
	c0.204-0.352,0.458-0.689,0.758-1.009c0.3-0.319,0.646-0.62,1.025-0.893c0.247,0.317,0.542,0.633,0.88,0.94
	c0.273,0.321,0.394,0.682,0.058,1.189c0.542,0.711-1.089,0.711-1.089,1.648c4.078,0.782,7.023-1.042,9.779-1.672
	c0.565-0.104,1.124-0.161,1.823,0.058c0,0-0.516-0.362-1.075-0.674c-0.483-0.178-1.04-0.297-1.339-0.066
	c-0.657-0.195-1.232-0.423-1.737-0.678c-3.031-1.532-3.227-3.968-0.342-5.266c0.064-0.298,0.257-0.603,0.627-0.916
	c0.369-0.313,0.915-0.636,1.686-0.97c0.404-0.418,0.365-0.762,0.365-1.074c0.816,0,1.45,0.104,1.957,0.282
	c-0.326,0.656-0.326,0.656-0.969,1.718c-0.289,0.173-0.536,0.377-0.771,0.655c-0.073,1.93,0.062,2.591,0.282,2.624
	c0.223,0.033,0.649-0.243,0.915-0.519c3.48-1.007,1.85-2.884,1.233-3.771c-0.039-0.593-0.471-0.833-1.015-0.989
	c0.409,0.077,0.685,0.226,0.834,0.456c1.619,0.947,0.708,2.097,0.406,3.036c-0.152,0.47-0.152,0.887,0.392,1.2
	c1.63,1.876,3.261,3.753,8.155,4.691c-6.524-0.938-9.787-5.629-3.878-8.728c-0.033-0.336-0.271-0.624-0.781-0.867
	c-0.551-0.226-1.376-0.407-2.583-0.53c-0.756-0.017-1.379-0.038-1.89-0.063c-5.615-0.282,2.608-1.07,2.608-1.07
	c0.327-0.375,0.702-0.657,1.11-0.856c1.289-0.625,2.912-0.428,4.398,0.251c0.452,0.22,0.889,0.493,0.787,0.765
	c0.058,0.194-0.002,0.457-0.098,0.757c-0.156,0.314-0.352,0.664-0.699,1.059c-0.604,1.776-2.236,1.776-3.867,2.714
	c3.264,0,4.894-3.752,9.787-0.938c-1.631,0-8.156-0.938-6.523,1.877c3.261,1.876,9.785,1.876,9.785,4.691
	c-1.631,1.877-4.893,3.753-9.947,4.131c-0.468,0.179-0.961,0.364-1.471,0.56c-0.254,0.204-0.099,0.376,0.395,0.611
	c0.494,0.235,1.01,0.279,1.564,0.255c1.109-0.046,2.479-0.269,3.516-0.192c0.359,0.09,0.607,0.299,0.683,0.758
	c0.046,0.525,0.188,1.014,0.411,1.464c0.055,0.223,0.002,0.443-0.461,0.688c-0.303,0.276-0.633,0.543-0.982,0.801
	c-0.214,0.134-0.504,0.268-0.912,0.414c-0.317,0.277-1.071,0.357-1.957,0.344c-0.313-0.695-1.283-1.042-2.177-1.216
	s-1.71-0.174-1.71-0.174c-0.421,0.467-0.319,0.702,0.064,0.819c1.109,0.345,4.633-0.385,4.042,0.917
	c0.53,0.106,0.898-0.061,1.298-0.199c0.799-0.274,1.725-0.424,2.843-0.337c1.037-0.071,1.672-0.139,2.26-0.176
	c2.351-0.15,4.606,0.253,6.672,1.53c0.575,0.225,1.014,0.313,1.46,0.404c0.316-0.037,0.629-0.084,0.934-0.143
	c-0.271,0.156-0.588,0.364-0.947,0.591c-0.189,0.086-0.479,0.048-0.915-0.149c-0.629-0.232-1.293-0.432-1.974-0.598
	c-0.682-0.166-1.379-0.299-2.074-0.399c-2.065-0.144-4.504-0.234-6.656-0.092c-0.719,0.047-1.405,0.12-2.036,0.226
	c-1.28,1.019-1.601-1.364-3.057-1.433c-0.243-0.012-0.518,0.042-0.833,0.185c-1.08,0.73-4.341,0.73-4.341,2.606
	c3.261-0.938,6.525,0.938,9.218,0.393c0.177-0.111,0.236-0.333,0.367-0.557c0.263-0.447,1.109-0.753,3.193-0.742
	C317.096,391.705,317.682,391.792,318.248,391.92z"/>
<circle fill="none" stroke="#231F20" stroke-miterlimit="10" cx="306.25" cy="360.11" r="2.5"/>
<circle fill="none" stroke="#231F20" stroke-miterlimit="10" cx="306.25" cy="433.75" r="2.5"/>
</svg>
