<?xml version="1.0" encoding="utf-8"?>
<!-- Generator: Adobe Illustrator 16.0.0, SVG Export Plug-In . SVG Version: 6.00 Build 0)  -->
<svg version="1.1" id="Layer_1" xmlns="http://www.w3.org/2000/svg" xmlns:xlink="http://www.w3.org/1999/xlink" x="0px" y="0px"
	 width="612px" height="792px" viewBox="0 0 612 792" enable-background="new 0 0 612 792" xml:space="preserve">
<rect x="179" y="313.034" fill-opacity="0" fill="#231F20" width="256" height="169.669"/>
<path id="PRIMARY_9_" fill="#666666" stroke="#231F20" stroke-width="3.1371" stroke-miterlimit="10" d="M260.383,396.091
	c0,11.257,21.932,20.396,48.987,20.396l0,0c27.056,0,48.988-9.139,48.988-20.396v-36.056c0-11.261-21.933-20.396-48.988-20.396l0,0
	c-27.055,0-48.987,9.135-48.987,20.396V396.091z"/>
<path id="PRIMARY_8_" fill="#666666" stroke="#231F20" stroke-width="3.1371" stroke-miterlimit="10" d="M284.086,345.895
	c0,6.924,11.321,12.541,25.284,12.541l0,0c13.963,0,25.284-5.617,25.284-12.541V323.74c0-6.922-11.321-12.536-25.284-12.536l0,0
	c-13.963,0-25.284,5.614-25.284,12.536V345.895z"/>
<path stroke="#231F20" stroke-width="3.1371" stroke-miterlimit="10" d="M272.161,403.545c5.16,2.162,8.441,6.006,7.327,8.581
	c-0.012,0.03-0.041,0.052-0.056,0.083c-7.574-2.442-13.376-5.781-16.485-9.644C265.161,401.784,268.626,402.063,272.161,403.545z"/>
<path stroke="#231F20" stroke-width="3.1371" stroke-miterlimit="10" d="M265.531,383.678c0.074,5.525-2.167,10.032-5.012,10.072
	c-0.043,0-0.089-0.024-0.136-0.024v-19.955C263.164,373.88,265.457,378.247,265.531,383.678z"/>
<path stroke="#231F20" stroke-width="3.1371" stroke-miterlimit="10" d="M296.401,409.669c5.556,0.748,9.747,3.604,9.364,6.38
	c-0.019,0.128-0.093,0.237-0.127,0.359c-7.194-0.226-13.959-1.086-19.954-2.47c-0.019-0.197-0.065-0.398-0.037-0.596
	C286.031,410.563,290.846,408.921,296.401,409.669z"/>
<path stroke="#231F20" stroke-width="3.1371" stroke-miterlimit="10" d="M320.543,409.483c5.553-0.772,10.374,0.852,10.771,3.625
	c0.059,0.411-0.009,0.818-0.139,1.226c-5.997,1.247-12.686,1.989-19.771,2.11c-0.068-0.179-0.164-0.35-0.191-0.541
	C310.814,413.127,314.99,410.256,320.543,409.483z"/>
<path stroke="#231F20" stroke-width="3.1371" stroke-miterlimit="10" d="M344.599,403.639c4.521-2.131,9.053-2.25,10.843-0.449
	c-3.463,3.874-9.646,7.191-17.62,9.545c-0.047-0.072-0.117-0.128-0.154-0.203C336.438,410.001,339.543,406.023,344.599,403.639z"/>
<path id="PRIMARY_10_" fill="#666666" stroke="#231F20" stroke-width="3.1371" stroke-miterlimit="10" d="M279.346,365.177
	c0,6.313,13.441,11.434,30.024,11.434l0,0c16.584,0,30.025-5.121,30.025-11.434v-20.198c0-6.313-13.441-11.431-30.025-11.431l0,0
	c-16.583,0-30.024,5.118-30.024,11.431V365.177z"/>
</svg>
