<?xml version="1.0" encoding="utf-8"?>
<!-- Generator: Adobe Illustrator 16.0.0, SVG Export Plug-In . SVG Version: 6.00 Build 0)  -->
<svg version="1.1" id="Layer_1" xmlns="http://www.w3.org/2000/svg" xmlns:xlink="http://www.w3.org/1999/xlink" x="0px" y="0px"
	 width="612px" height="792px" viewBox="0 0 612 792" enable-background="new 0 0 612 792" xml:space="preserve">
<rect x="263.5" y="357.651" fill-opacity="0" fill="#231F20" width="81" height="78.206"/>
<path id="PRIMARY_7_" fill="#666666" stroke="#231F20" stroke-miterlimit="10" d="M265.355,393.458
	c10.24,13.088,16.572,41.466,35.395,42.131c25.813,0.911,16.117-22.581,16.117-35.491c0-12.908-11.414-23.374-25.492-23.374
	S257.4,383.291,265.355,393.458z"/>
<path id="PRIMARY_6_" fill="#666666" stroke="#231F20" stroke-miterlimit="10" d="M270.844,405.916
	c-6.367,8.544,12.485,4.275,20.914-2.246c6.139-4.752,6.439-16.288,3.148-20.413c-6.646-8.331-23.858-14.562-20.611-4.411
	C278.256,391.228,274.027,401.643,270.844,405.916z"/>
<path id="PRIMARY_5_" fill="#666666" stroke="#231F20" stroke-miterlimit="10" d="M284.072,406.189
	c-5.752,8.972,12.754,3.387,20.703-3.711c5.791-5.172,5.278-16.701,1.705-20.584c-7.214-7.843-24.824-12.848-20.871-2.951
	C290.432,391.017,286.945,401.703,284.072,406.189z"/>
<path id="PRIMARY_4_" fill="#666666" stroke="#231F20" stroke-miterlimit="10" d="M289.473,408.668
	c-9.406,5.012,9.467,9.195,19.87,6.893c7.582-1.678,12.775-11.982,11.559-17.117c-2.455-10.37-15.363-23.349-16.758-12.784
	C302.442,398.547,294.174,406.162,289.473,408.668z"/>
<path stroke="#231F20" stroke-miterlimit="10" d="M293.008,432.512c0.029,1.713,4.301,3.021,9.546,2.922s9.476-1.566,9.454-3.28
	c-0.029-1.714-4.302-3.021-9.547-2.923C297.216,429.33,292.985,430.799,293.008,432.512z"/>
</svg>
