<?xml version="1.0" encoding="utf-8"?>
<!-- Generator: Adobe Illustrator 16.0.0, SVG Export Plug-In . SVG Version: 6.00 Build 0)  -->
<svg version="1.1" id="Layer_1" xmlns="http://www.w3.org/2000/svg" xmlns:xlink="http://www.w3.org/1999/xlink" x="0px" y="0px"
	 width="612px" height="792px" viewBox="0 0 612 792" enable-background="new 0 0 612 792" xml:space="preserve">
<rect x="266.5" y="370.004" fill-opacity="0" fill="#231F20" width="81" height="54.487"/>
<path id="SECONDARY_4_" fill="#00BC03" d="M320.826,398.847v-4.749c0-1.627-1.137-2.946-2.539-2.946s-2.539,1.319-2.539,2.946v7.327
	C317.924,400.731,319.675,399.853,320.826,398.847z"/>
<path id="SECONDARY_3_" fill="#00BC03" d="M313.109,402.458v-7.793c0-1.94-1.137-3.514-2.539-3.514
	c-1.401,0-2.538,1.573-2.538,3.514v8.348C309.824,402.92,311.525,402.729,313.109,402.458z"/>
<path id="SECONDARY_2_" fill="#00BC03" d="M305.026,402.986v-8.25c0-1.98-1.137-3.584-2.539-3.584c-1.402,0-2.539,1.604-2.539,3.584
	v7.772C301.542,402.753,303.244,402.916,305.026,402.986z"/>
<path id="SECONDARY_1_" fill="#00BC03" d="M296.75,401.424v-7.274c0-1.656-1.137-2.998-2.539-2.998
	c-1.402,0-2.539,1.342-2.539,2.998v4.696C292.824,399.852,294.574,400.73,296.75,401.424z"/>
<path id="SECONDARY" fill="#00BC03" d="M316.905,394.221c1.176,0.764,2.748,0.429,3.512-0.748l1.373-2.114v-0.121
	c-0.121-0.326-0.203-0.658-0.203-0.998v-6.472c-0.093-0.241-0.227-0.477-0.38-0.708c-0.138,0.131-0.264,0.276-0.372,0.443
	l-4.678,7.206C315.395,391.885,315.729,393.457,316.905,394.221z"/>
</svg>
