<?xml version="1.0" encoding="utf-8"?>
<!-- Generator: Adobe Illustrator 16.0.0, SVG Export Plug-In . SVG Version: 6.00 Build 0)  -->
<svg version="1.1" id="Layer_1" xmlns="http://www.w3.org/2000/svg" xmlns:xlink="http://www.w3.org/1999/xlink" x="0px" y="0px"
	 width="612px" height="792px" viewBox="0 0 612 792" enable-background="new 0 0 612 792" xml:space="preserve">
<rect x="176.231" y="272.577" fill-opacity="0" fill="#231F20" width="255.538" height="248.354"/>
<path id="PRIMARY_7_" fill="#666666" stroke="#231F20" stroke-width="3.1652" stroke-miterlimit="10" d="M182.085,386.286
	c32.306,41.563,52.282,131.681,111.662,133.793c81.433,2.894,50.847-71.71,50.847-112.708c0-40.991-36.01-74.226-80.423-74.226
	C219.757,333.146,156.988,353.998,182.085,386.286z"/>
<path id="PRIMARY_6_" fill="#666666" stroke="#231F20" stroke-width="3.1652" stroke-miterlimit="10" d="M199.399,425.849
	c-20.087,27.133,39.389,13.577,65.979-7.133c19.366-15.091,20.315-51.726,9.933-64.823c-20.968-26.455-75.268-46.242-65.024-14.008
	C222.783,379.205,209.442,412.277,199.399,425.849z"/>
<path id="PRIMARY_5_" fill="#666666" stroke="#231F20" stroke-width="3.1652" stroke-miterlimit="10" d="M241.132,426.717
	c-18.146,28.491,40.236,10.755,65.313-11.784c18.268-16.425,16.65-53.037,5.379-65.368c-22.76-24.906-78.314-40.8-65.843-9.371
	C261.195,378.533,250.196,412.47,241.132,426.717z"/>
<path id="PRIMARY_4_" fill="#666666" stroke="#231F20" stroke-width="3.1652" stroke-miterlimit="10" d="M258.169,434.588
	c-29.675,15.915,29.866,29.201,62.686,21.889c23.92-5.328,40.304-38.053,36.465-54.358c-7.745-32.931-48.468-74.148-52.869-40.598
	C299.084,402.447,273,426.63,258.169,434.588z"/>
<path stroke="#231F20" stroke-width="3.1652" stroke-miterlimit="10" d="M269.322,510.307c0.093,5.439,13.568,9.596,30.117,9.279
	c16.548-0.316,29.895-4.975,29.824-10.417c-0.092-5.442-13.571-9.595-30.118-9.282C282.597,500.203,269.251,504.867,269.322,510.307
	z"/>
</svg>
