<?xml version="1.0" encoding="utf-8"?>
<!-- Generator: Adobe Illustrator 16.0.0, SVG Export Plug-In . SVG Version: 6.00 Build 0)  -->
<svg version="1.1" id="Layer_1" xmlns="http://www.w3.org/2000/svg" xmlns:xlink="http://www.w3.org/1999/xlink" x="0px" y="0px"
	 width="612px" height="792px" viewBox="0 0 612 792" enable-background="new 0 0 612 792" xml:space="preserve">
<rect x="260.5" y="371.004" fill-opacity="0" fill="#231F20" width="81" height="54.487"/>
<path id="SECONDARY_4_" fill="#00BC03" d="M316.327,399.884v1.962c-1.151,1.006-2.901,1.885-5.077,2.578v-1.58
	C313.55,402.088,315.325,401.064,316.327,399.884z"/>
<path id="SECONDARY_3_" fill="#00BC03" d="M308.051,403.657v1.851c-1.592,0.245-3.295,0.408-5.077,0.479V404.2
	C304.771,404.141,306.479,403.953,308.051,403.657z"/>
<path id="SECONDARY_2_" fill="#00BC03" d="M299.968,404.18v1.833c-1.792-0.093-3.493-0.284-5.077-0.555v-1.915
	C296.454,403.871,298.161,404.093,299.968,404.18z"/>
<path id="SECONDARY_1_" fill="#00BC03" d="M292.252,402.845v1.58c-2.176-0.693-3.927-1.572-5.078-2.578v-1.961
	C288.177,401.066,289.952,402.088,292.252,402.845z"/>
<path id="SECONDARY" fill="#00BC03" d="M284.413,391.24v-6.472c0.093-0.241,0.227-0.477,0.38-0.708
	c0.138,0.131,0.264,0.276,0.372,0.443l1.085,1.671v8.987c-0.256-0.181-0.485-0.409-0.667-0.688l-1.373-2.114v-0.121
	C284.331,391.912,284.413,391.58,284.413,391.24z"/>
</svg>
