<?xml version="1.0" encoding="utf-8"?>
<!-- Generator: Adobe Illustrator 16.0.0, SVG Export Plug-In . SVG Version: 6.00 Build 0)  -->
<svg version="1.1" id="Layer_1" xmlns="http://www.w3.org/2000/svg" xmlns:xlink="http://www.w3.org/1999/xlink" x="0px" y="0px"
	 width="612px" height="792px" viewBox="0 0 612 792" enable-background="new 0 0 612 792" xml:space="preserve">
<rect x="266.5" y="370.004" fill-opacity="0" fill="#231F20" width="81" height="54.487"/>
<path id="PRIMARY_9_" fill="#666666" stroke="#231F20" stroke-miterlimit="10" d="M292.25,396.677c0,3.615,6.939,6.55,15.5,6.55l0,0
	c8.561,0,15.5-2.935,15.5-6.55v-11.579c0-3.616-6.939-6.55-15.5-6.55l0,0c-8.561,0-15.5,2.934-15.5,6.55V396.677z"/>
<path id="PRIMARY_8_" fill="#666666" stroke="#231F20" stroke-miterlimit="10" d="M299.75,380.557c0,2.224,3.582,4.027,8,4.027l0,0
	c4.418,0,8-1.804,8-4.027v-7.115c0-2.223-3.582-4.026-8-4.026l0,0c-4.418,0-8,1.803-8,4.026V380.557z"/>
<path stroke="#231F20" stroke-miterlimit="10" d="M295.977,399.07c1.633,0.694,2.671,1.929,2.318,2.756
	c-0.004,0.01-0.013,0.017-0.018,0.026c-2.396-0.784-4.232-1.856-5.216-3.097C293.762,398.505,294.858,398.595,295.977,399.07z"/>
<path stroke="#231F20" stroke-miterlimit="10" d="M293.879,392.69c0.023,1.774-0.686,3.222-1.586,3.234
	c-0.014,0-0.028-0.008-0.043-0.008v-6.408C293.13,389.544,293.855,390.946,293.879,392.69z"/>
<path stroke="#231F20" stroke-miterlimit="10" d="M303.646,401.037c1.758,0.24,3.084,1.157,2.963,2.049
	c-0.006,0.041-0.029,0.076-0.04,0.115c-2.276-0.072-4.417-0.349-6.313-0.793c-0.006-0.063-0.021-0.128-0.012-0.191
	C300.365,401.324,301.889,400.797,303.646,401.037z"/>
<path stroke="#231F20" stroke-miterlimit="10" d="M311.285,400.978c1.757-0.248,3.282,0.273,3.408,1.164
	c0.019,0.132-0.003,0.263-0.044,0.394c-1.897,0.4-4.014,0.639-6.256,0.678c-0.021-0.058-0.052-0.112-0.061-0.174
	C308.207,402.147,309.528,401.226,311.285,400.978z"/>
<path stroke="#231F20" stroke-miterlimit="10" d="M318.896,399.101c1.431-0.685,2.864-0.723,3.431-0.145
	c-1.096,1.244-3.052,2.31-5.575,3.065c-0.015-0.023-0.037-0.041-0.049-0.065C316.314,401.144,317.297,399.866,318.896,399.101z"/>
<path id="PRIMARY_10_" fill="#666666" stroke="#231F20" stroke-miterlimit="10" d="M298.25,386.749c0,2.027,4.253,3.672,9.5,3.672
	l0,0c5.247,0,9.5-1.645,9.5-3.672v-6.486c0-2.027-4.253-3.671-9.5-3.671l0,0c-5.247,0-9.5,1.644-9.5,3.671V386.749z"/>
</svg>
