<?xml version="1.0" encoding="utf-8"?>
<!-- Generator: Adobe Illustrator 16.0.0, SVG Export Plug-In . SVG Version: 6.00 Build 0)  -->
<svg version="1.1" id="Layer_1" xmlns="http://www.w3.org/2000/svg" xmlns:xlink="http://www.w3.org/1999/xlink" x="0px" y="0px"
	 width="612px" height="792px" viewBox="0 0 612 792" enable-background="new 0 0 612 792" xml:space="preserve">
<rect x="173" y="312.248" fill-opacity="0" fill="#231F20" width="256" height="172"/>
<path id="SECONDARY_4_" fill="#00BC03" d="M349.441,403.412v6.193c-3.639,3.176-9.17,5.95-16.046,8.139v-4.988
	C340.664,410.37,346.274,407.14,349.441,403.412z"/>
<path id="SECONDARY_3_" fill="#00BC03" d="M323.284,415.324v5.842c-5.032,0.773-10.414,1.289-16.047,1.511v-5.639
	C312.917,416.851,318.316,416.258,323.284,415.324z"/>
<path id="SECONDARY_2_" fill="#00BC03" d="M297.738,416.974v5.786c-5.664-0.293-11.041-0.897-16.046-1.751v-6.045
	C286.633,415.999,292.026,416.699,297.738,416.974z"/>
<path id="SECONDARY_1_" fill="#00BC03" d="M273.352,412.76v4.987c-6.877-2.188-12.411-4.963-16.049-8.138v-6.19
	C260.472,407.146,266.083,410.37,273.352,412.76z"/>
<path id="SECONDARY" fill="#00BC03" d="M248.577,376.127v-20.429c0.293-0.761,0.716-1.504,1.201-2.236
	c0.435,0.413,0.833,0.872,1.176,1.398l3.429,5.276v28.369c-0.809-0.57-1.534-1.292-2.108-2.174l-4.339-6.674v-0.381
	C248.318,378.247,248.577,377.2,248.577,376.127z"/>
</svg>
