<?xml version="1.0" encoding="utf-8"?>
<!-- Generator: Adobe Illustrator 16.0.0, SVG Export Plug-In . SVG Version: 6.00 Build 0)  -->
<svg version="1.1" id="Layer_1" xmlns="http://www.w3.org/2000/svg" xmlns:xlink="http://www.w3.org/1999/xlink" x="0px" y="0px"
	 width="612px" height="792px" viewBox="0 0 612 792" enable-background="new 0 0 612 792" xml:space="preserve">
<rect id="head_frame" x="178.666" y="285.417" fill-opacity="0" fill="#BBBCBE" width="256" height="222"/>
<path id="PRIMARY" fill="#666666" stroke="#231F20" stroke-width="1.695" stroke-miterlimit="10" d="M350.206,471.235
	c-0.005,10.621-20,16.787-44.669,16.787l0,0c-24.671,0-44.671-16.787-44.671-37.497v-56.248c0-20.71,20-37.499,44.671-37.499l0,0
	c24.669,0,44.669,16.789,44.669,37.499V471.235z"/>
<path stroke="#231F20" stroke-width="1.695" stroke-miterlimit="10" d="M302.967,404.324c0,5.539,9.121,14.832,9.121,14.832h37.974
	c0,0,0-4.49,0-10.031l0,0c0-5.539,0-10.028,0-10.028h-37.974C312.088,399.097,302.967,398.785,302.967,404.324L302.967,404.324z"/>
<circle id="SECONDARY_1_" fill="#00BC03" cx="330.132" cy="409.125" r="4.804"/>
<path id="SECONDARY" fill="#00BC03" d="M348.98,409.125c0,2.653-2.148,4.803-4.801,4.803c-2.656,0-4.805-2.149-4.805-4.803
	c0-2.651,2.148-4.801,4.805-4.801C346.832,404.324,348.98,406.474,348.98,409.125z"/>
<path id="PRIMARY_1_" fill="#666666" stroke="#231F20" stroke-width="1.695" stroke-miterlimit="10" d="M349.571,396.191
	c0.276-6.115-0.996-11.992-3.493-17.379l-36.191,6.777c0,0-9.413,11.215-8.393,16.66c1.019,5.446,12.084,3.057,12.084,3.057
	l35.886-6.719L349.571,396.191z"/>
<path stroke="#231F20" stroke-width="1.695" stroke-miterlimit="10" d="M321.33,393.633c0.589,3.665-0.75,6.929-2.995,7.291
	c-2.24,0.358-4.533-2.317-5.128-5.983c-0.589-3.665,0.752-6.929,2.994-7.29C318.442,387.29,320.739,389.969,321.33,393.633z"/>
<path stroke="#231F20" stroke-width="1.695" stroke-miterlimit="10" d="M336.311,390.818c0.589,3.665-0.75,6.928-2.995,7.288
	c-2.24,0.361-4.533-2.316-5.128-5.98c-0.59-3.665,0.752-6.929,2.993-7.29C333.423,384.475,335.719,387.153,336.311,390.818z"/>
<path stroke="#231F20" stroke-width="1.695" stroke-miterlimit="10" d="M347.575,395.679c0.812-0.13,1.496-0.648,2.022-1.417
	c-0.029-3.852-0.667-7.596-1.836-11.169c-0.729-0.543-1.526-0.813-2.321-0.685c-2.241,0.361-3.582,3.625-2.993,7.29
	C343.042,393.362,345.335,396.039,347.575,395.679z"/>
<path stroke="#231F20" stroke-width="1.695" stroke-miterlimit="10" d="M316.459,446.245v41.351
	c19.388-1.563,33.742-7.362,33.747-16.36v-24.99H316.459z"/>
<path id="SECONDARY_8_" fill="#00BC03" d="M345.168,463.109c0.067-0.731-0.563-1.056-1.592-1.201v-1.665
	c0-0.76-1.013-0.705-2.26-0.705c-1.248,0-2.262-0.055-2.262,0.705v1.559h-2.739v-1.558c0-0.761-1.014-0.706-2.261-0.706
	c-1.248,0-2.261-0.055-2.261,0.706v1.558h-2.742v-1.558c0-0.761-1.013-0.706-2.26-0.706c-1.248,0-2.262-0.055-2.262,0.706v1.558
	h-2.74v-1.558c0-0.761-1.013-0.706-2.26-0.706c-1.248,0-2.262-0.055-2.262,0.706v1.558c0,0,0,1.301,0,3.066c0,0.362,0,0.74,0,1.134
	c0,2.322,0,9.834,0,9.834l20.861-3.373C345.873,471.827,345.185,467.803,345.168,463.109z"/>
<path id="SECONDARY_3_" fill="#00BC03" d="M339.104,447.106h-21.835c0,0,0,1.88,0,4.2c0,2.321,0,4.203,0,4.203h1.695v1.271
	c0,0.761,1.014,0.708,2.262,0.708c1.247,0,2.26,0.053,2.26-0.708v-1.271h2.707v1.271c0,0.761,1.014,0.708,2.262,0.708
	s2.262,0.053,2.262-0.708v-1.271h2.707v1.271c0,0.761,1.013,0.708,2.262,0.708c1.246,0,2.26,0.053,2.26-0.708v-1.271h1.159
	c0.538,0,1.051,0,1.548-0.002v1.274c0,0.76,1.013,0.707,2.262,0.707c1.246,0,2.26,0.053,2.26-0.707v-2.828v-1.797v-5.051
	C345.173,447.106,342.454,447.106,339.104,447.106z"/>
<ellipse id="PRIMARY_2_" transform="matrix(-0.9548 0.2972 -0.2972 -0.9548 675.1642 620.9084)" fill="#666666" stroke="#231F20" stroke-width="1.695" stroke-miterlimit="10" cx="290.375" cy="361.787" rx="13.709" ry="5.947"/>
<ellipse transform="matrix(-0.9548 0.2973 -0.2973 -0.9548 671.8705 617.8561)" stroke="#231F20" stroke-width="1.695" stroke-miterlimit="10" cx="288.952" cy="360.019" rx="6.358" ry="2.758"/>
<path id="SECONDARY_2_" fill="#00BC03" d="M287.494,331.747c1.393,0.63,2.089,1.793,2.646,3.17c0.03,0.15,0.012,0.324-0.546,0.84
	c-2.706,0.641,0.686,4.03-1.01,5.725c5.086,3.389,3.391-5.084,6.782-3.39c-1.695,1.695,1.695,5.084-1.073,5.173
	c0.038,0.185,0.091,0.36,0.139,0.537c2.394,5.53,2.283,11.178-0.868,15.12c-4.003,5.01-11.78,5.844-19.431,2.74
	c-1.276-0.517-2.551-1.127-3.873-1.636c-0.26-0.252-0.52-0.5-0.781-0.742c-0.262-0.241-0.525-0.478-0.787-0.708
	c-0.454-1.843-0.454-3.538-0.454-5.232c-1.695,0-3.391,0-5.086,0c-1.695,3.39,5.086,1.695,3.391,3.39
	c-5.086,6.778-3.391-3.39-5.977-3.643c-0.278-0.14-0.557-0.276-0.836-0.41c-0.699-0.332-1.402-0.641-2.107-0.931
	c-0.237-0.097-0.472-0.191-0.708-0.284c-0.543-1.512-0.543-3.207-0.543-3.207c-1.695-1.694-3.391,1.695-5.086,1.695
	c-3.391-1.695-1.695-3.389-0.534-4.698c-0.144-0.287-0.288-0.577-0.434-0.868c2.663-1.213,0.968-4.603,0.968-6.297
	c-1.695,0-6.781-1.694-5.086,3.39c1.695,0,5.086-1.695,3.391,1.694c-3.391,3.39-5.086-3.389-4.313-6.334
	c0.252-0.406,0.227-0.598,0.214-0.798c-1.525-2.159-3.279-4.178-5.365-5.873c-0.232-0.188-0.468-0.373-0.708-0.553
	c-1.695-3.389-3.391-5.084-6.781-1.695c-1.695,1.695,1.695,3.39,1.695,5.084c-5.086,0-3.391-3.389-2.762-6.283
	c-0.348-0.086-0.696-0.167-1.047-0.243c-4.296-0.929-8.787-1.067-12.836,0.062c-0.312,0.086-0.62,0.18-0.926,0.283
	c-1.077,1.097-7.858-3.987-6.163,2.792c0,0,3.391-3.389,5.086,0c0,5.084-5.086,1.695-6.942,2.8
	c-0.219,0.278-0.432,0.566-0.639,0.865c-0.207,0.298-0.408,0.605-0.603,0.924c-0.14,0.17-0.279,0.344-0.883,0.657
	c-4.497,1.533,2.285,6.617-1.688,7.484c-0.038,0.266-0.061,0.545-0.072,0.827c-0.022,0.565-0.017,1.13,0.019,1.695
	c-0.013,0.162-0.019,0.32-0.061,0.494c-0.999,1.201-6.084,4.59,0.697,6.285c0-3.39,1.695-5.084,3.391-3.39
	c0,1.695,0,3.39-0.389,4.993c-0.416,0.517-0.351,0.692-0.274,0.861c0.21,0.308,0.431,0.616,0.663,0.924
	c0.291,0.292,0.583,0.561,0.874,0.809c0.292,0.249,0.583,0.476,0.874,0.683c-0.053,1.897-1.748,1.897-3.444,1.897
	c1.696,0,3.391,0,4.675-0.19c0.469,0.187,0.665,0.167,0.888,0.159c0.25-0.15,0.511-0.33,0.776-0.522
	c0.128-0.077,0.258-0.163,0.389-0.13c1.749,2.379,3.444,2.379,5.139,2.379c3.391-1.695-5.086-3.389-1.695-5.084
	c1.695,0,5.086,0,5.633,3.55c0.092,0.137,0.181,0.18,0.271,0.196c0.357,0.063,0.654,0.047,0.902-0.035
	c0.255-0.055,0.479-0.127,0.672-0.211c2.694-0.111-0.697-1.805,0.542-3.863c0.036-0.233,0.067-0.451,0.133-0.714
	c0.103-1.924,0.43-3.358,2.692-1.843c0.052-0.287,0.099-0.586,0.152-0.896c0.158-0.928,0.362-1.945,0.87-2.962
	c0,1.06,0,2.119-0.021,3.316c-0.004,0.24-0.009,0.485-0.016,0.737c-1.659,2.725-3.354,6.114,1.732,7.809
	c-1.695,0-3.391,0-5.32-0.266c-0.374,0.042-0.596,0.181-0.755,0.337c-1.236,1.624,2.261,4.166,0.989,6.708
	c0-3.39-5.086,0-4.206-3.134c-0.21,0.025-0.412,0.071-0.606,0.144c-0.117,0.044-0.284,0.036-0.482,0.011
	c-0.155,0.133-0.334,0.201-0.533,0.219c-0.238-0.581-0.523-1.017-0.87-1.344c-0.173-0.163-0.347-0.3-0.281-0.42
	c-1.499-0.56-1.499-0.56-2.649-0.524c-0.326-0.018-0.674-0.027-1.046-0.031c-0.373-0.005-0.77-0.005-1.194-0.005
	c0.742,0.741,0.51,1.807,0.298,2.772c-0.206,0.135-0.551,0.266-1.043,0.443c-2.646,0.174-2.646,1.869-2.646,5.258
	c-1.695-1.695,1.695-3.389,2.533-5.506c0.111-0.151,0.199-0.293,0.277-0.433c0.11-0.274,0.299-0.558,0.581-0.84
	c0.508-0.508,0.966-0.915,1.379-1.233c0.229-0.15,0.437-0.282,0.649-0.386c1.363-0.075,3.058-0.075,4.753-0.075
	c0,0-1.695,0-1.807,0.811c0.117,0.259,0.22,0.545,0.314,0.844c0.282,0.898,0.49,1.92,0.786,2.727
	c0.106,0.163,0.212,0.279,0.321,0.373c0.674,0.422,1.229,0.86,1.734,1.178c0.363,0.165,0.705,0.317,1.009,0.317
	c0.609,0,1.033,0.105,1.033,0.529c0,0.636-0.477,1.033-1.162,1.281c-0.229,0.083-0.48,0.149-0.745,0.202
	c-2.185,0.146-2.067-1.411-2.33-2.948c-0.002-0.232-0.011-0.443,0.027-0.889c-0.35-1.092-0.832-2.29-1.5-3.225
	c-0.167-0.234-0.33-0.449-0.1-0.606c-0.972-0.593-0.972-0.593-1.879-0.673c-0.475-0.17-0.841-0.324-1.069-0.359
	c-0.435,0.045-0.906,0.185-1.414,0.439c0,0.847,0,1.694,0.212,2.542c0.013,0.136-0.037,0.266-0.157,0.396
	c-0.055,0.451,1.641,0.451,1.343,0.329c0.23-0.05,0.298-0.16,0.298-0.317c0-0.313,0-0.69,0-1.255
	c1.695,1.695,1.695,3.39,3.391,5.084c-0.142,0.212-0.28,0.406-0.425,0.52c-1.271-2.214-2.966-2.214-6.356-2.214
	c-3.391,1.694,5.086,5.084-1.695,5.084c1.695-1.695-1.695-5.084,0.957-6.644c-0.019-0.064-0.233-0.028-0.459,0.011
	c-0.227,0.039-0.459,0.056-0.692,0.024c-3.196-1.864-1.5-6.948-6.587-5.253c-3.391,1.695,6.782,6.779,0,6.779
	c0,0-2.493-1.661-3.063-3.769c-0.081-0.301-0.123-0.611-0.113-0.928c3.176-0.388-0.214-3.777,1.481-5.472
	c-3.391-1.695-5.086-1.695-6.781,1.694c-5.086-3.389,1.695-3.389,1.695-5.084c-0.089-0.179-0.176-0.356-0.259-0.535
	c-0.411-0.88-0.752-1.76-1.026-2.637c0.026-0.192,0.039-0.38,0.405-0.673c-0.814-1.238,2.576-2.933,2.576-4.627
	c-1.695-3.389-6.782,6.779-6.782-1.695c0-3.389,5.086,0,3.332-2.808c0.07-0.333,0.146-0.665,0.232-0.995
	c0.491-1.905,1.244-3.756,2.211-5.529c0.161-0.296,0.328-0.589,0.5-0.88c2.202,0.044,7.288,1.739,5.593-3.345
	c-1.695-3.389-3.391,1.695-5.086,0s1.695-3.389,1.695-5.084c1.695-1.695,3.391,0,3.667,0.961c0.183-0.023,0.268-0.077,0.39-0.135
	c1.232-1.135,2.544-2.196,3.909-3.173c0.152-0.074,0.317-0.128,0.51-0.149c6.782,4.192,1.696-5.976,7.111-5.078
	c0.592,0.415,0.792,0.313,0.974,0.217c0.514-0.354,0.888-0.662,1.256-0.958c0.525-0.461,1.079-0.898,1.662-1.306
	c0.213,0.068,0.419,0.123,0.967,0.596c3.29,0.553,4.985,0.553,6.681-1.142c0-6.778-5.086-1.695-6.782-1.695
	c1.695-3.389,3.391-6.778,7.463-1.82c0.218,0.258,0.333,0.313,0.458,0.396c3.823-1.039,7.555-1.636,11.199-1.826
	c0.362-0.019,0.724-0.03,1.083,0.019c0.141,4.926,3.532,3.231,6.922,3.231c0-1.694,0-3.389-1.695-5.083c0,1.694,0,1.694,0,3.389
	c-5.086,0-1.695-3.389-1.695-5.084c3.391-1.695,3.391,3.389,5.99,4.13c0.345,0.057,0.689,0.119,1.033,0.184
	c2.948,0.56,5.835,1.386,8.66,2.458c0.314,0.119,0.627,0.242,0.938,0.367c0.333,4.725,7.114-2.054,7.353,3.563
	c0.301,0.17,0.601,0.344,0.899,0.521c0.897,0.53,1.786,1.084,2.67,1.662c0.2,0.132,0.404,0.271,0.616,0.423
	c-1.033,3.64,4.053,0.25,4.053,3.64c1.695-1.694,5.086-1.694,3.391-5.084c0,1.695,0,3.39-2.305,5.029
	c0.251,0.184,0.479,0.353,0.686,0.51c1.033,0.784,1.54,1.269,1.911,1.782c1.785,1.534,3.536,3.162,5.28,4.891
	C286.323,330.518,286.931,331.113,287.494,331.747z"/>
</svg>
