<?xml version="1.0" encoding="utf-8"?>
<!-- Generator: Adobe Illustrator 16.0.0, SVG Export Plug-In . SVG Version: 6.00 Build 0)  -->
<svg version="1.1" id="Layer_1" xmlns="http://www.w3.org/2000/svg" xmlns:xlink="http://www.w3.org/1999/xlink" x="0px" y="0px"
	 width="612px" height="792px" viewBox="0 0 612 792" enable-background="new 0 0 612 792" xml:space="preserve">
<rect id="head_frame" x="231.166" y="330.917" fill-opacity="0" fill="#BBBCBE" width="151" height="131"/>
<path id="PRIMARY" fill="#666666" stroke="#231F20" stroke-miterlimit="10" d="M332.348,440.566
	c-0.003,6.268-11.797,9.906-26.348,9.906l0,0c-14.552,0-26.349-9.906-26.349-22.127v-33.191c0-12.221,11.797-22.127,26.349-22.127
	l0,0c14.551,0,26.348,9.907,26.348,22.127V440.566z"/>
<path stroke="#231F20" stroke-miterlimit="10" d="M304.484,401.083c0,3.269,5.38,8.752,5.38,8.752h22.398c0,0,0-2.649,0-5.919l0,0
	c0-3.269,0-5.918,0-5.918h-22.398C309.864,397.998,304.484,397.814,304.484,401.083L304.484,401.083z"/>
<circle id="SECONDARY_1_" fill="#00BC03" cx="320.507" cy="403.916" r="2.833"/>
<circle id="SECONDARY" fill="#00BC03" cx="328.792" cy="403.916" r="2.833"/>
<path id="PRIMARY_1_" fill="#666666" stroke="#231F20" stroke-miterlimit="10" d="M331.974,396.284
	c0.163-3.608-0.588-7.076-2.061-10.255l-21.348,3.999c0,0-5.552,6.618-4.95,9.831c0.601,3.214,7.128,1.804,7.128,1.804l21.167-3.965
	L331.974,396.284z"/>
<ellipse transform="matrix(0.9873 -0.159 0.159 0.9873 -58.8426 54.7735)" stroke="#231F20" stroke-miterlimit="10" cx="312.92" cy="395.16" rx="2.426" ry="3.966"/>
<ellipse transform="matrix(0.9873 -0.159 0.159 0.9873 -58.4661 56.1571)" stroke="#231F20" stroke-miterlimit="10" cx="321.756" cy="393.499" rx="2.426" ry="3.965"/>
<path stroke="#231F20" stroke-miterlimit="10" d="M330.796,395.981c0.479-0.077,0.883-0.383,1.193-0.836
	c-0.018-2.273-0.394-4.482-1.083-6.591c-0.431-0.321-0.9-0.479-1.369-0.404c-1.322,0.213-2.113,2.139-1.766,4.301
	C328.122,394.614,329.475,396.194,330.796,395.981z"/>
<path stroke="#231F20" stroke-miterlimit="10" d="M312.442,425.82v24.4c11.436-0.922,19.902-4.345,19.905-9.654V425.82H312.442z"/>
<path id="SECONDARY_8_" fill="#00BC03" d="M329.376,435.771c0.04-0.432-0.332-0.623-0.938-0.709v-0.982
	c0-0.448-0.598-0.416-1.333-0.416c-0.736,0-1.334-0.032-1.334,0.416V435h-1.616v-0.919c0-0.449-0.598-0.417-1.333-0.417
	c-0.736,0-1.334-0.032-1.334,0.417V435h-1.617v-0.919c0-0.449-0.598-0.417-1.333-0.417c-0.736,0-1.334-0.032-1.334,0.417V435h-1.616
	v-0.919c0-0.449-0.598-0.417-1.333-0.417c-0.736,0-1.334-0.032-1.334,0.417V435c0,0,0,0.768,0,1.81c0,0.214,0,0.437,0,0.669
	c0,1.37,0,5.803,0,5.803l12.305-1.99C329.792,440.916,329.386,438.541,329.376,435.771z"/>
<path id="SECONDARY_3_" fill="#00BC03" d="M325.799,426.328H312.92c0,0,0,1.109,0,2.479c0,1.37,0,2.48,0,2.48h1v0.75
	c0,0.449,0.598,0.418,1.334,0.418c0.735,0,1.333,0.031,1.333-0.418v-0.75h1.597v0.75c0,0.449,0.598,0.418,1.334,0.418
	s1.334,0.031,1.334-0.418v-0.75h1.597v0.75c0,0.449,0.598,0.418,1.334,0.418c0.735,0,1.333,0.031,1.333-0.418v-0.75h0.684
	c0.317,0,0.62,0,0.913-0.001v0.752c0,0.448,0.598,0.417,1.334,0.417c0.735,0,1.333,0.031,1.333-0.417v-1.669v-1.061v-2.98
	C329.379,426.328,327.775,426.328,325.799,426.328z"/>
<ellipse id="PRIMARY_2_" transform="matrix(-0.9548 0.2974 -0.2974 -0.9548 692.4763 646.6269)" fill="#666666" stroke="#231F20" stroke-miterlimit="10" cx="297.057" cy="375.982" rx="8.086" ry="3.509"/>
<ellipse transform="matrix(-0.9548 0.2974 -0.2974 -0.9548 690.5322 644.8271)" stroke="#231F20" stroke-miterlimit="10" cx="296.217" cy="374.939" rx="3.75" ry="1.627"/>
<path id="SECONDARY_2_" fill="#00BC03" d="M295.357,358.256c0.821,0.372,1.232,1.058,1.561,1.871
	c0.018,0.088,0.007,0.191-0.322,0.496C295,361,297,363,296,364c3,2,2-3,4-2c-1,1,1,3-0.633,3.052
	c0.022,0.109,0.054,0.212,0.082,0.317c1.412,3.263,1.347,6.596-0.512,8.922c-2.361,2.957-6.948,3.448-11.461,1.617
	c-0.753-0.305-1.505-0.665-2.284-0.965c-0.153-0.149-0.307-0.295-0.461-0.438c-0.154-0.142-0.31-0.282-0.464-0.418
	C284,373,284,372,284,371c-1,0-2,0-3,0c-1,2,3,1,2,2c-3,4-2-2-3.525-2.149c-0.164-0.083-0.328-0.163-0.493-0.242
	c-0.412-0.196-0.827-0.378-1.243-0.549c-0.14-0.057-0.278-0.113-0.418-0.167C277,369,277,368,277,368c-1-1-2,1-3,1
	c-2-1-1-2-0.315-2.772c-0.084-0.169-0.17-0.34-0.256-0.512C275,365,274,363,274,362c-1,0-4-1-3,2c1,0,3-1,2,1c-2,2-3-2-2.544-3.738
	c0.149-0.239,0.134-0.353,0.126-0.471c-0.899-1.274-1.934-2.465-3.165-3.465c-0.137-0.111-0.276-0.22-0.417-0.326c-1-2-2-3-4-1
	c-1,1,1,2,1,3c-3,0-2-2-1.629-3.708c-0.205-0.051-0.411-0.099-0.618-0.143c-2.534-0.548-5.183-0.63-7.571,0.036
	c-0.184,0.051-0.366,0.106-0.546,0.167C253,356,249,353,250,357c0,0,2-2,3,0c0,3-3,1-4.095,1.652
	c-0.129,0.164-0.255,0.334-0.377,0.51c-0.122,0.176-0.241,0.357-0.355,0.545c-0.083,0.101-0.165,0.203-0.521,0.388
	C245,361,249,364,246.656,364.512c-0.022,0.157-0.036,0.322-0.042,0.488c-0.013,0.333-0.01,0.667,0.011,1
	c-0.008,0.095-0.011,0.189-0.036,0.292C246,367,243,369,247,370c0-2,1-3,2-2c0,1,0,2-0.229,2.946
	c-0.245,0.305-0.207,0.409-0.162,0.508c0.124,0.182,0.254,0.364,0.391,0.545c0.172,0.172,0.344,0.331,0.516,0.478
	s0.344,0.281,0.516,0.403C250,374,249,374,248,374c1,0,2,0,2.757-0.112c0.276,0.11,0.392,0.099,0.524,0.094
	c0.147-0.088,0.301-0.195,0.458-0.308c0.075-0.045,0.152-0.096,0.229-0.077C253,375,254,375,255,375c2-1-3-2-1-3
	c1,0,3,0,3.323,2.095c0.054,0.081,0.107,0.106,0.16,0.116c0.21,0.038,0.386,0.028,0.532-0.021c0.15-0.032,0.282-0.075,0.396-0.125
	C260,374,258,373,258.731,371.786c0.021-0.138,0.04-0.266,0.078-0.421c0.061-1.136,0.253-1.982,1.588-1.087
	c0.031-0.169,0.059-0.346,0.09-0.529C260.58,369.2,260.7,368.6,261,368c0,0.625,0,1.25-0.012,1.957
	c-0.002,0.142-0.005,0.286-0.009,0.435C260,372,259,374,262,375c-1,0-2,0-3.138-0.157c-0.22,0.025-0.352,0.107-0.445,0.199
	C257.688,376,259.75,377.5,259,379c0-2-3,0-2.48-1.849c-0.124,0.015-0.243,0.042-0.357,0.085c-0.069,0.026-0.167,0.021-0.285,0.007
	c-0.091,0.079-0.197,0.119-0.314,0.129c-0.141-0.343-0.309-0.6-0.513-0.793c-0.102-0.096-0.205-0.177-0.166-0.248
	C254,376,254,376,253.321,376.021c-0.192-0.011-0.397-0.016-0.617-0.019C252.484,376,252.25,376,252,376
	c0.438,0.438,0.301,1.066,0.176,1.636c-0.122,0.08-0.325,0.157-0.615,0.262C250,378,250,379,250,381c-1-1,1-2,1.494-3.249
	c0.065-0.089,0.117-0.173,0.163-0.255c0.065-0.162,0.176-0.329,0.343-0.496c0.3-0.3,0.57-0.54,0.813-0.728
	c0.135-0.089,0.257-0.167,0.383-0.228C254,376,255,376,256,376c0,0-1,0-1.066,0.479c0.069,0.153,0.129,0.322,0.185,0.498
	c0.167,0.53,0.289,1.133,0.464,1.609c0.063,0.096,0.125,0.165,0.189,0.22c0.397,0.249,0.725,0.507,1.023,0.695
	c0.214,0.097,0.416,0.187,0.595,0.187c0.359,0,0.609,0.063,0.609,0.313c0,0.375-0.281,0.609-0.686,0.756
	c-0.135,0.049-0.283,0.088-0.439,0.119c-1.289,0.086-1.219-0.833-1.375-1.74c-0.001-0.137-0.006-0.262,0.016-0.524
	c-0.207-0.645-0.491-1.351-0.885-1.903c-0.099-0.138-0.194-0.265-0.059-0.358C254,376,254,376,253.465,375.953
	c-0.28-0.101-0.496-0.191-0.631-0.212c-0.256,0.026-0.534,0.109-0.834,0.259c0,0.5,0,1,0.125,1.5
	c0.008,0.08-0.021,0.157-0.093,0.234C252,378,253,378,252.824,377.928c0.136-0.03,0.176-0.094,0.176-0.187c0-0.185,0-0.407,0-0.741
	c1,1,1,2,2,3c-0.083,0.125-0.165,0.24-0.25,0.307C254,379,253,379,251,379c-2,1,3,3-1,3c1-1-1-3,0.564-3.92
	c-0.011-0.038-0.138-0.017-0.271,0.006c-0.134,0.023-0.271,0.033-0.408,0.014C248,377,249,374,246,375c-2,1,4,4,0,4
	c0,0-1.47-0.98-1.807-2.224c-0.048-0.178-0.073-0.361-0.067-0.547C246,376,244,374,245,373c-2-1-3-1-4,1c-3-2,1-2,1-3
	c-0.053-0.105-0.104-0.21-0.153-0.316c-0.243-0.52-0.444-1.039-0.605-1.556c0.016-0.113,0.023-0.225,0.239-0.397
	C241,368,243,367,243,366c-1-2-4,4-4-1c0-2,3,0,1.965-1.657c0.041-0.197,0.086-0.393,0.137-0.587
	c0.29-1.124,0.734-2.216,1.304-3.263c0.095-0.175,0.193-0.348,0.295-0.52C244,359,247,360,246,357c-1-2-2,1-3,0s1-2,1-3
	c1-1,2,0,2.163,0.567c0.108-0.014,0.158-0.045,0.23-0.08c0.727-0.67,1.5-1.296,2.306-1.873c0.09-0.044,0.187-0.076,0.301-0.088
	c4,2.474,1-3.526,4.194-2.997c0.349,0.245,0.467,0.185,0.575,0.128c0.303-0.209,0.523-0.39,0.741-0.565
	c0.31-0.272,0.636-0.53,0.98-0.771c0.125,0.04,0.248,0.073,0.57,0.352C258,349,259,349,260,348c0-4-3-1-4-1c1-2,2-4,4.402-1.074
	c0.128,0.152,0.196,0.185,0.27,0.234c2.255-0.613,4.457-0.965,6.606-1.078c0.213-0.011,0.427-0.018,0.639,0.011
	C268,348,270,347,272,347c0-1,0-2-1-3c0,1,0,1,0,2c-3,0-1-2-1-3c2-1,2,2,3.533,2.437c0.204,0.034,0.406,0.07,0.609,0.108
	c1.739,0.33,3.442,0.818,5.108,1.45c0.186,0.07,0.37,0.143,0.554,0.216C280,350,284,346,284.141,349.314
	c0.178,0.101,0.354,0.203,0.53,0.308c0.529,0.313,1.054,0.64,1.575,0.98c0.118,0.078,0.238,0.16,0.363,0.25C286,353,289,351,289,353
	c1-1,3-1,2-3c0,1,0,2-1.359,2.967c0.148,0.108,0.282,0.208,0.404,0.301c0.609,0.463,0.908,0.749,1.127,1.051
	c1.053,0.905,2.086,1.866,3.114,2.886C294.667,357.53,295.025,357.882,295.357,358.256z"/>
</svg>
