<?xml version="1.0" encoding="utf-8"?>
<!-- Generator: Adobe Illustrator 16.0.0, SVG Export Plug-In . SVG Version: 6.00 Build 0)  -->
<svg version="1.1" id="Layer_1" xmlns="http://www.w3.org/2000/svg" xmlns:xlink="http://www.w3.org/1999/xlink" x="0px" y="0px"
	 width="612px" height="792px" viewBox="0 0 612 792" enable-background="new 0 0 612 792" xml:space="preserve">
<rect x="178" y="311.248" fill-opacity="0" fill="#231F20" width="256" height="172"/>
<path id="SECONDARY_3_" fill="#FFFDB5" stroke="#231F20" stroke-width="3.1586" stroke-miterlimit="10" d="M258.125,405.079
	c-0.409,4.198-0.586,8.298-0.742,12.188c-0.179,4.347,8.979,4.847,13.374,6.838c1.987,0.472,3.994,0.813,5.805,0.94
	c3.431,0.256,6.159-0.271,6.787-2.14C273.386,419.324,264.681,413.128,258.125,405.079z"/>
<path id="SECONDARY_2_" fill="#FFFDB5" stroke="#231F20" stroke-width="3.1586" stroke-miterlimit="10" d="M302.839,426.355
	c-5.906,0-11.602-0.894-16.966-2.543c0.324,1.729,0.659,3.438,0.991,5.099c0.849,4.267,9.864,2.596,14.606,3.515
	c2.046-0.006,4.072-0.145,5.865-0.447c3.661-0.604,6.35-1.89,6.118-4.14c-0.068-0.685-0.408-1.465-1.063-2.337
	C309.277,426.02,306.1,426.355,302.839,426.355z"/>
<path id="SECONDARY_1_" fill="#FFFDB5" stroke="#231F20" stroke-width="3.1586" stroke-miterlimit="10" d="M345.269,413.711
	c-0.51-1.752-0.827-3.293-1.197-4.748c-6.003,6.15-13.386,10.919-21.633,13.906c0.274,0.602,0.552,1.205,0.824,1.797
	c0.91,1.977,3.463,2.035,6.386,1.572c2.926-0.459,6.225-1.442,8.633-1.557c2.484-2.962,8.805-2.962,7.83-10.105
	C345.852,414.299,345.574,414.019,345.269,413.711z"/>
<path id="SECONDARY" fill="#FFFDB5" stroke="#231F20" stroke-width="3.1586" stroke-miterlimit="10" d="M363.266,344.293
	c-1.59-1.806-3.183-4.859-4.886-7.276c-1.704-2.417-3.521-4.208-5.577-3.485c-1.167,0.41-2.355,0.831-3.556,1.261
	c4.876,6.625,8.404,14.295,10.08,22.655c0.303-0.169,0.593-0.337,0.917-0.509c0.429,0.003,0.827,0.006,1.21,0
	C367.266,352.667,362.864,348.134,363.266,344.293z"/>
</svg>
