<?xml version="1.0" encoding="utf-8"?>
<!-- Generator: Adobe Illustrator 16.0.0, SVG Export Plug-In . SVG Version: 6.00 Build 0)  -->
<svg version="1.1" id="Layer_1" xmlns="http://www.w3.org/2000/svg" xmlns:xlink="http://www.w3.org/1999/xlink" x="0px" y="0px"
	 width="612px" height="792px" viewBox="0 0 612 792" enable-background="new 0 0 612 792" xml:space="preserve">
<rect x="179" y="310.358" fill-opacity="0" fill="#231F20" width="256" height="171.778"/>
<path id="SECONDARY_3_" fill="#FFFDB5" stroke="#231F20" stroke-width="3.1566" stroke-miterlimit="10" d="M289.984,459.558
	c0.179-12.377,0.559-24.963,0.118-35.548c4.568,1.164,9.33,1.848,14.264,1.848c3.668,0,7.246-0.379,10.724-1.031
	c0.883,14.854-0.643,31.606-15.71,47.656c-1.13,1.317-2.377,2.555-3.803,3.62c-2.929,2.198-6.611,3.726-11.583,3.867
	c1.485-4.6,2.92-9.268,4.219-13.849C288.843,463.904,289.435,461.713,289.984,459.558z"/>
<path id="SECONDARY_2_" fill="#FFFDB5" stroke="#231F20" stroke-width="3.1566" stroke-miterlimit="10" d="M325.327,453.049
	c-1.543-10.133-2.976-20.425-4.657-29.563c8.583-2.524,16.299-7.001,22.707-12.894c3.95,15.415,6.728,33.62-6.651,53.669
	c-0.898,1.484-1.923,2.906-3.157,4.193c-2.525,2.647-5.901,4.76-10.787,5.714c0.706-4.784,1.354-9.624,1.879-14.353
	C324.914,457.525,325.142,455.266,325.327,453.049z"/>
<path id="SECONDARY_1_" fill="#FFFDB5" stroke="#231F20" stroke-width="3.1566" stroke-miterlimit="10" d="M361.987,368.376
	c0-1.892-0.104-3.759-0.283-5.604c0.833,0.117,1.536,0.466,2.033,1.17c9.954,14.04,22.164,31.256,15.726,57.758
	c-0.336,1.699-0.809,3.387-1.527,5.012c-1.467,3.355-3.914,6.49-8.176,9.058c-0.976-4.735-2.031-9.501-3.161-14.132
	c-0.546-2.234-1.111-4.433-1.694-6.582c-3.447-6.287-6.87-12.672-10.231-18.691C359.314,388.081,361.987,378.546,361.987,368.376z"
	/>
<path id="SECONDARY" fill="#FFFDB5" stroke="#231F20" stroke-width="3.1566" stroke-miterlimit="10" d="M249.281,456.244
	c1.043-2.057,2.049-4.088,3-6.107c3.086-14.662,6.556-29.618,7.79-41.262c-0.12-0.438-0.237-0.844-0.339-1.226
	c-0.766-1.54-1.009-2.728-0.833-3.633c0.019-0.102,0.071-0.185,0.102-0.28c6.318,8.057,14.729,14.371,24.435,18.152
	c-2.071,14.467-6.966,30.162-24.417,42.736c-1.361,1.071-2.824,2.051-4.429,2.82c-3.293,1.601-7.197,2.395-12.108,1.582
	C244.821,464.797,247.126,460.493,249.281,456.244z"/>
</svg>
