<?xml version="1.0" encoding="utf-8"?>
<!-- Generator: Adobe Illustrator 16.0.0, SVG Export Plug-In . SVG Version: 6.00 Build 0)  -->
<svg version="1.1" id="Layer_1" xmlns="http://www.w3.org/2000/svg" xmlns:xlink="http://www.w3.org/1999/xlink" x="0px" y="0px"
	 width="612px" height="792px" viewBox="0 0 612 792" enable-background="new 0 0 612 792" xml:space="preserve">
<rect x="175" y="320.248" fill-opacity="0" fill="#231F20" width="256" height="172"/>
<path id="SECONDARY_3_" fill="#FFFDB5" stroke="#231F20" stroke-width="3.1586" stroke-miterlimit="10" d="M354.654,466.322
	c-1.043-2.06-2.05-4.094-3-6.116c-3.086-14.681-6.556-29.656-7.79-41.315c0.12-0.438,0.237-0.845,0.34-1.227
	c0.765-1.541,1.009-2.731,0.833-3.638c-0.019-0.102-0.071-0.185-0.102-0.28c-6.318,8.067-14.729,14.39-24.436,18.176
	c2.071,14.485,6.966,30.201,24.417,42.791c1.36,1.073,2.823,2.054,4.429,2.824c3.293,1.603,7.197,2.398,12.108,1.584
	C359.114,474.886,356.809,470.576,354.654,466.322z"/>
<path id="SECONDARY_2_" fill="#FFFDB5" stroke="#231F20" stroke-width="3.1586" stroke-miterlimit="10" d="M313.949,469.639
	c-0.176-12.393-0.558-24.994-0.114-35.593c-4.569,1.165-9.332,1.85-14.266,1.85c-3.668,0-7.245-0.38-10.724-1.033
	c-0.883,14.874,0.642,31.647,15.71,47.718c1.128,1.319,2.376,2.559,3.804,3.626c2.928,2.2,6.609,3.729,11.582,3.871
	c-1.484-4.605-2.92-9.278-4.219-13.866C315.094,473.992,314.498,471.797,313.949,469.639z"/>
<path id="SECONDARY_1_" fill="#FFFDB5" stroke="#231F20" stroke-width="3.1586" stroke-miterlimit="10" d="M278.606,463.122
	c1.545-10.146,2.976-20.451,4.659-29.601c-8.582-2.527-16.301-7.01-22.707-12.91c-3.952,15.436-6.729,33.663,6.651,53.738
	c0.896,1.485,1.923,2.91,3.156,4.198c2.526,2.651,5.904,4.767,10.789,5.722c-0.707-4.79-1.354-9.637-1.879-14.371
	C279.02,467.604,278.793,465.342,278.606,463.122z"/>
<path id="SECONDARY" fill="#FFFDB5" stroke="#231F20" stroke-width="3.1586" stroke-miterlimit="10" d="M241.947,378.341
	c0-1.895,0.105-3.764,0.284-5.611c-0.833,0.117-1.536,0.467-2.034,1.171c-9.954,14.058-22.162,31.296-15.724,57.832
	c0.335,1.702,0.809,3.392,1.526,5.019c1.464,3.36,3.914,6.499,8.176,9.07c0.976-4.742,2.029-9.514,3.162-14.15
	c0.545-2.238,1.108-4.439,1.693-6.591c3.448-6.295,6.871-12.688,10.231-18.716C244.619,398.07,241.947,388.523,241.947,378.341z"/>
</svg>
