<?xml version="1.0" encoding="utf-8"?>
<!-- Generator: Adobe Illustrator 16.0.0, SVG Export Plug-In . SVG Version: 6.00 Build 0)  -->
<svg version="1.1" id="Layer_1" xmlns="http://www.w3.org/2000/svg" xmlns:xlink="http://www.w3.org/1999/xlink" x="0px" y="0px"
	 width="612px" height="792px" viewBox="0 0 612 792" enable-background="new 0 0 612 792" xml:space="preserve">
<rect x="179" y="310.248" fill-opacity="0" fill="#231F20" width="256" height="172"/>
<path id="SECONDARY_7_" fill="#FFFDB5" stroke="#231F20" stroke-width="3.1586" stroke-miterlimit="10" d="M324.473,411.551
	c-0.843,1.505-1.146,2.68-1.022,3.595c0.306,2.247,3.223,2.864,6.923,2.587c1.813-0.127,3.818-0.469,5.806-0.94
	c4.396-1.991,13.553-2.491,13.374-6.838c-0.691-17.197-1.547-38.303-22.855-55.407c-1.302-1.142-2.713-2.196-4.274-3.05
	c-3.21-1.768-7.064-2.765-12.013-2.201c2.121,4.348,4.201,8.771,6.133,13.129c0.936,2.111,1.83,4.192,2.683,6.264
	c2.324,14.82,5.019,29.949,5.651,41.667C324.734,410.78,324.593,411.179,324.473,411.551z"/>
<path id="SECONDARY_6_" fill="#FFFDB5" stroke="#231F20" stroke-width="3.1586" stroke-miterlimit="10" d="M295.315,420.43
	c-1.168,1.258-1.743,2.337-1.833,3.252c-0.231,2.251,2.457,3.536,6.117,4.141c1.793,0.302,3.819,0.44,5.866,0.447
	c4.743-0.919,13.758,0.752,14.607-3.515c3.367-16.885,7.5-37.594-9.191-59.213c-1-1.421-2.124-2.774-3.438-3.971
	c-2.707-2.472-6.226-4.343-11.161-4.96c1.037,4.723,2.017,9.513,2.874,14.205c0.414,2.269,0.793,4.51,1.133,6.711
	c-1.219,14.96-2.157,30.303-4.29,41.823C295.751,419.736,295.521,420.091,295.315,420.43z"/>
<path id="SECONDARY_5_" fill="#FFFDB5" stroke="#231F20" stroke-width="3.1586" stroke-miterlimit="10" d="M266.928,410.553
	c-1.433,0.949-2.246,1.861-2.546,2.729c-0.747,2.142,1.568,4.014,4.986,5.453c1.674,0.709,3.614,1.316,5.604,1.797
	c4.824,0.216,13.201,3.931,15.023-0.021c7.208-15.642,16.049-34.821,4.855-59.728c-0.639-1.612-1.417-3.188-2.419-4.658
	c-2.056-3.032-5.039-5.674-9.698-7.42c-0.094,4.841-0.256,9.728-0.517,14.482c-0.126,2.306-0.274,4.575-0.457,6.796
	c-4.673,14.259-9.161,28.964-13.921,39.673C267.511,409.973,267.207,410.266,266.928,410.553z"/>
<path id="SECONDARY_4_" fill="#FFFDB5" stroke="#231F20" stroke-width="3.1586" stroke-miterlimit="10" d="M249.921,356.706
	c-1.685,0.352-2.906,0.285-3.741-0.111c-2.045-0.963-1.755-3.93-0.381-7.375c0.671-1.683,1.604-3.49,2.653-5.239
	c3.238-3.58,6.474-12.15,10.568-10.671c16.21,5.862,36.094,13.043,45.986,38.499c0.697,1.586,1.276,3.243,1.617,4.986
	c0.722,3.595,0.506,7.571-1.523,12.109c-3.514-3.334-7.108-6.651-10.691-9.808c-1.724-1.526-3.448-3.012-5.154-4.444
	c-13.449-6.689-27.081-13.829-38.062-17.968C250.744,356.7,250.315,356.705,249.921,356.706z"/>
</svg>
