<?xml version="1.0" encoding="utf-8"?>
<!-- Generator: Adobe Illustrator 16.0.0, SVG Export Plug-In . SVG Version: 6.00 Build 0)  -->
<svg version="1.1" id="Layer_1" xmlns="http://www.w3.org/2000/svg" xmlns:xlink="http://www.w3.org/1999/xlink" x="0px" y="0px"
	 width="612px" height="792px" viewBox="0 0 612 792" enable-background="new 0 0 612 792" xml:space="preserve">
<rect x="236.5" y="269.045" fill="#231F20" fill-opacity="0" width="141" height="255.053"/>
<path id="PRIMARY_17_" fill="#00BC03" stroke="#231F20" stroke-width="2.4735" stroke-miterlimit="10" d="M344.796,453.825
	c0,22.361-17.475,40.486-39.03,40.486l0,0c-21.558,0-39.032-18.125-39.032-40.486V309.371c0-22.361,17.474-40.486,39.032-40.486l0,0
	c21.556,0,39.03,18.125,39.03,40.486V453.825z"/>
<circle fill="none" stroke="#231F20" stroke-width="2.4735" stroke-miterlimit="10" cx="305.763" cy="292.895" r="6.183"/>
<circle fill="none" stroke="#231F20" stroke-width="2.4735" stroke-miterlimit="10" cx="299.579" cy="473.45" r="6.183"/>
<path id="SECONDARY_64_" fill="#005601" d="M290.154,391.448c1.969,5.387,1.714,11.043-0.567,12.635
	c-2.283,1.597-5.733-1.476-7.705-6.854c-1.97-5.39-1.715-11.043,0.566-12.636C284.734,382.997,288.183,386.065,290.154,391.448z"/>
<path id="SECONDARY_63_" fill="#005601" d="M277.835,349.909c0.252,2.127-0.793,4.143-2.334,4.484
	c-1.544,0.35-2.996-1.097-3.248-3.228c-0.252-2.132,0.793-4.138,2.335-4.487C276.131,346.332,277.583,347.776,277.835,349.909z"/>
<path id="SECONDARY_62_" fill="#005601" d="M292.004,375.559c0.139,1.153-0.352,2.219-1.09,2.385
	c-0.737,0.168-1.442-0.631-1.582-1.784c-0.139-1.149,0.352-2.216,1.091-2.384C291.159,373.613,291.871,374.412,292.004,375.559z"/>
<path id="SECONDARY_61_" fill="#005601" d="M287.005,358.505c0.944,2.887,0.72,5.846-0.505,6.61
	c-1.225,0.772-2.983-0.955-3.928-3.837c-0.947-2.884-0.72-5.841,0.505-6.608C284.3,353.9,286.063,355.624,287.005,358.505z"/>
<path id="SECONDARY_60_" fill="#005601" d="M278.055,327.411c1.177-6.455,3.325-11.281,4.789-10.769
	c1.467,0.512,1.699,6.158,0.517,12.619c-1.185,6.45-3.329,11.278-4.794,10.769C277.108,339.508,276.875,333.861,278.055,327.411z"/>
<path id="SECONDARY_59_" fill="#005601" d="M277.696,372.979c0.366,3.125,1.3,5.516,2.081,5.343c0.779-0.178,1.112-2.856,0.744-5.98
	c-0.369-3.127-1.306-5.518-2.083-5.341C277.66,367.178,277.328,369.854,277.696,372.979z"/>
<path id="SECONDARY_58_" fill="#005601" d="M288.631,351.434c0.423,3.554,2.345,6.084,4.294,5.64
	c1.95-0.438,3.189-3.676,2.769-7.235c-0.422-3.557-2.343-6.08-4.293-5.641C289.449,344.637,288.209,347.88,288.631,351.434z"/>
</svg>
