<?xml version="1.0" encoding="utf-8"?>
<!-- Generator: Adobe Illustrator 16.0.0, SVG Export Plug-In . SVG Version: 6.00 Build 0)  -->
<svg version="1.1" id="Layer_1" xmlns="http://www.w3.org/2000/svg" xmlns:xlink="http://www.w3.org/1999/xlink" x="0px" y="0px"
	 width="612px" height="792px" viewBox="0 0 612 792" enable-background="new 0 0 612 792" xml:space="preserve">
<rect x="278.5" y="342.156" fill-opacity="0" fill="#231F20" width="57" height="108.807"/>
<path id="PRIMARY_18_" fill="#00BC03" stroke="#231F20" stroke-miterlimit="10" d="M322.279,428.171
	c0,10.4-7.064,18.83-15.779,18.83l0,0c-8.714,0-15.779-8.43-15.779-18.83v-67.186c0-10.4,7.064-18.83,15.779-18.83l0,0
	c8.714,0,15.779,8.43,15.779,18.83V428.171z"/>
<path id="SECONDARY_57_" fill="#005601" d="M303.337,415.478c0.979,3.299,0.854,6.764-0.281,7.739c-1.135,0.978-2.85-0.903-3.83-4.2
	c-0.979-3.299-0.853-6.762,0.281-7.738C300.643,410.302,302.357,412.183,303.337,415.478z"/>
<path id="SECONDARY_56_" fill="#005601" d="M297.213,390.038c0.125,1.305-0.396,2.537-1.162,2.748
	c-0.767,0.214-1.489-0.672-1.614-1.977s0.395-2.533,1.161-2.747C296.366,387.849,297.088,388.733,297.213,390.038z"/>
<path id="SECONDARY_55_" fill="#005601" d="M304.257,405.748c0.068,0.704-0.174,1.358-0.542,1.46
	c-0.366,0.102-0.718-0.387-0.786-1.092c-0.068-0.704,0.174-1.355,0.543-1.459C303.837,404.556,304.191,405.044,304.257,405.748z"/>
<path id="SECONDARY_54_" fill="#005601" d="M301.771,395.304c0.471,1.767,0.357,3.579-0.25,4.047
	c-0.609,0.471-1.484-0.584-1.953-2.35c-0.471-1.766-0.357-3.578,0.25-4.047C300.427,392.485,301.302,393.537,301.771,395.304z"/>
<path id="SECONDARY_53_" fill="#005601" d="M297.324,376.259c0.585-3.953,1.652-6.907,2.381-6.594
	c0.729,0.313,0.844,3.772,0.256,7.728c-0.588,3.953-1.654,6.907-2.383,6.594C296.851,383.671,296.736,380.212,297.324,376.259z"/>
<path id="SECONDARY_52_" fill="#005601" d="M297.144,404.167c0.182,1.914,0.646,3.379,1.034,3.271
	c0.388-0.108,0.554-1.748,0.37-3.661s-0.648-3.378-1.035-3.271C297.125,400.614,296.96,402.253,297.144,404.167z"/>
<path id="SECONDARY_51_" fill="#005601" d="M302.58,390.973c0.211,2.178,1.165,3.726,2.135,3.456
	c0.969-0.27,1.586-2.254,1.377-4.431c-0.209-2.179-1.164-3.725-2.134-3.456C302.988,386.812,302.371,388.796,302.58,390.973z"/>
</svg>
