<?xml version="1.0" encoding="utf-8"?>
<!-- Generator: Adobe Illustrator 16.0.0, SVG Export Plug-In . SVG Version: 6.00 Build 0)  -->
<svg version="1.1" id="Layer_1" xmlns="http://www.w3.org/2000/svg" xmlns:xlink="http://www.w3.org/1999/xlink" x="0px" y="0px"
	 width="612px" height="792px" viewBox="0 0 612 792" enable-background="new 0 0 612 792" xml:space="preserve">
<rect x="278.5" y="344.963" fill-opacity="0" fill="#231F20" width="57" height="103.121"/>
<path id="PRIMARY_17_" fill="#00BC03" stroke="#231F20" stroke-miterlimit="10" d="M322.279,419.672
	c0,9.041-7.064,16.369-15.778,16.369l0,0c-8.715,0-15.779-7.328-15.779-16.369v-58.405c0-9.041,7.064-16.369,15.779-16.369l0,0
	c8.714,0,15.778,7.328,15.778,16.369V419.672z"/>
<circle fill="none" stroke="#231F20" stroke-miterlimit="10" cx="306.5" cy="354.606" r="2.5"/>
<circle fill="none" stroke="#231F20" stroke-miterlimit="10" cx="304" cy="427.606" r="2.5"/>
<path id="SECONDARY_64_" fill="#005601" d="M300.19,394.452c0.796,2.178,0.693,4.465-0.229,5.109
	c-0.923,0.645-2.318-0.597-3.115-2.772c-0.796-2.179-0.693-4.465,0.229-5.109C297.999,391.035,299.393,392.276,300.19,394.452z"/>
<path id="SECONDARY_63_" fill="#005601" d="M295.21,377.657c0.102,0.86-0.321,1.675-0.944,1.813
	c-0.624,0.142-1.211-0.443-1.313-1.305c-0.102-0.862,0.321-1.673,0.944-1.814C294.521,376.211,295.108,376.795,295.21,377.657z"/>
<path id="SECONDARY_62_" fill="#005601" d="M300.938,388.028c0.056,0.466-0.142,0.897-0.441,0.964
	c-0.298,0.068-0.583-0.255-0.639-0.721c-0.056-0.465,0.142-0.896,0.441-0.964C300.596,387.241,300.884,387.564,300.938,388.028z"/>
<path id="SECONDARY_61_" fill="#005601" d="M298.917,381.133c0.382,1.167,0.291,2.363-0.204,2.672
	c-0.495,0.312-1.206-0.386-1.588-1.551c-0.383-1.166-0.291-2.362,0.204-2.672C297.823,379.271,298.536,379.968,298.917,381.133z"/>
<path id="SECONDARY_60_" fill="#005601" d="M295.299,368.561c0.476-2.61,1.344-4.561,1.936-4.354
	c0.593,0.207,0.687,2.49,0.209,5.102c-0.479,2.608-1.346,4.56-1.938,4.354C294.916,373.452,294.822,371.169,295.299,368.561z"/>
<path id="SECONDARY_59_" fill="#005601" d="M295.154,386.985c0.148,1.263,0.525,2.23,0.841,2.16c0.315-0.072,0.45-1.155,0.301-2.418
	c-0.149-1.264-0.528-2.231-0.842-2.159C295.139,384.639,295.005,385.721,295.154,386.985z"/>
<path id="SECONDARY_58_" fill="#005601" d="M299.574,378.274c0.171,1.437,0.948,2.46,1.736,2.28
	c0.788-0.177,1.289-1.486,1.119-2.925c-0.17-1.438-0.947-2.458-1.735-2.281C299.905,375.526,299.404,376.837,299.574,378.274z"/>
</svg>
