<?xml version="1.0" encoding="utf-8"?>
<!-- Generator: Adobe Illustrator 16.0.0, SVG Export Plug-In . SVG Version: 6.00 Build 0)  -->
<svg version="1.1" id="Layer_1" xmlns="http://www.w3.org/2000/svg" xmlns:xlink="http://www.w3.org/1999/xlink" x="0px" y="0px"
	 width="612px" height="792px" viewBox="0 0 612 792" enable-background="new 0 0 612 792" xml:space="preserve">
<rect x="240.5" y="268.944" fill="#231F20" fill-opacity="0" width="133" height="255.232"/>
<path id="PRIMARY_18_" fill="#00BC03" stroke="#231F20" stroke-width="2.3395" stroke-miterlimit="10" d="M342.651,470.713
	c0,24.396-16.483,44.171-36.818,44.171l0,0c-20.333,0-36.817-19.774-36.817-44.171V313.111c0-24.396,16.482-44.17,36.817-44.17l0,0
	c20.333,0,36.818,19.775,36.818,44.17V470.713z"/>
<path id="SECONDARY_57_" fill="#005601" d="M298.453,440.938c2.285,7.74,1.993,15.868-0.655,18.154
	c-2.649,2.295-6.65-2.117-8.937-9.853c-2.284-7.738-1.99-15.861,0.655-18.15C292.167,428.796,296.166,433.208,298.453,440.938z"/>
<path id="SECONDARY_56_" fill="#005601" d="M284.164,381.263c0.292,3.061-0.924,5.952-2.712,6.446
	c-1.789,0.502-3.474-1.577-3.765-4.638c-0.292-3.062,0.921-5.942,2.709-6.444C282.188,376.128,283.872,378.201,284.164,381.263z"/>
<path id="SECONDARY_55_" fill="#005601" d="M300.599,418.114c0.16,1.651-0.405,3.187-1.265,3.425
	c-0.853,0.238-1.675-0.907-1.833-2.561c-0.16-1.652,0.406-3.18,1.267-3.423C299.62,415.317,300.445,416.463,300.599,418.114z"/>
<path id="SECONDARY_54_" fill="#005601" d="M294.799,393.616c1.1,4.145,0.833,8.395-0.583,9.492
	c-1.421,1.106-3.462-1.37-4.558-5.512c-1.098-4.143-0.833-8.393,0.583-9.493C291.663,387.002,293.704,389.471,294.799,393.616z"/>
<path id="SECONDARY_53_" fill="#005601" d="M284.423,348.94c1.365-9.272,3.854-16.201,5.555-15.467
	c1.701,0.734,1.969,8.848,0.597,18.128c-1.372,9.273-3.859,16.202-5.56,15.467C283.319,366.327,283.05,358.213,284.423,348.94z"/>
<path id="SECONDARY_52_" fill="#005601" d="M284.003,414.405c0.425,4.49,1.507,7.927,2.413,7.672
	c0.904-0.252,1.292-4.098,0.862-8.586c-0.428-4.487-1.512-7.923-2.414-7.674C283.958,406.072,283.573,409.916,284.003,414.405z"/>
<path id="SECONDARY_51_" fill="#005601" d="M296.687,383.456c0.492,5.108,2.718,8.741,4.981,8.107
	c2.262-0.634,3.701-5.289,3.213-10.395c-0.488-5.112-2.715-8.738-4.979-8.107C297.638,373.695,296.199,378.349,296.687,383.456z"/>
</svg>
