<?xml version="1.0" encoding="utf-8"?>
<!-- Generator: Adobe Illustrator 16.0.0, SVG Export Plug-In . SVG Version: 6.00 Build 0)  -->
<svg version="1.1" id="Layer_1" xmlns="http://www.w3.org/2000/svg" xmlns:xlink="http://www.w3.org/1999/xlink" x="0px" y="0px"
	 width="612px" height="792px" viewBox="0 0 612 792" enable-background="new 0 0 612 792" xml:space="preserve">
<rect id="head_frame" x="179" y="285.334" fill-opacity="0" fill="#BBBCBE" width="256" height="222"/>
<path id="PRIMARY" fill="#7CD5FF" stroke="#231F20" stroke-width="1.695" stroke-miterlimit="10" d="M381.361,461.506
	c-6.323,0.151-8.318,4.617-1.593,9.158c-8.242,0.625-9.356,2.78-3.288,15.774c-8.921-9.401-10.656-7.964-9.659,8.891
	c-5-14.557-7.267-13.696-9.745-4.767c-2.495-7.648-5.198-7.226-6.791,2.218c-4.168-8.9-7.223-8.779-11.587,0.324
	c-1.996-9.02-5.306-9.056-10.389,4.009c-1.7-13.164-2.709-8.955-7.981-1.715c1.762-7.24-2.419-11.509-4.395-1.608
	c-3.16-9.9-6.586-9.9-9.664,3.455c-3.773-13.355-7.195-13.355-10.647-2.512c-1.686-10.844-3.399-10.844-5.724,0.19
	c-1.688-11.034-5.531-10.958-10.699-0.507c-2.116-10.349-5.555-10.325-10.667-1.889c-1.292-8.648-5.368-2.548-7.755,0.752
	c-3.003-4.243-4.323-11.288-7.225-1.489c-1.344-11.89-3.163-13.271-9.907-0.223c3.778-16.701,2.632-18.969-7.617-14.6
	c8.7-9.995,8.57-7.86,1.013-16.311c13.239,7.774,4.851-3.971,2.755-6.99c5.681,3.617,4.701-2.135,3.567-8.998
	c1.133-0.746,0.959-6.185,0.959-10.749c0-18.261,0-39.565,0-39.565c0-28.077,22.771-50.839,50.861-50.839h27.398
	c28.09,0,50.861,22.762,50.861,50.839c0,0,0,21.305,0,39.565c0,4.564,0,8.94,0.023,12.674c-0.023,3.876,2.029,9.87,5.137,8.556
	C375.498,461.028,376.765,461.776,381.361,461.506z"/>
<path id="SECONDARY" fill="#FFC18C" stroke="#231F20" stroke-width="1.695" stroke-miterlimit="10" d="M306.346,352.918
	c2.178-1.266,9.546-5.645,11.664-8.148l8.287-7.934c2.496-2.947,1.763-6.649,2.946-11.578l0,0
	c4.853,4.1,12.063,12.809,12.871,27.296l-8.207,9.066c-2.336,2.76-16.841,11.428-22.669,9.178"/>
<path fill="#231F20" stroke="#231F20" stroke-width="1.695" stroke-miterlimit="10" d="M336.383,463.536l-9.1-2.475
	c-0.002-0.072-0.002-0.144-0.002-0.217c0-1.78,0.164-17.133-1.729-17.133h-0.736H290.33h-0.737c-1.893,0-1.729,15.353-1.729,17.133
	c0,0.073,0,0.145-0.001,0.217l-9.1,2.475c-3.127,1.713,9.676,0.748,11.566,0.748h34.487
	C326.707,464.284,339.51,465.249,336.383,463.536z"/>
<path id="SECONDARY_1_" fill="#FFC18C" stroke="#231F20" stroke-width="1.695" stroke-miterlimit="10" d="M278.288,464.18
	c0.528-0.586,1.199-1.889,1.945-3.103l0.939-3.888c0.154-1.056,1.793-3.457,2.51-5.365l0,0c3.273,0.473,3.207,2.598,3.568,6.335
	l-0.232,2.797c-0.144,0.989-0.285,1.982,0.103,3.384"/>
<path id="SECONDARY_2_" fill="#FFC18C" stroke="#231F20" stroke-width="1.695" stroke-miterlimit="10" d="M327.91,464.18
	c0.528-0.586,1.199-1.889,1.945-3.103l0.939-3.888c0.153-1.056,1.793-3.457,2.51-5.365l0,0c3.273,0.473,3.207,2.598,3.568,6.335
	l-0.232,2.797c-0.144,0.989-0.285,1.982,0.103,3.384"/>
<path id="SECONDARY_3_" fill="#FFC18C" stroke="#231F20" stroke-width="1.695" stroke-miterlimit="10" d="M291.546,443.712
	c0.275,0.313,0.53,0.958,0.851,1.568l0.013,1.813c-0.063,0.482,0.679,1.71,0.873,2.625l0,0c2.354,0.129,2.649-0.814,3.508-2.424
	l0.296-1.258c0.063-0.452,0.634-1.746,1.137-2.325"/>
<path id="SECONDARY_4_" fill="#FFC18C" stroke="#231F20" stroke-width="1.695" stroke-miterlimit="10" d="M299.942,443.712
	c0.273,0.311,0.533,0.956,0.85,1.568l0.015,1.813c-0.06,0.481,0.682,1.709,0.877,2.624l0,0c2.348,0.131,2.647-0.815,3.503-2.424
	l0.303-1.258c0.053-0.453,0.631-1.748,1.127-2.323"/>
<path id="SECONDARY_5_" fill="#FFC18C" stroke="#231F20" stroke-width="1.695" stroke-miterlimit="10" d="M308.336,443.712
	c0.275,0.313,0.526,0.958,0.845,1.568l0.021,1.813c-0.064,0.482,0.676,1.71,0.871,2.625l0,0c2.354,0.129,2.652-0.814,3.505-2.424
	l0.3-1.258c0.061-0.452,0.634-1.746,1.136-2.325"/>
<path id="SECONDARY_6_" fill="#FFC18C" stroke="#231F20" stroke-width="1.695" stroke-miterlimit="10" d="M316.731,443.712
	c0.273,0.311,0.532,0.956,0.852,1.568l0.013,1.813c-0.058,0.481,0.683,1.709,0.878,2.624l0,0c2.351,0.131,2.643-0.815,3.507-2.424
	l0.296-1.258c0.058-0.453,0.634-1.748,1.131-2.323"/>
<path id="SECONDARY_10_" fill="#FFC18C" stroke="#231F20" stroke-width="1.695" stroke-miterlimit="10" d="M287.647,464.282
	c0.253-0.279,0.485-0.858,0.778-1.406l0.014-1.626c-0.057-0.434,0.619-1.533,0.796-2.354l0,0c2.15-0.117,2.422,0.729,3.207,2.175
	l0.273,1.127c0.055,0.407,0.576,1.567,1.036,2.085"/>
<path id="SECONDARY_9_" fill="#FFC18C" stroke="#231F20" stroke-width="1.695" stroke-miterlimit="10" d="M296.229,464.284
	c0.249-0.28,0.488-0.859,0.775-1.408l0.013-1.626c-0.056-0.432,0.624-1.532,0.803-2.353l0,0c2.144-0.116,2.417,0.731,3.201,2.175
	l0.276,1.127c0.051,0.405,0.58,1.566,1.033,2.085"/>
<path id="SECONDARY_8_" fill="#FFC18C" stroke="#231F20" stroke-width="1.695" stroke-miterlimit="10" d="M304.474,464.284
	c0.253-0.28,0.481-0.859,0.775-1.407l0.016-1.627c-0.056-0.43,0.62-1.532,0.797-2.353l0,0c2.152-0.116,2.425,0.731,3.202,2.175
	l0.276,1.128c0.055,0.404,0.579,1.565,1.036,2.084"/>
<path id="SECONDARY_7_" fill="#FFC18C" stroke="#231F20" stroke-width="1.695" stroke-miterlimit="10" d="M312.652,464.284
	c0.252-0.28,0.488-0.859,0.778-1.408l0.015-1.626c-0.057-0.432,0.623-1.532,0.802-2.353l0,0c2.147-0.116,2.413,0.731,3.203,2.175
	l0.271,1.127c0.052,0.405,0.58,1.566,1.033,2.085"/>
<path id="SECONDARY_11_" fill="#FFC18C" stroke="#231F20" stroke-width="1.695" stroke-miterlimit="10" d="M321.179,464.284
	c0.252-0.28,0.485-0.859,0.775-1.408l0.011-1.626c-0.056-0.432,0.623-1.532,0.8-2.353l0,0c2.151-0.116,2.421,0.731,3.207,2.175
	l0.271,1.127c0.058,0.405,0.581,1.566,1.039,2.085"/>
<ellipse fill="#FFFFFF" stroke="#231F20" stroke-width="1.695" stroke-miterlimit="10" cx="287.647" cy="403.712" rx="11.623" ry="13.875"/>
<path fill="#231F20" stroke="#231F20" stroke-width="1.695" stroke-miterlimit="10" d="M294.257,403.748
	c0,1.92-1.303,3.476-2.914,3.476c-1.609,0-2.912-1.556-2.912-3.476c0-1.923,1.303-3.479,2.912-3.479
	C292.954,400.27,294.257,401.825,294.257,403.748z"/>
<path id="SECONDARY_13_" fill="#FFC18C" stroke="#231F20" stroke-width="1.695" stroke-miterlimit="10" d="M302.219,387.364
	c-0.699,1.849-3.326,2.568-5.869,1.605l-18.395-6.968c-2.543-0.963-4.033-3.24-3.329-5.09l0,0c0.7-1.847,3.326-2.567,5.867-1.604
	l18.397,6.967C301.432,383.237,302.92,385.516,302.219,387.364L302.219,387.364z"/>
<ellipse fill="#FFFFFF" stroke="#231F20" stroke-width="1.695" stroke-miterlimit="10" cx="328.264" cy="403.712" rx="11.624" ry="13.875"/>
<path fill="#231F20" stroke="#231F20" stroke-width="1.695" stroke-miterlimit="10" d="M334.874,403.748
	c0,1.92-1.303,3.476-2.914,3.476c-1.609,0-2.912-1.556-2.912-3.476c0-1.923,1.303-3.479,2.912-3.479
	C333.571,400.27,334.874,401.825,334.874,403.748z"/>
<path id="SECONDARY_12_" fill="#FFC18C" stroke="#231F20" stroke-width="1.695" stroke-miterlimit="10" d="M313.485,387.363
	c0.698,1.849,3.326,2.568,5.869,1.607l18.394-6.969c2.543-0.963,4.033-3.241,3.33-5.091l0,0c-0.7-1.847-3.326-2.567-5.868-1.604
	l-18.397,6.967C314.271,383.236,312.783,385.515,313.485,387.363L313.485,387.363z"/>
</svg>
