<?xml version="1.0" encoding="utf-8"?>
<!-- Generator: Adobe Illustrator 16.0.0, SVG Export Plug-In . SVG Version: 6.00 Build 0)  -->
<svg version="1.1" id="Layer_1" xmlns="http://www.w3.org/2000/svg" xmlns:xlink="http://www.w3.org/1999/xlink" x="0px" y="0px"
	 width="612px" height="792px" viewBox="0 0 612 792" enable-background="new 0 0 612 792" xml:space="preserve">
<rect id="head_frame" x="178" y="285.821" fill-opacity="0" fill="#BBBCBE" width="256" height="220.968"/>
<path id="PRIMARY_5_" fill="#7CD5FF" stroke="#231F20" stroke-width="1.6911" stroke-miterlimit="10" d="M346.519,506.789
	c0,0-61.014,0-77.653,0c-0.875,0-1.629,0-2.24,0.013c-0.618-0.013-1.095-0.013-1.409,0.117c-0.331-0.13-0.5-0.13-0.5,0.011
	c0-0.141,0-0.424,0-0.146c0-1.324,0-2.084-0.215-0.025c0.215-3.974,0.215-5.126-2.271-0.45c2.487-7.287,2.487-8.745-4.805-5.765
	c7.292-6.113,7.292-7.786,3.242-11.059c4.05-0.211,4.05-2.016,3.765-4.491c0.285-1.179,0.285-3.026,0.285-4.854
	c0-10.964,0-21.144,0-21.144h81.802c0,0,0,10.18,0,21.144c0,1.828,0,3.676,0.369,4.905c-0.369,2.425-0.369,4.229,5.098,4.306
	c-5.467,3.407-5.467,5.08-0.335,14.291c-5.132-6.078-5.132-4.62-4.996,2.186c-0.136-4.194-0.136-3.042-0.136,0.009
	c0-1.136,0-0.376,0,0.237C346.519,506.506,346.519,506.789,346.519,506.789z"/>
<ellipse fill="none" stroke="#231F20" stroke-width="1.6911" stroke-miterlimit="10" cx="306" cy="471.646" rx="4.238" ry="4.217"/>
<line fill="none" stroke="#231F20" stroke-width="1.6911" stroke-miterlimit="10" x1="306" y1="475.863" x2="306" y2="487.529"/>
</svg>
