<?xml version="1.0" encoding="utf-8"?>
<!-- Generator: Adobe Illustrator 16.0.0, SVG Export Plug-In . SVG Version: 6.00 Build 0)  -->
<svg version="1.1" id="Layer_1" xmlns="http://www.w3.org/2000/svg" xmlns:xlink="http://www.w3.org/1999/xlink" x="0px" y="0px"
	 width="612px" height="792px" viewBox="0 0 612 792" enable-background="new 0 0 612 792" xml:space="preserve">
<rect id="head_frame" x="230.5" y="330.833" fill="#BBBCBE" fill-opacity="0" width="151" height="131"/>
<path id="PRIMARY_5_" fill="#7CD5FF" stroke="#231F20" stroke-miterlimit="10" d="M329.899,461.834c0,0-35.988,0-45.803,0
	c-0.517,0-0.961,0-1.321,0.008c-0.364-0.008-0.646-0.008-0.831,0.069c-0.195-0.077-0.295-0.077-0.295,0.007c0-0.084,0-0.252,0-0.086
	c0-0.785,0-1.236-0.127-0.016c0.127-2.355,0.127-3.039-1.34-0.268c1.467-4.32,1.467-5.185-2.834-3.418
	c4.301-3.624,4.301-4.616,1.912-6.556c2.389-0.125,2.389-1.195,2.221-2.663c0.168-0.698,0.168-1.794,0.168-2.878
	c0-6.5,0-12.535,0-12.535h48.25c0,0,0,6.035,0,12.535c0,1.084,0,2.18,0.219,2.908c-0.219,1.438-0.219,2.508,3.007,2.553
	c-3.226,2.02-3.226,3.012-0.197,8.473c-3.026-3.604-3.026-2.739-2.947,1.295c-0.079-2.485-0.079-1.803-0.079,0.007
	c0-0.675,0-0.224,0,0.141C329.899,461.666,329.899,461.834,329.899,461.834z"/>
<circle fill="none" stroke="#231F20" stroke-miterlimit="10" cx="306" cy="441" r="2.5"/>
</svg>
