<?xml version="1.0" encoding="utf-8"?>
<!-- Generator: Adobe Illustrator 16.0.0, SVG Export Plug-In . SVG Version: 6.00 Build 0)  -->
<svg version="1.1" id="Layer_1" xmlns="http://www.w3.org/2000/svg" xmlns:xlink="http://www.w3.org/1999/xlink" x="0px" y="0px"
	 width="612px" height="792px" viewBox="0 0 612 792" enable-background="new 0 0 612 792" xml:space="preserve">
<rect id="head_frame" x="231.5" y="330.833" fill-opacity="0" fill="#BBBCBE" width="151" height="131"/>
<path class="primary_color" id="PRIMARY" fill="#7CD5FF" stroke="#231F20" stroke-miterlimit="10" d="M350.861,434.791
	c-3.729,0.09-4.906,2.725-0.939,5.404c-4.861,0.369-5.519,1.641-1.939,9.309c-5.262-5.548-6.285-4.699-5.697,5.246
	c-2.949-8.59-4.286-8.082-5.748-2.813c-1.472-4.514-3.066-4.264-4.006,1.309c-2.458-5.252-4.26-5.181-6.834,0.191
	c-1.178-5.322-3.13-5.344-6.128,2.365c-1.003-7.768-1.598-5.284-4.708-1.012c1.039-4.272-1.427-6.791-2.592-0.949
	c-1.864-5.842-3.885-5.842-5.7,2.039c-2.226-7.881-4.244-7.881-6.28-1.482c-0.994-6.398-2.005-6.398-3.376,0.112
	c-0.996-6.511-3.263-6.466-6.311-0.299c-1.248-6.106-3.276-6.093-6.292-1.114c-0.762-5.104-3.166-1.504-4.574,0.443
	c-1.771-2.504-2.55-6.661-4.262-0.879c-0.792-7.016-1.866-7.831-5.843-0.131c2.229-9.855,1.552-11.193-4.493-8.615
	c5.131-5.898,5.055-4.639,0.598-9.625c7.809,4.588,2.861-2.343,1.625-4.125c3.351,2.135,2.772-1.26,2.104-5.31
	c0.668-0.44,0.566-3.649,0.566-6.343c0-10.775,0-23.347,0-23.347c0-16.568,13.432-30,30-30h16.161c16.568,0,30,13.432,30,30
	c0,0,0,12.572,0,23.347c0,2.693,0,5.275,0.014,7.479c-0.014,2.287,1.197,5.824,3.03,5.049
	C347.403,434.51,348.15,434.951,350.861,434.791z"/>
<path class="secondary_color" id="SECONDARY" fill="#FFC18C" stroke="#231F20" stroke-miterlimit="10" d="M306.614,370.714
	c1.285-0.747,5.631-3.331,6.88-4.808l4.888-4.682c1.473-1.739,1.04-3.924,1.738-6.832l0,0c2.862,2.419,7.115,7.559,7.592,16.107
	l-4.841,5.35c-1.378,1.628-9.934,6.744-13.371,5.416"/>
<path fill="#231F20" stroke="#231F20" stroke-miterlimit="10" d="M324.331,435.989l-5.367-1.46
	c-0.001-0.043-0.001-0.085-0.001-0.128c0-1.051,0.097-10.11-1.02-10.11h-0.435h-20.342h-0.435c-1.116,0-1.02,9.06-1.02,10.11
	c0,0.043,0,0.085-0.001,0.128l-5.367,1.46c-1.845,1.011,5.707,0.441,6.822,0.441h20.342
	C318.624,436.431,326.176,437,324.331,435.989z"/>
<path class="secondary_color" id="SECONDARY_1_" fill="#FFC18C" stroke="#231F20" stroke-miterlimit="10" d="M290.064,436.369
	c0.312-0.346,0.707-1.114,1.147-1.831l0.554-2.294c0.091-0.623,1.058-2.04,1.48-3.166l0,0c1.931,0.279,1.892,1.533,2.104,3.738
	l-0.137,1.65c-0.085,0.584-0.168,1.17,0.061,1.997"/>
<path class="secondary_color" id="SECONDARY_2_" fill="#FFC18C" stroke="#231F20" stroke-miterlimit="10" d="M319.334,436.369
	c0.312-0.346,0.707-1.114,1.147-1.831l0.554-2.294c0.091-0.623,1.058-2.04,1.48-3.166l0,0c1.931,0.279,1.892,1.533,2.104,3.738
	l-0.137,1.65c-0.085,0.584-0.168,1.17,0.061,1.997"/>
<path class="secondary_color" id="SECONDARY_3_" fill="#FFC18C" stroke="#231F20" stroke-miterlimit="10" d="M297.885,424.291
	c0.162,0.185,0.313,0.565,0.502,0.926l0.008,1.07c-0.037,0.284,0.4,1.009,0.515,1.549l0,0c1.389,0.076,1.563-0.48,2.069-1.431
	l0.175-0.742c0.037-0.267,0.374-1.03,0.671-1.372"/>
<path class="secondary_color" id="SECONDARY_4_" fill="#FFC18C" stroke="#231F20" stroke-miterlimit="10" d="M302.837,424.291
	c0.161,0.184,0.314,0.564,0.501,0.926l0.009,1.069c-0.035,0.284,0.402,1.009,0.518,1.549l0,0c1.385,0.077,1.562-0.481,2.066-1.431
	l0.179-0.742c0.031-0.268,0.372-1.031,0.665-1.371"/>
<path class="secondary_color" id="SECONDARY_5_" fill="#FFC18C" stroke="#231F20" stroke-miterlimit="10" d="M307.788,424.291
	c0.162,0.185,0.311,0.565,0.498,0.926l0.013,1.07c-0.038,0.284,0.398,1.009,0.514,1.549l0,0c1.389,0.076,1.564-0.48,2.067-1.431
	l0.177-0.742c0.036-0.267,0.374-1.03,0.67-1.372"/>
<path class="secondary_color" id="SECONDARY_6_" fill="#FFC18C" stroke="#231F20" stroke-miterlimit="10" d="M312.74,424.291
	c0.161,0.184,0.313,0.564,0.502,0.926l0.008,1.069c-0.034,0.284,0.402,1.009,0.518,1.549l0,0c1.387,0.077,1.559-0.481,2.068-1.431
	l0.175-0.742c0.034-0.268,0.374-1.031,0.667-1.371"/>
<path class="secondary_color" id="SECONDARY_10_" fill="#FFC18C" stroke="#231F20" stroke-miterlimit="10" d="M295.585,436.43
	c0.149-0.165,0.286-0.507,0.459-0.83l0.008-0.959c-0.033-0.256,0.365-0.905,0.47-1.39l0,0c1.269-0.069,1.429,0.431,1.892,1.283
	l0.161,0.665c0.032,0.24,0.34,0.925,0.611,1.23"/>
<path class="secondary_color" id="SECONDARY_9_" fill="#FFC18C" stroke="#231F20" stroke-miterlimit="10" d="M300.646,436.431
	c0.146-0.165,0.288-0.507,0.457-0.831l0.008-0.959c-0.033-0.255,0.368-0.904,0.474-1.389l0,0c1.265-0.068,1.426,0.432,1.888,1.283
	l0.163,0.665c0.03,0.239,0.342,0.925,0.609,1.23"/>
<path class="secondary_color" id="SECONDARY_8_" fill="#FFC18C" stroke="#231F20" stroke-miterlimit="10" d="M305.51,436.431
	c0.149-0.165,0.284-0.507,0.457-0.83l0.01-0.96c-0.033-0.254,0.365-0.904,0.47-1.389l0,0c1.27-0.068,1.431,0.432,1.889,1.283
	l0.163,0.666c0.032,0.238,0.342,0.924,0.611,1.229"/>
<path class="secondary_color" id="SECONDARY_7_" fill="#FFC18C" stroke="#231F20" stroke-miterlimit="10" d="M310.334,436.431
	c0.148-0.165,0.288-0.507,0.459-0.831l0.009-0.959c-0.033-0.255,0.367-0.904,0.473-1.389l0,0c1.267-0.068,1.424,0.432,1.89,1.283
	l0.16,0.665c0.03,0.239,0.342,0.925,0.609,1.23"/>
<path class="secondary_color" id="SECONDARY_11_" fill="#FFC18C" stroke="#231F20" stroke-miterlimit="10" d="M315.363,436.431
	c0.148-0.165,0.286-0.507,0.457-0.831l0.007-0.959c-0.033-0.255,0.367-0.904,0.472-1.389l0,0c1.269-0.068,1.428,0.432,1.892,1.283
	l0.159,0.665c0.034,0.239,0.343,0.925,0.613,1.23"/>
<ellipse fill="#FFFFFF" stroke="#231F20" stroke-miterlimit="10" cx="295.584" cy="400.688" rx="6.856" ry="8.188"/>
<ellipse fill="#231F20" stroke="#231F20" stroke-miterlimit="10" cx="297.765" cy="400.709" rx="1.718" ry="2.051"/>
<path class="secondary_color" id="SECONDARY_13_" fill="#FFC18C" stroke="#231F20" stroke-miterlimit="10" d="M304.18,391.041
	c-0.412,1.091-1.962,1.516-3.462,0.947l-10.85-4.112c-1.5-0.568-2.379-1.912-1.964-3.004l0,0c0.413-1.09,1.962-1.515,3.461-0.946
	l10.852,4.111C303.716,388.605,304.594,389.95,304.18,391.041L304.18,391.041z"/>
<ellipse fill="#FFFFFF" stroke="#231F20" stroke-miterlimit="10" cx="319.542" cy="400.688" rx="6.856" ry="8.188"/>
<ellipse fill="#231F20" stroke="#231F20" stroke-miterlimit="10" cx="321.723" cy="400.709" rx="1.718" ry="2.051"/>
<path class="secondary_color" id="SECONDARY_12_" fill="#FFC18C" stroke="#231F20" stroke-miterlimit="10" d="M310.825,391.04
	c0.412,1.091,1.962,1.516,3.462,0.948l10.85-4.112c1.5-0.568,2.379-1.912,1.964-3.004l0,0c-0.413-1.09-1.962-1.515-3.461-0.946
	l-10.852,4.111C311.289,388.605,310.411,389.95,310.825,391.04L310.825,391.04z"/>
</svg>
