<?xml version="1.0" encoding="utf-8"?>
<!-- Generator: Adobe Illustrator 16.0.0, SVG Export Plug-In . SVG Version: 6.00 Build 0)  -->
<svg version="1.1" id="Layer_1" xmlns="http://www.w3.org/2000/svg" xmlns:xlink="http://www.w3.org/1999/xlink" x="0px" y="0px"
	 width="612px" height="792px" viewBox="0 0 612 792" enable-background="new 0 0 612 792" xml:space="preserve">
<rect x="201.818" y="286.766" fill-opacity="0" fill="#231F20" width="256" height="172"/>
<path id="SECONDARY_4_" fill="#F1F1F1" stroke="#231F20" stroke-width="3.1586" stroke-miterlimit="10" d="M389.25,338.886
	c0.004,0.28,0.047,0.552,0.047,0.832c0,11.438-4.188,21.983-11.213,30.584l3.142,6.063c7.223-7.04,12.26-15.671,14.393-25.184
	L389.25,338.886z"/>
<path id="SECONDARY_3_" fill="#F1F1F1" stroke="#231F20" stroke-width="3.1586" stroke-miterlimit="10" d="M330.531,391.914
	c-6.166,0-12.107-0.854-17.691-2.417l-0.112,8.194c6.378,1.594,13.128,2.521,20.174,2.521c1.404,0,2.781-0.096,4.161-0.166
	l0.117-8.487C334.994,391.775,332.781,391.914,330.531,391.914z"/>
<path id="SECONDARY_2_" fill="#F1F1F1" stroke="#231F20" stroke-width="3.1586" stroke-miterlimit="10" d="M282.985,370.302
	l-3.072,9.849c5.687,6.107,12.866,11.043,20.988,14.545l2.689-8.626C295.402,382.306,288.361,376.883,282.985,370.302z"/>
<path id="SECONDARY_1_" fill="#F1F1F1" stroke="#231F20" stroke-width="3.1586" stroke-miterlimit="10" d="M295.933,297.586
	l-4.696-7.166c-7.242,4.646-13.267,10.689-17.504,17.73l4.789,7.306C282.716,308.373,288.704,302.278,295.933,297.586z"/>
<path id="SECONDARY" fill="#F1F1F1" stroke="#231F20" stroke-width="3.1586" stroke-miterlimit="10" d="M348.957,389.264l0.936,8.36
	c8.774-2.584,16.645-6.945,23.107-12.624l-0.935-8.354C365.658,382.333,357.76,386.68,348.957,389.264z"/>
</svg>
