<?xml version="1.0" encoding="utf-8"?>
<!-- Generator: Adobe Illustrator 16.0.0, SVG Export Plug-In . SVG Version: 6.00 Build 0)  -->
<svg version="1.1" id="Layer_1" xmlns="http://www.w3.org/2000/svg" xmlns:xlink="http://www.w3.org/1999/xlink" x="0px" y="0px"
	 width="612px" height="792px" viewBox="0 0 612 792" enable-background="new 0 0 612 792" xml:space="preserve">
<rect x="265.5" y="369.004" fill-opacity="0" fill="#231F20" width="81" height="54.487"/>
<path id="PRIMARY_4_" fill="#F1F1F1" stroke="#231F20" stroke-miterlimit="10" d="M287.195,385.515
	c-0.001,0.089-0.015,0.175-0.015,0.264c0,3.624,1.325,6.964,3.548,9.688l-0.994,1.921c-2.285-2.23-3.879-4.964-4.554-7.978
	L287.195,385.515z"/>
<path id="PRIMARY_3_" fill="#F1F1F1" stroke="#231F20" stroke-miterlimit="10" d="M305.774,402.313c1.951,0,3.831-0.271,5.598-0.766
	l0.035,2.596c-2.018,0.505-4.153,0.799-6.383,0.799c-0.444,0-0.88-0.03-1.316-0.053l-0.037-2.688
	C304.362,402.27,305.063,402.313,305.774,402.313z"/>
<path id="PRIMARY_2_" fill="#F1F1F1" stroke="#231F20" stroke-miterlimit="10" d="M320.818,395.467l0.972,3.12
	c-1.799,1.935-4.07,3.498-6.641,4.607l-0.851-2.732C316.89,399.27,319.117,397.552,320.818,395.467z"/>
<path id="PRIMARY_1_" fill="#F1F1F1" stroke="#231F20" stroke-miterlimit="10" d="M316.722,372.432l1.485-2.27
	c2.292,1.472,4.198,3.386,5.539,5.617l-1.516,2.314C320.903,375.849,319.009,373.918,316.722,372.432z"/>
<path id="PRIMARY" fill="#F1F1F1" stroke="#231F20" stroke-miterlimit="10" d="M299.944,401.474l-0.296,2.648
	c-2.776-0.818-5.267-2.2-7.312-3.999l0.296-2.646C294.66,399.278,297.159,400.655,299.944,401.474z"/>
</svg>
