<?xml version="1.0" encoding="utf-8"?>
<!-- Generator: Adobe Illustrator 16.0.0, SVG Export Plug-In . SVG Version: 6.00 Build 0)  -->
<svg version="1.1" id="Layer_1" xmlns="http://www.w3.org/2000/svg" xmlns:xlink="http://www.w3.org/1999/xlink" x="0px" y="0px"
	 width="612px" height="792px" viewBox="0 0 612 792" enable-background="new 0 0 612 792" xml:space="preserve">
<rect x="180.442" y="272.458" fill-opacity="0" fill="#231F20" width="253.609" height="248.592"/>
<path id="PRIMARY_6_" fill="#F1F1F1" stroke="#231F20" stroke-width="3.1547" stroke-miterlimit="10" d="M205.056,372.975
	l0.501-0.507c-3.648-4.059-1.113-12.937,5.708-19.898c6.861-7.007,15.453-9.421,19.199-5.394c3.495,3.761,1.511,11.819-4.366,18.58
	l89.299,96.132c6.602-5.981,14.338-7.844,17.832-4.079c3.743,4.026,1.208,12.967-5.65,19.976
	c-6.818,6.966-15.346,9.384-19.124,5.457l-0.503,0.509c3.648,4.061,1.113,12.936-5.707,19.898
	c-6.861,7.009-15.457,9.421-19.199,5.395c-3.195-3.445-1.801-10.47,2.954-16.814l-89.61-96.464
	c-6.176,4.813-12.912,6.085-16.107,2.646c-3.746-4.027-1.211-12.971,5.645-19.975C192.752,371.473,201.277,369.053,205.056,372.975z
	"/>
<ellipse id="SECONDARY" fill="#F1F1F1" stroke="#231F20" stroke-width="3.1547" stroke-miterlimit="10" cx="309.595" cy="489.338" rx="29.744" ry="30.197"/>
</svg>
