<?xml version="1.0" encoding="utf-8"?>
<!-- Generator: Adobe Illustrator 16.0.0, SVG Export Plug-In . SVG Version: 6.00 Build 0)  -->
<svg version="1.1" id="Layer_1" xmlns="http://www.w3.org/2000/svg" xmlns:xlink="http://www.w3.org/1999/xlink" x="0px" y="0px"
	 width="612px" height="792px" viewBox="0 0 612 792" enable-background="new 0 0 612 792" xml:space="preserve">
<rect x="265.5" y="369.004" fill-opacity="0" fill="#231F20" width="81" height="54.487"/>
<path id="PRIMARY_4_" fill="#F1F1F1" stroke="#231F20" stroke-miterlimit="10" d="M286.976,388.006l-5.333,10.308
	c-0.844,1.633,0.004,3.748,1.896,4.727c1.892,0.979,4.109,0.448,4.953-1.184l2.826-5.462
	C289.05,394.075,287.508,391.19,286.976,388.006z"/>
<path id="PRIMARY_3_" fill="#F1F1F1" stroke="#231F20" stroke-miterlimit="10" d="M292.316,397.353l-1.472,13.174
	c-0.204,1.824,1.347,3.497,3.461,3.733c2.117,0.238,3.998-1.052,4.202-2.878l1.127-10.086
	C296.851,400.497,294.354,399.134,292.316,397.353z"/>
<path id="PRIMARY_2_" fill="#F1F1F1" stroke="#231F20" stroke-miterlimit="10" d="M305.344,402.098c-0.593,0-1.178-0.03-1.757-0.079
	l0.128,9.401c0.024,1.837,1.77,3.304,3.898,3.277c2.131-0.028,3.836-1.542,3.811-3.38l-0.138-10.098
	C309.418,401.78,307.425,402.098,305.344,402.098z"/>
<path id="PRIMARY_1_" fill="#F1F1F1" stroke="#231F20" stroke-miterlimit="10" d="M319.744,396.019
	c-1.784,1.941-4.062,3.503-6.654,4.563l2.728,8.757c0.547,1.756,2.638,2.664,4.669,2.03c2.035-0.632,3.239-2.567,2.693-4.322
	L319.744,396.019z"/>
<path id="PRIMARY" fill="#F1F1F1" stroke="#231F20" stroke-miterlimit="10" d="M332.525,386.714l-9.039-4.739
	c0.288,1.156,0.451,2.354,0.451,3.587c0,1.712-0.293,3.364-0.836,4.917l5.844,3.063c1.629,0.853,3.749,0.017,4.736-1.869
	C334.672,389.788,334.154,387.566,332.525,386.714z"/>
</svg>
