<?xml version="1.0" encoding="utf-8"?>
<!-- Generator: Adobe Illustrator 16.0.0, SVG Export Plug-In . SVG Version: 6.00 Build 0)  -->
<svg version="1.1" id="Layer_1" xmlns="http://www.w3.org/2000/svg" xmlns:xlink="http://www.w3.org/1999/xlink" x="0px" y="0px"
	 width="612px" height="792px" viewBox="0 0 612 792" enable-background="new 0 0 612 792" xml:space="preserve">
<rect x="266.104" y="357.651" fill-opacity="0" fill="#231F20" width="81" height="78.206"/>
<path id="PRIMARY_6_" fill="#F1F1F1" stroke="#231F20" stroke-miterlimit="10" d="M273.965,389.273l0.16-0.16
	c-1.165-1.277-0.355-4.07,1.823-6.26c2.191-2.205,4.936-2.964,6.132-1.697c1.116,1.183,0.482,3.718-1.395,5.845l28.521,30.243
	c2.108-1.882,4.579-2.468,5.695-1.283c1.195,1.267,0.386,4.079-1.805,6.284c-2.178,2.191-4.901,2.952-6.108,1.717l-0.161,0.16
	c1.165,1.277,0.355,4.069-1.823,6.26c-2.191,2.205-4.937,2.964-6.132,1.697c-1.021-1.084-0.575-3.294,0.943-5.29l-28.62-30.347
	c-1.973,1.514-4.124,1.915-5.145,0.833c-1.196-1.267-0.387-4.081,1.803-6.284C270.036,388.801,272.758,388.04,273.965,389.273z"/>
<circle id="PRIMARY_5_" fill="#F1F1F1" stroke="#231F20" stroke-miterlimit="10" cx="307.354" cy="425.881" r="9.5"/>
</svg>
