<?xml version="1.0" encoding="utf-8"?>
<!-- Generator: Adobe Illustrator 16.0.0, SVG Export Plug-In . SVG Version: 6.00 Build 0)  -->
<svg version="1.1" id="Layer_1" xmlns="http://www.w3.org/2000/svg" xmlns:xlink="http://www.w3.org/1999/xlink" x="0px" y="0px"
	 width="612px" height="792px" viewBox="0 0 612 792" enable-background="new 0 0 612 792" xml:space="preserve">
<rect x="192" y="268.846" fill-opacity="0" fill="#231F20" width="230" height="255.637"/>
<path id="PRIMARY_13_" fill="#F1F1F1" stroke="#231F20" stroke-width="2.8509" stroke-miterlimit="10" d="M308.334,508.64h-0.538
	c-0.072,7.997-6.02,14.471-13.349,14.471c-7.379,0-13.357-6.544-13.357-14.613c0-7.542,5.224-13.744,11.929-14.526V301.321
	c-6.705-0.78-11.929-6.983-11.929-14.525c0-8.071,5.979-14.612,13.357-14.612c7.329,0,13.277,6.465,13.349,14.469h0.538
	c0.072-8.004,6.02-14.469,13.349-14.469c7.379,0,13.357,6.541,13.357,14.612c0,6.894-4.373,12.658-10.243,14.194v193.313
	c5.87,1.535,10.243,7.299,10.243,14.194c0,8.069-5.979,14.613-13.357,14.613C314.354,523.11,308.406,516.642,308.334,508.64z"/>
<ellipse fill="none" stroke="#231F20" stroke-width="2.8509" stroke-miterlimit="10" cx="309.13" cy="292.036" rx="7.099" ry="7.155"/>
<ellipse fill="none" stroke="#231F20" stroke-width="2.8509" stroke-miterlimit="10" cx="309.13" cy="502.814" rx="7.099" ry="7.155"/>
</svg>
