<?xml version="1.0" encoding="utf-8"?>
<!-- Generator: Adobe Illustrator 16.0.0, SVG Export Plug-In . SVG Version: 6.00 Build 0)  -->
<svg version="1.1" id="Layer_1" xmlns="http://www.w3.org/2000/svg" xmlns:xlink="http://www.w3.org/1999/xlink" x="0px" y="0px"
	 width="612px" height="792px" viewBox="0 0 612 792" enable-background="new 0 0 612 792" xml:space="preserve">
<rect x="266.5" y="369.004" fill-opacity="0" fill="#231F20" width="81" height="54.487"/>
<path id="PRIMARY_4_" fill="#F1F1F1" stroke="#231F20" stroke-miterlimit="10" d="M288.181,388.41l5.983-11.566
	c0.845-1.632,3.063-2.163,4.954-1.184c1.891,0.979,2.738,3.095,1.895,4.727l-8.278,16.001
	C290.449,394.158,288.855,391.423,288.181,388.41z"/>
<path id="PRIMARY_3_" fill="#F1F1F1" stroke="#231F20" stroke-miterlimit="10" d="M293.337,397.123l1.567-14.028
	c0.204-1.824,2.086-3.115,4.202-2.877c2.116,0.235,3.665,1.907,3.461,3.733l-1.919,17.171
	C297.872,400.304,295.382,398.922,293.337,397.123z"/>
<path id="PRIMARY_2_" fill="#F1F1F1" stroke="#231F20" stroke-miterlimit="10" d="M306.024,401.942c-0.444,0-0.88-0.03-1.316-0.053
	l-0.246-18.01c-0.024-1.84,1.681-3.352,3.81-3.381c2.129-0.028,3.875,1.438,3.899,3.275l0.236,17.369
	C310.39,401.648,308.254,401.942,306.024,401.942z"/>
<path id="PRIMARY_1_" fill="#F1F1F1" stroke="#231F20" stroke-miterlimit="10" d="M311.994,380.311
	c2.033-0.633,4.123,0.275,4.67,2.03l4.126,13.246c-1.799,1.935-4.07,3.498-6.641,4.607l-4.847-15.563
	C308.756,382.878,309.961,380.942,311.994,380.311z"/>
<path id="PRIMARY" fill="#F1F1F1" stroke="#231F20" stroke-miterlimit="10" d="M322.746,377.778l-6.938,10.6
	c-1.006,1.538-3.267,1.839-5.048,0.672c-1.781-1.165-2.409-3.356-1.403-4.895l7.851-11.994
	C319.499,373.633,321.405,375.548,322.746,377.778z"/>
</svg>
