<?xml version="1.0" encoding="utf-8"?>
<!-- Generator: Adobe Illustrator 16.0.0, SVG Export Plug-In . SVG Version: 6.00 Build 0)  -->
<svg version="1.1" id="Layer_1" xmlns="http://www.w3.org/2000/svg" xmlns:xlink="http://www.w3.org/1999/xlink" x="0px" y="0px"
	 width="612px" height="792px" viewBox="0 0 612 792" enable-background="new 0 0 612 792" xml:space="preserve">
<rect x="152" y="339.591" fill-opacity="0" fill="#231F20" width="256" height="170.18"/>
<path id="PRIMARY_2_" fill="#FFFA00" stroke="#231F20" stroke-width="3.1418" stroke-miterlimit="10" d="M236.568,436.99h16.633
	v5.773h-31.343c-7.241-1.122-13.975-3.629-19.864-7.24v-10.969C211.142,432.256,223.244,436.99,236.568,436.99z"/>
<path id="PRIMARY_1_" fill="#FFFA00" stroke="#231F20" stroke-width="3.1418" stroke-miterlimit="10" d="M322.108,437.222
	c2.035,0,4.032-0.137,6.006-0.351v5.893h-45.309c-1.997,0-3.96,0.128-5.898,0.336v-5.878H322.108z"/>
<path id="PRIMARY" fill="#FFFA00" stroke="#231F20" stroke-width="3.1418" stroke-miterlimit="10" d="M331.686,342.156l2.873-3.841
	c18.487,3.033,33.713,14.831,40.7,30.716l-4.092,5.472C365.45,357.99,350.349,345.417,331.686,342.156z"/>
</svg>
