<?xml version="1.0" encoding="utf-8"?>
<!-- Generator: Adobe Illustrator 16.0.0, SVG Export Plug-In . SVG Version: 6.00 Build 0)  -->
<svg version="1.1" id="Layer_1" xmlns="http://www.w3.org/2000/svg" xmlns:xlink="http://www.w3.org/1999/xlink" x="0px" y="0px"
	 width="612px" height="792px" viewBox="0 0 612 792" enable-background="new 0 0 612 792" xml:space="preserve">
<rect x="192" y="269.525" fill-opacity="0" fill="#231F20" width="230" height="254.292"/>
<path id="PRIMARY_4_" fill="#FFFA00" stroke="#231F20" stroke-width="2.8434" stroke-miterlimit="10" d="M360.479,468.061
	c0,30.794-24.896,55.757-55.609,55.757l0,0c-30.71,0-55.606-24.963-55.606-55.757V325.26c0-30.794,24.896-55.757,55.606-55.757l0,0
	c30.714,0,55.609,24.963,55.609,55.757V468.061z"/>
<path id="SECONDARY_6_" fill="#C802FF" stroke="#231F20" stroke-width="2.8434" stroke-miterlimit="10" d="M303.248,337.903
	c1.771-5.059,3.771-23.042,11.76-20.046c5.996,5.996,0,17.984-1.999,23.979c0.996-1.498,2.493-3.746,4.245-5.244
	c3.744-3.748,11.735,2.25,9.739,11.241c-1.345,2.012-10.207,5.991-5.995,5.991c3.996-2.996,9.444-3.15,9.444,2.845
	c1.999,5.993-3.455,12.14-5.451,18.137c1.996-2.996,1.996-5.998,3.995-5.998c9.991,3.001,5.99,23.979-2.002,26.976
	c2,2.995,5.992,2.995,7.739,7.121c0.621,1.685,0.932,3.653,0.96,5.95c0.03,2.294-0.222,4.919-0.727,7.919
	c-0.984,7.482-2.484,7.485-4.231,5.61c-1.747-1.873-3.743-5.622-5.74-5.622c1.997,5.995,4.453,8.647,6.447,14.643
	c2.772,5.077,1.872,6.745,0.624,7.868c-1.251,1.124-2.745,1.313-4.745,1.313c-1.996-0.002-4.744-2.438-6.74-5.433
	c5.099,5.592,6.408,8.581,8.024,15.718c0.211,2.381,0.155,4.719-0.216,6.782c-0.741,4.126-2.737,7.156-6.4,7.201
	c-1.747-0.045-3.494-1.076-4.997-2.764c-2.989-3.367-4.991-9.365-3.99-15.359c0,8.992-0.003,14.981-1.805,22.944
	c-0.904,2.255-2.02,3.862-3.189,4.871c-5.887,5.053-13.406-4.766-4.768-22.213c-13.819,27.913-36.937,8.472-9.755-4.496
	c-27.182,12.968-30.558,9.187-7.96-12.265c-22.598,21.451-33.042-11.87-5.366-18.185c-27.677,6.314-32.547-12.648-1.967-22.268
	c-30.58,9.619-27.622-10.023,1.972-22.268c-29.593,12.244-24.53-27.73,5.371-18.188c-29.901-9.542-18.44-36.061,7.967-12.268
	c-16.503-14.867-7.003-26.789,1.467-24.96c1.694,0.364,3.346,1.283,4.742,2.833c1.395,1.55,2.532,3.742,3.191,6.66
	C303.556,329.844,303.746,333.467,303.248,337.903z"/>
<ellipse fill="none" stroke="#231F20" stroke-width="2.8434" stroke-miterlimit="10" cx="304.87" cy="292.593" rx="7.099" ry="7.118"/>
<ellipse fill="none" stroke="#231F20" stroke-width="2.8434" stroke-miterlimit="10" cx="304.87" cy="502.264" rx="7.099" ry="7.117"/>
</svg>
