<?xml version="1.0" encoding="utf-8"?>
<!-- Generator: Adobe Illustrator 16.0.0, SVG Export Plug-In . SVG Version: 6.00 Build 0)  -->
<svg version="1.1" id="Layer_1" xmlns="http://www.w3.org/2000/svg" xmlns:xlink="http://www.w3.org/1999/xlink" x="0px" y="0px"
	 width="612px" height="792px" viewBox="0 0 612 792" enable-background="new 0 0 612 792" xml:space="preserve">
<rect x="179.194" y="310.397" fill-opacity="0" fill="#231F20" width="255.613" height="171.701"/>
<path id="PRIMARY_2_" fill="#FFFA00" stroke="#231F20" stroke-width="3.1535" stroke-miterlimit="10" d="M422.43,374.421
	l-24.253-28.441c1.516,4.553,2.336,9.395,2.336,14.417c0,16.759-9.116,31.515-22.943,40.168l5.932,6.958
	c9.732,11.411,16.312,1.502,27.062-7.641C421.312,390.741,432.162,385.835,422.43,374.421z"/>
<path id="PRIMARY_1_" fill="#FFFA00" stroke="#231F20" stroke-width="3.1535" stroke-miterlimit="10" d="M349.704,408.666h-45.24
	v36.873c0,14.99,11.445,11.703,25.563,11.703c14.121,0,25.566,3.287,25.566-11.703v-37.211
	C353.657,408.534,351.697,408.666,349.704,408.666z"/>
<path id="PRIMARY" fill="#FFFA00" stroke="#231F20" stroke-width="3.1535" stroke-miterlimit="10" d="M264.29,408.666
	c-10.466,0-20.188-2.948-28.312-7.982v44.861c0,14.987,11.446,11.697,25.564,11.697c14.119,0,25.566,3.29,25.566-11.697v-36.879
	H264.29z"/>
<path id="PRIMARY_6_" fill="#FFFA00" stroke="#231F20" stroke-width="3.1535" stroke-miterlimit="10" d="M290.083,453.903
	c0,2.465-2.312,4.462-5.161,4.462h-46.759c-2.849,0-5.157-1.997-5.157-4.462l0,0c0-2.465,2.308-4.465,5.157-4.465h46.759
	C287.771,449.438,290.083,451.438,290.083,453.903L290.083,453.903z"/>
<path id="SECONDARY_8_" fill="#C802FF" stroke="#231F20" stroke-width="3.1535" stroke-miterlimit="10" d="M241.127,458.803v1.203
	c0,11.845,9.139,21.458,20.417,21.458c11.279,0,20.417-9.613,20.417-21.458v-1.203H241.127z"/>
<path id="PRIMARY_8_" fill="#FFFA00" stroke="#231F20" stroke-width="3.1535" stroke-miterlimit="10" d="M358.57,453.897
	c0,2.468-2.312,4.465-5.162,4.465h-46.76c-2.849,0-5.157-1.997-5.157-4.465l0,0c0-2.459,2.309-4.462,5.157-4.462h46.76
	C356.259,449.436,358.57,451.438,358.57,453.897L358.57,453.897z"/>
<path id="SECONDARY_9_" fill="#C802FF" stroke="#231F20" stroke-width="3.1535" stroke-miterlimit="10" d="M309.613,458.803v1.2
	c0,11.842,9.141,21.461,20.417,21.461c11.278,0,20.416-9.619,20.416-21.461v-1.2H309.613z"/>
<path id="PRIMARY_10_" fill="#FFFA00" stroke="#231F20" stroke-width="3.1535" stroke-miterlimit="10" d="M430.119,378.859
	c1.603,1.877,1.14,4.896-1.029,6.743l-35.601,30.271c-2.17,1.844-5.224,1.819-6.826-0.064l0,0c-1.597-1.868-1.141-4.893,1.029-6.736
	l35.601-30.272C425.462,376.957,428.522,376.985,430.119,378.859L430.119,378.859z"/>
<path id="SECONDARY_10_" fill="#C802FF" stroke="#231F20" stroke-width="3.1535" stroke-miterlimit="10" d="M396.031,414.289
	l0.78,0.91c7.688,9.017,20.891,10.423,29.477,3.121c8.586-7.3,9.301-20.539,1.612-29.556l-0.78-0.914L396.031,414.289z"/>
</svg>
