<?xml version="1.0" encoding="utf-8"?>
<!-- Generator: Adobe Illustrator 16.0.0, SVG Export Plug-In . SVG Version: 6.00 Build 0)  -->
<svg version="1.1" id="Layer_1" xmlns="http://www.w3.org/2000/svg" xmlns:xlink="http://www.w3.org/1999/xlink" x="0px" y="0px"
	 width="612px" height="792px" viewBox="0 0 612 792" enable-background="new 0 0 612 792" xml:space="preserve">
<rect x="302.833" y="407.67" fill-opacity="0" fill="#231F20" width="81" height="54.488"/>
<path class="primary_color" id="PRIMARY_1_" fill="#FFFA00" stroke="#231F20" stroke-miterlimit="10" d="M341.769,438.841h-14.336V427.14
	c0-4.758,3.627-3.715,8.101-3.715c4.475,0,8.102-1.043,8.102,3.715v11.809C343.021,438.882,342.4,438.841,341.769,438.841z"/>
<path class="primary_color" id="PRIMARY_8_" fill="#FFFA00" stroke="#231F20" stroke-miterlimit="10" d="M344.578,424.487c0-0.783-0.732-1.418-1.636-1.418
	h-14.817c-0.903,0-1.634,0.635-1.634,1.418l0,0c0,0.779,0.73,1.416,1.634,1.416h14.817
	C343.846,425.903,344.578,425.267,344.578,424.487L344.578,424.487z"/>
<path class="secondary_color" id="SECONDARY_9_" fill="#C802FF" stroke="#231F20" stroke-miterlimit="10" d="M329.064,422.931v-0.381
	c0-3.758,2.896-6.811,6.47-6.811c3.574,0,6.47,3.053,6.47,6.811v0.381H329.064z"/>
<path class="primary_color" id="PRIMARY_2_" fill="#FFFA00" stroke="#231F20" stroke-miterlimit="10" d="M365.338,436.523v-9.384
	c0-4.758-3.627-3.715-8.102-3.715c-4.474,0-8.101-1.043-8.101,3.715v11.701h9.917C361.344,438.482,363.475,437.68,365.338,436.523z"
	/>
<path class="primary_color" id="PRIMARY_3_" fill="#FFFA00" stroke="#231F20" stroke-miterlimit="10" d="M366.281,424.487c0-0.783-0.732-1.418-1.636-1.418
	h-14.817c-0.903,0-1.634,0.635-1.634,1.418l0,0c0,0.779,0.73,1.416,1.634,1.416h14.817
	C365.549,425.903,366.281,425.267,366.281,424.487L366.281,424.487z"/>
<path class="secondary_color" id="SECONDARY_1_" fill="#C802FF" stroke="#231F20" stroke-miterlimit="10" d="M350.768,422.931v-0.381
	c0-3.758,2.896-6.811,6.47-6.811c3.574,0,6.47,3.053,6.47,6.811v0.381H350.768z"/>
<path class="primary_color" id="PRIMARY" fill="#FFFA00" stroke="#231F20" stroke-miterlimit="10" d="M331.015,413.299l-3.621-4.899
	c-5.85,0.972-10.667,4.749-12.878,9.834l3.47,4.695c2.829,3.827,5.126,0.832,8.724-1.826
	C330.307,418.443,333.844,417.128,331.015,413.299z"/>
<path class="primary_color" id="PRIMARY_4_" fill="#FFFA00" stroke="#231F20" stroke-miterlimit="10" d="M318.805,425.623
	c0.464,0.631,1.431,0.705,2.158,0.169l11.915-8.808c0.727-0.537,0.938-1.481,0.472-2.11l0,0c-0.463-0.628-1.429-0.705-2.155-0.168
	l-11.916,8.806C318.551,424.05,318.34,424.997,318.805,425.623L318.805,425.623z"/>
<path class="secondary_color" id="SECONDARY_2_" fill="#C802FF" stroke="#231F20" stroke-miterlimit="10" d="M332.205,417.654l0.227,0.307
	c2.233,3.022,1.719,7.199-1.156,9.322c-2.874,2.125-7.016,1.391-9.249-1.631l-0.227-0.307L332.205,417.654z"/>
</svg>
