<?xml version="1.0" encoding="utf-8"?>
<!-- Generator: Adobe Illustrator 16.0.0, SVG Export Plug-In . SVG Version: 6.00 Build 0)  -->
<svg version="1.1" id="Layer_1" xmlns="http://www.w3.org/2000/svg" xmlns:xlink="http://www.w3.org/1999/xlink" x="0px" y="0px"
	 width="612px" height="792px" viewBox="0 0 612 792" enable-background="new 0 0 612 792" xml:space="preserve">
<rect x="179" y="310.248" fill-opacity="0" fill="#231F20" width="256" height="172"/>
<path id="PRIMARY_9_" fill="#FFFA00" stroke="#231F20" stroke-width="3.1586" stroke-miterlimit="10" d="M400.654,360.335
	c0,26.703-23.077,48.352-51.543,48.352h-85.542c-28.464,0-51.54-21.649-51.54-48.352l0,0c0-26.713,23.076-48.362,51.54-48.362
	h85.542C377.577,311.974,400.654,333.622,400.654,360.335L400.654,360.335z"/>
<path id="SECONDARY_7_" fill="#C802FF" stroke="#231F20" stroke-width="3.1586" stroke-miterlimit="10" d="M250.162,350.708
	c-4.383-2.127-20.096-4.84-17.211-13.823c5.449-6.645,15.776,0.447,20.972,2.861c-1.284-1.168-3.207-2.922-4.466-4.943
	c-3.167-4.333,2.347-13.242,10.171-10.758c1.723,1.572,4.932,11.716,5.066,6.939c-2.503-4.601-2.464-10.78,2.795-10.635
	c5.322-2.116,10.54,4.217,15.734,6.626c-2.56-2.338-5.194-2.409-5.131-4.677c2.952-11.249,21.227-6.198,23.603,2.932
	c2.691-2.19,2.82-6.717,6.493-8.596c1.5-0.663,3.231-0.965,5.25-0.94c2.016,0.02,4.312,0.371,6.926,1.017
	c6.531,1.299,6.484,3.001,4.784,4.932c-1.698,1.935-5.05,4.109-5.114,6.371c5.324-2.115,7.731-4.833,13.052-6.95
	c4.544-3.02,5.976-1.953,6.92-0.514c0.948,1.446,1.065,3.146,1,5.409c-0.067,2.263-2.29,5.316-4.981,7.51
	c5.071-5.645,7.735-7.053,14.05-8.713c2.093-0.181,4.142-0.06,5.938,0.41c3.599,0.945,6.194,3.281,6.117,7.436
	c-0.096,1.978-1.056,3.93-2.587,5.592c-3.049,3.308-8.373,5.426-13.602,4.146c7.889,0.216,13.145,0.37,20.071,2.604
	c1.95,1.085,3.323,2.393,4.173,3.739c4.243,6.792-4.611,15.075-19.64,4.862c24.047,16.344,6.254,42.063-4.256,10.94
	c10.51,31.123,7.09,34.863-11.016,8.718c18.105,26.145-11.466,37.166-16.12,5.638c4.654,31.527-12.136,36.577-19.599,1.687
	c7.463,34.891-9.673,31.059-19.471-2.787c9.798,33.846-25.111,27.113-15.787-6.532c-9.324,33.646-32.222,20.007-10.508-9.328
	c-13.569,18.339-23.724,7.275-21.85-2.278c0.375-1.908,1.234-3.754,2.64-5.302c1.403-1.548,3.361-2.778,5.943-3.453
	C243.099,350.166,246.284,350.039,250.162,350.708z"/>
</svg>
