<?xml version="1.0" encoding="utf-8"?>
<!-- Generator: Adobe Illustrator 16.0.0, SVG Export Plug-In . SVG Version: 6.00 Build 0)  -->
<svg version="1.1" id="Layer_1" xmlns="http://www.w3.org/2000/svg" xmlns:xlink="http://www.w3.org/1999/xlink" x="0px" y="0px"
	 width="612px" height="792px" viewBox="0 0 612 792" enable-background="new 0 0 612 792" xml:space="preserve">
<rect x="266.5" y="369.004" fill-opacity="0" fill="#231F20" width="81" height="54.487"/>
<path class="primary_color" id="PRIMARY_9_" fill="#FFFA00" stroke="#231F20" stroke-miterlimit="10" d="M336.633,384.871
	c0,8.459-7.302,15.317-16.309,15.317h-27.066c-9.006,0-16.308-6.858-16.308-15.317l0,0c0-8.462,7.301-15.32,16.308-15.32h27.066
	C329.331,369.551,336.633,376.409,336.633,384.871L336.633,384.871z"/>
<path class="secondary_color" id="SECONDARY_7_" fill="#C802FF" stroke="#231F20" stroke-miterlimit="10" d="M289.016,381.821
	c-1.387-0.674-6.358-1.533-5.446-4.379c1.724-2.105,4.992,0.142,6.636,0.906c-0.406-0.37-1.015-0.926-1.413-1.566
	c-1.002-1.373,0.743-4.195,3.218-3.408c0.545,0.498,1.561,3.711,1.603,2.198c-0.792-1.458-0.78-3.415,0.884-3.369
	c1.684-0.67,3.335,1.336,4.979,2.099c-0.81-0.741-1.644-0.763-1.624-1.481c0.934-3.563,6.716-1.963,7.468,0.929
	c0.852-0.694,0.892-2.128,2.054-2.723c0.475-0.21,1.022-0.306,1.661-0.298c0.638,0.006,1.364,0.118,2.191,0.322
	c2.066,0.412,2.052,0.951,1.514,1.563c-0.537,0.613-1.598,1.302-1.618,2.018c1.685-0.67,2.446-1.531,4.13-2.202
	c1.438-0.957,1.891-0.619,2.189-0.163c0.3,0.458,0.337,0.997,0.316,1.713c-0.021,0.717-0.725,1.684-1.576,2.379
	c1.604-1.788,2.447-2.234,4.445-2.76c0.662-0.057,1.311-0.019,1.879,0.13c1.139,0.299,1.96,1.04,1.936,2.355
	c-0.03,0.626-0.334,1.245-0.818,1.771c-0.965,1.048-2.649,1.719-4.304,1.313c2.496,0.068,4.159,0.117,6.351,0.825
	c0.617,0.344,1.052,0.758,1.32,1.185c1.343,2.151-1.459,4.775-6.214,1.54c7.608,5.178,1.979,13.325-1.347,3.466
	c3.325,9.859,2.243,11.044-3.485,2.762c5.729,8.282-3.628,11.773-5.101,1.786c1.473,9.987-3.84,11.587-6.201,0.534
	c2.361,11.053-3.061,9.839-6.161-0.883c3.1,10.722-7.945,8.589-4.995-2.069c-2.95,10.658-10.195,6.338-3.325-2.955
	c-4.293,5.81-7.506,2.305-6.914-0.722c0.119-0.604,0.391-1.189,0.835-1.68c0.444-0.49,1.063-0.88,1.88-1.094
	C286.781,381.649,287.789,381.609,289.016,381.821z"/>
</svg>
