<?xml version="1.0" encoding="utf-8"?>
<!-- Generator: Adobe Illustrator 16.0.0, SVG Export Plug-In . SVG Version: 6.00 Build 0)  -->
<svg version="1.1" id="Layer_1" xmlns="http://www.w3.org/2000/svg" xmlns:xlink="http://www.w3.org/1999/xlink" x="0px" y="0px"
	 width="612px" height="792px" viewBox="0 0 612 792" enable-background="new 0 0 612 792" xml:space="preserve">
<rect x="215.333" y="348.999" fill-opacity="0" fill="#231F20" width="256" height="171.832"/>
<path id="PRIMARY_1_" fill="#FFFA00" stroke="#231F20" stroke-width="3.157" stroke-miterlimit="10" d="M338.389,447.297H293.08
	v-36.899c0-15.004,11.463-11.715,25.602-11.715c14.143,0,25.605-3.29,25.605,11.715v37.238
	C342.349,447.427,340.386,447.297,338.389,447.297z"/>
<path id="PRIMARY_8_" fill="#FFFA00" stroke="#231F20" stroke-width="3.157" stroke-miterlimit="10" d="M347.269,402.033
	c0-2.471-2.315-4.472-5.17-4.472h-46.831c-2.855,0-5.164,2.001-5.164,4.472l0,0c0,2.457,2.309,4.465,5.164,4.465h46.831
	C344.953,406.498,347.269,404.49,347.269,402.033L347.269,402.033z"/>
<path id="SECONDARY_9_" fill="#C802FF" stroke="#231F20" stroke-width="3.157" stroke-miterlimit="10" d="M298.237,397.124v-1.201
	c0-11.851,9.154-21.478,20.447-21.478c11.297,0,20.448,9.627,20.448,21.478v1.201H298.237z"/>
<path id="PRIMARY_2_" fill="#FFFA00" stroke="#231F20" stroke-width="3.157" stroke-miterlimit="10" d="M412.879,439.989v-29.592
	c0-15.004-11.463-11.715-25.604-11.715c-14.139,0-25.602-3.29-25.602,11.715v36.899h31.343
	C400.256,446.167,406.99,443.636,412.879,439.989z"/>
<path id="PRIMARY_3_" fill="#FFFA00" stroke="#231F20" stroke-width="3.157" stroke-miterlimit="10" d="M415.861,402.033
	c0-2.471-2.315-4.472-5.17-4.472h-46.83c-2.855,0-5.164,2.001-5.164,4.472l0,0c0,2.457,2.309,4.465,5.164,4.465h46.83
	C413.546,406.498,415.861,404.49,415.861,402.033L415.861,402.033z"/>
<path id="SECONDARY_1_" fill="#C802FF" stroke="#231F20" stroke-width="3.157" stroke-miterlimit="10" d="M366.83,397.124v-1.201
	c0-11.851,9.154-21.478,20.447-21.478c11.297,0,20.447,9.627,20.447,21.478v1.201H366.83z"/>
<path id="PRIMARY" fill="#FFFA00" stroke="#231F20" stroke-width="3.157" stroke-miterlimit="10" d="M304.401,366.75l-11.444-15.451
	c-18.488,3.064-33.713,14.977-40.701,31.012l10.966,14.807c8.941,12.068,16.201,2.624,27.571-5.759
	C302.163,382.973,313.342,378.825,304.401,366.75z"/>
<path id="PRIMARY_4_" fill="#FFFA00" stroke="#231F20" stroke-width="3.157" stroke-miterlimit="10" d="M265.812,405.614
	c1.466,1.989,4.521,2.224,6.821,0.533l37.658-27.775c2.296-1.694,2.963-4.672,1.49-6.655l0,0c-1.463-1.98-4.515-2.223-6.812-0.529
	l-37.66,27.769C265.009,400.653,264.342,403.641,265.812,405.614L265.812,405.614z"/>
<path id="SECONDARY_2_" fill="#C802FF" stroke="#231F20" stroke-width="3.157" stroke-miterlimit="10" d="M308.163,380.485
	l0.716,0.967c7.059,9.532,5.433,22.703-3.654,29.398c-9.083,6.701-22.173,4.386-29.231-5.143l-0.716-0.967L308.163,380.485z"/>
</svg>
