<?xml version="1.0" encoding="utf-8"?>
<!-- Generator: Adobe Illustrator 16.0.0, SVG Export Plug-In . SVG Version: 6.00 Build 0)  -->
<svg version="1.1" id="Layer_1" xmlns="http://www.w3.org/2000/svg" xmlns:xlink="http://www.w3.org/1999/xlink" x="0px" y="0px"
	 width="612px" height="792px" viewBox="0 0 612 792" enable-background="new 0 0 612 792" xml:space="preserve">
<rect x="266.5" y="369.004" fill-opacity="0" fill="#231F20" width="81" height="54.487"/>
<path class="primary_color" id="PRIMARY_2_" fill="#FFFA00" stroke="#231F20" stroke-miterlimit="10" d="M343.578,389.321l-7.686-9.025
	c0.48,1.445,0.74,2.981,0.74,4.575c0,5.318-2.889,10.001-7.271,12.747l1.88,2.208c3.084,3.621,5.169,0.477,8.575-2.425
	S346.662,392.943,343.578,389.321z"/>
<path class="primary_color" id="PRIMARY_1_" fill="#FFFA00" stroke="#231F20" stroke-miterlimit="10" d="M320.532,400.188h-14.336v11.701
	c0,4.757,3.627,3.714,8.101,3.714c4.475,0,8.102,1.043,8.102-3.714v-11.809C321.785,400.146,321.164,400.188,320.532,400.188z"/>
<path class="primary_color" id="PRIMARY" fill="#FFFA00" stroke="#231F20" stroke-miterlimit="10" d="M293.466,400.188c-3.316,0-6.397-0.936-8.972-2.533
	v14.236c0,4.756,3.627,3.712,8.101,3.712s8.102,1.044,8.102-3.712v-11.703H293.466z"/>
<path class="primary_color" id="PRIMARY_6_" fill="#FFFA00" stroke="#231F20" stroke-miterlimit="10" d="M301.639,414.544c0,0.782-0.732,1.416-1.635,1.416
	h-14.817c-0.903,0-1.634-0.634-1.634-1.416l0,0c0-0.782,0.731-1.417,1.634-1.417h14.817
	C300.907,413.127,301.639,413.762,301.639,414.544L301.639,414.544z"/>
<path class="secondary_color" id="SECONDARY_8_" fill="#C802FF" stroke="#231F20" stroke-miterlimit="10" d="M286.126,416.099v0.382
	c0,3.759,2.896,6.81,6.47,6.81c3.574,0,6.47-3.051,6.47-6.81v-0.382H286.126z"/>
<path class="primary_color" id="PRIMARY_8_" fill="#FFFA00" stroke="#231F20" stroke-miterlimit="10" d="M323.342,414.542c0,0.783-0.732,1.417-1.636,1.417
	h-14.817c-0.903,0-1.634-0.634-1.634-1.417l0,0c0-0.78,0.731-1.416,1.634-1.416h14.817
	C322.609,413.126,323.342,413.762,323.342,414.542L323.342,414.542z"/>
<path class="secondary_color" id="SECONDARY_9_" fill="#C802FF" stroke="#231F20" stroke-miterlimit="10" d="M307.828,416.099v0.381
	c0,3.758,2.896,6.811,6.47,6.811c3.574,0,6.47-3.053,6.47-6.811v-0.381H307.828z"/>
<path class="primary_color" id="PRIMARY_10_" fill="#FFFA00" stroke="#231F20" stroke-miterlimit="10" d="M346.015,390.729
	c0.508,0.596,0.361,1.554-0.326,2.14l-11.281,9.606c-0.688,0.585-1.655,0.577-2.163-0.021l0,0c-0.506-0.593-0.361-1.553,0.326-2.138
	l11.281-9.606C344.539,390.126,345.509,390.135,346.015,390.729L346.015,390.729z"/>
<path class="secondary_color" id="SECONDARY_10_" fill="#C802FF" stroke="#231F20" stroke-miterlimit="10" d="M335.213,401.973l0.247,0.289
	c2.437,2.861,6.62,3.308,9.341,0.99c2.721-2.316,2.947-6.518,0.511-9.379l-0.247-0.29L335.213,401.973z"/>
</svg>
