<?xml version="1.0" encoding="utf-8"?>
<!-- Generator: Adobe Illustrator 16.0.0, SVG Export Plug-In . SVG Version: 6.00 Build 0)  -->
<svg version="1.1" id="Layer_1" xmlns="http://www.w3.org/2000/svg" xmlns:xlink="http://www.w3.org/1999/xlink" x="0px" y="0px"
	 width="612px" height="792px" viewBox="0 0 612 792" enable-background="new 0 0 612 792" xml:space="preserve">
<rect x="239.5" y="397.004" fill-opacity="0" fill="#231F20" width="81" height="54.487"/>
<path id="PRIMARY_2_" fill="#FFFA00" stroke="#231F20" stroke-miterlimit="10" d="M266.258,428.188h5.263v1.849h-9.917
	c-2.291-0.359-4.422-1.162-6.285-2.318v-3.512C258.213,426.673,262.042,428.188,266.258,428.188z"/>
<path id="PRIMARY_1_" fill="#FFFA00" stroke="#231F20" stroke-miterlimit="10" d="M293.323,428.263c0.644,0,1.276-0.044,1.9-0.112
	v1.887h-14.336c-0.632,0-1.253,0.041-1.866,0.107v-1.882H293.323z"/>
<path id="PRIMARY" fill="#FFFA00" stroke="#231F20" stroke-miterlimit="10" d="M296.354,397.825l0.909-1.23
	c5.85,0.971,10.667,4.749,12.878,9.834l-1.295,1.752C307.037,402.895,302.259,398.869,296.354,397.825z"/>
</svg>
