<?xml version="1.0" encoding="utf-8"?>
<!-- Generator: Adobe Illustrator 16.0.0, SVG Export Plug-In . SVG Version: 6.00 Build 0)  -->
<svg version="1.1" id="Layer_1" xmlns="http://www.w3.org/2000/svg" xmlns:xlink="http://www.w3.org/1999/xlink" x="0px" y="0px"
	 width="612px" height="792px" viewBox="0 0 612 792" enable-background="new 0 0 612 792" xml:space="preserve">
<rect x="196.583" y="314.358" fill-opacity="0" fill="#231F20" width="255.5" height="171.113"/>
<path id="PRIMARY_2_" fill="#FFFA00" stroke="#231F20" stroke-width="3.1473" stroke-miterlimit="10" d="M207.377,378.792
	l24.243-28.343c-1.516,4.539-2.335,9.366-2.335,14.371c0,16.702,9.111,31.404,22.933,40.027l-5.93,6.938
	c-9.728,11.371-16.304,1.496-27.049-7.618C208.496,395.059,197.649,390.17,207.377,378.792z"/>
<path id="PRIMARY_1_" fill="#FFFA00" stroke="#231F20" stroke-width="3.1473" stroke-miterlimit="10" d="M280.071,412.92h45.22
	v36.746c0,14.941-11.44,11.666-25.552,11.666c-14.114,0-25.555,3.275-25.555-11.666v-37.084
	C276.119,412.791,278.078,412.92,280.071,412.92z"/>
<path id="PRIMARY" fill="#FFFA00" stroke="#231F20" stroke-width="3.1473" stroke-miterlimit="10" d="M365.447,412.92
	c10.461,0,20.18-2.938,28.3-7.955v44.707c0,14.936-11.441,11.66-25.553,11.66c-14.114,0-25.555,3.275-25.555-11.66V412.92H365.447z"
	/>
<path id="PRIMARY_6_" fill="#FFFA00" stroke="#231F20" stroke-width="3.1473" stroke-miterlimit="10" d="M339.664,458.002
	c0,2.459,2.311,4.446,5.16,4.446h46.738c2.847,0,5.156-1.987,5.156-4.446l0,0c0-2.454-2.31-4.447-5.156-4.447h-46.738
	C341.975,453.555,339.664,455.548,339.664,458.002L339.664,458.002z"/>
<path id="SECONDARY_8_" fill="#C802FF" stroke="#231F20" stroke-width="3.1473" stroke-miterlimit="10" d="M388.6,462.884v1.202
	c0,11.801-9.137,21.382-20.408,21.382c-11.273,0-20.407-9.581-20.407-21.382v-1.202H388.6z"/>
<path id="PRIMARY_8_" fill="#FFFA00" stroke="#231F20" stroke-width="3.1473" stroke-miterlimit="10" d="M271.209,457.995
	c0,2.46,2.31,4.453,5.16,4.453h46.739c2.85,0,5.153-1.993,5.153-4.453l0,0c0-2.447-2.304-4.446-5.153-4.446h-46.739
	C273.519,453.549,271.209,455.548,271.209,457.995L271.209,457.995z"/>
<path id="SECONDARY_9_" fill="#C802FF" stroke="#231F20" stroke-width="3.1473" stroke-miterlimit="10" d="M320.144,462.884v1.196
	c0,11.801-9.136,21.388-20.407,21.388c-11.274,0-20.407-9.587-20.407-21.388v-1.196H320.144z"/>
<path id="PRIMARY_10_" fill="#FFFA00" stroke="#231F20" stroke-width="3.1473" stroke-miterlimit="10" d="M199.692,383.215
	c-1.602,1.871-1.14,4.882,1.029,6.723l35.584,30.165c2.168,1.84,5.221,1.815,6.823-0.062l0,0c1.596-1.865,1.14-4.876-1.028-6.717
	l-35.585-30.165C204.346,381.32,201.287,381.351,199.692,383.215L199.692,383.215z"/>
<path id="SECONDARY_10_" fill="#C802FF" stroke="#231F20" stroke-width="3.1473" stroke-miterlimit="10" d="M233.764,418.525
	l-0.779,0.908c-7.686,8.986-20.882,10.385-29.464,3.109c-8.582-7.273-9.296-20.467-1.611-29.453l0.779-0.914L233.764,418.525z"/>
</svg>
