<?xml version="1.0" encoding="utf-8"?>
<!-- Generator: Adobe Illustrator 16.0.0, SVG Export Plug-In . SVG Version: 6.00 Build 0)  -->
<svg version="1.1" id="Layer_1" xmlns="http://www.w3.org/2000/svg" xmlns:xlink="http://www.w3.org/1999/xlink" x="0px" y="0px"
	 width="612px" height="792px" viewBox="0 0 612 792" enable-background="new 0 0 612 792" xml:space="preserve">
<rect x="178.362" y="272.457" fill-opacity="0" fill="#231F20" width="254.795" height="248.595"/>
<path id="PRIMARY_3_" fill="#FFFA00" stroke="#231F20" stroke-width="3.1621" stroke-miterlimit="10" d="M433.157,376.874V358
	c0.273-4.175,0-6.057,0-9.338c0-16.677-13.743-30.595-30.636-30.595H253.341c-14.112,0-25.959,9.446-29.49,22.274
	c-1.518,5.215-1.692,10.899-0.157,16.527l11.29,139.555c1.986,7.279-0.006,14.795,2.728,19.433c0.39,0.664,0.878,1.27,1.487,1.807
	c21.119,2.313,43.239,1.775,64.203,1.856c13.882,0.053,26.935-1.801,39.714-0.993c1.253,0.08,3.833-0.475,5.111-0.596
	c5.111-0.484,9.806-0.141,15.027-0.671c0.648-0.342,1.278-0.708,1.88-1.099c3.023-1.959,5.45-4.558,7.054-7.768l58.107-116.282
	C432.543,387.609,433.17,382.565,433.157,376.874C434.742,376.406,433.157,376.916,433.157,376.874z"/>
<path id="SECONDARY_3_" fill="#C802FF" stroke="#231F20" stroke-width="3.1621" stroke-miterlimit="10" d="M344.96,329.154
	c3.678,2.049,16.825,4.515,14.479,13.421c-4.517,6.632-13.191-0.233-17.55-2.544c1.078,1.134,2.7,2.842,3.763,4.817
	c2.679,4.242-1.874,13.106-8.43,10.755c-1.449-1.526-4.202-11.5-4.282-6.784c2.126,4.51,2.132,10.613-2.267,10.537
	c-4.43,2.159-8.838-4.023-13.194-6.336c2.16,2.274,4.356,2.313,4.316,4.551c-2.39,11.14-17.697,6.396-19.741-2.586
	c-2.237,2.198-2.313,6.671-5.372,8.572c-1.249,0.672-2.695,0.998-4.382,0.998c-1.684,0.005-3.605-0.313-5.795-0.916
	c-5.466-1.197-5.438-2.875-4.032-4.805c1.409-1.933,4.193-4.121,4.231-6.356c-4.434,2.159-6.428,4.875-10.862,7.031
	c-3.777,3.041-4.981,2.01-5.781,0.6c-0.8-1.413-0.909-3.091-0.873-5.327c0.04-2.235,1.88-5.28,4.117-7.477
	c-4.201,5.636-6.42,7.062-11.684,8.785c-1.751,0.203-3.465,0.111-4.972-0.329c-3.011-0.882-5.193-3.154-5.158-7.255
	c0.067-1.956,0.858-3.898,2.123-5.558c2.53-3.308,6.964-5.467,11.343-4.271c-6.595-0.117-10.991-0.194-16.795-2.312
	c-1.636-1.043-2.792-2.308-3.511-3.635c-3.591-6.654,3.755-14.942,16.384-5.052c-20.208-15.825-5.503-41.452,3.485-10.86
	c-8.988-30.592-6.155-34.323,9.146-8.757c-15.301-25.566,9.342-36.832,13.438-5.775c-4.096-31.057,9.902-36.269,16.372-1.917
	c-6.469-34.352,7.881-30.789,16.295,2.493c-8.414-33.282,20.806-27.106,13.237,6.243c7.568-33.349,26.799-20.181,8.841,9.072
	c11.225-18.285,19.782-7.497,18.28,1.959c-0.298,1.892-1.004,3.729-2.172,5.271c-1.161,1.542-2.789,2.787-4.945,3.49
	C350.864,329.603,348.204,329.769,344.96,329.154z"/>
<path id="SECONDARY_5_" fill="#C802FF" stroke="#231F20" stroke-width="3.1621" stroke-miterlimit="10" d="M235.186,330.891
	c-1.398-10.042,1.694-29.082-3.932-34.533c-14.942-14.477-37.677-7.238-41.841,6.98c-4.585,15.651,9.771,40.573,12.747,58.011
	c1.966,11.523,14.152,22.648,27.128-8.535"/>
<path fill="none" stroke="#231F20" stroke-width="3.1621" stroke-miterlimit="10" d="M200.542,302.922
	c2.9-5.911,12.325-11.039,22.619-1.894"/>
<path id="_x3C_Path_x3E_" fill="none" stroke="#231F20" stroke-width="3.1621" stroke-miterlimit="10" d="M219.445,327.983
	c-0.46-3.318,0.797-3.009-1.063-4.81c-4.938-4.785-12.452-2.394-13.828,2.306c-1.516,5.173,3.23,13.41,4.213,19.173
	c0.65,3.809,4.677,7.486,8.965-2.822"/>
</svg>
