<?xml version="1.0" encoding="utf-8"?>
<!-- Generator: Adobe Illustrator 16.0.0, SVG Export Plug-In . SVG Version: 6.00 Build 0)  -->
<svg version="1.1" id="Layer_1" xmlns="http://www.w3.org/2000/svg" xmlns:xlink="http://www.w3.org/1999/xlink" x="0px" y="0px"
	 width="612px" height="792px" viewBox="0 0 612 792" enable-background="new 0 0 612 792" xml:space="preserve">
<rect x="178.581" y="332.535" fill-opacity="0" fill="#231F20" width="256" height="128.143"/>
<path id="PRIMARY_18_" fill="#F1F1F1" stroke="#231F20" stroke-width="3.6597" stroke-miterlimit="10" d="M427.454,460.316H324.447
	H221.442c0-48.786,4.927-88.334,61.817-88.334C340.148,371.982,427.454,411.53,427.454,460.316z"/>
<path fill="none" stroke="#231F20" stroke-width="3.6597" stroke-miterlimit="10" d="M409.299,460.316
	c0-30.78-35.497-55.687-79.368-55.687"/>
<path fill="none" stroke="#231F20" stroke-width="3.6597" stroke-miterlimit="10" d="M391.429,460.316
	c0-20.047-34.036-36.266-76.103-36.266"/>
<path fill="none" stroke="#231F20" stroke-width="3.6597" stroke-miterlimit="10" d="M355.914,460.316
	c0-9.457-22.067-17.111-49.333-17.111"/>
<path fill="none" stroke="#231F20" stroke-width="3.6597" stroke-miterlimit="10" d="M350.17,385.623
	c0,10.504-9.053,19.007-20.239,19.007"/>
<path fill="none" stroke="#231F20" stroke-width="3.6597" stroke-miterlimit="10" d="M329.931,404.63
	c0,10.755-5.227,19.457-11.686,19.457"/>
<path fill="none" stroke="#231F20" stroke-width="3.6597" stroke-miterlimit="10" d="M318.245,421.846
	c0,11.806-5.216,21.359-11.664,21.359"/>
<path fill="none" stroke="#231F20" stroke-width="3.6597" stroke-miterlimit="10" d="M365.731,435.66
	c0,7.545-11.821,13.647-26.434,13.647"/>
<path fill="none" stroke="#231F20" stroke-width="3.6597" stroke-miterlimit="10" d="M387.87,421.073
	c0,8.063-9.903,14.587-22.139,14.587"/>
<path fill="none" stroke="#231F20" stroke-width="3.6597" stroke-miterlimit="10" d="M400.663,413.121
	c0,5.721-5.102,10.351-11.406,10.351"/>
<path fill="none" stroke="#231F20" stroke-width="3.6597" stroke-miterlimit="10" d="M306.581,443.205
	c0,9.456-7.495,17.111-16.759,17.111"/>
<path fill="none" stroke="#231F20" stroke-width="3.6597" stroke-miterlimit="10" d="M341.038,445.646
	c0,8.109-8.56,14.67-19.135,14.67"/>
</svg>
