<?xml version="1.0" encoding="utf-8"?>
<!-- Generator: Adobe Illustrator 16.0.0, SVG Export Plug-In . SVG Version: 6.00 Build 0)  -->
<svg version="1.1" id="Layer_1" xmlns="http://www.w3.org/2000/svg" xmlns:xlink="http://www.w3.org/1999/xlink" x="0px" y="0px"
	 width="612px" height="792px" viewBox="0 0 612 792" enable-background="new 0 0 612 792" xml:space="preserve">
<rect x="278.5" y="344.963" fill-opacity="0" fill="#231F20" width="57" height="103.121"/>
<path id="PRIMARY_17_" fill="#F1F1F1" stroke="#231F20" stroke-miterlimit="10" d="M307.678,433.915h0.256
	c0.052,2.55,2.874,4.601,6.332,4.591c3.475-0.01,6.278-2.103,6.259-4.675c-0.021-2.402-2.496-4.371-5.662-4.609l-0.488-61.378
	c3.157-0.258,5.607-2.241,5.588-4.644c-0.021-2.572-2.857-4.647-6.335-4.638c-3.457,0.012-6.244,2.079-6.258,4.629l-0.254,0.001
	c-0.052-2.55-2.874-4.601-6.331-4.591c-3.476,0.012-6.281,2.104-6.26,4.676c0.018,2.196,2.093,4.026,4.865,4.507l0.492,61.588
	c-2.767,0.496-4.812,2.34-4.794,4.536c0.022,2.572,2.855,4.647,6.334,4.637C304.879,438.535,307.666,436.467,307.678,433.915z"/>
<circle fill="none" stroke="#231F20" stroke-miterlimit="10" cx="306.5" cy="354.606" r="2.5"/>
<circle fill="none" stroke="#231F20" stroke-miterlimit="10" cx="304" cy="427.606" r="2.5"/>
</svg>
