<?xml version="1.0" encoding="utf-8"?>
<!-- Generator: Adobe Illustrator 16.0.0, SVG Export Plug-In . SVG Version: 6.00 Build 0)  -->
<svg version="1.1" id="Layer_1" xmlns="http://www.w3.org/2000/svg" xmlns:xlink="http://www.w3.org/1999/xlink" x="0px" y="0px"
	 width="612px" height="792px" viewBox="0 0 612 792" enable-background="new 0 0 612 792" xml:space="preserve">
<rect x="253.5" y="379.606" fill-opacity="0" fill="#231F20" width="105" height="34"/>
<path id="PRIMARY_14_" fill="#F1F1F1" stroke="#231F20" stroke-miterlimit="10" d="M348.624,397.1
	c-0.29-0.614-0.645-1.18-1.044-1.703c1.677-2.357,2.294-4.815,1.557-7.144c-2.21-6.974-15.672-10.13-30.071-7.054
	c-1.05,0.224-2.067,0.482-3.067,0.759c-3.542-0.787-7.49-1.222-11.67-1.179c-4.392,0.045-8.517,0.606-12.167,1.547
	c-1.586-0.505-3.248-0.952-4.978-1.321c-14.399-3.075-27.862,0.081-30.071,7.054c-1.021,3.226,0.548,6.701,3.951,9.81
	c-1.886,5.097,0.843,11.104,6.411,13.737c5.848,2.766,12.603,0.756,15.082-4.49c0.039-0.083,0.065-0.168,0.103-0.252
	c5.797,0.85,11.297,0.7,15.798-0.303c2.017,0.212,4.107,0.327,6.269,0.306c1.026-0.011,2.035-0.055,3.031-0.119
	c5.397,1.21,12.235,1.21,19.309-0.301c0.033-0.007,0.064-0.015,0.098-0.022c0.088,0.231,0.173,0.464,0.28,0.691
	c2.48,5.246,9.234,7.256,15.083,4.49C348.375,408.839,351.104,402.345,348.624,397.1z M274.583,397.069
	c-5.545,0-10.041-0.927-10.041-2.068c0-1.143,4.496-2.069,10.041-2.069c5.546,0,10.041,0.927,10.041,2.069
	C284.624,396.143,280.129,397.069,274.583,397.069z M333.12,397.606c-5.545,0-10.041-0.927-10.041-2.068
	c0-1.143,4.496-2.069,10.041-2.069c5.546,0,10.041,0.927,10.041,2.069C343.161,396.68,338.666,397.606,333.12,397.606z"/>
</svg>
