<?xml version="1.0" encoding="utf-8"?>
<!-- Generator: Adobe Illustrator 16.0.0, SVG Export Plug-In . SVG Version: 6.00 Build 0)  -->
<svg version="1.1" id="Layer_1" xmlns="http://www.w3.org/2000/svg" xmlns:xlink="http://www.w3.org/1999/xlink" x="0px" y="0px"
	 width="612px" height="792px" viewBox="0 0 612 792" enable-background="new 0 0 612 792" xml:space="preserve">
<rect x="278.5" y="342.156" fill-opacity="0" fill="#231F20" width="57" height="108.807"/>
<path id="PRIMARY_16_" fill="#F1F1F1" stroke="#231F20" stroke-miterlimit="10" d="M306.68,428.692h0.254
	c0.054,2.943,2.871,5.314,6.322,5.305c3.47-0.009,6.267-2.424,6.244-5.395c-0.022-2.773-2.494-5.049-5.654-5.326l-0.533-70.878
	c3.151-0.295,5.593-2.585,5.573-5.359c-0.021-2.97-2.853-5.368-6.324-5.357c-3.45,0.01-6.23,2.396-6.242,5.341l-0.254,0.001
	c-0.053-2.945-2.871-5.314-6.321-5.306c-3.469,0.011-6.267,2.425-6.245,5.395c0.021,2.536,2.093,4.651,4.86,5.208l0.535,71.12
	c-2.76,0.572-4.801,2.699-4.781,5.236c0.022,2.97,2.852,5.368,6.325,5.357C303.889,434.024,306.668,431.638,306.68,428.692z"/>
<circle fill="none" stroke="#231F20" stroke-miterlimit="10" cx="307" cy="352.606" r="2.5"/>
<ellipse id="PRIMARY_15_" fill="#F1F1F1" stroke="#231F20" stroke-miterlimit="10" cx="306.5" cy="435.107" rx="8.482" ry="12.666"/>
</svg>
