<?xml version="1.0" encoding="utf-8"?>
<!-- Generator: Adobe Illustrator 16.0.0, SVG Export Plug-In . SVG Version: 6.00 Build 0)  -->
<svg version="1.1" id="Layer_1" xmlns="http://www.w3.org/2000/svg" xmlns:xlink="http://www.w3.org/1999/xlink" x="0px" y="0px"
	 width="612px" height="792px" viewBox="0 0 612 792" enable-background="new 0 0 612 792" xml:space="preserve">
<rect x="271.592" y="379.106" fill-opacity="0" fill="#231F20" width="69.979" height="35"/>
<path id="PRIMARY_18_" fill="#F1F1F1" stroke="#231F20" stroke-miterlimit="10" d="M339.622,414.008h-28.157h-28.157
	c0-13.325,1.347-24.127,16.898-24.127C315.757,389.881,339.622,400.683,339.622,414.008z"/>
<path fill="none" stroke="#231F20" stroke-miterlimit="10" d="M334.659,414.008c0-8.407-9.703-15.21-21.695-15.21"/>
<path fill="none" stroke="#231F20" stroke-miterlimit="10" d="M329.774,414.008c0-5.476-9.304-9.905-20.803-9.905"/>
<path fill="none" stroke="#231F20" stroke-miterlimit="10" d="M320.066,414.008c0-2.583-6.032-4.674-13.485-4.674"/>
<path fill="none" stroke="#231F20" stroke-miterlimit="10" d="M318.496,393.606c0,2.869-2.475,5.191-5.532,5.191"/>
<path fill="none" stroke="#231F20" stroke-miterlimit="10" d="M312.964,398.798c0,2.938-1.429,5.314-3.194,5.314"/>
<path fill="none" stroke="#231F20" stroke-miterlimit="10" d="M309.77,403.5c0,3.225-1.426,5.834-3.188,5.834"/>
<path fill="none" stroke="#231F20" stroke-miterlimit="10" d="M322.75,407.273c0,2.061-3.231,3.728-7.226,3.728"/>
<path fill="none" stroke="#231F20" stroke-miterlimit="10" d="M328.802,403.289c0,2.202-2.707,3.984-6.052,3.984"/>
<path fill="none" stroke="#231F20" stroke-miterlimit="10" d="M332.299,401.117c0,1.563-1.395,2.827-3.118,2.827"/>
<path fill="none" stroke="#231F20" stroke-miterlimit="10" d="M306.581,409.334c0,2.583-2.049,4.674-4.581,4.674"/>
<path fill="none" stroke="#231F20" stroke-miterlimit="10" d="M316,410.001c0,2.215-2.34,4.007-5.23,4.007"/>
</svg>
