<?xml version="1.0" encoding="utf-8"?>
<!-- Generator: Adobe Illustrator 16.0.0, SVG Export Plug-In . SVG Version: 6.00 Build 0)  -->
<svg version="1.1" id="Layer_1" xmlns="http://www.w3.org/2000/svg" xmlns:xlink="http://www.w3.org/1999/xlink" x="0px" y="0px"
	 width="612px" height="792px" viewBox="0 0 612 792" enable-background="new 0 0 612 792" xml:space="preserve">
<rect x="178" y="354.897" fill-opacity="0" fill="#231F20" width="256" height="83.419"/>
<path id="SECONDARY" fill="#F1F1F1" stroke="#231F20" stroke-width="2.4458" stroke-miterlimit="10" d="M414.798,397.816
	c-0.707-1.507-1.571-2.895-2.546-4.179c4.089-5.784,5.594-11.814,3.796-17.526c-5.389-17.11-38.21-24.854-73.317-17.307
	c-2.559,0.549-5.04,1.184-7.479,1.862c-8.636-1.931-18.262-2.998-28.452-2.892c-10.707,0.11-20.764,1.488-29.664,3.795
	c-3.867-1.239-7.919-2.336-12.136-3.242c-35.107-7.545-67.931,0.199-73.317,17.306c-2.49,7.914,1.336,16.441,9.632,24.068
	c-4.599,12.505,2.056,27.245,15.63,33.704c14.257,6.786,30.726,1.854,36.771-11.017c0.095-0.203,0.159-0.412,0.25-0.618
	c14.133,2.085,27.543,1.718,38.517-0.742c4.917,0.52,10.014,0.802,15.283,0.75c2.503-0.027,4.962-0.135,7.391-0.293
	c13.159,2.969,29.831,2.969,47.076-0.738c0.081-0.017,0.157-0.035,0.238-0.055c0.214,0.568,0.421,1.138,0.683,1.696
	c6.048,12.871,22.515,17.803,36.774,11.017C414.19,426.619,420.843,410.686,414.798,397.816z M234.278,397.742
	c-13.519,0-24.48-2.274-24.48-5.075c0-2.803,10.962-5.077,24.48-5.077c13.521,0,24.481,2.274,24.481,5.077
	C258.76,395.468,247.8,397.742,234.278,397.742z M376.998,399.06c-13.52,0-24.481-2.273-24.481-5.074
	c0-2.804,10.962-5.077,24.481-5.077c13.521,0,24.48,2.273,24.48,5.077C401.479,396.786,390.52,399.06,376.998,399.06z"/>
</svg>
