<?xml version="1.0" encoding="utf-8"?>
<!-- Generator: Adobe Illustrator 16.0.0, SVG Export Plug-In . SVG Version: 6.00 Build 0)  -->
<svg version="1.1" id="Layer_1" xmlns="http://www.w3.org/2000/svg" xmlns:xlink="http://www.w3.org/1999/xlink" x="0px" y="0px"
	 width="612px" height="792px" viewBox="0 0 612 792" enable-background="new 0 0 612 792" xml:space="preserve">
<rect x="236.5" y="268.523" fill-opacity="0" fill="#231F20" width="141" height="256"/>
<path id="PRIMARY" fill="#F1F1F1" stroke="#231F20" stroke-width="2.4781" stroke-miterlimit="10" d="M308.677,489.349h0.633
	c0.128,6.33,7.109,11.421,15.663,11.396c8.596-0.023,15.531-5.219,15.482-11.604c-0.051-5.964-6.175-10.852-14.006-11.443
	l-1.208-152.372c7.81-0.64,13.871-5.564,13.822-11.528c-0.051-6.386-7.068-11.537-15.671-11.513
	c-8.551,0.029-15.445,5.162-15.479,11.491l-0.628,0.002c-0.128-6.33-7.108-11.421-15.66-11.396
	c-8.599,0.029-15.536,5.222-15.484,11.607c0.044,5.453,5.178,9.996,12.034,11.188l1.216,152.893
	c-6.845,1.232-11.903,5.81-11.858,11.262c0.054,6.386,7.062,11.537,15.669,11.511C301.753,500.818,308.647,495.684,308.677,489.349z
	"/>
<ellipse fill="none" stroke="#231F20" stroke-width="2.4781" stroke-miterlimit="10" cx="305.763" cy="292.464" rx="6.184" ry="6.206"/>
<ellipse fill="none" stroke="#231F20" stroke-width="2.4781" stroke-miterlimit="10" cx="299.579" cy="473.688" rx="6.184" ry="6.206"/>
</svg>
