<?xml version="1.0" encoding="utf-8"?>
<!-- Generator: Adobe Illustrator 16.0.0, SVG Export Plug-In . SVG Version: 6.00 Build 0)  -->
<svg version="1.1" id="Layer_1" xmlns="http://www.w3.org/2000/svg" xmlns:xlink="http://www.w3.org/1999/xlink" x="0px" y="0px"
	 width="612px" height="792px" viewBox="0 0 612 792" enable-background="new 0 0 612 792" xml:space="preserve">
<rect id="head_frame_1_" x="230.5" y="331.5" fill-opacity="0" fill="#231F20" width="151" height="131"/>
<ellipse fill="#FFC18C" stroke="#231F20" stroke-miterlimit="10" cx="305.994" cy="411.922" rx="38.035" ry="43.744"/>
<path id="PRIMARY_9_" fill="#02007A" stroke="#231F20" stroke-miterlimit="10" d="M283.882,419.922
	c0.09-1.773,2.723-3.09,2.818-4.112c0.073-0.217,0.149-0.433,0.228-0.647c0.39-1.071,0.831-2.111,1.318-3.116
	c0.107-0.224,0.219-0.444,0.331-0.665c0.66-1.131,1.977-1.131,3.293,0.186c0,1.316,0,2.633,0,3.949
	c1.316-3.949-1.316-7.898,1.678-11.162c0.104-0.098,0.384-0.396,0.579-0.57c1.692-1.432,1.692-2.748,3.009-2.748
	c3.949,0,0,3.949,1.316,5.266c1.316-2.633,2.633-6.582,5.192-8.518c0.118-0.039,0.314-0.08,0.441-0.124
	c-0.368,0.743,2.265,2.06,2.265,3.376c1.316-1.316,1.316-3.949,4.563-4.882c0.255-0.041,0.49-0.076,0.709-0.107
	c1.925-0.149,3.932-0.142,5.944-0.098c0.135,0.002,0.283,0.014,0.439,0.028c0.192,1.11,0.192,2.426,0.192,3.743
	c2.633-1.316,3.949-2.633,6.818-3.647c0.16-0.02,0.528,0.051,0.443-0.042c-6.741-7.499,13.661,3.928,13.661-5.596
	c0-5.632-6.478-15.465-17.652-18.477c-2.744-0.739-11.489-3.791-11.965-3.78c-10.174-1.117-29.92-8.167-33.649-1.147
	c2.109,1.877,6.553,1.249,9.886,0.884c-1.172,1.486-2.293,3.22-3.293,3.22c1.316,1.316,4.157-0.374,1.717,1.762
	c-0.253,0.095-0.505,0.189-0.756,0.285c-0.251,0.095-0.5,0.192-0.748,0.288c-0.479,0.187-0.946,0.382-1.403,0.587
	c-0.475,0.208-0.938,0.424-1.409,0.652c-0.344,0.116-0.689,0.239-1.036,0.368c-0.316,0.073-0.514,0.24-0.747,0.208
	c-4.185-0.574-10.108-1.67-15.155,3.595c2.633,1.316,5.266-1.536,6.582,1.097c0,0-1.316,0-0.678,0.484
	c-0.184,0.156-0.367,0.306-0.537,0.435c-7.836,5.917-14.362,15.115-14.362,27.136c1.185,0,4.888-3.174,5.704-1.947
	c3.16,4.757,0.412-3.508,0.658-3.51c0.358,1.187-0.145-2.951-0.354-3.918c2.452,1.104-0.927-5.471,1.879-1.833
	c0.157,0.191,0.304,0.395,0.442,0.616c0.138,0.219,0.266,0.453,0.383,0.703c-0.199,0.896-0.286,2.016-0.478,2.92
	c-0.176,0.828-0.32,1.995-0.447,2.902c-0.057,0.322-0.111,0.645-0.162,0.967c-0.075,0.44-0.158,0.944-0.213,1.297
	c-1.05,9.289-6.315,15.213-4.341,25.744c7.68-14.261,3.511-6.143,4.659,0.398c0.123,0.631,0.281,1.297,0.342,1.93
	c0.483,5.059,0.923,10.178,0.923,15.443c0.192-0.964,0.357-2.013,0.523-3.109c0.034-0.221,0.092-0.456,0.103-0.666
	c0.69-0.174,2.007-1.49,3.323-0.174c0-2.633-2.633-5.266-1.688-7.518c0.15-0.084,0.294-0.155,0.43-0.213
	c0.951-0.405,1.568-0.178,2.094,0.273c0.15,0.128,0.332,0.305,0.442,0.438c1.355,0.438,2.672,1.754,2.672,3.07
	c-1.316-2.633-1.316-5.266-2.022-5.938c-0.046-0.218-0.09-0.434-0.142-0.65c-0.104-0.433-0.249-0.871-0.469-1.311
	c0,0,1.316,0,1.117-0.611c0.057-0.102,0.156-0.271,0.253-0.433c0.084-0.155,0.166-0.31,0.247-0.463s0.162-0.306,0.241-0.456
	c0.774,0.646,0.774-0.67,0.774-1.986c2.633,0,2.633,1.316,2.633,3.949c0-3.949,2.633-5.266,3.62-7.471
	c0.151-0.121,0.303-0.244,0.456-0.367c0.456-0.369,0.915-0.748,1.374-1.133c0.191-0.16,0.385-0.322,0.576-0.486
	c3.188,0.242,3.188-2.391,4.371-4.52C283.847,419.957,283.861,419.943,283.882,419.922z M292.171,366.371
	c0.005,0.069-0.499-0.223-1.096-0.583C291.673,365.849,292.074,366.016,292.171,366.371z"/>
<ellipse fill="#FFFFFF" stroke="#231F20" stroke-miterlimit="10" cx="313.088" cy="408.361" rx="6.716" ry="5.695"/>
<ellipse fill="#231F20" cx="315.079" cy="408.361" rx="2.812" ry="2.385"/>
<path fill="none" stroke="#231F20" stroke-miterlimit="10" d="M309.814,403.396c-1.66,1.409-3.915,2.007-5.043,1.337"/>
<ellipse fill="#FFFFFF" stroke="#231F20" stroke-miterlimit="10" cx="333.104" cy="408.361" rx="6.716" ry="5.695"/>
<ellipse fill="#231F20" cx="334.403" cy="408.361" rx="2.812" ry="2.385"/>
<path fill="none" stroke="#231F20" stroke-miterlimit="10" d="M336.377,403.396c1.661,1.409,3.916,2.007,5.043,1.337"/>
<path stroke="#231F20" stroke-miterlimit="10" d="M334.403,433.719c0,5.215-4.615,9.441-10.304,9.441
	c-5.692,0-10.306-4.227-10.306-9.441c0-2.318,4.613,0,10.306,0C329.788,433.719,334.403,431.437,334.403,433.719z"/>
<path fill="#EF7095" stroke="#231F20" stroke-miterlimit="10" d="M324.1,443.16c0.509,0,1.007-0.045,1.496-0.109
	c-0.404-2.898-2.678-5.126-5.446-5.126c-1.557,0-2.959,0.708-3.965,1.839C318.076,441.838,320.918,443.16,324.1,443.16z"/>
<polygon fill="#FFFFFF" points="317.198,437.5 315.379,433.261 317.198,433.261 319.019,433.26 "/>
<path id="PRIMARY_8_" fill="#02007A" stroke="#231F20" stroke-miterlimit="10" d="M246.067,376.045
	c0.112-1.905,0.302-3.771,0.562-5.561C240.849,370.587,239.611,374.382,246.067,376.045z"/>
<path id="PRIMARY_7_" fill="#02007A" stroke="#231F20" stroke-miterlimit="10" d="M246.058,376.203
	c-6.8-0.47-6.812,3.675-0.065,5.862C245.921,380.108,245.949,378.139,246.058,376.203z"/>
<path id="PRIMARY_6_" fill="#02007A" stroke="#231F20" stroke-miterlimit="10" d="M246.686,370.084
	c0.282-1.86,0.637-3.625,1.052-5.248C242.831,363.619,241.671,368.158,246.686,370.084z"/>
<path id="PRIMARY_5_" fill="#02007A" stroke="#231F20" stroke-miterlimit="10" d="M247.845,364.429
	c0.326-1.234,0.685-2.381,1.074-3.413C244.425,360.804,243.759,361.679,247.845,364.429z"/>
<path id="PRIMARY_4_" fill="#02007A" stroke="#231F20" stroke-miterlimit="10" d="M246,382.214
	c-6.808-0.964-6.599,4.042,0.568,5.974C246.267,386.247,246.079,384.24,246,382.214z"/>
<path id="PRIMARY_3_" fill="#02007A" stroke="#231F20" stroke-miterlimit="10" d="M253.473,402.882
	c-7.136,1.372-2.021,2.282,4.957,3.671C256.747,405.482,255.084,404.264,253.473,402.882z"/>
<path id="PRIMARY_2_" fill="#02007A" stroke="#231F20" stroke-miterlimit="10" d="M250.124,398.924
	c-0.872-1.446-1.593-3.071-2.172-4.832C240.717,394.062,242.38,398.373,250.124,398.924z"/>
<path id="PRIMARY_1_" fill="#02007A" stroke="#231F20" stroke-miterlimit="10" d="M253.097,402.572
	c-1.13-0.989-2.099-2.206-2.934-3.58c-7.521,0.208-4.482,4.914,3.288,3.872C253.333,402.764,253.213,402.675,253.097,402.572z"/>
<path id="PRIMARY" fill="#02007A" stroke="#231F20" stroke-miterlimit="10" d="M247.915,393.987
	c-0.579-1.779-1.013-3.689-1.327-5.671C239.477,387.541,240.509,392.972,247.915,393.987z"/>
<path id="SECONDARY" fill="#7CD5FF" stroke="#231F20" stroke-miterlimit="10" d="M257.184,403.168
	c-8.631,1.764-2.296,2.538,5.555,3.906c-7.365-1.082,3.784,2.01,5.655,2.709c1.871,0.698,3.712,1.189,5.478,1.468
	c5.295,0.833,9.905-0.26,12.574-3.478c5.337-6.437-7.602-16.303-18.422-25.28c-7.218-5.985-10.93-14.544-12.604-19.585
	c-0.418-1.26-0.829-2.302-0.896-3.026c-0.303-0.713-0.57-1.092-0.269-1.136c-0.878,0.74-7.951,1.611-1.662,2.923
	c-6.674-0.396-7.72,0.545-1.369,4.244c-6.723-2.692-8.276,3.752-0.988,5.214c-7.484-0.424-9.17,4.516-0.52,5.835
	c-8.685-1.002-8.577,4.177,0.034,6.105c-8.626-1.709-8.264,4.528,0.677,6.023c-8.934-1.429-7.532,5.248,1.406,5.591
	c-8.935-0.301-6.858,4.84,2.223,4.809C244.976,399.523,248.553,404.932,257.184,403.168z"/>
</svg>
