<?xml version="1.0" encoding="utf-8"?>
<!-- Generator: Adobe Illustrator 16.0.0, SVG Export Plug-In . SVG Version: 6.00 Build 0)  -->
<svg version="1.1" id="Layer_1" xmlns="http://www.w3.org/2000/svg" xmlns:xlink="http://www.w3.org/1999/xlink" x="0px" y="0px"
	 width="612px" height="792px" viewBox="0 0 612 792" enable-background="new 0 0 612 792" xml:space="preserve">
<rect id="head_frame_1_" x="178" y="286" fill="#231F20" fill-opacity="0" width="256" height="222"/>
<ellipse fill="#FFC18C" stroke="#231F20" stroke-width="1.695" stroke-miterlimit="10" cx="305.99" cy="422.288" rx="64.483" ry="74.131"/>
<path id="PRIMARY_29_" fill="#02007A" stroke="#231F20" stroke-width="1.695" stroke-miterlimit="10" d="M268.503,435.845
	c0.153-3.004,4.617-5.236,4.778-6.969c0.122-0.367,0.251-0.733,0.384-1.096c0.663-1.815,1.411-3.578,2.235-5.281
	c0.181-0.379,0.371-0.753,0.563-1.127c1.119-1.916,3.352-1.916,5.583,0.316c0,2.229,0,4.462,0,6.69
	c2.231-6.69-2.231-13.383,2.844-18.914c0.176-0.167,0.65-0.672,0.98-0.967c2.87-2.428,2.87-4.656,5.104-4.656
	c6.694,0,0,6.692,2.23,8.923c2.231-4.462,4.464-11.154,8.801-14.435c0.202-0.065,0.532-0.135,0.748-0.21
	c-0.623,1.26,3.841,3.49,3.841,5.722c2.231-2.231,2.231-6.693,7.736-8.273c0.431-0.069,0.831-0.129,1.202-0.182
	c3.262-0.252,6.665-0.24,10.076-0.166c0.229,0.003,0.479,0.023,0.743,0.047c0.328,1.88,0.328,4.112,0.328,6.342
	c4.464-2.229,6.695-4.462,11.558-6.179c0.271-0.035,0.895,0.086,0.752-0.071c-11.431-12.708,23.159,6.656,23.159-9.483
	c0-9.544-10.982-26.208-29.928-31.313c-4.652-1.252-19.477-6.424-20.284-6.405c-17.249-1.893-50.726-13.84-57.046-1.944
	c3.575,3.181,11.11,2.117,16.758,1.498c-1.987,2.518-3.887,5.457-5.583,5.457c2.232,2.23,7.05-0.634,2.912,2.985
	c-0.427,0.161-0.854,0.32-1.281,0.483c-0.424,0.161-0.848,0.325-1.269,0.488c-0.812,0.317-1.603,0.647-2.377,0.995
	c-0.805,0.352-1.592,0.718-2.39,1.104c-0.584,0.197-1.168,0.405-1.755,0.624c-0.535,0.123-0.872,0.406-1.268,0.353
	c-7.093-0.973-17.135-2.83-25.691,6.092c4.463,2.231,8.927-2.603,11.159,1.859c0,0-2.232,0-1.15,0.82
	c-0.312,0.265-0.623,0.519-0.911,0.737c-13.286,10.027-24.35,25.614-24.35,45.986c2.011,0,8.289-5.378,9.672-3.3
	c5.357,8.062,0.698-5.944,1.115-5.948c0.605,2.012-0.246-5.001-0.602-6.639c4.159,1.869-1.569-9.272,3.186-3.106
	c0.268,0.322,0.517,0.668,0.751,1.044c0.232,0.371,0.45,0.768,0.649,1.191c-0.338,1.518-0.487,3.416-0.812,4.948
	c-0.298,1.403-0.542,3.38-0.757,4.917c-0.097,0.546-0.189,1.094-0.275,1.64c-0.126,0.745-0.268,1.599-0.361,2.198
	c-1.779,15.741-10.706,25.78-7.358,43.626c13.021-24.167,5.951-10.41,7.897,0.675c0.209,1.069,0.476,2.198,0.58,3.271
	c0.82,8.574,1.567,17.249,1.567,26.171c0.323-1.634,0.605-3.411,0.886-5.27c0.056-0.374,0.156-0.772,0.173-1.128
	c1.171-0.295,3.404-2.524,5.635-0.295c0-4.462-4.463-8.924-2.863-12.74c0.254-0.142,0.5-0.263,0.729-0.36
	c1.612-0.687,2.658-0.303,3.55,0.462c0.254,0.217,0.563,0.517,0.751,0.743c2.298,0.741,4.53,2.972,4.53,5.201
	c-2.231-4.462-2.231-8.924-3.429-10.063c-0.077-0.368-0.153-0.736-0.239-1.102c-0.177-0.733-0.424-1.477-0.796-2.221
	c0,0,2.232,0,1.894-1.036c0.097-0.172,0.265-0.459,0.427-0.733c0.143-0.263,0.282-0.526,0.42-0.784
	c0.136-0.26,0.275-0.52,0.408-0.773c1.313,1.095,1.313-1.135,1.313-3.366c4.463,0,4.463,2.231,4.463,6.693
	c0-6.693,4.464-8.926,6.136-12.66c0.257-0.206,0.513-0.414,0.774-0.623c0.771-0.625,1.55-1.268,2.328-1.92
	c0.324-0.271,0.652-0.546,0.976-0.823c5.406,0.41,5.406-4.054,7.41-7.661C268.444,435.904,268.466,435.881,268.503,435.845z
	 M282.556,345.095c0.007,0.116-0.848-0.378-1.857-0.988C281.712,344.21,282.391,344.493,282.556,345.095z"/>
<ellipse fill="#FFFFFF" stroke="#231F20" stroke-width="1.695" stroke-miterlimit="10" cx="318.019" cy="416.252" rx="11.386" ry="9.651"/>
<ellipse fill="#231F20" cx="321.393" cy="416.253" rx="4.767" ry="4.042"/>
<path fill="none" stroke="#231F20" stroke-width="1.695" stroke-miterlimit="10" d="M312.467,407.84
	c-2.814,2.387-6.637,3.4-8.55,2.266"/>
<ellipse fill="#FFFFFF" stroke="#231F20" stroke-width="1.695" stroke-miterlimit="10" cx="351.95" cy="416.252" rx="11.388" ry="9.651"/>
<ellipse fill="#231F20" cx="354.154" cy="416.253" rx="4.767" ry="4.042"/>
<path fill="none" stroke="#231F20" stroke-width="1.695" stroke-miterlimit="10" d="M357.5,407.84c2.818,2.387,6.639,3.4,8.55,2.266
	"/>
<path stroke="#231F20" stroke-width="1.695" stroke-miterlimit="10" d="M354.155,459.226c0,8.838-7.824,16-17.472,16
	s-17.47-7.164-17.47-16c0-3.927,7.821,0,17.47,0C346.331,459.226,354.155,455.359,354.155,459.226z"/>
<path fill="#EF7095" stroke="#231F20" stroke-width="1.695" stroke-miterlimit="10" d="M336.686,475.226
	c0.866,0,1.71-0.076,2.536-0.186c-0.684-4.91-4.54-8.687-9.229-8.687c-2.642,0-5.017,1.2-6.724,3.116
	C326.474,472.984,331.291,475.226,336.686,475.226z"/>
<polygon fill="#FFFFFF" points="324.986,465.634 321.9,458.449 324.986,458.449 328.073,458.448 "/>
<path id="PRIMARY_28_" fill="#02007A" stroke="#231F20" stroke-width="1.695" stroke-miterlimit="10" d="M204.393,361.488
	c0.189-3.228,0.513-6.391,0.953-9.424C195.547,352.239,193.446,358.67,204.393,361.488z"/>
<path id="PRIMARY_27_" fill="#02007A" stroke="#231F20" stroke-width="1.695" stroke-miterlimit="10" d="M204.378,361.756
	c-11.531-0.797-11.551,6.228-0.112,9.934C204.146,368.374,204.192,365.037,204.378,361.756z"/>
<path id="PRIMARY_26_" fill="#02007A" stroke="#231F20" stroke-width="1.695" stroke-miterlimit="10" d="M205.441,351.387
	c0.48-3.152,1.082-6.143,1.785-8.894C198.907,340.431,196.94,348.123,205.441,351.387z"/>
<path id="PRIMARY_25_" fill="#02007A" stroke="#231F20" stroke-width="1.695" stroke-miterlimit="10" d="M207.408,341.804
	c0.552-2.092,1.161-4.036,1.819-5.784C201.609,335.661,200.48,337.144,207.408,341.804z"/>
<path id="PRIMARY_24_" fill="#02007A" stroke="#231F20" stroke-width="1.695" stroke-miterlimit="10" d="M204.28,371.942
	c-11.542-1.633-11.188,6.85,0.961,10.124C204.732,378.777,204.412,375.376,204.28,371.942z"/>
<path id="PRIMARY_23_" fill="#02007A" stroke="#231F20" stroke-width="1.695" stroke-miterlimit="10" d="M216.948,406.968
	c-12.097,2.325-3.426,3.867,8.404,6.221C222.5,411.375,219.681,409.31,216.948,406.968z"/>
<path id="PRIMARY_22_" fill="#02007A" stroke="#231F20" stroke-width="1.695" stroke-miterlimit="10" d="M211.27,400.26
	c-1.479-2.45-2.701-5.204-3.684-8.188C195.321,392.021,198.143,399.327,211.27,400.26z"/>
<path id="PRIMARY_21_" fill="#02007A" stroke="#231F20" stroke-width="1.695" stroke-miterlimit="10" d="M216.312,406.443
	c-1.918-1.677-3.561-3.738-4.974-6.067c-12.751,0.353-7.599,8.328,5.573,6.562C216.712,406.768,216.508,406.617,216.312,406.443z"/>
<path id="PRIMARY_20_" fill="#02007A" stroke="#231F20" stroke-width="1.695" stroke-miterlimit="10" d="M207.526,391.894
	c-0.983-3.014-1.719-6.251-2.251-9.61C193.219,380.97,194.97,390.174,207.526,391.894z"/>
<path id="SECONDARY_2_" fill="#7CD5FF" stroke="#231F20" stroke-width="1.695" stroke-miterlimit="10" d="M223.239,407.452
	c-14.632,2.989-3.891,4.302,9.417,6.62c-12.486-1.834,6.417,3.406,9.59,4.591c3.172,1.184,6.291,2.014,9.285,2.487
	c8.977,1.412,16.794-0.44,21.317-5.894c9.05-10.909-12.888-27.628-31.232-42.841c-12.235-10.143-18.531-24.647-21.368-33.19
	c-0.709-2.136-1.404-3.901-1.519-5.128c-0.515-1.208-0.964-1.851-0.456-1.925c-1.49,1.253-13.479,2.729-2.818,4.953
	c-11.314-0.671-13.086,0.923-2.32,7.192c-11.398-4.562-14.029,6.358-1.674,8.836c-12.688-0.718-15.548,7.653-0.883,9.888
	c-14.724-1.698-14.539,7.079,0.06,10.346c-14.626-2.896-14.013,7.674,1.146,10.207c-15.146-2.421-12.768,8.894,2.384,9.475
	c-15.146-0.511-11.625,8.203,3.77,8.149C202.544,401.276,208.607,410.441,223.239,407.452z"/>
<path fill="#FFC18C" stroke="#231F20" stroke-width="1.695" stroke-miterlimit="10" d="M318.015,425.905"/>
<path fill="#FFC18C" stroke="#231F20" stroke-width="1.695" stroke-miterlimit="10" d="M329.334,415.191
	c-0.62-4.834-5.455-8.593-11.319-8.593c-3.953,0-7.436,1.708-9.475,4.303L329.334,415.191z"/>
<path fill="#FFC18C" stroke="#231F20" stroke-width="1.695" stroke-miterlimit="10" d="M340.566,415.191
	c0.622-4.834,5.457-8.593,11.321-8.593c3.953,0,7.436,1.708,9.475,4.303L340.566,415.191z"/>
</svg>
