<?xml version="1.0" encoding="utf-8"?>
<!-- Generator: Adobe Illustrator 16.0.0, SVG Export Plug-In . SVG Version: 6.00 Build 0)  -->
<svg version="1.1" id="Layer_1" xmlns="http://www.w3.org/2000/svg" xmlns:xlink="http://www.w3.org/1999/xlink" x="0px" y="0px"
	 width="612px" height="792px" viewBox="0 0 612 792" enable-background="new 0 0 612 792" xml:space="preserve">
<rect id="head_frame_1_" x="230.5" y="331.5" fill-opacity="0" fill="#231F20" width="151" height="131"/>
<ellipse fill="#FFC18C" stroke="#231F20" stroke-miterlimit="10" cx="305.994" cy="411.922" rx="38.035" ry="43.744"/>
<path id="PRIMARY_29_" fill="#02007A" stroke="#231F20" stroke-miterlimit="10" d="M283.883,419.922
	c0.09-1.773,2.723-3.09,2.818-4.112c0.072-0.217,0.148-0.433,0.227-0.647c0.391-1.071,0.832-2.111,1.318-3.116
	c0.107-0.224,0.219-0.444,0.332-0.665c0.66-1.131,1.977-1.131,3.293,0.186c0,1.316,0,2.633,0,3.949
	c1.316-3.949-1.316-7.898,1.678-11.162c0.104-0.098,0.383-0.396,0.578-0.57c1.693-1.432,1.693-2.748,3.01-2.748
	c3.949,0,0,3.949,1.316,5.266c1.316-2.633,2.633-6.582,5.191-8.518c0.119-0.039,0.314-0.08,0.441-0.124
	c-0.367,0.743,2.266,2.06,2.266,3.376c1.316-1.316,1.316-3.949,4.563-4.882c0.254-0.041,0.49-0.076,0.709-0.107
	c1.924-0.149,3.932-0.142,5.943-0.098c0.135,0.002,0.283,0.014,0.439,0.028c0.193,1.11,0.193,2.426,0.193,3.743
	c2.633-1.316,3.949-2.633,6.818-3.647c0.16-0.02,0.527,0.051,0.443-0.042c-6.742-7.499,13.66,3.928,13.66-5.596
	c0-5.632-6.477-15.465-17.652-18.477c-2.744-0.739-11.488-3.791-11.965-3.78c-10.174-1.117-29.92-8.167-33.648-1.147
	c2.109,1.877,6.553,1.249,9.885,0.884c-1.172,1.486-2.293,3.22-3.293,3.22c1.316,1.316,4.158-0.374,1.717,1.762
	c-0.252,0.095-0.504,0.189-0.756,0.285c-0.25,0.095-0.5,0.192-0.748,0.288c-0.479,0.187-0.945,0.382-1.402,0.587
	c-0.475,0.208-0.939,0.424-1.41,0.652c-0.344,0.116-0.689,0.239-1.035,0.368c-0.316,0.073-0.514,0.24-0.748,0.208
	c-4.184-0.574-10.107-1.67-15.154,3.595c2.633,1.316,5.266-1.536,6.582,1.097c0,0-1.316,0-0.678,0.484
	c-0.184,0.156-0.367,0.306-0.537,0.435c-7.837,5.917-14.363,15.115-14.363,27.136c1.186,0,4.889-3.174,5.705-1.947
	c3.16,4.757,0.412-3.508,0.658-3.51c0.357,1.187-0.145-2.951-0.355-3.918c2.453,1.104-0.926-5.471,1.879-1.833
	c0.158,0.191,0.305,0.395,0.443,0.616c0.137,0.219,0.266,0.453,0.383,0.703c-0.199,0.896-0.287,2.016-0.479,2.92
	c-0.176,0.828-0.32,1.995-0.447,2.902c-0.057,0.322-0.111,0.645-0.162,0.967c-0.074,0.44-0.158,0.944-0.213,1.297
	c-1.049,9.289-6.314,15.213-4.34,25.744c7.68-14.261,3.51-6.143,4.658,0.398c0.123,0.631,0.281,1.297,0.342,1.93
	c0.484,5.059,0.924,10.178,0.924,15.443c0.191-0.964,0.357-2.013,0.523-3.109c0.033-0.221,0.092-0.456,0.102-0.666
	c0.691-0.174,2.008-1.49,3.324-0.174c0-2.633-2.633-5.266-1.689-7.518c0.15-0.084,0.295-0.155,0.43-0.213
	c0.951-0.405,1.568-0.178,2.094,0.273c0.15,0.128,0.332,0.305,0.443,0.438c1.355,0.438,2.672,1.754,2.672,3.07
	c-1.316-2.633-1.316-5.266-2.023-5.938c-0.045-0.218-0.09-0.434-0.141-0.65c-0.104-0.433-0.25-0.871-0.469-1.311
	c0,0,1.316,0,1.117-0.611c0.057-0.102,0.156-0.271,0.252-0.433c0.084-0.155,0.166-0.31,0.248-0.463
	c0.08-0.153,0.162-0.306,0.24-0.456c0.775,0.646,0.775-0.67,0.775-1.986c2.633,0,2.633,1.316,2.633,3.949
	c0-3.949,2.633-5.266,3.619-7.471c0.152-0.121,0.303-0.244,0.457-0.367c0.455-0.369,0.914-0.748,1.373-1.133
	c0.191-0.16,0.385-0.322,0.576-0.486c3.189,0.242,3.189-2.391,4.371-4.52C283.848,419.957,283.861,419.943,283.883,419.922z
	 M292.172,366.371c0.004,0.069-0.5-0.223-1.096-0.583C291.674,365.849,292.074,366.016,292.172,366.371z"/>
<ellipse fill="#FFFFFF" stroke="#231F20" stroke-miterlimit="10" cx="313.089" cy="408.361" rx="6.716" ry="5.695"/>
<ellipse fill="#231F20" cx="315.079" cy="408.361" rx="2.812" ry="2.385"/>
<path fill="none" stroke="#231F20" stroke-miterlimit="10" d="M309.814,403.396c-1.66,1.409-3.914,2.007-5.043,1.337"/>
<ellipse fill="#FFFFFF" stroke="#231F20" stroke-miterlimit="10" cx="333.104" cy="408.361" rx="6.716" ry="5.695"/>
<ellipse fill="#231F20" cx="334.403" cy="408.361" rx="2.812" ry="2.385"/>
<path fill="none" stroke="#231F20" stroke-miterlimit="10" d="M336.377,403.396c1.662,1.409,3.916,2.007,5.043,1.337"/>
<path stroke="#231F20" stroke-miterlimit="10" d="M334.404,433.719c0,5.215-4.615,9.441-10.305,9.441
	c-5.691,0-10.305-4.227-10.305-9.441c0-2.318,4.613,0,10.305,0C329.789,433.719,334.404,431.437,334.404,433.719z"/>
<path fill="#EF7095" stroke="#231F20" stroke-miterlimit="10" d="M324.1,443.16c0.51,0,1.008-0.045,1.496-0.109
	c-0.404-2.898-2.678-5.126-5.445-5.126c-1.557,0-2.959,0.708-3.965,1.839C318.076,441.838,320.918,443.16,324.1,443.16z"/>
<polygon fill="#FFFFFF" points="317.199,437.5 315.379,433.261 317.199,433.261 319.02,433.26 "/>
<path id="PRIMARY_28_" fill="#02007A" stroke="#231F20" stroke-miterlimit="10" d="M246.068,376.045
	c0.111-1.905,0.302-3.771,0.562-5.561C240.85,370.587,239.611,374.382,246.068,376.045z"/>
<path id="PRIMARY_27_" fill="#02007A" stroke="#231F20" stroke-miterlimit="10" d="M246.059,376.203
	c-6.801-0.47-6.813,3.675-0.066,5.862C245.922,380.108,245.949,378.139,246.059,376.203z"/>
<path id="PRIMARY_26_" fill="#02007A" stroke="#231F20" stroke-miterlimit="10" d="M246.686,370.084
	c0.283-1.86,0.638-3.625,1.053-5.248C242.832,363.619,241.672,368.158,246.686,370.084z"/>
<path id="PRIMARY_25_" fill="#02007A" stroke="#231F20" stroke-miterlimit="10" d="M247.846,364.429
	c0.326-1.234,0.685-2.381,1.073-3.413C244.426,360.804,243.76,361.679,247.846,364.429z"/>
<path id="PRIMARY_24_" fill="#02007A" stroke="#231F20" stroke-miterlimit="10" d="M246.001,382.214
	c-6.808-0.964-6.599,4.042,0.567,5.974C246.268,386.247,246.079,384.24,246.001,382.214z"/>
<path id="PRIMARY_23_" fill="#02007A" stroke="#231F20" stroke-miterlimit="10" d="M253.473,402.882
	c-7.135,1.372-2.021,2.282,4.957,3.671C256.748,405.482,255.085,404.264,253.473,402.882z"/>
<path id="PRIMARY_22_" fill="#02007A" stroke="#231F20" stroke-miterlimit="10" d="M250.124,398.924
	c-0.872-1.446-1.593-3.071-2.173-4.832C240.717,394.062,242.381,398.373,250.124,398.924z"/>
<path id="PRIMARY_21_" fill="#02007A" stroke="#231F20" stroke-miterlimit="10" d="M253.098,402.572
	c-1.131-0.989-2.1-2.206-2.934-3.58c-7.521,0.208-4.482,4.914,3.287,3.872C253.334,402.764,253.214,402.675,253.098,402.572z"/>
<path id="PRIMARY_20_" fill="#02007A" stroke="#231F20" stroke-miterlimit="10" d="M247.916,393.987
	c-0.58-1.779-1.014-3.689-1.328-5.671C239.477,387.541,240.51,392.972,247.916,393.987z"/>
<path id="SECONDARY_2_" fill="#7CD5FF" stroke="#231F20" stroke-miterlimit="10" d="M257.184,403.168
	c-8.631,1.764-2.295,2.538,5.555,3.906c-7.365-1.082,3.785,2.01,5.656,2.709c1.871,0.698,3.711,1.189,5.477,1.468
	c5.295,0.833,9.906-0.26,12.574-3.478c5.338-6.437-7.602-16.303-18.422-25.28c-7.217-5.985-10.93-14.544-12.604-19.585
	c-0.418-1.26-0.828-2.302-0.896-3.026c-0.304-0.713-0.569-1.092-0.269-1.136c-0.879,0.74-7.951,1.611-1.662,2.923
	c-6.674-0.396-7.719,0.545-1.369,4.244c-6.723-2.692-8.275,3.752-0.987,5.214c-7.484-0.424-9.171,4.516-0.521,5.835
	c-8.685-1.002-8.576,4.177,0.035,6.105c-8.627-1.709-8.265,4.528,0.676,6.023c-8.934-1.429-7.531,5.248,1.406,5.591
	c-8.934-0.301-6.857,4.84,2.223,4.809C244.977,399.523,248.553,404.932,257.184,403.168z"/>
<path fill="#FFC18C" stroke="#231F20" stroke-miterlimit="10" d="M313.087,414.057"/>
<path fill="#FFC18C" stroke="#231F20" stroke-miterlimit="10" d="M319.764,407.734c-0.367-2.852-3.218-5.07-6.677-5.07
	c-2.332,0-4.386,1.008-5.589,2.539L319.764,407.734z"/>
<path fill="#FFC18C" stroke="#231F20" stroke-miterlimit="10" d="M326.389,407.734c0.367-2.852,3.218-5.07,6.677-5.07
	c2.332,0,4.386,1.008,5.589,2.539L326.389,407.734z"/>
</svg>
