<?xml version="1.0" encoding="utf-8"?>
<!-- Generator: Adobe Illustrator 16.0.0, SVG Export Plug-In . SVG Version: 6.00 Build 0)  -->
<svg version="1.1" id="Layer_1" xmlns="http://www.w3.org/2000/svg" xmlns:xlink="http://www.w3.org/1999/xlink" x="0px" y="0px"
	 width="612px" height="792px" viewBox="0 0 612 792" enable-background="new 0 0 612 792" xml:space="preserve">
<rect id="head_frame_1_" x="178" y="286" fill="#231F20" fill-opacity="0" width="256" height="222"/>
<ellipse fill="#FFC18C" stroke="#231F20" stroke-width="1.695" stroke-miterlimit="10" cx="305.99" cy="422.344" rx="64.483" ry="74.135"/>
<path id="PRIMARY_39_" fill="#02007A" stroke="#231F20" stroke-width="1.695" stroke-miterlimit="10" d="M268.501,435.904
	c0.153-3.006,4.617-5.236,4.778-6.971c0.124-0.367,0.252-0.733,0.386-1.094c0.662-1.817,1.409-3.58,2.235-5.282
	c0.181-0.38,0.371-0.755,0.561-1.126c1.118-1.916,3.351-1.916,5.583,0.314c0,2.231,0,4.464,0,6.692
	c2.231-6.692-2.232-13.383,2.844-18.916c0.176-0.168,0.651-0.673,0.982-0.964c2.868-2.429,2.868-4.657,5.101-4.657
	c6.695,0,0,6.692,2.232,8.923c2.231-4.461,4.463-11.154,8.802-14.434c0.2-0.07,0.532-0.136,0.748-0.212
	c-0.625,1.261,3.839,3.491,3.839,5.723c2.231-2.231,2.231-6.692,7.736-8.275c0.433-0.07,0.831-0.129,1.202-0.182
	c3.264-0.252,6.666-0.241,10.078-0.167c0.229,0.003,0.479,0.024,0.743,0.047c0.326,1.884,0.326,4.114,0.326,6.345
	c4.464-2.229,6.695-4.461,11.558-6.181c0.271-0.035,0.896,0.086,0.752-0.071c-11.429-12.709,23.161,6.654,23.161-9.484
	c0-9.544-10.983-26.208-29.928-31.312c-4.652-1.253-19.479-6.425-20.284-6.406c-17.249-1.893-50.726-13.84-57.047-1.944
	c3.575,3.181,11.11,2.117,16.76,1.499c-1.987,2.518-3.887,5.457-5.583,5.457c2.232,2.23,7.048-0.634,2.912,2.986
	c-0.429,0.161-0.856,0.32-1.281,0.482c-0.427,0.161-0.848,0.326-1.269,0.488c-0.812,0.317-1.604,0.648-2.379,0.995
	c-0.806,0.352-1.59,0.719-2.388,1.105c-0.584,0.196-1.168,0.404-1.757,0.624c-0.536,0.124-0.872,0.406-1.267,0.353
	c-7.095-0.973-17.137-2.831-25.693,6.092c4.464,2.23,8.927-2.603,11.159,1.859c0,0-2.232,0-1.15,0.82
	c-0.312,0.264-0.623,0.519-0.911,0.737c-13.287,10.027-24.349,25.615-24.349,45.988c2.009,0,8.288-5.382,9.67-3.3
	c5.357,8.06,0.698-5.946,1.115-5.949c0.607,2.011-0.246-5.003-0.6-6.642c4.157,1.872-1.571-9.27,3.186-3.104
	c0.267,0.322,0.516,0.67,0.75,1.041c0.233,0.374,0.45,0.77,0.649,1.193c-0.338,1.519-0.485,3.419-0.811,4.946
	c-0.298,1.405-0.542,3.383-0.757,4.919c-0.097,0.548-0.189,1.095-0.275,1.64c-0.127,0.746-0.268,1.601-0.361,2.199
	c-1.781,15.742-10.707,25.782-7.36,43.628c13.021-24.169,5.953-10.411,7.899,0.672c0.209,1.068,0.476,2.197,0.58,3.27
	c0.819,8.578,1.565,17.252,1.565,26.175c0.325-1.635,0.605-3.414,0.887-5.272c0.057-0.371,0.156-0.771,0.175-1.125
	c1.169-0.295,3.402-2.525,5.633-0.295c0-4.462-4.464-8.924-2.862-12.741c0.254-0.146,0.498-0.264,0.729-0.364
	c1.612-0.684,2.658-0.298,3.55,0.463c0.254,0.219,0.563,0.517,0.749,0.745c2.298,0.741,4.531,2.973,4.531,5.201
	c-2.231-4.461-2.231-8.923-3.428-10.062c-0.079-0.371-0.153-0.736-0.241-1.103c-0.176-0.733-0.422-1.476-0.795-2.219
	c0,0,2.232,0,1.894-1.038c0.097-0.17,0.264-0.46,0.429-0.733c0.143-0.261,0.282-0.524,0.419-0.786
	c0.137-0.256,0.275-0.516,0.409-0.77c1.312,1.095,1.312-1.137,1.312-3.366c4.463,0,4.463,2.229,4.463,6.693
	c0-6.693,4.464-8.926,6.138-12.666c0.255-0.203,0.513-0.412,0.773-0.617c0.772-0.629,1.551-1.268,2.33-1.925
	c0.324-0.271,0.652-0.544,0.976-0.818c5.405,0.41,5.405-4.054,7.41-7.663C268.443,435.962,268.466,435.938,268.501,435.904z
	 M282.555,345.151c0.008,0.118-0.846-0.377-1.857-0.988C281.71,344.267,282.391,344.55,282.555,345.151z"/>
<ellipse fill="#FFC18C" stroke="#231F20" stroke-width="1.695" stroke-miterlimit="10" cx="318.017" cy="416.311" rx="11.386" ry="9.654"/>
<path fill="none" stroke="#231F20" stroke-width="1.695" stroke-miterlimit="10" d="M312.467,407.896
	c-2.814,2.388-6.638,3.4-8.55,2.266"/>
<ellipse fill="#FFC18C" stroke="#231F20" stroke-width="1.695" stroke-miterlimit="10" cx="351.95" cy="416.311" rx="11.388" ry="9.654"/>
<path fill="none" stroke="#231F20" stroke-width="1.695" stroke-miterlimit="10" d="M357.5,407.896
	c2.816,2.388,6.639,3.4,8.55,2.266"/>
<path stroke="#231F20" stroke-width="1.695" stroke-miterlimit="10" d="M350.764,471.843c0-8.837-7.825-16-17.471-16
	c-9.648,0-17.472,7.164-17.472,16c0,3.929,7.821,0,17.472,0C342.938,471.843,350.764,475.711,350.764,471.843z"/>
<polygon fill="#FFFFFF" points="321.899,469.227 319.314,463.213 321.9,461.291 324.985,458.749 "/>
<path id="PRIMARY_38_" fill="#02007A" stroke="#231F20" stroke-width="1.695" stroke-miterlimit="10" d="M204.392,361.546
	c0.19-3.229,0.512-6.391,0.953-9.424C195.547,352.297,193.446,358.729,204.392,361.546z"/>
<path id="PRIMARY_37_" fill="#02007A" stroke="#231F20" stroke-width="1.695" stroke-miterlimit="10" d="M204.376,361.813
	c-11.529-0.796-11.549,6.229-0.11,9.935C204.144,368.432,204.192,365.095,204.376,361.813z"/>
<path id="PRIMARY_36_" fill="#02007A" stroke="#231F20" stroke-width="1.695" stroke-miterlimit="10" d="M205.441,351.446
	c0.478-3.153,1.08-6.143,1.783-8.894C198.906,340.488,196.939,348.18,205.441,351.446z"/>
<path id="PRIMARY_35_" fill="#02007A" stroke="#231F20" stroke-width="1.695" stroke-miterlimit="10" d="M207.406,341.861
	c0.552-2.091,1.161-4.035,1.819-5.784C201.607,335.718,200.479,337.201,207.406,341.861z"/>
<path id="PRIMARY_34_" fill="#02007A" stroke="#231F20" stroke-width="1.695" stroke-miterlimit="10" d="M204.278,372.002
	c-11.541-1.633-11.188,6.85,0.962,10.124C204.731,378.835,204.411,375.434,204.278,372.002z"/>
<path id="PRIMARY_33_" fill="#02007A" stroke="#231F20" stroke-width="1.695" stroke-miterlimit="10" d="M216.948,407.025
	c-12.098,2.325-3.426,3.869,8.404,6.223C222.499,411.435,219.679,409.369,216.948,407.025z"/>
<path id="PRIMARY_32_" fill="#02007A" stroke="#231F20" stroke-width="1.695" stroke-miterlimit="10" d="M211.268,400.32
	c-1.477-2.453-2.701-5.206-3.682-8.191C195.321,392.079,198.141,399.383,211.268,400.32z"/>
<path id="PRIMARY_31_" fill="#02007A" stroke="#231F20" stroke-width="1.695" stroke-miterlimit="10" d="M216.311,406.503
	c-1.917-1.679-3.559-3.74-4.975-6.07c-12.75,0.354-7.598,8.327,5.575,6.563C216.71,406.824,216.507,406.675,216.311,406.503z"/>
<path id="PRIMARY_30_" fill="#02007A" stroke="#231F20" stroke-width="1.695" stroke-miterlimit="10" d="M207.525,391.952
	c-0.982-3.015-1.718-6.251-2.25-9.61C193.219,381.028,194.969,390.231,207.525,391.952z"/>
<path id="SECONDARY_3_" fill="#7CD5FF" stroke="#231F20" stroke-width="1.695" stroke-miterlimit="10" d="M223.239,407.512
	c-14.632,2.986-3.893,4.3,9.417,6.618c-12.486-1.835,6.416,3.406,9.588,4.59c3.172,1.183,6.293,2.017,9.287,2.488
	c8.977,1.412,16.792-0.439,21.317-5.893c9.049-10.909-12.888-27.629-31.232-42.842c-12.237-10.143-18.531-24.647-21.368-33.19
	c-0.71-2.135-1.406-3.901-1.519-5.128c-0.513-1.208-0.964-1.85-0.455-1.925c-1.49,1.254-13.479,2.73-2.818,4.954
	c-11.314-0.671-13.088,0.923-2.32,7.192c-11.398-4.563-14.031,6.358-1.676,8.835c-12.688-0.719-15.546,7.652-0.881,9.888
	c-14.726-1.698-14.539,7.078,0.058,10.346c-14.625-2.896-14.013,7.673,1.147,10.207c-15.146-2.422-12.769,8.894,2.384,9.475
	c-15.148-0.51-11.625,8.204,3.769,8.152C202.544,401.336,208.607,410.498,223.239,407.512z"/>
<line fill="none" stroke="#231F20" stroke-width="1.695" stroke-miterlimit="10" x1="327.579" y1="411.08" x2="307.702" y2="420.378"/>
<line fill="none" stroke="#231F20" stroke-width="1.695" stroke-miterlimit="10" x1="342.386" y1="411.08" x2="361.424" y2="421.663"/>
<path fill="#EF7095" stroke="#231F20" stroke-width="1.695" stroke-miterlimit="10" d="M333.295,471.843
	c2.271,0,4.434,0.219,6.424,0.495c0.074-0.041,0.159-0.074,0.233-0.117c-2.526-4.269-7.538-6.265-11.869-4.459
	c-2.333,0.975-3.995,2.883-4.868,5.172C326.063,472.438,329.536,471.843,333.295,471.843z"/>
</svg>
