<?xml version="1.0" encoding="utf-8"?>
<!-- Generator: Adobe Illustrator 16.0.0, SVG Export Plug-In . SVG Version: 6.00 Build 0)  -->
<svg version="1.1" id="Layer_1" xmlns="http://www.w3.org/2000/svg" xmlns:xlink="http://www.w3.org/1999/xlink" x="0px" y="0px"
	 width="612px" height="792px" viewBox="0 0 612 792" enable-background="new 0 0 612 792" xml:space="preserve">
<rect id="head_frame_1_" x="230.5" y="331.5" fill-opacity="0" fill="#231F20" width="151" height="131"/>
<ellipse fill="#FFC18C" stroke="#231F20" stroke-miterlimit="10" cx="305.994" cy="411.955" rx="38.035" ry="43.746"/>
<path id="PRIMARY_39_" fill="#02007A" stroke="#231F20" stroke-miterlimit="10" d="M283.882,419.957
	c0.09-1.773,2.723-3.09,2.818-4.113c0.073-0.217,0.149-0.433,0.228-0.646c0.39-1.072,0.831-2.112,1.318-3.117
	c0.107-0.224,0.219-0.445,0.331-0.664c0.66-1.131,1.977-1.131,3.293,0.186c0,1.316,0,2.633,0,3.949
	c1.316-3.949-1.316-7.898,1.678-11.162c0.104-0.1,0.384-0.398,0.579-0.57c1.692-1.432,1.692-2.748,3.009-2.748
	c3.949,0,0,3.949,1.316,5.266c1.316-2.633,2.633-6.582,5.192-8.518c0.118-0.041,0.314-0.08,0.441-0.125
	c-0.368,0.744,2.265,2.061,2.265,3.377c1.316-1.316,1.316-3.949,4.563-4.883c0.255-0.041,0.49-0.076,0.709-0.107
	c1.925-0.149,3.932-0.142,5.944-0.098c0.135,0.002,0.283,0.014,0.439,0.028c0.192,1.111,0.192,2.427,0.192,3.744
	c2.633-1.316,3.949-2.633,6.818-3.648c0.16-0.02,0.528,0.051,0.443-0.042c-6.741-7.499,13.661,3.927,13.661-5.596
	c0-5.632-6.478-15.465-17.652-18.477c-2.744-0.739-11.489-3.791-11.965-3.78c-10.174-1.117-29.92-8.167-33.649-1.147
	c2.109,1.877,6.553,1.249,9.886,0.884c-1.172,1.486-2.293,3.22-3.293,3.22c1.316,1.316,4.157-0.374,1.717,1.762
	c-0.253,0.095-0.505,0.189-0.756,0.285c-0.251,0.095-0.5,0.192-0.748,0.288c-0.479,0.187-0.946,0.382-1.403,0.587
	c-0.475,0.208-0.938,0.424-1.409,0.652c-0.344,0.116-0.689,0.239-1.036,0.368c-0.316,0.073-0.514,0.24-0.747,0.208
	c-4.185-0.574-10.108-1.67-15.155,3.595c2.633,1.316,5.266-1.536,6.582,1.097c0,0-1.316,0-0.678,0.484
	c-0.184,0.156-0.367,0.306-0.537,0.435c-7.837,5.917-14.362,15.115-14.362,27.137c1.185,0,4.889-3.175,5.704-1.947
	c3.16,4.756,0.412-3.509,0.658-3.511c0.358,1.187-0.145-2.952-0.354-3.919c2.452,1.105-0.927-5.47,1.879-1.832
	c0.157,0.191,0.304,0.396,0.442,0.615c0.138,0.22,0.266,0.454,0.383,0.704c-0.199,0.896-0.286,2.017-0.478,2.919
	c-0.176,0.829-0.32,1.996-0.447,2.902c-0.057,0.323-0.111,0.646-0.162,0.968c-0.075,0.44-0.158,0.944-0.213,1.298
	c-1.05,9.289-6.315,15.213-4.341,25.744c7.68-14.262,3.511-6.144,4.659,0.396c0.123,0.631,0.281,1.297,0.342,1.93
	c0.483,5.061,0.923,10.18,0.923,15.445c0.192-0.965,0.357-2.014,0.523-3.111c0.034-0.219,0.092-0.455,0.103-0.664
	c0.69-0.174,2.007-1.49,3.323-0.174c0-2.633-2.633-5.266-1.688-7.519c0.15-0.085,0.294-0.155,0.43-0.214
	c0.951-0.404,1.568-0.176,2.094,0.273c0.15,0.129,0.332,0.305,0.442,0.439c1.355,0.438,2.672,1.754,2.672,3.07
	c-1.316-2.633-1.316-5.266-2.022-5.938c-0.046-0.218-0.09-0.434-0.142-0.65c-0.104-0.433-0.249-0.871-0.469-1.31
	c0,0,1.316,0,1.117-0.612c0.057-0.101,0.156-0.271,0.253-0.433c0.084-0.154,0.166-0.309,0.247-0.463
	c0.081-0.152,0.162-0.305,0.241-0.455c0.774,0.646,0.774-0.67,0.774-1.986c2.633,0,2.633,1.316,2.633,3.949
	c0-3.949,2.633-5.266,3.62-7.473c0.151-0.12,0.303-0.243,0.456-0.365c0.456-0.371,0.915-0.748,1.374-1.135
	c0.191-0.16,0.385-0.322,0.576-0.484c3.188,0.242,3.188-2.391,4.371-4.521C283.847,419.991,283.861,419.977,283.882,419.957z
	 M292.171,366.405c0.005,0.069-0.499-0.223-1.096-0.583C291.673,365.883,292.074,366.05,292.171,366.405z"/>
<ellipse fill="#FFC18C" stroke="#231F20" stroke-miterlimit="10" cx="313.088" cy="408.395" rx="6.716" ry="5.697"/>
<path fill="none" stroke="#231F20" stroke-miterlimit="10" d="M309.814,403.43c-1.66,1.409-3.915,2.007-5.043,1.337"/>
<ellipse fill="#FFC18C" stroke="#231F20" stroke-miterlimit="10" cx="333.104" cy="408.395" rx="6.716" ry="5.697"/>
<path fill="none" stroke="#231F20" stroke-miterlimit="10" d="M336.377,403.43c1.661,1.409,3.916,2.007,5.043,1.337"/>
<path stroke="#231F20" stroke-miterlimit="10" d="M332.403,441.164c0-5.215-4.615-9.441-10.304-9.441
	c-5.692,0-10.306,4.227-10.306,9.441c0,2.318,4.613,0,10.306,0C327.788,441.164,332.403,443.446,332.403,441.164z"/>
<polygon fill="#FFFFFF" points="315.378,439.62 313.854,436.071 315.379,434.938 317.198,433.438 "/>
<path id="PRIMARY_38_" fill="#02007A" stroke="#231F20" stroke-miterlimit="10" d="M246.067,376.079
	c0.112-1.905,0.302-3.771,0.562-5.561C240.85,370.621,239.611,374.417,246.067,376.079z"/>
<path id="PRIMARY_37_" fill="#02007A" stroke="#231F20" stroke-miterlimit="10" d="M246.058,376.237
	c-6.8-0.47-6.812,3.675-0.065,5.862C245.921,380.142,245.949,378.173,246.058,376.237z"/>
<path id="PRIMARY_36_" fill="#02007A" stroke="#231F20" stroke-miterlimit="10" d="M246.686,370.119
	c0.282-1.86,0.637-3.625,1.052-5.248C242.831,363.653,241.671,368.192,246.686,370.119z"/>
<path id="PRIMARY_35_" fill="#02007A" stroke="#231F20" stroke-miterlimit="10" d="M247.845,364.463
	c0.326-1.234,0.685-2.381,1.073-3.413C244.425,360.838,243.759,361.713,247.845,364.463z"/>
<path id="PRIMARY_34_" fill="#02007A" stroke="#231F20" stroke-miterlimit="10" d="M246,382.249
	c-6.807-0.964-6.599,4.042,0.568,5.974C246.267,386.281,246.078,384.274,246,382.249z"/>
<path id="PRIMARY_33_" fill="#02007A" stroke="#231F20" stroke-miterlimit="10" d="M253.473,402.916
	c-7.136,1.372-2.021,2.283,4.957,3.672C256.747,405.518,255.084,404.299,253.473,402.916z"/>
<path id="PRIMARY_32_" fill="#02007A" stroke="#231F20" stroke-miterlimit="10" d="M250.123,398.959
	c-0.871-1.447-1.593-3.072-2.172-4.833C240.717,394.096,242.38,398.406,250.123,398.959z"/>
<path id="PRIMARY_31_" fill="#02007A" stroke="#231F20" stroke-miterlimit="10" d="M253.097,402.607
	c-1.13-0.99-2.099-2.207-2.934-3.582c-7.521,0.209-4.482,4.914,3.288,3.873C253.333,402.797,253.213,402.709,253.097,402.607z"/>
<path id="PRIMARY_30_" fill="#02007A" stroke="#231F20" stroke-miterlimit="10" d="M247.915,394.021
	c-0.579-1.779-1.013-3.689-1.327-5.671C239.477,387.575,240.509,393.006,247.915,394.021z"/>
<path id="SECONDARY_3_" fill="#7CD5FF" stroke="#231F20" stroke-miterlimit="10" d="M257.184,403.203
	c-8.631,1.762-2.296,2.537,5.555,3.905c-7.365-1.083,3.784,2.01,5.655,2.708c1.871,0.699,3.712,1.191,5.478,1.469
	c5.295,0.833,9.905-0.26,12.574-3.477c5.337-6.438-7.602-16.304-18.422-25.281c-7.218-5.985-10.93-14.544-12.604-19.585
	c-0.419-1.26-0.829-2.302-0.896-3.026c-0.303-0.713-0.569-1.092-0.268-1.136c-0.879,0.74-7.951,1.611-1.662,2.923
	c-6.674-0.396-7.72,0.545-1.369,4.244c-6.723-2.692-8.276,3.752-0.988,5.214c-7.484-0.424-9.17,4.516-0.52,5.835
	c-8.686-1.002-8.576,4.177,0.034,6.105c-8.626-1.709-8.265,4.528,0.677,6.023c-8.934-1.429-7.532,5.248,1.406,5.591
	c-8.935-0.301-6.857,4.841,2.223,4.81C244.977,399.559,248.553,404.965,257.184,403.203z"/>
<line fill="none" stroke="#231F20" stroke-miterlimit="10" x1="318.729" y1="405.309" x2="307.004" y2="410.795"/>
<line fill="none" stroke="#231F20" stroke-miterlimit="10" x1="327.462" y1="405.309" x2="338.691" y2="411.554"/>
<path fill="#EF7095" stroke="#231F20" stroke-miterlimit="10" d="M322.1,441.164c1.339,0,2.615,0.129,3.789,0.292
	c0.044-0.024,0.093-0.044,0.137-0.069c-1.49-2.519-4.446-3.697-7.001-2.631c-1.376,0.575-2.356,1.701-2.871,3.052
	C317.834,441.516,319.883,441.164,322.1,441.164z"/>
</svg>
