<?xml version="1.0" encoding="utf-8"?>
<!-- Generator: Adobe Illustrator 16.0.0, SVG Export Plug-In . SVG Version: 6.00 Build 0)  -->
<svg version="1.1" id="Layer_1" xmlns="http://www.w3.org/2000/svg" xmlns:xlink="http://www.w3.org/1999/xlink" x="0px" y="0px"
	 width="612px" height="792px" viewBox="0 0 612 792" enable-background="new 0 0 612 792" xml:space="preserve">
<rect id="head_frame_1_" x="178" y="286" fill="#231F20" fill-opacity="0" width="256" height="222"/>
<ellipse fill="#FFC18C" stroke="#231F20" stroke-width="1.695" stroke-miterlimit="10" cx="305.99" cy="422.288" rx="64.483" ry="74.131"/>
<path id="PRIMARY_9_" fill="#02007A" stroke="#231F20" stroke-width="1.695" stroke-miterlimit="10" d="M268.501,435.845
	c0.153-3.004,4.617-5.236,4.778-6.969c0.124-0.367,0.252-0.733,0.386-1.096c0.662-1.815,1.409-3.578,2.235-5.281
	c0.181-0.379,0.371-0.753,0.561-1.127c1.118-1.916,3.351-1.916,5.583,0.316c0,2.229,0,4.462,0,6.69
	c2.231-6.69-2.232-13.383,2.844-18.914c0.176-0.167,0.651-0.672,0.982-0.967c2.868-2.428,2.868-4.656,5.101-4.656
	c6.695,0,0,6.692,2.232,8.923c2.231-4.462,4.463-11.154,8.802-14.435c0.2-0.065,0.532-0.135,0.748-0.21
	c-0.625,1.26,3.839,3.49,3.839,5.722c2.231-2.231,2.231-6.693,7.736-8.273c0.433-0.069,0.831-0.129,1.202-0.182
	c3.264-0.252,6.666-0.24,10.078-0.166c0.229,0.003,0.479,0.023,0.743,0.047c0.326,1.88,0.326,4.112,0.326,6.342
	c4.464-2.229,6.695-4.462,11.558-6.179c0.271-0.035,0.896,0.086,0.752-0.071c-11.429-12.708,23.161,6.656,23.161-9.483
	c0-9.544-10.983-26.208-29.928-31.313c-4.652-1.252-19.479-6.424-20.284-6.405c-17.249-1.893-50.726-13.84-57.047-1.944
	c3.575,3.181,11.11,2.117,16.76,1.498c-1.987,2.518-3.887,5.457-5.583,5.457c2.232,2.23,7.048-0.634,2.912,2.985
	c-0.429,0.161-0.856,0.32-1.281,0.483c-0.427,0.161-0.848,0.325-1.269,0.488c-0.812,0.317-1.604,0.647-2.379,0.995
	c-0.806,0.352-1.59,0.718-2.388,1.104c-0.584,0.197-1.168,0.405-1.757,0.624c-0.536,0.123-0.872,0.406-1.267,0.353
	c-7.095-0.973-17.137-2.83-25.693,6.092c4.464,2.231,8.927-2.603,11.159,1.859c0,0-2.232,0-1.15,0.82
	c-0.312,0.265-0.623,0.519-0.911,0.737c-13.285,10.027-24.349,25.614-24.349,45.986c2.009,0,8.287-5.378,9.67-3.3
	c5.357,8.062,0.698-5.944,1.115-5.948c0.607,2.012-0.246-5.001-0.6-6.639c4.157,1.869-1.571-9.272,3.186-3.106
	c0.267,0.322,0.516,0.668,0.75,1.044c0.233,0.371,0.45,0.768,0.649,1.191c-0.338,1.518-0.485,3.416-0.811,4.948
	c-0.298,1.403-0.542,3.38-0.757,4.917c-0.097,0.546-0.189,1.094-0.275,1.64c-0.127,0.745-0.268,1.599-0.361,2.198
	c-1.781,15.741-10.707,25.78-7.36,43.626c13.021-24.167,5.953-10.41,7.899,0.675c0.209,1.069,0.476,2.198,0.58,3.271
	c0.819,8.574,1.565,17.249,1.565,26.171c0.325-1.634,0.605-3.411,0.887-5.27c0.057-0.374,0.156-0.772,0.175-1.128
	c1.169-0.295,3.402-2.524,5.633-0.295c0-4.462-4.464-8.924-2.862-12.74c0.254-0.142,0.498-0.263,0.729-0.36
	c1.612-0.687,2.658-0.303,3.55,0.462c0.254,0.217,0.563,0.517,0.749,0.743c2.298,0.741,4.531,2.972,4.531,5.201
	c-2.231-4.462-2.231-8.924-3.428-10.063c-0.079-0.368-0.153-0.736-0.241-1.102c-0.176-0.733-0.422-1.477-0.795-2.221
	c0,0,2.232,0,1.894-1.036c0.097-0.172,0.264-0.459,0.429-0.733c0.143-0.263,0.282-0.526,0.419-0.784
	c0.137-0.26,0.275-0.52,0.409-0.773c1.312,1.095,1.312-1.135,1.312-3.366c4.463,0,4.463,2.231,4.463,6.693
	c0-6.693,4.464-8.926,6.138-12.66c0.255-0.206,0.513-0.414,0.773-0.623c0.772-0.625,1.551-1.268,2.33-1.92
	c0.324-0.271,0.652-0.546,0.976-0.823c5.405,0.41,5.405-4.054,7.41-7.661C268.443,435.904,268.466,435.881,268.501,435.845z
	 M282.555,345.095c0.008,0.116-0.846-0.378-1.857-0.988C281.71,344.21,282.391,344.493,282.555,345.095z"/>
<ellipse fill="#FFFFFF" stroke="#231F20" stroke-width="1.695" stroke-miterlimit="10" cx="318.017" cy="416.252" rx="11.386" ry="9.651"/>
<ellipse fill="#231F20" cx="321.393" cy="416.253" rx="4.767" ry="4.042"/>
<path fill="none" stroke="#231F20" stroke-width="1.695" stroke-miterlimit="10" d="M312.467,407.84
	c-2.814,2.387-6.638,3.4-8.55,2.266"/>
<ellipse fill="#FFFFFF" stroke="#231F20" stroke-width="1.695" stroke-miterlimit="10" cx="351.95" cy="416.252" rx="11.388" ry="9.651"/>
<ellipse fill="#231F20" cx="354.154" cy="416.253" rx="4.767" ry="4.042"/>
<path fill="none" stroke="#231F20" stroke-width="1.695" stroke-miterlimit="10" d="M357.5,407.84c2.816,2.387,6.639,3.4,8.55,2.266
	"/>
<path stroke="#231F20" stroke-width="1.695" stroke-miterlimit="10" d="M354.154,459.226c0,8.838-7.825,16-17.471,16
	c-9.648,0-17.472-7.164-17.472-16c0-3.927,7.821,0,17.472,0C346.329,459.226,354.154,455.359,354.154,459.226z"/>
<path fill="#EF7095" stroke="#231F20" stroke-width="1.695" stroke-miterlimit="10" d="M336.686,475.226
	c0.864,0,1.709-0.076,2.536-0.186c-0.684-4.91-4.54-8.687-9.231-8.687c-2.641,0-5.017,1.2-6.724,3.116
	C326.474,472.984,331.291,475.226,336.686,475.226z"/>
<polygon fill="#FFFFFF" points="324.985,465.634 321.9,458.449 324.985,458.449 328.071,458.448 "/>
<path id="PRIMARY_8_" fill="#02007A" stroke="#231F20" stroke-width="1.695" stroke-miterlimit="10" d="M204.392,361.488
	c0.19-3.228,0.512-6.391,0.953-9.424C195.545,352.239,193.446,358.67,204.392,361.488z"/>
<path id="PRIMARY_7_" fill="#02007A" stroke="#231F20" stroke-width="1.695" stroke-miterlimit="10" d="M204.376,361.756
	c-11.529-0.797-11.549,6.228-0.11,9.934C204.144,368.374,204.192,365.037,204.376,361.756z"/>
<path id="PRIMARY_6_" fill="#02007A" stroke="#231F20" stroke-width="1.695" stroke-miterlimit="10" d="M205.441,351.387
	c0.478-3.152,1.08-6.143,1.783-8.894C198.906,340.431,196.939,348.123,205.441,351.387z"/>
<path id="PRIMARY_5_" fill="#02007A" stroke="#231F20" stroke-width="1.695" stroke-miterlimit="10" d="M207.406,341.804
	c0.552-2.092,1.161-4.036,1.821-5.784C201.607,335.661,200.479,337.144,207.406,341.804z"/>
<path id="PRIMARY_4_" fill="#02007A" stroke="#231F20" stroke-width="1.695" stroke-miterlimit="10" d="M204.278,371.942
	c-11.542-1.633-11.188,6.85,0.962,10.124C204.731,378.777,204.412,375.376,204.278,371.942z"/>
<path id="PRIMARY_3_" fill="#02007A" stroke="#231F20" stroke-width="1.695" stroke-miterlimit="10" d="M216.948,406.968
	c-12.098,2.325-3.426,3.867,8.404,6.221C222.499,411.375,219.679,409.31,216.948,406.968z"/>
<path id="PRIMARY_2_" fill="#02007A" stroke="#231F20" stroke-width="1.695" stroke-miterlimit="10" d="M211.27,400.26
	c-1.479-2.45-2.701-5.204-3.682-8.188C195.321,392.021,198.141,399.327,211.27,400.26z"/>
<path id="PRIMARY_1_" fill="#02007A" stroke="#231F20" stroke-width="1.695" stroke-miterlimit="10" d="M216.311,406.443
	c-1.917-1.677-3.559-3.738-4.975-6.067c-12.75,0.353-7.598,8.328,5.575,6.562C216.71,406.768,216.507,406.617,216.311,406.443z"/>
<path id="PRIMARY" fill="#02007A" stroke="#231F20" stroke-width="1.695" stroke-miterlimit="10" d="M207.525,391.894
	c-0.982-3.014-1.718-6.251-2.25-9.61C193.219,380.97,194.969,390.174,207.525,391.894z"/>
<path id="SECONDARY" fill="#7CD5FF" stroke="#231F20" stroke-width="1.695" stroke-miterlimit="10" d="M223.239,407.452
	c-14.632,2.989-3.893,4.302,9.417,6.62c-12.486-1.834,6.416,3.406,9.588,4.591c3.172,1.184,6.293,2.014,9.287,2.487
	c8.977,1.412,16.792-0.44,21.317-5.894c9.049-10.909-12.888-27.628-31.232-42.841c-12.237-10.143-18.531-24.647-21.368-33.19
	c-0.709-2.136-1.406-3.901-1.519-5.128c-0.513-1.208-0.966-1.851-0.456-1.925c-1.489,1.253-13.479,2.729-2.818,4.953
	c-11.314-0.671-13.087,0.923-2.32,7.192c-11.398-4.562-14.031,6.358-1.675,8.836c-12.688-0.718-15.546,7.653-0.882,9.888
	c-14.724-1.698-14.541,7.079,0.058,10.346c-14.624-2.896-14.011,7.674,1.147,10.207c-15.146-2.421-12.769,8.894,2.384,9.475
	c-15.148-0.511-11.626,8.203,3.77,8.149C202.542,401.276,208.607,410.441,223.239,407.452z"/>
</svg>
