<?xml version="1.0" encoding="utf-8"?>
<!-- Generator: Adobe Illustrator 16.0.0, SVG Export Plug-In . SVG Version: 6.00 Build 0)  -->
<svg version="1.1" id="Layer_1" xmlns="http://www.w3.org/2000/svg" xmlns:xlink="http://www.w3.org/1999/xlink" x="0px" y="0px"
	 width="612px" height="792px" viewBox="0 0 612 792" enable-background="new 0 0 612 792" xml:space="preserve">
<rect id="head_frame_1_" x="178.687" y="286" fill="#231F20" fill-opacity="0" width="256" height="222"/>
<path id="PRIMARY" fill="#FFC18C" stroke="#231F20" stroke-width="1.695" stroke-miterlimit="10" d="M394.145,445.739l-42.507-8.911
	c0.005-0.288,0.019-0.573,0.019-0.864c0-13.721-4.129-26.237-10.916-35.765c0.618-1.208,1.035-2.546,1.179-3.979l4.792-47.584
	c0.621-6.163-3.874-11.661-10.038-12.281c-6.164-0.62-11.666,3.873-12.286,10.034l-3.809,37.824
	c-3.927-1.449-8.086-2.239-12.393-2.239c-4.752,0-9.321,0.959-13.601,2.71l-3.855-38.296c-0.62-6.162-6.122-10.656-12.287-10.034
	c-6.164,0.621-10.658,6.118-10.038,12.281l4.792,47.584c0.185,1.836,0.812,3.517,1.748,4.965
	c-6.379,9.394-10.231,21.524-10.231,34.777c0,29.816,19.463,53.985,43.474,53.985c2.972,0,5.873-0.371,8.676-1.077l67.144,5.168
	c15.235,3.196,29.854-5.027,32.654-18.366C419.459,462.337,409.378,448.936,394.145,445.739z"/>
<path id="PRIMARY_19_" fill="#FFC18C" stroke="#231F20" stroke-width="1.695" stroke-miterlimit="10" d="M399.161,452.307
	c4.386-2.473,11.172,1.251,15.158,8.317c3.985,7.066,3.659,14.799-0.727,17.271c-4.388,2.472-11.174-1.252-15.159-8.319
	C394.449,462.509,394.773,454.777,399.161,452.307z"/>
<path fill-opacity="0.6" d="M413.926,460.857c3.776,6.625,3.47,13.875-0.688,16.193c-4.156,2.315-10.59-1.172-14.371-7.796
	c-3.776-6.625-3.47-13.874,0.687-16.192C403.714,450.746,410.146,454.234,413.926,460.857z"/>
<path fill="none" stroke="#231F20" stroke-width="1.695" stroke-miterlimit="10" d="M344.926,473.851
	c0,10.282,30.833,18.604,56.977,18.604"/>
<ellipse fill="#FFFFFF" stroke="#231F20" stroke-width="1.695" stroke-miterlimit="10" cx="299.549" cy="417.889" rx="8.996" ry="15.186"/>
<ellipse fill="#231F20" cx="302.271" cy="417.933" rx="4.417" ry="7.456"/>
<ellipse fill="#FFFFFF" stroke="#231F20" stroke-width="1.695" stroke-miterlimit="10" cx="328.533" cy="417.889" rx="8.995" ry="15.186"/>
<ellipse fill="#231F20" cx="331.252" cy="417.933" rx="4.417" ry="7.456"/>
<path id="SECONDARY_1_" fill="#FFFDB5" stroke="#231F20" stroke-width="1.695" stroke-miterlimit="10" d="M281.073,393.583
	l-3.984-42.185c-0.288-2.449,0.944-4.686,2.763-4.991l0,0c1.819-0.307,3.526,1.431,3.819,3.881l4.615,39.831"/>
<path id="SECONDARY" fill="#FFFDB5" stroke="#231F20" stroke-width="1.695" stroke-miterlimit="10" d="M334.84,391.605l3.983-42.185
	c0.29-2.448-0.943-4.685-2.763-4.99l0,0c-1.818-0.307-3.527,1.43-3.82,3.881l-4.614,39.831"/>
</svg>
