<?xml version="1.0" encoding="utf-8"?>
<!-- Generator: Adobe Illustrator 16.0.0, SVG Export Plug-In . SVG Version: 6.00 Build 0)  -->
<svg version="1.1" id="Layer_1" xmlns="http://www.w3.org/2000/svg" xmlns:xlink="http://www.w3.org/1999/xlink" x="0px" y="0px"
	 width="612px" height="792px" viewBox="0 0 612 792" enable-background="new 0 0 612 792" xml:space="preserve">
<rect id="head_frame_1_" x="231.187" y="331.5" fill-opacity="0" fill="#231F20" width="151" height="131"/>
<path id="PRIMARY_3_" fill="#FFC18C" stroke="#231F20" stroke-miterlimit="10" d="M358.272,425.761l-25.072-5.259
	c0.003-0.17,0.011-0.338,0.011-0.51c0-8.096-2.436-15.482-6.439-21.104c0.365-0.713,0.611-1.502,0.696-2.348l2.826-28.079
	c0.366-3.637-2.285-6.881-5.921-7.247c-3.636-0.366-6.881,2.285-7.247,5.921l-2.246,22.319c-2.317-0.855-4.77-1.321-7.31-1.321
	c-2.803,0-5.498,0.566-8.022,1.599l-2.274-22.598c-0.366-3.636-3.611-6.288-7.247-5.921c-3.636,0.366-6.287,3.61-5.921,7.247
	l2.826,28.079c0.109,1.083,0.479,2.075,1.031,2.93c-3.763,5.543-6.035,12.701-6.035,20.521c0,17.595,11.48,31.857,25.643,31.857
	c1.753,0,3.464-0.219,5.117-0.636l39.605,3.05c8.986,1.886,17.609-2.967,19.261-10.838
	C373.204,435.555,367.258,427.646,358.272,425.761z"/>
<path fill="#231F20" stroke="#231F20" stroke-miterlimit="10" d="M362.85,453.326c0-6.068-18.187-10.978-33.608-10.978"/>
<ellipse id="PRIMARY_2_" fill="#FFC18C" stroke="#231F20" stroke-miterlimit="10" cx="302.476" cy="409.326" rx="5.306" ry="8.961"/>
<ellipse id="PRIMARY_1_" fill="#FFC18C" stroke="#231F20" stroke-miterlimit="10" cx="319.572" cy="409.326" rx="5.306" ry="8.961"/>
<path id="SECONDARY_3_" fill="#FFFDB5" stroke="#231F20" stroke-miterlimit="10" d="M291.578,394.984l-2.35-24.893
	c-0.17-1.445,0.557-2.765,1.63-2.945l0,0c1.073-0.181,2.08,0.844,2.253,2.29l2.722,23.504"/>
<path id="SECONDARY_2_" fill="#FFFDB5" stroke="#231F20" stroke-miterlimit="10" d="M323.292,393.817l2.35-24.893
	c0.17-1.445-0.557-2.765-1.63-2.945l0,0c-1.073-0.181-2.08,0.844-2.253,2.29l-2.722,23.504"/>
<line fill="none" stroke="#231F20" stroke-miterlimit="10" x1="297.932" y1="403.889" x2="306.688" y2="413.935"/>
<line fill="none" stroke="#231F20" stroke-miterlimit="10" x1="323.95" y1="404.303" x2="315.194" y2="414.349"/>
<ellipse id="PRIMARY_20_" transform="matrix(0.8711 -0.4911 0.4911 0.8711 -167.5876 235.872)" fill="#FFC18C" stroke="#231F20" stroke-miterlimit="10" cx="365.499" cy="437.159" rx="5.378" ry="8.667"/>
<path fill-opacity="0.6" d="M369.939,434.682c2.228,3.909,2.047,8.187-0.406,9.555c-2.451,1.367-6.246-0.691-8.476-4.6
	c-2.228-3.909-2.047-8.187,0.405-9.555C363.916,428.715,367.71,430.773,369.939,434.682z"/>
</svg>
