<?xml version="1.0" encoding="utf-8"?>
<!-- Generator: Adobe Illustrator 16.0.0, SVG Export Plug-In . SVG Version: 6.00 Build 0)  -->
<svg version="1.1" id="Layer_1" xmlns="http://www.w3.org/2000/svg" xmlns:xlink="http://www.w3.org/1999/xlink" x="0px" y="0px"
	 width="612px" height="792px" viewBox="0 0 612 792" enable-background="new 0 0 612 792" xml:space="preserve">
<rect x="240.5" y="269.572" fill-opacity="0" fill="#231F20" width="133" height="253.915"/>
<path id="SECONDARY_81_" fill="#005601" stroke="#231F20" stroke-width="2.3335" stroke-miterlimit="10" d="M345.197,469.888
	c-3.115,5.622-6.686,11.085-10.56,16.422c5.692-9.467,10.83-19.423,14.706-29.605c1.762-6.903,3.042-13.717,4.323-19.476
	c3.586-11.479,3.406-22.29,0.715-32.386c0.328,0.817,0.611,1.639,0.909,2.459c-1.401-7.158-3.969-14.221-7.984-21.092
	c0.003-0.059,0.01-0.116,0.007-0.173c0.483-0.31,0.946-0.64,1.386-0.998c12.945-10.544,7.531-41.299-7.187-58.644
	c0.28-0.59,0.583-1.255,0.87-1.932c2.008-4.747,3.117-9.963,3.117-15.442c0-21.912-17.76-39.674-39.667-39.674
	c-21.908,0-39.668,17.762-39.668,39.674c0,3.129,0.362,6.176,1.047,9.095c0.172,0.732,0.364,1.454,0.574,2.167
	c-0.453,9.599-9.787,16.6-7.453,21.267c3.266,6.171,7.322,12.397,11.669,18.68c0.434,0.627,0.867,1.256,1.246,1.857
	c-21.497,36.527-13.505,81.331,10.211,115.891c-0.01,0.052-0.015,0.109-0.025,0.161c-3.713,4.795-5.946,10.796-5.946,17.331
	c0,15.656,12.689,28.348,28.344,28.348c15.655,0,28.348-12.691,28.348-28.348c0-2.399-0.33-4.717-0.894-6.943
	c0.068-0.109,0.135-0.219,0.203-0.326C338.703,483.502,342.419,477.017,345.197,469.888z M279.259,466.262
	c-0.085-0.344-0.189-0.681-0.259-1.029c0.885,1.328,1.707,2.851,2.487,4.496c-0.487-0.741-0.974-1.495-1.459-2.256
	c0.151,0.337,0.314,0.663,0.461,1.005c0.521,0.843,1.047,1.677,1.574,2.497c0.542,1.215,1.065,2.489,1.579,3.797
	c0.441,0.538,0.889,1.049,1.346,1.534c-0.098,0.106-0.197,0.214-0.294,0.323c-0.218-0.248-0.423-0.521-0.635-0.784
	c0.073,0.189,0.146,0.379,0.219,0.57c-0.205-0.342-0.409-0.693-0.61-1.054c-0.259-0.337-0.505-0.69-0.751-1.046
	c-0.189-0.421-0.384-0.836-0.582-1.246c0.126,0.176,0.255,0.344,0.383,0.518c-0.3-0.586-0.595-1.184-0.884-1.792
	c0.156,0.401,0.315,0.798,0.468,1.203c-0.649-1.34-1.344-2.598-2.1-3.751c-0.337-0.85-0.613-1.729-0.853-2.625
	c0.222,0.364,0.446,0.729,0.669,1.094c-0.105-0.251-0.208-0.499-0.311-0.747C279.557,466.733,279.408,466.497,279.259,466.262z
	 M317.951,419.3c-0.148,0.051-0.292,0.101-0.439,0.155c-0.239-0.032-0.461-0.094-0.687-0.148c0.087-0.068,0.178-0.144,0.267-0.214
	C317.368,419.19,317.648,419.272,317.951,419.3z M317.138,419.057c2.119-1.698,4.819-3.954,7.825-4.055
	c-1.575,2.24-3.845,3.177-6.383,4.075C318.067,419.125,317.591,419.111,317.138,419.057z M323.333,446.563
	c-0.351,2.106-0.925,4.096-1.649,6.006c-0.066,0.444-0.162,0.889-0.273,1.333c0.087-0.386,0.152-0.775,0.205-1.167
	c-0.602,1.559-1.294,3.067-2.087,4.517c-0.335,0.613-0.666,1.196-0.967,1.739c-0.086-0.379-0.173-0.755-0.26-1.131
	c-0.063,0.297-0.134,0.613-0.193,0.894c0.344,1.603,0.713,3.247,1.08,4.909c-0.121-0.518-0.244-1.033-0.371-1.541
	c0.236,1.03,0.474,2.056,0.706,3.074c0.068,0.313,0.135,0.62,0.2,0.933c-0.022-0.116-0.043-0.232-0.068-0.349
	c0.34,1.501,0.654,2.98,0.943,4.445c-0.024-0.17-0.045-0.342-0.07-0.513c0.084,0.442,0.162,0.885,0.241,1.327
	c-0.007-0.025-0.016-0.051-0.024-0.075c0.031,0.161,0.057,0.318,0.086,0.48c-0.002,0-0.004-0.002-0.004-0.002
	c-0.048-0.235-0.101-0.465-0.155-0.697c0.025,0.072,0.05,0.146,0.073,0.219c-0.046-0.244-0.101-0.493-0.146-0.739
	c0.019,0.155,0.041,0.313,0.062,0.468c-0.045-0.194-0.079-0.392-0.13-0.583c-0.25-1.329-0.521-2.658-0.807-3.981
	c0.205,1.014,0.393,2.037,0.561,3.067c-0.022-0.068-0.045-0.137-0.068-0.205c0.071,0.335,0.133,0.67,0.196,1.005l0.002,0.002
	c0,0.005,0.003,0.007,0.003,0.012c0.089,0.448,0.178,0.897,0.262,1.345c-0.027-0.019-0.055-0.034-0.082-0.051
	c-0.057-0.433-0.116-0.863-0.18-1.294c0-0.005-0.003-0.01-0.005-0.014c-0.094-0.263-0.196-0.522-0.296-0.784
	c0.144,0.679,0.277,1.358,0.407,2.047c-0.048-0.03-0.098-0.06-0.144-0.089c-0.18-0.649-0.364-1.3-0.564-1.949
	c0.029,0.178,0.057,0.355,0.086,0.533c-0.009-0.024-0.018-0.048-0.027-0.072c0.068,0.429,0.137,0.863,0.201,1.304
	c-0.014-0.007-0.03-0.019-0.046-0.027c-0.641-2.17-1.372-4.308-2.148-6.396c0.774,1.687,1.433,3.396,1.993,5.119
	c-0.027-0.188-0.057-0.367-0.086-0.552c0.009,0.032,0.018,0.062,0.027,0.091c-0.073-0.465-0.15-0.923-0.226-1.369
	c-0.007-0.017-0.014-0.032-0.021-0.048c-0.078-0.458-0.155-0.907-0.232-1.343c0.004,0.012,0.009,0.023,0.014,0.034
	c-0.235-1.311-0.47-2.522-0.684-3.596c0.378,1.511,0.747,3.097,1.104,4.711c0.162,0.455,0.306,0.916,0.444,1.381
	c-0.715-3.46-1.567-6.951-2.352-10.321c-0.323-1.076-0.653-2.138-1.005-3.159c0.089-0.688,0.167-1.374,0.226-2.063
	c0.615-7.035-0.314-14.057-2.472-21.05c0.774,1.638,1.561,3.281,2.313,4.915c-0.766-1.666-1.545-3.334-2.338-5.002
	c-0.362-1.172-0.75-2.343-1.181-3.512c-0.25-0.682-0.515-1.365-0.788-2.047c-0.224-0.28-0.392-0.492-0.521-0.686
	c-0.13,0.055-0.232,0.121-0.358,0.18c-0.027-0.075-0.072-0.178-0.091-0.237c-0.137,0.062-0.241,0.135-0.374,0.198
	c0.21-0.146,0.424-0.289,0.652-0.433c-0.212-0.422-0.251-0.873-0.26-1.868c0.503,0.024,1.089,0.298,1.805,0.991
	c0.159,0.216,0.405,0.526,0.679,0.868c5.318,6.709,7.057,13.416,6.561,20.125c-0.536-1.271-1.078-2.541-1.639-3.813
	c-0.645-4.645-2.299-9.178-5.132-13.496c1.518,3.412,2.78,6.859,3.696,10.303c-0.146-0.318-0.287-0.636-0.433-0.954
	c0.154,0.339,0.294,0.677,0.446,1.016c1.055,3.986,1.613,7.952,1.529,11.837c0.325-2.88,0.289-5.74-0.089-8.563
	c0.54,1.228,1.103,2.456,1.62,3.685c-0.222,2.983-0.889,5.969-1.88,8.954c-0.096,0.634-0.153,1.273-0.287,1.9
	c-0.044,0.193-0.08,0.364-0.123,0.554c0.209-0.273,0.41-0.524,0.615-0.812c1.027-1.429,1.921-2.917,2.643-4.479
	c0.14-1.748-0.045-3.558-0.679-5.459c0.711,1.775,0.911,3.551,0.747,5.328C322.506,450.216,323.063,448.454,323.333,446.563z
	 M288.527,433.917c-0.002,0.066-0.007,0.135-0.018,0.203c-0.058-0.349-0.112-0.7-0.175-1.046c0.098,0.209,0.171,0.421,0.193,0.636
	C288.528,433.778,288.526,433.847,288.527,433.917z M289.825,423.621c-0.325,1.15-0.584,2.315-0.785,3.496
	c-0.398,1.827-0.664,3.664-0.8,5.508c-0.034-0.173-0.074-0.344-0.109-0.515c0.047-4.602,0.81-9.234,2.536-13.551
	C290.33,420.246,290.058,421.935,289.825,423.621z M288.225,432.846c-0.024,0.354-0.056,0.704-0.069,1.056
	c-0.012-0.399-0.023-0.798-0.024-1.199C288.163,432.753,288.197,432.798,288.225,432.846z M289.985,446.907
	c0.034,0.062,0.051,0.123,0.08,0.185c0-0.007,0-0.014-0.001-0.019c0.007,0.019,0.011,0.036,0.017,0.055
	c0.007,0.017,0.014,0.032,0.021,0.048c-0.016-0.125-0.035-0.25-0.051-0.376c-0.021-0.31-0.034-0.624-0.049-0.937
	c-0.043-0.152-0.079-0.306-0.121-0.458c-0.007-0.062-0.014-0.123-0.021-0.185c-0.221-0.807-0.419-1.627-0.602-2.461
	c-0.228-1.188-0.385-2.359-0.485-3.517c0.04,0.175,0.08,0.351,0.119,0.526c0.168,0.757,0.335,1.511,0.493,2.268
	c0.012,0.014,0.02,0.027,0.031,0.043c0.064,0.321,0.131,0.646,0.202,0.969c-0.028-0.269-0.058-0.538-0.085-0.807
	c0.142,0.185,0.278,0.371,0.401,0.559c0-0.13-0.003-0.26-0.002-0.39c0.028,0.171,0.058,0.344,0.088,0.517
	c1.345,2.124,1.523,4.273,1.494,6.397c0.433,1.413,0.923,2.825,1.488,4.238c1.739,2.435,3.027,4.921,4.067,7.421
	c0.219,0.193,0.433,0.392,0.637,0.592c-1.021-3.689-2.479-7.23-4.704-10.346c2.047,2.866,3.584,6.098,4.79,9.469
	c0.799,0.815,1.479,1.678,2.069,2.573c-0.064,0.157-0.139,0.316-0.183,0.476c-0.169-0.193-0.354-0.383-0.534-0.571
	c0.185,0.239,0.332,0.499,0.501,0.745c-0.043,0.191-0.074,0.383-0.091,0.571c-0.264-0.59-0.536-1.173-0.813-1.747
	c-0.121-0.119-0.251-0.235-0.375-0.354c0.523,1.629,0.979,3.279,1.377,4.934c-0.249-0.212-0.461-0.433-0.7-0.649
	c0.162,0.39,0.333,0.779,0.49,1.169c-0.065,0.014-0.127,0.034-0.191,0.051c-0.104-0.415-0.206-0.828-0.32-1.24
	c0.007,0.007,0.015,0.014,0.021,0.021c-0.014-0.036-0.03-0.07-0.044-0.107c-0.138-0.499-0.297-1-0.451-1.499
	c-0.042-0.185-0.073-0.376-0.125-0.554c0.04,0.18,0.083,0.36,0.121,0.54c-0.187-0.606-0.372-1.21-0.584-1.816
	c-0.389-0.885-0.885-1.695-1.436-2.461c0.24,0.193,0.469,0.39,0.699,0.583c-0.051-0.125-0.101-0.253-0.155-0.378
	c-0.255-0.229-0.54-0.442-0.816-0.659c-1.029-2.215-2.096-4.45-3.251-6.762c0.578,1.732,1.19,3.428,1.822,5.103
	c-0.919-1.053-1.85-2.064-2.649-3.122c0.771,1.208,1.648,2.428,2.546,3.699c-0.069-0.044-0.146-0.085-0.218-0.128
	c-0.859-1.285-1.741-2.543-2.52-3.821c-0.139-0.191-0.268-0.388-0.396-0.584c-0.004-0.034-0.007-0.065-0.011-0.101
	c-0.031-0.055-0.058-0.109-0.089-0.161c0.016,0.059,0.031,0.118,0.048,0.178c-0.082-0.126-0.167-0.251-0.244-0.379
	c0.238,0.842,0.519,1.673,0.839,2.498c-0.123-0.385-0.259-0.771-0.371-1.178c-0.033-0.13-0.053-0.263-0.08-0.393
	c0.227,0.782,0.474,1.555,0.756,2.312c0.743,1.342,1.596,2.536,2.358,3.864c0.125,0.34,0.246,0.68,0.371,1.017
	c0.632,0.882,1.328,1.748,2.113,2.594c0.269,0.679,0.536,1.36,0.802,2.039c-0.002-0.011-0.002-0.022-0.005-0.034
	c-0.094-0.508-0.217-1.009-0.343-1.508c0.334,0.342,0.722,0.672,1.084,1.007c0.024,0.13,0.053,0.262,0.075,0.395
	c0.008,0.043,0.016,0.089,0.024,0.132c0.054,0.303,0.103,0.608,0.153,0.911c0.002,0.021,0.001,0.041,0.004,0.063
	c-0.188,0.045-0.375,0.093-0.561,0.144c-0.144-0.37-0.288-0.739-0.433-1.108c0.073,0.393,0.104,0.784,0.162,1.179
	c-0.345,0.096-0.696,0.18-1.036,0.287c-0.513-1.647-1.043-3.288-1.612-4.92c-0.138-0.395-0.285-0.786-0.429-1.179
	c-0.928-1.294-1.714-2.623-2.353-3.983c-0.124-0.301-0.262-0.595-0.376-0.897c-0.021-0.039-0.042-0.08-0.063-0.119
	c-0.087-0.207-0.162-0.415-0.243-0.622c0.034,0.107,0.053,0.219,0.083,0.328c-0.524-1.007-0.964-2.126-1.253-3.452
	c0.106,0.209,0.211,0.421,0.332,0.626c-0.032-0.111-0.063-0.221-0.093-0.332c0.095,0.178,0.19,0.355,0.29,0.533
	c-0.007-0.025-0.014-0.051-0.02-0.075c-0.095-0.167-0.192-0.331-0.28-0.497c-0.192-0.716-0.361-1.436-0.502-2.16
	c-0.034-0.406-0.076-0.8-0.082-1.247c-0.081-0.207-0.164-0.414-0.246-0.622c-0.049-0.353-0.08-0.709-0.12-1.062
	c-0.028,0.173-0.075,0.355-0.093,0.521c-0.132-0.333-0.261-0.668-0.396-1c-0.011-0.03-0.024-0.06-0.035-0.089
	c0.021-0.483,0.075-0.974,0.182-1.479C289.924,446.795,289.955,446.85,289.985,446.907z M316.333,460.564
	c-0.05-0.193-0.109-0.395-0.168-0.592c0.323,0.569,0.631,1.146,0.938,1.72c0.474,1.167,0.928,2.341,1.36,3.519
	c-0.604-1.355-1.242-2.705-1.898-4.054C316.488,460.961,316.411,460.761,316.333,460.564z M312.382,451.665
	c-0.159-0.303-0.318-0.608-0.479-0.916c0.299,0.656,0.593,1.311,0.887,1.965c0.412,1.068,0.827,2.167,1.239,3.288
	c-1.538-3.129-3.023-6.283-4.231-9.519c-0.861-1.885-1.604-3.802-2.085-5.716c0.239,0.567,0.481,1.117,0.728,1.632
	c0.018,0.06,0.041,0.116,0.059,0.173c-0.009-0.034-0.018-0.068-0.027-0.103c0.229,0.479,0.447,0.923,0.654,1.343l0,0
	c0.07,0.139,0.142,0.284,0.207,0.417c0.354,0.825,0.725,1.659,1.099,2.495c-0.13-0.271-0.26-0.542-0.385-0.815
	C310.782,447.659,311.573,449.601,312.382,451.665z M311.94,426.741c0.282,0.592,0.564,1.185,0.848,1.772
	c0.273,0.574,0.533,1.145,0.807,1.716c-0.413-0.863-0.823-1.729-1.24-2.596C312.195,427.304,312.059,427.005,311.94,426.741z
	 M290.169,451.54c-0.007-0.022-0.017-0.046-0.024-0.068C290.152,451.494,290.162,451.518,290.169,451.54z M295.738,461.053
	c-0.336-0.559-0.688-1.107-1.049-1.652c0.097,0.068,0.191,0.137,0.286,0.205c0.155,0.221,0.31,0.446,0.465,0.67
	C295.54,460.535,295.638,460.795,295.738,461.053z M299.073,467.965c-0.002-0.017-0.001-0.032-0.003-0.049
	c0.002,0.017,0.005,0.032,0.008,0.046C299.076,467.965,299.074,467.965,299.073,467.965z M289.638,448.037
	c-0.995-2.47-1.986-4.932-2.945-7.386c0.983,1.992,2.03,3.954,3.092,5.887C289.694,447.051,289.649,447.55,289.638,448.037z
	 M337.076,459.334c-0.135,0.492-0.263,0.987-0.413,1.477c0.01-0.041,0.012-0.082,0.021-0.123c0.148-0.485,0.283-0.975,0.417-1.463
	C337.094,459.261,337.085,459.298,337.076,459.334z M332.642,468.639c1.28-2.714,2.358-5.523,3.19-8.399
	c-0.271,1.371-0.604,2.728-0.996,4.065C334.175,465.768,333.443,467.212,332.642,468.639z M321.267,454.452
	c0.034-0.134,0.08-0.267,0.111-0.4C321.344,454.184,321.306,454.318,321.267,454.452z M320.711,471.068
	c-0.03-0.155-0.058-0.313-0.087-0.467c0.014,0.041,0.025,0.082,0.039,0.12C320.679,470.838,320.694,470.952,320.711,471.068z
	 M316.972,419.655c-0.406,0.146-0.812,0.292-1.222,0.456c0.255-0.176,0.521-0.376,0.8-0.593
	C316.688,419.571,316.828,419.617,316.972,419.655z M308.813,427.787c-1.027,0.896-1.695,1.905-2.125,2.974
	c0.055-0.937,0.148-1.887,0.311-2.867c-0.163,0.98-0.257,1.933-0.312,2.869c-0.01,0.025-0.023,0.051-0.032,0.075
	c0.058-1.012,0.156-2.003,0.344-2.944c1.777,1.778,2.206-3.199,4.136-3.91C310.235,425.25,309.461,426.518,308.813,427.787z
	 M306.163,435.248c0.025,0.23,0.057,0.463,0.093,0.692c-0.016,0.133-0.027,0.267-0.041,0.401
	C306.181,435.975,306.166,435.612,306.163,435.248z M311.38,453.81c1.48,1.958,2.816,3.961,4.01,5.996
	c0.232,0.675,0.465,1.352,0.69,2.03c0.085,0.355,0.181,0.705,0.253,1.063c0.188,0.463,0.374,0.962,0.565,1.472
	c0.61,1.938,1.183,3.884,1.693,5.808c-0.485-0.244-0.969-0.49-1.47-0.707C315.326,464.457,313.234,459.12,311.38,453.81z
	 M295.389,398.309c-0.167,0.146-0.322,0.304-0.486,0.451c0.142-0.18,0.28-0.364,0.425-0.542c0.045,0.063,0.095,0.132,0.14,0.196
	C295.44,398.38,295.417,398.343,295.389,398.309z M293.892,400.077c-3.918,5.6-6.919,11.666-9.127,17.956
	c-0.049-0.258-0.101-0.518-0.148-0.775c2.272-6.189,5.369-12.039,9.384-17.347c0.05-0.066,0.104-0.133,0.155-0.198
	C294.069,399.836,293.978,399.954,293.892,400.077z M288.734,444.17c0.363,0.7,0.727,1.401,1.087,2.102
	c-0.009,0.045-0.009,0.086-0.018,0.132c-0.16-0.294-0.318-0.59-0.478-0.887c-1.088-2.028-2.158-4.1-3.156-6.208
	c-0.094-0.241-0.186-0.482-0.278-0.725C286.823,440.455,287.775,442.317,288.734,444.17z M282.32,473.049
	c0.105,0.278,0.207,0.563,0.309,0.843c-0.555-0.843-1.076-1.723-1.54-2.652C281.484,471.856,281.896,472.461,282.32,473.049z
	 M344.37,394.64c0.106-1.271,0.542-2.375,1.055-3.407C345.129,392.384,344.777,393.521,344.37,394.64z M335.355,348.313
	c0.362,0.661,0.686,1.338,0.969,2.021c0.284,0.686,0.556,1.363,0.797,2.046c3.685,11.204,9.896,20.604,9.712,31.565
	c-0.046-0.104-0.082-0.207-0.135-0.316c-0.022-0.791-0.031-1.595-0.031-2.409c0,1.93-0.142,3.861-0.408,5.771
	c0.007-14.166-8.786-30.298-13.187-44.154C334.161,344.733,336.969,346.602,335.355,348.313z M326.248,390.23
	c0.663,1.987-1.924,3.64-2.972,5.185C323.215,393.865,324.008,392.215,326.248,390.23z M310.979,367.611
	c0.196,0.472,0.528,0.905,1.055,1.22c0.222,0.316,0.436,0.629,0.687,0.941c3.468,4.285,6.635,8.717,9.456,13.268
	c-0.196-0.183-0.367-0.369-0.565-0.552c-0.407,0.244-0.988,0.608-1.604,0.989c-1.941,1.199-3.917,2.302-5.897,3.366
	c-0.661,0.355-1.235,0.686-1.636,0.986c1.096,3.375,2.456,6.659,3.948,9.891c-0.048-0.101-0.093-0.196-0.147-0.31
	c-2.972-6.247-5.369-12.687-6.479-19.606C309.743,374.519,310.138,371.121,310.979,367.611z M309.62,404.655
	c-0.191,0.383-0.359,0.764-0.482,1.14c2.128-2.222,3.869-4.802,6.088-6.837c0.438-0.312,0.902-0.581,1.379-0.82
	c0.066,0.14,0.121,0.283,0.185,0.422c0.022,0.046,0.022,0.048,0.039,0.084c0.007-0.007,0.016-0.014,0.022-0.021
	c-0.025-0.055-0.111-0.232-0.234-0.492c1.834-0.921,3.969-1.262,6.717-0.574c0.232,0.116,0.475,0.253,0.716,0.393
	c-0.002-0.005-0.002-0.01-0.005-0.014c1.288,0.713,2.534,1.606,3.548,2.68c2.625,2.521,4.453,5.87,2.577,8.808
	c-0.1-0.643-0.241-1.255-0.417-1.841c-0.257,1.23-0.804,2.552-1.752,3.977c0,0.677,0.398,0.362,0.998-0.255
	c0.424-0.196,0.853-0.483,1.297-0.805c-0.014-0.162-0.037-0.317-0.055-0.475c0.893-0.863,1.9-1.588,2.748-1.191
	c0.187-0.068,0.376-0.121,0.567-0.157c-0.123,0.084-0.246,0.176-0.372,0.269c0.137,0.096,0.271,0.217,0.396,0.388
	c-1.022,0.781-2.089,1.531-3.247,2.227c1.21-0.652,2.309-1.333,3.359-2.028c0.226,0.362,0.431,0.827,0.599,1.495
	c0.183,0.729,0.354,1.458,0.516,2.189c1.328,6.023,1.918,12.143,1.757,18.307c0.036-0.178,0.072-0.355,0.109-0.533
	c0.631-3.174,1.055-6.33,1.244-9.462c0.018,3.836-0.388,7.746-1.138,11.688c2.862,5.232,4.453,10.967,2.888,18.016
	c-0.595,2.08-1.199,4.152-1.818,6.215c0.086-0.646,0.141-1.283,0.195-1.922c1.073-4.79,1.623-9.482,1.623-13.628
	c-0.479-2.874-1.572-5.547-2.98-8.138c-0.055,0.285-0.101,0.559-0.142,0.829c-0.012-0.045-0.021-0.091-0.032-0.137
	c-0.004,0.14-0.009,0.283-0.009,0.417c-0.041,0.335-0.073,0.659-0.08,0.962c0.355,0.902,0.654,1.805,0.923,2.71
	c-0.057-0.367-0.113-0.734-0.18-1.099c1.725,5.606,1.943,11.526,0.945,17.368c0.025-0.354,0.037-0.702,0.053-1.054
	c-0.046,0.26-0.111,0.518-0.162,0.775c0.107-1.145,0.171-2.284,0.191-3.416c-0.016-0.702-0.038-1.401-0.096-2.086
	c0.034,2.466-0.141,5.007-0.535,7.578c-0.137,0.547-0.308,1.089-0.467,1.634c0.349-2.37,0.521-4.774,0.53-7.199
	c0.135-1.263,0.229-2.525,0.265-3.792c-0.142-1.035-0.316-2.051-0.559-3.02c-0.062-0.333-0.146-0.654-0.209-0.984
	c-0.246-1.724-0.591-3.435-0.998-5.14c-0.417-1.173-0.871-2.336-1.358-3.493c-0.164-0.472-0.319-0.943-0.492-1.411
	c0.082,0.283,0.178,0.563,0.253,0.846c-2.165-5.016-4.927-9.904-7.829-14.774c-0.304-0.511-0.613-1.023-0.921-1.533
	c-0.036-0.06-0.077-0.116-0.114-0.174c0-0.007,0-0.014,0-0.018c-0.057-0.096-0.113-0.189-0.171-0.285
	c-1.549,0.805-2.875,1.356-4.058,1.719c1.041-0.518,2.215-1.302,3.541-2.368c-1.589,0.909-2.953,1.547-4.149,1.946
	c1.289-0.652,2.812-1.743,4.748-3.501c0.034,0.078,0.089,0.167,0.126,0.246c-0.007-0.072-0.012-0.168-0.017-0.289
	c0.087,0.007,0.174,0.022,0.26,0.034c1.743-3.339,3.11-7.652,1.969-11.422c-0.957-1.548-2.032-2.89-2.909-4.157
	c-5.241-3.45-9.006-0.262-12.604,3.443c0.829-0.995,1.914-2.066,3.259-3.254c-2.621,1.994-4.53,4.262-6.547,6.229
	c-0.048,0.155-0.08,0.308-0.116,0.46c-1.381,1.285-2.798,2.366-4.33,2.876c2.028,0.812,3.614,1.84,4.94,2.92
	c0.188,0.476,0.396,0.961,0.625,1.456c0.523,0.567,1.007,1.126,1.48,1.675c-0.269-0.675-0.503-1.304-0.715-1.907
	c2.502,2.418,3.955,4.829,5.869,5.645c-1.091-0.185-2.055-0.656-2.984-1.347c0.221,0.219,0.446,0.424,0.672,0.617
	c-0.836-0.561-1.643-1.282-2.488-2.133c-0.012-0.031-0.025-0.062-0.039-0.094c-0.378-0.371-0.772-0.766-1.176-1.18
	c0.01,0.021,0.021,0.041,0.032,0.062c-1.636-1.702-3.536-3.703-6.216-5.714C306.591,407.941,308.157,406.306,309.62,404.655z
	 M289.986,367.767c0.68-2.881,0.68-7.548,0.68-9.881c0,15.558,4.233,30.057,9.927,44.001c0.285,0.697,0.573,1.393,0.865,2.088
	c-0.029,0.031-0.053,0.063-0.081,0.096c-6.084-14.232-10.711-28.751-10.711-43.852c0,2.333,0,4.667-0.055,6.445
	c-0.014,0.283,0.073,0.492-0.146,0.864c-2.65,4.487-4.514,9.054-5.786,13.673c0.417-0.768,0.855-1.541,1.319-2.313
	c0,0,0,2.333,0.73,2.281c0.438,0.641,0.873,1.281,1.304,1.923c1.945,2.888,3.827,5.786,5.6,8.699
	c0.295,0.485,0.539,0.98,0.761,1.481c0.938,1.951,0.938,1.951,0.755,5.063c-0.145,0.194-0.281,0.393-0.424,0.588
	c-0.316,0.29-0.638,0.572-0.945,0.875c-3.141,3.091-5.822,6.86-7.782,11.76c-0.541,1.76-1,3.5-1.463,5.244
	c-1.521-8.318-2.382-16.596-1.798-24.713c-0.755,8.466,0.063,17.06,1.535,25.653c-0.157,0.611-0.311,1.22-0.459,1.828
	c0.168-0.513,0.328-1.028,0.508-1.536c0.048,0.282,0.095,0.565,0.145,0.848c-0.803,2.375-1.495,4.777-2.074,7.199
	c-0.105,0.559-0.205,1.114-0.302,1.671c-0.017-0.055-0.034-0.109-0.051-0.164c-0.021,0.091-0.039,0.182-0.058,0.273
	c-0.071-0.292-0.153-0.579-0.217-0.873c0.013-0.055,0.026-0.109,0.039-0.164c-4.408-14.66-5.663-29.362,2.528-44.95
	c1.001-4.059,2.447-8.065,4.495-11.999C289.196,369.17,289.581,368.468,289.986,367.767z M281.023,339.977
	c0.485,0.39,0.97,0.771,1.452,1.151c0.333,0.246,0.664,0.492,0.995,0.741c-0.129,0.244-0.256,0.49-0.385,0.734
	c-0.346-0.305-0.696-0.611-1.093-0.894c-0.444-0.533-0.885-1.062-1.324-1.583c-0.438-0.524-0.873-1.044-1.305-1.557
	C279.903,339.052,280.457,339.521,281.023,339.977z M276.383,356.158c-14.455,31.593-22.262,67.708-2.049,102.074
	C253.812,425.394,260.368,388.947,276.383,356.158z"/>
<circle fill="none" stroke="#231F20" stroke-width="2.3335" stroke-miterlimit="10" cx="307" cy="293.959" r="5.833"/>
</svg>
