<?xml version="1.0" encoding="utf-8"?>
<!-- Generator: Adobe Illustrator 16.0.0, SVG Export Plug-In . SVG Version: 6.00 Build 0)  -->
<svg version="1.1" id="Layer_1" xmlns="http://www.w3.org/2000/svg" xmlns:xlink="http://www.w3.org/1999/xlink" x="0px" y="0px"
	 width="612px" height="792px" viewBox="0 0 612 792" enable-background="new 0 0 612 792" xml:space="preserve">
<rect x="236.5" y="268.965" fill-opacity="0" fill="#231F20" width="141" height="255.153"/>
<path id="SECONDARY_83_" fill="#005601" stroke="#231F20" stroke-width="2.474" stroke-miterlimit="10" d="M337.288,460.209
	c-2.592,5.361-5.563,10.573-8.788,15.665c4.737-9.03,9.013-18.528,12.238-28.242c1.466-6.584,2.531-13.084,3.597-18.579
	c2.985-10.95,2.836-21.264,0.597-30.895c0.272,0.78,0.507,1.563,0.756,2.346c-1.167-6.828-3.303-13.565-6.644-20.12
	c0-0.056,0.008-0.109,0.005-0.165c0.401-0.295,0.788-0.611,1.152-0.952c10.774-10.059,6.27-39.396-5.98-55.942
	c0.233-0.563,0.485-1.199,0.725-1.844c1.671-4.528,2.594-9.506,2.594-14.73c0-20.903-14.779-37.847-33.01-37.847
	c-18.231,0-33.011,16.943-33.011,37.847c0,2.984,0.301,5.891,0.871,8.675c0.144,0.698,0.302,1.387,0.478,2.068
	c-0.378,9.158-8.145,15.834-6.204,20.287c2.719,5.886,6.094,11.826,9.711,17.82c0.361,0.597,0.721,1.199,1.038,1.771
	c-17.89,34.846-11.239,77.585,8.497,110.554c-0.008,0.048-0.012,0.104-0.021,0.154c-3.091,4.574-4.949,10.299-4.949,16.532
	c0,14.936,10.561,27.041,23.588,27.041s23.591-12.105,23.591-27.041c0-2.288-0.275-4.501-0.743-6.623
	c0.055-0.106,0.11-0.21,0.169-0.312C331.882,473.196,334.977,467.009,337.288,460.209z M282.414,456.749
	c-0.071-0.326-0.158-0.65-0.216-0.981c0.737,1.267,1.42,2.719,2.07,4.289c-0.404-0.708-0.811-1.426-1.215-2.153
	c0.126,0.322,0.262,0.634,0.384,0.96c0.435,0.805,0.872,1.6,1.311,2.382c0.451,1.16,0.887,2.373,1.314,3.622
	c0.367,0.513,0.74,1.001,1.12,1.462c-0.081,0.104-0.165,0.206-0.244,0.31c-0.181-0.236-0.353-0.498-0.529-0.747
	c0.062,0.18,0.122,0.36,0.182,0.544c-0.17-0.326-0.34-0.662-0.508-1.005c-0.215-0.321-0.419-0.66-0.625-0.998
	c-0.157-0.403-0.319-0.798-0.484-1.188c0.105,0.166,0.212,0.328,0.319,0.492c-0.25-0.558-0.495-1.128-0.736-1.708
	c0.129,0.382,0.262,0.761,0.389,1.147c-0.54-1.278-1.119-2.479-1.748-3.578c-0.28-0.812-0.51-1.65-0.709-2.503
	c0.185,0.348,0.371,0.693,0.557,1.041c-0.087-0.239-0.174-0.476-0.259-0.713C282.662,457.2,282.537,456.974,282.414,456.749z
	 M314.612,411.95c-0.124,0.049-0.239,0.097-0.365,0.147c-0.198-0.029-0.382-0.09-0.57-0.141c0.073-0.064,0.147-0.138,0.223-0.205
	C314.126,411.847,314.36,411.924,314.612,411.95z M313.938,411.719c1.764-1.619,4.008-3.772,6.511-3.869
	c-1.31,2.139-3.198,3.03-5.313,3.888C314.711,411.783,314.314,411.77,313.938,411.719z M319.093,437.957
	c-0.292,2.011-0.771,3.907-1.374,5.729c-0.054,0.423-0.136,0.848-0.228,1.271c0.072-0.367,0.128-0.737,0.172-1.111
	c-0.5,1.486-1.077,2.926-1.737,4.309c-0.277,0.584-0.556,1.14-0.805,1.657c-0.072-0.36-0.145-0.718-0.217-1.078
	c-0.053,0.283-0.111,0.585-0.159,0.854c0.284,1.527,0.594,3.098,0.898,4.683c-0.102-0.493-0.203-0.985-0.31-1.469
	c0.198,0.98,0.394,1.959,0.587,2.931c0.056,0.3,0.114,0.592,0.169,0.89c-0.021-0.111-0.036-0.221-0.058-0.331
	c0.282,1.433,0.544,2.841,0.785,4.24c-0.021-0.164-0.038-0.326-0.061-0.488c0.072,0.421,0.136,0.844,0.203,1.264
	c-0.005-0.023-0.015-0.048-0.021-0.07c0.026,0.152,0.046,0.303,0.072,0.457c-0.003,0-0.003-0.002-0.003-0.002
	c-0.041-0.223-0.084-0.442-0.13-0.665c0.02,0.07,0.041,0.141,0.061,0.21c-0.036-0.234-0.085-0.471-0.121-0.705
	c0.015,0.147,0.034,0.297,0.051,0.444c-0.039-0.184-0.067-0.372-0.108-0.556c-0.208-1.266-0.436-2.534-0.67-3.798
	c0.17,0.969,0.326,1.944,0.464,2.926c-0.019-0.065-0.036-0.131-0.056-0.195c0.059,0.321,0.109,0.64,0.162,0.959l0.003,0.002
	c0,0.005,0.002,0.008,0.002,0.01c0.072,0.431,0.147,0.858,0.218,1.283c-0.021-0.017-0.044-0.031-0.067-0.046
	c-0.049-0.413-0.097-0.824-0.15-1.237c0-0.002-0.002-0.007-0.005-0.012c-0.077-0.249-0.162-0.498-0.244-0.747
	c0.119,0.647,0.229,1.295,0.339,1.953c-0.041-0.029-0.082-0.059-0.118-0.088c-0.15-0.618-0.305-1.236-0.472-1.857
	c0.024,0.169,0.049,0.341,0.072,0.51c-0.009-0.024-0.015-0.046-0.023-0.07c0.058,0.408,0.113,0.824,0.166,1.244
	c-0.012-0.007-0.023-0.02-0.036-0.026c-0.533-2.07-1.143-4.11-1.787-6.102c0.643,1.609,1.19,3.24,1.657,4.884
	c-0.022-0.179-0.049-0.351-0.073-0.526c0.01,0.031,0.015,0.06,0.024,0.087c-0.063-0.442-0.126-0.88-0.188-1.308
	c-0.005-0.015-0.01-0.029-0.017-0.043c-0.065-0.438-0.128-0.865-0.19-1.281c0.002,0.01,0.004,0.021,0.009,0.031
	c-0.195-1.249-0.391-2.406-0.569-3.431c0.313,1.442,0.623,2.955,0.92,4.494c0.133,0.435,0.254,0.875,0.369,1.317
	c-0.594-3.299-1.304-6.631-1.956-9.845c-0.269-1.026-0.546-2.039-0.836-3.013c0.072-0.657,0.136-1.313,0.186-1.97
	c0.513-6.71-0.263-13.408-2.056-20.079c0.643,1.563,1.3,3.129,1.923,4.688c-0.638-1.588-1.285-3.18-1.942-4.77
	c-0.304-1.119-0.625-2.235-0.985-3.352c-0.208-0.65-0.425-1.303-0.654-1.953c-0.187-0.266-0.326-0.469-0.435-0.654
	c-0.109,0.053-0.193,0.116-0.298,0.174c-0.023-0.072-0.063-0.172-0.077-0.227c-0.113,0.058-0.2,0.128-0.309,0.188
	c0.174-0.138,0.353-0.275,0.541-0.413c-0.177-0.4-0.208-0.831-0.215-1.78c0.418,0.021,0.905,0.282,1.5,0.944
	c0.135,0.206,0.338,0.503,0.564,0.829c4.426,6.398,5.873,12.797,5.46,19.197c-0.444-1.213-0.896-2.423-1.362-3.637
	c-0.536-4.431-1.913-8.754-4.271-12.874c1.264,3.253,2.314,6.544,3.078,9.827c-0.121-0.304-0.239-0.606-0.362-0.91
	c0.13,0.323,0.246,0.647,0.372,0.971c0.879,3.801,1.343,7.585,1.272,11.292c0.271-2.75,0.242-5.479-0.074-8.17
	c0.449,1.17,0.918,2.342,1.348,3.514c-0.184,2.846-0.739,5.695-1.565,8.541c-0.077,0.604-0.125,1.216-0.236,1.815
	c-0.036,0.184-0.068,0.348-0.102,0.526c0.171-0.261,0.338-0.5,0.512-0.773c0.855-1.362,1.597-2.783,2.198-4.274
	c0.116-1.667-0.038-3.393-0.565-5.207c0.592,1.694,0.759,3.388,0.621,5.084C318.404,441.443,318.868,439.762,319.093,437.957z
	 M290.126,425.895c-0.001,0.063-0.005,0.128-0.015,0.193c-0.048-0.333-0.093-0.667-0.146-0.998c0.081,0.201,0.143,0.401,0.161,0.606
	C290.127,425.762,290.126,425.827,290.126,425.895z M291.206,416.072c-0.27,1.098-0.485,2.209-0.652,3.335
	c-0.332,1.744-0.553,3.496-0.666,5.255c-0.029-0.166-0.062-0.328-0.092-0.492c0.039-4.389,0.674-8.808,2.111-12.925
	C291.626,412.854,291.4,414.463,291.206,416.072z M289.875,424.873c-0.02,0.336-0.046,0.672-0.058,1.007
	c-0.008-0.382-0.018-0.761-0.019-1.145C289.823,424.783,289.852,424.827,289.875,424.873z M291.34,438.285
	c0.029,0.059,0.042,0.119,0.066,0.177c0-0.007,0-0.012-0.001-0.017c0.006,0.017,0.01,0.033,0.015,0.051
	c0.006,0.017,0.011,0.031,0.017,0.046c-0.014-0.118-0.029-0.239-0.042-0.357c-0.017-0.295-0.029-0.598-0.041-0.895
	c-0.036-0.145-0.065-0.29-0.1-0.438c-0.006-0.058-0.011-0.116-0.017-0.176c-0.185-0.769-0.349-1.552-0.501-2.347
	c-0.189-1.133-0.32-2.25-0.403-3.356c0.033,0.169,0.066,0.336,0.099,0.503c0.14,0.723,0.278,1.442,0.411,2.165
	c0.008,0.012,0.016,0.024,0.025,0.041c0.053,0.307,0.109,0.613,0.168,0.923c-0.024-0.256-0.048-0.512-0.071-0.771
	c0.117,0.177,0.23,0.355,0.333,0.534c0-0.123-0.002-0.249-0.001-0.372c0.023,0.164,0.048,0.328,0.073,0.492
	c1.12,2.027,1.267,4.077,1.243,6.104c0.36,1.349,0.768,2.694,1.238,4.043c1.447,2.322,2.52,4.695,3.386,7.08
	c0.181,0.184,0.36,0.372,0.529,0.565c-0.849-3.521-2.063-6.898-3.915-9.871c1.705,2.735,2.983,5.818,3.986,9.032
	c0.666,0.778,1.23,1.6,1.722,2.455c-0.053,0.149-0.116,0.302-0.152,0.454c-0.142-0.184-0.295-0.364-0.445-0.546
	c0.153,0.229,0.275,0.476,0.417,0.71c-0.035,0.184-0.062,0.368-0.075,0.547c-0.221-0.563-0.446-1.119-0.676-1.668
	c-0.1-0.113-0.209-0.225-0.312-0.336c0.435,1.554,0.814,3.127,1.146,4.707c-0.207-0.202-0.384-0.413-0.582-0.621
	c0.134,0.373,0.276,0.745,0.407,1.117c-0.053,0.012-0.106,0.031-0.16,0.046c-0.087-0.395-0.171-0.788-0.266-1.182
	c0.006,0.007,0.012,0.012,0.018,0.019c-0.012-0.033-0.025-0.067-0.038-0.101c-0.115-0.477-0.248-0.955-0.375-1.431
	c-0.035-0.177-0.061-0.36-0.104-0.529c0.033,0.172,0.069,0.343,0.101,0.515c-0.156-0.577-0.31-1.152-0.487-1.732
	c-0.323-0.844-0.737-1.616-1.195-2.347c0.201,0.184,0.392,0.372,0.582,0.556c-0.042-0.118-0.083-0.241-0.128-0.359
	c-0.212-0.218-0.45-0.423-0.679-0.629c-0.856-2.114-1.745-4.245-2.707-6.451c0.481,1.652,0.991,3.27,1.516,4.869
	c-0.765-1.006-1.539-1.97-2.205-2.979c0.643,1.152,1.373,2.314,2.12,3.527c-0.058-0.041-0.122-0.079-0.181-0.12
	c-0.715-1.228-1.45-2.427-2.098-3.646c-0.115-0.182-0.222-0.37-0.33-0.556c-0.004-0.034-0.005-0.063-0.01-0.097
	c-0.025-0.051-0.048-0.104-0.074-0.154c0.013,0.058,0.025,0.113,0.04,0.171c-0.068-0.121-0.139-0.241-0.203-0.362
	c0.198,0.803,0.431,1.595,0.698,2.383c-0.103-0.367-0.215-0.734-0.308-1.124c-0.028-0.123-0.044-0.249-0.066-0.374
	c0.188,0.746,0.394,1.483,0.629,2.206c0.618,1.28,1.329,2.418,1.963,3.685c0.104,0.326,0.205,0.65,0.308,0.972
	c0.527,0.841,1.105,1.667,1.759,2.474c0.225,0.647,0.446,1.298,0.668,1.945c-0.002-0.012-0.002-0.021-0.004-0.033
	c-0.078-0.483-0.181-0.962-0.285-1.438c0.278,0.326,0.6,0.641,0.902,0.96c0.019,0.125,0.043,0.251,0.063,0.377
	c0.006,0.041,0.013,0.084,0.02,0.125c0.044,0.29,0.085,0.583,0.126,0.87c0.003,0.02,0.001,0.039,0.004,0.058
	c-0.156,0.044-0.312,0.09-0.466,0.138c-0.12-0.353-0.239-0.703-0.36-1.056c0.061,0.375,0.086,0.747,0.134,1.124
	c-0.287,0.092-0.578,0.171-0.861,0.272c-0.426-1.57-0.869-3.136-1.342-4.692c-0.114-0.377-0.236-0.749-0.357-1.123
	c-0.771-1.235-1.425-2.504-1.958-3.801c-0.103-0.288-0.217-0.568-0.313-0.855c-0.018-0.039-0.035-0.077-0.053-0.114
	c-0.073-0.197-0.134-0.396-0.202-0.594c0.028,0.102,0.044,0.21,0.069,0.313c-0.436-0.961-0.802-2.029-1.042-3.293
	c0.088,0.2,0.175,0.401,0.275,0.597c-0.026-0.106-0.052-0.21-0.077-0.316c0.078,0.169,0.158,0.338,0.24,0.508
	c-0.005-0.024-0.011-0.046-0.016-0.07c-0.079-0.16-0.161-0.316-0.233-0.474c-0.161-0.684-0.301-1.37-0.418-2.062
	c-0.029-0.389-0.064-0.764-0.068-1.191c-0.068-0.195-0.137-0.394-0.204-0.592c-0.042-0.338-0.067-0.677-0.101-1.013
	c-0.024,0.165-0.063,0.339-0.077,0.498c-0.11-0.318-0.217-0.638-0.33-0.954c-0.009-0.029-0.019-0.059-0.029-0.085
	c0.018-0.461,0.063-0.93,0.152-1.411C291.29,438.18,291.315,438.232,291.34,438.285z M313.267,451.314
	c-0.039-0.184-0.092-0.377-0.141-0.565c0.271,0.544,0.526,1.095,0.783,1.644c0.396,1.111,0.771,2.232,1.13,3.355
	c-0.502-1.295-1.033-2.58-1.577-3.868C313.396,451.693,313.332,451.503,313.267,451.314z M309.979,442.826
	c-0.133-0.29-0.266-0.58-0.398-0.875c0.249,0.626,0.495,1.249,0.739,1.875c0.343,1.02,0.686,2.066,1.029,3.137
	c-1.278-2.984-2.513-5.995-3.522-9.081c-0.715-1.798-1.332-3.627-1.732-5.453c0.198,0.541,0.401,1.065,0.604,1.559
	c0.016,0.056,0.034,0.108,0.051,0.164c-0.009-0.034-0.016-0.065-0.024-0.099c0.188,0.456,0.372,0.882,0.546,1.28l0,0
	c0.058,0.133,0.116,0.272,0.172,0.398c0.292,0.788,0.604,1.583,0.915,2.38c-0.111-0.258-0.217-0.517-0.323-0.777
	C308.647,439.003,309.305,440.856,309.979,442.826z M309.611,419.05c0.234,0.565,0.471,1.131,0.705,1.691
	c0.229,0.546,0.445,1.089,0.672,1.636c-0.346-0.824-0.684-1.65-1.031-2.477C309.824,419.586,309.711,419.301,309.611,419.05z
	 M291.494,442.705c-0.006-0.021-0.015-0.044-0.021-0.065C291.479,442.661,291.487,442.684,291.494,442.705z M296.127,451.781
	c-0.279-0.534-0.573-1.059-0.872-1.578c0.08,0.065,0.158,0.13,0.238,0.195c0.128,0.213,0.257,0.428,0.387,0.641
	C295.963,451.285,296.043,451.534,296.127,451.781z M298.902,458.372c-0.001-0.014-0.001-0.028-0.002-0.043
	c0.001,0.015,0.004,0.029,0.006,0.043H298.902z M291.052,439.363c-0.829-2.355-1.652-4.702-2.451-7.046
	c0.818,1.901,1.689,3.774,2.573,5.615C291.098,438.424,291.061,438.899,291.052,439.363z M330.529,450.14
	c-0.111,0.472-0.218,0.942-0.344,1.409c0.008-0.039,0.01-0.077,0.018-0.116c0.123-0.464,0.234-0.93,0.348-1.396
	C330.543,450.072,330.536,450.106,330.529,450.14z M326.84,459.018c1.063-2.59,1.962-5.27,2.652-8.015
	c-0.225,1.31-0.502,2.603-0.826,3.881C328.115,456.277,327.507,457.657,326.84,459.018z M317.373,445.483
	c0.026-0.128,0.065-0.253,0.092-0.381C317.438,445.228,317.404,445.355,317.373,445.483z M316.909,461.335
	c-0.024-0.147-0.046-0.297-0.07-0.447c0.01,0.041,0.02,0.08,0.032,0.116C316.883,461.115,316.897,461.224,316.909,461.335z
	 M313.798,412.291c-0.338,0.138-0.674,0.277-1.015,0.435c0.213-0.169,0.433-0.359,0.664-0.565
	C313.561,412.209,313.677,412.252,313.798,412.291z M307.01,420.047c-0.855,0.854-1.412,1.817-1.769,2.837
	c0.045-0.894,0.124-1.8,0.259-2.735c-0.135,0.936-0.214,1.844-0.26,2.738c-0.009,0.023-0.02,0.046-0.027,0.07
	c0.048-0.965,0.129-1.909,0.287-2.809c1.479,1.696,1.836-3.052,3.442-3.73C308.193,417.626,307.549,418.837,307.01,420.047z
	 M304.803,427.163c0.021,0.22,0.047,0.442,0.079,0.662c-0.014,0.126-0.023,0.254-0.035,0.382
	C304.818,427.856,304.807,427.512,304.803,427.163z M309.146,444.87c1.231,1.868,2.343,3.779,3.338,5.72
	c0.193,0.645,0.385,1.29,0.573,1.938c0.069,0.338,0.151,0.672,0.21,1.013c0.154,0.442,0.313,0.918,0.474,1.406
	c0.507,1.846,0.98,3.704,1.405,5.538c-0.4-0.232-0.807-0.467-1.222-0.674C312.431,455.028,310.688,449.938,309.146,444.87z
	 M295.837,391.926c-0.138,0.14-0.268,0.29-0.404,0.43c0.118-0.172,0.233-0.348,0.354-0.517c0.038,0.06,0.079,0.125,0.116,0.186
	C295.88,391.994,295.86,391.96,295.837,391.926z M294.592,393.613c-3.261,5.342-5.758,11.129-7.596,17.129
	c-0.04-0.246-0.083-0.493-0.124-0.739c1.892-5.905,4.468-11.485,7.809-16.55c0.042-0.063,0.088-0.125,0.129-0.188
	C294.738,393.383,294.663,393.497,294.592,393.613z M290.299,435.676c0.303,0.667,0.605,1.337,0.905,2.004
	c-0.007,0.043-0.007,0.082-0.014,0.125c-0.133-0.28-0.265-0.563-0.397-0.846c-0.906-1.933-1.796-3.909-2.627-5.92
	c-0.077-0.231-0.154-0.461-0.23-0.693C288.708,432.131,289.5,433.907,290.299,435.676z M284.961,463.225
	c0.087,0.264,0.171,0.536,0.256,0.805c-0.461-0.805-0.894-1.646-1.28-2.532C284.266,462.086,284.609,462.664,284.961,463.225z
	 M336.6,388.427c0.09-1.215,0.452-2.266,0.877-3.252C337.23,386.274,336.938,387.359,336.6,388.427z M329.097,344.233
	c0.302,0.631,0.57,1.276,0.807,1.928c0.236,0.655,0.462,1.3,0.664,1.953c3.065,10.687,8.235,19.654,8.081,30.112
	c-0.036-0.099-0.068-0.198-0.111-0.302c-0.02-0.754-0.026-1.522-0.026-2.298c0,1.841-0.118,3.682-0.341,5.504
	c0.007-13.512-7.31-28.904-10.973-42.122C328.104,340.819,330.439,342.602,329.097,344.233z M321.519,384.221
	c0.551,1.895-1.602,3.47-2.474,4.944C318.994,387.688,319.653,386.113,321.519,384.221z M308.81,362.643
	c0.167,0.449,0.442,0.862,0.879,1.162c0.184,0.302,0.362,0.602,0.573,0.899c2.884,4.086,5.521,8.314,7.867,12.657
	c-0.164-0.174-0.304-0.353-0.469-0.527c-0.34,0.232-0.826,0.58-1.336,0.945c-1.613,1.143-3.261,2.194-4.908,3.211
	c-0.549,0.338-1.029,0.652-1.362,0.939c0.913,3.221,2.046,6.353,3.287,9.436c-0.041-0.097-0.079-0.188-0.123-0.295
	c-2.474-5.961-4.467-12.103-5.392-18.705C307.783,369.232,308.111,365.99,308.81,362.643z M307.682,397.981
	c-0.16,0.365-0.3,0.728-0.404,1.088c1.771-2.122,3.221-4.582,5.066-6.524c0.367-0.297,0.754-0.553,1.149-0.783
	c0.054,0.133,0.102,0.271,0.155,0.404c0.017,0.043,0.017,0.046,0.028,0.08c0.01-0.005,0.015-0.012,0.02-0.019
	c-0.02-0.051-0.092-0.223-0.193-0.469c1.526-0.88,3.303-1.206,5.59-0.549c0.193,0.111,0.394,0.242,0.595,0.375
	c-0.003-0.005-0.003-0.01-0.003-0.014c1.07,0.681,2.106,1.534,2.952,2.556c2.184,2.407,3.706,5.602,2.146,8.404
	c-0.085-0.614-0.203-1.199-0.348-1.757c-0.213,1.174-0.67,2.436-1.46,3.794c0,0.645,0.334,0.345,0.831-0.244
	c0.354-0.187,0.711-0.462,1.08-0.769c-0.012-0.152-0.031-0.302-0.046-0.452c0.744-0.824,1.58-1.515,2.288-1.136
	c0.154-0.065,0.312-0.116,0.471-0.149c-0.102,0.08-0.203,0.167-0.31,0.256c0.116,0.092,0.228,0.205,0.331,0.37
	c-0.853,0.744-1.739,1.459-2.703,2.124c1.008-0.621,1.923-1.271,2.798-1.936c0.186,0.346,0.357,0.79,0.497,1.426
	c0.15,0.695,0.295,1.392,0.428,2.09c1.106,5.746,1.597,11.584,1.462,17.463c0.031-0.17,0.061-0.339,0.092-0.508
	c0.524-3.03,0.877-6.041,1.036-9.027c0.015,3.658-0.323,7.389-0.947,11.151c2.382,4.989,3.706,10.46,2.401,17.185
	c-0.492,1.984-0.995,3.961-1.512,5.928c0.072-0.614,0.118-1.223,0.164-1.832c0.892-4.569,1.348-9.047,1.348-13
	c-0.396-2.742-1.307-5.291-2.479-7.764c-0.046,0.271-0.084,0.532-0.118,0.791c-0.01-0.044-0.017-0.088-0.026-0.131
	c-0.003,0.133-0.008,0.271-0.008,0.398c-0.033,0.319-0.061,0.629-0.067,0.918c0.297,0.86,0.546,1.721,0.769,2.583
	c-0.046-0.348-0.095-0.698-0.15-1.046c1.438,5.348,1.619,10.997,0.788,16.568c0.021-0.338,0.031-0.671,0.043-1.005
	c-0.036,0.246-0.092,0.493-0.135,0.739c0.089-1.092,0.143-2.18,0.159-3.26c-0.012-0.669-0.031-1.336-0.08-1.988
	c0.029,2.351-0.115,4.774-0.444,7.228c-0.113,0.521-0.256,1.039-0.389,1.559c0.29-2.26,0.435-4.553,0.442-6.867
	c0.111-1.204,0.188-2.409,0.22-3.617c-0.118-0.986-0.264-1.958-0.464-2.881c-0.051-0.316-0.123-0.623-0.177-0.939
	c-0.202-1.644-0.49-3.276-0.828-4.9c-0.348-1.121-0.725-2.23-1.131-3.335c-0.135-0.449-0.266-0.898-0.41-1.346
	c0.067,0.271,0.149,0.539,0.212,0.807c-1.802-4.784-4.102-9.447-6.518-14.094c-0.251-0.486-0.51-0.977-0.766-1.462
	c-0.031-0.056-0.065-0.111-0.094-0.167c0-0.005,0-0.012,0-0.017c-0.049-0.09-0.097-0.179-0.143-0.271
	c-1.29,0.766-2.395,1.293-3.377,1.638c0.867-0.492,1.843-1.239,2.946-2.259c-1.321,0.867-2.456,1.477-3.452,1.858
	c1.073-0.624,2.339-1.665,3.95-3.34c0.029,0.072,0.075,0.157,0.104,0.234c-0.005-0.07-0.01-0.162-0.012-0.275
	c0.07,0.005,0.143,0.021,0.215,0.031c1.452-3.185,2.59-7.3,1.638-10.896c-0.795-1.476-1.69-2.756-2.42-3.965
	c-4.36-3.291-7.494-0.251-10.487,3.284c0.691-0.95,1.593-1.972,2.711-3.103c-2.182,1.901-3.771,4.064-5.45,5.939
	c-0.038,0.149-0.063,0.295-0.097,0.439c-1.148,1.228-2.327,2.257-3.602,2.745c1.688,0.772,3.008,1.754,4.114,2.783
	c0.152,0.454,0.328,0.918,0.517,1.39c0.435,0.541,0.841,1.072,1.232,1.597c-0.223-0.643-0.418-1.241-0.595-1.819
	c2.082,2.308,3.29,4.608,4.885,5.386c-0.908-0.176-1.711-0.625-2.483-1.285c0.184,0.208,0.372,0.403,0.558,0.59
	c-0.693-0.534-1.367-1.226-2.07-2.034c-0.01-0.032-0.019-0.059-0.033-0.09c-0.314-0.355-0.643-0.729-0.979-1.126
	c0.01,0.02,0.017,0.038,0.026,0.058c-1.357-1.623-2.941-3.532-5.172-5.448C305.159,401.115,306.464,399.555,307.682,397.981z
	 M291.341,362.791c0.566-2.748,0.566-7.201,0.566-9.426c0,14.841,3.522,28.672,8.261,41.976c0.237,0.665,0.477,1.327,0.72,1.992
	c-0.024,0.028-0.043,0.06-0.067,0.089c-5.063-13.575-8.913-27.425-8.913-41.831c0,2.228,0,4.453-0.046,6.149
	c-0.011,0.268,0.061,0.469-0.122,0.824c-2.205,4.279-3.757,8.636-4.815,13.043c0.348-0.732,0.713-1.469,1.098-2.206
	c0,0,0,2.226,0.607,2.175c0.365,0.611,0.727,1.223,1.086,1.836c1.619,2.754,3.185,5.519,4.661,8.297
	c0.245,0.461,0.448,0.935,0.633,1.414c0.78,1.861,0.78,1.861,0.628,4.83c-0.119,0.184-0.234,0.375-0.353,0.561
	c-0.263,0.275-0.53,0.546-0.786,0.833c-2.615,2.948-4.845,6.543-6.477,11.219c-0.451,1.677-0.832,3.339-1.218,5.001
	c-1.266-7.935-1.982-15.831-1.495-23.573c-0.629,8.075,0.052,16.273,1.277,24.473c-0.13,0.582-0.259,1.162-0.382,1.742
	c0.14-0.488,0.273-0.981,0.423-1.465c0.04,0.269,0.079,0.539,0.121,0.808c-0.669,2.267-1.244,4.557-1.726,6.869
	c-0.087,0.532-0.17,1.063-0.251,1.593c-0.015-0.051-0.029-0.104-0.042-0.157c-0.018,0.087-0.033,0.174-0.048,0.261
	c-0.059-0.277-0.128-0.551-0.181-0.831c0.011-0.053,0.022-0.104,0.033-0.157c-3.668-13.985-4.712-28.01,2.104-42.88
	c0.833-3.871,2.037-7.693,3.741-11.446C290.683,364.129,291.003,363.459,291.341,362.791z M283.882,336.281
	c0.404,0.373,0.807,0.735,1.209,1.1c0.276,0.234,0.552,0.469,0.827,0.706c-0.107,0.232-0.214,0.466-0.321,0.701
	c-0.287-0.292-0.579-0.584-0.908-0.853c-0.37-0.51-0.737-1.012-1.102-1.51c-0.365-0.5-0.727-0.996-1.086-1.486
	C282.95,335.399,283.411,335.846,283.882,336.281z M280.02,351.716c-12.029,30.139-18.526,64.588-1.706,97.373
	C261.237,417.764,266.693,382.996,280.02,351.716z"/>
<circle fill="none" stroke="#231F20" stroke-width="2.474" stroke-miterlimit="10" cx="305.763" cy="292.826" r="6.184"/>
<circle fill="none" stroke="#231F20" stroke-width="2.474" stroke-miterlimit="10" cx="299.579" cy="473.45" r="6.184"/>
</svg>
