<?xml version="1.0" encoding="utf-8"?>
<!-- Generator: Adobe Illustrator 16.0.0, SVG Export Plug-In . SVG Version: 6.00 Build 0)  -->
<svg version="1.1" id="Layer_1" xmlns="http://www.w3.org/2000/svg" xmlns:xlink="http://www.w3.org/1999/xlink" x="0px" y="0px"
	 width="612px" height="792px" viewBox="0 0 612 792" enable-background="new 0 0 612 792" xml:space="preserve">
<rect x="271.592" y="378.106" fill-opacity="0" fill="#231F20" width="69.979" height="35"/>
<path id="SECONDARY_82_" fill="#005601" stroke="#231F20" stroke-miterlimit="10" d="M341.157,408.128
	c0.188-0.537,0.288-1.124,0.233-1.74c0.056-0.556-0.039-1.036-0.391-1.388c-1.815-2.421-3.907-4.289-6.183-5.584
	c-2.468-1.79-5.106-2.979-8.119-2.859c-0.217,0.009-0.349,0.008-0.51,0.018c-0.169,0.061-0.331,0.109-0.49,0.151
	c0.219,0.023,0.433,0.131,0.638,0.266c0.246,0.007,0.477,0.009,0.664,0.009c0.073,0.091,0.139,0.18,0.209,0.271
	c-0.063-0.002-0.124-0.006-0.187-0.007c-0.13-0.017-0.243-0.03-0.364-0.046c0.304,0.226,0.582,0.432,0.821,0.401
	c0.594,0.775,1.126,1.525,1.618,2.245c0.671,0.647,1.284,1.387,1.828,2.226c0.025-0.029,0.044-0.06,0.074-0.09
	c0,0.068,0.001,0.137,0.001,0.205c0.302,0.475,0.579,0.984,0.835,1.521c0.35,0.432,0.711,0.844,1.102,1.232
	c0.479,0.206,0.958,0.437,1.438,0.698c0.118,0.015,0.233,0.037,0.351,0.061c-0.063,0.006-0.126,0.011-0.189,0.025
	c-0.015-0.008-0.029-0.018-0.044-0.025c-0.039-0.021-0.078-0.039-0.117-0.061c-0.243-0.031-0.487-0.054-0.729-0.048
	c-0.246-0.209-0.482-0.426-0.709-0.65c-0.085-0.036-0.17-0.078-0.255-0.113c-0.144-0.06-0.288-0.112-0.432-0.166
	c-0.131-0.328-0.269-0.646-0.415-0.953c-0.12-0.148-0.238-0.301-0.356-0.454c0.241,0.435,0.469,0.889,0.679,1.371
	c-0.004-0.002-0.008-0.003-0.012-0.005c-0.041-0.091-0.084-0.178-0.126-0.267c0.042,0.088,0.082,0.177,0.122,0.266
	c-0.001-0.001-0.002-0.001-0.002-0.001c0.002,0.004,0.005,0.009,0.008,0.014c0.006,0.014,0.013,0.027,0.02,0.042
	c-0.004-0.01-0.008-0.021-0.013-0.03c0.035,0.062,0.063,0.123,0.083,0.184l0.001,0.001c0.002,0.004,0.003,0.008,0.005,0.012
	c0.003,0.007,0.006,0.013,0.009,0.02c0.042,0.038,0.082,0.079,0.123,0.117c-0.011-0.026-0.019-0.055-0.028-0.081
	c0.045,0.029,0.09,0.057,0.136,0.086c0.307,0.197,0.61,0.417,0.914,0.641c-0.084,0.007-0.167,0.02-0.25,0.031
	c-0.044-0.015-0.087-0.029-0.129-0.044c0.018,0.018,0.035,0.035,0.053,0.054c-0.012,0.002-0.023,0.002-0.034,0.004
	c0.009,0.004,0.018,0.008,0.026,0.012c0.01,0.002,0.02,0.004,0.029,0.005c0.004,0.005,0.008,0.009,0.012,0.013
	c0.228,0.099,0.469,0.181,0.731,0.24c0.011,0.008,0.021,0.016,0.032,0.023c-0.032,0.007-0.063,0.019-0.095,0.026
	c-0.079-0.001-0.159-0.001-0.238-0.002c-0.102-0.045-0.199-0.098-0.298-0.15c0.048,0.05,0.094,0.1,0.141,0.149
	c-0.126,0-0.252-0.002-0.378-0.002c0.122,0,0.252,0.004,0.388,0.012c0.021,0.022,0.043,0.046,0.064,0.068
	c0.021,0.003,0.041,0.005,0.062,0.007c-0.014,0.005-0.029,0.008-0.043,0.014c0.051,0.054,0.103,0.107,0.152,0.162
	c-0.009,0.009-0.019,0.019-0.027,0.027c-0.115-0.028-0.225-0.059-0.331-0.091c-0.081,0.041-0.165,0.078-0.24,0.129
	c-0.09-0.1-0.174-0.203-0.26-0.304c0.007,0,0.015,0.001,0.021,0.001c-0.014-0.007-0.024-0.015-0.039-0.021
	c-0.014-0.017-0.027-0.032-0.041-0.048c-0.02-0.063-0.041-0.124-0.062-0.187c-0.012,0.003-0.022,0.009-0.035,0.012
	c0.014,0.037,0.029,0.073,0.042,0.11c-0.004-0.005-0.008-0.01-0.012-0.015c0.009,0.026,0.017,0.055,0.025,0.081
	c-0.001-0.001-0.002-0.001-0.003-0.002c-0.009-0.027-0.018-0.057-0.027-0.084c-0.012-0.016-0.026-0.029-0.039-0.046
	c-0.008-0.011-0.014-0.021-0.021-0.032c-0.011,0.003-0.021,0.008-0.03,0.011c0.015,0.036,0.027,0.073,0.042,0.109
	c-0.044-0.025-0.092-0.049-0.132-0.077c-0.046,0.016-0.091,0.032-0.137,0.049c0.037,0.044,0.078,0.084,0.12,0.123
	c0.063,0.002,0.124,0.004,0.187,0.007c0.026,0.068,0.053,0.137,0.078,0.206c0.019,0.012,0.038,0.023,0.057,0.034
	c-0.026-0.078-0.051-0.159-0.077-0.237c0.001,0,0.001,0,0.002,0.001c0.027,0.077,0.051,0.159,0.077,0.238
	c0.004,0.002,0.008,0.004,0.012,0.007c0.079,0.242,0.158,0.484,0.227,0.735c-0.062-0.248-0.134-0.483-0.203-0.722
	c0.166,0.099,0.352,0.186,0.552,0.262c-0.116,0.136-0.232,0.285-0.349,0.46c-0.09-0.269-0.198-0.519-0.297-0.778
	c-0.098-0.064-0.185-0.137-0.265-0.213C332.291,406.005,332.144,406,332,406c0.101-0.051,0.213-0.073,0.318-0.114
	c-0.12-0.142-0.206-0.304-0.259-0.487c-0.605-0.284-1.033-0.777-1.141-1.712c-0.472-0.744-0.865-1.587-1.281-2.421
	c0.4,0.518,0.782,1.063,1.146,1.629c-0.062-0.164-0.079-0.329-0.032-0.495c-0.45-0.661-0.945-1.261-1.467-1.823
	c-0.042-0.079-0.086-0.156-0.129-0.234c-0.4-0.392-0.822-0.753-1.262-1.091c-0.019-0.016-0.035-0.033-0.054-0.048
	c0.008,0.008,0.015,0.016,0.022,0.023c-0.247-0.189-0.499-0.369-0.757-0.541c0.219,0.136,0.431,0.284,0.642,0.435
	c-0.45-0.36-0.924-0.683-1.41-0.98c-0.343-0.181-0.694-0.341-1.053-0.487c-1.332-0.631-2.762-1.063-4.24-1.291
	c0.584,0.053,1.158,0.136,1.721,0.25c-1.598-0.425-3.305-0.57-5.089-0.415c-1.591,0.082-3.196,0.391-4.764,0.932
	c-0.104-0.103-0.206-0.204-0.308-0.312c-0.954-1.015-1.83-2.265-2.605-3.816c0-2-4-1-7.083-1.29
	c-0.107-0.211-0.219-0.418-0.336-0.622c-2.213-3.867-6.025-6.421-10.357-6.421c-6.84,0-12.384,6.366-12.384,14.22
	s5.544,14.22,12.384,14.22c2.28,0,4.416-0.707,6.25-1.941c0.184-0.123,0.364-0.252,0.542-0.386C303,412,308,415,310,412
	c1.32-1.08,2.611-2.073,3.879-2.969c0.105-0.074,0.211-0.148,0.301-0.212c0.491,0.013,0.991,0.058,1.492,0.116
	c-1.926-0.785-3.762-1.657-5.352-2.507c-0.15,0.17-0.3,0.343-0.448,0.516c-0.296,0.347-0.586,0.698-0.872,1.056
	c-0.667,0.333-1.444,0.444-2.226,0.373c-0.195-0.019-0.391-0.048-0.584-0.088C306,408,305,408,305,408
	c1.278-1.118,2.659-2.133,4.097-2.998c0.251,0.007,0.958,0.044,1.204,0.254c0.09,0.073,0.187,0.151,0.285,0.23
	c2.091,1.681,4.267,2.846,6.502,3.658c1.752,0.316,3.53,0.817,5.259,1.313c1.323,0.204,2.659,0.333,4.003,0.412
	c0.013-0.003,0.025-0.004,0.037-0.007c-1.161-0.365-2.322-0.694-3.483-0.814c1.233,0.114,2.589,0.429,3.901,0.754
	c0.127-0.006,0.256-0.004,0.388,0.008c-0.102,0.003-0.202,0.003-0.304,0.013c0.125,0.031,0.247,0.062,0.371,0.093
	c0.222,0.01,0.443,0.02,0.665,0.027c0.312,0.083,0.63,0.19,0.951,0.313c0.103,0.039,0.206,0.08,0.309,0.121
	c0.044,0.01,0.09,0.021,0.134,0.03c0.049,0.029,0.102,0.054,0.151,0.082c0.01,0.004,0.021,0.008,0.03,0.012
	c0.152,0.021,0.312,0.045,0.47,0.068c-0.139-0.09-0.28-0.174-0.412-0.277c-0.174-0.115-0.4-0.189-0.632-0.254
	c-0.108-0.03-0.221-0.05-0.331-0.076c0.137,0.004,0.273,0.009,0.41,0.012c0.202,0.004,0.349,0.042,0.451,0.113
	c-0.116-0.092-0.226-0.195-0.337-0.296c0.17,0.137,0.34,0.272,0.52,0.392c0.168,0.096,0.344,0.19,0.541,0.284
	c-0.059-0.051-0.117-0.104-0.176-0.157c-0.053-0.04-0.108-0.077-0.161-0.119c-0.44-0.266-0.858-0.578-1.255-0.922
	c-0.545-0.588-1.023-1.265-1.424-2.012c0.346,0.473,0.718,0.917,1.116,1.328c-0.122-0.155-0.241-0.316-0.358-0.48
	c-0.268-0.271-0.528-0.564-0.771-0.875c-0.043-0.08-0.085-0.162-0.126-0.244c0.244,0.351,0.516,0.675,0.795,0.978
	c-0.139-0.197-0.272-0.398-0.403-0.604c-0.205-0.273-0.409-0.55-0.609-0.826c-0.004-0.008-0.007-0.017-0.01-0.024
	c-0.041-0.053-0.081-0.105-0.121-0.158c-0.051-0.07-0.102-0.141-0.151-0.211c0.005,0.011,0.011,0.021,0.017,0.031
	c-0.045-0.06-0.09-0.119-0.135-0.18c0.033,0.089,0.062,0.18,0.098,0.267c0.185,0.309,0.38,0.607,0.588,0.898
	c-0.218-0.284-0.418-0.584-0.588-0.898c0.385,0.926,0.906,1.766,1.529,2.487c-0.946-0.966-1.694-2.14-2.123-3.417
	c-0.14-0.188-0.279-0.374-0.419-0.559c0.021,0.002,0.044,0.005,0.065,0.007c-0.035-0.049-0.07-0.099-0.105-0.147h-0.001
	c-0.024-0.003-0.048-0.006-0.072-0.009c-0.003-0.003-0.005-0.006-0.007-0.009c-0.114-0.025-0.229-0.051-0.342-0.077
	c-1.02-0.231-2.022-0.476-3.018-0.726c0.01-0.005,0.02-0.009,0.029-0.014c0.947,0.238,1.997,0.38,3.074,0.481
	c-0.043-0.056-0.086-0.109-0.129-0.165c-0.947-0.109-1.91-0.224-2.869-0.357c0.118-0.06,0.229-0.13,0.314-0.224
	c0.198-0.063,0.396-0.12,0.592-0.175c0.105-0.029,0.211-0.055,0.315-0.082c0.383,0.092,0.764,0.185,1.147,0.275
	c0.021,0.005,0.042,0.01,0.063,0.016c-0.124-0.153-0.25-0.303-0.376-0.45c0.011,0,0.023-0.003,0.034-0.003
	c0.114,0.087,0.228,0.182,0.342,0.282c-0.32-0.423-0.63-0.811-0.927-1.14c-0.054,0.005-0.124,0.021-0.201,0.04
	c-0.152-0.154-0.308-0.304-0.465-0.447c0.102,0.043,0.202,0.09,0.303,0.136c-0.119-0.068-0.24-0.127-0.361-0.19
	c-0.664-0.598-1.375-1.08-2.159-1.395c0.184,0.022,0.368,0.041,0.544,0.073c0.886,0.421,1.68,1.016,2.409,1.718
	c0.197,0.102,0.392,0.21,0.584,0.325c0.073,0.097,0.146,0.192,0.219,0.293c-0.196-0.149-0.396-0.286-0.596-0.421
	c0.404,0.406,0.788,0.845,1.158,1.301c0.023,0.006,0.047,0.012,0.069,0.017c0.104,0.152,0.21,0.306,0.315,0.461
	c-0.002,0-0.003,0-0.004,0c0.012,0.015,0.022,0.029,0.033,0.045c0.024,0.035,0.049,0.071,0.073,0.107
	c0.003,0,0.006,0.001,0.009,0.001c0.022,0.029,0.044,0.059,0.066,0.088c0.06,0.09,0.119,0.181,0.181,0.273
	c-0.004-0.001-0.009-0.002-0.014-0.003c0.024,0.036,0.048,0.071,0.072,0.107c0.018,0.021,0.036,0.043,0.054,0.065
	c0.044,0.065,0.088,0.131,0.132,0.197c-0.004-0.017-0.007-0.034-0.011-0.052c0.026,0.033,0.053,0.066,0.079,0.1
	c0.008,0.028,0.014,0.058,0.021,0.086c0.017,0.024,0.033,0.049,0.05,0.073c0.002,0.009,0.005,0.018,0.008,0.026
	c0.078,0.117,0.157,0.234,0.236,0.353c-0.013-0.025-0.027-0.05-0.04-0.075c0.024,0.035,0.049,0.071,0.073,0.106
	c-0.021-0.062-0.04-0.126-0.062-0.188c0.073,0.104,0.146,0.207,0.218,0.311c-0.032-0.057-0.063-0.115-0.096-0.172
	c1.109,1.435,2.25,3.08,3.437,4.325c-0.141-0.211-0.279-0.424-0.418-0.637c0.063,0.067,0.127,0.135,0.19,0.2
	c-0.968-1.854-2.008-3.416-3.121-4.688c-0.353-0.495-0.711-0.969-1.079-1.412c1.694,1.379,3.17,3.407,4.309,6.213
	c0.3,0.301,0.606,0.578,0.92,0.821c-0.247-0.125-0.487-0.259-0.715-0.408c0.011,0.011,0.021,0.022,0.031,0.033
	c-0.022-0.021-0.054-0.038-0.075-0.06c0.024,0.024,0.058,0.045,0.084,0.068c0.004,0.005,0.009,0.01,0.014,0.015
	c-0.031-0.03-0.067-0.053-0.098-0.083c-0.09-0.072-0.178-0.149-0.266-0.225c0.088,0.087,0.177,0.172,0.266,0.255
	c0.012,0.007,0.021,0.015,0.033,0.021c0.003,0.007,0.008,0.013,0.012,0.019c0.023,0.022,0.048,0.045,0.071,0.066
	c-0.018-0.023-0.039-0.043-0.057-0.066c0.024,0.016,0.048,0.033,0.072,0.049c0.067,0.067,0.134,0.13,0.201,0.194
	c-0.03-0.021-0.061-0.041-0.091-0.062c0.07,0.063,0.142,0.119,0.213,0.179c0.073,0.067,0.146,0.133,0.219,0.196
	c-0.045-0.021-0.088-0.046-0.133-0.067c0.048,0.037,0.095,0.076,0.144,0.112c0.017,0.002,0.032,0.005,0.05,0.007
	c0.021,0.019,0.043,0.037,0.064,0.056c0.031,0.013,0.062,0.025,0.094,0.038c0.054,0.039,0.107,0.081,0.161,0.119
	c0.059,0.021,0.115,0.048,0.175,0.068c-0.025-0.002-0.051-0.003-0.075-0.005c0.059,0.039,0.117,0.077,0.177,0.114
	c-0.061-0.026-0.119-0.053-0.178-0.082c0.045,0.026,0.089,0.055,0.134,0.08c-0.045-0.02-0.092-0.034-0.137-0.056
	c0.052,0.039,0.103,0.08,0.154,0.116c0.024,0.009,0.05,0.016,0.074,0.024c-0.016-0.003-0.031-0.006-0.046-0.009
	c-0.004-0.001-0.008-0.003-0.012-0.004c0.001,0.001,0.003,0.002,0.004,0.003c-0.076-0.016-0.152-0.031-0.228-0.049
	c0.056,0.035,0.112,0.068,0.169,0.101c-0.071-0.024-0.144-0.043-0.215-0.07c-0.035-0.022-0.071-0.048-0.106-0.071
	c-0.058-0.015-0.113-0.03-0.169-0.046c-0.061-0.026-0.119-0.057-0.179-0.086c-0.053-0.003-0.108-0.007-0.161-0.01
	c-0.191-0.062-0.375-0.13-0.549-0.202c0.146,0.07,0.295,0.136,0.447,0.197c-0.184-0.01-0.365-0.02-0.534-0.026
	c-0.2-0.047-0.399-0.098-0.6-0.151c-0.21-0.057-0.419-0.12-0.629-0.182c-0.492,0.072-1.013,0.107-1.553,0.112
	c1.032,0.2,2.012,0.32,2.91,0.294c0.195-0.006,0.343,0.039,0.492,0.1c0.306,0.112,0.617,0.192,0.932,0.252
	c-0.07-0.04-0.142-0.083-0.212-0.127c0.059,0.017,0.118,0.032,0.177,0.048c0.063,0.034,0.125,0.071,0.188,0.103
	c0.044,0.007,0.088,0.006,0.132,0.012c0.124,0.074,0.248,0.14,0.373,0.199c0.281,0.095,0.574,0.146,0.876,0.168
	c0.47,0.085,0.938,0.068,1.404-0.081c0.001,0,0.001,0.001,0.002,0.001c-0.456,0.182-0.909,0.243-1.358,0.204
	c0.462,0.067,0.932,0.016,1.411-0.184c0.692,0.27,1.473,0.437,2.315,0.437c2.712,0,4.91-1.586,4.91-3.542
	C341.57,409.038,341.42,408.562,341.157,408.128z M335.064,406.048c0.011,0.007,0.022,0.013,0.033,0.02
	c0.004,0,0.007,0.002,0.011,0.002c-0.074,0.002-0.15,0.005-0.223,0.004c-0.024-0.003-0.05-0.006-0.075-0.008
	c0.057-0.009,0.113-0.017,0.17-0.023C335.008,406.045,335.037,406.046,335.064,406.048z M334.446,406.142
	c0.028,0.006,0.057,0.012,0.085,0.017c-0.047,0-0.093-0.001-0.14,0.001C334.41,406.154,334.428,406.146,334.446,406.142z
	 M333.793,412.406c-0.16,0.017-0.318,0.021-0.479,0.025c-0.138-0.008-0.274-0.027-0.412-0.045c0.13-0.003,0.26-0.006,0.395-0.018
	c0.162,0.017,0.32,0.022,0.481,0.028C333.783,412.4,333.788,412.404,333.793,412.406z M332.729,412.453
	c0.074,0.019,0.15,0.026,0.226,0.04c-0.177-0.017-0.352-0.037-0.522-0.07C332.531,412.434,332.629,412.447,332.729,412.453z
	 M334.356,406.171c0.027,0.02,0.058,0.037,0.085,0.057c-0.055-0.011-0.108-0.022-0.163-0.032
	C334.305,406.187,334.331,406.179,334.356,406.171z M333.65,412.321c-0.048,0.008-0.096,0.014-0.144,0.02
	c0.018,0.001,0.034,0.005,0.052,0.005c0.04-0.001,0.08-0.006,0.119-0.008c0.004,0.002,0.007,0.004,0.01,0.006
	c-0.043,0-0.087,0.003-0.129,0.002c-0.036,0.001-0.073,0.002-0.109,0.003c0.019-0.002,0.038-0.005,0.058-0.008
	c-0.013,0-0.024-0.003-0.037-0.004c0.051-0.007,0.102-0.023,0.152-0.032C333.632,412.311,333.641,412.316,333.65,412.321z
	 M334.156,406.234L334.156,406.234L334.156,406.234L334.156,406.234z M333.569,412.273c0.005,0.003,0.01,0.006,0.016,0.009
	c-0.099,0.002-0.196-0.013-0.294-0.016c0.018-0.001,0.035-0.005,0.053-0.006C333.419,412.266,333.494,412.271,333.569,412.273z
	 M341.133,408.095c-0.044-0.07-0.102-0.134-0.151-0.201c0.114-0.289,0.21-0.568,0.283-0.837
	C341.263,407.416,341.213,407.763,341.133,408.095z M340,404c0.007,0.007,0.012,0.016,0.02,0.022
	c-1.47-1.458-2.951-2.872-4.493-4.074C337.108,400.948,338.616,402.271,340,404z M335.224,405.742
	c0.224,0.049,0.441,0.138,0.652,0.259c-0.068,0-0.137,0-0.206,0.001c-0.271-0.109-0.546-0.194-0.83-0.257
	C334.973,405.73,335.101,405.729,335.224,405.742z M334.195,405.862c-0.047,0.022-0.094,0.046-0.141,0.073
	c-0.047-0.036-0.092-0.073-0.138-0.11C334.009,405.838,334.102,405.85,334.195,405.862z M333.375,405.75
	c0.074,0.012,0.15,0.021,0.226,0.032c0.006,0.004,0.011,0.008,0.017,0.012c0.019,0.015,0.037,0.027,0.057,0.042
	C333.574,405.807,333.473,405.78,333.375,405.75z M333.602,406.029c0.024,0.002,0.049,0.004,0.074,0.007
	c-0.011,0.003-0.021,0.007-0.032,0.01C333.629,406.04,333.615,406.035,333.602,406.029z M333.89,406.355
	c0.143,0.03,0.287,0.061,0.437,0.089c-0.189,0.074-0.376,0.151-0.549,0.243c-0.099-0.03-0.194-0.061-0.287-0.094
	C333.623,406.501,333.756,406.422,333.89,406.355z M315,402c0.169-0.169,0.308-0.217,0.43-0.197
	C315.287,401.867,315.146,401.927,315,402z M304,402c1.14-0.887,2.392-1.691,3.718-2.396c-0.106-0.056-0.212-0.111-0.318-0.168
	c-0.771-0.415-1.531-0.854-2.282-1.319c-0.172-0.054-0.304-0.093-0.4-0.129c-0.159-0.396-0.168-0.52-0.174-0.614
	c0.144,0.187,0.291,0.366,0.443,0.52c0.819,0.464,1.647,0.895,2.482,1.296c0.185,0.088,0.369,0.175,0.555,0.261
	c0.452-0.233,0.911-0.454,1.378-0.662c-0.054,0.033-0.107,0.066-0.16,0.1c0.213-0.105,0.425-0.209,0.639-0.309
	c3.068-1.298,6.394-2.04,9.566-1.989c-3.564,0.018-7.366,1.053-10.896,2.752c-0.19,0.132-0.382,0.262-0.569,0.401
	c-0.04-0.021-0.079-0.042-0.119-0.063C306.519,400.366,305.222,401.145,304,402z M322,410c0.289,0,0.591,0.02,0.898,0.048
	C322.599,410.017,322.3,410,322,410z M321.661,404.689c-0.078-0.012-0.155-0.023-0.232-0.035c-2.027-0.522-4.009-1.094-5.935-1.748
	c0.072,0.056,0.15,0.108,0.227,0.162c-0.116-0.059-0.242-0.107-0.354-0.17c-0.04-0.022-0.075-0.048-0.114-0.071
	c-0.008-0.002-0.015-0.004-0.022-0.007c-0.209-0.072-0.417-0.145-0.599-0.199c0.073-0.014,0.142-0.031,0.214-0.046
	c-0.021-0.014-0.045-0.026-0.066-0.041c0.063-0.016,0.124-0.034,0.186-0.05c0.02,0.017,0.041,0.035,0.061,0.053
	c0.311-0.068,0.611-0.146,0.9-0.23c0.297,0.512,0.576,1.126,1.208,0.412c0.222,0.05,0.442,0.106,0.662,0.166
	c1.345,0.365,2.702,0.702,4.065,1.032c-0.167,0.085-0.334,0.171-0.502,0.266C321,404,320,404,320,404
	C320.485,404.291,321.05,404.512,321.661,404.689z M322.684,401.876c0.103,0.043,0.222,0.077,0.316,0.124
	c0.056,0.056,0.112,0.119,0.168,0.178C323.009,402.071,322.848,401.97,322.684,401.876z M325.964,405.521
	c0.004,0.006,0.008,0.011,0.012,0.017c0.01,0.048,0.024,0.095,0.035,0.142c-0.014-0.024-0.026-0.049-0.039-0.073
	C325.968,405.578,325.967,405.55,325.964,405.521z M333.04,411.917c0.031,0.024,0.056,0.053,0.087,0.076
	c-0.503-0.004-0.991-0.057-1.44-0.161c-0.037-0.014-0.074-0.028-0.11-0.042C332.063,411.849,332.557,411.896,333.04,411.917z
	 M331.01,411.615c0.009,0.007,0.018,0.014,0.027,0.02c-0.296-0.114-0.552-0.261-0.777-0.43
	C330.506,411.358,330.757,411.492,331.01,411.615z M330.172,411.146c0.014,0.008,0.027,0.019,0.041,0.027
	c0.268,0.218,0.593,0.407,0.965,0.564c0.001,0,0.003,0,0.004,0c0.001,0.001,0.002,0.002,0.003,0.003
	c0.24,0.101,0.497,0.187,0.767,0.259c-0.119-0.006-0.236-0.012-0.354-0.019c-0.013-0.005-0.026-0.011-0.04-0.015
	c0.001,0,0.002,0.001,0.002,0.001c-0.001,0-0.002-0.001-0.004-0.002c-0.159-0.05-0.316-0.107-0.474-0.169
	c-0.052-0.028-0.101-0.061-0.151-0.091c0.032,0.005,0.065,0.009,0.098,0.013c-0.176-0.088-0.349-0.181-0.516-0.284
	C330.395,411.346,330.283,411.247,330.172,411.146z M331.235,411.89c0.082,0.029,0.162,0.058,0.246,0.085
	c-0.018-0.001-0.035-0.002-0.053-0.003C331.365,411.942,331.298,411.922,331.235,411.89z M331.848,412.122
	c0.058,0.028,0.115,0.053,0.173,0.078c-0.098-0.029-0.192-0.068-0.288-0.104C331.771,412.104,331.81,412.113,331.848,412.122z
	 M331.539,412.283c0.003,0.001,0.006,0.001,0.009,0.002c0.002,0.001,0.003,0.002,0.005,0.003
	C331.548,412.286,331.544,412.285,331.539,412.283z M331.807,412.356c0.013,0.001,0.024,0.002,0.037,0.003
	c0.004,0.003,0.009,0.004,0.014,0.007C331.841,412.362,331.824,412.36,331.807,412.356z"/>
</svg>
