<?xml version="1.0" encoding="utf-8"?>
<!-- Generator: Adobe Illustrator 16.0.0, SVG Export Plug-In . SVG Version: 6.00 Build 0)  -->
<svg version="1.1" id="Layer_1" xmlns="http://www.w3.org/2000/svg" xmlns:xlink="http://www.w3.org/1999/xlink" x="0px" y="0px"
	 width="612px" height="792px" viewBox="0 0 612 792" enable-background="new 0 0 612 792" xml:space="preserve">
<rect x="278.5" y="342.156" fill-opacity="0" fill="#231F20" width="57" height="108.807"/>
<path id="SECONDARY_81_" fill="#005601" stroke="#231F20" stroke-miterlimit="10" d="M323.37,427.995
	c-1.335,2.409-2.865,4.75-4.525,7.037c2.439-4.057,4.642-8.323,6.303-12.687c0.755-2.958,1.304-5.878,1.853-8.346
	c1.537-4.919,1.46-9.552,0.307-13.878c0.141,0.351,0.262,0.702,0.39,1.054c-0.601-3.067-1.701-6.094-3.422-9.038
	c0.001-0.025,0.004-0.05,0.003-0.074c0.207-0.133,0.405-0.274,0.594-0.428c5.548-4.519,3.228-17.697-3.08-25.13
	c0.12-0.253,0.25-0.538,0.373-0.828c0.86-2.034,1.336-4.27,1.336-6.617c0-9.39-7.611-17.001-17-17.001c-9.389,0-17,7.611-17,17.001
	c0,1.341,0.155,2.646,0.449,3.897c0.074,0.313,0.156,0.623,0.246,0.929C290,368,286,371,287,373c1.4,2.645,3.138,5.313,5.001,8.005
	c0.186,0.269,0.372,0.538,0.534,0.796c-9.213,15.652-5.788,34.852,4.376,49.661c-0.004,0.022-0.006,0.047-0.011,0.069
	c-1.591,2.055-2.548,4.626-2.548,7.427c0,6.709,5.438,12.147,12.147,12.147c6.709,0,12.149-5.438,12.149-12.147
	c0-1.028-0.142-2.021-0.383-2.976c0.029-0.047,0.058-0.094,0.087-0.14C320.587,433.829,322.18,431.05,323.37,427.995z
	 M295.111,426.441c-0.037-0.147-0.081-0.292-0.111-0.441c0.379,0.569,0.731,1.222,1.066,1.927c-0.208-0.317-0.417-0.641-0.625-0.967
	c0.065,0.145,0.135,0.284,0.198,0.431c0.224,0.361,0.449,0.719,0.675,1.07c0.232,0.521,0.457,1.066,0.677,1.627
	c0.189,0.23,0.381,0.449,0.577,0.657c-0.042,0.046-0.084,0.092-0.126,0.139c-0.093-0.106-0.181-0.224-0.272-0.336
	c0.031,0.081,0.063,0.162,0.094,0.244c-0.088-0.146-0.175-0.297-0.262-0.451c-0.111-0.145-0.216-0.296-0.322-0.448
	c-0.081-0.181-0.165-0.358-0.25-0.534c0.054,0.075,0.109,0.147,0.164,0.222c-0.128-0.251-0.255-0.507-0.379-0.768
	c0.067,0.172,0.135,0.342,0.201,0.516c-0.278-0.574-0.576-1.113-0.9-1.607c-0.145-0.364-0.263-0.741-0.365-1.125
	c0.095,0.156,0.191,0.313,0.287,0.469c-0.045-0.107-0.089-0.214-0.133-0.32C295.239,426.644,295.175,426.542,295.111,426.441z
	 M311.693,406.317c-0.063,0.021-0.125,0.043-0.188,0.066c-0.103-0.014-0.197-0.04-0.294-0.063c0.037-0.029,0.076-0.062,0.114-0.092
	C311.443,406.271,311.563,406.306,311.693,406.317z M311.345,406.213c0.908-0.728,2.065-1.694,3.354-1.737
	c-0.675,0.96-1.647,1.361-2.735,1.746C311.743,406.242,311.539,406.236,311.345,406.213z M314,418
	c-0.15,0.902-0.396,1.755-0.707,2.573c-0.028,0.19-0.069,0.381-0.117,0.571c0.037-0.165,0.065-0.332,0.088-0.5
	c-0.258,0.668-0.555,1.314-0.895,1.936c-0.144,0.263-0.285,0.513-0.414,0.745c-0.037-0.162-0.074-0.323-0.111-0.484
	c-0.027,0.127-0.058,0.263-0.083,0.383c0.147,0.687,0.306,1.392,0.463,2.104c-0.052-0.222-0.104-0.442-0.159-0.66
	c0.102,0.441,0.203,0.881,0.303,1.317c0.029,0.134,0.058,0.266,0.086,0.399c-0.01-0.05-0.019-0.1-0.029-0.149
	c0.146,0.644,0.28,1.277,0.404,1.905c-0.011-0.073-0.02-0.146-0.03-0.22c0.036,0.189,0.069,0.379,0.104,0.568
	c-0.003-0.011-0.007-0.021-0.011-0.032c0.014,0.069,0.024,0.137,0.037,0.206c-0.001,0-0.002-0.001-0.002-0.001
	c-0.021-0.101-0.043-0.199-0.066-0.299c0.011,0.031,0.021,0.063,0.031,0.094c-0.02-0.104-0.043-0.211-0.063-0.316
	c0.008,0.066,0.018,0.134,0.026,0.2c-0.02-0.083-0.034-0.168-0.056-0.25c-0.107-0.569-0.224-1.139-0.346-1.706
	c0.088,0.435,0.168,0.873,0.24,1.314c-0.01-0.029-0.02-0.059-0.029-0.088c0.03,0.144,0.057,0.287,0.084,0.431l0.001,0.001
	c0,0.002,0.001,0.003,0.001,0.005c0.038,0.192,0.076,0.385,0.112,0.576c-0.012-0.008-0.023-0.015-0.035-0.021
	c-0.024-0.186-0.05-0.37-0.077-0.555c0-0.002-0.001-0.004-0.002-0.006c-0.04-0.112-0.084-0.224-0.127-0.336
	c0.062,0.291,0.119,0.582,0.175,0.877c-0.021-0.013-0.042-0.025-0.062-0.038c-0.077-0.278-0.156-0.557-0.242-0.835
	c0.013,0.076,0.024,0.152,0.037,0.229c-0.004-0.011-0.008-0.021-0.012-0.031c0.029,0.184,0.059,0.37,0.086,0.559
	c-0.006-0.003-0.013-0.008-0.02-0.012c-0.274-0.93-0.588-1.846-0.921-2.74c0.332,0.723,0.614,1.455,0.854,2.193
	c-0.012-0.08-0.024-0.157-0.037-0.236c0.004,0.014,0.008,0.026,0.012,0.039c-0.031-0.199-0.064-0.396-0.097-0.587
	c-0.003-0.007-0.006-0.014-0.009-0.021c-0.033-0.196-0.066-0.389-0.1-0.575c0.002,0.005,0.004,0.01,0.006,0.015
	c-0.101-0.562-0.201-1.081-0.293-1.541c0.162,0.647,0.32,1.327,0.474,2.019c0.069,0.195,0.131,0.393,0.19,0.592
	c-0.307-1.482-0.672-2.979-1.008-4.423c-0.139-0.461-0.28-0.916-0.431-1.354c0.038-0.295,0.071-0.589,0.097-0.884
	c0.264-3.015-0.135-6.023-1.06-9.021c0.332,0.702,0.669,1.406,0.991,2.106c-0.328-0.714-0.662-1.429-1.002-2.144
	c-0.155-0.502-0.321-1.004-0.506-1.505c-0.107-0.292-0.221-0.585-0.338-0.877c-0.096-0.12-0.168-0.211-0.224-0.294
	c-0.056,0.023-0.1,0.052-0.153,0.077c-0.012-0.032-0.031-0.076-0.039-0.102c-0.059,0.026-0.104,0.058-0.16,0.085
	c0.09-0.063,0.182-0.124,0.279-0.186c-0.091-0.181-0.107-0.374-0.111-0.801c0.216,0.011,0.467,0.128,0.773,0.425
	c0.068,0.093,0.174,0.226,0.291,0.372c2.279,2.875,3.024,5.749,2.812,8.624c-0.229-0.545-0.462-1.089-0.702-1.634
	c-0.276-1.99-0.985-3.933-2.199-5.783c0.65,1.462,1.191,2.939,1.584,4.415c-0.063-0.137-0.123-0.272-0.186-0.409
	c0.066,0.146,0.126,0.29,0.191,0.436c0.452,1.708,0.691,3.407,0.655,5.072c0.14-1.234,0.124-2.46-0.038-3.67
	c0.231,0.526,0.473,1.053,0.694,1.579c-0.095,1.278-0.381,2.558-0.806,3.837c-0.041,0.271-0.065,0.546-0.123,0.814
	c-0.019,0.083-0.034,0.156-0.053,0.237c0.09-0.117,0.176-0.225,0.264-0.348c0.44-0.612,0.823-1.25,1.133-1.92
	c0.06-0.749-0.02-1.524-0.291-2.339c0.305,0.761,0.391,1.521,0.32,2.283C313.646,419.565,313.884,418.811,314,418z M299.083,412.581
	c-0.001,0.028-0.003,0.058-0.008,0.087c-0.025-0.149-0.048-0.3-0.075-0.448c0.042,0.09,0.073,0.181,0.083,0.272
	C299.083,412.521,299.083,412.551,299.083,412.581z M299.639,408.169c-0.139,0.493-0.25,0.992-0.336,1.498
	c-0.171,0.783-0.285,1.57-0.343,2.36c-0.015-0.074-0.032-0.147-0.047-0.221c0.02-1.972,0.347-3.957,1.087-5.807
	C299.855,406.723,299.739,407.446,299.639,408.169z M298.954,412.122c-0.01,0.151-0.024,0.302-0.03,0.452
	c-0.005-0.171-0.01-0.342-0.01-0.514C298.927,412.082,298.941,412.102,298.954,412.122z M299.708,418.147
	c0.015,0.026,0.022,0.053,0.034,0.079c0-0.003,0-0.006,0-0.008c0.003,0.008,0.005,0.016,0.007,0.023
	c0.003,0.007,0.006,0.014,0.009,0.021c-0.007-0.054-0.015-0.107-0.022-0.161c-0.009-0.133-0.015-0.268-0.021-0.401
	c-0.019-0.065-0.034-0.131-0.052-0.196c-0.003-0.026-0.006-0.053-0.009-0.079c-0.095-0.346-0.18-0.697-0.258-1.055
	c-0.098-0.509-0.165-1.011-0.208-1.507c0.017,0.075,0.034,0.15,0.051,0.226c0.072,0.324,0.144,0.647,0.211,0.972
	c0.005,0.006,0.008,0.012,0.013,0.019c0.027,0.138,0.056,0.276,0.086,0.415c-0.012-0.115-0.025-0.23-0.037-0.346
	c0.061,0.079,0.119,0.159,0.172,0.239c0-0.056-0.001-0.111-0.001-0.167c0.012,0.073,0.025,0.147,0.038,0.222
	c0.577,0.91,0.653,1.831,0.64,2.741c0.186,0.605,0.396,1.211,0.638,1.816c0.745,1.043,1.297,2.108,1.743,3.18
	c0.094,0.083,0.186,0.168,0.273,0.254c-0.438-1.581-1.063-3.099-2.016-4.434c0.877,1.229,1.536,2.613,2.053,4.058
	c0.342,0.35,0.634,0.719,0.887,1.103c-0.027,0.067-0.06,0.136-0.078,0.204c-0.073-0.083-0.152-0.164-0.229-0.245
	c0.079,0.103,0.142,0.214,0.215,0.319c-0.019,0.082-0.032,0.164-0.039,0.245c-0.113-0.253-0.229-0.503-0.348-0.749
	c-0.052-0.051-0.108-0.101-0.161-0.151c0.224,0.698,0.419,1.405,0.59,2.114c-0.106-0.091-0.198-0.186-0.3-0.278
	c0.069,0.167,0.143,0.334,0.21,0.501c-0.028,0.006-0.055,0.015-0.082,0.021c-0.045-0.178-0.088-0.354-0.137-0.531
	c0.003,0.003,0.006,0.006,0.009,0.009c-0.006-0.016-0.013-0.03-0.019-0.046c-0.059-0.214-0.127-0.429-0.193-0.643
	c-0.018-0.079-0.031-0.161-0.054-0.237c0.017,0.077,0.036,0.154,0.052,0.231c-0.08-0.26-0.159-0.519-0.25-0.778
	c-0.167-0.379-0.379-0.727-0.615-1.055c0.103,0.083,0.201,0.167,0.3,0.25c-0.022-0.054-0.043-0.108-0.066-0.162
	c-0.109-0.098-0.231-0.189-0.35-0.282c-0.441-0.949-0.898-1.907-1.394-2.897c0.248,0.742,0.51,1.469,0.781,2.187
	c-0.394-0.451-0.793-0.885-1.135-1.338c0.331,0.518,0.707,1.04,1.091,1.585c-0.03-0.019-0.063-0.036-0.093-0.055
	c-0.368-0.551-0.746-1.09-1.08-1.638c-0.06-0.082-0.115-0.166-0.17-0.25c-0.002-0.015-0.003-0.028-0.005-0.043
	c-0.013-0.023-0.025-0.047-0.038-0.069c0.007,0.025,0.013,0.051,0.021,0.076c-0.035-0.054-0.072-0.107-0.104-0.162
	c0.102,0.36,0.222,0.717,0.359,1.07c-0.053-0.165-0.111-0.33-0.159-0.505c-0.014-0.056-0.023-0.112-0.034-0.168
	c0.097,0.335,0.203,0.666,0.324,0.99c0.318,0.575,0.684,1.087,1.011,1.656c0.054,0.146,0.105,0.291,0.159,0.436
	c0.271,0.378,0.569,0.749,0.906,1.111c0.115,0.291,0.229,0.583,0.344,0.874c-0.001-0.005-0.001-0.01-0.002-0.015
	c-0.041-0.218-0.093-0.433-0.147-0.646c0.143,0.146,0.31,0.288,0.465,0.432c0.01,0.056,0.022,0.112,0.032,0.169
	c0.003,0.019,0.007,0.038,0.01,0.057c0.023,0.13,0.044,0.261,0.065,0.391c0.001,0.009,0,0.018,0.002,0.026
	c-0.081,0.02-0.161,0.04-0.24,0.062c-0.062-0.158-0.124-0.316-0.186-0.475c0.031,0.168,0.044,0.336,0.069,0.505
	c-0.148,0.041-0.298,0.077-0.444,0.123c-0.22-0.706-0.447-1.409-0.691-2.108c-0.059-0.169-0.122-0.337-0.184-0.505
	c-0.397-0.555-0.734-1.124-1.008-1.707c-0.053-0.129-0.112-0.255-0.161-0.385c-0.009-0.017-0.018-0.034-0.027-0.051
	c-0.037-0.089-0.069-0.178-0.104-0.267c0.015,0.046,0.023,0.094,0.036,0.141c-0.225-0.432-0.413-0.911-0.537-1.479
	c0.045,0.09,0.09,0.181,0.142,0.269c-0.014-0.048-0.027-0.095-0.04-0.143c0.041,0.076,0.082,0.152,0.124,0.229
	c-0.003-0.011-0.006-0.021-0.008-0.032c-0.041-0.071-0.083-0.142-0.12-0.213c-0.083-0.307-0.155-0.615-0.215-0.926
	c-0.015-0.174-0.033-0.343-0.035-0.534c-0.035-0.089-0.07-0.178-0.105-0.267c-0.021-0.151-0.034-0.304-0.051-0.455
	c-0.012,0.074-0.032,0.152-0.04,0.224c-0.057-0.143-0.112-0.286-0.169-0.429c-0.005-0.013-0.01-0.025-0.015-0.038
	c0.009-0.207,0.032-0.417,0.078-0.634C299.682,418.1,299.695,418.123,299.708,418.147z M311,424
	c-0.021-0.083-0.047-0.169-0.072-0.254c0.139,0.244,0.271,0.491,0.402,0.737c0.203,0.5,0.397,1.003,0.583,1.508
	c-0.259-0.581-0.532-1.159-0.813-1.737C311.066,424.17,311.033,424.084,311,424z M309.307,420.187
	c-0.068-0.13-0.137-0.261-0.205-0.393c0.128,0.281,0.254,0.562,0.38,0.842c0.177,0.458,0.354,0.929,0.531,1.409
	c-0.659-1.341-1.296-2.692-1.813-4.079c-0.369-0.808-0.688-1.629-0.894-2.449c0.103,0.243,0.206,0.479,0.312,0.699
	c0.008,0.025,0.018,0.05,0.025,0.074c-0.004-0.015-0.008-0.029-0.012-0.044c0.098,0.205,0.191,0.396,0.28,0.575l0,0
	c0.03,0.06,0.061,0.122,0.089,0.179c0.151,0.354,0.311,0.711,0.471,1.069c-0.056-0.116-0.111-0.232-0.165-0.35
	C308.621,418.47,308.96,419.302,309.307,420.187z M309.117,409.506c0.121,0.254,0.242,0.508,0.363,0.76
	c0.117,0.246,0.229,0.49,0.346,0.735c-0.177-0.37-0.353-0.741-0.531-1.112C309.227,409.747,309.168,409.619,309.117,409.506z
	 M299.787,420.133c-0.003-0.01-0.007-0.02-0.01-0.029C299.779,420.113,299.784,420.123,299.787,420.133z M302.173,424.209
	c-0.144-0.239-0.295-0.475-0.45-0.708c0.042,0.029,0.082,0.059,0.123,0.088c0.066,0.095,0.133,0.191,0.199,0.287
	C302.088,423.987,302.13,424.099,302.173,424.209z M303.603,427.171c-0.001-0.007,0-0.014-0.001-0.021
	c0.001,0.007,0.002,0.014,0.003,0.02C303.604,427.171,303.603,427.171,303.603,427.171z M299.559,418.632
	c-0.426-1.059-0.851-2.113-1.262-3.165c0.421,0.854,0.87,1.694,1.325,2.522C299.583,418.209,299.564,418.423,299.559,418.632z
	 M319.89,423.473c-0.058,0.211-0.112,0.423-0.177,0.633c0.004-0.018,0.005-0.035,0.009-0.053c0.063-0.208,0.121-0.418,0.179-0.627
	C319.897,423.441,319.894,423.457,319.89,423.473z M317.989,427.46c0.549-1.163,1.011-2.367,1.367-3.6
	c-0.116,0.588-0.259,1.169-0.427,1.742C318.646,426.229,318.333,426.849,317.989,427.46z M313.114,421.381
	c0.015-0.058,0.034-0.114,0.048-0.172C313.147,421.266,313.131,421.323,313.114,421.381z M312.876,428.501
	c-0.013-0.066-0.024-0.134-0.037-0.2c0.006,0.018,0.011,0.035,0.017,0.052C312.862,428.402,312.869,428.451,312.876,428.501z
	 M311.273,406.47c-0.174,0.063-0.348,0.125-0.523,0.195c0.109-0.075,0.224-0.161,0.343-0.254
	C311.152,406.434,311.212,406.453,311.273,406.47z M307.777,409.954c-0.44,0.384-0.727,0.816-0.911,1.274
	c0.023-0.401,0.063-0.809,0.133-1.229c-0.07,0.42-0.11,0.828-0.134,1.229c-0.004,0.011-0.01,0.021-0.014,0.032
	c0.025-0.434,0.067-0.858,0.147-1.262c0.762,0.762,0.945-1.371,1.772-1.676C308.387,408.867,308.055,409.41,307.777,409.954z
	 M306.641,413.151c0.011,0.099,0.024,0.198,0.04,0.297c-0.007,0.057-0.012,0.114-0.018,0.172
	C306.649,413.463,306.643,413.308,306.641,413.151z M308.877,421.105c0.635,0.839,1.207,1.697,1.719,2.569
	c0.1,0.289,0.199,0.579,0.296,0.87c0.036,0.152,0.077,0.302,0.108,0.455c0.08,0.198,0.16,0.412,0.242,0.631
	c0.262,0.83,0.507,1.664,0.726,2.488c-0.208-0.104-0.415-0.21-0.63-0.303C310.568,425.668,309.672,423.381,308.877,421.105z
	 M302.024,397.322c-0.071,0.063-0.138,0.13-0.208,0.193c0.061-0.077,0.12-0.156,0.182-0.232c0.02,0.027,0.041,0.057,0.06,0.084
	C302.046,397.353,302.036,397.337,302.024,397.322z M301.382,398.08c-1.679,2.399-2.965,4.999-3.912,7.694
	c-0.021-0.11-0.043-0.222-0.063-0.332c0.974-2.652,2.301-5.159,4.021-7.434c0.021-0.028,0.045-0.057,0.066-0.085
	C301.458,397.977,301.419,398.027,301.382,398.08z M299.172,416.975c0.156,0.3,0.312,0.601,0.466,0.9
	c-0.004,0.02-0.004,0.037-0.008,0.057c-0.068-0.126-0.136-0.253-0.205-0.38c-0.466-0.869-0.925-1.757-1.353-2.66
	c-0.04-0.104-0.08-0.207-0.119-0.311C298.353,415.383,298.761,416.181,299.172,416.975z M296.423,429.35
	c0.045,0.119,0.088,0.241,0.132,0.361c-0.238-0.361-0.461-0.738-0.66-1.137C296.064,428.839,296.241,429.098,296.423,429.35z
	 M323.016,395.75c0.046-0.545,0.232-1.018,0.452-1.46C323.341,394.783,323.19,395.271,323.016,395.75z M319.152,375.898
	c0.155,0.283,0.294,0.573,0.415,0.866c0.122,0.294,0.238,0.584,0.342,0.877c1.579,4.801,4.241,8.829,4.162,13.526
	c-0.02-0.045-0.035-0.089-0.058-0.136c-0.01-0.339-0.014-0.684-0.014-1.032c0,0.827-0.061,1.654-0.175,2.473
	c0.003-6.07-3.766-12.983-5.651-18.921C318.641,374.364,319.844,375.165,319.152,375.898z M315.249,393.86
	c0.284,0.852-0.824,1.56-1.273,2.222C313.949,395.418,314.289,394.711,315.249,393.86z M308.705,384.168
	c0.084,0.202,0.227,0.388,0.452,0.522c0.095,0.136,0.187,0.27,0.294,0.403c1.486,1.836,2.844,3.735,4.053,5.686
	c-0.084-0.078-0.157-0.158-0.242-0.236c-0.175,0.104-0.424,0.261-0.688,0.424c-0.832,0.514-1.679,0.986-2.527,1.442
	c-0.283,0.152-0.529,0.294-0.701,0.423c0.47,1.446,1.053,2.854,1.692,4.238c-0.021-0.043-0.04-0.084-0.063-0.133
	c-1.273-2.677-2.301-5.437-2.776-8.401C308.176,387.128,308.345,385.672,308.705,384.168z M308.123,400.042
	c-0.082,0.164-0.154,0.327-0.207,0.488c0.912-0.952,1.658-2.058,2.609-2.93c0.188-0.134,0.387-0.249,0.591-0.352
	c0.028,0.06,0.052,0.121,0.079,0.181c0.01,0.02,0.01,0.021,0.017,0.036c0.003-0.003,0.007-0.006,0.01-0.009
	c-0.011-0.023-0.048-0.1-0.101-0.211c0.786-0.395,1.701-0.541,2.879-0.246c0.1,0.05,0.203,0.108,0.307,0.168
	c-0.001-0.002-0.001-0.004-0.002-0.006c0.552,0.306,1.086,0.688,1.521,1.148c1.125,1.08,1.908,2.516,1.104,3.774
	c-0.043-0.275-0.104-0.538-0.179-0.789c-0.11,0.527-0.345,1.094-0.751,1.704c0,0.29,0.171,0.155,0.428-0.109
	c0.182-0.084,0.365-0.207,0.556-0.345c-0.006-0.069-0.016-0.136-0.023-0.203c0.383-0.37,0.814-0.681,1.178-0.511
	c0.08-0.029,0.161-0.052,0.243-0.067c-0.053,0.036-0.105,0.075-0.159,0.115c0.059,0.041,0.116,0.093,0.17,0.166
	c-0.438,0.335-0.896,0.656-1.392,0.954c0.519-0.279,0.989-0.571,1.439-0.869c0.097,0.155,0.185,0.354,0.257,0.641
	c0.078,0.313,0.151,0.625,0.221,0.938c0.569,2.581,0.822,5.203,0.753,7.845c0.016-0.076,0.031-0.152,0.047-0.229
	c0.271-1.36,0.452-2.713,0.533-4.055c0.008,1.644-0.166,3.319-0.487,5.009c1.227,2.242,1.908,4.699,1.237,7.72
	c-0.255,0.892-0.514,1.779-0.779,2.663c0.037-0.276,0.061-0.55,0.084-0.823c0.46-2.053,0.695-4.063,0.695-5.84
	c-0.205-1.231-0.674-2.377-1.277-3.487c-0.023,0.122-0.043,0.239-0.061,0.355c-0.005-0.02-0.009-0.039-0.014-0.059
	c-0.002,0.06-0.004,0.121-0.004,0.179c-0.018,0.144-0.031,0.282-0.034,0.412c0.152,0.387,0.28,0.773,0.396,1.161
	c-0.024-0.157-0.049-0.314-0.077-0.471c0.739,2.402,0.833,4.939,0.405,7.442c0.011-0.151,0.016-0.301,0.022-0.451
	c-0.02,0.111-0.048,0.222-0.069,0.332c0.046-0.49,0.073-0.979,0.082-1.464c-0.007-0.301-0.017-0.601-0.041-0.894
	c0.015,1.057-0.061,2.146-0.229,3.247c-0.059,0.234-0.132,0.467-0.2,0.7c0.149-1.016,0.224-2.046,0.228-3.085
	c0.058-0.541,0.098-1.082,0.113-1.625c-0.061-0.443-0.136-0.879-0.239-1.294c-0.026-0.143-0.063-0.28-0.09-0.422
	c-0.105-0.738-0.253-1.472-0.428-2.202c-0.179-0.503-0.373-1.001-0.582-1.497c-0.07-0.202-0.137-0.404-0.211-0.604
	c0.035,0.121,0.076,0.241,0.108,0.362c-0.928-2.149-2.111-4.244-3.355-6.331c-0.13-0.219-0.263-0.438-0.395-0.657
	c-0.016-0.025-0.033-0.05-0.049-0.074c0-0.003,0-0.006,0-0.008c-0.024-0.041-0.049-0.081-0.073-0.122
	c-0.664,0.345-1.232,0.581-1.739,0.736c0.446-0.222,0.949-0.558,1.518-1.015c-0.681,0.39-1.266,0.663-1.778,0.834
	c0.553-0.279,1.205-0.747,2.035-1.5c0.015,0.033,0.038,0.071,0.054,0.105c-0.003-0.031-0.005-0.072-0.007-0.124
	c0.037,0.003,0.074,0.01,0.111,0.015c0.747-1.431,1.333-3.279,0.844-4.895c-0.41-0.663-0.871-1.238-1.247-1.781
	c-2.246-1.479-3.859-0.112-5.401,1.476c0.355-0.427,0.82-0.886,1.396-1.395c-1.123,0.854-1.941,1.826-2.806,2.669
	c-0.021,0.066-0.034,0.132-0.05,0.197c-0.592,0.551-1.199,1.014-1.855,1.232c0.869,0.348,1.549,0.788,2.117,1.251
	c0.08,0.204,0.17,0.412,0.268,0.624c0.225,0.243,0.432,0.482,0.635,0.718c-0.115-0.289-0.216-0.559-0.307-0.817
	c1.072,1.036,1.695,2.069,2.516,2.419c-0.468-0.079-0.881-0.281-1.279-0.577c0.095,0.094,0.191,0.182,0.288,0.265
	c-0.358-0.24-0.704-0.55-1.066-0.914c-0.005-0.014-0.011-0.026-0.017-0.04c-0.162-0.159-0.331-0.328-0.504-0.506
	c0.004,0.009,0.009,0.018,0.014,0.026c-0.701-0.729-1.516-1.587-2.664-2.448C306.825,401.45,307.496,400.749,308.123,400.042z
	 M299.708,384.234C300,383,300,381,300,380c0,6.667,1.814,12.88,4.254,18.855c0.122,0.299,0.246,0.597,0.371,0.895
	c-0.012,0.014-0.022,0.027-0.035,0.041c-2.607-6.099-4.59-12.32-4.59-18.791c0,1,0,2-0.023,2.762
	c-0.006,0.121,0.031,0.211-0.063,0.37c-1.136,1.923-1.935,3.88-2.479,5.859c0.179-0.329,0.367-0.66,0.565-0.991c0,0,0,1,0.313,0.978
	c0.188,0.274,0.374,0.549,0.559,0.824c0.833,1.237,1.64,2.479,2.4,3.728c0.126,0.208,0.231,0.42,0.326,0.635
	C302,396,302,396,301.922,397.334c-0.062,0.083-0.121,0.168-0.182,0.252c-0.136,0.124-0.273,0.245-0.405,0.375
	c-1.346,1.324-2.495,2.939-3.335,5.039c-0.232,0.754-0.429,1.5-0.627,2.247c-0.652-3.564-1.021-7.111-0.771-10.59
	c-0.324,3.628,0.027,7.311,0.658,10.993c-0.067,0.262-0.133,0.522-0.197,0.783c0.072-0.22,0.141-0.44,0.218-0.658
	c0.021,0.121,0.041,0.242,0.062,0.363c-0.344,1.018-0.641,2.047-0.889,3.085c-0.045,0.239-0.088,0.478-0.129,0.716
	c-0.007-0.023-0.015-0.047-0.022-0.07c-0.009,0.039-0.017,0.078-0.025,0.117c-0.03-0.125-0.065-0.248-0.093-0.374
	c0.005-0.023,0.011-0.047,0.017-0.07c-1.889-6.282-2.427-12.582,1.083-19.262c0.429-1.739,1.049-3.456,1.926-5.142
	C299.37,384.836,299.535,384.535,299.708,384.234z M295.867,372.326c0.208,0.167,0.416,0.33,0.622,0.493
	c0.143,0.105,0.285,0.211,0.426,0.317c-0.055,0.104-0.11,0.21-0.165,0.314c-0.148-0.131-0.298-0.262-0.468-0.383
	c-0.19-0.229-0.379-0.455-0.567-0.679c-0.188-0.225-0.374-0.447-0.559-0.667C295.387,371.93,295.625,372.131,295.867,372.326z
	 M293.878,379.26c-6.195,13.538-9.541,29.014-0.878,43.74C284.205,408.929,287.015,393.311,293.878,379.26z"/>
<circle fill="none" stroke="#231F20" stroke-miterlimit="10" cx="307" cy="352.606" r="2.5"/>
</svg>
