<?xml version="1.0" encoding="utf-8"?>
<!-- Generator: Adobe Illustrator 16.0.0, SVG Export Plug-In . SVG Version: 6.00 Build 0)  -->
<svg version="1.1" id="Layer_1" xmlns="http://www.w3.org/2000/svg" xmlns:xlink="http://www.w3.org/1999/xlink" x="0px" y="0px"
	 width="612px" height="792px" viewBox="0 0 612 792" enable-background="new 0 0 612 792" xml:space="preserve">
<rect x="278.5" y="344.963" fill-opacity="0" fill="#231F20" width="57" height="103.121"/>
<path id="SECONDARY_83_" fill="#005601" stroke="#231F20" stroke-miterlimit="10" d="M319.244,422.255
	c-1.048,2.167-2.249,4.273-3.553,6.331c1.915-3.649,3.644-7.488,4.947-11.414c0.593-2.661,1.023-5.288,1.454-7.509
	c1.207-4.426,1.146-8.594,0.241-12.486c0.11,0.315,0.205,0.632,0.306,0.948c-0.472-2.76-1.335-5.482-2.686-8.132
	c0-0.022,0.003-0.044,0.002-0.066c0.162-0.119,0.318-0.247,0.466-0.385c4.355-4.065,2.534-15.922-2.418-22.609
	c0.095-0.228,0.196-0.484,0.293-0.745c0.676-1.83,1.049-3.842,1.049-5.953c0-8.448-5.975-15.296-13.345-15.296
	s-13.345,6.848-13.345,15.296c0,1.206,0.122,2.381,0.352,3.506c0.058,0.282,0.122,0.561,0.193,0.836
	c-0.153,3.701-3.292,6.399-2.508,8.199c1.099,2.379,2.463,4.779,3.926,7.202c0.146,0.241,0.292,0.484,0.419,0.716
	c-7.232,14.083-4.543,31.356,3.435,44.681c-0.003,0.02-0.005,0.042-0.008,0.063c-1.25,1.849-2,4.162-2,6.682
	c0,6.036,4.269,10.929,9.536,10.929s9.537-4.893,9.537-10.929c0-0.925-0.111-1.819-0.301-2.677c0.022-0.043,0.045-0.085,0.068-0.126
	C317.059,427.504,318.31,425.003,319.244,422.255z M297.061,420.856c-0.029-0.132-0.064-0.263-0.087-0.396
	c0.298,0.512,0.574,1.099,0.837,1.733c-0.164-0.286-0.328-0.576-0.491-0.87c0.051,0.13,0.106,0.256,0.155,0.388
	c0.176,0.325,0.353,0.646,0.53,0.963c0.182,0.469,0.358,0.959,0.531,1.464c0.148,0.207,0.299,0.404,0.453,0.591
	c-0.033,0.042-0.066,0.083-0.099,0.125c-0.073-0.096-0.143-0.201-0.214-0.302c0.025,0.072,0.049,0.146,0.074,0.22
	c-0.069-0.132-0.138-0.268-0.206-0.406c-0.087-0.13-0.169-0.267-0.252-0.403c-0.063-0.163-0.129-0.322-0.196-0.48
	c0.042,0.067,0.086,0.133,0.129,0.199c-0.101-0.226-0.2-0.456-0.297-0.69c0.052,0.154,0.106,0.308,0.157,0.464
	c-0.218-0.517-0.452-1.002-0.707-1.446c-0.113-0.328-0.206-0.667-0.287-1.012c0.075,0.141,0.15,0.28,0.225,0.421
	c-0.035-0.097-0.07-0.192-0.104-0.288C297.161,421.039,297.111,420.947,297.061,420.856z M310.077,402.751
	c-0.05,0.02-0.097,0.039-0.147,0.06c-0.08-0.012-0.154-0.036-0.23-0.057c0.029-0.026,0.06-0.056,0.09-0.083
	C309.881,402.709,309.976,402.74,310.077,402.751z M309.805,402.657c0.713-0.654,1.62-1.524,2.632-1.563
	c-0.529,0.864-1.293,1.225-2.147,1.571C310.117,402.684,309.957,402.678,309.805,402.657z M311.889,413.262
	c-0.118,0.813-0.312,1.579-0.556,2.315c-0.021,0.171-0.055,0.343-0.092,0.514c0.029-0.148,0.052-0.298,0.069-0.449
	c-0.202,0.601-0.436,1.183-0.702,1.741c-0.112,0.236-0.225,0.461-0.325,0.67c-0.029-0.146-0.059-0.29-0.088-0.436
	c-0.021,0.114-0.045,0.236-0.064,0.345c0.115,0.617,0.24,1.252,0.363,1.893c-0.041-0.199-0.082-0.398-0.125-0.594
	c0.08,0.396,0.159,0.792,0.237,1.185c0.022,0.121,0.046,0.239,0.068,0.359c-0.009-0.045-0.015-0.089-0.023-0.134
	c0.114,0.579,0.22,1.148,0.317,1.714c-0.009-0.066-0.016-0.132-0.024-0.197c0.029,0.17,0.055,0.341,0.082,0.511
	c-0.002-0.01-0.006-0.02-0.009-0.028c0.011,0.062,0.019,0.122,0.029,0.185c-0.001,0-0.001-0.001-0.001-0.001
	c-0.017-0.09-0.034-0.179-0.053-0.269c0.008,0.028,0.017,0.057,0.024,0.085c-0.015-0.095-0.034-0.19-0.049-0.285
	c0.006,0.06,0.014,0.12,0.021,0.18c-0.016-0.074-0.027-0.15-0.044-0.225c-0.084-0.512-0.176-1.024-0.271-1.535
	c0.068,0.392,0.132,0.786,0.188,1.183c-0.008-0.026-0.015-0.053-0.022-0.079c0.023,0.13,0.044,0.259,0.065,0.388l0.001,0.001
	c0,0.002,0.001,0.003,0.001,0.004c0.029,0.174,0.06,0.347,0.088,0.519c-0.009-0.007-0.018-0.013-0.027-0.019
	c-0.02-0.167-0.039-0.333-0.061-0.5c0-0.001-0.001-0.003-0.002-0.005c-0.031-0.101-0.065-0.201-0.099-0.302
	c0.048,0.262,0.093,0.523,0.137,0.789c-0.017-0.012-0.033-0.023-0.048-0.035c-0.061-0.25-0.123-0.5-0.19-0.751
	c0.01,0.068,0.02,0.138,0.029,0.206c-0.004-0.01-0.006-0.019-0.01-0.028c0.023,0.165,0.046,0.333,0.067,0.503
	c-0.005-0.003-0.01-0.008-0.015-0.011c-0.216-0.837-0.462-1.661-0.723-2.466c0.26,0.65,0.481,1.31,0.67,1.974
	c-0.009-0.072-0.02-0.142-0.029-0.213c0.004,0.013,0.006,0.024,0.01,0.035c-0.025-0.179-0.051-0.355-0.076-0.528
	c-0.002-0.006-0.004-0.012-0.007-0.018c-0.026-0.177-0.052-0.35-0.077-0.518c0.001,0.004,0.002,0.009,0.004,0.013
	c-0.079-0.505-0.158-0.973-0.23-1.387c0.127,0.583,0.252,1.194,0.372,1.816c0.054,0.176,0.103,0.354,0.149,0.532
	c-0.24-1.333-0.527-2.68-0.791-3.979c-0.108-0.415-0.221-0.824-0.338-1.218c0.029-0.266,0.055-0.53,0.075-0.796
	c0.207-2.712-0.106-5.419-0.831-8.115c0.26,0.632,0.525,1.265,0.777,1.895c-0.258-0.642-0.52-1.285-0.785-1.928
	c-0.123-0.452-0.253-0.903-0.398-1.354c-0.084-0.263-0.172-0.526-0.265-0.789c-0.075-0.107-0.132-0.189-0.176-0.265
	c-0.044,0.021-0.078,0.047-0.12,0.07c-0.01-0.029-0.025-0.069-0.031-0.092c-0.046,0.023-0.081,0.052-0.125,0.076
	c0.07-0.056,0.143-0.111,0.219-0.167c-0.071-0.162-0.084-0.336-0.087-0.72c0.169,0.009,0.366,0.114,0.606,0.382
	c0.055,0.083,0.137,0.203,0.229,0.335c1.789,2.586,2.374,5.172,2.207,7.759c-0.18-0.49-0.362-0.979-0.551-1.47
	c-0.217-1.791-0.773-3.538-1.727-5.203c0.511,1.314,0.936,2.645,1.244,3.972c-0.049-0.123-0.097-0.245-0.146-0.368
	c0.053,0.131,0.1,0.262,0.15,0.393c0.355,1.536,0.543,3.065,0.515,4.563c0.109-1.111,0.098-2.214-0.03-3.302
	c0.182,0.473,0.371,0.946,0.545,1.42c-0.074,1.15-0.299,2.302-0.633,3.452c-0.031,0.244-0.051,0.491-0.096,0.733
	c-0.015,0.074-0.027,0.141-0.041,0.213c0.069-0.105,0.137-0.202,0.207-0.313c0.346-0.551,0.646-1.125,0.889-1.728
	c0.047-0.674-0.016-1.371-0.229-2.104c0.239,0.685,0.307,1.369,0.251,2.055C311.61,414.671,311.798,413.991,311.889,413.262z
	 M300.179,408.387c0,0.025-0.002,0.052-0.006,0.078c-0.02-0.135-0.038-0.27-0.059-0.403c0.033,0.081,0.058,0.162,0.065,0.245
	C300.179,408.333,300.179,408.359,300.179,408.387z M300.615,404.417c-0.109,0.443-0.196,0.893-0.264,1.348
	c-0.134,0.705-0.224,1.413-0.269,2.124c-0.012-0.067-0.025-0.133-0.037-0.199c0.016-1.773,0.272-3.56,0.854-5.224
	C300.785,403.116,300.694,403.767,300.615,404.417z M300.077,407.974c-0.008,0.136-0.019,0.271-0.023,0.407
	c-0.003-0.154-0.007-0.308-0.008-0.463C300.056,407.938,300.068,407.955,300.077,407.974z M300.669,413.395
	c0.012,0.023,0.017,0.048,0.027,0.071c0-0.003,0-0.005,0-0.007c0.002,0.007,0.004,0.014,0.006,0.021
	c0.002,0.007,0.004,0.013,0.007,0.019c-0.005-0.048-0.012-0.097-0.017-0.145c-0.007-0.119-0.012-0.241-0.017-0.361
	c-0.015-0.059-0.026-0.117-0.041-0.177c-0.002-0.023-0.004-0.047-0.007-0.071c-0.075-0.311-0.141-0.627-0.203-0.948
	c-0.077-0.458-0.129-0.909-0.163-1.356c0.013,0.068,0.027,0.136,0.04,0.203c0.057,0.292,0.112,0.583,0.166,0.875
	c0.003,0.005,0.006,0.01,0.01,0.017c0.021,0.124,0.044,0.248,0.068,0.373c-0.01-0.104-0.02-0.207-0.029-0.312
	c0.047,0.071,0.093,0.144,0.135,0.216c0-0.05-0.001-0.101,0-0.15c0.009,0.066,0.02,0.133,0.029,0.199
	c0.453,0.819,0.512,1.647,0.502,2.467c0.146,0.545,0.311,1.089,0.5,1.634c0.585,0.938,1.019,1.897,1.369,2.861
	c0.073,0.074,0.146,0.15,0.214,0.229c-0.343-1.423-0.834-2.788-1.583-3.989c0.689,1.105,1.206,2.352,1.611,3.65
	c0.269,0.314,0.498,0.646,0.696,0.992c-0.021,0.061-0.047,0.122-0.062,0.184c-0.057-0.074-0.119-0.147-0.18-0.221
	c0.062,0.093,0.111,0.192,0.168,0.287c-0.014,0.074-0.025,0.148-0.03,0.221c-0.089-0.228-0.18-0.452-0.273-0.674
	c-0.041-0.046-0.084-0.091-0.126-0.136c0.176,0.628,0.329,1.264,0.463,1.902c-0.083-0.082-0.155-0.167-0.235-0.251
	c0.054,0.15,0.112,0.301,0.165,0.451c-0.021,0.005-0.043,0.013-0.064,0.019c-0.035-0.159-0.069-0.318-0.107-0.478
	c0.002,0.003,0.005,0.005,0.007,0.008c-0.005-0.014-0.01-0.027-0.015-0.041c-0.046-0.192-0.1-0.386-0.152-0.578
	c-0.014-0.071-0.024-0.146-0.042-0.214c0.013,0.069,0.028,0.139,0.041,0.208c-0.063-0.233-0.125-0.466-0.197-0.7
	c-0.13-0.341-0.298-0.653-0.483-0.948c0.081,0.074,0.158,0.15,0.235,0.225c-0.017-0.048-0.034-0.098-0.052-0.146
	c-0.086-0.088-0.182-0.171-0.274-0.254c-0.346-0.854-0.706-1.716-1.094-2.607c0.194,0.668,0.4,1.321,0.613,1.968
	c-0.309-0.406-0.622-0.796-0.891-1.204c0.26,0.466,0.555,0.936,0.857,1.426c-0.023-0.017-0.049-0.032-0.073-0.049
	c-0.289-0.496-0.586-0.98-0.848-1.474c-0.046-0.073-0.09-0.149-0.133-0.225c-0.001-0.014-0.002-0.025-0.004-0.039
	c-0.01-0.021-0.02-0.042-0.03-0.063c0.005,0.023,0.01,0.046,0.016,0.069c-0.027-0.049-0.056-0.098-0.082-0.146
	c0.08,0.324,0.174,0.645,0.282,0.963c-0.042-0.148-0.087-0.297-0.125-0.454c-0.011-0.05-0.018-0.101-0.027-0.151
	c0.076,0.302,0.159,0.6,0.254,0.892c0.25,0.518,0.537,0.978,0.793,1.489c0.042,0.132,0.083,0.263,0.125,0.393
	c0.213,0.34,0.447,0.674,0.711,1c0.091,0.262,0.18,0.524,0.27,0.786c-0.001-0.005-0.001-0.009-0.001-0.014
	c-0.032-0.195-0.073-0.389-0.115-0.581c0.112,0.132,0.243,0.259,0.365,0.388c0.008,0.051,0.018,0.102,0.025,0.152
	c0.002,0.017,0.005,0.034,0.008,0.051c0.018,0.117,0.035,0.235,0.051,0.352c0.001,0.008,0,0.016,0.001,0.023
	c-0.063,0.018-0.126,0.036-0.188,0.056c-0.048-0.143-0.097-0.284-0.146-0.427c0.024,0.151,0.035,0.302,0.054,0.454
	c-0.116,0.037-0.234,0.069-0.348,0.11c-0.172-0.635-0.351-1.268-0.542-1.896c-0.046-0.152-0.096-0.303-0.145-0.454
	c-0.312-0.499-0.576-1.012-0.792-1.536c-0.042-0.116-0.088-0.229-0.126-0.346c-0.007-0.016-0.014-0.031-0.021-0.046
	c-0.029-0.08-0.054-0.16-0.082-0.24c0.011,0.041,0.018,0.085,0.028,0.127c-0.176-0.389-0.324-0.82-0.421-1.331
	c0.036,0.081,0.071,0.162,0.111,0.241c-0.011-0.043-0.021-0.085-0.031-0.128c0.032,0.068,0.064,0.137,0.097,0.205
	c-0.002-0.01-0.004-0.019-0.006-0.028c-0.032-0.064-0.065-0.128-0.094-0.191c-0.065-0.276-0.122-0.554-0.169-0.833
	c-0.012-0.157-0.026-0.309-0.028-0.481c-0.027-0.079-0.055-0.159-0.083-0.239c-0.017-0.137-0.027-0.273-0.041-0.409
	c-0.01,0.066-0.025,0.137-0.031,0.201c-0.044-0.129-0.088-0.258-0.133-0.386c-0.004-0.012-0.008-0.023-0.012-0.034
	c0.007-0.187,0.025-0.376,0.062-0.57C300.649,413.352,300.659,413.373,300.669,413.395z M309.533,418.66
	c-0.016-0.074-0.037-0.152-0.057-0.229c0.109,0.22,0.213,0.442,0.316,0.664c0.16,0.449,0.312,0.902,0.457,1.356
	c-0.203-0.523-0.418-1.043-0.638-1.563C309.586,418.813,309.56,418.736,309.533,418.66z M308.204,415.229
	c-0.054-0.117-0.107-0.234-0.161-0.354c0.101,0.253,0.2,0.505,0.299,0.758c0.139,0.412,0.277,0.835,0.416,1.268
	c-0.517-1.206-1.016-2.423-1.424-3.67c-0.289-0.727-0.539-1.466-0.7-2.204c0.08,0.219,0.162,0.431,0.244,0.63
	c0.006,0.022,0.014,0.044,0.021,0.066c-0.003-0.014-0.006-0.026-0.01-0.04c0.076,0.185,0.15,0.356,0.221,0.518l0,0
	c0.023,0.054,0.047,0.11,0.069,0.161c0.118,0.318,0.244,0.64,0.37,0.962c-0.045-0.104-0.088-0.209-0.131-0.314
	C307.666,413.685,307.932,414.434,308.204,415.229z M308.056,405.62c0.095,0.229,0.19,0.457,0.285,0.684
	c0.093,0.221,0.18,0.44,0.271,0.661c-0.14-0.333-0.276-0.667-0.417-1.001C308.142,405.837,308.096,405.722,308.056,405.62z
	 M300.731,415.181c-0.002-0.009-0.006-0.018-0.008-0.026C300.726,415.163,300.729,415.172,300.731,415.181z M302.604,418.849
	c-0.113-0.216-0.231-0.428-0.353-0.638c0.032,0.026,0.064,0.053,0.096,0.079c0.052,0.086,0.104,0.173,0.156,0.259
	C302.538,418.648,302.571,418.749,302.604,418.849z M303.727,421.513c0-0.006,0-0.012-0.001-0.018c0,0.006,0.002,0.012,0.002,0.018
	C303.728,421.513,303.727,421.513,303.727,421.513z M300.553,413.83c-0.335-0.952-0.668-1.9-0.991-2.848
	c0.331,0.769,0.683,1.525,1.04,2.27C300.571,413.45,300.557,413.643,300.553,413.83z M316.512,418.186
	c-0.045,0.19-0.088,0.381-0.139,0.569c0.003-0.016,0.004-0.031,0.007-0.047c0.05-0.188,0.095-0.376,0.141-0.564
	C316.518,418.158,316.515,418.172,316.512,418.186z M315.021,421.773c0.43-1.047,0.793-2.13,1.072-3.239
	c-0.091,0.529-0.203,1.052-0.334,1.568C315.536,420.666,315.29,421.224,315.021,421.773z M311.193,416.304
	c0.011-0.052,0.026-0.103,0.037-0.154C311.22,416.2,311.206,416.252,311.193,416.304z M311.006,422.71
	c-0.01-0.06-0.019-0.12-0.028-0.181c0.004,0.017,0.008,0.032,0.013,0.047C310.995,422.621,311.001,422.665,311.006,422.71z
	 M309.748,402.889c-0.137,0.056-0.272,0.112-0.41,0.176c0.086-0.068,0.175-0.146,0.269-0.229
	C309.652,402.855,309.699,402.873,309.748,402.889z M307.004,406.023c-0.346,0.345-0.571,0.734-0.715,1.146
	c0.018-0.361,0.05-0.728,0.104-1.105c-0.055,0.378-0.086,0.745-0.105,1.106c-0.003,0.01-0.008,0.019-0.011,0.028
	c0.02-0.39,0.052-0.771,0.116-1.135c0.598,0.686,0.742-1.233,1.392-1.508C307.482,405.045,307.222,405.534,307.004,406.023z
	 M306.112,408.899c0.008,0.089,0.019,0.179,0.032,0.268c-0.006,0.051-0.009,0.103-0.014,0.154
	C306.118,409.18,306.113,409.04,306.112,408.899z M307.867,416.056c0.498,0.755,0.947,1.527,1.35,2.312
	c0.078,0.261,0.155,0.521,0.231,0.783c0.028,0.137,0.062,0.271,0.085,0.409c0.063,0.179,0.127,0.371,0.191,0.568
	c0.205,0.746,0.396,1.497,0.568,2.238c-0.162-0.094-0.326-0.188-0.494-0.272C309.195,420.161,308.491,418.104,307.867,416.056z
	 M302.487,394.658c-0.056,0.057-0.108,0.117-0.164,0.174c0.048-0.069,0.094-0.141,0.143-0.209c0.015,0.024,0.032,0.051,0.047,0.075
	C302.505,394.686,302.497,394.672,302.487,394.658z M301.984,395.34c-1.318,2.159-2.328,4.498-3.071,6.923
	c-0.016-0.1-0.034-0.199-0.05-0.299c0.765-2.387,1.806-4.642,3.157-6.688c0.017-0.025,0.036-0.051,0.052-0.076
	C302.043,395.247,302.013,395.293,301.984,395.34z M300.249,412.34c0.123,0.27,0.245,0.54,0.366,0.81
	c-0.003,0.018-0.003,0.033-0.006,0.051c-0.054-0.113-0.107-0.228-0.161-0.342c-0.366-0.781-0.726-1.58-1.062-2.393
	c-0.031-0.094-0.063-0.187-0.093-0.28C299.605,410.907,299.926,411.625,300.249,412.34z M298.091,423.474
	c0.035,0.106,0.069,0.217,0.104,0.325c-0.187-0.325-0.361-0.665-0.518-1.023C297.81,423.014,297.948,423.247,298.091,423.474z
	 M318.966,393.244c0.036-0.491,0.183-0.916,0.354-1.314C319.221,392.374,319.103,392.813,318.966,393.244z M315.933,375.383
	c0.122,0.255,0.23,0.516,0.326,0.779c0.096,0.265,0.187,0.525,0.269,0.789c1.239,4.319,3.329,7.943,3.267,12.17
	c-0.015-0.04-0.027-0.08-0.045-0.122c-0.008-0.305-0.011-0.615-0.011-0.929c0,0.744-0.048,1.488-0.138,2.225
	c0.003-5.461-2.955-11.682-4.436-17.023C315.531,374.003,316.476,374.724,315.933,375.383z M312.869,391.544
	c0.223,0.766-0.647,1.402-1,1.998C311.849,392.945,312.115,392.309,312.869,391.544z M307.731,382.823
	c0.067,0.182,0.179,0.349,0.355,0.47c0.074,0.122,0.146,0.243,0.231,0.363c1.166,1.651,2.232,3.36,3.181,5.115
	c-0.066-0.07-0.123-0.143-0.189-0.213c-0.138,0.094-0.334,0.234-0.54,0.382c-0.652,0.462-1.318,0.887-1.984,1.298
	c-0.222,0.137-0.416,0.264-0.551,0.38c0.369,1.302,0.827,2.567,1.329,3.813c-0.017-0.039-0.032-0.076-0.05-0.119
	c-1-2.409-1.806-4.892-2.18-7.56C307.316,385.486,307.449,384.176,307.731,382.823z M307.275,397.105
	c-0.064,0.147-0.121,0.294-0.163,0.439c0.716-0.857,1.302-1.852,2.048-2.637c0.148-0.12,0.305-0.224,0.465-0.316
	c0.021,0.054,0.041,0.109,0.063,0.163c0.007,0.018,0.007,0.019,0.012,0.032c0.004-0.002,0.006-0.005,0.008-0.008
	c-0.008-0.021-0.037-0.09-0.078-0.189c0.617-0.355,1.335-0.487,2.26-0.222c0.078,0.045,0.159,0.098,0.24,0.151
	c-0.001-0.002-0.001-0.004-0.001-0.006c0.433,0.275,0.852,0.62,1.193,1.033c0.883,0.973,1.498,2.264,0.867,3.396
	c-0.034-0.248-0.082-0.484-0.141-0.71c-0.086,0.475-0.271,0.984-0.59,1.533c0,0.261,0.135,0.14,0.336-0.099
	c0.143-0.075,0.287-0.187,0.437-0.311c-0.005-0.062-0.013-0.122-0.019-0.183c0.301-0.333,0.639-0.612,0.925-0.459
	c0.063-0.026,0.126-0.047,0.19-0.061c-0.041,0.032-0.082,0.067-0.125,0.104c0.047,0.037,0.092,0.083,0.134,0.149
	c-0.345,0.301-0.703,0.59-1.093,0.858c0.407-0.251,0.777-0.514,1.131-0.782c0.075,0.14,0.145,0.319,0.201,0.576
	c0.061,0.281,0.119,0.563,0.173,0.845c0.447,2.322,0.646,4.682,0.591,7.058c0.013-0.068,0.024-0.137,0.037-0.205
	c0.212-1.225,0.354-2.441,0.419-3.648c0.006,1.479-0.131,2.986-0.383,4.507c0.963,2.017,1.498,4.228,0.971,6.945
	c-0.199,0.802-0.402,1.601-0.611,2.396c0.029-0.248,0.048-0.494,0.066-0.74c0.36-1.847,0.545-3.656,0.545-5.254
	c-0.16-1.108-0.528-2.139-1.002-3.138c-0.019,0.109-0.034,0.215-0.048,0.319c-0.004-0.018-0.007-0.035-0.011-0.053
	c-0.001,0.054-0.003,0.109-0.003,0.161c-0.014,0.129-0.024,0.254-0.027,0.371c0.12,0.348,0.221,0.695,0.311,1.044
	c-0.019-0.141-0.038-0.282-0.061-0.423c0.581,2.161,0.654,4.444,0.318,6.696c0.009-0.137,0.013-0.271,0.018-0.406
	c-0.015,0.1-0.037,0.199-0.055,0.299c0.036-0.441,0.058-0.881,0.064-1.317c-0.005-0.271-0.013-0.54-0.032-0.804
	c0.012,0.95-0.047,1.93-0.18,2.921c-0.046,0.211-0.104,0.42-0.157,0.63c0.117-0.913,0.176-1.84,0.179-2.775
	c0.045-0.486,0.076-0.974,0.089-1.462c-0.048-0.398-0.106-0.791-0.188-1.164c-0.021-0.128-0.05-0.252-0.071-0.38
	c-0.082-0.664-0.198-1.324-0.335-1.98c-0.141-0.453-0.293-0.901-0.457-1.348c-0.055-0.182-0.107-0.363-0.166-0.544
	c0.027,0.109,0.061,0.218,0.086,0.326c-0.729-1.934-1.658-3.818-2.635-5.696c-0.102-0.196-0.206-0.395-0.31-0.591
	c-0.013-0.022-0.026-0.045-0.038-0.067c0-0.002,0-0.005,0-0.007c-0.02-0.036-0.039-0.072-0.058-0.109
	c-0.521,0.31-0.968,0.522-1.365,0.662c0.351-0.199,0.745-0.501,1.191-0.913c-0.534,0.351-0.993,0.597-1.396,0.751
	c0.434-0.252,0.945-0.673,1.597-1.35c0.012,0.029,0.03,0.063,0.042,0.095c-0.002-0.028-0.004-0.065-0.005-0.111
	c0.028,0.002,0.058,0.009,0.087,0.013c0.587-1.287,1.047-2.95,0.662-4.403c-0.321-0.597-0.684-1.114-0.979-1.603
	c-1.763-1.33-3.029-0.102-4.239,1.327c0.279-0.384,0.644-0.797,1.096-1.254c-0.882,0.769-1.524,1.643-2.203,2.4
	c-0.016,0.061-0.025,0.119-0.039,0.178c-0.464,0.496-0.941,0.912-1.456,1.109c0.683,0.313,1.216,0.709,1.663,1.125
	c0.062,0.184,0.133,0.371,0.209,0.562c0.176,0.219,0.34,0.434,0.498,0.646c-0.09-0.26-0.169-0.502-0.24-0.735
	c0.842,0.933,1.33,1.862,1.975,2.177c-0.367-0.071-0.691-0.253-1.004-0.52c0.074,0.084,0.15,0.163,0.226,0.238
	c-0.28-0.216-0.553-0.495-0.837-0.822c-0.004-0.013-0.008-0.023-0.014-0.036c-0.127-0.144-0.26-0.295-0.396-0.455
	c0.004,0.008,0.007,0.016,0.011,0.023c-0.549-0.656-1.189-1.428-2.091-2.202C306.256,398.372,306.783,397.741,307.275,397.105z
	 M300.67,382.883c0.229-1.11,0.229-2.91,0.229-3.81c0,5.998,1.424,11.588,3.339,16.965c0.096,0.269,0.193,0.536,0.291,0.805
	c-0.01,0.012-0.018,0.024-0.027,0.036c-2.047-5.486-3.603-11.084-3.603-16.906c0,0.9,0,1.8-0.019,2.485
	c-0.004,0.108,0.024,0.189-0.049,0.333c-0.891,1.729-1.519,3.49-1.946,5.271c0.141-0.296,0.288-0.594,0.444-0.892
	c0,0,0,0.899,0.246,0.879c0.147,0.247,0.294,0.494,0.439,0.742c0.654,1.113,1.288,2.23,1.884,3.354
	c0.099,0.187,0.181,0.378,0.256,0.571c0.315,0.752,0.315,0.752,0.254,1.952c-0.048,0.074-0.095,0.151-0.143,0.227
	c-0.106,0.111-0.214,0.221-0.318,0.337c-1.057,1.191-1.958,2.645-2.618,4.534c-0.182,0.678-0.336,1.35-0.492,2.021
	c-0.512-3.207-0.801-6.398-0.604-9.527c-0.254,3.264,0.021,6.577,0.516,9.891c-0.053,0.235-0.104,0.47-0.154,0.704
	c0.057-0.197,0.11-0.396,0.171-0.592c0.016,0.108,0.032,0.218,0.049,0.326c-0.271,0.916-0.503,1.842-0.698,2.776
	c-0.035,0.215-0.069,0.43-0.102,0.644c-0.006-0.021-0.012-0.042-0.017-0.063c-0.007,0.035-0.013,0.07-0.02,0.105
	c-0.024-0.112-0.052-0.223-0.073-0.336c0.004-0.021,0.009-0.042,0.013-0.063c-1.483-5.652-1.905-11.32,0.851-17.33
	c0.337-1.564,0.823-3.109,1.512-4.626C300.404,383.424,300.533,383.153,300.67,382.883z M297.654,372.169
	c0.164,0.15,0.326,0.297,0.489,0.444c0.112,0.095,0.223,0.189,0.334,0.285c-0.043,0.094-0.086,0.188-0.13,0.283
	c-0.116-0.118-0.234-0.236-0.367-0.345c-0.149-0.206-0.298-0.409-0.445-0.61c-0.147-0.202-0.294-0.402-0.439-0.601
	C297.278,371.813,297.464,371.993,297.654,372.169z M296.093,378.407c-4.863,12.181-7.489,26.104-0.689,39.354
	C288.5,405.101,290.706,391.049,296.093,378.407z"/>
<circle fill="none" stroke="#231F20" stroke-miterlimit="10" cx="306.5" cy="354.606" r="2.5"/>
<circle fill="none" stroke="#231F20" stroke-miterlimit="10" cx="304" cy="427.606" r="2.5"/>
</svg>
