<?xml version="1.0" encoding="utf-8"?>
<!-- Generator: Adobe Illustrator 16.0.0, SVG Export Plug-In . SVG Version: 6.00 Build 0)  -->
<svg version="1.1" id="Layer_1" xmlns="http://www.w3.org/2000/svg" xmlns:xlink="http://www.w3.org/1999/xlink" x="0px" y="0px"
	 width="612px" height="792px" viewBox="0 0 612 792" enable-background="new 0 0 612 792" xml:space="preserve">
<rect x="178.831" y="331.677" fill-opacity="0" fill="#231F20" width="255.5" height="127.369"/>
<path id="SECONDARY_82_" fill="#005601" stroke="#231F20" stroke-width="3.6451" stroke-miterlimit="10" d="M432.823,440.929
	c0.688-1.955,1.052-4.091,0.852-6.333c0.203-2.022-0.143-3.771-1.426-5.05c-6.629-8.811-14.266-15.608-22.573-20.321
	c-9.011-6.514-18.645-10.839-29.645-10.405c-0.791,0.032-1.272,0.028-1.861,0.063c-0.616,0.221-1.209,0.398-1.79,0.551
	c0.799,0.086,1.58,0.477,2.329,0.967c0.898,0.025,1.739,0.032,2.424,0.032c0.268,0.331,0.507,0.654,0.764,0.984
	c-0.229-0.007-0.453-0.021-0.682-0.024c-0.474-0.061-0.888-0.11-1.33-0.168c1.109,0.821,2.125,1.571,2.999,1.461
	c2.168,2.822,4.111,5.551,5.908,8.17c2.449,2.356,4.688,5.047,6.675,8.1c0.093-0.106,0.16-0.217,0.271-0.327
	c0,0.249,0.004,0.498,0.004,0.747c1.102,1.727,2.114,3.582,3.049,5.536c1.276,1.571,2.596,3.07,4.021,4.485
	c1.747,0.75,3.498,1.588,5.249,2.541c0.431,0.053,0.852,0.135,1.279,0.22c-0.231,0.021-0.46,0.039-0.691,0.093
	c-0.054-0.028-0.107-0.064-0.16-0.093c-0.143-0.078-0.285-0.142-0.428-0.22c-0.889-0.114-1.779-0.195-2.66-0.175
	c-0.898-0.76-1.762-1.549-2.589-2.366c-0.31-0.132-0.62-0.284-0.931-0.412c-0.523-0.217-1.052-0.409-1.576-0.604
	c-0.478-1.194-0.98-2.349-1.515-3.469c-0.438-0.54-0.87-1.095-1.302-1.652c0.881,1.581,1.711,3.234,2.479,4.989
	c-0.015-0.007-0.029-0.011-0.043-0.018c-0.15-0.33-0.307-0.646-0.46-0.97c0.153,0.319,0.299,0.643,0.445,0.966
	c-0.003-0.003-0.007-0.003-0.007-0.003c0.007,0.014,0.018,0.032,0.028,0.05c0.021,0.05,0.046,0.1,0.071,0.152
	c-0.014-0.035-0.028-0.074-0.046-0.109c0.128,0.224,0.231,0.447,0.303,0.668l0.004,0.003c0.007,0.015,0.011,0.028,0.018,0.043
	c0.011,0.024,0.021,0.046,0.032,0.071c0.153,0.139,0.299,0.287,0.449,0.426c-0.039-0.096-0.068-0.198-0.104-0.295
	c0.164,0.107,0.328,0.207,0.495,0.313c1.12,0.718,2.229,1.517,3.338,2.331c-0.307,0.024-0.61,0.071-0.913,0.113
	c-0.16-0.053-0.317-0.106-0.471-0.159c0.064,0.063,0.129,0.128,0.192,0.195c-0.042,0.007-0.085,0.007-0.124,0.014
	c0.031,0.015,0.063,0.028,0.096,0.043c0.036,0.007,0.071,0.015,0.107,0.018c0.014,0.018,0.028,0.032,0.043,0.046
	c0.83,0.359,1.711,0.658,2.67,0.875c0.039,0.028,0.078,0.057,0.118,0.085c-0.118,0.024-0.229,0.067-0.347,0.096
	c-0.288-0.003-0.581-0.003-0.869-0.007c-0.371-0.163-0.728-0.355-1.088-0.547c0.175,0.181,0.342,0.362,0.514,0.543
	c-0.46,0-0.92-0.007-1.38-0.007c0.445,0,0.92,0.015,1.415,0.043c0.079,0.081,0.157,0.167,0.235,0.249
	c0.075,0.01,0.15,0.018,0.225,0.024c-0.05,0.018-0.106,0.028-0.156,0.05c0.185,0.195,0.374,0.391,0.556,0.59
	c-0.032,0.032-0.067,0.067-0.1,0.1c-0.421-0.104-0.82-0.213-1.209-0.33c-0.296,0.148-0.603,0.284-0.877,0.469
	c-0.328-0.362-0.635-0.739-0.948-1.105c0.024,0,0.054,0.004,0.078,0.004c-0.05-0.025-0.089-0.054-0.143-0.078
	c-0.05-0.061-0.1-0.117-0.149-0.175c-0.071-0.23-0.15-0.451-0.225-0.679c-0.043,0.011-0.082,0.032-0.129,0.043
	c0.051,0.135,0.107,0.267,0.153,0.401c-0.014-0.018-0.028-0.035-0.042-0.054c0.031,0.097,0.061,0.199,0.092,0.296
	c-0.003-0.004-0.007-0.004-0.01-0.008c-0.032-0.1-0.064-0.206-0.101-0.306c-0.042-0.057-0.096-0.106-0.143-0.167
	c-0.028-0.039-0.05-0.078-0.074-0.117c-0.04,0.011-0.075,0.028-0.111,0.039c0.054,0.132,0.101,0.267,0.153,0.398
	c-0.16-0.093-0.335-0.178-0.48-0.281c-0.168,0.058-0.332,0.117-0.5,0.178c0.136,0.16,0.285,0.306,0.438,0.448
	c0.229,0.007,0.453,0.014,0.682,0.024c0.096,0.249,0.192,0.498,0.285,0.75c0.067,0.043,0.139,0.085,0.207,0.124
	c-0.097-0.284-0.186-0.579-0.282-0.863c0.004,0,0.004,0,0.008,0.004c0.1,0.28,0.185,0.579,0.281,0.867
	c0.014,0.007,0.028,0.014,0.043,0.024c0.289,0.882,0.577,1.763,0.827,2.677c-0.225-0.903-0.488-1.76-0.742-2.627
	c0.606,0.359,1.284,0.676,2.015,0.953c-0.424,0.493-0.849,1.037-1.272,1.674c-0.328-0.978-0.724-1.888-1.084-2.833
	c-0.356-0.234-0.674-0.497-0.967-0.774c-0.538-0.015-1.076-0.032-1.601-0.032c0.367-0.185,0.777-0.267,1.162-0.416
	c-0.438-0.515-0.752-1.104-0.944-1.773c-2.211-1.034-3.772-2.828-4.165-6.229c-1.722-2.708-3.159-5.775-4.678-8.81
	c1.462,1.883,2.855,3.866,4.186,5.928c-0.225-0.598-0.288-1.198-0.117-1.802c-1.644-2.406-3.451-4.588-5.355-6.635
	c-0.153-0.288-0.313-0.569-0.471-0.854c-1.462-1.425-3.002-2.74-4.606-3.97c-0.068-0.057-0.129-0.12-0.196-0.174
	c0.028,0.028,0.054,0.057,0.082,0.085c-0.902-0.689-1.822-1.343-2.764-1.969c0.799,0.494,1.572,1.034,2.343,1.582
	c-1.644-1.312-3.373-2.484-5.148-3.568c-1.252-0.657-2.535-1.24-3.844-1.773c-4.863-2.296-10.083-3.866-15.481-4.698
	c2.132,0.192,4.229,0.494,6.282,0.91c-5.833-1.546-12.065-2.076-18.58-1.511c-5.809,0.299-11.67,1.422-17.393,3.391
	c-0.378-0.373-0.753-0.743-1.123-1.134c-3.483-3.692-6.682-8.241-9.513-13.889c0-7.278-14.605-3.639-25.859-4.694
	c-0.393-0.768-0.801-1.521-1.227-2.264c-8.082-14.073-22-23.367-37.816-23.367c-24.973,0-45.216,23.167-45.216,51.748
	s20.243,51.747,45.216,51.747c8.324,0,16.124-2.573,22.821-7.065c0.67-0.447,1.33-0.916,1.977-1.403
	c14.546,4.442,32.801,15.359,40.104,4.442c4.82-3.931,9.534-7.545,14.162-10.804c0.385-0.271,0.77-0.54,1.098-0.771
	c1.794,0.046,3.619,0.21,5.448,0.423c-7.031-2.857-13.734-6.03-19.539-9.122c-0.549,0.618-1.095,1.247-1.637,1.876
	c-1.08,1.262-2.139,2.541-3.184,3.842c-2.436,1.212-5.273,1.617-8.126,1.357c-0.713-0.067-1.426-0.174-2.132-0.319
	c-0.695-1.038-4.346-1.038-4.346-1.038c4.667-4.069,9.709-7.762,14.957-10.91c0.917,0.024,3.498,0.16,4.396,0.924
	c0.328,0.267,0.682,0.551,1.041,0.839c7.634,6.116,15.578,10.355,23.74,13.313c6.396,1.151,12.889,2.975,19.2,4.776
	c4.831,0.742,9.709,1.212,14.615,1.5c0.046-0.011,0.093-0.015,0.135-0.025c-4.239-1.329-8.479-2.526-12.718-2.964
	c4.503,0.416,9.452,1.561,14.244,2.744c0.464-0.021,0.935-0.015,1.416,0.028c-0.371,0.011-0.738,0.011-1.109,0.046
	c0.457,0.114,0.902,0.224,1.355,0.338c0.809,0.035,1.618,0.071,2.428,0.1c1.138,0.302,2.3,0.692,3.473,1.137
	c0.375,0.143,0.752,0.292,1.127,0.44c0.16,0.036,0.328,0.078,0.488,0.11c0.179,0.106,0.371,0.195,0.553,0.299
	c0.035,0.015,0.075,0.028,0.11,0.042c0.557,0.079,1.138,0.164,1.715,0.249c-0.506-0.327-1.022-0.632-1.504-1.009
	c-0.635-0.42-1.462-0.689-2.308-0.924c-0.396-0.11-0.806-0.182-1.208-0.277c0.499,0.014,0.998,0.031,1.497,0.042
	c0.738,0.015,1.273,0.153,1.647,0.413c-0.425-0.334-0.823-0.711-1.23-1.077c0.62,0.497,1.241,0.991,1.897,1.425
	c0.613,0.349,1.255,0.693,1.975,1.034c-0.214-0.185-0.428-0.38-0.642-0.572c-0.192-0.146-0.396-0.28-0.588-0.434
	c-1.608-0.966-3.135-2.104-4.582-3.354c-1.989-2.14-3.736-4.603-5.198-7.321c1.262,1.721,2.62,3.337,4.075,4.834
	c-0.446-0.565-0.881-1.151-1.309-1.749c-0.977-0.988-1.929-2.054-2.816-3.184c-0.157-0.292-0.311-0.59-0.46-0.889
	c0.891,1.275,1.882,2.455,2.902,3.557c-0.507-0.718-0.995-1.449-1.473-2.199c-0.749-0.995-1.494-2.001-2.226-3.007
	c-0.014-0.028-0.024-0.061-0.035-0.089c-0.149-0.191-0.296-0.384-0.442-0.575c-0.186-0.256-0.371-0.512-0.553-0.768
	c0.018,0.039,0.039,0.074,0.061,0.113c-0.164-0.217-0.328-0.434-0.492-0.653c0.122,0.323,0.225,0.653,0.357,0.97
	c0.674,1.123,1.387,2.21,2.146,3.27c-0.796-1.034-1.526-2.125-2.146-3.27c1.404,3.369,3.309,6.425,5.583,9.052
	c-3.455-3.515-6.187-7.787-7.751-12.436c-0.51-0.682-1.02-1.36-1.53-2.032c0.079,0.007,0.161,0.018,0.239,0.024
	c-0.129-0.178-0.257-0.358-0.385-0.536h-0.004c-0.089-0.011-0.175-0.021-0.264-0.032c-0.011-0.011-0.018-0.021-0.025-0.032
	c-0.417-0.092-0.834-0.185-1.248-0.28c-3.722-0.842-7.384-1.73-11.018-2.641c0.036-0.018,0.071-0.032,0.107-0.05
	c3.459,0.867,7.291,1.383,11.225,1.752c-0.157-0.202-0.314-0.397-0.471-0.601c-3.459-0.397-6.975-0.813-10.476-1.301
	c0.431-0.217,0.834-0.473,1.147-0.813c0.725-0.228,1.444-0.438,2.161-0.636c0.385-0.107,0.771-0.199,1.151-0.299
	c1.398,0.334,2.789,0.672,4.189,1.002c0.079,0.018,0.153,0.035,0.229,0.057c-0.453-0.558-0.913-1.102-1.373-1.638
	c0.039,0,0.086-0.011,0.125-0.011c0.417,0.316,0.831,0.661,1.248,1.027c-1.17-1.539-2.3-2.95-3.384-4.147
	c-0.196,0.018-0.453,0.074-0.734,0.146c-0.557-0.562-1.123-1.105-1.697-1.628c0.371,0.156,0.738,0.327,1.105,0.494
	c-0.435-0.249-0.877-0.462-1.319-0.693c-2.425-2.175-5.021-3.931-7.884-5.074c0.671,0.081,1.345,0.149,1.986,0.267
	c3.234,1.531,6.133,3.695,8.796,6.251c0.721,0.369,1.43,0.764,2.133,1.184c0.268,0.352,0.531,0.7,0.799,1.065
	c-0.717-0.543-1.444-1.041-2.176-1.531c1.477,1.479,2.878,3.074,4.229,4.733c0.085,0.021,0.171,0.043,0.253,0.061
	c0.381,0.555,0.767,1.112,1.151,1.678c-0.007,0-0.011,0-0.015,0c0.043,0.053,0.082,0.106,0.122,0.163
	c0.089,0.128,0.178,0.26,0.267,0.391c0.012,0,0.021,0.004,0.032,0.004c0.082,0.106,0.161,0.213,0.243,0.32
	c0.217,0.326,0.435,0.657,0.659,0.994c-0.015-0.003-0.032-0.007-0.05-0.01c0.089,0.131,0.175,0.259,0.264,0.391
	c0.064,0.078,0.132,0.156,0.196,0.238c0.16,0.238,0.321,0.476,0.481,0.718c-0.015-0.061-0.025-0.124-0.039-0.188
	c0.096,0.121,0.192,0.241,0.289,0.362c0.028,0.104,0.05,0.21,0.078,0.313c0.061,0.089,0.121,0.178,0.182,0.267
	c0.007,0.032,0.018,0.064,0.028,0.097c0.285,0.426,0.574,0.853,0.863,1.282c-0.047-0.092-0.101-0.181-0.146-0.273
	c0.089,0.128,0.179,0.26,0.268,0.388c-0.078-0.224-0.146-0.459-0.225-0.687c0.268,0.377,0.531,0.754,0.795,1.131
	c-0.117-0.206-0.231-0.42-0.35-0.626c4.051,5.221,8.216,11.209,12.548,15.74c-0.514-0.768-1.021-1.543-1.526-2.317
	c0.231,0.245,0.464,0.49,0.695,0.729c-3.533-6.749-7.331-12.432-11.396-17.059c-1.287-1.802-2.596-3.525-3.94-5.139
	c6.187,5.019,11.574,12.399,15.731,22.609c1.095,1.095,2.215,2.104,3.359,2.989c-0.902-0.455-1.779-0.942-2.61-1.485
	c0.039,0.039,0.075,0.081,0.114,0.12c-0.082-0.078-0.196-0.139-0.274-0.217c0.089,0.089,0.21,0.164,0.307,0.249
	c0.014,0.018,0.031,0.035,0.05,0.054c-0.114-0.11-0.246-0.192-0.356-0.303c-0.328-0.263-0.649-0.544-0.97-0.817
	c0.32,0.316,0.645,0.626,0.97,0.928c0.042,0.025,0.078,0.054,0.121,0.078c0.011,0.025,0.028,0.047,0.042,0.067
	c0.086,0.082,0.175,0.164,0.261,0.242c-0.064-0.085-0.143-0.156-0.207-0.242c0.09,0.058,0.175,0.121,0.265,0.178
	c0.245,0.245,0.488,0.473,0.734,0.708c-0.111-0.075-0.222-0.149-0.332-0.225c0.257,0.228,0.518,0.434,0.777,0.65
	c0.268,0.245,0.531,0.483,0.799,0.715c-0.164-0.075-0.321-0.167-0.485-0.246c0.175,0.136,0.347,0.277,0.524,0.409
	c0.061,0.007,0.117,0.018,0.182,0.024c0.078,0.068,0.157,0.136,0.235,0.203c0.114,0.046,0.225,0.092,0.343,0.139
	c0.195,0.142,0.392,0.295,0.588,0.434c0.214,0.078,0.421,0.174,0.639,0.249c-0.093-0.008-0.186-0.011-0.275-0.019
	c0.215,0.143,0.429,0.281,0.646,0.416c-0.221-0.096-0.435-0.191-0.648-0.299c0.164,0.097,0.324,0.199,0.488,0.292
	c-0.164-0.071-0.335-0.124-0.499-0.202c0.189,0.142,0.374,0.291,0.563,0.422c0.089,0.032,0.182,0.058,0.271,0.09
	c-0.057-0.011-0.113-0.021-0.167-0.032c-0.015-0.004-0.028-0.011-0.043-0.015c0.003,0.004,0.011,0.008,0.015,0.011
	c-0.278-0.057-0.557-0.113-0.831-0.178c0.203,0.128,0.41,0.249,0.616,0.366c-0.26-0.089-0.523-0.156-0.784-0.256
	c-0.128-0.082-0.26-0.174-0.389-0.26c-0.21-0.053-0.413-0.109-0.616-0.167c-0.222-0.096-0.436-0.206-0.653-0.313
	c-0.192-0.011-0.396-0.024-0.588-0.035c-0.699-0.225-1.369-0.473-2.004-0.736c0.535,0.256,1.077,0.494,1.633,0.718
	c-0.67-0.035-1.333-0.07-1.95-0.096c-0.73-0.17-1.458-0.355-2.189-0.551c-0.767-0.206-1.529-0.438-2.296-0.661
	c-1.797,0.263-3.697,0.392-5.669,0.409c3.769,0.729,7.345,1.165,10.625,1.069c0.713-0.021,1.252,0.143,1.797,0.362
	c1.116,0.409,2.254,0.7,3.401,0.917c-0.257-0.146-0.517-0.302-0.773-0.462c0.214,0.061,0.432,0.117,0.646,0.174
	c0.229,0.125,0.456,0.26,0.685,0.373c0.16,0.025,0.321,0.021,0.481,0.043c0.453,0.271,0.905,0.509,1.362,0.726
	c1.026,0.345,2.096,0.532,3.198,0.61c1.715,0.31,3.426,0.249,5.127-0.295c0.004,0,0.004,0.004,0.007,0.004
	c-1.665,0.661-3.319,0.885-4.96,0.743c1.688,0.245,3.402,0.057,5.152-0.669c2.528,0.981,5.377,1.589,8.454,1.589
	c9.901,0,17.928-5.771,17.928-12.89C434.331,444.24,433.782,442.506,432.823,440.929z M410.577,433.358
	c0.04,0.025,0.082,0.047,0.121,0.071c0.015,0,0.025,0.008,0.04,0.008c-0.271,0.007-0.55,0.018-0.813,0.014
	c-0.089-0.011-0.182-0.021-0.274-0.028c0.207-0.032,0.414-0.061,0.62-0.085C410.371,433.348,410.478,433.352,410.577,433.358z
	 M408.32,433.7c0.104,0.021,0.207,0.042,0.311,0.061c-0.172,0-0.339-0.004-0.51,0.003C408.188,433.746,408.253,433.718,408.32,433.7
	z M405.936,456.498c-0.585,0.061-1.163,0.078-1.748,0.092c-0.502-0.028-1.002-0.1-1.504-0.163c0.474-0.011,0.948-0.021,1.44-0.064
	c0.592,0.061,1.169,0.082,1.758,0.104C405.899,456.477,405.917,456.49,405.936,456.498z M402.049,456.668
	c0.271,0.068,0.549,0.097,0.823,0.146c-0.646-0.061-1.283-0.136-1.907-0.256C401.328,456.598,401.685,456.646,402.049,456.668z
	 M407.992,433.807c0.1,0.071,0.211,0.135,0.311,0.206c-0.2-0.039-0.396-0.082-0.596-0.117
	C407.804,433.863,407.899,433.835,407.992,433.807z M405.414,456.188c-0.174,0.028-0.349,0.05-0.523,0.071
	c0.064,0.004,0.125,0.018,0.188,0.018c0.146-0.004,0.293-0.021,0.436-0.028c0.014,0.007,0.024,0.015,0.035,0.021
	c-0.157,0-0.317,0.011-0.471,0.007c-0.132,0.004-0.268,0.007-0.399,0.011c0.068-0.007,0.14-0.018,0.211-0.028
	c-0.047,0-0.09-0.011-0.136-0.015c0.186-0.024,0.371-0.085,0.557-0.117C405.347,456.149,405.379,456.171,405.414,456.188z
	 M407.262,434.037h0.003H407.262L407.262,434.037z M405.118,456.015c0.019,0.011,0.036,0.021,0.058,0.032
	c-0.36,0.007-0.717-0.047-1.073-0.058c0.064-0.003,0.128-0.018,0.192-0.021C404.569,455.986,404.844,456.008,405.118,456.015z
	 M432.733,440.808c-0.16-0.256-0.37-0.487-0.553-0.732c0.418-1.052,0.767-2.068,1.034-3.045
	C433.208,438.338,433.026,439.6,432.733,440.808z M428.598,425.906c0.025,0.025,0.043,0.057,0.071,0.082
	c-5.366-5.306-10.775-10.452-16.405-14.826C418.04,414.801,423.545,419.612,428.598,425.906z M411.158,432.246
	c0.816,0.178,1.612,0.502,2.382,0.942c-0.249,0-0.499,0-0.752,0.003c-0.987-0.397-1.993-0.707-3.03-0.935
	C410.242,432.204,410.709,432.2,411.158,432.246z M407.404,432.684c-0.172,0.082-0.343,0.167-0.514,0.267
	c-0.171-0.132-0.335-0.267-0.503-0.401C406.723,432.595,407.062,432.638,407.404,432.684z M404.409,432.275
	c0.271,0.042,0.549,0.078,0.823,0.117c0.021,0.014,0.039,0.028,0.061,0.042c0.068,0.054,0.136,0.1,0.207,0.153
	C405.137,432.48,404.766,432.385,404.409,432.275z M405.236,433.291c0.089,0.008,0.178,0.015,0.271,0.025
	c-0.039,0.011-0.078,0.024-0.117,0.035C405.336,433.33,405.286,433.313,405.236,433.291z M406.288,434.479
	c0.521,0.109,1.048,0.22,1.594,0.323c-0.691,0.271-1.373,0.551-2.004,0.885c-0.36-0.11-0.71-0.221-1.048-0.341
	C405.314,435.008,405.8,434.72,406.288,434.479z M337.319,418.628c0.617-0.614,1.124-0.789,1.569-0.718
	C338.368,418.145,337.854,418.361,337.319,418.628z M297.157,418.628c4.161-3.227,8.732-6.155,13.574-8.718
	c-0.389-0.202-0.773-0.404-1.162-0.61c-2.813-1.511-5.591-3.11-8.333-4.802c-0.629-0.195-1.109-0.338-1.462-0.469
	c-0.579-1.443-0.615-1.891-0.636-2.235c0.526,0.679,1.061,1.333,1.619,1.891c2.991,1.688,6.013,3.255,9.062,4.716
	c0.674,0.319,1.348,0.636,2.025,0.949c1.651-0.85,3.327-1.653,5.031-2.41c-0.196,0.121-0.393,0.242-0.585,0.362
	c0.777-0.384,1.551-0.76,2.332-1.122c11.203-4.724,23.344-7.425,34.928-7.239c-13.014,0.063-26.895,3.831-39.784,10.015
	c-0.695,0.479-1.395,0.952-2.078,1.46c-0.146-0.074-0.289-0.152-0.436-0.23C306.353,412.683,301.618,415.515,297.157,418.628z
	 M362.878,447.741c1.055,0,2.157,0.071,3.28,0.174C365.063,447.802,363.973,447.741,362.878,447.741z M361.641,428.415
	c-0.285-0.042-0.567-0.085-0.849-0.128c-7.402-1.9-14.637-3.979-21.668-6.361c0.264,0.203,0.549,0.395,0.827,0.59
	c-0.425-0.213-0.885-0.391-1.291-0.618c-0.146-0.081-0.274-0.174-0.417-0.259c-0.028-0.008-0.054-0.015-0.082-0.025
	c-0.763-0.263-1.522-0.525-2.186-0.725c0.268-0.05,0.517-0.114,0.78-0.167c-0.078-0.05-0.164-0.097-0.242-0.149
	c0.229-0.057,0.453-0.125,0.678-0.182c0.071,0.061,0.149,0.128,0.221,0.192c1.134-0.249,2.232-0.53,3.288-0.839
	c1.083,1.862,2.104,4.098,4.41,1.5c0.81,0.181,1.615,0.387,2.417,0.604c4.91,1.329,9.866,2.556,14.844,3.757
	c-0.609,0.31-1.219,0.622-1.832,0.967c-1.313-0.665-4.964-0.665-4.964-0.665C357.348,426.966,359.408,427.769,361.641,428.415z
	 M365.373,418.177c0.375,0.156,0.81,0.281,1.155,0.451c0.204,0.203,0.41,0.434,0.613,0.647
	C366.561,418.888,365.973,418.518,365.373,418.177z M377.35,431.443c0.015,0.021,0.029,0.039,0.043,0.061
	c0.036,0.174,0.09,0.345,0.129,0.516c-0.05-0.09-0.097-0.178-0.143-0.268C377.364,431.649,377.361,431.547,377.35,431.443z
	 M403.186,454.717c0.114,0.089,0.204,0.192,0.318,0.277c-1.837-0.014-3.619-0.206-5.26-0.586c-0.136-0.05-0.271-0.104-0.402-0.153
	C399.62,454.469,401.421,454.639,403.186,454.717z M395.773,453.619c0.032,0.025,0.064,0.05,0.1,0.071
	c-1.08-0.416-2.015-0.949-2.838-1.563C393.934,452.685,394.85,453.172,395.773,453.619z M392.714,451.913
	c0.05,0.028,0.1,0.067,0.149,0.1c0.978,0.793,2.165,1.482,3.523,2.054c0.004,0,0.011,0,0.014,0c0.004,0.004,0.008,0.008,0.011,0.011
	c0.878,0.366,1.815,0.679,2.8,0.942c-0.436-0.021-0.863-0.043-1.295-0.067c-0.046-0.019-0.096-0.039-0.146-0.054
	c0.004,0,0.008,0.004,0.008,0.004c-0.004,0-0.008-0.004-0.015-0.008c-0.581-0.181-1.155-0.391-1.729-0.614
	c-0.188-0.104-0.367-0.221-0.553-0.331c0.118,0.019,0.239,0.032,0.357,0.047c-0.643-0.32-1.273-0.658-1.883-1.034
	C393.527,452.639,393.12,452.279,392.714,451.913z M396.597,454.618c0.3,0.106,0.592,0.209,0.898,0.309
	c-0.063-0.003-0.128-0.007-0.192-0.011C397.071,454.81,396.825,454.735,396.597,454.618z M398.832,455.464
	c0.211,0.103,0.421,0.191,0.632,0.284c-0.356-0.106-0.702-0.249-1.052-0.381C398.551,455.399,398.693,455.432,398.832,455.464z
	 M397.706,456.05c0.011,0.004,0.021,0.004,0.032,0.007c0.007,0.004,0.01,0.008,0.018,0.011
	C397.738,456.061,397.724,456.057,397.706,456.05z M398.683,456.316c0.047,0.004,0.089,0.007,0.136,0.011
	c0.014,0.011,0.032,0.015,0.05,0.024C398.808,456.338,398.747,456.331,398.683,456.316z"/>
</svg>
