<?xml version="1.0" encoding="utf-8"?>
<!-- Generator: Adobe Illustrator 16.0.0, SVG Export Plug-In . SVG Version: 6.00 Build 0)  -->
<svg version="1.1" id="Layer_1" xmlns="http://www.w3.org/2000/svg" xmlns:xlink="http://www.w3.org/1999/xlink" x="0px" y="0px"
	 width="612px" height="792px" viewBox="0 0 612 792" enable-background="new 0 0 612 792" xml:space="preserve">
<rect id="head_frame" x="231.5" y="330.5" fill-opacity="0" fill="#BBBCBE" width="151" height="131"/>
<path id="PRIMARY" fill="#00BC03" stroke="#231F20" stroke-miterlimit="10" d="M343,445.5l-33.818-0.151l0,0l-37.318,0.151v-64.396
	c0-14.276,15.924-25.849,35.568-25.849l0,0c19.644,0,35.568,11.573,35.568,25.849V445.5z"/>
<path fill="none" stroke="#231F20" stroke-miterlimit="10" d="M339,445.5c0-46.551-3.914-84.22-8.75-84.22"/>
<path fill="none" stroke="#231F20" stroke-miterlimit="10" d="M321.75,445.5c0-49.07-1.115-88.776-2.493-88.776"/>
<path fill="none" stroke="#231F20" stroke-miterlimit="10" d="M306,445.5c0-49.881,0-90.244,0-90.244"/>
<path fill="none" stroke="#231F20" stroke-miterlimit="10" d="M291.753,445.42c0-49.236,2.443-89.078,5.464-89.078"/>
<path fill="none" stroke="#231F20" stroke-miterlimit="10" d="M281,445.42c0-46.508,1.616-84.14,3.613-84.14"/>
<ellipse id="SECONDARY_13_" fill="#005601" cx="313.809" cy="386.145" rx="8.827" ry="14.233"/>
<ellipse id="SECONDARY_12_" fill="#005601" cx="333.867" cy="386.145" rx="8.826" ry="14.233"/>
<ellipse id="SECONDARY_11_" fill="#005601" cx="333.867" cy="427.742" rx="4.25" ry="12.501"/>
<polygon id="SECONDARY_10_" fill="#005601" points="288.087,364.974 285.731,367.369 278.468,355.191 290.759,362.256 "/>
<polygon id="SECONDARY_9_" fill="#005601" points="327.354,366.999 325.041,364.563 337.459,357.719 329.979,369.761 "/>
<polygon id="SECONDARY_8_" fill="#005601" points="310.645,360.162 307.379,360.952 307.643,346.775 314.349,359.266 "/>
<polygon id="SECONDARY_7_" fill="#005601" points="327.542,406.629 327.845,400.881 350.801,410.073 327.199,413.15 "/>
<polygon id="SECONDARY_6_" fill="#005601" points="294.485,411.131 291.347,409.935 299.585,398.395 298.047,412.488 "/>
<polygon id="SECONDARY_5_" fill="#005601" points="277.965,375.626 276.646,378.717 265.436,370.034 279.459,372.121 "/>
<polygon id="SECONDARY_4_" fill="#005601" points="275.337,404.072 272.982,406.467 265.718,394.289 278.01,401.354 "/>
<polygon id="SECONDARY_3_" fill="#005601" points="274.814,430.84 272.702,433.451 264.294,422.033 277.211,427.877 "/>
<polygon id="SECONDARY_2_" fill="#005601" points="298.503,381.401 295.374,382.62 293.743,368.535 302.055,380.019 "/>
<polygon id="SECONDARY_1_" fill="#005601" points="307.779,431.242 304.982,429.382 315.567,419.947 310.952,433.352 "/>
<polygon id="SECONDARY" fill="#005601" points="295.227,432.758 292.871,435.152 285.607,422.975 297.898,430.041 "/>
</svg>
