<?xml version="1.0" encoding="utf-8"?>
<!-- Generator: Adobe Illustrator 16.0.0, SVG Export Plug-In . SVG Version: 6.00 Build 0)  -->
<svg version="1.1" id="Layer_1" xmlns="http://www.w3.org/2000/svg" xmlns:xlink="http://www.w3.org/1999/xlink" x="0px" y="0px"
	 width="612px" height="792px" viewBox="0 0 612 792" enable-background="new 0 0 612 792" xml:space="preserve">
<rect id="head_frame" x="178" y="286" fill-opacity="0" fill="#BBBCBE" width="256" height="222"/>
<path id="PRIMARY" fill="#00BC03" stroke="#231F20" stroke-width="1.695" stroke-miterlimit="10" d="M367.033,480.886l-57.335-0.257
	l0,0l-63.267,0.257V371.757c0-24.193,26.998-43.805,60.301-43.805l0,0c33.303,0,60.301,19.612,60.301,43.805V480.886z"/>
<path fill="none" stroke="#231F20" stroke-width="1.695" stroke-miterlimit="10" d="M360.252,480.886
	c0-78.888-6.636-142.725-14.835-142.725"/>
<path fill="none" stroke="#231F20" stroke-width="1.695" stroke-miterlimit="10" d="M331.007,480.886
	c0-83.157-1.891-150.446-4.227-150.446"/>
<path fill="none" stroke="#231F20" stroke-width="1.695" stroke-miterlimit="10" d="M304.305,480.886c0-84.531,0-152.933,0-152.933"
	/>
<path fill="none" stroke="#231F20" stroke-width="1.695" stroke-miterlimit="10" d="M280.151,480.75
	c0-83.438,4.142-150.957,9.263-150.957"/>
<path fill="none" stroke="#231F20" stroke-width="1.695" stroke-miterlimit="10" d="M261.92,480.75
	c0-78.815,2.74-142.589,6.126-142.589"/>
<ellipse id="SECONDARY_13_" fill="#005601" cx="322.53" cy="385.246" rx="10.172" ry="19.173"/>
<ellipse id="SECONDARY_12_" fill="#005601" cx="354.742" cy="385.246" rx="10.172" ry="19.173"/>
<ellipse id="SECONDARY_11_" fill="#005601" cx="339.907" cy="444.874" rx="7.205" ry="12.922"/>
<polygon id="SECONDARY_10_" fill="#005601" points="273.936,344.421 269.942,348.479 257.627,327.843 278.465,339.816 "/>
<polygon id="SECONDARY_9_" fill="#005601" points="340.507,347.853 336.586,343.724 357.639,332.126 344.957,352.534 "/>
<polygon id="SECONDARY_8_" fill="#005601" points="312.179,336.267 306.643,337.605 307.09,313.581 318.459,334.748 "/>
<polygon id="SECONDARY_7_" fill="#005601" points="340.826,415.013 341.34,405.271 380.258,420.85 340.245,426.064 "/>
<polygon id="SECONDARY_6_" fill="#005601" points="284.783,422.642 279.462,420.614 293.429,401.058 290.821,424.942 "/>
<polygon id="SECONDARY_5_" fill="#005601" points="256.775,362.474 254.54,367.711 235.534,352.997 259.308,356.533 "/>
<polygon id="SECONDARY_4_" fill="#005601" points="252.32,410.68 248.327,414.737 236.013,394.101 256.851,406.074 "/>
<polygon id="SECONDARY_3_" fill="#005601" points="251.434,456.042 247.852,460.467 233.599,441.117 255.497,451.021 "/>
<polygon id="SECONDARY_2_" fill="#005601" points="296.227,372.26 290.92,374.325 288.156,350.456 302.249,369.917 "/>
<polygon id="SECONDARY_1_" fill="#005601" points="307.321,456.724 302.58,453.57 320.524,437.582 312.7,460.298 "/>
<polygon id="SECONDARY" fill="#005601" points="286.04,459.292 282.046,463.35 269.732,442.713 290.569,454.688 "/>
</svg>
