<?xml version="1.0" encoding="utf-8"?>
<!-- Generator: Adobe Illustrator 16.0.0, SVG Export Plug-In . SVG Version: 6.00 Build 0)  -->
<svg version="1.1" id="Layer_1" xmlns="http://www.w3.org/2000/svg" xmlns:xlink="http://www.w3.org/1999/xlink" x="0px" y="0px"
	 width="612px" height="792px" viewBox="0 0 612 792" enable-background="new 0 0 612 792" xml:space="preserve">
<rect id="head_frame" x="230.5" y="331.5" fill-opacity="0" fill="#BBBCBE" width="151" height="131"/>
<path id="PRIMARY" fill="#00BC03" stroke="#231F20" stroke-miterlimit="10" d="M342,446.5l-33.818-0.151l0,0l-37.318,0.151v-64.396
	c0-14.276,15.924-25.849,35.568-25.849l0,0c19.644,0,35.568,11.573,35.568,25.849V446.5z"/>
<path fill="none" stroke="#231F20" stroke-miterlimit="10" d="M338,446.5c0-46.551-3.914-84.22-8.75-84.22"/>
<path fill="none" stroke="#231F20" stroke-miterlimit="10" d="M320.75,446.5c0-49.07-1.115-88.776-2.493-88.776"/>
<path fill="none" stroke="#231F20" stroke-miterlimit="10" d="M305,446.5c0-49.881,0-90.244,0-90.244"/>
<path fill="none" stroke="#231F20" stroke-miterlimit="10" d="M290.753,446.42c0-49.236,2.443-89.078,5.464-89.078"/>
<path fill="none" stroke="#231F20" stroke-miterlimit="10" d="M280,446.42c0-46.508,1.616-84.14,3.613-84.14"/>
<ellipse id="SECONDARY_13_" fill="#005601" cx="312.809" cy="387.145" rx="8.827" ry="14.233"/>
<ellipse id="SECONDARY_12_" fill="#005601" cx="332.867" cy="387.145" rx="8.826" ry="14.233"/>
<ellipse id="SECONDARY_11_" fill="#005601" cx="332.867" cy="428.742" rx="4.25" ry="12.501"/>
<polygon id="SECONDARY_10_" fill="#005601" points="287.087,365.974 284.731,368.369 277.468,356.191 289.759,363.256 "/>
<polygon id="SECONDARY_9_" fill="#005601" points="326.354,367.999 324.041,365.563 336.459,358.719 328.979,370.761 "/>
<polygon id="SECONDARY_8_" fill="#005601" points="309.645,361.162 306.379,361.952 306.643,347.775 313.349,360.266 "/>
<polygon id="SECONDARY_7_" fill="#005601" points="326.542,407.629 326.845,401.881 349.801,411.073 326.199,414.15 "/>
<polygon id="SECONDARY_6_" fill="#005601" points="293.485,412.131 290.347,410.935 298.585,399.395 297.047,413.488 "/>
<polygon id="SECONDARY_5_" fill="#005601" points="276.965,376.626 275.646,379.717 264.436,371.034 278.459,373.121 "/>
<polygon id="SECONDARY_4_" fill="#005601" points="274.337,405.072 271.982,407.467 264.718,395.289 277.01,402.354 "/>
<polygon id="SECONDARY_3_" fill="#005601" points="273.814,431.84 271.702,434.451 263.294,423.033 276.211,428.877 "/>
<polygon id="SECONDARY_2_" fill="#005601" points="297.503,382.401 294.374,383.62 292.743,369.535 301.055,381.019 "/>
<polygon id="SECONDARY_1_" fill="#005601" points="306.779,432.242 303.982,430.382 314.567,420.947 309.952,434.352 "/>
<polygon id="SECONDARY" fill="#005601" points="294.227,433.758 291.871,436.152 284.607,423.975 296.898,431.041 "/>
<ellipse fill="#FFFFFF" stroke="#231F20" stroke-miterlimit="10" cx="345" cy="387.457" rx="15.547" ry="6.975"/>
<ellipse fill="#FFFFFF" stroke="#231F20" stroke-miterlimit="10" cx="324.73" cy="387.145" rx="15.547" ry="6.975"/>
<circle fill="#231F20" cx="336.459" cy="387.457" r="0.766"/>
<circle fill="#231F20" cx="356.667" cy="387.457" r="0.766"/>
</svg>
