<?xml version="1.0" encoding="utf-8"?>
<!-- Generator: Adobe Illustrator 16.0.0, SVG Export Plug-In . SVG Version: 6.00 Build 0)  -->
<svg version="1.1" id="Layer_1" xmlns="http://www.w3.org/2000/svg" xmlns:xlink="http://www.w3.org/1999/xlink" x="0px" y="0px"
	 width="612px" height="792px" viewBox="0 0 612 792" enable-background="new 0 0 612 792" xml:space="preserve">
<rect id="body_frame" x="231.5" y="300.5" fill-opacity="0" fill="#BBBCBE" width="151" height="191"/>
<path id="PRIMARY_2_" fill="#894000" stroke="#231F20" stroke-miterlimit="10" d="M329.873,479.89
	c5.873,4.257,12.873,4.617,15.635,0.809l0,0c2.76-3.813,0.238-10.35-5.635-14.605c0,0-4.387-3.181-10.969-7.948
	c-3.596,0.21-7.982,0.838-14.32,2.493c-19.043,4.335-47.65-2.768-63.066-23.771c-18.664-25.429,4.642-16.83,2.313-31.763
	c-0.935-5.992,1.777-5.121-4.969-7.561c-6.753-2.442-12.479,3.668-15.522,11.906c-4.282,13.986,7.517,32.031,23.828,43.854
	c14.843,9.809,31.942,16.504,47.458,16.13c7.037,0.254,10.531,1.578,14.281,2.506C325.486,476.709,329.873,479.89,329.873,479.89z"
	/>
<path id="PRIMARY_1_" fill="#894000" stroke="#231F20" stroke-miterlimit="10" d="M356.822,313.033H342.5
	c0-12.533-17-12.033-36.501-12.033C288.5,301,271,300.651,271,313.033h-13.824c-13.353,0-24.176,11.775-24.176,26.3
	c0,14.526,10.824,26.301,24.176,26.301h4.909c-1.568,9.535-1.474,19.789-2.418,30.366c-8.334,93.337,0.662,95,46.332,95
	c42.001,0,56.168,1.837,46.333-95c-1.073-10.565-0.851-20.831-2.418-30.366h6.908c13.354,0,24.178-11.775,24.178-26.301
	C381,324.808,370.176,313.033,356.822,313.033z"/>
<path id="SECONDARY_1_" fill="#FFC18C" stroke="#231F20" stroke-miterlimit="10" d="M338.216,322.5h-55.108
	c-7.555,0-13.68,7.835-13.68,17.5s6.125,17.5,13.68,17.5h2.523c-1.157,9.457-0.141,24.93-0.141,50.164
	c0,35.76-0.323,64.75,24.88,64.75c24.297,0,24.88-28.99,24.88-64.75c0-25.271,0.991-40.729-0.1-50.164h3.065
	c7.556,0,13.679-7.835,13.679-17.5S345.771,322.5,338.216,322.5z"/>
</svg>
