<?xml version="1.0" encoding="utf-8"?>
<!-- Generator: Adobe Illustrator 16.0.0, SVG Export Plug-In . SVG Version: 6.00 Build 0)  -->
<svg version="1.1" id="Layer_1" xmlns="http://www.w3.org/2000/svg" xmlns:xlink="http://www.w3.org/1999/xlink" x="0px" y="0px"
	 width="612px" height="792px" viewBox="0 0 612 792" enable-background="new 0 0 612 792" xml:space="preserve">
<rect id="body_frame" x="206" y="268.081" fill="#BBBCBE" fill-opacity="0" width="202" height="256"/>
<path id="PRIMARY_2_" fill="#894000" stroke="#231F20" stroke-width="1.3386" stroke-miterlimit="10" d="M337.599,508.367
	c7.856,5.703,17.221,6.185,20.915,1.085l0,0c3.692-5.108,0.318-13.864-7.538-19.563c0,0-5.868-4.261-14.673-10.646
	c-4.812,0.281-10.679,1.122-19.157,3.338c-25.475,5.807-63.744-3.707-84.366-31.84c-24.968-34.061,6.21-22.543,3.094-42.545
	c-1.251-8.026,2.377-6.859-6.648-10.128c-9.034-3.271-16.693,4.913-20.764,15.947c-5.728,18.733,10.056,42.905,31.876,58.741
	c19.856,13.14,42.73,22.106,63.487,21.605c9.414,0.341,14.088,2.113,19.104,3.357C331.73,504.107,337.599,508.367,337.599,508.367z"
	/>
<path id="PRIMARY_1_" fill="#894000" stroke="#231F20" stroke-width="1.3386" stroke-miterlimit="10" d="M373.649,284.869H354.49
	c0-16.788-22.742-16.118-48.829-16.118c-23.41,0-46.82-0.467-46.82,16.118h-18.493c-17.862,0-32.341,15.772-32.341,35.228
	c0,19.457,14.48,35.229,32.341,35.229h6.567c-2.098,12.772-1.972,26.506-3.235,40.674c-11.148,125.021,0.886,127.249,61.981,127.249
	c56.187,0,75.139,2.461,61.981-127.249c-1.436-14.151-1.138-27.902-3.234-40.674h9.241c17.864,0,32.344-15.772,32.344-35.229
	C405.993,300.641,391.514,284.869,373.649,284.869z"/>
<path id="SECONDARY_1_" fill="#FFC18C" stroke="#231F20" stroke-width="1.3386" stroke-miterlimit="10" d="M348.759,297.549h-73.72
	c-10.106,0-18.3,10.495-18.3,23.44c0,12.946,8.194,23.441,18.3,23.441h3.375c-1.547,12.667-0.188,33.393-0.188,67.193
	c0,47.898-0.433,86.73,33.283,86.73c32.503,0,33.282-38.832,33.282-86.73c0-33.85,1.326-54.556-0.133-67.193h4.1
	c10.108,0,18.299-10.495,18.299-23.441C367.057,308.044,358.866,297.549,348.759,297.549z"/>
</svg>
