<?xml version="1.0" encoding="utf-8"?>
<!-- Generator: Adobe Illustrator 16.0.0, SVG Export Plug-In . SVG Version: 6.00 Build 0)  -->
<svg version="1.1" id="Layer_1" xmlns="http://www.w3.org/2000/svg" xmlns:xlink="http://www.w3.org/1999/xlink" x="0px" y="0px"
	 width="612px" height="792px" viewBox="0 0 612 792" enable-background="new 0 0 612 792" xml:space="preserve">
<rect x="191" y="269.056" fill="#231F20" fill-opacity="0" width="230" height="255.075"/>
<path id="PRIMARY_8_" fill="#666666" stroke="#231F20" stroke-width="2.8477" stroke-miterlimit="10" d="M257.493,472.997
	c0,28.127,22.67,50.928,50.637,50.928l0,0c6.993,0,49.444-18.586,19.709-3.997c30.569-14.938,51.925-12.144,16.098-10.916
	c35.829-1.228,47.698-17.9,10.848-16.19c36.851-1.71,40.801-25.721,3.982-19.821c36.818-5.899,35.392-16.899,0-8.479
	c35.392-8.501,32.766-35.271,0-21.855c32.688-13.979,33.491-41.579,0-29.89c33.439-11.977,34.634-43.252,0-32.563
	c34.545-11.355,32.998-43.437,0-29.887c32.96-13.835,32.915-38.234,0-21.856c32.913-16.457,24.027-38.607,0-8.477
	c24.025-30.148,6.239-46.047-3.982-19.823c10.224-26.221,9.803-26.846-10.848-16.188c20.65-10.658,16.325-9.467-16.098-10.917
	c29.993,0.526-12.719-4-19.709-4l0,0c-27.967,0-50.637,22.802-50.637,50.93V472.997z"/>
<ellipse fill="none" stroke="#231F20" stroke-width="2.8477" stroke-miterlimit="10" cx="303.87" cy="292.397" rx="7.099" ry="7.14"/>
<ellipse fill="none" stroke="#231F20" stroke-width="2.8477" stroke-miterlimit="10" cx="303.87" cy="502.711" rx="7.099" ry="7.14"/>
</svg>
