<?xml version="1.0" encoding="utf-8"?>
<!-- Generator: Adobe Illustrator 16.0.0, SVG Export Plug-In . SVG Version: 6.00 Build 0)  -->
<svg version="1.1" id="Layer_1" xmlns="http://www.w3.org/2000/svg" xmlns:xlink="http://www.w3.org/1999/xlink" x="0px" y="0px"
	 width="612px" height="792px" viewBox="0 0 612 792" enable-background="new 0 0 612 792" xml:space="preserve">
<rect x="178" y="272.213" fill="#231F20" fill-opacity="0" width="256" height="248.941"/>
<path id="PRIMARY_7_" fill="#666666" stroke="#231F20" stroke-width="3.1718" stroke-miterlimit="10" d="M197.599,422.646
	c-10.332-12.48-14.665-27.992-13.316-42.99c0.675-7.496,2.773-14.865,6.242-21.665c3.477-6.792-3.347-56.996,14.526-18.219
	c-17.461-39.461-17.461-39.461,0,0c-17.117-39.755-8.872-43.199,20.404-11.119c-29.237-32.096,21.958-45.854,22.281-2.296
	c-0.111-43.485,23.814-36.366,21.511,6.287c2.304-42.653,17.979-25.741,18.089,14.627c-0.106-40.368,8.323-29.377,9.668,11.673
	c-1.345-41.053,23.49-15.487,21.267,25.681c2.223-41.167,20.043-15.639,21.269,25.678c-1.226-41.316,8.352-29.622,9.667,11.673
	c-1.315-41.295,17.08-20.172,11.04,20.553c6.04-40.725,29.769-10.941,2.277,22.44c27.491-33.376,34.633,8.266-6.243,21.667
	c40.876-13.401,28.256,19.651-14.522,18.219c42.766,1.442,42.766,1.442,0,0c42.754,1.455-13.142,8.896-20.404,11.119
	c-7.262,2.223-14.833,2.975-22.282,2.297c-14.892-1.358-29.267-8.437-39.599-20.917L197.599,422.646z"/>
</svg>
