<?xml version="1.0" encoding="utf-8"?>
<!-- Generator: Adobe Illustrator 16.0.0, SVG Export Plug-In . SVG Version: 6.00 Build 0)  -->
<svg version="1.1" id="Layer_1" xmlns="http://www.w3.org/2000/svg" xmlns:xlink="http://www.w3.org/1999/xlink" x="0px" y="0px"
	 width="612px" height="792px" viewBox="0 0 612 792" enable-background="new 0 0 612 792" xml:space="preserve">
<rect x="265.5" y="351.937" fill-opacity="0" fill="#231F20" width="81" height="89.313"/>
<path id="PRIMARY_8_" fill="#666666" stroke="#231F20" stroke-miterlimit="10" d="M288.917,423.346
	c0,9.848,7.984,17.832,17.833,17.832l0,0c2.463,0,17.413-6.508,6.941-1.4c10.766-5.23,18.287-4.252,5.669-3.822
	c12.618-0.43,16.798-6.268,3.821-5.669c12.977-0.599,14.369-9.006,1.402-6.94c12.967-2.066,12.464-5.917,0-2.969
	c12.464-2.977,11.539-12.35,0-7.652c11.512-4.895,11.795-14.559,0-10.466c11.776-4.194,12.197-15.145,0-11.402
	c12.166-3.976,11.621-15.209,0-10.465c11.607-4.844,11.592-13.387,0-7.653c11.591-5.762,8.462-13.518,0-2.968
	c8.461-10.556,2.197-16.123-1.402-6.941c3.6-9.181,3.452-9.4-3.821-5.668c7.273-3.732,5.749-3.315-5.669-3.822
	c10.563,0.184-4.479-1.401-6.941-1.401l0,0c-9.849,0-17.833,7.984-17.833,17.833V423.346z"/>
<circle fill="none" stroke="#231F20" stroke-miterlimit="10" cx="305.25" cy="360.11" r="2.5"/>
<circle fill="none" stroke="#231F20" stroke-miterlimit="10" cx="305.25" cy="433.75" r="2.5"/>
</svg>
