<?xml version="1.0" encoding="utf-8"?>
<!-- Generator: Adobe Illustrator 16.0.0, SVG Export Plug-In . SVG Version: 6.00 Build 0)  -->
<svg version="1.1" id="Layer_1" xmlns="http://www.w3.org/2000/svg" xmlns:xlink="http://www.w3.org/1999/xlink" x="0px" y="0px"
	 width="612px" height="792px" viewBox="0 0 612 792" enable-background="new 0 0 612 792" xml:space="preserve">
<rect id="head_frame" x="178" y="286" fill-opacity="0" fill="#BBBCBE" width="256" height="222"/>
<path id="SECONDARY_1_" fill="#7CD5FF" stroke="#231F20" stroke-width="1.695" stroke-miterlimit="10" d="M332.123,401.517
	c-13.865,9.448-18.295-9.743-17.438-22.872c0.214-2.472,0.735-4.902,1.589-7.262c2.737-7.556,8.464-13.225,15.938-16.664
	c1.871-0.863,3.845-1.579,5.911-2.16c13.543-2.492,24.301,5.157,36.907,10.861c1.804,0.81,3.119,1.488,4.781,2.498
	c11.27,9.087,29.182,17.883,21.271,42.944c-14.673-11.66-27.255-21.654-49.536-13.422c-1.713,0.369-3.378,0.743-4.985,1.138
	c-4.823,1.172-9.088,2.48-12.456,3.971C333.396,400.905,332.735,401.233,332.123,401.517z"/>
<path id="SECONDARY_17_" fill="#7CD5FF" stroke="#231F20" stroke-width="1.695" stroke-miterlimit="10" d="M276.487,401.518
	c13.864,9.447,18.294-9.743,17.437-22.873c-0.213-2.472-0.735-4.902-1.589-7.262c-2.737-7.556-8.463-13.226-15.937-16.664
	c-1.871-0.863-3.844-1.579-5.911-2.16c-13.543-2.492-24.3,5.157-36.907,10.86c-1.805,0.81-3.12,1.489-4.781,2.498
	c-11.271,9.087-29.183,17.883-21.272,42.944c14.673-11.659,27.254-21.654,49.537-13.421c1.712,0.369,3.377,0.743,4.985,1.139
	c4.823,1.173,9.088,2.479,12.456,3.972C275.213,400.905,275.874,401.233,276.487,401.518z"/>
<ellipse id="PRIMARY" fill="#F77300" stroke="#231F20" stroke-width="1.695" stroke-miterlimit="10" cx="304.305" cy="420.726" rx="70.357" ry="70.328"/>
<path id="SECONDARY" fill="#7CD5FF" stroke="#231F20" stroke-width="1.695" stroke-miterlimit="10" d="M323.236,358.729
	c0,10.686-8.665,19.347-19.355,19.347c-10.689,0-19.354-8.662-19.354-19.347c0-10.685,19.354-43.636,19.354-43.636
	S323.236,348.043,323.236,358.729z"/>
<ellipse id="PRIMARY_3_" fill="#F77300" stroke="#231F20" stroke-width="1.695" stroke-miterlimit="10" cx="266.567" cy="408.228" rx="12.807" ry="12.802"/>
<ellipse id="PRIMARY_2_" fill="#F77300" stroke="#231F20" stroke-width="1.695" stroke-miterlimit="10" cx="341.196" cy="408.228" rx="12.807" ry="12.802"/>
<ellipse id="PRIMARY_1_" fill="#F77300" stroke="#231F20" stroke-width="1.695" stroke-miterlimit="10" cx="303.881" cy="408.228" rx="12.808" ry="12.802"/>
<path fill="#231F20" stroke="#231F20" stroke-width="1.695" stroke-miterlimit="10" d="M333.323,473.895
	c0-4.332-13.211-22.093-29.471-22.093s-29.413,17.909-29.413,22.093c0,2.549,13.182-3.389,29.442-3.389
	S333.323,476.443,333.323,473.895z"/>
<path id="SECONDARY_7_" fill="#7CD5FF" d="M253.26,440.805c0.066,0.832-0.551,1.565-1.386,1.633
	c-0.837,0.071-1.568-0.551-1.637-1.383c-0.068-0.834,0.55-1.565,1.384-1.636C252.455,439.35,253.187,439.971,253.26,440.805z"/>
<path id="SECONDARY_6_" fill="#7CD5FF" d="M266.654,440.803c0.07,0.834-0.551,1.569-1.389,1.635
	c-0.833,0.07-1.565-0.549-1.631-1.383c-0.071-0.834,0.549-1.565,1.381-1.636C265.853,439.35,266.584,439.972,266.654,440.803z"/>
<path id="SECONDARY_5_" fill="#7CD5FF" d="M259.821,453.374c0.069,0.834-0.553,1.563-1.388,1.635
	c-0.834,0.069-1.566-0.553-1.636-1.389c-0.066-0.832,0.557-1.563,1.391-1.635C259.02,451.919,259.751,452.54,259.821,453.374z"/>
<path fill="none" stroke="#231F20" stroke-width="1.695" stroke-miterlimit="10" d="M270.914,469.917
	c-3.413,6.78,1.342,10.569,8.182,8.794"/>
<path id="SECONDARY_4_" fill="#7CD5FF" d="M349.904,440.807c-0.066,0.83,0.551,1.565,1.386,1.633
	c0.838,0.071,1.567-0.551,1.637-1.385c0.068-0.834-0.549-1.564-1.384-1.636C350.709,439.35,349.977,439.972,349.904,440.807z"/>
<path id="SECONDARY_3_" fill="#7CD5FF" d="M336.51,440.805c-0.069,0.834,0.552,1.567,1.39,1.635
	c0.832,0.069,1.564-0.551,1.631-1.385c0.07-0.834-0.55-1.565-1.381-1.636C337.312,439.35,336.579,439.972,336.51,440.805z"/>
<path id="SECONDARY_2_" fill="#7CD5FF" d="M343.343,453.374c-0.069,0.834,0.553,1.565,1.388,1.635
	c0.834,0.069,1.566-0.553,1.636-1.387c0.065-0.834-0.557-1.565-1.391-1.635C344.145,451.921,343.412,452.54,343.343,453.374z"/>
<path fill="none" stroke="#231F20" stroke-width="1.695" stroke-miterlimit="10" d="M338.717,471.224
	c2.861,7.034-2.186,10.432-8.861,8.116"/>
<path id="SECONDARY_8_" fill="#7CD5FF" stroke="#231F20" stroke-width="1.695" stroke-miterlimit="10" d="M358.862,405.1
	l12.79-2.746c-0.258-0.938-0.535-1.868-0.833-2.788l-12.207,2.619c-0.995-8.16-4.205-10.465-8.446-11.122c0,0,0,0-0.002,0
	c-0.343-0.053-0.69-0.098-1.047-0.131c-0.146-0.015-0.296-0.028-0.445-0.041c-0.136-0.01-0.271-0.021-0.41-0.029
	c-0.33-0.02-0.664-0.034-1.002-0.045c-0.026,0-0.051-0.001-0.078-0.002c-0.826-0.023-1.677-0.025-2.546-0.025h-7.193
	c-7.609,0-13.819,0.002-14.188,15.904h-1.591c-0.367-15.898-6.576-15.9-14.186-15.9h-0.06h-7.134h-0.06
	c-7.609,0-13.818,0.002-14.186,15.9h-1.591c-0.368-15.902-6.578-15.904-14.187-15.904h-7.194c-0.869,0-1.72,0.002-2.546,0.025
	c-0.026,0.001-0.051,0.002-0.078,0.002c-0.338,0.011-0.672,0.025-1.002,0.045c-0.137,0.008-0.273,0.019-0.411,0.029
	c-0.149,0.013-0.298,0.026-0.445,0.041c-0.354,0.033-0.704,0.078-1.046,0.131c-0.001,0-0.001,0-0.001,0
	c-4.243,0.656-7.452,2.961-8.447,11.122l-12.208-2.619c-0.296,0.92-0.574,1.85-0.832,2.788l12.791,2.746
	c-0.05,0.977-0.077,2.016-0.077,3.128c0.035,0.901,0.087,1.747,0.149,2.558c0.563,15.03,6.226,14.908,13.286,14.875
	c0.255,0,0.512,0,0.77,0h7.194c7.5,0,13.634,0.774,14.162-15.133c0.018-0.262,0.046-0.491,0.063-0.761h1.649
	c0.354,16.708,6.568,15.894,14.187,15.894h0.06h7.134h0.06c7.619,0,13.833,0.814,14.188-15.894h1.648
	c0.017,0.27,0.045,0.499,0.063,0.761c0.527,15.907,6.662,15.133,14.162,15.133h7.193c0.259,0,0.515,0,0.77,0
	c7.06,0.033,12.723,0.155,13.287-14.875c0.061-0.811,0.114-1.656,0.148-2.558C358.938,407.115,358.912,406.076,358.862,405.1z
	 M269.747,423.168h-6.162c-0.215,0-0.429,0-0.641,0c-6.04-0.01-10.479-0.357-11.481-12.397c-0.036-0.799-0.056-1.644-0.056-2.547
	c0-13.049,4.159-14.702,9.692-14.911c0.771-0.027,1.567-0.028,2.386-0.028h6.162c6.725,0,12.177,0,12.177,14.943
	c0,0.898-0.02,1.737-0.055,2.531C280.738,423.168,276.066,423.168,269.747,423.168z M300.8,423.171
	c-6.724,0-11.586,0.007-12.177-14.943c0-14.943,5.454-14.943,12.177-14.943h6.104c6.724,0,12.177,0,12.177,14.943
	c-0.591,14.95-5.453,14.943-12.177,14.943H300.8z M344.762,423.168c-0.214,0-0.428,0-0.643,0h-6.162
	c-6.318,0-10.992,0-12.023-12.409c-0.034-0.794-0.055-1.633-0.055-2.531c0-14.943,5.452-14.943,12.178-14.943h6.162
	c0.817,0,1.614,0.001,2.387,0.028c5.532,0.209,9.691,1.862,9.691,14.911c0,0.903-0.021,1.748-0.057,2.547
	C355.238,422.811,350.8,423.158,344.762,423.168z"/>
<path fill="#FFFFFF" stroke="#231F20" stroke-width="1.695" stroke-miterlimit="10" d="M292.495,454.613v5.851
	c0,1.895,2.106,1.509,4.708,1.509c2.596,0,4.707,0.386,4.707-1.509v-8.571C298.59,452.176,295.424,453.177,292.495,454.613z"/>
<path fill="#FFFFFF" stroke="#231F20" stroke-width="1.695" stroke-miterlimit="10" d="M305.79,451.95v8.603
	c0,1.896,2.106,1.51,4.708,1.51c2.597,0,4.709,0.386,4.709-1.51v-6.03C312.271,453.136,309.104,452.186,305.79,451.95z"/>
<line fill="none" stroke="#231F20" stroke-width="1.695" stroke-miterlimit="10" x1="257.511" y1="399.175" x2="275.624" y2="417.279"/>
<line fill="none" stroke="#231F20" stroke-width="1.695" stroke-miterlimit="10" x1="291.073" y1="408.228" x2="316.688" y2="408.228"/>
<line fill="none" stroke="#231F20" stroke-width="1.695" stroke-miterlimit="10" x1="332.139" y1="417.278" x2="350.252" y2="399.175"/>
</svg>
