<?xml version="1.0" encoding="utf-8"?>
<!-- Generator: Adobe Illustrator 16.0.0, SVG Export Plug-In . SVG Version: 6.00 Build 0)  -->
<svg version="1.1" id="Layer_1" xmlns="http://www.w3.org/2000/svg" xmlns:xlink="http://www.w3.org/1999/xlink" x="0px" y="0px"
	 width="612px" height="792px" viewBox="0 0 612 792" enable-background="new 0 0 612 792" xml:space="preserve">
<rect id="head_frame" x="231.5" y="330.5" fill-opacity="0" fill="#BBBCBE" width="151" height="131"/>
<path id="SECONDARY_1_" fill="#7CD5FF" stroke="#231F20" stroke-miterlimit="10" d="M322.408,398.665
	c-8.178,5.575-10.791-5.749-10.285-13.497c0.126-1.458,0.434-2.893,0.938-4.285c1.614-4.458,4.992-7.804,9.4-9.833
	c1.104-0.509,2.268-0.932,3.486-1.274c7.988-1.47,14.334,3.043,21.77,6.409c1.064,0.478,1.84,0.878,2.82,1.474
	c6.647,5.362,17.213,10.553,12.547,25.341c-8.654-6.881-16.076-12.778-29.219-7.92c-1.01,0.218-1.992,0.438-2.94,0.672
	c-2.845,0.692-5.36,1.463-7.347,2.343C323.159,398.305,322.77,398.498,322.408,398.665z"/>
<path id="SECONDARY_17_" fill="#7CD5FF" stroke="#231F20" stroke-miterlimit="10" d="M289.592,398.666
	c8.178,5.574,10.791-5.75,10.285-13.497c-0.126-1.458-0.434-2.893-0.938-4.285c-1.614-4.458-4.992-7.804-9.4-9.833
	c-1.104-0.509-2.268-0.932-3.486-1.274c-7.988-1.47-14.333,3.043-21.77,6.409c-1.064,0.478-1.84,0.878-2.82,1.474
	c-6.648,5.362-17.213,10.553-12.547,25.341c8.655-6.88,16.076-12.778,29.219-7.92c1.01,0.218,1.992,0.438,2.94,0.672
	c2.845,0.692,5.36,1.463,7.347,2.344C288.841,398.305,289.23,398.498,289.592,398.666z"/>
<circle id="PRIMARY" fill="#F77300" stroke="#231F20" stroke-miterlimit="10" cx="306" cy="410" r="41.5"/>
<path id="SECONDARY" fill="#7CD5FF" stroke="#231F20" stroke-miterlimit="10" d="M317.167,373.417
	c0,6.305-5.111,11.417-11.417,11.417c-6.305,0-11.416-5.111-11.416-11.417s11.416-25.75,11.416-25.75
	S317.167,367.111,317.167,373.417z"/>
<circle fill="#FFFFFF" stroke="#231F20" stroke-miterlimit="10" cx="283.741" cy="402.625" r="7.554"/>
<circle fill="#FFFFFF" stroke="#231F20" stroke-miterlimit="10" cx="327.76" cy="402.625" r="7.554"/>
<circle fill="#FFFFFF" stroke="#231F20" stroke-miterlimit="10" cx="305.75" cy="402.625" r="7.555"/>
<path fill="#231F20" stroke="#231F20" stroke-miterlimit="10" d="M323.116,441.375c0-2.557-7.792-13.037-17.383-13.037
	c-9.591,0-17.349,10.568-17.349,13.037c0,1.504,7.775,4.313,17.366,4.313S323.116,442.879,323.116,441.375z"/>
<circle id="SECONDARY_7_" fill="#7CD5FF" cx="275" cy="421.922" r="0.895"/>
<circle id="SECONDARY_6_" fill="#7CD5FF" cx="282.901" cy="421.922" r="0.894"/>
<circle id="SECONDARY_5_" fill="#7CD5FF" cx="278.87" cy="429.338" r="0.895"/>
<path fill="none" stroke="#231F20" stroke-miterlimit="10" d="M285.644,438.658c-2.833,3.47-0.579,6.261,3.587,6.111"/>
<circle id="SECONDARY_4_" fill="#7CD5FF" cx="333.788" cy="421.923" r="0.895"/>
<circle id="SECONDARY_3_" fill="#7CD5FF" cx="325.887" cy="421.922" r="0.894"/>
<circle id="SECONDARY_2_" fill="#7CD5FF" cx="329.918" cy="429.339" r="0.895"/>
<path fill="none" stroke="#231F20" stroke-miterlimit="10" d="M326.179,439.264c2.815,3.485,0.545,6.265-3.619,6.095"/>
<path id="SECONDARY_8_" fill="#7CD5FF" stroke="#231F20" stroke-miterlimit="10" d="M338.181,400.779l7.544-1.62
	c-0.152-0.554-0.315-1.103-0.491-1.646l-7.2,1.546c-0.587-4.815-2.48-6.176-4.982-6.563c0,0,0,0-0.001,0
	c-0.202-0.031-0.407-0.058-0.617-0.077c-0.087-0.009-0.175-0.017-0.263-0.024c-0.08-0.006-0.16-0.012-0.242-0.017
	c-0.194-0.012-0.392-0.02-0.591-0.026c-0.016,0-0.03-0.001-0.046-0.001c-0.487-0.014-0.989-0.015-1.502-0.015h-4.243
	c-4.488,0-8.151,0.001-8.368,9.385h-0.938c-0.217-9.382-3.879-9.383-8.367-9.383h-0.035h-4.208h-0.035
	c-4.488,0-8.15,0.001-8.367,9.383h-0.938c-0.217-9.384-3.88-9.385-8.368-9.385h-4.243c-0.513,0-1.015,0.001-1.502,0.015
	c-0.016,0-0.03,0.001-0.046,0.001c-0.199,0.006-0.396,0.015-0.591,0.026c-0.081,0.005-0.161,0.011-0.242,0.017
	c-0.088,0.007-0.176,0.015-0.263,0.024c-0.209,0.02-0.415,0.046-0.617,0.077c-0.001,0-0.001,0-0.001,0
	c-2.502,0.387-4.396,1.748-4.982,6.563l-7.201-1.546c-0.175,0.543-0.338,1.092-0.491,1.646l7.544,1.62
	c-0.03,0.576-0.045,1.189-0.045,1.846c0.021,0.532,0.052,1.031,0.088,1.51c0.332,8.869,3.672,8.797,7.836,8.777
	c0.15,0,0.302,0,0.454,0h4.243c4.424,0,8.042,0.457,8.354-8.93c0.011-0.154,0.027-0.29,0.037-0.449h0.973
	c0.209,9.859,3.874,9.379,8.368,9.379h0.035h4.208h0.035c4.494,0,8.159,0.48,8.368-9.379h0.973c0.01,0.159,0.026,0.295,0.037,0.449
	c0.312,9.387,3.93,8.93,8.354,8.93h4.243c0.152,0,0.304,0,0.454,0c4.164,0.02,7.504,0.092,7.837-8.777
	c0.036-0.479,0.067-0.978,0.088-1.51C338.226,401.969,338.21,401.355,338.181,400.779z M285.616,411.441h-3.635
	c-0.127,0-0.253,0-0.378,0c-3.563-0.006-6.181-0.211-6.772-7.315c-0.021-0.472-0.033-0.97-0.033-1.503
	c0-7.7,2.453-8.675,5.717-8.799c0.455-0.016,0.925-0.017,1.407-0.017h3.635c3.967,0,7.183,0,7.183,8.817
	c0,0.53-0.012,1.025-0.032,1.494C292.1,411.441,289.344,411.441,285.616,411.441z M303.933,411.443
	c-3.966,0-6.834,0.004-7.183-8.818c0-8.817,3.217-8.817,7.183-8.817h3.601c3.966,0,7.183,0,7.183,8.817
	c-0.349,8.822-3.217,8.818-7.183,8.818H303.933z M329.863,411.441c-0.126,0-0.252,0-0.379,0h-3.635c-3.727,0-6.483,0-7.092-7.322
	c-0.021-0.469-0.032-0.964-0.032-1.494c0-8.817,3.216-8.817,7.183-8.817h3.635c0.482,0,0.952,0,1.408,0.017
	c3.263,0.124,5.716,1.099,5.716,8.799c0,0.533-0.012,1.031-0.033,1.503C336.043,411.23,333.425,411.436,329.863,411.441z"/>
<path fill="#FFFFFF" stroke="#231F20" stroke-miterlimit="10" d="M299.034,429.997v3.452c0,1.118,1.242,0.891,2.777,0.891
	c1.531,0,2.776,0.228,2.776-0.891v-5.058C302.629,428.559,300.762,429.149,299.034,429.997z"/>
<path fill="#FFFFFF" stroke="#231F20" stroke-miterlimit="10" d="M306.876,428.426v5.076c0,1.118,1.242,0.891,2.777,0.891
	c1.531,0,2.777,0.228,2.777-0.891v-3.559C310.699,429.125,308.831,428.564,306.876,428.426z"/>
<circle fill="#231F20" cx="285.817" cy="402.626" r="3.021"/>
<circle fill="#231F20" cx="329.838" cy="402.626" r="3.021"/>
<circle fill="#231F20" cx="307.828" cy="402.626" r="3.022"/>
<path id="PRIMARY_3_" fill="#F77300" stroke="#231F20" stroke-miterlimit="10" d="M291.295,402.626l-8.037-2.353l-5.831-1.796
	c0.549-0.732,2.142-3.405,6.313-3.405C287.912,395.072,291.295,398.454,291.295,402.626z"/>
<path id="PRIMARY_2_" fill="#F77300" stroke="#231F20" stroke-miterlimit="10" d="M313.305,403l-8.037-2.353l-5.831-1.796
	c0.549-0.732,2.142-3.405,6.313-3.405C309.922,395.446,313.305,398.828,313.305,403z"/>
<path id="PRIMARY_1_" fill="#F77300" stroke="#231F20" stroke-miterlimit="10" d="M320.203,402.626l8.037-2.353l5.83-1.796
	c-0.549-0.732-2.142-3.405-6.313-3.405C323.586,395.072,320.203,398.454,320.203,402.626z"/>
</svg>
