<?xml version="1.0" encoding="utf-8"?>
<!-- Generator: Adobe Illustrator 16.0.0, SVG Export Plug-In . SVG Version: 6.00 Build 0)  -->
<svg version="1.1" id="Layer_1" xmlns="http://www.w3.org/2000/svg" xmlns:xlink="http://www.w3.org/1999/xlink" x="0px" y="0px"
	 width="612px" height="792px" viewBox="0 0 612 792" enable-background="new 0 0 612 792" xml:space="preserve">
<rect id="head_frame" x="179" y="285" fill-opacity="0" fill="#BBBCBE" width="256" height="222"/>
<path id="SECONDARY_1_" fill="#7CD5FF" stroke="#231F20" stroke-width="1.695" stroke-miterlimit="10" d="M333.123,400.517
	c-13.865,9.448-18.295-9.743-17.438-22.873c0.214-2.471,0.735-4.902,1.589-7.262c2.737-7.556,8.464-13.226,15.938-16.664
	c1.871-0.863,3.845-1.579,5.911-2.16c13.543-2.492,24.301,5.157,36.906,10.86c1.805,0.81,3.12,1.489,4.782,2.499
	c11.27,9.087,29.182,17.883,21.271,42.944c-14.673-11.66-27.255-21.655-49.536-13.422c-1.713,0.369-3.378,0.743-4.985,1.138
	c-4.823,1.173-9.088,2.48-12.456,3.971C334.396,399.905,333.735,400.233,333.123,400.517z"/>
<path id="SECONDARY_17_" fill="#7CD5FF" stroke="#231F20" stroke-width="1.695" stroke-miterlimit="10" d="M277.487,400.518
	c13.864,9.447,18.294-9.743,17.437-22.873c-0.213-2.472-0.735-4.902-1.589-7.262c-2.737-7.556-8.463-13.226-15.937-16.664
	c-1.871-0.863-3.844-1.579-5.911-2.16c-13.543-2.492-24.3,5.157-36.907,10.86c-1.805,0.81-3.12,1.489-4.781,2.498
	c-11.271,9.087-29.183,17.883-21.272,42.944c14.673-11.659,27.254-21.654,49.537-13.421c1.712,0.369,3.377,0.743,4.985,1.139
	c4.823,1.173,9.088,2.479,12.456,3.972C276.213,399.905,276.874,400.233,277.487,400.518z"/>
<ellipse id="PRIMARY" fill="#F77300" stroke="#231F20" stroke-width="1.695" stroke-miterlimit="10" cx="305.305" cy="419.726" rx="70.357" ry="70.328"/>
<path id="SECONDARY" fill="#7CD5FF" stroke="#231F20" stroke-width="1.695" stroke-miterlimit="10" d="M324.236,357.729
	c0,10.686-8.665,19.347-19.355,19.347c-10.689,0-19.354-8.662-19.354-19.347c0-10.685,19.354-43.636,19.354-43.636
	S324.236,347.043,324.236,357.729z"/>
<ellipse fill="#FFFFFF" stroke="#231F20" stroke-width="1.695" stroke-miterlimit="10" cx="267.567" cy="407.228" rx="12.807" ry="12.802"/>
<ellipse fill="#FFFFFF" stroke="#231F20" stroke-width="1.695" stroke-miterlimit="10" cx="342.196" cy="407.228" rx="12.807" ry="12.802"/>
<ellipse fill="#FFFFFF" stroke="#231F20" stroke-width="1.695" stroke-miterlimit="10" cx="304.881" cy="407.228" rx="12.808" ry="12.802"/>
<path fill="#231F20" stroke="#231F20" stroke-width="1.695" stroke-miterlimit="10" d="M334.323,472.895
	c0-4.332-13.211-22.093-29.472-22.093c-16.26,0-29.413,17.909-29.413,22.093c0,2.549,13.182,7.309,29.442,7.309
	S334.323,475.443,334.323,472.895z"/>
<path id="SECONDARY_7_" fill="#7CD5FF" d="M255.24,439.724c0.109,1.373-0.909,2.587-2.285,2.695
	c-1.381,0.12-2.585-0.909-2.699-2.282c-0.112-1.376,0.906-2.585,2.282-2.699C253.914,437.322,255.121,438.348,255.24,439.724z"/>
<path id="SECONDARY_6_" fill="#7CD5FF" d="M268.635,439.722c0.116,1.376-0.909,2.59-2.291,2.698
	c-1.375,0.115-2.582-0.906-2.691-2.283c-0.117-1.376,0.907-2.583,2.278-2.699C267.313,437.322,268.521,438.35,268.635,439.722z"/>
<path id="SECONDARY_5_" fill="#7CD5FF" d="M261.801,452.294c0.114,1.375-0.912,2.577-2.288,2.694
	c-1.375,0.114-2.581-0.911-2.696-2.289c-0.109-1.371,0.917-2.576,2.293-2.694C260.48,449.896,261.686,450.92,261.801,452.294z"/>
<path fill="none" stroke="#231F20" stroke-width="1.695" stroke-miterlimit="10" d="M270.793,468.291
	c-4.802,5.88-0.981,10.609,6.081,10.356"/>
<path id="SECONDARY_4_" fill="#7CD5FF" d="M349.924,439.727c-0.109,1.369,0.908,2.582,2.285,2.693
	c1.381,0.118,2.584-0.908,2.698-2.284c0.112-1.375-0.905-2.58-2.281-2.697C351.25,437.323,350.043,438.35,349.924,439.727z"/>
<path id="SECONDARY_3_" fill="#7CD5FF" d="M336.528,439.724c-0.114,1.376,0.91,2.586,2.293,2.697
	c1.373,0.114,2.581-0.909,2.689-2.285c0.117-1.375-0.906-2.582-2.277-2.698C337.852,437.323,336.643,438.35,336.528,439.724z"/>
<path id="SECONDARY_2_" fill="#7CD5FF" d="M343.363,452.293c-0.114,1.376,0.911,2.582,2.287,2.696
	c1.374,0.114,2.582-0.911,2.696-2.287c0.107-1.375-0.918-2.581-2.292-2.696C344.685,449.896,343.478,450.918,343.363,452.293z"/>
<path fill="none" stroke="#231F20" stroke-width="1.695" stroke-miterlimit="10" d="M339.515,469.317
	c4.773,5.906,0.924,10.616-6.136,10.328"/>
<path id="SECONDARY_8_" fill="#7CD5FF" stroke="#231F20" stroke-width="1.695" stroke-miterlimit="10" d="M359.862,404.1
	l12.79-2.746c-0.258-0.938-0.535-1.868-0.833-2.788l-12.207,2.619c-0.995-8.16-4.205-10.465-8.446-11.122c0,0,0,0-0.002,0
	c-0.343-0.053-0.69-0.098-1.047-0.131c-0.146-0.015-0.296-0.028-0.445-0.041c-0.136-0.01-0.271-0.021-0.41-0.029
	c-0.33-0.02-0.664-0.034-1.002-0.045c-0.026,0-0.051-0.001-0.078-0.002c-0.826-0.023-1.677-0.025-2.546-0.025h-7.193
	c-7.609,0-13.819,0.002-14.188,15.904h-1.591c-0.367-15.899-6.576-15.9-14.186-15.9h-0.06h-7.134h-0.06
	c-7.609,0-13.818,0.001-14.186,15.9h-1.591c-0.368-15.902-6.578-15.904-14.187-15.904h-7.194c-0.869,0-1.72,0.002-2.546,0.025
	c-0.026,0.001-0.051,0.002-0.078,0.002c-0.338,0.011-0.672,0.025-1.002,0.045c-0.137,0.008-0.273,0.019-0.411,0.029
	c-0.149,0.012-0.298,0.025-0.445,0.041c-0.354,0.033-0.704,0.078-1.046,0.131c-0.001,0-0.001,0-0.001,0
	c-4.243,0.656-7.452,2.961-8.447,11.122l-12.208-2.619c-0.296,0.92-0.574,1.85-0.832,2.788l12.791,2.746
	c-0.05,0.977-0.077,2.016-0.077,3.128c0.035,0.901,0.087,1.747,0.149,2.558c0.563,15.03,6.226,14.908,13.286,14.875
	c0.255,0,0.512,0,0.77,0h7.194c7.5,0,13.634,0.774,14.162-15.133c0.018-0.262,0.046-0.491,0.063-0.761h1.649
	c0.354,16.708,6.568,15.894,14.187,15.894h0.06h7.134h0.06c7.619,0,13.833,0.814,14.188-15.894h1.648
	c0.017,0.27,0.045,0.499,0.063,0.761c0.527,15.907,6.662,15.133,14.162,15.133h7.193c0.259,0,0.515,0,0.77,0
	c7.06,0.033,12.723,0.155,13.287-14.875c0.061-0.811,0.114-1.656,0.148-2.558C359.938,406.115,359.912,405.076,359.862,404.1z
	 M270.747,422.168h-6.162c-0.215,0-0.429,0-0.641,0c-6.04-0.01-10.479-0.357-11.481-12.397c-0.036-0.799-0.056-1.644-0.056-2.547
	c0-13.049,4.159-14.702,9.692-14.911c0.771-0.027,1.567-0.028,2.386-0.028h6.162c6.725,0,12.177,0,12.177,14.943
	c0,0.898-0.02,1.737-0.055,2.531C281.738,422.168,277.066,422.168,270.747,422.168z M301.8,422.171
	c-6.724,0-11.586,0.007-12.177-14.943c0-14.943,5.454-14.943,12.177-14.943h6.104c6.724,0,12.177,0,12.177,14.943
	c-0.591,14.95-5.453,14.943-12.177,14.943H301.8z M345.762,422.168c-0.214,0-0.428,0-0.643,0h-6.162
	c-6.318,0-10.992,0-12.023-12.409c-0.034-0.794-0.055-1.633-0.055-2.531c0-14.943,5.452-14.943,12.178-14.943h6.162
	c0.817,0,1.614,0.001,2.387,0.028c5.532,0.209,9.691,1.862,9.691,14.911c0,0.903-0.021,1.748-0.057,2.547
	C356.238,421.811,351.8,422.158,345.762,422.168z"/>
<path fill="#FFFFFF" stroke="#231F20" stroke-width="1.695" stroke-miterlimit="10" d="M293.495,453.613v5.851
	c0,1.895,2.106,1.509,4.708,1.509c2.596,0,4.707,0.386,4.707-1.509v-8.571C299.59,451.176,296.424,452.177,293.495,453.613z"/>
<path fill="#FFFFFF" stroke="#231F20" stroke-width="1.695" stroke-miterlimit="10" d="M306.79,450.95v8.603
	c0,1.896,2.106,1.51,4.708,1.51c2.597,0,4.709,0.386,4.709-1.51v-6.03C313.271,452.136,310.104,451.186,306.79,450.95z"/>
<circle fill="#231F20" cx="271.087" cy="407.229" r="5.123"/>
<circle fill="#231F20" cx="345.718" cy="407.229" r="5.123"/>
<circle fill="#231F20" cx="308.404" cy="407.229" r="5.123"/>
<path id="PRIMARY_3_" fill="#F77300" stroke="#231F20" stroke-width="1.695" stroke-miterlimit="10" d="M280.374,407.229
	l-13.625-3.986l-9.886-3.044c0.931-1.241,3.632-5.771,10.703-5.771C274.639,394.428,280.374,400.159,280.374,407.229z"/>
<path id="PRIMARY_2_" fill="#F77300" stroke="#231F20" stroke-width="1.695" stroke-miterlimit="10" d="M317.688,407.862
	l-13.625-3.986l-9.886-3.044c0.93-1.241,3.631-5.771,10.703-5.771C311.954,395.062,317.688,400.793,317.688,407.862z"/>
<path id="PRIMARY_1_" fill="#F77300" stroke="#231F20" stroke-width="1.695" stroke-miterlimit="10" d="M329.384,407.229
	l13.626-3.986l9.885-3.044c-0.931-1.241-3.631-5.771-10.702-5.771C335.119,394.428,329.384,400.159,329.384,407.229z"/>
</svg>
