<?xml version="1.0" encoding="utf-8"?>
<!-- Generator: Adobe Illustrator 16.0.0, SVG Export Plug-In . SVG Version: 6.00 Build 0)  -->
<svg version="1.1" id="Layer_1" xmlns="http://www.w3.org/2000/svg" xmlns:xlink="http://www.w3.org/1999/xlink" x="0px" y="0px"
	 width="612px" height="792px" viewBox="0 0 612 792" enable-background="new 0 0 612 792" xml:space="preserve">
<rect x="265.5" y="368.933" fill-opacity="0" fill="#231F20" width="81" height="54.487"/>
<path id="SECONDARY_30_" fill="#F77300" stroke="#231F20" stroke-miterlimit="10" d="M328.247,407.382
	c-0.897-1.842-2.728-2.935-4.677-3.009l-5.637-11.581c-1.337,1.288-2.931,2.044-4.646,2.044h-0.769l5.99,12.308
	c-0.892,1.518-1.038,3.416-0.223,5.091c1.309,2.687,4.601,3.782,7.352,2.441C328.389,413.339,329.557,410.07,328.247,407.382z"/>
<path id="SECONDARY_29_" fill="#F77300" stroke="#231F20" stroke-miterlimit="10" d="M308.109,406.626l0.139-11.79h-5.764
	l-0.135,11.446c-1.73,0.899-2.918,2.669-2.943,4.718c-0.037,2.99,2.416,5.447,5.475,5.481c3.061,0.037,5.568-2.359,5.604-5.348
	C310.508,409.271,309.563,407.617,308.109,406.626z"/>
<path id="SECONDARY_28_" fill="#F77300" stroke="#231F20" stroke-miterlimit="10" d="M297.43,394.836h-0.133
	c-1.9,0-3.65-0.931-5.066-2.485l-5.301,10.889c-1.949,0.074-3.779,1.167-4.677,3.009c-1.31,2.688-0.142,5.957,2.609,7.294
	c2.751,1.341,6.043,0.245,7.352-2.441c0.815-1.675,0.669-3.573-0.223-5.091L297.43,394.836z"/>
</svg>
