<?xml version="1.0" encoding="utf-8"?>
<!-- Generator: Adobe Illustrator 16.0.0, SVG Export Plug-In . SVG Version: 6.00 Build 0)  -->
<svg version="1.1" id="Layer_1" xmlns="http://www.w3.org/2000/svg" xmlns:xlink="http://www.w3.org/1999/xlink" x="0px" y="0px"
	 width="612px" height="792px" viewBox="0 0 612 792" enable-background="new 0 0 612 792" xml:space="preserve">
<rect x="265.5" y="368.933" fill-opacity="0" fill="#231F20" width="81" height="54.487"/>
<path id="SECONDARY_36_" fill="#F77300" stroke="#231F20" stroke-miterlimit="10" d="M312.807,394.033
	c1.768,0,3.412-0.721,4.816-1.951l-5.079-10.434c0.892-1.518,1.038-3.416,0.223-5.091c-1.309-2.687-4.601-3.782-7.352-2.441
	c-2.751,1.337-3.919,4.605-2.609,7.294c0.897,1.842,2.728,2.934,4.677,3.008l4.68,9.615H312.807z"/>
<path id="SECONDARY_35_" fill="#F77300" stroke="#231F20" stroke-miterlimit="10" d="M307.859,382.752l0.139,11.789h-5.764
	l-0.135-11.445c-1.73-0.9-2.918-2.67-2.943-4.719c-0.037-2.99,2.416-5.447,5.475-5.481c3.061-0.037,5.568,2.359,5.604,5.348
	C310.258,380.107,309.313,381.76,307.859,382.752z"/>
<path id="SECONDARY_34_" fill="#F77300" stroke="#231F20" stroke-miterlimit="10" d="M304.033,374.674
	c-2.752-1.341-6.043-0.245-7.352,2.441c-0.815,1.676-0.668,3.574,0.223,5.092l-4.636,9.523c1.47,1.529,3.263,2.449,5.21,2.465
	l4.488-9.219c1.949-0.074,3.777-1.166,4.676-3.008C307.953,379.279,306.784,376.011,304.033,374.674z"/>
</svg>
