<?xml version="1.0" encoding="utf-8"?>
<!-- Generator: Adobe Illustrator 16.0.0, SVG Export Plug-In . SVG Version: 6.00 Build 0)  -->
<svg version="1.1" id="Layer_1" xmlns="http://www.w3.org/2000/svg" xmlns:xlink="http://www.w3.org/1999/xlink" x="0px" y="0px"
	 width="612px" height="792px" viewBox="0 0 612 792" enable-background="new 0 0 612 792" xml:space="preserve">
<rect x="178" y="310.177" fill="#231F20" fill-opacity="0" width="256" height="172"/>
<path id="SECONDARY_30_" fill="#F77300" stroke="#231F20" stroke-width="3.1586" stroke-miterlimit="10" d="M376.312,431.549
	c-2.836-5.814-8.623-9.264-14.78-9.498l-17.818-36.559c-4.226,4.066-9.263,6.452-14.682,6.452h-2.433l18.933,38.853
	c-2.818,4.793-3.281,10.783-0.704,16.073c4.136,8.48,14.54,11.937,23.234,7.703C376.759,450.354,380.45,440.035,376.312,431.549z"/>
<path id="SECONDARY_29_" fill="#F77300" stroke="#231F20" stroke-width="3.1586" stroke-miterlimit="10" d="M312.667,429.162
	l0.438-37.218h-18.217l-0.426,36.133c-5.468,2.837-9.222,8.426-9.301,14.893c-0.118,9.439,7.634,17.196,17.302,17.304
	c9.676,0.114,17.599-7.447,17.713-16.884C320.247,437.514,317.259,432.291,312.667,429.162z"/>
<path id="SECONDARY_28_" fill="#F77300" stroke="#231F20" stroke-width="3.1586" stroke-miterlimit="10" d="M278.915,391.944h-0.421
	c-6.004,0-11.535-2.939-16.011-7.844l-16.753,34.374c-6.161,0.234-11.944,3.684-14.783,9.498c-4.14,8.486-0.449,18.805,8.246,23.025
	c8.694,4.232,19.099,0.773,23.236-7.707c2.576-5.287,2.114-11.277-0.704-16.07L278.915,391.944z"/>
</svg>
