<?xml version="1.0" encoding="utf-8"?>
<!-- Generator: Adobe Illustrator 16.0.0, SVG Export Plug-In . SVG Version: 6.00 Build 0)  -->
<svg version="1.1" id="Layer_1" xmlns="http://www.w3.org/2000/svg" xmlns:xlink="http://www.w3.org/1999/xlink" x="0px" y="0px"
	 width="612px" height="792px" viewBox="0 0 612 792" enable-background="new 0 0 612 792" xml:space="preserve">
<rect x="178" y="310.177" fill="#231F20" fill-opacity="0" width="256" height="172"/>
<path id="SECONDARY_36_" fill="#F77300" stroke="#231F20" stroke-width="3.1586" stroke-miterlimit="10" d="M327.513,389.411
	c5.589,0,10.783-2.277,15.222-6.159l-16.053-32.938c2.818-4.792,3.281-10.783,0.704-16.07c-4.136-8.482-14.54-11.939-23.234-7.705
	c-8.694,4.22-12.386,14.537-8.246,23.025c2.835,5.814,8.622,9.261,14.783,9.495l14.79,30.353H327.513z"/>
<path id="SECONDARY_35_" fill="#F77300" stroke="#231F20" stroke-width="3.1586" stroke-miterlimit="10" d="M311.877,353.799
	l0.438,37.215h-18.217l-0.426-36.128c-5.468-2.843-9.222-8.43-9.301-14.897c-0.117-9.438,7.634-17.194,17.303-17.302
	c9.676-0.117,17.599,7.447,17.713,16.883C319.457,345.449,316.469,350.667,311.877,353.799z"/>
<path id="SECONDARY_34_" fill="#F77300" stroke="#231F20" stroke-width="3.1586" stroke-miterlimit="10" d="M299.784,328.298
	c-8.699-4.232-19.099-0.772-23.236,7.707c-2.576,5.29-2.111,11.281,0.704,16.073L262.6,382.14
	c4.645,4.826,10.313,7.731,16.466,7.781l14.184-29.101c6.161-0.234,11.938-3.681,14.777-9.495
	C312.173,342.835,308.479,332.519,299.784,328.298z"/>
</svg>
