<?xml version="1.0" encoding="utf-8"?>
<!-- Generator: Adobe Illustrator 16.0.0, SVG Export Plug-In . SVG Version: 6.00 Build 0)  -->
<svg version="1.1" id="Layer_1" xmlns="http://www.w3.org/2000/svg" xmlns:xlink="http://www.w3.org/1999/xlink" x="0px" y="0px"
	 width="612px" height="792px" viewBox="0 0 612 792" enable-background="new 0 0 612 792" xml:space="preserve">
<rect id="head_frame" x="178" y="286" fill-opacity="0" fill="#BBBCBE" width="256" height="222"/>
<path id="PRIMARY" fill="#FFFA00" stroke="#231F20" stroke-width="1.695" stroke-miterlimit="10" d="M394.857,463.115
	c0,14.064-11.455,25.466-25.583,25.466H239.105c-14.133,0-25.592-11.401-25.592-25.466l0,0c0-14.065,60.746-117.272,74.873-117.272
	h32.771C335.3,345.843,394.857,449.05,394.857,463.115L394.857,463.115z"/>
<path fill="#FFFFFF" stroke="#231F20" stroke-width="1.695" stroke-miterlimit="10" d="M365.907,434.286
	c0,15.171-11.162,27.465-24.938,27.465c-13.767,0-24.929-12.294-24.929-27.465c0-15.173,11.162-27.469,24.929-27.469
	C354.745,406.817,365.907,419.113,365.907,434.286z"/>
<path fill="#231F20" stroke="#231F20" stroke-width="0.7896" stroke-miterlimit="10" d="M355.702,434.286
	c0,6.444-4.743,11.67-10.6,11.67c-5.85,0-10.593-5.226-10.593-11.67c0-6.451,4.743-11.676,10.593-11.676
	C350.959,422.61,355.702,427.835,355.702,434.286z"/>
<ellipse fill="#FFFFFF" stroke="#FFFFFF" stroke-width="0.3096" stroke-miterlimit="10" cx="349.732" cy="426.961" rx="4.156" ry="4.578"/>
<path id="SECONDARY" fill="#C802FF" stroke="#231F20" stroke-width="1.695" stroke-miterlimit="10" d="M335.672,351.718
	c2.863,1.503,13.035,3.198,11.34,9.977c-3.391,5.084-10.172,0-13.563-1.695c0.849,0.847,2.12,2.119,2.968,3.601
	c2.119,3.178-1.271,9.956-6.358,8.262c-1.139-1.139-3.391-8.657-3.391-5.084c1.695,3.389,1.783,8.015-1.607,8.015
	c-3.391,1.695-6.869-2.931-10.26-4.625c1.695,1.695,3.391,1.695,3.391,3.389c-1.695,8.474-13.563,5.084-15.258-1.694
	c-1.695,1.694-1.695,5.084-4.028,6.567c-0.954,0.526-2.066,0.791-3.366,0.814c-1.298,0.025-2.783-0.189-4.48-0.617
	c-4.232-0.834-4.232-2.105-3.172-3.588s3.179-3.177,3.179-4.872c-3.391,1.695-4.892,3.778-8.283,5.473
	c-2.872,2.352-3.814,1.588-4.45,0.529s-0.742-2.33-0.742-4.025c0-1.694,1.377-4.025,3.073-5.719
	c-3.164,4.326-4.856,5.437-8.892,6.813c-1.346,0.177-2.669,0.13-3.836-0.184c-2.334-0.627-4.048-2.322-4.074-5.429
	c0.026-1.483,0.609-2.965,1.563-4.237c1.907-2.542,5.298-4.236,8.688-3.389c-5.086,0-8.477,0-12.98-1.529
	c-1.276-0.766-2.186-1.709-2.757-2.708c-2.856-4.992,2.697-11.371,12.566-4.046c-15.79-11.721-4.795-31.334,2.543-8.275
	c-7.338-23.059-5.2-25.924,6.937-6.756c-12.137-19.167,6.715-28.032,10.287-4.554c-3.571-23.478,7.152-27.613,12.596-1.671
	c-5.443-25.942,5.668-23.434,12.598,1.671c-6.93-25.104,15.684-20.814,10.288,4.554c5.396-25.369,20.397-15.648,6.94,6.756
	c8.411-14.002,15.154-5.943,14.121,1.242c-0.207,1.437-0.726,2.839-1.603,4.022c-0.878,1.184-2.117,2.148-3.767,2.71
	C340.231,351.979,338.182,352.141,335.672,351.718z"/>
<path fill="#FFFFFF" stroke="#231F20" stroke-width="1.695" stroke-miterlimit="10" d="M295.182,434.286
	c0,15.171-11.162,27.465-24.939,27.465c-13.766,0-24.929-12.294-24.929-27.465c0-15.173,11.163-27.469,24.929-27.469
	C284.02,406.817,295.182,419.113,295.182,434.286z"/>
<path fill="#231F20" stroke="#231F20" stroke-width="0.7896" stroke-miterlimit="10" d="M284.977,434.286
	c0,6.444-4.744,11.67-10.6,11.67c-5.849,0-10.593-5.226-10.593-11.67c0-6.451,4.744-11.676,10.593-11.676
	C280.233,422.61,284.977,427.835,284.977,434.286z"/>
<path fill="#FFFFFF" stroke="#FFFFFF" stroke-width="0.3096" stroke-miterlimit="10" d="M283.162,426.961
	c0,2.529-1.861,4.578-4.154,4.578c-2.298,0-4.157-2.049-4.157-4.578c0-2.528,1.859-4.574,4.157-4.574
	C281.301,422.387,283.162,424.433,283.162,426.961z"/>
</svg>
