<?xml version="1.0" encoding="utf-8"?>
<!-- Generator: Adobe Illustrator 16.0.0, SVG Export Plug-In . SVG Version: 6.00 Build 0)  -->
<svg version="1.1" id="Layer_1" xmlns="http://www.w3.org/2000/svg" xmlns:xlink="http://www.w3.org/1999/xlink" x="0px" y="0px"
	 width="612px" height="792px" viewBox="0 0 612 792" enable-background="new 0 0 612 792" xml:space="preserve">
<rect id="head_frame" x="231.5" y="330.5" fill-opacity="0" fill="#BBBCBE" width="151" height="131"/>
<path class="primary_color" id="PRIMARY" fill="#FFFA00" stroke="#231F20" stroke-miterlimit="10" d="M359.412,435.014c0,8.3-6.757,15.027-15.09,15.027
	h-76.78c-8.336,0-15.096-6.728-15.096-15.027l0,0c0-8.3,35.831-69.201,44.164-69.201h19.33
	C324.282,365.813,359.412,426.714,359.412,435.014L359.412,435.014z"/>
<path fill="#FFFFFF" stroke="#231F20" stroke-miterlimit="10" d="M342.336,418.002c0,8.952-6.584,16.207-14.71,16.207
	c-8.12,0-14.704-7.255-14.704-16.207c0-8.953,6.584-16.209,14.704-16.209C335.752,401.793,342.336,409.049,342.336,418.002z"/>
<path fill="#231F20" stroke="#231F20" stroke-width="0.4659" stroke-miterlimit="10" d="M336.316,418.002
	c0,3.803-2.798,6.887-6.252,6.887c-3.45,0-6.248-3.084-6.248-6.887c0-3.807,2.798-6.89,6.248-6.89
	C333.519,411.112,336.316,414.195,336.316,418.002z"/>
<ellipse fill="#FFFFFF" stroke="#FFFFFF" stroke-width="0.1827" stroke-miterlimit="10" cx="332.795" cy="413.68" rx="2.451" ry="2.701"/>
<path class="secondary_color" id="SECONDARY" fill="#C802FF" stroke="#231F20" stroke-miterlimit="10" d="M324.502,369.28
	c1.688,0.887,7.688,1.887,6.688,5.887c-2,3-6,0-8-1c0.5,0.5,1.25,1.25,1.75,2.125c1.25,1.875-0.75,5.875-3.75,4.875
	c-0.672-0.672-2-5.108-2-3c1,2,1.052,4.729-0.948,4.729c-2,1-4.052-1.729-6.052-2.729c1,1,2,1,2,2c-1,5-8,3-9-1
	c-1,1-1,3-2.376,3.875c-0.563,0.311-1.219,0.466-1.985,0.48c-0.766,0.015-1.642-0.112-2.643-0.364
	c-2.496-0.492-2.496-1.242-1.871-2.117s1.875-1.875,1.875-2.875c-2,1-2.886,2.229-4.886,3.229c-1.694,1.388-2.25,0.938-2.625,0.313
	s-0.438-1.375-0.438-2.375s0.813-2.375,1.813-3.375c-1.866,2.553-2.864,3.208-5.245,4.02c-0.794,0.104-1.574,0.077-2.263-0.108
	c-1.377-0.37-2.388-1.37-2.403-3.204c0.016-0.875,0.359-1.75,0.922-2.5c1.125-1.5,3.125-2.5,5.125-2c-3,0-5,0-7.656-0.902
	c-0.753-0.452-1.289-1.009-1.626-1.598c-1.685-2.946,1.591-6.71,7.412-2.388c-9.313-6.916-2.828-18.49,1.5-4.883
	c-4.328-13.607-3.067-15.297,4.092-3.987c-7.159-11.311,3.961-16.542,6.067-2.688c-2.106-13.854,4.219-16.294,7.43-0.986
	c-3.211-15.308,3.343-13.828,7.431,0.986c-4.088-14.814,9.251-12.282,6.068,2.688c3.183-14.97,12.031-9.234,4.094,3.987
	c4.961-8.263,8.938-3.507,8.329,0.733c-0.122,0.848-0.428,1.675-0.945,2.374s-1.249,1.268-2.222,1.599
	S325.982,369.529,324.502,369.28z"/>
<path fill="#FFFFFF" stroke="#231F20" stroke-miterlimit="10" d="M300.619,418.002c0,8.952-6.584,16.207-14.71,16.207
	c-8.12,0-14.704-7.255-14.704-16.207c0-8.953,6.584-16.209,14.704-16.209C294.035,401.793,300.619,409.049,300.619,418.002z"/>
<path fill="#231F20" stroke="#231F20" stroke-width="0.4659" stroke-miterlimit="10" d="M294.6,418.002
	c0,3.803-2.798,6.887-6.252,6.887c-3.45,0-6.248-3.084-6.248-6.887c0-3.807,2.798-6.89,6.248-6.89
	C291.802,411.112,294.6,414.195,294.6,418.002z"/>
<ellipse fill="#FFFFFF" stroke="#FFFFFF" stroke-width="0.1827" stroke-miterlimit="10" cx="291.078" cy="413.68" rx="2.451" ry="2.701"/>
<path class="primary_color" id="PRIMARY_2_" fill="#FFFA00" stroke="#231F20" stroke-miterlimit="10" d="M283.192,401.403
	c-3.145,0.6-5.789,2.512-7.734,5.243c3.094,2.764,7.837,5.204,13.321,6.56c4.256,1.052,8.26,1.277,11.531,0.812
	C297.201,405.532,290.151,400.077,283.192,401.403z"/>
<path class="primary_color" id="PRIMARY_1_" fill="#FFFA00" stroke="#231F20" stroke-miterlimit="10" d="M330.456,401.604
	c3.146,0.6,5.789,2.512,7.734,5.243c-3.094,2.764-7.836,5.204-13.32,6.56c-4.256,1.052-8.26,1.277-11.531,0.812
	C316.448,405.732,323.497,400.277,330.456,401.604z"/>
</svg>
