<?xml version="1.0" encoding="utf-8"?>
<!-- Generator: Adobe Illustrator 16.0.0, SVG Export Plug-In . SVG Version: 6.00 Build 0)  -->
<svg version="1.1" id="Layer_1" xmlns="http://www.w3.org/2000/svg" xmlns:xlink="http://www.w3.org/1999/xlink" x="0px" y="0px"
	 width="612px" height="792px" viewBox="0 0 612 792" enable-background="new 0 0 612 792" xml:space="preserve">
<path id="body_frame" fill-opacity="0" fill="#BBBCBE" d="M407.413,524.691H206.616c0,0,0-119.557,0-195.065
	c0-5.808,0-11.356-0.119-16.561c0.119-5.22,0.119-10.098,0.119-14.566c0-17.872,0-29.19,0-29.19h200.797V524.691z"/>
<path id="PRIMARY_4_" fill="#7CD5FF" stroke="#231F20" stroke-width="1.3334" stroke-miterlimit="10" d="M370.18,477.19
	c0,25.804-1.33,47.489-1.33,47.489l-126.329-0.656c0,0-1.33-21.029-1.33-46.833V364.276c0-25.804,14.81-46.723,33.067-46.723h62.854
	c18.268,0,33.068,20.918,33.068,46.723V477.19z"/>
<path id="PRIMARY_3_" fill="#7CD5FF" stroke="#231F20" stroke-width="1.3334" stroke-miterlimit="10" d="M403.829,323.846
	c-5.603,4.621-6.174,8.376-2.343,11.869c-5.974,3.641-7.542,7.018-2.624,9.962c-8.91,3.297-11.332,6.162-3.929,10.846
	c-12.951,0.398-16.078,2.616-8.239,11.095c-14.65-4.822-18.336-3.383-11.82,6.637c-14.299-8.058-18.396-7.534-9.532,3.557
	c-13.097-11.091-14.558-11.091-2.651,1.478c-17.019-12.569-20.67-12.569-10.143,4.149c-19.292-16.718-24.404-16.718-19.982,1.919
	c-15.377-18.637-21.221-18.637-21.527-3.184c-11.379-15.453-17.221-15.453-20.118-1.291c-8.06-14.162-13.172-14.162-15.577,2.799
	c-6.359-16.96-10.01-16.96-14.021,0.99c-1.103-17.95-2.563-17.95-5.79,0.347c-1.006-18.297-5.105-18.821-17.688-4.117
	c4.797-16.666,1.112-18.104-10.451-11.03c4.75-10.731,1.624-12.949-5.608-9.361c1.686-8.67-0.735-11.535-9.618-10.918
	c4.894-6.859,3.324-10.236-3.819-13.438c5.003-3.931,4.431-7.687,1.461-10.335c2.97-1.229,2.97-4.339-1.584-5.841
	c4.554-4.718,4.554-7.829-0.949-6.899c2.751-2.403,4.271-4.545,4.375-6.697c0.305-2.203-0.805-4.418-3.309-6.97
	c3.575-1.014,5.755-2.367,2.79-4.695c5.001-1.228,4.856-3.433,2.026-6.851c4.826,0.296,6.965-0.62,3.54-5.466
	c6.237,1.958,6.909-0.016,5.133-4.763c4.55,2.206,6.651,1.638,6.475-3.419c3.778,3.124,5.279,1.758,6.378-1.667
	c2.307,1.597,4.211,1.134,6.165-0.302c1.847,0.368,3.742-0.237,5.688-0.727c3.893-0.981,7.993-1.505,12.226-1.505h93.486
	c4.232,0,8.33,0.524,12.222,1.505c1.945,0.489,3.84,1.095,5.662,1.457c1.899,0.859,3.727,1.475,5.69,0.225
	c1.441,3.079,3.021,4.291,6.205,1.097c0.268,4.828,2.139,5.25,5.975,2.433c-1.061,5.359-0.16,7.479,6.205,4.61
	c-3.302,5.535-1.14,6.083,3.825,4.763c-2.97,4.44-3.135,7.014,3.075,7.562c-4.43,3.034-2.481,4.041,0.966,4.359
	c-2.376,3.248-3.253,5.808-1.45,8.125c-0.895,1.667,0.89,3.092,4.171,4.065c-6.564,1.933-6.564,5.043-0.027,6.789
	C398.227,321.479,398.227,324.589,403.829,323.846z"/>
<path id="SECONDARY_14_" fill="#FFC18C" stroke="#231F20" stroke-width="1.3334" stroke-miterlimit="10" d="M344.731,485.109
	c0,11.256-17.671,20.38-39.469,20.38l0,0c-21.8,0-39.471-9.124-39.471-20.38v-58.557c0-11.257,17.671-20.379,39.471-20.379l0,0
	c21.798,0,39.469,9.122,39.469,20.379V485.109z"/>
<line fill="none" stroke="#231F20" stroke-width="1.3334" stroke-miterlimit="10" x1="305.585" y1="437.491" x2="305.585" y2="489.87"/>
<polyline fill="none" stroke="#231F20" stroke-width="1.3334" stroke-miterlimit="10" points="284.004,442.398 305.755,445.514 
	327.163,442.398 "/>
<polyline fill="none" stroke="#231F20" stroke-width="1.3334" stroke-miterlimit="10" points="284.004,461.233 305.754,464.351 
	327.163,461.233 "/>
<polyline fill="none" stroke="#231F20" stroke-width="1.3334" stroke-miterlimit="10" points="284.004,480.068 305.755,483.185 
	327.163,480.068 "/>
</svg>
