<?xml version="1.0" encoding="utf-8"?>
<!-- Generator: Adobe Illustrator 16.0.0, SVG Export Plug-In . SVG Version: 6.00 Build 0)  -->
<svg version="1.1" id="Layer_1" xmlns="http://www.w3.org/2000/svg" xmlns:xlink="http://www.w3.org/1999/xlink" x="0px" y="0px"
	 width="612px" height="792px" viewBox="0 0 612 792" enable-background="new 0 0 612 792" xml:space="preserve">
<path id="body_frame" fill-opacity="0" fill="#BBBCBE" d="M382.5,492.5h-151c0,0,0-89.416,0-145.889c0-4.344,0-8.493-0.089-12.386
	c0.089-3.904,0.089-7.552,0.089-10.894c0-13.366,0-21.832,0-21.832h151V492.5z"/>
<path class="primary_color" id="PRIMARY_4_" fill="#7CD5FF" stroke="#231F20" stroke-miterlimit="10" d="M354.5,456.974c0,19.299-1,35.518-1,35.518
	l-95-0.491c0,0-1-15.728-1-35.026v-84.447c0-19.299,11.137-34.944,24.866-34.944h47.267c13.737,0,24.867,15.645,24.867,34.944
	V456.974z"/>
<path class="primary_color" id="PRIMARY_3_" fill="#7CD5FF" stroke="#231F20" stroke-miterlimit="10" d="M379.805,342.289
	c-4.213,3.456-4.643,6.265-1.762,8.876c-4.492,2.723-5.672,5.249-1.974,7.451c-6.7,2.466-8.521,4.608-2.954,8.112
	c-9.739,0.298-12.091,1.957-6.196,8.297c-11.017-3.606-13.788-2.53-8.889,4.964c-10.753-6.027-13.834-5.635-7.168,2.66
	c-9.849-8.294-10.947-8.294-1.994,1.105c-12.798-9.4-15.544-9.4-7.627,3.103c-14.508-12.503-18.353-12.503-15.027,1.435
	c-11.563-13.938-15.958-13.938-16.188-2.381c-8.557-11.557-12.95-11.557-15.129-0.965c-6.061-10.591-9.905-10.591-11.714,2.093
	c-4.782-12.685-7.528-12.685-10.543,0.74c-0.83-13.425-1.927-13.425-4.354,0.259c-0.756-13.684-3.839-14.076-13.302-3.079
	c3.607-12.464,0.836-13.54-7.859-8.25c3.572-8.025,1.221-9.684-4.218-7.001c1.268-6.484-0.553-8.627-7.233-8.166
	c3.68-5.13,2.5-7.655-2.872-10.05c3.762-2.94,3.332-5.749,1.099-7.73c2.233-0.919,2.233-3.245-1.191-4.368
	c3.425-3.529,3.425-5.855-0.713-5.16c2.069-1.797,3.211-3.399,3.29-5.009c0.229-1.647-0.605-3.304-2.488-5.212
	c2.688-0.759,4.328-1.77,2.098-3.511c3.761-0.918,3.652-2.567,1.524-5.124c3.629,0.222,5.237-0.463,2.662-4.088
	c4.69,1.464,5.195-0.012,3.86-3.562c3.421,1.65,5.001,1.225,4.869-2.557c2.841,2.336,3.97,1.315,4.797-1.247
	c1.734,1.194,3.167,0.848,4.636-0.226c1.389,0.275,2.813-0.177,4.277-0.543c2.928-0.733,6.011-1.125,9.194-1.125h70.302
	c3.183,0,6.264,0.392,9.19,1.125c1.463,0.366,2.888,0.819,4.258,1.089c1.429,0.643,2.803,1.104,4.279,0.168
	c1.084,2.303,2.271,3.209,4.666,0.82c0.201,3.611,1.608,3.926,4.493,1.819c-0.798,4.008-0.12,5.593,4.666,3.448
	c-2.482,4.14-0.856,4.549,2.877,3.562c-2.233,3.321-2.357,5.246,2.313,5.655c-3.331,2.269-1.866,3.022,0.727,3.26
	c-1.787,2.429-2.446,4.343-1.091,6.077c-0.673,1.246,0.669,2.312,3.137,3.04c-4.937,1.445-4.937,3.771-0.021,5.077
	C375.592,340.518,375.592,342.844,379.805,342.289z"/>
<path class="secondary_color" id="SECONDARY_14_" fill="#FFC18C" stroke="#231F20" stroke-miterlimit="10" d="M335.363,462.896
	c0,8.418-13.289,15.242-29.681,15.242l0,0c-16.394,0-29.683-6.824-29.683-15.242v-43.794c0-8.419,13.289-15.241,29.683-15.241l0,0
	c16.392,0,29.681,6.822,29.681,15.241V462.896z"/>
<line fill="none" stroke="#231F20" stroke-miterlimit="10" x1="305.925" y1="427.283" x2="305.925" y2="466.457"/>
<polyline fill="none" stroke="#231F20" stroke-miterlimit="10" points="289.696,430.953 306.053,433.283 322.151,430.953 "/>
<polyline fill="none" stroke="#231F20" stroke-miterlimit="10" points="289.696,445.04 306.052,447.371 322.151,445.04 "/>
<polyline fill="none" stroke="#231F20" stroke-miterlimit="10" points="289.696,459.126 306.053,461.457 322.151,459.126 "/>
</svg>
