<?xml version="1.0" encoding="utf-8"?>
<!-- Generator: Adobe Illustrator 16.0.0, SVG Export Plug-In . SVG Version: 6.00 Build 0)  -->
<svg version="1.1" id="Layer_1" xmlns="http://www.w3.org/2000/svg" xmlns:xlink="http://www.w3.org/1999/xlink" x="0px" y="0px"
	 width="612px" height="792px" viewBox="0 0 612 792" enable-background="new 0 0 612 792" xml:space="preserve">
<rect x="240.5" y="269.084" fill-opacity="0" fill="#231F20" width="133" height="254.95"/>
<path id="PRIMARY_5_" fill="#FF0000" stroke="#231F20" stroke-width="2.3382" stroke-miterlimit="10" d="M351.707,396.722
	c0,70.088-20.371,126.91-45.5,126.91c-25.133,0-45.5-56.821-45.5-126.91c0-70.1,20.367-126.921,45.5-126.921
	C331.336,269.801,351.707,326.622,351.707,396.722z"/>
<ellipse id="SECONDARY_13_" fill="#960303" stroke="#231F20" stroke-width="2.3382" stroke-miterlimit="10" cx="305.833" cy="483.513" rx="31.049" ry="39.95"/>
<path fill="none" stroke="#231F20" stroke-width="2.3382" stroke-miterlimit="10" d="M284.155,454.921
	c-0.498,12.379,43.911,15.222,43.359,0"/>
<path fill="none" stroke="#231F20" stroke-width="2.3382" stroke-miterlimit="10" d="M275.5,479.854
	c-0.717,12.885,61.382,12.885,60.667,0"/>
<path fill="none" stroke="#231F20" stroke-width="2.3382" stroke-miterlimit="10" d="M277.838,500.939c-1.172,13.81,56,16.152,56,0"
	/>
<ellipse fill="none" stroke="#231F20" stroke-width="2.3382" stroke-miterlimit="10" cx="307" cy="293.571" rx="5.833" ry="5.858"/>
</svg>
