<?xml version="1.0" encoding="utf-8"?>
<!-- Generator: Adobe Illustrator 16.0.0, SVG Export Plug-In . SVG Version: 6.00 Build 0)  -->
<svg version="1.1" id="Layer_1" xmlns="http://www.w3.org/2000/svg" xmlns:xlink="http://www.w3.org/1999/xlink" x="0px" y="0px"
	 width="612px" height="792px" viewBox="0 0 612 792" enable-background="new 0 0 612 792" xml:space="preserve">
<rect x="271.592" y="379.106" fill-opacity="0" fill="#231F20" width="69.979" height="35"/>
<path id="SECONDARY_17_" fill="#960303" stroke="#231F20" stroke-miterlimit="10" d="M341.179,412.001
	c0.052,1.013-9.643,1.749-22.019,1.749c-12.377,0-22.411-5.181-22.411-11.572c0-6.39,11.288-16.999,22.411-11.57
	C334.689,398.188,340.5,398.595,341.179,412.001z"/>
<ellipse id="SECONDARY_16_" fill="#960303" stroke="#231F20" stroke-miterlimit="10" cx="297.499" cy="400.625" rx="14.501" ry="13.125"/>
<path fill="none" stroke="#231F20" stroke-miterlimit="10" d="M310.881,405.688c0,2.557,13.496,4.625,30.174,4.625"/>
<path fill="none" stroke="#231F20" stroke-miterlimit="10" d="M312,399.501c0,2.051,12.176,3.71,27.223,3.71"/>
<path fill="none" stroke="#231F20" stroke-miterlimit="10" d="M308.794,392.654c1.463,1.727,9.83,3.452,21.977,3.452"/>
</svg>
