<?xml version="1.0" encoding="utf-8"?>
<!-- Generator: Adobe Illustrator 16.0.0, SVG Export Plug-In . SVG Version: 6.00 Build 0)  -->
<svg version="1.1" id="Layer_1" xmlns="http://www.w3.org/2000/svg" xmlns:xlink="http://www.w3.org/1999/xlink" x="0px" y="0px"
	 width="612px" height="792px" viewBox="0 0 612 792" enable-background="new 0 0 612 792" xml:space="preserve">
<rect id="body_frame" x="205" y="269" fill-opacity="0" fill="#BBBCBE" width="202" height="256"/>
<polygon id="PRIMARY_2_" fill="#666666" stroke="#231F20" stroke-width="1.339" stroke-miterlimit="10" points="404.446,288.073 
	370.333,288.073 370.333,287.738 346.974,270.144 264.701,270.144 241.91,287.738 241.91,288.073 207.625,288.073 207.554,363.466 
	241.91,391.612 241.91,523.856 370.333,523.856 370.333,391.471 404.375,363.466 "/>
<path id="SECONDARY" fill="#FF0000" stroke="#231F20" stroke-width="1.339" stroke-miterlimit="10" d="M305.946,302.348
	c-11.084,0-20.065,8.999-20.065,20.104c0,11.106,8.98,20.105,20.065,20.105c11.085,0,20.067-9,20.067-20.105
	C326.014,311.347,317.031,302.348,305.946,302.348z M305.948,332.505c-5.539,0-10.033-4.501-10.033-10.053
	c0-5.553,4.494-10.052,10.033-10.052c5.54,0,10.033,4.499,10.033,10.052C315.98,328.004,311.487,332.505,305.948,332.505z"/>
<ellipse id="SECONDARY_5_" fill="#FF0000" stroke="#231F20" stroke-width="1.339" stroke-miterlimit="10" cx="265.302" cy="292.783" rx="10.164" ry="10.183"/>
<ellipse id="SECONDARY_6_" fill="#FF0000" stroke="#231F20" stroke-width="1.339" stroke-miterlimit="10" cx="348.851" cy="292.783" rx="10.164" ry="10.182"/>
<ellipse id="SECONDARY_7_" fill="#FF0000" stroke="#231F20" stroke-width="1.339" stroke-miterlimit="10" cx="226.531" cy="344.3" rx="10.163" ry="10.183"/>
<ellipse id="SECONDARY_8_" fill="#FF0000" stroke="#231F20" stroke-width="1.339" stroke-miterlimit="10" cx="385.523" cy="344.3" rx="10.164" ry="10.183"/>
<path id="SECONDARY_9_" fill="#FF0000" stroke="#231F20" stroke-width="1.339" stroke-miterlimit="10" d="M235.41,339.35
	l26.821-36.861c-2.594-0.823-4.731-2.663-5.961-5.05l-26.974,37.069C231.917,335.25,234.109,337.014,235.41,339.35z"/>
<path id="SECONDARY_11_" fill="#FF0000" stroke="#231F20" stroke-width="1.339" stroke-miterlimit="10" d="M350.332,302.845
	l26.401,36.282c1.3-2.336,3.491-4.1,6.114-4.842l-25.816-35.478C355.459,300.947,353.076,302.442,350.332,302.845z"/>
<path id="SECONDARY_12_" fill="#FF0000" stroke="#231F20" stroke-width="1.339" stroke-miterlimit="10" d="M291.639,308.367
	l-16.637-12.537c-0.84,2.687-2.767,4.885-5.26,6.101l17.528,13.208C288.266,312.588,289.755,310.287,291.639,308.367z"/>
<path id="SECONDARY_13_" fill="#FF0000" stroke="#231F20" stroke-width="1.339" stroke-miterlimit="10" d="M324.78,315.565
	l18.743-14.123c-2.334-1.445-4.047-3.801-4.623-6.582l-18.353,13.829C322.393,310.652,323.839,312.983,324.78,315.565z"/>
<polygon id="SECONDARY_14_" fill="#FF0000" stroke="#231F20" stroke-width="1.339" stroke-miterlimit="10" points="261.982,413.086 
	261.973,399.013 277.511,413.096 261.992,427.16 "/>
<polygon id="SECONDARY_15_" fill="#FF0000" stroke="#231F20" stroke-width="1.339" stroke-miterlimit="10" points="261.983,503.461 
	261.973,489.388 277.511,503.471 261.992,517.534 "/>
<polygon id="SECONDARY_16_" fill="#FF0000" stroke="#231F20" stroke-width="1.339" stroke-miterlimit="10" points="305.914,474.348 
	289.432,457.77 305.981,441.257 322.461,457.838 "/>
<polygon id="SECONDARY_17_" fill="#FF0000" stroke="#231F20" stroke-width="1.339" stroke-miterlimit="10" points="349.945,413.086 
	349.955,427.16 334.417,413.078 349.937,399.013 "/>
<polygon id="SECONDARY_18_" fill="#FF0000" stroke="#231F20" stroke-width="1.339" stroke-miterlimit="10" points="351.283,503.463 
	351.293,517.537 335.755,503.453 351.274,489.39 "/>
<polygon id="SECONDARY_19_" fill="#FF0000" stroke="#231F20" stroke-width="1.339" stroke-miterlimit="10" points="338.577,416.977 
	312.366,447.386 317.594,452.749 344.106,421.988 "/>
<polygon id="SECONDARY_20_" fill="#FF0000" stroke="#231F20" stroke-width="1.339" stroke-miterlimit="10" points="316.154,464.128 
	311.006,469.267 340.262,499.607 345.487,494.55 "/>
<polygon id="SECONDARY_21_" fill="#FF0000" stroke="#231F20" stroke-width="1.339" stroke-miterlimit="10" points="300.108,447.118 
	272.709,417.447 267.32,422.332 294.957,452.257 "/>
<polygon id="SECONDARY_22_" fill="#FF0000" stroke="#231F20" stroke-width="1.339" stroke-miterlimit="10" points="294.112,462.423 
	266.786,493.838 272.837,499.12 299.791,468.134 "/>
<path id="SECONDARY_23_" fill="#FF0000" stroke="#231F20" stroke-width="1.339" stroke-miterlimit="10" d="M292.792,337.565
	l-25.502,66.267l4.74,4.296l0.677,0.262l25.886-67.263C296.452,340.273,294.497,339.062,292.792,337.565z"/>
<path id="SECONDARY_24_" fill="#FF0000" stroke="#231F20" stroke-width="1.339" stroke-miterlimit="10" d="M344.173,404.237
	l-25.66-66.122c-1.749,1.411-3.744,2.521-5.905,3.284l26.255,67.65L344.173,404.237z"/>
</svg>
