<?xml version="1.0" encoding="utf-8"?>
<!-- Generator: Adobe Illustrator 16.0.0, SVG Export Plug-In . SVG Version: 6.00 Build 0)  -->
<svg version="1.1" id="Layer_1" xmlns="http://www.w3.org/2000/svg" xmlns:xlink="http://www.w3.org/1999/xlink" x="0px" y="0px"
	 width="612px" height="792px" viewBox="0 0 612 792" enable-background="new 0 0 612 792" xml:space="preserve">
<rect id="body_frame" x="230.5" y="301.5" fill-opacity="0" fill="#BBBCBE" width="151" height="191"/>
<polygon id="PRIMARY_2_" fill="#666666" stroke="#231F20" stroke-miterlimit="10" points="379.591,315.73 354.091,315.73 
	354.091,315.48 336.629,302.354 275.128,302.354 258.091,315.48 258.091,315.73 232.462,315.73 232.409,371.98 258.091,392.98 
	258.091,491.646 354.091,491.646 354.091,392.875 379.538,371.98 "/>
<path id="SECONDARY" fill="#FF0000" stroke="#231F20" stroke-miterlimit="10" d="M305.96,326.381c-8.286,0-14.999,6.714-14.999,15
	c0,8.286,6.713,15,14.999,15s15.001-6.714,15.001-15C320.961,333.095,314.246,326.381,305.96,326.381z M305.961,348.881
	c-4.141,0-7.5-3.358-7.5-7.5c0-4.144,3.359-7.5,7.5-7.5s7.5,3.356,7.5,7.5C313.461,345.522,310.102,348.881,305.961,348.881z"/>
<circle id="SECONDARY_5_" fill="#FF0000" stroke="#231F20" stroke-miterlimit="10" cx="275.577" cy="319.244" r="7.598"/>
<circle id="SECONDARY_6_" fill="#FF0000" stroke="#231F20" stroke-miterlimit="10" cx="338.032" cy="319.245" r="7.598"/>
<circle id="SECONDARY_7_" fill="#FF0000" stroke="#231F20" stroke-miterlimit="10" cx="246.595" cy="357.681" r="7.597"/>
<circle id="SECONDARY_8_" fill="#FF0000" stroke="#231F20" stroke-miterlimit="10" cx="365.445" cy="357.681" r="7.598"/>
<path id="SECONDARY_9_" fill="#FF0000" stroke="#231F20" stroke-miterlimit="10" d="M253.232,353.988l20.049-27.501
	c-1.939-0.614-3.537-1.987-4.456-3.768l-20.164,27.657C250.622,350.929,252.26,352.245,253.232,353.988z"/>
<path id="SECONDARY_11_" fill="#FF0000" stroke="#231F20" stroke-miterlimit="10" d="M339.14,326.751l19.735,27.07
	c0.972-1.743,2.609-3.059,4.57-3.612l-19.298-26.47C342.972,325.335,341.19,326.451,339.14,326.751z"/>
<path id="SECONDARY_12_" fill="#FF0000" stroke="#231F20" stroke-miterlimit="10" d="M295.265,330.871l-12.437-9.354
	c-0.628,2.005-2.068,3.645-3.932,4.552l13.103,9.854C292.743,334.021,293.856,332.304,295.265,330.871z"/>
<path id="SECONDARY_13_" fill="#FF0000" stroke="#231F20" stroke-miterlimit="10" d="M320.039,336.242l14.011-10.537
	c-1.745-1.078-3.025-2.836-3.456-4.91l-13.719,10.317C318.254,332.576,319.335,334.315,320.039,336.242z"/>
<polygon id="SECONDARY_14_" fill="#FF0000" stroke="#231F20" stroke-miterlimit="10" points="273.096,409.002 273.089,398.502 
	284.704,409.009 273.103,419.502 "/>
<polygon id="SECONDARY_15_" fill="#FF0000" stroke="#231F20" stroke-miterlimit="10" points="273.097,476.43 273.089,465.93 
	284.704,476.438 273.103,486.93 "/>
<rect id="SECONDARY_16_" x="297.232" y="433.635" transform="matrix(0.7057 0.7085 -0.7085 0.7057 403.459 -86.5898)" fill="#FF0000" stroke="#231F20" stroke-miterlimit="10" width="17.458" height="17.459"/>
<polygon id="SECONDARY_17_" fill="#FF0000" stroke="#231F20" stroke-miterlimit="10" points="338.851,409.002 338.857,419.502 
	327.242,408.996 338.844,398.502 "/>
<polygon id="SECONDARY_18_" fill="#FF0000" stroke="#231F20" stroke-miterlimit="10" points="339.851,476.432 339.857,486.932 
	328.242,476.424 339.844,465.932 "/>
<polygon id="SECONDARY_19_" fill="#FF0000" stroke="#231F20" stroke-miterlimit="10" points="330.353,411.904 310.759,434.593 
	314.667,438.594 334.485,415.644 "/>
<polygon id="SECONDARY_20_" fill="#FF0000" stroke="#231F20" stroke-miterlimit="10" points="313.591,447.084 309.742,450.918 
	331.611,473.555 335.518,469.781 "/>
<polygon id="SECONDARY_21_" fill="#FF0000" stroke="#231F20" stroke-miterlimit="10" points="301.596,434.393 281.114,412.256 
	277.086,415.9 297.745,438.227 "/>
<polygon id="SECONDARY_22_" fill="#FF0000" stroke="#231F20" stroke-miterlimit="10" points="297.113,445.812 276.687,469.25 
	281.21,473.191 301.358,450.072 "/>
<path id="SECONDARY_23_" fill="#FF0000" stroke="#231F20" stroke-miterlimit="10" d="M296.127,352.656l-19.063,49.442l3.543,3.205
	l0.506,0.195l19.351-50.185C298.862,354.676,297.401,353.772,296.127,352.656z"/>
<path id="SECONDARY_24_" fill="#FF0000" stroke="#231F20" stroke-miterlimit="10" d="M334.535,402.399l-19.182-49.333
	c-1.308,1.053-2.799,1.881-4.414,2.45l19.626,50.474L334.535,402.399z"/>
</svg>
