<?xml version="1.0" encoding="utf-8"?>
<!-- Generator: Adobe Illustrator 16.0.0, SVG Export Plug-In . SVG Version: 6.00 Build 0)  -->
<svg version="1.1" id="Layer_1" xmlns="http://www.w3.org/2000/svg" xmlns:xlink="http://www.w3.org/1999/xlink" x="0px" y="0px"
	 width="612px" height="792px" viewBox="0 0 612 792" enable-background="new 0 0 612 792" xml:space="preserve">
<rect id="body_frame" x="230.5" y="300.5" fill-opacity="0" fill="#BBBCBE" width="151" height="191"/>
<path id="PRIMARY_4_" fill="#F1F1F1" stroke="#231F20" stroke-miterlimit="10" d="M315.463,316.035c0-1.394-1.994-2.61-4.963-3.279
	v-4.652c2.969-0.668,4.963-1.885,4.963-3.279s-1.994-2.61-4.963-3.279V300.5h-11v1.173c-2.669,0.69-4.421,1.843-4.421,3.152
	s1.752,2.462,4.421,3.152v4.906c-2.669,0.69-4.421,1.844-4.421,3.152s1.752,2.462,4.421,3.152v4.906
	c-2.669,0.689-4.421,1.843-4.421,3.152c0,1.308,1.752,2.462,4.421,3.151v4.906c-2.669,0.69-4.421,1.843-4.421,3.152
	s1.752,2.462,4.421,3.152v4.906c-2.669,0.69-4.421,1.844-4.421,3.152s1.752,2.462,4.421,3.152v4.906
	c-2.669,0.69-4.421,1.843-4.421,3.152s1.752,2.462,4.421,3.152v4.906c-2.669,0.689-4.421,1.843-4.421,3.151
	c0,1.309,1.752,2.462,4.421,3.152v4.906c-2.669,0.69-4.421,1.844-4.421,3.152s1.752,2.462,4.421,3.152v4.906
	c-2.669,0.69-4.421,1.843-4.421,3.152s1.752,2.462,4.421,3.152v4.905c-2.669,0.69-4.421,1.844-4.421,3.151
	c0,1.309,1.752,2.463,4.421,3.152v4.906c-2.669,0.689-4.421,1.843-4.421,3.151c0,1.308,1.752,2.462,4.421,3.151v4.906
	c-2.669,0.689-4.421,1.843-4.421,3.151s1.752,2.462,4.421,3.151v4.906c-2.669,0.689-4.421,1.844-4.421,3.152
	c0,1.308,1.752,2.461,4.421,3.151v4.906c-2.669,0.689-4.421,1.844-4.421,3.151s1.752,2.462,4.421,3.151v4.905
	c-2.669,0.69-4.421,1.844-4.421,3.152s1.752,2.462,4.421,3.152v4.906c-2.669,0.689-4.421,1.844-4.421,3.152
	c0,1.308,1.752,2.461,4.421,3.15v4.906c-2.669,0.689-4.421,1.844-4.421,3.151s1.752,2.462,4.421,3.151v4.78h11v-4.653
	c2.969-0.668,4.963-1.885,4.963-3.278s-1.994-2.61-4.963-3.278v-4.651c2.969-0.669,4.963-1.885,4.963-3.278
	c0-1.395-1.994-2.611-4.963-3.279v-4.652c2.969-0.669,4.963-1.885,4.963-3.279s-1.994-2.61-4.963-3.279v-4.65
	c2.969-0.669,4.963-1.886,4.963-3.279s-1.994-2.61-4.963-3.279v-4.651c2.969-0.669,4.963-1.885,4.963-3.278
	c0-1.395-1.994-2.611-4.963-3.279v-4.652c2.969-0.668,4.963-1.885,4.963-3.278s-1.994-2.61-4.963-3.278v-4.652
	c2.969-0.668,4.963-1.885,4.963-3.278c0-1.395-1.994-2.61-4.963-3.279v-4.651c2.969-0.668,4.963-1.885,4.963-3.279
	c0-1.394-1.994-2.609-4.963-3.278v-4.651c2.969-0.669,4.963-1.885,4.963-3.279s-1.994-2.61-4.963-3.279v-4.652
	c2.969-0.668,4.963-1.885,4.963-3.279s-1.994-2.61-4.963-3.279v-4.651c2.969-0.668,4.963-1.885,4.963-3.279
	c0-1.394-1.994-2.61-4.963-3.279v-4.651c2.969-0.668,4.963-1.885,4.963-3.279s-1.994-2.61-4.963-3.279v-4.652
	c2.969-0.668,4.963-1.885,4.963-3.279s-1.994-2.61-4.963-3.279v-4.652c2.969-0.668,4.963-1.885,4.963-3.279s-1.994-2.61-4.963-3.279
	v-4.651c2.969-0.668,4.963-1.885,4.963-3.279c0-1.395-1.994-2.611-4.963-3.279v-4.651
	C313.469,318.645,315.463,317.429,315.463,316.035z"/>
<path id="PRIMARY_3_" fill="#F1F1F1" stroke="#231F20" stroke-miterlimit="10" d="M370.477,338.175v-0.346
	c4.701-0.045,8.5-3.867,8.5-8.579c0-4.741-3.843-8.583-8.584-8.583c-4.43,0-8.074,3.357-8.533,7.667H248.682
	c-0.458-4.309-4.103-7.667-8.533-7.667c-4.741,0-8.583,3.843-8.583,8.583c0,4.712,3.798,8.534,8.5,8.579v0.346
	c-4.702,0.045-8.5,3.867-8.5,8.579c0,4.741,3.843,8.583,8.584,8.583c4.05,0,7.437-2.809,8.339-6.583h113.565
	c0.902,3.774,4.288,6.583,8.339,6.583c4.741,0,8.584-3.843,8.584-8.583C378.977,342.042,375.179,338.221,370.477,338.175z"/>
<path id="PRIMARY_2_" fill="#F1F1F1" stroke="#231F20" stroke-miterlimit="10" d="M347.267,347.685
	c0.006,0.03,0.006,0.061,0.012,0.091c-0.051-0.205-0.114-0.413-0.189-0.624c-0.008-0.021-0.019-0.042-0.026-0.063
	c0.099,0.277,0.181,0.549,0.233,0.813c0.016,0.099,0.029,0.199,0.04,0.299c0.015,0.076,0.024,0.148,0.036,0.222
	c0.043,0.472,0.012,0.922-0.08,1.353c-0.022,0.57-0.181,1.119-0.446,1.649c0.079-0.172,0.146-0.354,0.206-0.541
	c-0.119,0.317-0.281,0.626-0.479,0.929c0.087-0.206,0.162-0.417,0.217-0.638c-0.001,0-0.001,0.001-0.001,0.002
	c0.002-0.007,0.004-0.015,0.007-0.022c0.006-0.025,0.009-0.051,0.015-0.077c-0.017,0.03-0.032,0.06-0.049,0.089
	c0.003-0.011,0.005-0.022,0.007-0.033c0.018-0.032,0.032-0.063,0.049-0.095c0.05-0.231,0.082-0.469,0.095-0.717
	c0.006-0.044,0.011-0.089,0.016-0.133c0.009-0.045,0.018-0.091,0.024-0.137c-0.007,0.033-0.013,0.067-0.021,0.1
	c0.021-0.195,0.036-0.389,0.044-0.582c0.007-0.056,0.019-0.113,0.024-0.169c-0.001,0.218-0.014,0.435-0.048,0.651
	c0.112-0.494,0.181-1.002,0.171-1.535c-0.038-0.123-0.088-0.248-0.14-0.373c-0.003,0.056-0.004,0.11-0.01,0.166
	c-0.014-0.102-0.023-0.204-0.044-0.304c0.021,0.046,0.034,0.092,0.054,0.138c0,0,0-0.001,0-0.002
	c0.052,0.124,0.102,0.247,0.141,0.369c0,0.002-0.001,0.004-0.001,0.006c0.018,0.057,0.027,0.112,0.042,0.168
	c0-0.003,0.001-0.006,0.001-0.009c0.059,0.22,0.099,0.438,0.116,0.652c0.002-0.221-0.007-0.45-0.029-0.688
	c-0.03-0.173-0.071-0.346-0.131-0.519c-0.063-0.584-0.179-1.186-0.389-1.814c0.197,0.591,0.296,1.157,0.347,1.709
	c-0.027-0.071-0.06-0.143-0.092-0.214c-0.017-0.604-0.165-1.169-0.427-1.693c0.056,0.067,0.117,0.129,0.172,0.198
	c-0.089-0.148-0.2-0.285-0.299-0.428c-0.005-0.008-0.009-0.016-0.014-0.024c0.104,0.15,0.216,0.292,0.313,0.452
	c0.144,0.286,0.257,0.566,0.355,0.843c0.027,0.072,0.067,0.148,0.092,0.219c-0.275-1.024-0.848-1.934-1.637-2.631
	c-0.085-0.09-0.174-0.173-0.262-0.258c-0.584-0.684-1.308-1.256-2.159-1.67c0.069,0.042,0.131,0.092,0.199,0.136
	c-0.168-0.093-0.34-0.175-0.515-0.253c-0.025-0.015-0.048-0.033-0.074-0.048c0.131,0.054,0.265,0.104,0.39,0.166
	c-0.422-0.256-0.886-0.47-1.372-0.658c-1.195-0.521-2.535-0.835-3.859-0.93c-0.987-0.259-1.963-0.347-2.874-0.199
	c-1.333-0.155-2.475,0.069-3.284,1.284c0.391-0.156,0.803-0.287,1.225-0.406c-0.086,0.067-0.164,0.153-0.246,0.229
	c0.103-0.017,0.21-0.03,0.314-0.046c-0.098,0.064-0.184,0.148-0.277,0.22c-0.005,0.001-0.011,0.002-0.016,0.004
	c-0.086,0-0.161,0.018-0.242,0.026c0.071-0.073,0.146-0.136,0.221-0.204c-0.333,0.055-0.66,0.114-0.979,0.178c-2,0-2,4-1,6
	c0.18,0.18,0.37,0.328,0.564,0.462c0.134,0.194,0.275,0.378,0.436,0.538c0.518,0.259,1.035,0.38,1.553,0.423
	c-3.208,0.53-6.564,1.454-9.66,2.167c-4.365,0.684-8.777,0.871-13.277-0.548c-0.033-0.191-0.072-0.379-0.116-0.564
	c-0.703-2.959-2.694-5.092-5.04-5.092c-0.148,0-0.294,0.015-0.439,0.031c-0.068-0.004-0.136-0.015-0.205-0.015
	c-2.346,0-4.337,2.133-5.04,5.092c-0.044,0.185-0.083,0.373-0.116,0.564c-4.5,1.419-8.912,1.232-13.277,0.548
	c-3.096-0.712-6.452-1.637-9.66-2.167c0.518-0.042,1.035-0.164,1.553-0.423c0.16-0.16,0.302-0.344,0.436-0.538
	c0.194-0.134,0.385-0.282,0.564-0.462c1-2,1-6-1-6c-0.318-0.063-0.646-0.123-0.979-0.178c0.074,0.067,0.149,0.13,0.221,0.204
	c-0.081-0.008-0.156-0.026-0.242-0.026c-0.005-0.001-0.011-0.002-0.016-0.004c-0.094-0.072-0.18-0.155-0.277-0.22
	c0.104,0.016,0.212,0.029,0.314,0.046c-0.082-0.075-0.16-0.161-0.246-0.229c0.422,0.119,0.834,0.25,1.225,0.406
	c-0.81-1.215-1.951-1.439-3.284-1.284c-0.911-0.148-1.887-0.06-2.874,0.199c-1.324,0.095-2.664,0.41-3.859,0.93
	c-0.486,0.188-0.95,0.402-1.372,0.658c0.125-0.061,0.259-0.111,0.39-0.166c-0.026,0.015-0.049,0.033-0.074,0.048
	c-0.175,0.078-0.347,0.161-0.515,0.253c0.068-0.044,0.13-0.093,0.199-0.136c-0.852,0.414-1.575,0.987-2.159,1.67
	c-0.088,0.085-0.177,0.167-0.262,0.258c-0.789,0.697-1.361,1.607-1.637,2.631c0.024-0.071,0.065-0.147,0.093-0.22
	c0.099-0.277,0.212-0.557,0.355-0.843c0.096-0.161,0.208-0.302,0.313-0.452c-0.005,0.008-0.009,0.016-0.013,0.024
	c-0.1,0.143-0.21,0.28-0.299,0.428c0.055-0.068,0.116-0.13,0.172-0.198c-0.261,0.524-0.41,1.089-0.427,1.693
	c-0.032,0.071-0.064,0.143-0.091,0.214c0.051-0.552,0.149-1.118,0.347-1.709c-0.209,0.628-0.326,1.23-0.389,1.814
	c-0.06,0.173-0.101,0.346-0.131,0.518c-0.022,0.239-0.031,0.468-0.03,0.689c0.019-0.214,0.058-0.432,0.117-0.652
	c0,0.003,0,0.006,0,0.009c0.015-0.056,0.025-0.112,0.042-0.168c0-0.002,0-0.004,0-0.006c0.038-0.122,0.089-0.245,0.14-0.369
	c0,0,0,0.001,0,0.002c0.019-0.046,0.033-0.092,0.054-0.138c-0.021,0.101-0.03,0.203-0.044,0.304c-0.005-0.056-0.007-0.11-0.01-0.166
	c-0.052,0.125-0.102,0.25-0.14,0.373c-0.009,0.533,0.059,1.042,0.17,1.535c-0.034-0.215-0.047-0.432-0.047-0.65
	c0.005,0.056,0.017,0.113,0.024,0.169c0.007,0.193,0.022,0.387,0.043,0.581c-0.008-0.033-0.013-0.066-0.021-0.1
	c0.007,0.046,0.017,0.091,0.025,0.137c0.005,0.044,0.009,0.089,0.015,0.133c0.013,0.248,0.045,0.486,0.095,0.717
	c0.017,0.032,0.032,0.063,0.049,0.095c0.002,0.011,0.004,0.022,0.006,0.033c-0.016-0.03-0.032-0.06-0.048-0.089
	c0.005,0.025,0.008,0.052,0.015,0.077c0.002,0.007,0.004,0.015,0.007,0.022c0,0-0.001-0.001-0.001-0.002
	c0.055,0.221,0.13,0.432,0.216,0.638c-0.196-0.302-0.358-0.611-0.478-0.928c0.059,0.187,0.126,0.368,0.206,0.54
	c-0.266-0.53-0.423-1.079-0.446-1.649c-0.091-0.431-0.124-0.881-0.08-1.353c0.012-0.074,0.021-0.146,0.037-0.222
	c0.01-0.101,0.024-0.2,0.04-0.299c0.053-0.264,0.134-0.536,0.233-0.813c-0.008,0.021-0.019,0.042-0.026,0.063
	c-0.076,0.211-0.139,0.419-0.19,0.625c0.005-0.03,0.006-0.062,0.012-0.091c-0.766,2.612,0.288,4.601,2.167,6.198
	c0.494,0.526,1.064,1.005,1.691,1.443c-0.208-0.196-0.411-0.402-0.608-0.618c0.027,0.019,0.056,0.036,0.083,0.054
	c-0.003-0.002-0.005-0.004-0.007-0.006c0.027,0.019,0.055,0.037,0.082,0.056c0.084,0.057,0.169,0.113,0.255,0.168
	c-0.227-0.186-0.45-0.38-0.669-0.585c-0.033-0.039-0.065-0.08-0.099-0.119c0.048,0.035,0.094,0.071,0.143,0.106
	c-0.057-0.046-0.113-0.091-0.169-0.137c-0.026-0.031-0.052-0.063-0.078-0.094c0.088,0.073,0.177,0.145,0.267,0.213
	c-0.145-0.128-0.282-0.263-0.419-0.396c-0.057-0.071-0.112-0.143-0.167-0.216c-0.007-0.005-0.014-0.009-0.021-0.014
	c-0.013-0.018-0.025-0.037-0.038-0.055c-0.011-0.009-0.021-0.018-0.031-0.027c0.009,0.006,0.017,0.013,0.025,0.019
	c-0.056-0.077-0.109-0.156-0.164-0.235c0.007,0.007,0.015,0.015,0.021,0.022c-0.094-0.133-0.189-0.263-0.279-0.402
	c0.032,0.033,0.066,0.065,0.1,0.098c0.098,0.148,0.201,0.293,0.312,0.435c-0.046-0.043-0.088-0.087-0.132-0.131
	c0.054,0.076,0.107,0.154,0.162,0.228c-0.007-0.004-0.013-0.009-0.02-0.014c0.002,0.002,0.004,0.005,0.006,0.008
	c0.007,0.006,0.015,0.011,0.021,0.017c0.013,0.017,0.024,0.035,0.037,0.052c0.043,0.032,0.089,0.063,0.134,0.095
	c0.187,0.217,0.387,0.426,0.602,0.626c-0.05-0.036-0.101-0.071-0.149-0.108c0.057,0.05,0.113,0.099,0.171,0.147
	c-0.063-0.043-0.128-0.086-0.19-0.13c0.19,0.153,0.385,0.305,0.585,0.456c0.029,0.024,0.056,0.051,0.085,0.075
	c0.108,0.103,0.217,0.208,0.326,0.306c0.183,0.112,0.372,0.219,0.561,0.326c0.028,0.019,0.06,0.035,0.088,0.053
	c0.07,0.048,0.141,0.097,0.212,0.145c-0.278-0.161-0.554-0.323-0.82-0.49c-0.013-0.012-0.026-0.022-0.04-0.034
	c-0.127-0.077-0.247-0.159-0.371-0.238c0.012,0.009,0.022,0.02,0.034,0.029c-0.099-0.065-0.194-0.131-0.289-0.197
	c-0.025-0.017-0.051-0.033-0.075-0.049c0.241,0.253,0.491,0.493,0.75,0.718c-0.076-0.051-0.15-0.103-0.225-0.154
	c1.334,1.258,2.876,2.113,4.56,2.713c0.005-0.005,0.01-0.01,0.015-0.015c0.024,0.016,0.049,0.032,0.073,0.047
	c0.099,0.035,0.2,0.065,0.3,0.098c-0.028,0.014-0.057,0.029-0.085,0.043c0.046,0.03,0.093,0.061,0.139,0.091
	c-0.015,0.014-0.03,0.027-0.044,0.041c0.017-0.012,0.033-0.024,0.051-0.037c0,0,0,0,0,0c0.039-0.027,0.076-0.055,0.115-0.082
	c0.04,0.013,0.08,0.027,0.121,0.04c-0.034,0.044-0.067,0.086-0.102,0.132c0.003,0.002,0.006,0.004,0.009,0.006
	c0.03-0.047,0.067-0.089,0.099-0.135c0.101,0.031,0.201,0.062,0.303,0.092c0.041-0.016,0.079-0.038,0.121-0.052
	c0.002-0.001,0.004-0.001,0.006-0.002v0c0,0,0,0,0,0c0.03-0.013,0.054-0.021,0.08-0.032c-0.004-0.001-0.008-0.002-0.012-0.004
	c0.015-0.007,0.029-0.015,0.043-0.021c0.004,0.003,0.008,0.006,0.012,0.009c0.048-0.019,0.09-0.034,0.127-0.048
	c-0.022,0.031-0.047,0.063-0.074,0.095c-0.024-0.007-0.049-0.016-0.073-0.023c-0.01,0.013-0.025,0.03-0.036,0.044
	c0.025,0.007,0.052,0.013,0.078,0.021c-0.021,0.026-0.035,0.047-0.059,0.074c0.076,0.021,0.152,0.043,0.229,0.064
	c0.032-0.022,0.06-0.046,0.089-0.069c0.33,0.088,0.664,0.17,1.002,0.246c-0.012-0.012-0.023-0.023-0.035-0.035
	c-0.312-0.075-0.619-0.156-0.925-0.244c0.043-0.036,0.087-0.071,0.123-0.109c-0.078-0.031-0.157-0.06-0.235-0.092
	c0.038-0.013,0.074-0.025,0.108-0.037c0.054,0.002,0.104,0.001,0.148-0.013c0.006,0.001,0.011,0.001,0.017,0.002
	c0.021,0.008,0.04,0.016,0.061,0.024c0.004-0.005,0.009-0.01,0.012-0.015c0.065,0.008,0.129,0.017,0.188,0.024
	c-0.042-0.035-0.082-0.073-0.124-0.107c0.001-0.002,0.002-0.003,0.003-0.005c0.012,0.003,0.024,0.005,0.036,0.008
	c0.127,0.047,0.248,0.1,0.376,0.145c-0.078-0.044-0.156-0.084-0.234-0.114c0.167,0.039,0.335,0.077,0.504,0.112
	c0.048,0.03,0.092,0.061,0.14,0.091c0.074,0.023,0.137,0.051,0.188,0.083c-0.034-0.042-0.068-0.085-0.103-0.127
	c0.135,0.027,0.271,0.052,0.408,0.078c-0.142-0.033-0.285-0.064-0.426-0.099c-0.042-0.051-0.086-0.1-0.13-0.149
	c0.148,0.038,0.297,0.076,0.448,0.113c0.362,0.107,0.728,0.211,1.096,0.309c0.286,0.046,0.573,0.09,0.861,0.131
	c1.544,0.321,3.123,0.598,4.671,0.865c-1.529-0.226-3.079-0.466-4.59-0.757c1.432,0.345,2.893,0.631,4.355,0.896
	c0.872,0.088,1.745,0.177,2.615,0.277c0.186,0.033,0.366,0.067,0.549,0.101c-0.964-0.122-1.92-0.224-2.863-0.323
	c0.28,0.05,0.56,0.101,0.84,0.149c1.374,0.156,2.751,0.336,4.107,0.596c-0.315-0.012-0.631-0.024-0.946-0.038
	c1.052,0.19,2.087,0.392,3.098,0.616c0.053-0.012,0.105-0.027,0.157-0.038l0,0c-0.053,0.012-0.104,0.025-0.157,0.038l0,0
	c-0.036,0.008-0.071,0.017-0.107,0.026c-2.176-0.247-4.382-0.521-6.555-0.884c1.175,0.113,2.366,0.188,3.564,0.242
	c-1.043-0.189-2.1-0.372-3.161-0.558c-1.474-0.167-2.943-0.308-4.38-0.485c-0.209-0.05-0.421-0.097-0.629-0.149
	c1.354,0.193,2.747,0.336,4.169,0.485c-0.1-0.018-0.2-0.037-0.301-0.055c-1.325-0.134-2.645-0.269-3.934-0.446
	c-0.882-0.226-1.743-0.485-2.589-0.766c-0.02-0.017-0.046-0.032-0.069-0.047c0.009,0.011,0.018,0.022,0.026,0.033
	c-0.024-0.008-0.05-0.017-0.074-0.024c-0.047-0.031-0.093-0.061-0.14-0.091c-0.104-0.032-0.238-0.06-0.399-0.086
	c-0.003-0.001-0.007-0.002-0.01-0.004c0.001,0.001,0.003,0.002,0.005,0.003c-0.089-0.014-0.187-0.029-0.296-0.044
	c0.05,0.042,0.099,0.084,0.147,0.127c-0.115-0.045-0.23-0.091-0.347-0.137c-0.03,0.039-0.062,0.078-0.099,0.115
	c0.243,0.098,0.485,0.196,0.731,0.284c0.023,0.023,0.047,0.046,0.07,0.069c0.16,0.039,0.319,0.079,0.48,0.115
	c0.021,0.007,0.041,0.014,0.063,0.021c0.005,0.004,0.01,0.008,0.016,0.012c-0.176-0.036-0.35-0.074-0.523-0.113
	c0.038,0.039,0.078,0.076,0.116,0.115c-0.408-0.088-0.811-0.185-1.207-0.292c-0.118,0.08-0.25,0.153-0.413,0.211
	c-0.013-0.009-0.027-0.019-0.04-0.027c0.078-0.085,0.159-0.172,0.225-0.248c-0.026-0.007-0.054-0.015-0.081-0.022
	c0.02-0.023,0.043-0.05,0.062-0.072c-0.022-0.007-0.045-0.014-0.066-0.02l0,0c-0.023,0.021-0.052,0.045-0.077,0.068
	c-0.015-0.004-0.03-0.008-0.045-0.013c0.041-0.015,0.074-0.04,0.116-0.054c-0.043,0.014-0.075,0.038-0.117,0.053
	c-0.002,0-0.003,0-0.004-0.001c-0.097,0.037-0.191,0.078-0.284,0.123c-0.039-0.026-0.077-0.053-0.117-0.08
	c-0.022,0.035-0.051,0.064-0.072,0.099c-0.019,0.031-0.03,0.065-0.049,0.096c-0.015,0.008-0.032,0.014-0.048,0.021
	c0.03-0.042,0.057-0.087,0.088-0.128c0.024-0.033,0.048-0.062,0.072-0.094c-0.044-0.03-0.09-0.06-0.135-0.089
	c-0.019,0.013-0.036,0.027-0.055,0.04c0.001-0.001,0.002-0.002,0.004-0.004c-0.167,0.119-0.338,0.239-0.497,0.357
	c-0.146,0.108-0.278,0.215-0.418,0.322c0.198-0.249,0.406-0.491,0.632-0.716c0.062-0.031,0.126-0.064,0.188-0.095
	c-0.072-0.047-0.143-0.094-0.215-0.142c-0.029-0.01-0.059-0.022-0.088-0.032c-0.103,0.11-0.213,0.214-0.31,0.328
	c-0.411,0.483-0.766,1.004-1.058,1.557c-1.093,1.566-1.301,3.888-0.604,6.1c-0.001-0.021-0.001-0.041-0.002-0.061
	c-0.192-0.681-0.295-1.358-0.297-2.023c0.004,0.041,0.013,0.081,0.017,0.122c0-0.032,0.004-0.063,0.004-0.095
	c0.006,0.104,0.018,0.21,0.027,0.316c0.01,0.073,0.019,0.146,0.03,0.219c0.006,0.062,0.005,0.12,0.013,0.182
	c0.044,0.326,0.11,0.66,0.193,1c-0.004-0.078-0.01-0.157-0.011-0.235c0.031,0.12,0.06,0.239,0.094,0.357
	c0-0.026-0.003-0.053-0.004-0.079c0.007,0.042,0.013,0.084,0.02,0.125c0.156,0.533,0.341,1.047,0.535,1.508
	c-0.121-0.213-0.23-0.439-0.338-0.666c0.001,0.005,0.004,0.01,0.005,0.015c0.121,0.253,0.24,0.509,0.374,0.744
	c0.078,0.181,0.156,0.353,0.233,0.516c0.001,0.001,0.002,0.002,0.002,0.003c-0.076-0.16-0.148-0.32-0.216-0.481
	c0.174,0.299,0.365,0.572,0.56,0.841c0.042,0.084,0.077,0.169,0.121,0.252c-0.005,0.002-0.013,0.007-0.019,0.01
	c0.159,0.183,0.319,0.362,0.48,0.534c0.246,0.323,0.528,0.62,0.839,0.896c-0.111-0.119-0.213-0.244-0.317-0.367
	c0.077,0.076,0.156,0.149,0.234,0.223c0.121,0.14,0.247,0.271,0.374,0.404c0.154,0.124,0.323,0.236,0.491,0.351
	c0.758,0.613,1.536,1.124,2.336,1.537c1.347,0.582,2.693,0.918,4.04,1.1c-0.688-0.153-1.364-0.339-2.02-0.558
	c-1.261-0.383-2.452-0.899-3.526-1.574c0.259,0.139,0.524,0.272,0.804,0.395c-0.178-0.098-0.35-0.199-0.52-0.303
	c0.471,0.257,0.961,0.484,1.47,0.682c1.769,0.626,3.85,1.004,6.072,1.234c1.986,0.154,4.024,0.16,5.985,0.16c0.33,0,0.657,0,1,0
	c-0.271,0.068-0.55,0.127-0.834,0.181c4.544,0.106,9.008,0.02,12.064,0.532c0,0.272,0,0.544,0,0.818c0,1.369,0,2.763,0,4.168
	c0,0.246-0.002,0.486-0.011,0.708c-0.22-0.408-0.22,0.592-0.22,0.592c-2.544-0.954-5.593-0.998-8.569-0.903
	c0.19-0.032,0.384-0.06,0.569-0.097c-1,0-2,0-3.078-0.479c-0.355-0.137-0.707-0.253-1.055-0.349
	c-1.043-0.286-2.05-0.388-3.023-0.336h-0.001c1.14-0.041,2.259,0.162,3.327,0.685c0.28,0.138,0.545,0.243,0.8,0.298
	c0.717,0.125,0.939,0.163,1.342,0.174c-0.089,0-0.179-0.001-0.267-0.002c0.097,0.001,0.193,0.002,0.288,0.003
	c0.173,0.004,0.375,0.005,0.667,0.005c-2.247,0-5.3-0.001-7.892-0.455c2.104,0.319,4.539,0.415,6.582,0.443
	c-2.411-0.036-4.646-0.192-6.703-0.831c-0.565-0.011-1.139-0.273-1.719-0.618c0.125,0.04,0.249,0.079,0.376,0.112
	c-0.342-0.15-0.678-0.32-1.009-0.507c-0.28-0.18-0.562-0.361-0.844-0.526c-0.125-0.085-0.251-0.166-0.374-0.258
	c-0.267-0.643-0.418-1.415-0.418-2.361c-0.405,0.507-0.64,0.96-0.74,1.369c-0.104-0.101-0.209-0.201-0.313-0.308
	c-0.034-0.327-0.023-0.678,0.054-1.062c-0.172,0.344-0.188,0.687-0.096,1.021c-0.06-0.062-0.12-0.119-0.18-0.183
	c-0.117-0.362-0.215-0.725-0.146-1.087c0.003-0.014,0.012-0.027,0.015-0.041c-0.203,0.093-0.412,0.182-0.593,0.291
	c0.192-0.128,0.406-0.231,0.611-0.344c0.06-0.219,0.17-0.438,0.389-0.656c0.021,0,0.039,0,0.06,0
	c-2.767-0.629-5.208-2.016-6.893-4.667c-0.048,0.027-0.108,0.062-0.194,0.111c-0.109,0.063-0.214,0.123-0.322,0.184
	c-0.01-0.024-0.019-0.048-0.028-0.072c-0.051,0.055-0.093,0.114-0.142,0.169c-0.018,0.01-0.036,0.021-0.054,0.031
	c0.063-0.075,0.119-0.153,0.185-0.228c-0.042-0.11-0.091-0.221-0.129-0.331c-0.122,0.121-0.25,0.236-0.366,0.363
	c-0.304,0.329-0.579,0.685-0.841,1.053c-0.478,0.493-0.799,1.063-0.978,1.696c-0.104,0.227-0.208,0.452-0.298,0.69
	c-0.766,2.298-0.208,4.008,0.814,5.509c-0.348-0.924-0.526-1.925-0.505-3.011c0.086,0.404,0.199,0.818,0.333,1.239
	c0.02,0.074,0.047,0.147,0.068,0.221c0.012,0.033,0.021,0.065,0.032,0.097c0.063,0.206,0.13,0.412,0.21,0.617
	c0.115,0.583,0.281,1.129,0.475,1.655c0.186,0.227,0.375,0.452,0.572,0.673c0,0,0,0,0,0c0.853,1.279,1.801,2.366,2.816,3.301
	c0.01,0.016,0.018,0.033,0.028,0.048c-1.099-0.781-2.047-1.657-2.794-2.637c0.802,1.461,1.933,2.668,3.311,3.666
	c-0.139,0.137-0.381,0.351-0.629,0.581c-1.885,1.748-3.208,3.864-3.602,6.241c-0.858,1.586-0.789,3.231-0.146,4.864
	c-0.194-0.93-0.193-1.917,0.041-2.962c0.058,1.246,0.361,2.548,0.975,3.898c0.886,2.126,2.059,3.71,3.444,4.912
	c-0.207-0.143-0.407-0.291-0.604-0.439c1.018,1.048,2.11,2.053,3.159,2.988c-0.262,0.203-0.517,0.414-0.764,0.633
	c-2.471,2.188-4.111,5.156-2.236,8.906c7,10,20,8,30.101,6.328c0.243,0.178,0.498,0.328,0.762,0.452
	c0.528,0.246,1.092,0.38,1.679,0.38c0.148,0,0.294-0.016,0.439-0.031c0.068,0.004,0.136,0.014,0.205,0.014
	c0.587,0,1.15-0.133,1.679-0.379c0.264-0.123,0.519-0.275,0.762-0.451c10.101,1.672,23.101,3.672,30.101-6.328
	c1.875-3.75,0.234-6.719-2.236-8.906c-0.247-0.219-0.502-0.43-0.764-0.633c1.049-0.937,2.142-1.941,3.159-2.99
	c-0.196,0.15-0.396,0.297-0.604,0.441c1.386-1.202,2.559-2.787,3.444-4.913c0.613-1.35,0.917-2.652,0.975-3.898
	c0.234,1.045,0.235,2.032,0.041,2.962c0.643-1.633,0.712-3.277-0.146-4.864c-0.394-2.377-1.717-4.493-3.602-6.241
	c-0.248-0.23-0.49-0.443-0.629-0.581c1.378-0.998,2.509-2.205,3.311-3.666c-0.747,0.979-1.695,1.856-2.794,2.637
	c0.011-0.016,0.019-0.033,0.028-0.048c1.016-0.935,1.964-2.022,2.816-3.301c0,0,0,0,0,0c0.197-0.222,0.387-0.446,0.572-0.673
	c0.193-0.526,0.359-1.071,0.475-1.655c0.08-0.205,0.146-0.411,0.21-0.617c0.012-0.032,0.021-0.064,0.032-0.097
	c0.021-0.074,0.049-0.147,0.068-0.221c0.134-0.42,0.247-0.834,0.333-1.239c0.021,1.085-0.157,2.086-0.505,3.01
	c1.022-1.5,1.58-3.21,0.814-5.508c-0.09-0.239-0.194-0.464-0.298-0.69c-0.179-0.634-0.5-1.203-0.978-1.696
	c-0.262-0.369-0.537-0.725-0.841-1.053c-0.116-0.126-0.244-0.242-0.366-0.363c-0.038,0.11-0.087,0.221-0.129,0.331
	c0.065,0.075,0.121,0.152,0.185,0.228c-0.018-0.01-0.036-0.021-0.054-0.031c-0.049-0.056-0.091-0.114-0.142-0.169
	c-0.01,0.024-0.019,0.048-0.028,0.072c-0.108-0.062-0.213-0.122-0.322-0.184c-0.086-0.049-0.146-0.084-0.194-0.111
	c-1.685,2.651-4.126,4.038-6.893,4.667c0.021,0,0.039,0,0.06,0c0.219,0.219,0.329,0.438,0.389,0.656
	c0.205,0.112,0.419,0.216,0.611,0.344c-0.181-0.108-0.39-0.197-0.593-0.291c0.003,0.013,0.012,0.027,0.015,0.041
	c0.068,0.362-0.029,0.725-0.146,1.087c-0.06,0.064-0.12,0.121-0.18,0.183c0.092-0.333,0.076-0.677-0.096-1.021
	c0.077,0.384,0.088,0.734,0.054,1.062c-0.104,0.106-0.209,0.207-0.313,0.308c-0.101-0.409-0.335-0.862-0.74-1.369
	c0,0.946-0.151,1.718-0.418,2.361c-0.123,0.092-0.249,0.172-0.374,0.258c-0.282,0.165-0.563,0.346-0.844,0.526
	c-0.331,0.187-0.667,0.356-1.009,0.507c0.127-0.034,0.251-0.073,0.376-0.112c-0.58,0.345-1.153,0.606-1.719,0.618
	c-2.058,0.639-4.292,0.795-6.703,0.831c2.043-0.028,4.478-0.124,6.582-0.443c-2.592,0.454-5.645,0.455-7.892,0.455
	c0.292,0,0.494,0,0.667-0.005c0.095-0.001,0.191-0.002,0.288-0.003c-0.088,0.001-0.178,0.001-0.267,0.002
	c0.402-0.012,0.625-0.049,1.342-0.174c0.255-0.056,0.52-0.161,0.8-0.298c1.068-0.523,2.188-0.726,3.327-0.685h-0.001
	c-0.974-0.052-1.98,0.05-3.023,0.336c-0.348,0.095-0.699,0.211-1.055,0.349c-1.078,0.479-2.078,0.479-3.078,0.479
	c0.186,0.037,0.379,0.065,0.569,0.097c-2.977-0.095-6.025-0.051-8.569,0.903c0,0,0-1-0.22-0.592
	c-0.009-0.222-0.011-0.462-0.011-0.708c0-1.406,0-2.8,0-4.168c0-0.274,0-0.546,0-0.818c3.057-0.512,7.521-0.426,12.064-0.532
	c-0.284-0.054-0.563-0.113-0.834-0.181c0.343,0,0.67,0,1,0c1.961,0,3.999-0.006,5.985-0.16c2.223-0.229,4.304-0.607,6.072-1.234
	c0.509-0.197,0.999-0.424,1.47-0.682c-0.17,0.104-0.342,0.205-0.52,0.303c0.279-0.123,0.545-0.256,0.804-0.395
	c-1.074,0.675-2.266,1.19-3.526,1.574c-0.655,0.219-1.331,0.405-2.02,0.558c1.347-0.181,2.693-0.518,4.04-1.1
	c0.8-0.414,1.578-0.924,2.336-1.537c0.168-0.114,0.337-0.227,0.491-0.351c0.127-0.133,0.253-0.265,0.374-0.404
	c0.078-0.074,0.157-0.147,0.234-0.223c-0.104,0.123-0.206,0.249-0.317,0.367c0.311-0.277,0.593-0.573,0.839-0.896
	c0.161-0.171,0.321-0.351,0.48-0.534c-0.006-0.003-0.014-0.007-0.019-0.01c0.044-0.083,0.079-0.168,0.121-0.252
	c0.194-0.269,0.386-0.542,0.56-0.841c-0.067,0.161-0.14,0.321-0.216,0.481c0-0.001,0.001-0.002,0.002-0.003
	c0.077-0.164,0.155-0.335,0.233-0.517c0.134-0.234,0.253-0.49,0.374-0.743c0.001-0.005,0.004-0.01,0.005-0.015
	c-0.107,0.226-0.217,0.452-0.337,0.666c0.194-0.462,0.378-0.975,0.534-1.508c0.007-0.042,0.013-0.084,0.02-0.126
	c-0.001,0.026-0.004,0.053-0.004,0.079c0.034-0.118,0.063-0.237,0.094-0.357c-0.001,0.078-0.007,0.156-0.011,0.234
	c0.083-0.34,0.149-0.674,0.193-1c0.008-0.063,0.007-0.12,0.013-0.182c0.012-0.073,0.021-0.146,0.03-0.219
	c0.01-0.106,0.021-0.213,0.027-0.317c0,0.032,0.004,0.063,0.004,0.096c0.004-0.041,0.013-0.081,0.017-0.121
	c-0.002,0.665-0.104,1.342-0.297,2.023c-0.001,0.021-0.001,0.041-0.002,0.061c0.697-2.212,0.489-4.533-0.604-6.1
	c-0.292-0.553-0.646-1.073-1.058-1.557c-0.097-0.114-0.207-0.218-0.31-0.328c-0.029,0.01-0.059,0.022-0.088,0.032
	c-0.072,0.047-0.143,0.094-0.215,0.142c0.063,0.031,0.127,0.064,0.188,0.095c0.226,0.225,0.434,0.467,0.632,0.716
	c-0.14-0.107-0.272-0.213-0.418-0.322c-0.159-0.119-0.33-0.238-0.497-0.357c0.002,0.001,0.003,0.002,0.004,0.004
	c-0.019-0.013-0.036-0.027-0.055-0.04c-0.045,0.03-0.091,0.06-0.135,0.089c0.024,0.032,0.048,0.062,0.072,0.094
	c0.031,0.042,0.058,0.086,0.088,0.128c-0.016-0.007-0.033-0.014-0.048-0.021c-0.019-0.031-0.03-0.065-0.049-0.096
	c-0.021-0.035-0.05-0.064-0.072-0.099c-0.04,0.027-0.078,0.053-0.117,0.08c-0.093-0.045-0.188-0.086-0.284-0.123
	c-0.001,0-0.002,0-0.004,0.001c-0.042-0.015-0.074-0.039-0.117-0.053c0.042,0.014,0.075,0.039,0.116,0.054
	c-0.015,0.004-0.03,0.008-0.045,0.013c-0.025-0.023-0.054-0.047-0.077-0.068l0,0c-0.021,0.006-0.044,0.013-0.066,0.02
	c0.019,0.022,0.042,0.048,0.062,0.072c-0.027,0.008-0.055,0.015-0.081,0.022c0.065,0.076,0.146,0.163,0.225,0.248
	c-0.013,0.009-0.027,0.018-0.04,0.027c-0.163-0.058-0.295-0.131-0.413-0.211c-0.396,0.107-0.799,0.205-1.207,0.292
	c0.038-0.039,0.078-0.077,0.116-0.115c-0.174,0.039-0.348,0.078-0.523,0.113c0.006-0.004,0.011-0.008,0.016-0.012
	c0.021-0.007,0.042-0.014,0.063-0.021c0.161-0.036,0.32-0.076,0.48-0.115c0.023-0.023,0.047-0.047,0.07-0.069
	c0.246-0.089,0.488-0.187,0.731-0.284c-0.037-0.038-0.068-0.077-0.099-0.115c-0.116,0.046-0.231,0.092-0.347,0.137
	c0.049-0.043,0.098-0.085,0.147-0.127c-0.109,0.015-0.207,0.03-0.296,0.044c0.002-0.001,0.004-0.002,0.005-0.003
	c-0.003,0.001-0.007,0.003-0.01,0.004c-0.161,0.026-0.296,0.054-0.399,0.086c-0.047,0.03-0.093,0.061-0.14,0.091
	c-0.024,0.008-0.05,0.016-0.074,0.024c0.009-0.011,0.018-0.022,0.026-0.033c-0.023,0.015-0.05,0.03-0.069,0.047
	c-0.846,0.281-1.707,0.54-2.589,0.766c-1.289,0.178-2.608,0.312-3.934,0.446c-0.101,0.018-0.201,0.037-0.301,0.055
	c1.422-0.149,2.815-0.292,4.169-0.485c-0.208,0.053-0.42,0.099-0.629,0.149c-1.437,0.178-2.906,0.318-4.38,0.485
	c-1.062,0.186-2.118,0.369-3.161,0.558c1.198-0.054,2.39-0.129,3.564-0.242c-2.173,0.364-4.379,0.637-6.555,0.884
	c-0.036-0.009-0.071-0.018-0.107-0.026l0,0c-0.053-0.013-0.104-0.026-0.157-0.038l0,0c0.052,0.011,0.104,0.026,0.157,0.038
	c1.011-0.224,2.046-0.426,3.098-0.616c-0.315,0.014-0.631,0.026-0.946,0.038c1.356-0.26,2.733-0.44,4.107-0.596
	c0.28-0.049,0.56-0.099,0.84-0.149c-0.943,0.099-1.899,0.201-2.863,0.323c0.183-0.034,0.363-0.067,0.549-0.101
	c0.87-0.1,1.743-0.189,2.615-0.277c1.463-0.265,2.924-0.551,4.355-0.896c-1.511,0.291-3.061,0.531-4.59,0.757
	c1.548-0.267,3.126-0.544,4.671-0.865c0.288-0.041,0.575-0.085,0.861-0.131c0.368-0.097,0.732-0.202,1.096-0.309
	c0.15-0.037,0.299-0.075,0.448-0.113c-0.044,0.049-0.088,0.098-0.13,0.149c-0.141,0.034-0.284,0.065-0.426,0.099
	c0.136-0.026,0.273-0.051,0.408-0.078c-0.034,0.042-0.068,0.084-0.103,0.127c0.051-0.031,0.113-0.06,0.188-0.083
	c0.048-0.03,0.092-0.061,0.14-0.091c0.169-0.036,0.336-0.074,0.504-0.112c-0.078,0.03-0.156,0.069-0.234,0.114
	c0.128-0.045,0.249-0.098,0.376-0.145c0.012-0.003,0.024-0.005,0.036-0.008c0.001,0.002,0.002,0.004,0.003,0.005
	c-0.042,0.035-0.082,0.072-0.124,0.107c0.059-0.008,0.122-0.016,0.188-0.024c0.003,0.005,0.008,0.01,0.012,0.015
	c0.021-0.008,0.04-0.016,0.061-0.024c0.006-0.001,0.011-0.001,0.017-0.002c0.044,0.014,0.095,0.015,0.148,0.013
	c0.034,0.011,0.07,0.023,0.108,0.037c-0.078,0.032-0.157,0.061-0.235,0.092c0.036,0.038,0.08,0.073,0.123,0.109
	c-0.306,0.088-0.613,0.169-0.925,0.244c-0.012,0.012-0.023,0.023-0.035,0.035c0.338-0.076,0.672-0.158,1.002-0.246
	c0.029,0.023,0.057,0.047,0.089,0.069c0.076-0.021,0.152-0.042,0.229-0.064c-0.023-0.027-0.037-0.048-0.059-0.074
	c0.026-0.007,0.053-0.013,0.078-0.021c-0.011-0.014-0.026-0.031-0.036-0.044c-0.024,0.007-0.049,0.016-0.073,0.023
	c-0.027-0.033-0.052-0.064-0.074-0.095c0.037,0.014,0.079,0.029,0.127,0.048c0.004-0.003,0.008-0.006,0.012-0.009
	c0.014,0.006,0.028,0.014,0.043,0.021c-0.004,0.001-0.008,0.003-0.012,0.004c0.026,0.011,0.05,0.019,0.08,0.032c0,0,0,0,0,0v0
	c0.002,0,0.004,0.001,0.006,0.002c0.042,0.014,0.08,0.037,0.121,0.052c0.102-0.03,0.202-0.061,0.303-0.092
	c0.031,0.046,0.068,0.088,0.099,0.135c0.003-0.002,0.006-0.004,0.009-0.006c-0.034-0.045-0.067-0.088-0.102-0.132
	c0.041-0.013,0.081-0.026,0.121-0.04c0.039,0.027,0.076,0.055,0.115,0.082c0,0,0,0,0,0c0.018,0.012,0.034,0.024,0.051,0.037
	c-0.014-0.014-0.029-0.027-0.044-0.041c0.046-0.03,0.093-0.061,0.139-0.091c-0.028-0.014-0.057-0.029-0.085-0.043
	c0.1-0.033,0.201-0.063,0.3-0.098c0.024-0.016,0.049-0.031,0.073-0.047c0.005,0.005,0.01,0.01,0.015,0.015
	c1.684-0.601,3.226-1.456,4.56-2.713c-0.074,0.052-0.148,0.104-0.225,0.154c0.259-0.226,0.509-0.465,0.75-0.718
	c-0.024,0.017-0.05,0.033-0.075,0.049c-0.095,0.066-0.19,0.132-0.288,0.197c0.011-0.01,0.021-0.02,0.033-0.029
	c-0.124,0.08-0.244,0.161-0.371,0.238c-0.014,0.012-0.027,0.022-0.04,0.034c-0.267,0.167-0.542,0.33-0.82,0.49
	c0.071-0.048,0.142-0.097,0.212-0.145c0.028-0.018,0.06-0.035,0.088-0.053c0.188-0.107,0.378-0.214,0.561-0.326
	c0.109-0.098,0.218-0.203,0.326-0.306c0.029-0.024,0.056-0.051,0.085-0.075c0.2-0.15,0.395-0.302,0.585-0.456
	c-0.063,0.044-0.127,0.087-0.19,0.13c0.058-0.049,0.114-0.098,0.171-0.148c-0.049,0.037-0.1,0.072-0.148,0.108
	c0.214-0.2,0.414-0.409,0.601-0.626c0.045-0.032,0.091-0.063,0.134-0.095c0.013-0.017,0.024-0.035,0.037-0.052
	c0.007-0.006,0.015-0.011,0.021-0.017c0.002-0.002,0.004-0.005,0.006-0.008c-0.007,0.005-0.013,0.01-0.02,0.014
	c0.055-0.074,0.108-0.151,0.162-0.228c-0.044,0.043-0.086,0.088-0.132,0.131c0.11-0.141,0.214-0.286,0.312-0.435
	c0.033-0.033,0.067-0.065,0.1-0.098c-0.09,0.139-0.186,0.269-0.279,0.402c0.007-0.007,0.015-0.014,0.021-0.021
	c-0.055,0.079-0.108,0.158-0.164,0.235c0.009-0.006,0.017-0.013,0.025-0.019c-0.011,0.009-0.021,0.018-0.031,0.027
	c-0.013,0.018-0.025,0.037-0.038,0.055c-0.007,0.005-0.014,0.009-0.021,0.014c-0.055,0.073-0.11,0.145-0.167,0.216
	c-0.137,0.134-0.274,0.268-0.419,0.396c0.09-0.069,0.179-0.141,0.267-0.213c-0.026,0.032-0.052,0.063-0.078,0.094
	c-0.056,0.046-0.112,0.091-0.169,0.137c0.048-0.035,0.095-0.071,0.143-0.106c-0.033,0.039-0.065,0.081-0.099,0.119
	c-0.219,0.205-0.442,0.399-0.669,0.585c0.086-0.055,0.171-0.111,0.255-0.168c0.027-0.019,0.055-0.037,0.082-0.056
	c-0.002,0.002-0.004,0.004-0.007,0.006c0.027-0.018,0.056-0.036,0.083-0.054c-0.197,0.216-0.4,0.422-0.608,0.618
	c0.627-0.438,1.197-0.917,1.691-1.443C346.979,352.286,348.032,350.297,347.267,347.685z M272.883,357.879
	c-0.004-0.002-0.008-0.005-0.012-0.008c-0.001,0.001-0.001,0.002-0.002,0.003c-0.242-0.081-0.481-0.167-0.722-0.253
	c0.053,0.037,0.105,0.073,0.156,0.11c0.186,0.053,0.368,0.108,0.557,0.159c-0.005,0.011-0.014,0.023-0.02,0.034
	c-0.151-0.042-0.301-0.085-0.451-0.128c-0.029-0.021-0.057-0.044-0.086-0.065c-0.07-0.021-0.141-0.04-0.211-0.061
	c-0.002-0.026,0.002-0.045,0.003-0.068c0.018,0.006,0.035,0.012,0.052,0.018c-0.017-0.012-0.033-0.023-0.051-0.035
	c0.001-0.007,0-0.016,0.002-0.022c0.159,0.048,0.323,0.092,0.484,0.137c0.096,0.057,0.193,0.114,0.288,0.17
	c0.013-0.028,0.02-0.054,0.03-0.081c0.008,0.002,0.016,0.004,0.023,0.007c0.022-0.062,0.038-0.124,0.05-0.183
	c-0.005-0.002-0.009-0.006-0.013-0.009c0.041-0.164,0.045-0.281,0.045-0.281c-0.562-0.094-1.133-0.214-1.703-0.359
	c0.017,0.009,0.033,0.018,0.05,0.027c-0.112-0.028-0.225-0.055-0.336-0.086c-0.021-0.012-0.042-0.024-0.063-0.036
	c-0.405-0.111-0.81-0.234-1.21-0.371c-0.129-0.047-0.256-0.097-0.384-0.147c0.02,0.011,0.039,0.022,0.059,0.033
	c-0.135-0.048-0.269-0.096-0.401-0.147c0.038,0.022,0.076,0.044,0.114,0.066c0.37,0.195,0.743,0.386,1.126,0.559
	c0.126,0.072,0.249,0.144,0.372,0.214c0.249,0.089,0.502,0.177,0.759,0.26c0.201,0.079,0.405,0.155,0.609,0.23
	c-0.001,0.024-0.003,0.048-0.005,0.073c-0.295-0.087-0.582-0.179-0.867-0.272c0.046,0.028,0.091,0.055,0.136,0.083
	c-0.021-0.007-0.042-0.014-0.063-0.021c-0.097-0.042-0.19-0.087-0.286-0.131c0.07,0.024,0.143,0.046,0.213,0.069
	c-0.161-0.096-0.327-0.193-0.496-0.291c-0.175-0.063-0.352-0.124-0.522-0.189c-0.325-0.2-0.65-0.395-0.976-0.584
	c-0.064-0.034-0.132-0.064-0.196-0.1c0.027,0.011,0.055,0.022,0.082,0.033c-0.054-0.031-0.106-0.062-0.16-0.093
	c0.166,0.072,0.334,0.141,0.503,0.208c-0.066-0.038-0.133-0.077-0.2-0.115c0.497,0.173,1.004,0.331,1.519,0.477
	c0.093,0.051,0.184,0.103,0.275,0.155c0.116,0.032,0.233,0.065,0.35,0.095c-0.09-0.051-0.179-0.101-0.269-0.151
	c0.651,0.179,1.312,0.345,1.972,0.51c0,0-0.001,0.132-0.032,0.29c0.129,0.085,0.247,0.186,0.358,0.294
	c-0.138-0.036-0.272-0.075-0.408-0.112c-0.01,0.029-0.026,0.055-0.039,0.083C272.885,357.88,272.884,357.879,272.883,357.879z
	 M272.163,358.124c-0.007-0.039-0.013-0.072-0.02-0.107c0.059,0.031,0.12,0.063,0.178,0.093c-0.029,0.012-0.06,0.026-0.089,0.043
	C272.209,358.143,272.187,358.133,272.163,358.124z M271.783,358.012c-0.003,0.004-0.006,0.008-0.009,0.013
	C271.777,358.02,271.78,358.016,271.783,358.012L271.783,358.012z M271.854,357.982c-0.007-0.006-0.016-0.023-0.023-0.034
	c-0.005,0.006-0.009,0.011-0.013,0.017l-0.001,0c0.005-0.005,0.008-0.012,0.013-0.018c-0.007-0.009-0.014-0.017-0.021-0.029
	c-0.016,0.008-0.03,0.015-0.045,0.023c-0.006-0.003-0.012-0.005-0.017-0.008c-0.011,0.009-0.021,0.02-0.031,0.029
	c0.001,0,0.001,0.001,0.002,0.001c-0.003,0.001-0.006,0.003-0.009,0.004c-0.039,0.034-0.076,0.073-0.115,0.107
	c-0.015-0.009-0.03-0.018-0.045-0.026l0,0c-0.009-0.005-0.018-0.01-0.026-0.015c-0.13-0.077-0.261-0.153-0.394-0.229
	c0.001-0.001,0.002-0.003,0.004-0.004c-0.226-0.134-0.46-0.274-0.699-0.417c0.192,0.069,0.384,0.139,0.578,0.202
	c-0.077-0.039-0.152-0.082-0.229-0.122c-0.167-0.052-0.329-0.111-0.493-0.167c-0.139-0.083-0.28-0.169-0.422-0.255
	c-0.292-0.121-0.575-0.248-0.853-0.381c-0.169-0.09-0.338-0.18-0.507-0.271c0.435,0.228,0.877,0.438,1.321,0.629
	c-0.122-0.075-0.246-0.151-0.37-0.227c0.067,0.028,0.133,0.057,0.201,0.084c0.104,0.048,0.209,0.096,0.313,0.144
	c0.12,0.07,0.24,0.139,0.36,0.207c-0.082-0.032-0.163-0.061-0.245-0.094c0.101,0.04,0.197,0.083,0.3,0.123
	c0.13,0.072,0.262,0.14,0.394,0.209c0.125,0.039,0.253,0.072,0.38,0.109c-0.037-0.026-0.075-0.05-0.113-0.076
	c-0.109-0.038-0.22-0.083-0.329-0.124c0.082,0.029,0.165,0.058,0.248,0.087c0.025,0.011,0.051,0.022,0.076,0.033
	c-0.007-0.004-0.015-0.009-0.021-0.014c0.068,0.023,0.136,0.048,0.205,0.072c-0.106-0.048-0.213-0.098-0.318-0.147
	c-0.059-0.039-0.117-0.078-0.176-0.116c-0.019-0.01-0.039-0.021-0.059-0.031c0.009,0.003,0.018,0.005,0.025,0.008
	c0.012,0.007,0.022,0.015,0.033,0.022c0.184,0.095,0.365,0.188,0.544,0.281c-0.017-0.005-0.033-0.012-0.05-0.018
	c0.009,0.004,0.019,0.008,0.027,0.012c0.012,0.004,0.022,0.007,0.033,0.011c0.021,0.011,0.041,0.021,0.061,0.031
	c0.035,0.016,0.07,0.031,0.104,0.047c-0.01-0.002-0.02-0.005-0.029-0.008c0.104,0.054,0.208,0.107,0.31,0.16
	c0.056,0.016,0.11,0.031,0.165,0.046c0,0,0.001,0,0.001-0.001c0.001,0,0.002,0,0.002,0.001s0,0,0,0.001
	c0.002,0,0.003,0.001,0.005,0.001c0.004,0.003,0.009,0.006,0.013,0.008c-0.013,0.007-0.025,0.013-0.039,0.02
	c0.022,0.012,0.044,0.023,0.066,0.035c-0.018,0.057-0.043,0.086-0.074,0.075C271.868,357.988,271.861,357.985,271.854,357.982z
	 M262.87,349.411c0.005,0.31,0.057,0.608,0.142,0.9c-0.071-0.252-0.124-0.504-0.158-0.756
	C262.858,349.507,262.863,349.459,262.87,349.411z M262.953,348.937c0,0.114,0.003,0.229,0.01,0.346
	c-0.018-0.057-0.031-0.112-0.046-0.168C262.928,349.056,262.94,348.997,262.953,348.937z M264.001,346.336
	c0.002-0.004,0.004-0.007,0.006-0.011c0,0.002-0.001,0.004-0.001,0.006C264.004,346.333,264.002,346.334,264.001,346.336z
	 M278.007,343.325c-0.304-0.405-0.683-0.733-1.097-1.018c0.011,0.002,0.021,0.003,0.032,0.006
	C277.331,342.585,277.695,342.909,278.007,343.325z M274.191,349.502c0.099-0.003,0.197-0.006,0.295-0.013
	c0.194,0.023,0.388,0.048,0.582,0.075C274.773,349.552,274.48,349.529,274.191,349.502z M273.9,349.474
	c-0.41-0.042-0.809-0.086-1.184-0.116c0.486,0.018,0.972,0.042,1.458,0.092C274.083,349.457,273.993,349.471,273.9,349.474z
	 M273.529,349.469c0.088,0.014,0.176,0.028,0.263,0.043c-0.197-0.003-0.398-0.018-0.599-0.033c-0.058-0.008-0.115-0.015-0.173-0.022
	c-0.336-0.024-0.675-0.064-1.014-0.132c0.409,0.082,0.809,0.127,1.201,0.157c1.146,0.159,2.293,0.356,3.44,0.577
	c-1.528-0.208-3.083-0.422-4.642-0.734c1.866,0.373,3.593,0.607,5.284,0.857c1.858,0.37,3.72,0.78,5.588,1.152
	c0.065,0.017,0.131,0.035,0.195,0.052c-3.73-0.687-7.633-1.374-11.067-2.061c0.338,0.038,0.676,0.087,1.014,0.132
	C273.191,349.469,273.36,349.468,273.529,349.469z M283.469,351.458c-0.029-0.009-0.059-0.017-0.088-0.025
	c0.292,0.057,0.583,0.111,0.875,0.165c0.016,0.005,0.032,0.009,0.048,0.015C284.027,351.562,283.748,351.51,283.469,351.458z
	 M269.465,342.206c-0.046,0.007-0.093,0.011-0.14,0.017c0.06-0.03,0.118-0.063,0.178-0.093c-0.241,0.048-0.482,0.098-0.719,0.158
	c-0.019,0.001-0.037,0.003-0.056,0.004c0.014-0.007,0.027-0.013,0.041-0.02c0.217-0.081,0.437-0.157,0.658-0.226
	c-0.09,0.017-0.18,0.033-0.27,0.052c0.306-0.139,0.616-0.263,0.93-0.373c0.252-0.065,0.504-0.123,0.757-0.171
	c-0.25,0.092-0.498,0.193-0.746,0.302c-0.226,0.057-0.448,0.121-0.671,0.189c0.125-0.023,0.251-0.041,0.378-0.061
	c-0.102,0.047-0.202,0.095-0.303,0.145c0.395-0.079,0.793-0.146,1.196-0.194c0.1-0.032,0.199-0.058,0.3-0.088
	c0.088-0.006,0.177-0.014,0.266-0.019c0.416-0.105,0.826-0.213,1.228-0.319c-0.023,0.001-0.047,0.001-0.069,0.002
	c0.04-0.006,0.079-0.009,0.119-0.015c-0.017,0.004-0.033,0.008-0.05,0.013c0.231-0.009,0.462-0.012,0.69-0.006
	c-0.28,0.093-0.565,0.194-0.856,0.302c-0.355-0.002-0.709,0.004-1.062,0.023c-0.105,0.026-0.209,0.054-0.314,0.079
	c-0.084,0.009-0.168,0.017-0.251,0.027c-0.084,0.027-0.168,0.055-0.252,0.083c0.013-0.002,0.025-0.004,0.038-0.006
	c-0.017,0.004-0.034,0.008-0.052,0.012c0.005-0.002,0.01-0.004,0.014-0.005C270.116,342.072,269.788,342.135,269.465,342.206z
	 M264.563,344.879c0.034-0.036,0.072-0.071,0.107-0.106c-0.077,0.117-0.143,0.239-0.209,0.362c-0.032,0.038-0.062,0.078-0.093,0.117
	C264.428,345.124,264.494,345,264.563,344.879z M275.852,341.983c0.077,0.009,0.156,0.017,0.233,0.026
	c0.106,0.048,0.208,0.107,0.313,0.16c-0.063-0.014-0.125-0.027-0.188-0.041C276.092,342.078,275.974,342.028,275.852,341.983z
	 M272.29,341.82c0.095-0.003,0.189-0.006,0.285-0.008c0.047,0.001,0.095,0.002,0.142,0.003c-0.154,0.003-0.309,0.011-0.463,0.019
	C272.266,341.83,272.278,341.825,272.29,341.82z M275.128,341.527c0.045,0.009,0.087,0.027,0.133,0.038
	C275.216,341.552,275.172,341.54,275.128,341.527z M272.891,341.212c-0.076-0.001-0.151-0.01-0.228-0.01
	c0.322-0.006,0.639,0.007,0.95,0.031c-0.009,0.002-0.018,0.004-0.025,0.006C273.359,341.219,273.124,341.217,272.891,341.212z
	 M262.998,347.355c-0.003,0.005-0.006,0.011-0.009,0.016c0.008-0.024,0.016-0.049,0.024-0.074
	C263.008,347.317,263.003,347.336,262.998,347.355z M264.081,346.078c-0.018,0.067-0.045,0.128-0.06,0.196
	c-0.213,0.231-0.411,0.461-0.578,0.686c-0.084,0.114-0.154,0.226-0.227,0.338c0.061-0.185,0.128-0.366,0.208-0.544
	C263.611,346.529,263.835,346.304,264.081,346.078z M266.794,354.812c0.137,0.069,0.275,0.138,0.415,0.207
	c0.086,0.075,0.172,0.149,0.258,0.222C267.24,355.1,267.016,354.957,266.794,354.812z M271.357,357.597
	c0.067,0.022,0.135,0.044,0.202,0.066C271.492,357.641,271.425,357.619,271.357,357.597z M274.545,349.488
	c-0.007-0.001-0.014-0.002-0.02-0.003c1.269-0.099,2.363-0.496,3.16-1.14c0.819-0.526,1.405-1.195,1.644-1.925
	c-0.013,0.093-0.027,0.187-0.045,0.279C278.733,348.329,276.826,349.333,274.545,349.488z M278.307,342.749
	c0.542,0.758,0.894,1.472,1.047,2.124c0.014,0.107,0.025,0.214,0.032,0.324c-0.087-0.362-0.278-0.726-0.568-1.084
	c-0.136-0.456-0.354-0.94-0.627-1.44C278.229,342.698,278.271,342.72,278.307,342.749z M275.899,341.752
	c-0.064-0.024-0.135-0.037-0.2-0.059c-0.095-0.035-0.198-0.056-0.295-0.087c0.078,0.014,0.156,0.028,0.233,0.043
	c-0.517-0.187-1.074-0.312-1.659-0.38c0.082-0.022,0.164-0.042,0.245-0.062c0.633,0.082,1.236,0.251,1.797,0.512
	c-0.125-0.028-0.256-0.046-0.383-0.07C275.727,341.681,275.813,341.716,275.899,341.752z M264.172,344.784
	c-0.294,0.314-0.568,0.667-0.827,1.042C263.566,345.456,263.845,345.108,264.172,344.784z M262.812,348.02
	c0.022-0.107,0.054-0.213,0.083-0.32c-0.013,0.068-0.016,0.138-0.027,0.207c0.005-0.01,0.011-0.02,0.016-0.029c0,0,0,0,0,0.001
	c0.094-0.191,0.207-0.385,0.333-0.58c-0.044,0.135-0.081,0.271-0.115,0.41c-0.136,0.309-0.23,0.619-0.29,0.928
	c0.003,0.02,0.005,0.039,0.008,0.059c0.048-0.281,0.137-0.564,0.25-0.849c-0.051,0.238-0.087,0.481-0.105,0.729
	c-0.034,0.152-0.06,0.302-0.074,0.45c-0.028-0.111-0.052-0.221-0.072-0.33c-0.01,0.061-0.011,0.122-0.019,0.182
	c-0.001-0.065-0.002-0.131-0.001-0.196c0.003-0.015,0.008-0.03,0.011-0.045c-0.004-0.027-0.008-0.053-0.012-0.079
	c0.004-0.105,0.014-0.208,0.024-0.313c0.016-0.123,0.037-0.245,0.059-0.366c-0.004,0.009-0.011,0.019-0.015,0.029c0,0,0,0,0-0.001
	C262.85,347.944,262.828,347.983,262.812,348.02z M262.801,349.836c-0.004-0.032-0.011-0.063-0.014-0.096
	C262.792,349.772,262.795,349.804,262.801,349.836z M262.826,349.975c0.001,0.006,0.002,0.013,0.003,0.019
	c-0.001-0.003-0.003-0.007-0.003-0.011C262.826,349.98,262.826,349.978,262.826,349.975z M263.06,351.755
	c-0.038-0.065-0.07-0.131-0.104-0.197C262.989,351.625,263.024,351.69,263.06,351.755z M262.294,349.121
	c-0.001,1.192,0.409,2.274,1.108,3.237C262.661,351.468,262.234,350.432,262.294,349.121z M264.381,352.943
	c-0.004-0.005-0.007-0.01-0.01-0.015c-0.002-0.002-0.004-0.004-0.006-0.007c-0.122-0.195-0.243-0.389-0.358-0.596
	c-0.028-0.045-0.048-0.089-0.075-0.134c-0.018-0.023-0.04-0.046-0.057-0.069c-0.38-0.547-0.649-1.11-0.824-1.679
	c0.109,0.33,0.268,0.648,0.466,0.957c0.119,0.261,0.256,0.525,0.416,0.791c0.07,0.088,0.143,0.177,0.219,0.265
	c-0.075-0.154-0.141-0.313-0.204-0.475c0.003,0.004,0.007,0.008,0.01,0.012c-0.164-0.412-0.292-0.845-0.369-1.309
	c-0.001-0.002-0.002-0.003-0.003-0.005c-0.155-0.943-0.131-1.994,0.116-3.176c-0.247,1.184-0.27,2.236-0.112,3.181
	c0.021,0.035,0.048,0.071,0.069,0.106c-0.25-1.218-0.178-2.622,0.293-4.25c0.007-0.01,0.017-0.021,0.024-0.03
	c-0.383,1.899-0.331,3.496,0.058,4.852c0.598,0.892,1.237,1.687,1.909,2.41c-0.54-0.389-1.032-0.791-1.458-1.208
	c0.095,0.195,0.206,0.379,0.317,0.562c-0.129-0.12-0.257-0.24-0.373-0.361c-0.116-0.193-0.228-0.389-0.322-0.595
	c-0.053-0.059-0.1-0.119-0.149-0.178c0.066,0.167,0.136,0.33,0.215,0.489c-0.008-0.009-0.014-0.018-0.021-0.026
	c0.05,0.101,0.104,0.198,0.158,0.295c-0.102-0.142-0.204-0.278-0.303-0.426c0.116,0.209,0.24,0.406,0.364,0.603
	c0.021,0.023,0.044,0.046,0.064,0.069c0.004,0.003,0.007,0.007,0.011,0.011c0.001,0.001,0.001,0.002,0.002,0.003
	c-0.004-0.005-0.009-0.009-0.013-0.014C264.417,352.979,264.399,352.961,264.381,352.943z M264.995,353.769
	c0.014,0.01,0.028,0.019,0.041,0.027c0.023,0.028,0.051,0.053,0.074,0.08c-0.021-0.017-0.044-0.035-0.065-0.052
	C265.029,353.805,265.011,353.788,264.995,353.769z M265.81,354.6c0.04,0.027,0.078,0.056,0.119,0.082
	c0.05,0.05,0.102,0.097,0.151,0.146c-0.039-0.031-0.078-0.063-0.117-0.094C265.911,354.69,265.859,354.646,265.81,354.6z
	 M267.231,355.655c0.062,0.034,0.121,0.069,0.183,0.103c0.034,0.023,0.067,0.048,0.104,0.071c-0.058-0.035-0.116-0.067-0.173-0.103
	c-0.024-0.014-0.048-0.028-0.071-0.042C267.259,355.674,267.246,355.664,267.231,355.655z M267.544,355.846
	c0.103,0.06,0.203,0.123,0.31,0.181c0.042,0.024,0.083,0.05,0.125,0.074c-0.114-0.063-0.228-0.127-0.341-0.19
	C267.605,355.89,267.575,355.867,267.544,355.846z M268.767,356.676c0.05,0.031,0.099,0.063,0.147,0.094
	c-0.406-0.176-0.804-0.363-1.186-0.567c-0.253-0.178-0.502-0.369-0.747-0.568C267.555,356.032,268.152,356.374,268.767,356.676z
	 M272.061,358.281c-0.001,0-0.003-0.001-0.004-0.001c0.014-0.012,0.025-0.024,0.037-0.036c0.002,0.001,0.005,0.003,0.007,0.005
	C272.087,358.259,272.074,358.269,272.061,358.281z M272.294,358.177c0.004-0.002,0.009-0.005,0.014-0.007
	c-0.002,0.003-0.006,0.007-0.008,0.01C272.298,358.178,272.296,358.178,272.294,358.177z M273.363,358.176
	c-0.193-0.049-0.384-0.1-0.573-0.151c0.026-0.03,0.052-0.06,0.071-0.095c0.059,0.016,0.119,0.031,0.178,0.046
	C273.148,358.042,273.257,358.109,273.363,358.176z M273.056,357.94c0.136,0.036,0.273,0.07,0.411,0.104
	c0.009,0.009,0.017,0.02,0.025,0.029C273.347,358.028,273.199,357.987,273.056,357.94z M287.206,360.807
	c-0.485-0.122-0.995-0.236-1.517-0.347c0.263,0.01,0.525,0.019,0.789,0.027c0.36,0.066,0.722,0.139,1.084,0.217
	c0.303,0.067,0.6,0.136,0.892,0.207c-0.162,0.017-0.324,0.04-0.486,0.073c-0.017,0.003-0.033,0.009-0.049,0.012
	C287.682,360.93,287.444,360.866,287.206,360.807z M280.551,363.11c-0.022,0.007-0.045,0.015-0.067,0.022
	C280.506,363.125,280.528,363.118,280.551,363.11z M279.761,363.4c-0.084,0.033-0.171,0.065-0.252,0.1
	C279.59,363.466,279.677,363.434,279.761,363.4z M278.942,363.767c-0.081,0.041-0.168,0.079-0.246,0.122
	C278.774,363.846,278.861,363.808,278.942,363.767z M280.308,363.259c-0.635,0.239-1.233,0.499-1.782,0.786
	c-0.03,0.005-0.06,0.012-0.09,0.021C278.974,363.742,279.605,363.478,280.308,363.259z M286.397,361.375
	c0.042-0.003,0.104-0.006,0.158-0.009c-0.233,0.07-0.456,0.132-0.668,0.184c-0.086,0.02-0.17,0.034-0.259,0.061
	c0.099-0.049,0.199-0.096,0.297-0.145C286.1,361.377,286.238,361.395,286.397,361.375z M274.823,358.958
	c-0.016-0.005-0.03-0.009-0.045-0.014c0.241,0.045,0.483,0.089,0.729,0.13C275.277,359.039,275.05,358.999,274.823,358.958z
	 M273.988,358.8c0.001,0,0.003,0.001,0.004,0.001C273.991,358.801,273.989,358.801,273.988,358.8L273.988,358.8z M273.99,358.83
	c0.035,0.027,0.069,0.054,0.104,0.08c-0.033-0.006-0.065-0.014-0.099-0.021C273.994,358.869,273.992,358.849,273.99,358.83z
	 M269.985,361.385c0.199-0.408,0.424-0.806,0.673-1.192c-1.144,2.867-1.386,5.122-0.923,6.881
	C269.126,365.465,269.126,363.568,269.985,361.385z M271.36,358.622c-0.002,0.003-0.003,0.006-0.005,0.009
	c-0.021,0.013-0.042,0.028-0.063,0.042c0.006-0.01,0.013-0.02,0.02-0.029C271.327,358.636,271.345,358.63,271.36,358.622z
	 M269.562,367.418c-0.289-0.718-0.473-1.435-0.568-2.14c0-0.011,0-0.022,0-0.034c-0.006-0.028-0.008-0.057-0.014-0.085
	c-0.021-0.175-0.04-0.349-0.051-0.522c0.003-0.034,0.009-0.067,0.013-0.101c0.021,0.133,0.035,0.264,0.063,0.397
	c0.014-0.187,0.035-0.371,0.06-0.555c0.038,0.557,0.122,1.126,0.261,1.7c0.121,0.359,0.265,0.716,0.426,1.07
	c0.076,0.275,0.177,0.534,0.286,0.786c-0.126-0.221-0.238-0.445-0.346-0.671c0.128,0.346,0.275,0.689,0.442,1.029
	C269.933,368.01,269.737,367.725,269.562,367.418z M271.377,369.745c-0.04-0.039-0.084-0.073-0.124-0.112
	c0.035,0.034,0.074,0.062,0.109,0.095C271.367,369.733,271.372,369.739,271.377,369.745z M269.987,367.655
	c0.124,0.24,0.258,0.475,0.398,0.706C270.239,368.133,270.106,367.898,269.987,367.655z M288,364.327
	c0.102,0.016,0.205,0.036,0.31,0.059c0.505,0.299,0.947,0.715,1.375,0.873c-0.289-0.061-0.579-0.109-0.868-0.144
	C288.537,364.853,288.264,364.528,288,364.327z M287.919,365.042c-1.142-0.048-2.282,0.045-3.424,0.125
	c-0.428-0.044-0.855-0.092-1.283-0.142C284.786,364.938,286.384,364.789,287.919,365.042z M286.396,364.336
	c0.16-0.096,0.314-0.161,0.463-0.204c0.112,0.037,0.225,0.075,0.335,0.1c0.036,0.004,0.074,0.008,0.111,0.012
	c-0.042,0.033-0.085,0.067-0.126,0.12C286.909,364.345,286.665,364.398,286.396,364.336z M287.544,365.417
	c0.514-0.031,1.027-0.058,1.541-0.075c-0.006-0.004-0.012-0.008-0.019-0.012c0.013,0.004,0.024,0.008,0.037,0.012
	c0.301-0.01,0.603-0.017,0.903-0.017c-0.099,0.099-0.198,0.149-0.297,0.178c-0.055-0.001-0.109-0.003-0.164-0.005
	c0.02,0.008,0.039,0.02,0.06,0.028c-0.076,0.006-0.152-0.008-0.228-0.033C288.765,365.478,288.153,365.453,287.544,365.417z
	 M289.692,379.322c0.145,0.001,0.286,0.001,0.425,0.002C289.975,379.323,289.833,379.323,289.692,379.322z M285.538,379.574
	c-2.398,0.002-4.482-0.232-5.846-1.24c0.703,0.223,1.516,0.396,2.388,0.53C283.198,379.227,284.366,379.458,285.538,379.574z
	 M282.797,387.551c0.041,0.007,0.083,0.013,0.124,0.021c-0.217,0.086-0.421,0.2-0.601,0.358c-0.204,0.087-0.406,0.175-0.606,0.264
	c-0.738,0.33-1.43,0.681-2.057,1.057c0.469-0.307,1.008-0.596,1.607-0.872c0.316-0.146,0.648-0.288,0.992-0.429
	C282.445,387.775,282.624,387.649,282.797,387.551z M282.073,378.862c-0.951-0.168-1.837-0.398-2.599-0.713
	c-0.319-0.274-0.595-0.598-0.815-0.981c0.004,0.002,0.008,0.004,0.013,0.007C279.696,377.91,280.852,378.465,282.073,378.862z
	 M276.968,375.516c0.031,0.079,0.065,0.157,0.109,0.233c0.05,0.055,0.095,0.115,0.146,0.169c-0.001,0.013-0.006,0.026-0.007,0.039
	c0.111,0.157,0.242,0.311,0.398,0.458c-0.128-0.034-0.256-0.058-0.384-0.071c-0.004-0.009-0.01-0.017-0.015-0.026
	c0.001,0.009,0.004,0.017,0.006,0.025c-0.072-0.007-0.144-0.019-0.215-0.019c0-0.286-0.082-0.572-0.176-0.859
	c0.052,0.062,0.105,0.122,0.158,0.183C276.98,375.605,276.975,375.561,276.968,375.516z M270.007,388.325
	c0.728-1.091,1.587-2.215,2.542-3.3c0.083-0.094,0.152-0.171,0.224-0.251c0.02,0.085,0.051,0.164,0.066,0.251
	c-0.245,0.271-0.487,0.545-0.729,0.82C271.389,386.67,270.688,387.506,270.007,388.325z M299.237,407.925c0,0.888,0,1.677,0,2.356
	c0,0.25,0,0.479-0.002,0.676c-6.229,1.367-15.229,4.367-18.229-1.633c2.333-0.583,5.007-1.166,6.433-2.543
	c0.204-0.197,0.371-0.18,0.534-0.229c-3.105-0.382-6.797-1.229-10.165-2.544c6.309,1.787,14.41,0.697,21.429,2.998
	C299.237,407.322,299.237,407.629,299.237,407.925z M299.237,389.365c0,2.668,0,5.267,0,7.706c0,0.225,0,0.448,0,0.67
	c-0.23-0.416-0.23,0.584-0.23,0.584c-6.217-0.777-14.848,0.859-18.856-2.126c1.479,0.439,3.246,0.53,4.856,0.127
	c-1.847,0-4.069-0.003-5.508-0.702c-0.721-0.744-1.219-1.71-1.434-2.96c0.285-2.104,1.9-3.431,3.941-4.338
	c0.321-0.143,0.653-0.275,0.991-0.399c0.129-0.103,0.257-0.185,0.386-0.252c-0.145-0.032-0.289-0.063-0.434-0.098
	c0.159,0.028,0.32,0.052,0.48,0.078c0.094-0.046,0.188-0.084,0.281-0.114c-0.116-0.03-0.231-0.059-0.348-0.089
	c-0.15,0.033-0.3,0.065-0.438,0.12c-0.038-0.009-0.075-0.019-0.113-0.028c0.113-0.063,0.225-0.115,0.334-0.149
	c-0.257-0.068-0.515-0.137-0.773-0.209c0.874,0.092,1.754,0.142,2.634,0.142c-0.337,0-0.669,0.009-0.994,0.033
	c0.108,0.023,0.217,0.057,0.326,0.096c0.679,0.007,1.357,0.315,2.035,0.604c4.43,0.502,8.996,0.604,12.895,0.745
	C299.242,388.908,299.237,389.122,299.237,389.365z M290.905,365.507c-0.007-0.029-0.012-0.063-0.02-0.09
	c-0.063,0.044-0.127,0.074-0.191,0.09c-0.092,0-0.185,0-0.276,0c-0.568-0.152-1.138-1.09-1.709-1.389
	c-0.23-0.001-0.449,0.009-0.648,0.02c-0.022,0.015-0.044,0.022-0.065,0.04c-0.046-0.005-0.093-0.005-0.139-0.009
	c0.139,0.05,0.273,0.113,0.403,0.187c-0.107-0.026-0.213-0.047-0.315-0.066c-0.09-0.062-0.18-0.11-0.267-0.132
	c-0.027-0.001-0.054-0.004-0.081-0.005c-0.036,0-0.075,0-0.106-0.002c-0.035,0.007-0.069,0.025-0.103,0.042
	c-0.034-0.006-0.07-0.012-0.103-0.019c-0.04-0.012-0.082-0.031-0.123-0.045c-0.07-0.003-0.141-0.005-0.211-0.011
	c-0.015-0.001-0.03-0.001-0.045-0.002c0.049-0.013,0.098-0.02,0.146-0.028c-0.195-0.074-0.393-0.157-0.597-0.237
	c-0.569-0.224-1.171-0.362-1.799-0.427c-0.053-0.005-0.108-0.003-0.161-0.007c0.622,0.114,1.224,0.273,1.787,0.5
	c0.172,0.069,0.339,0.134,0.504,0.192c-0.485-0.034-0.975-0.063-1.47-0.08c-1.3-0.325-2.73-0.422-4.208-0.312
	c-0.159,0.036-0.316,0.065-0.477,0.106c-0.09,0.023-0.18,0.055-0.27,0.079c0.019-0.002,0.038-0.005,0.057-0.007
	c1.45-0.154,2.871-0.11,4.182,0.123c-1.384-0.024-2.792,0.016-4.187,0.158c-0.069,0.007-0.139,0.017-0.208,0.025
	c-0.177,0.269-0.423,0.205-0.709,0.084c-0.059,0.008-0.117,0.013-0.176,0.021c0.035-0.015,0.077-0.032,0.113-0.047
	c-0.034-0.015-0.07-0.03-0.105-0.045c-0.072,0.022-0.138,0.041-0.199,0.055c-0.013,0.009-0.027,0.017-0.039,0.026
	c-0.03,0.011-0.181,0.017-0.359,0.021c-0.17,0.007-0.388,0.008-0.725,0.008c0.219-0.109,0.422-0.202,0.62-0.29
	c-0.028,0.001-0.057,0.002-0.086,0.006c0.905-0.461,1.951-0.827,3.049-1.135c0.434-0.104,0.874-0.204,1.322-0.297
	c-0.802,0.243-1.58,0.506-2.287,0.819c0.362-0.058,0.732-0.094,1.137-0.117c0.7-0.284,1.437-0.59,2.176-0.916
	c1.027-0.209,2.042-0.422,2.944-0.697c0.319-0.097,0.625-0.099,0.927-0.168c0.117-0.122,0.511-0.171,0.815-0.191
	c0.519-0.015,1.018-0.015,1.383-0.015c-0.284-0.284-0.653-0.396-1.05-0.422c-0.368-0.137-0.742-0.261-1.119-0.376
	c3.88,0.101,7.773,0.148,11.424,0.721c-0.013,0.187-0.024,0.369-0.024,0.62c0,0.75,0,1.538,0,2.356c0,0.226,0.043,0.217,0.083,0.266
	C296.474,365.203,293.676,365.484,290.905,365.507z M337.957,357.995c0.003,0.004,0.006,0.008,0.009,0.013
	C337.963,358.003,337.96,358,337.957,357.995L337.957,357.995z M339.449,357.28c-0.164,0.056-0.326,0.116-0.493,0.167
	c-0.076,0.04-0.151,0.083-0.229,0.122c0.194-0.063,0.386-0.133,0.578-0.202c-0.239,0.143-0.474,0.283-0.699,0.417
	c0.002,0.001,0.003,0.003,0.004,0.004c-0.133,0.076-0.264,0.152-0.394,0.229c-0.009,0.005-0.018,0.01-0.026,0.015l0,0
	c-0.015,0.009-0.03,0.018-0.045,0.026c-0.039-0.035-0.076-0.074-0.115-0.107c-0.003-0.001-0.006-0.003-0.009-0.004
	c0.001,0,0.001-0.001,0.002-0.001c-0.011-0.009-0.021-0.02-0.031-0.029c-0.005,0.002-0.011,0.005-0.017,0.008
	c-0.015-0.008-0.029-0.015-0.045-0.023c-0.007,0.013-0.014,0.021-0.021,0.029c0.005,0.006,0.008,0.012,0.013,0.018l-0.001,0
	c-0.004-0.006-0.008-0.011-0.013-0.017c-0.008,0.01-0.017,0.028-0.023,0.034c-0.007,0.003-0.014,0.006-0.02,0.009
	c-0.031,0.011-0.057-0.019-0.074-0.075c0.022-0.012,0.044-0.023,0.066-0.035c-0.014-0.006-0.026-0.013-0.039-0.02
	c0.004-0.002,0.009-0.005,0.013-0.008c0.002,0,0.003,0,0.005-0.001c0,0,0,0,0-0.001s0.001,0,0.002-0.001
	c0,0,0.001,0.001,0.001,0.001c0.055-0.015,0.109-0.03,0.165-0.046c0.102-0.053,0.205-0.106,0.31-0.16
	c-0.01,0.002-0.02,0.005-0.029,0.008c0.034-0.016,0.069-0.031,0.104-0.047c0.02-0.01,0.04-0.021,0.061-0.031
	c0.011-0.003,0.021-0.007,0.033-0.011c0.009-0.004,0.019-0.008,0.027-0.012c-0.017,0.006-0.033,0.012-0.05,0.018
	c0.179-0.092,0.36-0.186,0.544-0.281c0.011-0.007,0.021-0.015,0.033-0.022c0.008-0.002,0.017-0.005,0.024-0.008
	c-0.019,0.01-0.039,0.021-0.058,0.031c-0.059,0.038-0.117,0.077-0.176,0.116c-0.105,0.05-0.212,0.099-0.318,0.147
	c0.069-0.023,0.137-0.048,0.205-0.072c-0.007,0.004-0.015,0.009-0.021,0.014c0.025-0.011,0.051-0.022,0.076-0.033
	c0.083-0.029,0.166-0.058,0.248-0.087c-0.109,0.041-0.22,0.085-0.329,0.124c-0.038,0.025-0.076,0.05-0.113,0.076
	c0.127-0.037,0.255-0.07,0.38-0.109c0.132-0.069,0.264-0.137,0.394-0.209c0.103-0.039,0.199-0.083,0.3-0.123
	c-0.082,0.033-0.163,0.062-0.245,0.094c0.12-0.067,0.24-0.136,0.36-0.207c0.104-0.047,0.209-0.095,0.313-0.144
	c0.068-0.027,0.134-0.057,0.201-0.084c-0.124,0.076-0.248,0.152-0.37,0.227c0.444-0.19,0.886-0.401,1.32-0.628
	c-0.168,0.09-0.337,0.181-0.506,0.271c-0.277,0.133-0.561,0.26-0.853,0.381C339.729,357.111,339.588,357.196,339.449,357.28z
	 M337.508,358.136c-0.029-0.017-0.06-0.031-0.089-0.043c0.058-0.031,0.119-0.062,0.178-0.093c-0.007,0.035-0.013,0.068-0.02,0.107
	C337.554,358.117,337.531,358.126,337.508,358.136z M338.181,357.646c0.067-0.021,0.135-0.043,0.202-0.066
	C338.315,357.602,338.248,357.624,338.181,357.646z M342.273,355.224c0.086-0.073,0.173-0.147,0.258-0.222
	c0.14-0.068,0.278-0.137,0.415-0.207C342.725,354.94,342.5,355.083,342.273,355.224z M339.062,356.699
	c0.515-0.146,1.021-0.304,1.519-0.477c-0.067,0.038-0.134,0.077-0.2,0.115c0.169-0.066,0.337-0.136,0.503-0.208
	c-0.054,0.031-0.106,0.062-0.16,0.093c0.027-0.01,0.055-0.022,0.082-0.033c-0.064,0.035-0.132,0.065-0.196,0.099
	c-0.325,0.189-0.65,0.384-0.976,0.584c-0.171,0.065-0.348,0.127-0.522,0.189c-0.169,0.098-0.335,0.195-0.496,0.291
	c0.07-0.023,0.143-0.045,0.213-0.069c-0.096,0.044-0.189,0.088-0.286,0.131c-0.021,0.007-0.042,0.014-0.063,0.021
	c0.045-0.028,0.09-0.055,0.136-0.083c-0.285,0.094-0.572,0.186-0.867,0.272c-0.002-0.025-0.004-0.049-0.005-0.073
	c0.204-0.075,0.407-0.15,0.609-0.23c0.257-0.083,0.509-0.171,0.759-0.26c0.123-0.071,0.246-0.142,0.372-0.214
	c0.383-0.173,0.756-0.364,1.126-0.559c0.038-0.022,0.076-0.044,0.114-0.066c-0.133,0.051-0.267,0.1-0.401,0.147
	c0.02-0.011,0.039-0.022,0.059-0.033c-0.128,0.05-0.255,0.1-0.384,0.147c-0.4,0.136-0.804,0.26-1.21,0.371
	c-0.021,0.012-0.042,0.024-0.063,0.036c-0.111,0.031-0.224,0.058-0.336,0.086c0.017-0.009,0.033-0.018,0.05-0.027
	c-0.57,0.145-1.142,0.265-1.703,0.359c0,0,0.004,0.117,0.045,0.281c-0.004,0.003-0.008,0.006-0.013,0.009
	c0.012,0.059,0.027,0.121,0.05,0.183c0.008-0.002,0.016-0.005,0.023-0.007c0.011,0.027,0.018,0.053,0.03,0.081
	c0.095-0.057,0.191-0.113,0.288-0.17c0.161-0.045,0.325-0.089,0.484-0.137c0.002,0.007,0.001,0.015,0.002,0.022
	c-0.018,0.012-0.034,0.023-0.051,0.035c0.017-0.006,0.034-0.012,0.052-0.018c0.001,0.022,0.005,0.042,0.003,0.068
	c-0.07,0.021-0.141,0.04-0.211,0.061c-0.029,0.021-0.057,0.043-0.086,0.065c-0.15,0.043-0.299,0.087-0.451,0.128
	c-0.006-0.011-0.015-0.023-0.02-0.034c0.188-0.051,0.371-0.106,0.557-0.159c0.051-0.038,0.104-0.074,0.156-0.11
	c-0.24,0.086-0.479,0.173-0.722,0.253c-0.001-0.001-0.001-0.002-0.002-0.003c-0.004,0.003-0.008,0.005-0.012,0.008
	c-0.001,0-0.002,0-0.003,0.001c-0.013-0.028-0.029-0.054-0.039-0.083c-0.137,0.037-0.271,0.076-0.408,0.112
	c0.111-0.108,0.229-0.209,0.358-0.294c-0.031-0.158-0.032-0.29-0.032-0.29c0.66-0.165,1.32-0.332,1.972-0.51
	c-0.09,0.05-0.179,0.101-0.269,0.151c0.116-0.03,0.233-0.063,0.35-0.095C338.878,356.802,338.969,356.75,339.062,356.699z
	 M337.023,349.341c-0.375,0.03-0.773,0.074-1.184,0.116c-0.093-0.003-0.183-0.018-0.274-0.024
	C336.052,349.383,336.537,349.359,337.023,349.341z M335.549,349.486c-0.289,0.027-0.582,0.05-0.877,0.062
	c0.194-0.027,0.388-0.052,0.582-0.075C335.352,349.479,335.45,349.483,335.549,349.486z M336.532,349.465
	c0.393-0.029,0.792-0.075,1.201-0.157c-0.339,0.068-0.678,0.108-1.014,0.132c-0.058,0.008-0.115,0.015-0.173,0.022
	c-0.2,0.015-0.401,0.03-0.599,0.033c0.087-0.015,0.175-0.029,0.263-0.043c0.169-0.001,0.338,0,0.509-0.012
	c0.338-0.045,0.676-0.095,1.014-0.132c-3.435,0.687-7.337,1.374-11.067,2.061c0.064-0.017,0.13-0.035,0.195-0.052
	c1.868-0.372,3.729-0.782,5.588-1.152c1.691-0.25,3.418-0.484,5.284-0.857c-1.559,0.312-3.113,0.525-4.642,0.734
	C334.239,349.821,335.386,349.624,336.532,349.465z M332.798,342.296c0.011-0.002,0.021-0.004,0.032-0.006
	c-0.414,0.285-0.793,0.612-1.097,1.018C332.045,342.892,332.409,342.568,332.798,342.296z M339.307,342.008
	c-0.018-0.004-0.035-0.008-0.052-0.012c0.013,0.002,0.025,0.004,0.038,0.006c-0.084-0.029-0.168-0.056-0.252-0.083
	c-0.083-0.01-0.167-0.019-0.251-0.027c-0.105-0.025-0.209-0.053-0.314-0.079c-0.353-0.019-0.706-0.025-1.062-0.023
	c-0.291-0.108-0.576-0.209-0.856-0.302c0.229-0.006,0.459-0.003,0.69,0.006c-0.017-0.004-0.033-0.008-0.05-0.013
	c0.04,0.006,0.079,0.008,0.119,0.015c-0.022-0.001-0.046-0.001-0.069-0.002c0.401,0.106,0.812,0.214,1.228,0.319
	c0.089,0.005,0.178,0.013,0.266,0.019c0.101,0.03,0.2,0.056,0.3,0.088c0.403,0.048,0.802,0.116,1.196,0.194
	c-0.101-0.049-0.201-0.097-0.303-0.145c0.127,0.02,0.253,0.038,0.378,0.061c-0.223-0.069-0.445-0.133-0.671-0.189
	c-0.248-0.109-0.496-0.21-0.746-0.302c0.253,0.048,0.505,0.105,0.757,0.171c0.313,0.11,0.624,0.234,0.93,0.373
	c-0.09-0.019-0.18-0.035-0.27-0.052c0.222,0.069,0.441,0.145,0.658,0.226c0.014,0.007,0.027,0.013,0.041,0.02
	c-0.019-0.001-0.037-0.003-0.056-0.004c-0.236-0.061-0.478-0.11-0.719-0.158c0.06,0.03,0.118,0.063,0.178,0.093
	c-0.047-0.006-0.094-0.01-0.14-0.017c-0.323-0.071-0.651-0.134-0.982-0.187C339.297,342.004,339.302,342.006,339.307,342.008z
	 M333.655,341.993c0.077-0.01,0.156-0.017,0.233-0.026c-0.122,0.045-0.24,0.095-0.358,0.146c-0.063,0.014-0.125,0.026-0.188,0.041
	C333.447,342.1,333.549,342.041,333.655,341.993z M345.069,344.756c0.035,0.036,0.073,0.07,0.107,0.106
	c0.069,0.121,0.136,0.244,0.194,0.372c-0.031-0.039-0.061-0.079-0.093-0.117C345.212,344.996,345.146,344.874,345.069,344.756z
	 M345.719,346.258c-0.015-0.068-0.042-0.129-0.06-0.196c0.246,0.226,0.47,0.451,0.656,0.676c0.08,0.178,0.147,0.36,0.208,0.544
	c-0.073-0.112-0.143-0.224-0.227-0.338C346.13,346.719,345.932,346.489,345.719,346.258z M346.728,347.281
	c0.009,0.024,0.016,0.049,0.023,0.074c-0.003-0.005-0.006-0.011-0.009-0.016C346.737,347.32,346.732,347.3,346.728,347.281z
	 M337.077,341.186c-0.076,0-0.151,0.008-0.228,0.01c-0.233,0.005-0.469,0.007-0.697,0.027c-0.008-0.002-0.017-0.004-0.025-0.006
	C336.438,341.193,336.755,341.179,337.077,341.186z M334.479,341.549c0.046-0.011,0.088-0.029,0.133-0.038
	C334.568,341.523,334.524,341.536,334.479,341.549z M337.165,341.795c0.096,0.002,0.19,0.005,0.285,0.008
	c0.012,0.004,0.024,0.009,0.036,0.014c-0.154-0.008-0.309-0.015-0.463-0.019C337.07,341.797,337.118,341.796,337.165,341.795z
	 M326.359,351.417c-0.029,0.008-0.059,0.017-0.088,0.025c-0.279,0.051-0.559,0.103-0.835,0.154c0.016-0.005,0.032-0.009,0.048-0.015
	C325.776,351.528,326.067,351.473,326.359,351.417z M345.733,346.308c0.002,0.004,0.004,0.007,0.006,0.011
	c-0.001-0.001-0.003-0.003-0.004-0.005C345.734,346.313,345.734,346.31,345.733,346.308z M346.823,349.098
	c-0.015,0.056-0.029,0.112-0.046,0.168c0.007-0.116,0.01-0.231,0.01-0.346C346.8,348.98,346.813,349.039,346.823,349.098z
	 M346.887,349.538c-0.034,0.252-0.087,0.504-0.157,0.756c0.085-0.292,0.136-0.591,0.141-0.9
	C346.877,349.443,346.882,349.49,346.887,349.538z M347.446,349.104c0.06,1.311-0.367,2.346-1.107,3.236
	C347.037,351.378,347.447,350.296,347.446,349.104z M346.681,351.738c0.035-0.064,0.07-0.128,0.104-0.194
	C346.749,351.608,346.718,351.674,346.681,351.738z M346.911,349.977c0.001-0.006,0.002-0.012,0.004-0.019c0,0.003,0,0.005,0,0.007
	C346.914,349.97,346.912,349.974,346.911,349.977z M346.939,349.819c0.006-0.032,0.008-0.064,0.014-0.096
	C346.95,349.756,346.943,349.788,346.939,349.819z M346.872,347.891c-0.005-0.01-0.011-0.02-0.016-0.029
	c0.022,0.121,0.043,0.243,0.06,0.366c0.01,0.104,0.02,0.208,0.024,0.313c-0.004,0.026-0.008,0.052-0.012,0.079
	c0.003,0.015,0.008,0.03,0.011,0.045c0.001,0.065,0,0.131-0.001,0.196c-0.008-0.061-0.009-0.121-0.019-0.182
	c-0.02,0.109-0.044,0.219-0.072,0.33c-0.014-0.147-0.04-0.298-0.073-0.45c-0.018-0.248-0.054-0.491-0.104-0.729
	c0.113,0.284,0.202,0.567,0.25,0.849c0.003-0.02,0.005-0.039,0.009-0.059c-0.061-0.309-0.154-0.618-0.291-0.928
	c-0.033-0.138-0.07-0.275-0.114-0.409c0.127,0.195,0.239,0.389,0.333,0.58c0,0,0-0.001,0-0.001
	C346.861,347.871,346.867,347.88,346.872,347.891c-0.011-0.069-0.014-0.14-0.027-0.208c0.029,0.106,0.063,0.212,0.084,0.32
	C346.912,347.966,346.891,347.928,346.872,347.891C346.872,347.891,346.872,347.891,346.872,347.891z M346.396,345.81
	c-0.259-0.376-0.532-0.728-0.827-1.042C345.896,345.091,346.174,345.439,346.396,345.81z M335.517,341.191
	c0.081,0.019,0.163,0.04,0.245,0.062c-0.585,0.069-1.143,0.194-1.659,0.38c0.077-0.015,0.155-0.029,0.233-0.043
	c-0.097,0.031-0.2,0.052-0.295,0.087c-0.065,0.021-0.136,0.035-0.2,0.059c0.086-0.036,0.173-0.071,0.262-0.103
	c-0.127,0.024-0.258,0.042-0.383,0.07C334.28,341.442,334.884,341.272,335.517,341.191z M331.55,342.656
	c-0.272,0.5-0.491,0.984-0.627,1.44c-0.29,0.358-0.481,0.722-0.568,1.084c0.007-0.11,0.019-0.217,0.032-0.324
	c0.153-0.652,0.505-1.366,1.047-2.124C331.47,342.704,331.511,342.681,331.55,342.656z M330.411,346.404
	c0.238,0.729,0.824,1.398,1.644,1.925c0.797,0.644,1.892,1.041,3.16,1.14c-0.006,0.001-0.013,0.002-0.02,0.003
	c-2.281-0.155-4.188-1.159-4.739-2.788C330.438,346.59,330.424,346.497,330.411,346.404z M322.301,406.764
	c1.426,1.378,4.1,1.961,6.433,2.545c-3,6-12,3-18.229,1.632c-0.002-0.196-0.002-0.427-0.002-0.677c0-0.678,0-1.469,0-2.355
	c0-0.296,0-0.602,0-0.919c7.019-2.301,15.12-1.21,21.429-2.999c-3.368,1.316-7.06,2.162-10.165,2.545
	C321.93,406.586,322.097,406.567,322.301,406.764z M327.483,387.933c0.344,0.141,0.676,0.283,0.992,0.429
	c0.6,0.276,1.139,0.565,1.606,0.872c-0.626-0.376-1.317-0.727-2.056-1.057c-0.2-0.089-0.402-0.177-0.606-0.264
	c-0.18-0.159-0.384-0.272-0.601-0.358c0.041-0.007,0.083-0.013,0.124-0.021C327.116,387.632,327.295,387.758,327.483,387.933z
	 M339.733,388.308c-0.682-0.818-1.382-1.655-2.104-2.48c-0.241-0.275-0.483-0.548-0.729-0.82c0.016-0.087,0.047-0.166,0.066-0.251
	c0.071,0.08,0.141,0.157,0.224,0.251C338.146,386.093,339.006,387.217,339.733,388.308z M332.772,375.5
	c-0.007,0.044-0.013,0.089-0.021,0.132c0.053-0.061,0.106-0.121,0.158-0.183c-0.094,0.286-0.176,0.573-0.176,0.859
	c-0.071,0-0.143,0.012-0.215,0.019c0.002-0.009,0.005-0.017,0.006-0.025c-0.005,0.009-0.011,0.017-0.015,0.026
	c-0.128,0.014-0.256,0.037-0.384,0.071c0.156-0.147,0.287-0.301,0.398-0.458c-0.001-0.013-0.006-0.026-0.007-0.039
	c0.051-0.054,0.096-0.114,0.146-0.169C332.707,375.656,332.741,375.578,332.772,375.5z M331.068,377.158
	c0.005-0.002,0.009-0.004,0.013-0.007c-0.221,0.383-0.496,0.707-0.815,0.981c-0.762,0.314-1.647,0.544-2.599,0.713
	C328.889,378.449,330.044,377.894,331.068,377.158z M320.048,379.305c-0.141,0.001-0.282,0.001-0.425,0.002
	C319.762,379.307,319.903,379.306,320.048,379.305z M327.66,378.847c0.872-0.134,1.685-0.307,2.388-0.53
	c-1.364,1.008-3.447,1.243-5.846,1.24C325.374,379.441,326.542,379.21,327.66,378.847z M323.366,388.041
	c0.678-0.289,1.356-0.597,2.035-0.604c0.109-0.039,0.218-0.072,0.326-0.096c-0.325-0.023-0.657-0.033-0.994-0.033
	c0.88,0,1.76-0.049,2.634-0.142c-0.259,0.072-0.517,0.141-0.773,0.209c0.109,0.035,0.221,0.086,0.334,0.149
	c-0.038,0.009-0.075,0.02-0.113,0.028c-0.139-0.055-0.288-0.087-0.438-0.12c-0.116,0.03-0.231,0.06-0.348,0.089
	c0.094,0.03,0.188,0.068,0.281,0.114c0.16-0.026,0.321-0.051,0.48-0.078c-0.145,0.034-0.289,0.066-0.434,0.098
	c0.129,0.067,0.257,0.149,0.386,0.252c0.338,0.124,0.67,0.256,0.991,0.399c2.041,0.907,3.656,2.234,3.941,4.338
	c-0.215,1.25-0.713,2.216-1.434,2.96c-1.438,0.699-3.661,0.702-5.508,0.702c1.61,0.403,3.378,0.313,4.856-0.127
	c-4.009,2.986-12.64,1.35-18.856,2.127c0,0,0-1-0.23-0.585c0-0.222,0-0.444,0-0.669c0-2.44,0-5.039,0-7.707
	c0-0.243-0.005-0.457-0.031-0.563C314.37,388.645,318.937,388.542,323.366,388.041z M320.135,365.51
	c0.021-0.008,0.04-0.02,0.06-0.028c-0.055,0.001-0.109,0.004-0.164,0.005c-0.099-0.029-0.198-0.079-0.297-0.178
	c0.301,0,0.603,0.007,0.903,0.017c0.013-0.004,0.024-0.008,0.037-0.012c-0.007,0.004-0.013,0.008-0.019,0.012
	c0.514,0.017,1.027,0.044,1.541,0.075c-0.609,0.036-1.221,0.061-1.834,0.077C320.287,365.502,320.211,365.516,320.135,365.51z
	 M325.245,365.15c-1.142-0.08-2.282-0.172-3.424-0.125c1.535-0.253,3.133-0.104,4.707-0.018
	C326.101,365.058,325.673,365.105,325.245,365.15z M322.561,364.347c-0.041-0.052-0.084-0.087-0.126-0.12
	c0.037-0.004,0.075-0.008,0.111-0.012c0.11-0.025,0.223-0.063,0.335-0.1c0.148,0.043,0.303,0.108,0.463,0.204
	C323.075,364.382,322.831,364.328,322.561,364.347z M320.924,365.099c-0.289,0.035-0.579,0.083-0.868,0.144
	c0.428-0.158,0.87-0.574,1.375-0.873c0.104-0.023,0.208-0.043,0.31-0.059C321.477,364.511,321.203,364.836,320.924,365.099z
	 M330.649,364.279c-0.012-0.009-0.026-0.017-0.039-0.026c-0.062-0.014-0.127-0.032-0.199-0.055
	c-0.035,0.015-0.071,0.031-0.105,0.045c0.036,0.015,0.078,0.032,0.113,0.047c-0.059-0.008-0.117-0.013-0.176-0.021
	c-0.286,0.12-0.532,0.185-0.709-0.084c-0.069-0.008-0.139-0.018-0.208-0.025c-1.395-0.142-2.802-0.182-4.187-0.158
	c1.311-0.232,2.731-0.276,4.182-0.123c0.019,0.002,0.038,0.005,0.057,0.007c-0.09-0.024-0.18-0.056-0.27-0.079
	c-0.16-0.042-0.317-0.07-0.477-0.106c-1.478-0.11-2.908-0.014-4.208,0.312c-0.495,0.018-0.984,0.046-1.47,0.08
	c0.165-0.058,0.332-0.123,0.504-0.192c0.563-0.227,1.165-0.387,1.787-0.5c-0.053,0.004-0.108,0.002-0.161,0.007
	c-0.628,0.065-1.229,0.203-1.799,0.427c-0.204,0.08-0.401,0.163-0.597,0.237c0.048,0.008,0.097,0.015,0.146,0.028
	c-0.015,0.001-0.03,0.001-0.045,0.002c-0.07,0.005-0.141,0.007-0.211,0.011c-0.041,0.014-0.083,0.033-0.123,0.045
	c-0.032,0.007-0.068,0.012-0.103,0.019c-0.033-0.017-0.067-0.036-0.103-0.042c-0.031,0.002-0.07,0.002-0.106,0.002
	c-0.027,0.001-0.054,0.004-0.081,0.005c-0.087,0.022-0.177,0.07-0.267,0.132c-0.103,0.019-0.208,0.041-0.315,0.066
	c0.13-0.074,0.265-0.137,0.403-0.187c-0.046,0.003-0.093,0.004-0.139,0.009c-0.021-0.018-0.043-0.025-0.065-0.04
	c-0.199-0.011-0.418-0.021-0.648-0.02c-0.571,0.299-1.141,1.237-1.709,1.389c-0.092,0-0.185,0-0.276,0
	c-0.064-0.016-0.128-0.046-0.191-0.09c-0.008,0.028-0.013,0.061-0.02,0.09c-2.771-0.023-5.568-0.304-8.415-1.019
	c0.04-0.049,0.083-0.04,0.083-0.266c0-0.819,0-1.606,0-2.356c0-0.25-0.012-0.433-0.024-0.62c3.65-0.572,7.544-0.62,11.424-0.721
	c-0.377,0.115-0.751,0.239-1.119,0.376c-0.396,0.026-0.766,0.138-1.05,0.422c0.365,0,0.864,0,1.383,0.015
	c0.305,0.021,0.698,0.07,0.815,0.191c0.302,0.069,0.607,0.071,0.927,0.168c0.902,0.274,1.917,0.487,2.944,0.697
	c0.739,0.325,1.476,0.631,2.176,0.916c0.404,0.023,0.774,0.059,1.137,0.117c-0.707-0.313-1.485-0.577-2.287-0.819
	c0.448,0.093,0.889,0.192,1.322,0.297c1.098,0.308,2.144,0.673,3.049,1.135c-0.029-0.004-0.058-0.005-0.086-0.006
	c0.198,0.087,0.401,0.18,0.62,0.29c-0.337,0-0.555,0-0.725-0.008C330.83,364.296,330.68,364.29,330.649,364.279z M331.305,364.048
	c-0.03-0.008-0.06-0.016-0.09-0.021c-0.549-0.287-1.147-0.547-1.782-0.786C330.135,363.461,330.767,363.725,331.305,364.048z
	 M329.189,363.094c0.022,0.007,0.045,0.015,0.067,0.022C329.234,363.108,329.212,363.101,329.189,363.094z M329.98,363.384
	c0.084,0.033,0.17,0.065,0.251,0.1C330.15,363.449,330.063,363.417,329.98,363.384z M330.798,363.75
	c0.081,0.041,0.168,0.079,0.246,0.121C330.966,363.829,330.879,363.792,330.798,363.75z M340.005,367.057
	c0.463-1.759,0.221-4.014-0.923-6.881c0.249,0.387,0.474,0.785,0.673,1.192C340.614,363.552,340.614,365.448,340.005,367.057z
	 M339.753,367.639c-0.119,0.243-0.252,0.478-0.398,0.706C339.495,368.113,339.629,367.878,339.753,367.639z M338.363,369.728
	c0.005-0.005,0.01-0.012,0.015-0.017c0.035-0.034,0.074-0.062,0.109-0.095C338.447,369.655,338.403,369.689,338.363,369.728z
	 M339.607,368.274c0.167-0.34,0.314-0.683,0.442-1.029c-0.107,0.226-0.22,0.451-0.346,0.671c0.109-0.252,0.21-0.51,0.286-0.786
	c0.161-0.354,0.305-0.71,0.426-1.07c0.139-0.574,0.223-1.143,0.261-1.7c0.024,0.184,0.046,0.369,0.06,0.555
	c0.027-0.134,0.041-0.265,0.063-0.397c0.004,0.034,0.01,0.067,0.013,0.101c-0.011,0.173-0.029,0.347-0.051,0.522
	c-0.006,0.029-0.008,0.057-0.014,0.086c0,0.011,0,0.023,0.001,0.034c-0.097,0.705-0.28,1.421-0.569,2.139
	C340.003,367.708,339.808,367.994,339.607,368.274z M338.43,358.628c0.006,0.009,0.013,0.019,0.019,0.029
	c-0.021-0.014-0.042-0.029-0.063-0.042c-0.002-0.003-0.003-0.006-0.005-0.009C338.396,358.614,338.413,358.62,338.43,358.628z
	 M335.745,358.872c-0.033,0.006-0.065,0.014-0.099,0.021c0.034-0.026,0.068-0.053,0.104-0.08
	C335.748,358.832,335.746,358.852,335.745,358.872z M335.752,358.784c-0.001,0-0.003,0-0.004,0.001
	C335.749,358.784,335.751,358.784,335.752,358.784L335.752,358.784z M334.962,358.928c-0.015,0.005-0.029,0.009-0.045,0.014
	c-0.227,0.04-0.454,0.08-0.684,0.116C334.479,359.017,334.721,358.973,334.962,358.928z M323.814,361.449
	c0.098,0.049,0.198,0.096,0.297,0.145c-0.089-0.027-0.173-0.041-0.259-0.061c-0.212-0.052-0.435-0.114-0.668-0.184
	c0.054,0.003,0.116,0.006,0.158,0.009C323.502,361.378,323.641,361.36,323.814,361.449z M322.534,360.79
	c-0.238,0.059-0.476,0.123-0.713,0.189c-0.016-0.003-0.032-0.008-0.049-0.012c-0.162-0.034-0.324-0.057-0.486-0.073
	c0.292-0.071,0.589-0.14,0.892-0.207c0.362-0.078,0.724-0.15,1.084-0.217c0.264-0.008,0.526-0.018,0.789-0.027
	C323.529,360.554,323.02,360.668,322.534,360.79z M336.273,358.028c0.138-0.035,0.275-0.069,0.411-0.104
	c-0.144,0.047-0.291,0.088-0.437,0.133C336.257,358.047,336.265,358.037,336.273,358.028z M336.7,357.959
	c0.06-0.016,0.12-0.03,0.179-0.046c0.02,0.035,0.045,0.065,0.071,0.095c-0.189,0.052-0.38,0.103-0.573,0.151
	C336.483,358.092,336.592,358.026,336.7,357.959z M337.44,358.163c-0.002-0.003-0.006-0.007-0.008-0.01
	c0.005,0.002,0.01,0.005,0.014,0.007C337.444,358.161,337.442,358.162,337.44,358.163z M337.64,358.231
	c0.002-0.001,0.005-0.003,0.007-0.005c0.012,0.012,0.023,0.024,0.037,0.036c-0.001,0-0.003,0.001-0.004,0.001
	C337.666,358.252,337.653,358.242,337.64,358.231z M342.759,355.619c-0.245,0.2-0.494,0.391-0.747,0.569
	c-0.382,0.203-0.779,0.39-1.186,0.566c0.049-0.031,0.098-0.063,0.147-0.094C341.588,356.357,342.186,356.016,342.759,355.619z
	 M341.762,356.084c0.042-0.024,0.083-0.05,0.126-0.074c0.105-0.058,0.206-0.12,0.309-0.181c-0.032,0.021-0.062,0.044-0.094,0.064
	C341.989,355.958,341.876,356.021,341.762,356.084z M342.397,355.708c-0.058,0.036-0.117,0.068-0.175,0.104
	c0.035-0.023,0.068-0.048,0.104-0.071c0.062-0.034,0.121-0.069,0.182-0.103c-0.014,0.009-0.027,0.019-0.041,0.028
	C342.443,355.681,342.42,355.695,342.397,355.708z M343.778,354.718c-0.039,0.031-0.079,0.063-0.118,0.094
	c0.05-0.049,0.101-0.096,0.151-0.146c0.04-0.026,0.079-0.055,0.119-0.082C343.881,354.628,343.83,354.673,343.778,354.718z
	 M344.695,353.807c-0.021,0.018-0.044,0.035-0.065,0.052c0.023-0.027,0.051-0.052,0.074-0.08c0.013-0.009,0.027-0.018,0.041-0.027
	C344.729,353.771,344.711,353.789,344.695,353.807z M345.292,352.994c0.001,0,0.001-0.001,0.002-0.002
	c0.004-0.003,0.007-0.007,0.011-0.011c0.021-0.023,0.044-0.046,0.064-0.069c0.124-0.197,0.248-0.394,0.364-0.603
	c-0.099,0.148-0.201,0.285-0.303,0.426c0.055-0.097,0.109-0.195,0.158-0.295c-0.008,0.009-0.014,0.018-0.021,0.026
	c0.079-0.159,0.149-0.323,0.216-0.489c-0.05,0.059-0.097,0.119-0.149,0.178c-0.095,0.206-0.206,0.401-0.322,0.595
	c-0.116,0.121-0.244,0.241-0.373,0.361c0.111-0.183,0.223-0.367,0.317-0.562c-0.426,0.417-0.918,0.819-1.458,1.208
	c0.672-0.724,1.312-1.518,1.909-2.41c0.389-1.355,0.44-2.952,0.058-4.852c0.008,0.01,0.017,0.02,0.024,0.03
	c0.471,1.627,0.544,3.032,0.293,4.25c0.021-0.035,0.049-0.071,0.069-0.106c0.199-1.192,0.097-2.564-0.361-4.143c0,0,0,0,0,0
	c0.457,1.577,0.561,2.946,0.365,4.137c-0.001,0.002-0.003,0.003-0.004,0.005c-0.077,0.463-0.205,0.896-0.368,1.309
	c0.003-0.004,0.007-0.008,0.01-0.012c-0.063,0.162-0.129,0.321-0.204,0.475c0.076-0.088,0.149-0.176,0.219-0.265
	c0.16-0.266,0.297-0.53,0.416-0.791c0.198-0.309,0.356-0.627,0.466-0.957c-0.175,0.569-0.444,1.131-0.824,1.679
	c-0.018,0.023-0.039,0.046-0.058,0.069c-0.026,0.045-0.046,0.089-0.074,0.134c-0.115,0.207-0.236,0.401-0.358,0.596
	c-0.002,0.002-0.004,0.004-0.006,0.007c-0.003,0.005-0.006,0.01-0.01,0.015c-0.019,0.018-0.036,0.036-0.055,0.054
	C345.301,352.985,345.297,352.989,345.292,352.994z"/>
<path fill="none" stroke="#231F20" stroke-miterlimit="10" d="M318.811,354.441c2.02,0.646,1.02,2.646,2.02,4.646
	c2-1,2-3,4.356-3.014c0.215,0.009,0.429,0.014,0.644,0.014c-0.188-0.063-0.344-0.125-0.473-0.188s-0.229-0.125-0.308-0.188
	c-0.22,0.375-0.22-0.625-0.011-0.75c0.111-0.125,0.26-0.25,0.416-0.375c0.625-0.5,1.375-1,0.375-1.5c2,0,3-2,5.233-1.274
	c0.131-0.048,0.242-0.089,0.334-0.122c0.183-0.067,0.282-0.104,0.282-0.104"/>
<path fill="none" stroke="#231F20" stroke-miterlimit="10" d="M298.6,379.308c0.432,1.83,2.662,1.993,3.01,3.364
	c0.512-0.859,1.023-1.719,1.535-2.578c0.348,1.371,2.066,2.394,3.257,1.642"/>
<path fill="none" stroke="#231F20" stroke-miterlimit="10" d="M270.555,390.307c2.02,0.646,1.02,2.646,2.02,4.646
	c2-1,2-3,4.356-3.014c0.215,0.009,0.429,0.014,0.644,0.014c-0.188-0.063-0.344-0.125-0.473-0.188s-0.229-0.125-0.308-0.188
	c-0.22,0.375-0.22-0.625-0.011-0.75c0.111-0.125,0.26-0.25,0.416-0.375c0.625-0.5,1.375-1,0.375-1.5c2,0,3-2,5.233-1.274
	c0.131-0.048,0.242-0.089,0.334-0.122c0.183-0.067,0.282-0.104,0.282-0.104"/>
<path fill="none" stroke="#231F20" stroke-miterlimit="10" d="M312.884,412.184c-2.074,0.439-2.197-1.793-4.058-3.033
	c-1.241,1.86-0.249,3.597-2.288,4.777c-0.191,0.1-0.379,0.201-0.565,0.308c0.193-0.038,0.36-0.062,0.503-0.071
	c0.144-0.01,0.262-0.006,0.36,0.01c0.005-0.435,0.501,0.434,0.382,0.646c-0.035,0.163-0.102,0.346-0.176,0.531
	c-0.295,0.744-0.698,1.551,0.419,1.488c-1.737,0.992-1.613,3.225-3.912,3.703c-0.09,0.106-0.166,0.197-0.229,0.271
	c-0.126,0.148-0.194,0.23-0.194,0.23"/>
</svg>
