<?xml version="1.0" encoding="utf-8"?>
<!-- Generator: Adobe Illustrator 16.0.0, SVG Export Plug-In . SVG Version: 6.00 Build 0)  -->
<svg version="1.1" id="Layer_1" xmlns="http://www.w3.org/2000/svg" xmlns:xlink="http://www.w3.org/1999/xlink" x="0px" y="0px"
	 width="612px" height="792px" viewBox="0 0 612 792" enable-background="new 0 0 612 792" xml:space="preserve">
<rect id="body_frame" x="205" y="268.883" fill-opacity="0" fill="#BBBCBE" width="202" height="254.037"/>
<path id="PRIMARY_4_" fill="#F1F1F1" stroke="#231F20" stroke-width="1.3339" stroke-miterlimit="10" d="M318.659,289.544
	c0-1.854-2.668-3.472-6.64-4.361v-6.187c3.972-0.889,6.64-2.507,6.64-4.361c0-1.854-2.668-3.472-6.64-4.361v-1.392h-14.715v1.561
	c-3.57,0.917-5.914,2.452-5.914,4.192c0,1.741,2.344,3.275,5.914,4.192v6.525c-3.57,0.917-5.914,2.452-5.914,4.192
	s2.344,3.274,5.914,4.192v6.525c-3.57,0.917-5.914,2.452-5.914,4.192c0,1.74,2.344,3.274,5.914,4.191v6.525
	c-3.57,0.917-5.914,2.452-5.914,4.192c0,1.741,2.344,3.274,5.914,4.192v6.525c-3.57,0.918-5.914,2.453-5.914,4.192
	s2.344,3.274,5.914,4.192v6.525c-3.57,0.917-5.914,2.452-5.914,4.192c0,1.741,2.344,3.274,5.914,4.192v6.525
	c-3.57,0.917-5.914,2.452-5.914,4.191c0,1.74,2.344,3.275,5.914,4.192v6.525c-3.57,0.917-5.914,2.452-5.914,4.192
	c0,1.74,2.344,3.274,5.914,4.192v6.525c-3.57,0.917-5.914,2.452-5.914,4.192c0,1.741,2.344,3.274,5.914,4.192v6.524
	c-3.57,0.919-5.914,2.452-5.914,4.191c0,1.74,2.344,3.276,5.914,4.193v6.525c-3.57,0.917-5.914,2.451-5.914,4.191
	c0,1.739,2.344,3.274,5.914,4.191v6.525c-3.57,0.917-5.914,2.451-5.914,4.191s2.344,3.274,5.914,4.191v6.525
	c-3.57,0.917-5.914,2.452-5.914,4.192c0,1.739,2.344,3.273,5.914,4.191v6.526c-3.57,0.917-5.914,2.452-5.914,4.191
	s2.344,3.274,5.914,4.191v6.523c-3.57,0.919-5.914,2.453-5.914,4.193s2.344,3.274,5.914,4.192v6.525
	c-3.57,0.917-5.914,2.452-5.914,4.193c0,1.739,2.344,3.272,5.914,4.189v6.525c-3.57,0.917-5.914,2.452-5.914,4.191
	s2.344,3.274,5.914,4.191v6.358h14.715v-6.189c3.972-0.888,6.64-2.507,6.64-4.36s-2.668-3.472-6.64-4.36v-6.186
	c3.972-0.891,6.64-2.507,6.64-4.36c0-1.855-2.668-3.474-6.64-4.362v-6.188c3.972-0.89,6.64-2.507,6.64-4.361
	c0-1.855-2.668-3.472-6.64-4.361v-6.186c3.972-0.89,6.64-2.508,6.64-4.361s-2.668-3.473-6.64-4.362v-6.187
	c3.972-0.89,6.64-2.507,6.64-4.36c0-1.854-2.668-3.473-6.64-4.361v-6.188c3.972-0.889,6.64-2.507,6.64-4.36s-2.668-3.472-6.64-4.36
	v-6.188c3.972-0.889,6.64-2.507,6.64-4.36c0-1.855-2.668-3.472-6.64-4.362v-6.186c3.972-0.889,6.64-2.507,6.64-4.362
	c0-1.854-2.668-3.471-6.64-4.36v-6.187c3.972-0.89,6.64-2.507,6.64-4.361s-2.668-3.472-6.64-4.361v-6.187
	c3.972-0.889,6.64-2.507,6.64-4.361c0-1.854-2.668-3.472-6.64-4.361v-6.187c3.972-0.889,6.64-2.507,6.64-4.361
	c0-1.854-2.668-3.472-6.64-4.361v-6.187c3.972-0.889,6.64-2.507,6.64-4.361c0-1.854-2.668-3.472-6.64-4.361v-6.187
	c3.972-0.889,6.64-2.507,6.64-4.361s-2.668-3.472-6.64-4.361v-6.188c3.972-0.889,6.64-2.507,6.64-4.361s-2.668-3.472-6.64-4.361
	v-6.187c3.972-0.889,6.64-2.507,6.64-4.361c0-1.855-2.668-3.473-6.64-4.362v-6.187C315.991,293.017,318.659,291.398,318.659,289.544
	z"/>
<path id="SECONDARY_1_" fill="#F1F1F1" stroke="#231F20" stroke-width="1.3339" stroke-miterlimit="10" d="M392.254,318.992v-0.459
	c6.288-0.061,11.37-5.143,11.37-11.411c0-6.305-5.141-11.417-11.483-11.417c-5.926,0-10.801,4.465-11.415,10.197H229.323
	c-0.613-5.731-5.488-10.197-11.416-10.197c-6.342,0-11.482,5.111-11.482,11.417c0,6.268,5.081,11.35,11.371,11.411v0.459
	c-6.29,0.061-11.371,5.143-11.371,11.411c0,6.305,5.141,11.417,11.483,11.417c5.418,0,9.948-3.736,11.155-8.756h151.921
	c1.208,5.02,5.736,8.756,11.155,8.756c6.343,0,11.483-5.111,11.483-11.417C403.624,324.135,398.544,319.053,392.254,318.992z"/>
<path id="SECONDARY" fill="#F1F1F1" stroke="#231F20" stroke-width="1.3339" stroke-miterlimit="10" d="M361.204,331.64
	c0.008,0.04,0.008,0.081,0.016,0.121c-0.067-0.272-0.152-0.549-0.253-0.83c-0.011-0.027-0.025-0.056-0.035-0.083
	c0.132,0.369,0.241,0.73,0.312,1.082c0.021,0.132,0.04,0.264,0.054,0.398c0.02,0.101,0.033,0.197,0.049,0.295
	c0.058,0.628,0.016,1.226-0.107,1.8c-0.03,0.758-0.241,1.488-0.597,2.193c0.105-0.229,0.195-0.47,0.275-0.719
	c-0.159,0.422-0.376,0.833-0.641,1.235c0.116-0.274,0.218-0.556,0.29-0.849c-0.001,0.001-0.001,0.002-0.001,0.002
	c0.003-0.009,0.005-0.02,0.009-0.029c0.008-0.033,0.012-0.068,0.02-0.102c-0.021,0.04-0.043,0.079-0.064,0.119
	c0.004-0.014,0.006-0.029,0.009-0.043c0.023-0.042,0.043-0.084,0.065-0.126c0.066-0.307,0.109-0.624,0.127-0.954
	c0.008-0.059,0.014-0.118,0.021-0.177c0.012-0.06,0.023-0.121,0.032-0.182c-0.009,0.044-0.017,0.089-0.027,0.132
	c0.029-0.259,0.049-0.517,0.06-0.773c0.009-0.075,0.024-0.15,0.032-0.225c-0.001,0.29-0.019,0.579-0.064,0.866
	c0.15-0.657,0.242-1.333,0.229-2.042c-0.052-0.164-0.118-0.33-0.188-0.496c-0.004,0.074-0.005,0.147-0.013,0.221
	c-0.019-0.135-0.031-0.271-0.059-0.404c0.027,0.062,0.046,0.123,0.071,0.184c0,0,0-0.002,0-0.002
	c0.069,0.164,0.136,0.329,0.188,0.49c0,0.003-0.001,0.006-0.001,0.008c0.023,0.075,0.036,0.149,0.056,0.224
	c0-0.004,0.001-0.008,0.001-0.012c0.079,0.293,0.133,0.582,0.156,0.867c0.002-0.293-0.01-0.598-0.04-0.915
	c-0.04-0.229-0.095-0.459-0.175-0.69c-0.083-0.776-0.239-1.577-0.52-2.413c0.264,0.787,0.396,1.54,0.464,2.274
	c-0.037-0.095-0.08-0.189-0.123-0.285c-0.022-0.803-0.221-1.555-0.571-2.252c0.075,0.089,0.157,0.172,0.23,0.263
	c-0.119-0.197-0.268-0.379-0.4-0.569c-0.006-0.01-0.012-0.021-0.018-0.032c0.14,0.2,0.288,0.388,0.418,0.601
	c0.191,0.381,0.344,0.753,0.476,1.122c0.036,0.096,0.09,0.198,0.123,0.292c-0.369-1.362-1.135-2.573-2.19-3.5
	c-0.113-0.12-0.232-0.23-0.35-0.343c-0.781-0.909-1.749-1.671-2.889-2.222c0.093,0.057,0.175,0.122,0.267,0.181
	c-0.225-0.124-0.454-0.233-0.688-0.337c-0.034-0.02-0.063-0.043-0.1-0.063c0.176,0.072,0.354,0.139,0.521,0.22
	c-0.564-0.34-1.185-0.625-1.835-0.875c-1.6-0.692-3.392-1.111-5.163-1.237c-1.321-0.345-2.626-0.462-3.845-0.265
	c-1.783-0.207-3.311,0.092-4.394,1.708c0.522-0.208,1.074-0.382,1.639-0.541c-0.115,0.09-0.22,0.204-0.33,0.304
	c0.138-0.022,0.281-0.04,0.421-0.061c-0.131,0.085-0.245,0.197-0.371,0.292c-0.006,0.002-0.014,0.003-0.021,0.005
	c-0.115,0-0.216,0.024-0.324,0.034c0.096-0.097,0.196-0.181,0.295-0.271c-0.445,0.073-0.883,0.152-1.309,0.236
	c-2.676,0-2.676,5.32-1.338,7.98c0.24,0.239,0.495,0.436,0.755,0.614c0.18,0.258,0.369,0.503,0.583,0.716
	c0.692,0.344,1.385,0.506,2.077,0.563c-4.291,0.705-8.781,1.934-12.923,2.881c-5.84,0.909-11.742,1.158-17.762-0.729
	c-0.044-0.254-0.097-0.505-0.155-0.75c-0.94-3.936-3.604-6.773-6.743-6.773c-0.198,0-0.393,0.019-0.588,0.042
	c-0.091-0.005-0.181-0.02-0.274-0.02c-3.138,0-5.802,2.837-6.743,6.773c-0.059,0.246-0.111,0.496-0.155,0.75
	c-6.02,1.887-11.922,1.639-17.762,0.729c-4.141-0.948-8.631-2.177-12.923-2.882c0.692-0.057,1.385-0.218,2.077-0.563
	c0.214-0.212,0.404-0.458,0.583-0.715c0.26-0.179,0.515-0.375,0.755-0.615c1.337-2.66,1.337-7.98-1.338-7.98
	c-0.426-0.084-0.864-0.164-1.309-0.236c0.099,0.089,0.2,0.173,0.295,0.271c-0.108-0.011-0.209-0.035-0.324-0.035
	c-0.006-0.002-0.014-0.003-0.021-0.005c-0.125-0.095-0.24-0.207-0.371-0.292c0.14,0.021,0.284,0.039,0.421,0.061
	c-0.11-0.1-0.214-0.214-0.329-0.304c0.564,0.159,1.116,0.333,1.638,0.541c-1.083-1.616-2.61-1.914-4.394-1.708
	c-1.219-0.197-2.524-0.08-3.845,0.265c-1.771,0.126-3.564,0.545-5.163,1.237c-0.651,0.249-1.271,0.534-1.835,0.875
	c0.167-0.081,0.346-0.148,0.521-0.22c-0.035,0.021-0.065,0.043-0.099,0.064c-0.234,0.104-0.464,0.213-0.688,0.337
	c0.091-0.059,0.174-0.124,0.267-0.181c-1.139,0.551-2.107,1.313-2.889,2.222c-0.118,0.113-0.236,0.223-0.35,0.343
	c-1.055,0.927-1.821,2.137-2.19,3.499c0.032-0.095,0.087-0.196,0.124-0.292c0.132-0.368,0.283-0.74,0.475-1.121
	c0.129-0.214,0.278-0.401,0.418-0.602c-0.006,0.01-0.012,0.021-0.018,0.032c-0.133,0.19-0.281,0.372-0.4,0.57
	c0.073-0.091,0.156-0.173,0.23-0.263c-0.35,0.697-0.549,1.449-0.571,2.252c-0.043,0.095-0.086,0.189-0.123,0.284
	c0.068-0.734,0.2-1.487,0.464-2.273c-0.28,0.835-0.436,1.636-0.52,2.413c-0.08,0.23-0.134,0.46-0.175,0.689
	c-0.03,0.318-0.042,0.622-0.04,0.917c0.025-0.285,0.078-0.574,0.157-0.867c0,0.004,0,0.008,0,0.012
	c0.02-0.075,0.034-0.148,0.057-0.224c0-0.002-0.001-0.005-0.001-0.008c0.051-0.162,0.119-0.326,0.188-0.49c0,0,0,0.002,0,0.002
	c0.025-0.061,0.044-0.122,0.073-0.184c-0.028,0.134-0.041,0.27-0.06,0.404c-0.007-0.074-0.009-0.146-0.013-0.221
	c-0.069,0.167-0.136,0.333-0.187,0.496c-0.013,0.708,0.078,1.385,0.228,2.042c-0.045-0.287-0.063-0.575-0.063-0.865
	c0.007,0.075,0.022,0.15,0.033,0.225c0.01,0.257,0.03,0.515,0.058,0.773c-0.01-0.043-0.018-0.088-0.028-0.132
	c0.01,0.061,0.022,0.121,0.034,0.182c0.007,0.06,0.013,0.118,0.02,0.178c0.017,0.329,0.061,0.646,0.127,0.953
	c0.022,0.042,0.042,0.084,0.065,0.126c0.003,0.014,0.005,0.029,0.008,0.043c-0.021-0.04-0.042-0.079-0.064-0.119
	c0.007,0.033,0.011,0.069,0.02,0.102c0.003,0.01,0.005,0.02,0.009,0.03c0-0.001-0.001-0.002-0.001-0.003
	c0.073,0.294,0.174,0.575,0.289,0.849c-0.263-0.401-0.479-0.813-0.639-1.235c0.079,0.249,0.169,0.49,0.275,0.718
	c-0.356-0.705-0.566-1.435-0.597-2.193c-0.122-0.573-0.166-1.172-0.107-1.8c0.016-0.098,0.028-0.195,0.049-0.295
	c0.013-0.134,0.033-0.266,0.054-0.398c0.07-0.352,0.179-0.713,0.312-1.082c-0.011,0.027-0.025,0.056-0.035,0.083
	c-0.102,0.281-0.187,0.558-0.254,0.832c0.007-0.041,0.008-0.082,0.017-0.122c-1.025,3.475,0.385,6.12,2.899,8.244
	c0.661,0.699,1.424,1.337,2.263,1.919c-0.278-0.261-0.55-0.535-0.814-0.822c0.037,0.024,0.075,0.048,0.111,0.072
	c-0.004-0.003-0.007-0.006-0.009-0.009c0.037,0.025,0.073,0.049,0.11,0.074c0.112,0.075,0.226,0.15,0.341,0.223
	c-0.303-0.247-0.602-0.506-0.895-0.778c-0.044-0.051-0.087-0.106-0.132-0.159c0.064,0.047,0.125,0.094,0.191,0.141
	c-0.076-0.061-0.152-0.121-0.226-0.182c-0.035-0.042-0.069-0.083-0.104-0.125c0.117,0.097,0.236,0.192,0.356,0.284
	c-0.193-0.171-0.377-0.35-0.561-0.527c-0.076-0.095-0.15-0.19-0.223-0.288c-0.009-0.007-0.019-0.013-0.027-0.019
	c-0.017-0.024-0.034-0.049-0.051-0.073c-0.014-0.012-0.027-0.024-0.042-0.036c0.012,0.008,0.022,0.017,0.034,0.025
	c-0.074-0.102-0.146-0.208-0.219-0.313c0.009,0.01,0.02,0.021,0.029,0.029c-0.125-0.176-0.253-0.349-0.374-0.534
	c0.043,0.043,0.089,0.087,0.133,0.13c0.131,0.197,0.269,0.39,0.417,0.578c-0.062-0.057-0.118-0.116-0.176-0.174
	c0.072,0.102,0.144,0.205,0.217,0.303c-0.009-0.006-0.017-0.012-0.026-0.019c0.003,0.003,0.005,0.007,0.008,0.01
	c0.009,0.008,0.02,0.015,0.029,0.022c0.017,0.023,0.033,0.047,0.05,0.07c0.057,0.042,0.119,0.084,0.179,0.126
	c0.25,0.289,0.518,0.567,0.805,0.833c-0.066-0.048-0.134-0.095-0.2-0.144c0.076,0.066,0.151,0.131,0.229,0.196
	c-0.085-0.058-0.171-0.115-0.254-0.173c0.254,0.204,0.515,0.406,0.782,0.606c0.039,0.032,0.075,0.067,0.114,0.1
	c0.145,0.137,0.29,0.276,0.437,0.407c0.244,0.149,0.498,0.291,0.75,0.434c0.038,0.025,0.08,0.047,0.118,0.071
	c0.094,0.064,0.188,0.128,0.284,0.193c-0.373-0.214-0.741-0.43-1.098-0.652c-0.017-0.016-0.035-0.03-0.053-0.046
	c-0.17-0.103-0.331-0.211-0.497-0.317c0.016,0.013,0.03,0.027,0.046,0.039c-0.132-0.086-0.26-0.174-0.387-0.262
	c-0.034-0.022-0.068-0.043-0.101-0.065c0.322,0.337,0.657,0.655,1.003,0.955c-0.102-0.067-0.201-0.136-0.3-0.205
	c1.785,1.673,3.847,2.81,6.1,3.609c0.006-0.006,0.013-0.013,0.02-0.02c0.033,0.021,0.065,0.042,0.098,0.063
	c0.132,0.046,0.268,0.086,0.401,0.13c-0.038,0.019-0.076,0.039-0.114,0.058c0.062,0.041,0.124,0.081,0.186,0.121
	c-0.02,0.019-0.041,0.036-0.059,0.054c0.022-0.016,0.044-0.032,0.068-0.048v0c0.052-0.037,0.102-0.073,0.154-0.109
	c0.053,0.017,0.107,0.036,0.162,0.052c-0.045,0.059-0.09,0.115-0.136,0.175c0.004,0.003,0.008,0.005,0.012,0.008
	c0.041-0.063,0.09-0.118,0.132-0.18c0.135,0.042,0.27,0.083,0.405,0.122c0.055-0.021,0.106-0.051,0.162-0.069
	c0.002-0.001,0.005-0.002,0.008-0.003v0v0c0.041-0.017,0.072-0.028,0.107-0.042c-0.005-0.001-0.01-0.003-0.016-0.005
	c0.02-0.01,0.039-0.02,0.058-0.028c0.005,0.004,0.01,0.008,0.016,0.012c0.064-0.025,0.12-0.045,0.17-0.064
	c-0.03,0.041-0.063,0.083-0.1,0.127c-0.033-0.01-0.065-0.021-0.098-0.031c-0.013,0.018-0.034,0.04-0.048,0.059
	c0.034,0.009,0.069,0.017,0.104,0.027c-0.029,0.035-0.047,0.063-0.079,0.098c0.102,0.029,0.204,0.058,0.306,0.085
	c0.043-0.029,0.08-0.061,0.119-0.091c0.441,0.118,0.888,0.227,1.34,0.327c-0.016-0.016-0.032-0.03-0.047-0.046
	c-0.417-0.1-0.828-0.208-1.237-0.325c0.057-0.048,0.116-0.095,0.165-0.146c-0.104-0.042-0.21-0.08-0.315-0.123
	c0.051-0.017,0.099-0.034,0.145-0.048c0.072,0.003,0.14,0.001,0.199-0.017c0.008,0.001,0.014,0.002,0.022,0.003
	c0.027,0.011,0.054,0.021,0.081,0.032c0.005-0.006,0.012-0.013,0.016-0.02c0.087,0.011,0.172,0.022,0.251,0.033
	c-0.056-0.047-0.11-0.097-0.166-0.143c0.001-0.002,0.002-0.004,0.004-0.007c0.016,0.004,0.033,0.007,0.048,0.011
	c0.17,0.063,0.332,0.132,0.503,0.193c-0.104-0.059-0.209-0.112-0.313-0.151c0.224,0.051,0.448,0.102,0.674,0.149
	c0.064,0.04,0.123,0.081,0.187,0.122c0.1,0.03,0.183,0.068,0.251,0.109c-0.046-0.056-0.091-0.113-0.137-0.168
	c0.18,0.036,0.363,0.069,0.546,0.104c-0.189-0.044-0.381-0.086-0.569-0.131c-0.056-0.068-0.115-0.132-0.174-0.198
	c0.199,0.05,0.397,0.102,0.6,0.15c0.485,0.143,0.973,0.281,1.466,0.411c0.383,0.061,0.767,0.12,1.152,0.174
	c2.065,0.427,4.178,0.795,6.249,1.15c-2.046-0.301-4.119-0.62-6.14-1.007c1.915,0.458,3.87,0.84,5.827,1.192
	c1.167,0.117,2.334,0.235,3.498,0.368c0.249,0.044,0.49,0.089,0.734,0.134c-1.29-0.163-2.568-0.298-3.83-0.429
	c0.375,0.067,0.749,0.134,1.123,0.199c1.838,0.208,3.68,0.447,5.495,0.793c-0.422-0.016-0.844-0.033-1.266-0.051
	c1.407,0.253,2.792,0.521,4.144,0.819c0.07-0.016,0.141-0.036,0.21-0.05l0,0c-0.07,0.016-0.14,0.034-0.21,0.05l0,0
	c-0.048,0.011-0.096,0.023-0.144,0.035c-2.911-0.329-5.862-0.692-8.768-1.176c1.571,0.15,3.165,0.25,4.768,0.322
	c-1.395-0.252-2.809-0.495-4.229-0.742c-1.971-0.222-3.938-0.409-5.859-0.646c-0.28-0.067-0.563-0.129-0.841-0.199
	c1.811,0.257,3.675,0.447,5.577,0.646c-0.133-0.024-0.268-0.049-0.402-0.073c-1.773-0.179-3.538-0.357-5.262-0.594
	c-1.18-0.301-2.332-0.645-3.463-1.019c-0.026-0.022-0.062-0.043-0.093-0.063c0.012,0.015,0.023,0.029,0.035,0.044
	c-0.033-0.011-0.066-0.022-0.099-0.033c-0.063-0.041-0.124-0.081-0.187-0.121c-0.138-0.043-0.319-0.08-0.534-0.114
	c-0.004-0.001-0.009-0.003-0.013-0.005c0.001,0.001,0.004,0.003,0.006,0.004c-0.119-0.019-0.249-0.039-0.396-0.058
	c0.066,0.056,0.132,0.112,0.197,0.169c-0.154-0.061-0.309-0.121-0.464-0.183c-0.041,0.051-0.082,0.103-0.132,0.153
	c0.325,0.13,0.649,0.26,0.979,0.378c0.031,0.03,0.063,0.062,0.094,0.092c0.214,0.052,0.427,0.105,0.643,0.152
	c0.027,0.009,0.055,0.019,0.083,0.028c0.006,0.005,0.013,0.011,0.021,0.016c-0.235-0.047-0.468-0.099-0.7-0.151
	c0.051,0.051,0.104,0.102,0.155,0.153c-0.546-0.117-1.084-0.246-1.615-0.389c-0.158,0.106-0.334,0.204-0.553,0.281
	c-0.017-0.012-0.036-0.025-0.053-0.036c0.104-0.113,0.213-0.229,0.3-0.33c-0.035-0.01-0.072-0.02-0.108-0.03
	c0.026-0.031,0.058-0.066,0.083-0.095c-0.03-0.009-0.06-0.019-0.089-0.026l0,0c-0.032,0.029-0.069,0.061-0.104,0.091
	c-0.02-0.005-0.041-0.011-0.06-0.017c0.055-0.02,0.1-0.053,0.156-0.071c-0.058,0.019-0.101,0.05-0.157,0.071
	c-0.003-0.001-0.004-0.001-0.005-0.001c-0.129,0.049-0.256,0.104-0.38,0.164c-0.052-0.035-0.103-0.07-0.157-0.106
	c-0.03,0.046-0.068,0.085-0.097,0.132c-0.025,0.041-0.041,0.086-0.065,0.128c-0.02,0.011-0.043,0.019-0.064,0.029
	c0.041-0.056,0.076-0.116,0.118-0.171c0.033-0.043,0.064-0.083,0.097-0.125c-0.059-0.04-0.12-0.079-0.18-0.119
	c-0.025,0.018-0.048,0.036-0.073,0.053c0.001-0.002,0.002-0.003,0.005-0.005c-0.224,0.159-0.452,0.318-0.665,0.476
	c-0.195,0.144-0.373,0.286-0.559,0.428c0.265-0.332,0.543-0.653,0.845-0.952c0.083-0.041,0.168-0.085,0.252-0.127
	c-0.097-0.063-0.19-0.125-0.287-0.188c-0.04-0.014-0.079-0.029-0.118-0.043c-0.137,0.146-0.285,0.284-0.414,0.436
	c-0.55,0.643-1.024,1.335-1.415,2.07c-1.462,2.083-1.74,5.171-0.807,8.113c-0.001-0.027-0.001-0.054-0.003-0.081
	c-0.257-0.905-0.395-1.807-0.397-2.691c0.005,0.054,0.017,0.108,0.022,0.162c0-0.042,0.005-0.084,0.005-0.127
	c0.008,0.138,0.023,0.28,0.037,0.421c0.013,0.098,0.025,0.194,0.041,0.292c0.008,0.083,0.006,0.159,0.017,0.242
	c0.059,0.433,0.147,0.877,0.259,1.33c-0.005-0.104-0.013-0.208-0.015-0.313c0.042,0.16,0.08,0.318,0.125,0.476
	c0-0.035-0.004-0.07-0.005-0.104c0.009,0.056,0.017,0.111,0.026,0.167c0.209,0.709,0.456,1.393,0.716,2.006
	c-0.162-0.284-0.308-0.584-0.452-0.885c0.001,0.006,0.005,0.013,0.007,0.02c0.162,0.337,0.321,0.677,0.5,0.989
	c0.104,0.241,0.209,0.469,0.313,0.686c0.001,0.002,0.002,0.003,0.002,0.005c-0.102-0.213-0.198-0.426-0.289-0.64
	c0.232,0.398,0.489,0.76,0.749,1.118c0.056,0.112,0.103,0.225,0.162,0.336c-0.007,0.003-0.017,0.009-0.025,0.013
	c0.213,0.244,0.427,0.482,0.643,0.71c0.329,0.43,0.707,0.824,1.122,1.192c-0.149-0.158-0.285-0.325-0.424-0.488
	c0.103,0.101,0.209,0.199,0.313,0.297c0.162,0.186,0.331,0.361,0.5,0.538c0.207,0.164,0.432,0.314,0.657,0.466
	c1.014,0.815,2.055,1.494,3.125,2.044c1.802,0.774,3.603,1.222,5.405,1.462c-0.921-0.203-1.825-0.451-2.702-0.742
	c-1.687-0.51-3.28-1.196-4.717-2.093c0.346,0.185,0.701,0.362,1.075,0.525c-0.238-0.13-0.468-0.265-0.695-0.402
	c0.63,0.342,1.286,0.644,1.966,0.906c2.366,0.833,5.15,1.336,8.123,1.642c2.657,0.204,5.384,0.212,8.007,0.212
	c0.442,0,0.879,0,1.338,0c-0.363,0.09-0.735,0.17-1.116,0.241c6.079,0.141,12.05,0.026,16.139,0.707c0,0.362,0,0.724,0,1.088
	c0,1.821,0,3.675,0,5.544c0,0.327-0.002,0.646-0.014,0.941c-0.294-0.542-0.294,0.788-0.294,0.788
	c-3.403-1.269-7.482-1.327-11.464-1.201c0.255-0.042,0.514-0.08,0.762-0.129c-1.338,0-2.675,0-4.118-0.637
	c-0.476-0.182-0.946-0.337-1.411-0.463c-1.395-0.381-2.742-0.517-4.044-0.448h-0.001c1.525-0.054,3.022,0.215,4.451,0.911
	c0.375,0.184,0.729,0.323,1.07,0.397c0.959,0.167,1.257,0.216,1.795,0.232c-0.119,0-0.239-0.001-0.356-0.002
	c0.129,0.001,0.258,0.002,0.385,0.004c0.231,0.006,0.501,0.006,0.892,0.006c-3.006,0-7.09-0.002-10.557-0.605
	c2.815,0.425,6.072,0.552,8.805,0.589c-3.226-0.048-6.215-0.255-8.967-1.105c-0.756-0.015-1.523-0.363-2.299-0.822
	c0.167,0.053,0.333,0.105,0.503,0.149c-0.457-0.2-0.907-0.426-1.35-0.674c-0.375-0.24-0.751-0.48-1.128-0.7
	c-0.167-0.113-0.336-0.221-0.5-0.343c-0.356-0.854-0.559-1.881-0.559-3.14c-0.542,0.674-0.856,1.277-0.99,1.821
	c-0.14-0.134-0.28-0.268-0.419-0.409c-0.046-0.435-0.031-0.901,0.072-1.412c-0.23,0.458-0.25,0.914-0.128,1.357
	c-0.08-0.083-0.161-0.158-0.24-0.244c-0.157-0.482-0.288-0.964-0.196-1.446c0.004-0.018,0.016-0.036,0.02-0.054
	c-0.272,0.124-0.552,0.242-0.793,0.386c0.258-0.17,0.543-0.308,0.818-0.457c0.08-0.291,0.228-0.582,0.52-0.873
	c0.027,0,0.052,0,0.08,0c-3.701-0.836-6.967-2.681-9.22-6.207c-0.064,0.036-0.145,0.082-0.26,0.147
	c-0.146,0.083-0.286,0.163-0.431,0.245c-0.013-0.032-0.024-0.064-0.038-0.096c-0.068,0.074-0.124,0.151-0.189,0.226
	c-0.023,0.014-0.048,0.028-0.072,0.041c0.085-0.1,0.159-0.204,0.247-0.303c-0.056-0.147-0.121-0.293-0.172-0.44
	c-0.163,0.161-0.334,0.314-0.49,0.482c-0.406,0.438-0.775,0.911-1.125,1.401c-0.639,0.656-1.068,1.413-1.308,2.256
	c-0.139,0.301-0.278,0.601-0.398,0.918c-1.024,3.057-0.278,5.331,1.089,7.327c-0.465-1.229-0.704-2.561-0.675-4.004
	c0.115,0.538,0.267,1.088,0.446,1.647c0.026,0.098,0.063,0.196,0.091,0.293c0.016,0.044,0.027,0.086,0.043,0.129
	c0.085,0.274,0.174,0.547,0.281,0.82c0.154,0.776,0.376,1.501,0.635,2.201c0.248,0.302,0.501,0.601,0.766,0.896c0,0,0,0,0,0
	c1.14,1.702,2.409,3.147,3.768,4.391c0.013,0.021,0.023,0.043,0.038,0.064c-1.47-1.039-2.738-2.204-3.737-3.507
	c1.072,1.943,2.585,3.548,4.429,4.876c-0.186,0.183-0.51,0.466-0.841,0.772c-2.521,2.324-4.292,5.139-4.818,8.3
	c-1.148,2.11-1.056,4.297-0.196,6.469c-0.26-1.237-0.259-2.549,0.055-3.939c0.077,1.657,0.483,3.389,1.304,5.184
	c1.185,2.828,2.753,4.936,4.607,6.533c-0.277-0.19-0.545-0.388-0.808-0.585c1.361,1.394,2.823,2.73,4.227,3.975
	c-0.35,0.271-0.691,0.551-1.021,0.842c-3.306,2.909-5.5,6.858-2.992,11.846c9.364,13.3,26.755,10.641,40.267,8.417
	c0.326,0.236,0.667,0.436,1.019,0.601c0.707,0.327,1.461,0.506,2.246,0.506c0.198,0,0.393-0.021,0.588-0.042
	c0.091,0.005,0.181,0.019,0.274,0.019c0.785,0,1.539-0.177,2.246-0.504c0.353-0.164,0.694-0.366,1.02-0.601
	c13.512,2.224,30.902,4.884,40.267-8.416c2.509-4.988,0.313-8.937-2.991-11.846c-0.331-0.291-0.672-0.572-1.021-0.842
	c1.402-1.246,2.864-2.582,4.226-3.978c-0.263,0.2-0.53,0.396-0.808,0.587c1.854-1.599,3.423-3.707,4.608-6.534
	c0.82-1.795,1.227-3.527,1.304-5.184c0.313,1.39,0.314,2.703,0.055,3.939c0.859-2.172,0.952-4.359-0.196-6.469
	c-0.526-3.162-2.296-5.976-4.817-8.3c-0.332-0.306-0.656-0.59-0.842-0.772c1.844-1.327,3.356-2.932,4.429-4.876
	c-0.999,1.303-2.268,2.469-3.737,3.507c0.015-0.021,0.024-0.043,0.038-0.064c1.358-1.244,2.627-2.689,3.768-4.391V373.7
	c0.264-0.294,0.517-0.593,0.766-0.896c0.258-0.699,0.48-1.425,0.635-2.201c0.106-0.273,0.195-0.546,0.28-0.82
	c0.016-0.043,0.027-0.086,0.044-0.129c0.028-0.098,0.064-0.195,0.091-0.293c0.179-0.559,0.331-1.11,0.445-1.647
	c0.029,1.443-0.21,2.775-0.675,4.003c1.367-1.996,2.113-4.27,1.089-7.326c-0.12-0.317-0.26-0.617-0.398-0.918
	c-0.238-0.843-0.669-1.601-1.308-2.256c-0.35-0.49-0.718-0.964-1.125-1.401c-0.155-0.168-0.326-0.321-0.489-0.482
	c-0.051,0.147-0.116,0.293-0.173,0.44c0.088,0.099,0.162,0.203,0.247,0.302c-0.023-0.013-0.048-0.027-0.071-0.041
	c-0.065-0.074-0.122-0.152-0.189-0.226c-0.014,0.032-0.025,0.064-0.038,0.096c-0.146-0.082-0.285-0.162-0.432-0.245
	c-0.114-0.066-0.195-0.112-0.26-0.147c-2.254,3.526-5.52,5.371-9.221,6.207c0.027,0,0.053,0,0.08,0
	c0.292,0.291,0.44,0.582,0.52,0.873c0.274,0.149,0.561,0.287,0.818,0.457c-0.242-0.144-0.521-0.262-0.793-0.386
	c0.004,0.018,0.016,0.036,0.02,0.054c0.091,0.482-0.039,0.964-0.196,1.446c-0.08,0.085-0.16,0.161-0.24,0.244
	c0.123-0.444,0.102-0.9-0.128-1.357c0.104,0.51,0.117,0.977,0.071,1.412c-0.14,0.142-0.279,0.275-0.419,0.409
	c-0.135-0.544-0.448-1.147-0.99-1.821c0,1.259-0.202,2.286-0.56,3.14c-0.164,0.122-0.333,0.229-0.5,0.343
	c-0.378,0.219-0.754,0.46-1.129,0.7c-0.442,0.248-0.892,0.474-1.35,0.674c0.17-0.045,0.336-0.097,0.503-0.149
	c-0.775,0.458-1.542,0.807-2.299,0.822c-2.753,0.85-5.741,1.057-8.967,1.105c2.732-0.037,5.989-0.164,8.805-0.589
	c-3.467,0.604-7.551,0.605-10.557,0.605c0.391,0,0.661-0.001,0.892-0.007c0.127-0.001,0.257-0.002,0.386-0.004
	c-0.117,0.001-0.237,0.002-0.356,0.003c0.538-0.016,0.836-0.065,1.795-0.232c0.341-0.074,0.695-0.214,1.07-0.397
	c1.429-0.696,2.926-0.965,4.45-0.911h-0.001c-1.303-0.069-2.649,0.067-4.045,0.448c-0.465,0.126-0.936,0.281-1.411,0.463
	c-1.441,0.637-2.779,0.637-4.117,0.637c0.248,0.049,0.507,0.087,0.762,0.129c-3.982-0.126-8.061-0.068-11.464,1.201
	c0,0,0-1.33-0.294-0.788c-0.012-0.295-0.015-0.615-0.015-0.941c0-1.87,0-3.724,0-5.544c0-0.364,0-0.727,0-1.088
	c4.09-0.681,10.061-0.566,16.14-0.707c-0.38-0.072-0.753-0.151-1.116-0.241c0.459,0,0.896,0,1.338,0c2.623,0,5.35-0.008,8.007-0.212
	c2.974-0.305,5.758-0.808,8.124-1.641c0.68-0.262,1.336-0.564,1.966-0.906c-0.228,0.137-0.457,0.272-0.695,0.402
	c0.374-0.164,0.729-0.34,1.075-0.525c-1.437,0.897-3.031,1.583-4.718,2.093c-0.876,0.291-1.78,0.538-2.701,0.742
	c1.802-0.241,3.604-0.688,5.404-1.462c1.07-0.55,2.111-1.229,3.125-2.044c0.225-0.152,0.451-0.302,0.657-0.466
	c0.17-0.177,0.339-0.352,0.5-0.538c0.104-0.098,0.211-0.195,0.313-0.297c-0.14,0.164-0.275,0.331-0.424,0.489
	c0.415-0.368,0.793-0.763,1.122-1.192c0.216-0.228,0.43-0.466,0.643-0.71c-0.008-0.004-0.019-0.01-0.024-0.013
	c0.059-0.111,0.105-0.224,0.161-0.335c0.261-0.358,0.517-0.72,0.749-1.119c-0.09,0.214-0.187,0.427-0.289,0.64
	c0-0.001,0.002-0.003,0.003-0.004c0.104-0.217,0.208-0.446,0.313-0.688c0.179-0.311,0.338-0.651,0.5-0.988
	c0.001-0.007,0.005-0.013,0.007-0.02c-0.144,0.301-0.29,0.601-0.451,0.885c0.261-0.615,0.506-1.297,0.715-2.005
	c0.009-0.056,0.017-0.112,0.026-0.168c-0.002,0.035-0.006,0.07-0.006,0.104c0.046-0.157,0.084-0.315,0.126-0.475
	c-0.001,0.104-0.009,0.208-0.015,0.312c0.111-0.452,0.2-0.896,0.259-1.33c0.011-0.083,0.009-0.16,0.017-0.242
	c0.016-0.097,0.027-0.194,0.041-0.292c0.013-0.141,0.028-0.283,0.036-0.422c0,0.042,0.006,0.084,0.006,0.127
	c0.005-0.054,0.017-0.107,0.021-0.161c-0.002,0.885-0.14,1.786-0.396,2.691c-0.002,0.027-0.002,0.054-0.003,0.081
	c0.933-2.942,0.654-6.029-0.808-8.113c-0.391-0.735-0.864-1.427-1.414-2.07c-0.13-0.151-0.277-0.29-0.415-0.436
	c-0.039,0.014-0.078,0.029-0.117,0.042c-0.097,0.063-0.19,0.125-0.287,0.188c0.083,0.042,0.17,0.086,0.252,0.126
	c0.302,0.3,0.58,0.621,0.846,0.952c-0.188-0.142-0.365-0.284-0.56-0.428c-0.213-0.158-0.441-0.317-0.665-0.476
	c0.003,0.002,0.004,0.003,0.005,0.005c-0.024-0.018-0.048-0.036-0.073-0.053c-0.06,0.04-0.121,0.079-0.18,0.119
	c0.032,0.043,0.063,0.082,0.097,0.125c0.042,0.055,0.077,0.115,0.117,0.171c-0.021-0.01-0.044-0.019-0.063-0.029
	c-0.025-0.042-0.041-0.087-0.065-0.128c-0.029-0.047-0.066-0.085-0.097-0.132c-0.054,0.036-0.104,0.071-0.157,0.106
	c-0.124-0.06-0.251-0.115-0.38-0.164c-0.001,0-0.003,0-0.005,0.001c-0.057-0.02-0.1-0.052-0.157-0.071
	c0.057,0.019,0.101,0.052,0.155,0.072c-0.02,0.006-0.04,0.011-0.06,0.017c-0.034-0.03-0.072-0.062-0.104-0.091l0,0
	c-0.028,0.008-0.059,0.017-0.089,0.026c0.025,0.029,0.057,0.064,0.082,0.096c-0.036,0.01-0.073,0.02-0.108,0.03
	c0.088,0.101,0.196,0.216,0.301,0.329c-0.017,0.012-0.036,0.024-0.054,0.037c-0.218-0.077-0.395-0.175-0.553-0.281
	c-0.53,0.143-1.068,0.272-1.614,0.389c0.051-0.052,0.104-0.102,0.155-0.153c-0.232,0.052-0.465,0.104-0.7,0.151
	c0.008-0.005,0.015-0.011,0.021-0.017c0.029-0.009,0.057-0.019,0.084-0.028c0.216-0.047,0.429-0.101,0.643-0.152
	c0.031-0.031,0.063-0.063,0.095-0.092c0.329-0.118,0.652-0.248,0.979-0.378c-0.05-0.05-0.092-0.102-0.133-0.153
	c-0.155,0.062-0.31,0.123-0.463,0.182c0.064-0.057,0.13-0.113,0.197-0.169c-0.146,0.02-0.277,0.04-0.396,0.059
	c0.003-0.001,0.006-0.003,0.007-0.004c-0.004,0.002-0.009,0.004-0.013,0.005c-0.216,0.035-0.396,0.072-0.535,0.114
	c-0.063,0.041-0.124,0.081-0.187,0.122c-0.032,0.01-0.066,0.021-0.1,0.033c0.012-0.015,0.023-0.029,0.036-0.044
	c-0.032,0.02-0.067,0.04-0.093,0.063c-1.132,0.374-2.284,0.718-3.464,1.019c-1.725,0.236-3.489,0.415-5.262,0.593
	c-0.135,0.024-0.27,0.049-0.402,0.073c1.901-0.198,3.766-0.388,5.577-0.646c-0.278,0.07-0.563,0.132-0.842,0.199
	c-1.922,0.237-3.888,0.423-5.859,0.646c-1.42,0.248-2.833,0.491-4.229,0.743c1.603-0.072,3.196-0.172,4.769-0.322
	c-2.907,0.484-5.858,0.848-8.769,1.176c-0.049-0.012-0.096-0.023-0.144-0.035l0,0c-0.071-0.017-0.141-0.035-0.211-0.051l0,0
	c0.069,0.015,0.14,0.035,0.211,0.051c1.352-0.298,2.736-0.566,4.144-0.819c-0.422,0.018-0.844,0.035-1.266,0.05
	c1.814-0.345,3.656-0.585,5.494-0.793c0.375-0.065,0.749-0.132,1.124-0.199c-1.263,0.131-2.541,0.267-3.831,0.43
	c0.245-0.045,0.486-0.09,0.734-0.134c1.164-0.133,2.332-0.251,3.499-0.369c1.957-0.352,3.911-0.733,5.826-1.191
	c-2.021,0.387-4.094,0.707-6.14,1.007c2.07-0.355,4.182-0.724,6.248-1.15c0.386-0.055,0.77-0.113,1.152-0.174
	c0.492-0.129,0.979-0.269,1.466-0.411c0.201-0.049,0.399-0.1,0.6-0.15c-0.059,0.065-0.117,0.13-0.174,0.198
	c-0.188,0.045-0.38,0.087-0.569,0.131c0.182-0.034,0.365-0.067,0.546-0.104c-0.046,0.056-0.092,0.113-0.137,0.169
	c0.067-0.042,0.151-0.079,0.25-0.11c0.064-0.04,0.123-0.081,0.188-0.121c0.226-0.047,0.449-0.098,0.674-0.149
	c-0.104,0.04-0.209,0.092-0.313,0.151c0.171-0.061,0.333-0.131,0.503-0.193c0.016-0.004,0.032-0.007,0.048-0.011
	c0.002,0.003,0.003,0.005,0.004,0.007c-0.056,0.046-0.109,0.096-0.165,0.143c0.078-0.01,0.163-0.021,0.25-0.032
	c0.004,0.006,0.011,0.013,0.016,0.02c0.027-0.011,0.054-0.021,0.081-0.032c0.008-0.001,0.015-0.002,0.022-0.003
	c0.059,0.018,0.127,0.02,0.198,0.017c0.046,0.015,0.095,0.031,0.146,0.048c-0.104,0.043-0.21,0.082-0.314,0.123
	c0.048,0.05,0.106,0.097,0.164,0.146c-0.409,0.117-0.82,0.225-1.237,0.325c-0.016,0.016-0.031,0.03-0.047,0.046
	c0.452-0.101,0.898-0.21,1.341-0.327c0.039,0.03,0.075,0.062,0.118,0.091c0.103-0.027,0.204-0.056,0.306-0.085
	c-0.031-0.036-0.049-0.063-0.078-0.098c0.035-0.01,0.07-0.018,0.104-0.027c-0.015-0.018-0.035-0.041-0.048-0.058
	c-0.033,0.01-0.065,0.021-0.099,0.031c-0.036-0.043-0.069-0.085-0.099-0.126c0.049,0.018,0.105,0.039,0.17,0.063
	c0.005-0.004,0.01-0.008,0.016-0.011c0.018,0.008,0.037,0.019,0.057,0.028c-0.005,0.002-0.01,0.004-0.016,0.005
	c0.036,0.014,0.067,0.025,0.107,0.042v0v0c0.003,0,0.005,0.001,0.008,0.002c0.057,0.019,0.107,0.049,0.162,0.07
	c0.136-0.04,0.271-0.081,0.405-0.122c0.042,0.062,0.091,0.117,0.132,0.18c0.004-0.002,0.008-0.005,0.012-0.008
	c-0.046-0.061-0.09-0.117-0.136-0.175c0.055-0.017,0.108-0.035,0.162-0.053c0.052,0.037,0.102,0.073,0.153,0.109c0,0,0,0,0-0.001
	c0.024,0.017,0.046,0.033,0.068,0.049c-0.019-0.019-0.039-0.036-0.059-0.055c0.062-0.04,0.124-0.08,0.186-0.121
	c-0.038-0.019-0.076-0.039-0.114-0.058c0.134-0.044,0.27-0.084,0.401-0.131c0.033-0.021,0.065-0.042,0.098-0.063
	c0.007,0.007,0.014,0.014,0.02,0.021c2.253-0.799,4.315-1.936,6.1-3.609c-0.099,0.069-0.198,0.138-0.3,0.205
	c0.346-0.3,0.681-0.618,1.003-0.956c-0.032,0.022-0.066,0.043-0.101,0.066c-0.127,0.088-0.255,0.176-0.386,0.262
	c0.015-0.013,0.029-0.026,0.045-0.039c-0.166,0.106-0.326,0.214-0.496,0.317c-0.019,0.016-0.037,0.03-0.054,0.045
	c-0.356,0.222-0.726,0.438-1.098,0.652c0.096-0.064,0.189-0.129,0.283-0.193c0.038-0.024,0.08-0.046,0.118-0.071
	c0.252-0.143,0.506-0.285,0.75-0.434c0.146-0.13,0.291-0.27,0.436-0.407c0.04-0.032,0.075-0.067,0.114-0.1
	c0.268-0.2,0.527-0.402,0.782-0.605c-0.083,0.058-0.17,0.115-0.255,0.173c0.077-0.065,0.153-0.131,0.229-0.197
	c-0.065,0.049-0.133,0.096-0.198,0.144c0.286-0.266,0.554-0.543,0.804-0.833c0.06-0.042,0.121-0.084,0.179-0.126
	c0.017-0.023,0.033-0.047,0.05-0.07c0.009-0.008,0.02-0.015,0.028-0.022c0.003-0.003,0.006-0.007,0.008-0.011
	c-0.009,0.007-0.017,0.013-0.025,0.019c0.072-0.098,0.145-0.201,0.217-0.303c-0.06,0.058-0.115,0.117-0.177,0.174
	c0.147-0.188,0.286-0.381,0.417-0.578c0.044-0.043,0.09-0.087,0.133-0.131c-0.12,0.186-0.248,0.358-0.373,0.535
	c0.009-0.009,0.02-0.019,0.028-0.028c-0.073,0.104-0.145,0.21-0.22,0.312c0.012-0.008,0.022-0.017,0.034-0.025
	c-0.015,0.012-0.027,0.024-0.042,0.036c-0.017,0.024-0.033,0.049-0.051,0.073c-0.009,0.006-0.019,0.012-0.027,0.019
	c-0.073,0.097-0.147,0.193-0.224,0.288c-0.183,0.178-0.367,0.356-0.561,0.527c0.12-0.092,0.239-0.187,0.357-0.284
	c-0.036,0.042-0.069,0.084-0.104,0.125c-0.075,0.061-0.15,0.121-0.227,0.182c0.064-0.047,0.127-0.094,0.19-0.141
	c-0.044,0.052-0.087,0.107-0.132,0.159c-0.292,0.272-0.592,0.531-0.895,0.778c0.115-0.073,0.229-0.148,0.341-0.223
	c0.037-0.025,0.073-0.049,0.11-0.074c-0.003,0.002-0.006,0.005-0.01,0.008c0.037-0.024,0.074-0.047,0.111-0.072
	c-0.264,0.288-0.536,0.562-0.814,0.822c0.839-0.582,1.603-1.22,2.263-1.919C360.819,337.76,362.229,335.114,361.204,331.64z
	 M261.698,345.2c-0.005-0.003-0.011-0.007-0.016-0.011c-0.001,0.001-0.001,0.003-0.002,0.004c-0.324-0.107-0.644-0.222-0.965-0.337
	c0.07,0.049,0.141,0.097,0.209,0.147c0.248,0.07,0.493,0.144,0.745,0.211c-0.006,0.015-0.018,0.03-0.026,0.045
	c-0.203-0.055-0.403-0.113-0.604-0.17c-0.039-0.029-0.076-0.059-0.115-0.086c-0.094-0.027-0.188-0.053-0.282-0.081
	c-0.002-0.035,0.002-0.061,0.004-0.09c0.023,0.008,0.047,0.016,0.069,0.024c-0.022-0.016-0.044-0.03-0.068-0.046
	c0.001-0.01,0-0.021,0.002-0.03c0.213,0.064,0.433,0.123,0.648,0.183c0.128,0.076,0.259,0.151,0.385,0.227
	c0.017-0.038,0.026-0.071,0.041-0.107c0.011,0.002,0.021,0.006,0.032,0.009c0.03-0.082,0.051-0.164,0.066-0.243
	c-0.006-0.003-0.012-0.008-0.017-0.012c0.055-0.218,0.06-0.374,0.06-0.374c-0.751-0.125-1.515-0.285-2.278-0.478
	c0.022,0.012,0.044,0.024,0.067,0.037c-0.15-0.038-0.301-0.074-0.45-0.114c-0.028-0.017-0.056-0.032-0.085-0.048
	c-0.542-0.147-1.083-0.312-1.618-0.493c-0.173-0.063-0.343-0.129-0.514-0.196c0.026,0.015,0.052,0.029,0.079,0.043
	c-0.181-0.063-0.359-0.128-0.537-0.196c0.051,0.03,0.102,0.058,0.153,0.088c0.495,0.259,0.994,0.513,1.506,0.744
	c0.168,0.096,0.333,0.191,0.498,0.285c0.333,0.119,0.671,0.235,1.015,0.346c0.269,0.105,0.542,0.206,0.815,0.306
	c-0.001,0.032-0.004,0.063-0.007,0.097c-0.395-0.115-0.778-0.238-1.16-0.362c0.062,0.037,0.122,0.073,0.182,0.11
	c-0.027-0.009-0.056-0.019-0.083-0.028c-0.129-0.057-0.255-0.116-0.383-0.174c0.094,0.032,0.191,0.061,0.285,0.092
	c-0.215-0.127-0.438-0.256-0.664-0.387c-0.234-0.083-0.47-0.165-0.699-0.252c-0.435-0.266-0.87-0.524-1.305-0.776
	c-0.086-0.045-0.176-0.086-0.263-0.133c0.037,0.015,0.073,0.03,0.11,0.044c-0.072-0.042-0.143-0.082-0.214-0.124
	c0.222,0.095,0.447,0.188,0.673,0.276c-0.089-0.051-0.178-0.102-0.268-0.152c0.665,0.23,1.343,0.44,2.031,0.634
	c0.124,0.068,0.246,0.137,0.368,0.207c0.156,0.042,0.313,0.086,0.468,0.126c-0.12-0.067-0.239-0.134-0.359-0.201
	c0.872,0.238,1.755,0.459,2.638,0.679c0,0-0.001,0.175-0.043,0.386c0.172,0.114,0.331,0.247,0.479,0.392
	c-0.184-0.048-0.364-0.1-0.546-0.149c-0.013,0.039-0.036,0.074-0.052,0.11C261.7,345.2,261.699,345.2,261.698,345.2z
	 M260.735,345.524c-0.009-0.052-0.017-0.096-0.026-0.143c0.079,0.042,0.161,0.083,0.238,0.124c-0.039,0.017-0.08,0.035-0.119,0.058
	C260.796,345.55,260.766,345.537,260.735,345.524z M260.227,345.375c-0.004,0.006-0.008,0.011-0.012,0.017
	C260.219,345.387,260.223,345.381,260.227,345.375L260.227,345.375z M260.322,345.336c-0.009-0.008-0.021-0.031-0.031-0.045
	c-0.006,0.008-0.012,0.015-0.017,0.023l-0.001-0.001c0.006-0.007,0.01-0.015,0.017-0.023c-0.009-0.012-0.018-0.022-0.027-0.039
	c-0.021,0.01-0.041,0.02-0.06,0.03c-0.008-0.004-0.016-0.007-0.022-0.01c-0.015,0.012-0.028,0.027-0.042,0.039
	c0.001,0,0.001,0.001,0.002,0.002c-0.004,0.002-0.008,0.004-0.012,0.006c-0.052,0.044-0.102,0.097-0.154,0.143
	c-0.02-0.012-0.041-0.023-0.061-0.035l0,0c-0.012-0.007-0.023-0.014-0.035-0.021c-0.174-0.102-0.349-0.204-0.526-0.305
	c0.001-0.002,0.002-0.004,0.005-0.006c-0.302-0.178-0.615-0.365-0.936-0.555c0.257,0.092,0.514,0.185,0.773,0.269
	c-0.103-0.052-0.204-0.109-0.306-0.162c-0.224-0.069-0.44-0.148-0.66-0.223c-0.186-0.111-0.375-0.225-0.564-0.339
	c-0.391-0.161-0.77-0.33-1.141-0.506c-0.226-0.12-0.452-0.24-0.678-0.36c0.581,0.303,1.173,0.583,1.768,0.836
	c-0.164-0.1-0.33-0.201-0.495-0.302c0.09,0.037,0.178,0.076,0.269,0.112c0.14,0.064,0.279,0.128,0.419,0.191
	c0.161,0.094,0.321,0.186,0.482,0.275c-0.11-0.043-0.218-0.081-0.328-0.125c0.135,0.053,0.264,0.111,0.401,0.163
	c0.173,0.095,0.35,0.186,0.526,0.278c0.167,0.051,0.338,0.096,0.508,0.145c-0.05-0.034-0.101-0.067-0.152-0.101
	c-0.146-0.05-0.294-0.11-0.44-0.164c0.109,0.039,0.221,0.077,0.332,0.116c0.034,0.015,0.068,0.03,0.102,0.044
	c-0.009-0.006-0.02-0.012-0.029-0.018c0.091,0.031,0.182,0.064,0.274,0.095c-0.143-0.064-0.285-0.13-0.426-0.196
	c-0.079-0.051-0.157-0.103-0.235-0.154c-0.025-0.014-0.052-0.027-0.078-0.041c0.012,0.004,0.023,0.007,0.034,0.011
	c0.016,0.01,0.03,0.02,0.044,0.03c0.246,0.126,0.489,0.251,0.728,0.374c-0.022-0.007-0.044-0.016-0.066-0.023
	c0.012,0.006,0.025,0.011,0.037,0.016c0.016,0.005,0.03,0.01,0.044,0.015c0.027,0.014,0.055,0.028,0.081,0.042
	c0.047,0.021,0.094,0.042,0.14,0.063c-0.013-0.003-0.026-0.007-0.039-0.011c0.14,0.072,0.278,0.143,0.414,0.213
	c0.074,0.021,0.147,0.041,0.221,0.062l0.001-0.001c0.001,0,0.002,0,0.002,0c0,0.001,0,0.001,0,0.001
	c0.002,0.001,0.004,0.002,0.006,0.002c0.005,0.004,0.012,0.008,0.017,0.011c-0.017,0.009-0.034,0.017-0.052,0.026
	c0.03,0.016,0.059,0.03,0.089,0.046c-0.023,0.075-0.058,0.114-0.099,0.1C260.34,345.344,260.331,345.34,260.322,345.336z
	 M248.302,333.936c0.007,0.412,0.076,0.81,0.189,1.198c-0.095-0.335-0.165-0.67-0.211-1.006
	C248.288,334.063,248.294,334.001,248.302,333.936z M248.414,333.306c0,0.152,0.004,0.306,0.014,0.46
	c-0.023-0.075-0.042-0.149-0.062-0.224C248.38,333.464,248.397,333.385,248.414,333.306z M249.816,329.846
	c0.002-0.005,0.005-0.01,0.008-0.015c0,0.002-0.001,0.006-0.002,0.008C249.82,329.842,249.817,329.844,249.816,329.846z
	 M268.552,325.841c-0.406-0.539-0.913-0.975-1.467-1.354c0.015,0.002,0.029,0.004,0.043,0.008
	C267.648,324.857,268.135,325.288,268.552,325.841z M263.448,334.058c0.132-0.003,0.264-0.008,0.395-0.017
	c0.26,0.03,0.519,0.063,0.778,0.099C264.227,334.124,263.835,334.094,263.448,334.058z M263.059,334.02
	c-0.548-0.056-1.082-0.115-1.583-0.154c0.65,0.023,1.3,0.056,1.95,0.123C263.303,333.997,263.183,334.016,263.059,334.02z
	 M262.563,334.014c0.117,0.018,0.235,0.038,0.351,0.057c-0.264-0.004-0.533-0.023-0.801-0.043c-0.077-0.01-0.154-0.02-0.231-0.03
	c-0.45-0.032-0.903-0.086-1.356-0.176c0.547,0.109,1.082,0.17,1.607,0.208c1.533,0.211,3.067,0.474,4.602,0.768
	c-2.044-0.277-4.124-0.562-6.209-0.976c2.497,0.496,4.806,0.808,7.069,1.141c2.486,0.492,4.976,1.037,7.475,1.532
	c0.087,0.022,0.175,0.046,0.261,0.068c-4.99-0.914-10.211-1.827-14.805-2.741c0.452,0.05,0.904,0.116,1.356,0.176
	C262.11,334.014,262.336,334.012,262.563,334.014z M275.859,336.66c-0.039-0.012-0.079-0.023-0.118-0.034
	c0.391,0.075,0.78,0.148,1.17,0.219c0.021,0.007,0.043,0.012,0.064,0.02C276.606,336.796,276.232,336.728,275.859,336.66z
	 M257.125,324.354c-0.061,0.01-0.124,0.014-0.187,0.022c0.08-0.04,0.158-0.083,0.238-0.123c-0.323,0.064-0.646,0.13-0.961,0.21
	c-0.025,0.001-0.05,0.003-0.075,0.006c0.018-0.009,0.037-0.018,0.055-0.027c0.29-0.108,0.584-0.209,0.881-0.301
	c-0.121,0.023-0.241,0.044-0.361,0.069c0.409-0.185,0.824-0.349,1.244-0.496c0.337-0.087,0.674-0.163,1.013-0.227
	c-0.334,0.123-0.667,0.257-0.998,0.402c-0.302,0.075-0.6,0.161-0.897,0.252c0.167-0.03,0.335-0.055,0.505-0.081
	c-0.136,0.063-0.271,0.126-0.405,0.192c0.528-0.104,1.061-0.194,1.6-0.259c0.133-0.043,0.267-0.077,0.401-0.117
	c0.117-0.008,0.236-0.018,0.355-0.025c0.557-0.14,1.105-0.284,1.642-0.425c-0.031,0.001-0.063,0.001-0.093,0.003
	c0.054-0.009,0.106-0.012,0.16-0.02c-0.022,0.006-0.044,0.011-0.067,0.017c0.31-0.012,0.618-0.016,0.924-0.008
	c-0.375,0.124-0.756,0.258-1.146,0.401c-0.476-0.002-0.949,0.006-1.42,0.031c-0.141,0.035-0.279,0.072-0.42,0.105
	c-0.112,0.012-0.225,0.022-0.336,0.036c-0.112,0.037-0.225,0.073-0.337,0.111c0.017-0.003,0.034-0.006,0.051-0.009
	c-0.022,0.005-0.045,0.011-0.069,0.016c0.007-0.002,0.013-0.005,0.019-0.007C257.997,324.175,257.558,324.259,257.125,324.354z
	 M250.568,327.909c0.046-0.048,0.097-0.094,0.144-0.142c-0.103,0.156-0.19,0.318-0.279,0.481c-0.043,0.051-0.083,0.104-0.124,0.155
	C250.387,328.234,250.476,328.07,250.568,327.909z M265.669,324.057c0.103,0.012,0.209,0.022,0.313,0.035
	c0.142,0.063,0.278,0.142,0.418,0.213c-0.084-0.019-0.167-0.036-0.251-0.054C265.99,324.183,265.832,324.116,265.669,324.057z
	 M260.904,323.84c0.127-0.004,0.254-0.008,0.382-0.011c0.063,0.001,0.126,0.003,0.189,0.005c-0.207,0.004-0.413,0.014-0.619,0.024
	C260.872,323.853,260.889,323.846,260.904,323.84z M264.701,323.451c0.06,0.012,0.116,0.037,0.177,0.051
	C264.818,323.484,264.76,323.467,264.701,323.451z M261.708,323.031c-0.102-0.002-0.203-0.013-0.304-0.013
	c0.431-0.008,0.854,0.01,1.271,0.042c-0.012,0.003-0.023,0.005-0.034,0.008C262.335,323.04,262.02,323.038,261.708,323.031z
	 M248.474,331.202c-0.004,0.007-0.008,0.015-0.012,0.021c0.011-0.032,0.021-0.065,0.033-0.098
	C248.487,331.151,248.481,331.177,248.474,331.202z M249.923,329.503c-0.023,0.089-0.06,0.17-0.08,0.261
	c-0.285,0.308-0.55,0.613-0.772,0.912c-0.113,0.151-0.206,0.3-0.304,0.45c0.081-0.246,0.172-0.487,0.278-0.724
	C249.294,330.103,249.594,329.803,249.923,329.503z M253.552,341.119c0.183,0.092,0.368,0.184,0.555,0.275
	c0.115,0.1,0.23,0.198,0.345,0.295C254.149,341.503,253.849,341.313,253.552,341.119z M259.657,344.824
	c0.09,0.03,0.181,0.059,0.271,0.087C259.837,344.882,259.747,344.853,259.657,344.824z M263.921,334.039
	c-0.009-0.001-0.018-0.003-0.026-0.004c1.697-0.132,3.161-0.66,4.228-1.516c1.096-0.7,1.88-1.59,2.199-2.56
	c-0.017,0.124-0.037,0.248-0.061,0.372C269.524,332.497,266.973,333.833,263.921,334.039z M268.953,325.075
	c0.725,1.009,1.195,1.958,1.4,2.825c0.019,0.142,0.034,0.285,0.043,0.431c-0.116-0.482-0.373-0.966-0.76-1.442
	c-0.182-0.606-0.475-1.25-0.839-1.915C268.85,325.007,268.905,325.037,268.953,325.075z M265.733,323.75
	c-0.086-0.032-0.18-0.049-0.268-0.078c-0.127-0.046-0.265-0.074-0.395-0.116c0.104,0.019,0.209,0.037,0.312,0.058
	c-0.691-0.248-1.437-0.415-2.22-0.506c0.11-0.029,0.22-0.056,0.328-0.082c0.847,0.108,1.654,0.334,2.404,0.681
	c-0.167-0.037-0.342-0.061-0.512-0.093C265.502,323.655,265.618,323.702,265.733,323.75z M250.044,327.782
	c-0.394,0.418-0.76,0.887-1.106,1.387C249.234,328.676,249.607,328.213,250.044,327.782z M248.225,332.086
	c0.029-0.143,0.073-0.284,0.112-0.426c-0.018,0.09-0.021,0.184-0.036,0.275c0.007-0.013,0.015-0.026,0.021-0.038l0,0.001
	c0.125-0.254,0.276-0.512,0.446-0.771c-0.059,0.179-0.108,0.361-0.153,0.545c-0.182,0.411-0.308,0.823-0.388,1.234
	c0.004,0.026,0.006,0.052,0.011,0.078c0.064-0.375,0.183-0.751,0.335-1.129c-0.068,0.317-0.117,0.64-0.14,0.97
	c-0.045,0.202-0.08,0.402-0.099,0.598c-0.037-0.147-0.07-0.293-0.096-0.439c-0.013,0.081-0.015,0.162-0.025,0.242
	c-0.001-0.087-0.002-0.174-0.001-0.261c0.004-0.02,0.011-0.04,0.015-0.06c-0.006-0.036-0.011-0.07-0.016-0.105
	c0.006-0.14,0.019-0.277,0.032-0.416c0.021-0.164,0.05-0.325,0.079-0.486c-0.006,0.012-0.015,0.025-0.021,0.039v-0.001
	C248.275,331.985,248.247,332.037,248.225,332.086z M248.211,334.501c-0.006-0.042-0.014-0.084-0.019-0.127
	C248.199,334.417,248.203,334.458,248.211,334.501z M248.244,334.687c0.001,0.008,0.003,0.017,0.004,0.025
	c-0.001-0.005-0.004-0.01-0.004-0.015C248.244,334.693,248.244,334.69,248.244,334.687z M248.557,337.054
	c-0.051-0.086-0.093-0.174-0.14-0.262C248.462,336.882,248.509,336.968,248.557,337.054z M247.532,333.55
	c-0.001,1.585,0.547,3.025,1.482,4.305C248.023,336.672,247.453,335.294,247.532,333.55z M250.324,338.634
	c-0.005-0.006-0.009-0.014-0.013-0.02c-0.002-0.003-0.005-0.006-0.008-0.009c-0.164-0.259-0.325-0.518-0.479-0.793
	c-0.038-0.06-0.064-0.118-0.1-0.178c-0.024-0.031-0.053-0.062-0.076-0.092c-0.508-0.728-0.869-1.476-1.103-2.233
	c0.146,0.438,0.358,0.862,0.623,1.273c0.159,0.348,0.342,0.698,0.556,1.052c0.094,0.117,0.191,0.235,0.293,0.352
	c-0.101-0.205-0.188-0.417-0.273-0.632c0.004,0.005,0.009,0.011,0.014,0.017c-0.219-0.548-0.39-1.125-0.493-1.741
	c-0.001-0.002-0.003-0.004-0.005-0.007c-0.207-1.255-0.175-2.652,0.155-4.224c-0.331,1.574-0.361,2.974-0.15,4.231
	c0.027,0.046,0.064,0.095,0.093,0.141c-0.335-1.62-0.238-3.487,0.392-5.652c0.01-0.013,0.022-0.027,0.033-0.04
	c-0.512,2.526-0.443,4.65,0.077,6.453c0.8,1.187,1.655,2.243,2.554,3.206c-0.723-0.518-1.381-1.051-1.951-1.606
	c0.127,0.259,0.276,0.504,0.425,0.748c-0.172-0.16-0.344-0.319-0.499-0.48c-0.156-0.257-0.305-0.518-0.431-0.791
	c-0.071-0.078-0.133-0.158-0.199-0.236c0.088,0.221,0.182,0.439,0.288,0.65c-0.011-0.012-0.019-0.023-0.029-0.035
	c0.066,0.134,0.139,0.264,0.211,0.393c-0.136-0.188-0.273-0.37-0.405-0.567c0.155,0.279,0.321,0.541,0.487,0.802
	c0.027,0.03,0.059,0.061,0.086,0.092c0.005,0.004,0.009,0.01,0.014,0.014c0.001,0.001,0.001,0.002,0.002,0.004
	c-0.005-0.006-0.012-0.012-0.017-0.018C250.373,338.682,250.349,338.658,250.324,338.634z M251.146,339.732
	c0.018,0.013,0.038,0.025,0.055,0.037c0.031,0.037,0.068,0.07,0.099,0.106c-0.029-0.023-0.059-0.046-0.087-0.07
	C251.191,339.781,251.167,339.758,251.146,339.732z M252.235,340.838c0.054,0.037,0.104,0.074,0.159,0.109
	c0.067,0.066,0.136,0.129,0.203,0.195c-0.052-0.042-0.104-0.083-0.157-0.125C252.371,340.958,252.302,340.898,252.235,340.838z
	 M254.137,342.241c0.083,0.045,0.162,0.092,0.245,0.137c0.045,0.03,0.09,0.063,0.138,0.094c-0.077-0.046-0.155-0.089-0.231-0.136
	c-0.033-0.019-0.064-0.038-0.096-0.057C254.174,342.267,254.157,342.253,254.137,342.241z M254.556,342.495
	c0.137,0.08,0.271,0.163,0.414,0.24c0.056,0.033,0.111,0.067,0.167,0.099c-0.153-0.084-0.304-0.169-0.456-0.253
	C254.638,342.554,254.597,342.523,254.556,342.495z M256.191,343.599c0.067,0.042,0.132,0.084,0.197,0.125
	c-0.543-0.234-1.075-0.483-1.586-0.754c-0.338-0.237-0.671-0.491-1-0.756C254.57,342.743,255.369,343.197,256.191,343.599z
	 M260.598,345.733c-0.001,0-0.004-0.001-0.005-0.002c0.019-0.016,0.034-0.032,0.05-0.048c0.002,0.002,0.006,0.004,0.009,0.006
	C260.633,345.704,260.616,345.717,260.598,345.733z M260.91,345.595c0.005-0.003,0.012-0.007,0.019-0.01
	c-0.003,0.004-0.008,0.009-0.011,0.013C260.915,345.597,260.913,345.596,260.91,345.595z M262.34,345.594
	c-0.259-0.065-0.514-0.132-0.767-0.201c0.036-0.04,0.069-0.08,0.096-0.126c0.078,0.021,0.159,0.041,0.238,0.062
	C262.053,345.417,262.198,345.505,262.34,345.594z M261.929,345.28c0.182,0.047,0.366,0.093,0.55,0.139
	c0.012,0.013,0.022,0.026,0.034,0.039C262.318,345.397,262.121,345.342,261.929,345.28z M280.858,349.093
	c-0.649-0.162-1.331-0.313-2.029-0.461c0.352,0.013,0.703,0.025,1.056,0.036c0.482,0.088,0.965,0.185,1.45,0.289
	c0.405,0.089,0.802,0.18,1.192,0.275c-0.217,0.022-0.434,0.052-0.65,0.097c-0.022,0.004-0.044,0.012-0.065,0.016
	C281.495,349.256,281.177,349.171,280.858,349.093z M271.956,352.157c-0.03,0.01-0.06,0.02-0.09,0.03
	C271.896,352.177,271.925,352.167,271.956,352.157z M270.898,352.542c-0.112,0.044-0.229,0.087-0.337,0.133
	C270.67,352.63,270.786,352.587,270.898,352.542z M269.804,353.03c-0.108,0.055-0.225,0.105-0.329,0.162
	C269.579,353.135,269.695,353.084,269.804,353.03z M271.63,352.354c-0.849,0.317-1.65,0.663-2.384,1.045
	c-0.041,0.006-0.08,0.016-0.121,0.027C269.846,352.997,270.691,352.646,271.63,352.354z M279.777,349.85
	c0.056-0.005,0.14-0.009,0.211-0.013c-0.312,0.093-0.61,0.176-0.894,0.244c-0.115,0.027-0.227,0.045-0.346,0.081
	c0.132-0.065,0.267-0.127,0.397-0.193C279.378,349.852,279.564,349.875,279.777,349.85z M264.293,346.635
	c-0.021-0.006-0.041-0.012-0.06-0.019c0.323,0.06,0.646,0.119,0.975,0.173C264.901,346.741,264.597,346.688,264.293,346.635z
	 M263.176,346.424c0.001,0,0.004,0.001,0.005,0.002C263.18,346.425,263.178,346.425,263.176,346.424L263.176,346.424z
	 M263.179,346.463c0.047,0.036,0.092,0.071,0.138,0.106c-0.044-0.009-0.087-0.019-0.132-0.027
	C263.184,346.515,263.182,346.489,263.179,346.463z M257.821,349.862c0.267-0.542,0.567-1.072,0.9-1.586
	c-1.53,3.813-1.854,6.813-1.235,9.152C256.672,355.289,256.672,352.766,257.821,349.862z M259.661,346.188
	c-0.002,0.004-0.004,0.008-0.006,0.012c-0.029,0.017-0.056,0.038-0.085,0.056c0.008-0.013,0.017-0.026,0.026-0.038
	C259.616,346.206,259.64,346.198,259.661,346.188z M257.254,357.886c-0.387-0.955-0.632-1.908-0.76-2.846c0-0.015,0-0.03,0-0.045
	c-0.008-0.038-0.01-0.075-0.018-0.114c-0.029-0.232-0.054-0.464-0.068-0.695c0.004-0.045,0.012-0.089,0.017-0.134
	c0.029,0.177,0.047,0.351,0.084,0.528c0.018-0.248,0.047-0.493,0.08-0.738c0.051,0.74,0.163,1.498,0.349,2.261
	c0.162,0.478,0.354,0.953,0.57,1.423c0.102,0.366,0.236,0.71,0.383,1.045c-0.169-0.293-0.319-0.592-0.463-0.893
	c0.171,0.46,0.369,0.917,0.592,1.369C257.751,358.674,257.49,358.294,257.254,357.886z M259.683,360.981
	c-0.054-0.051-0.112-0.098-0.166-0.149c0.047,0.044,0.099,0.082,0.146,0.126C259.67,360.965,259.677,360.974,259.683,360.981z
	 M257.824,358.202c0.166,0.319,0.345,0.631,0.533,0.939C258.161,358.837,257.983,358.524,257.824,358.202z M281.92,353.775
	c0.136,0.021,0.274,0.047,0.414,0.079c0.676,0.397,1.268,0.951,1.839,1.161c-0.387-0.082-0.774-0.145-1.161-0.191
	C282.639,354.474,282.273,354.042,281.92,353.775z M281.812,354.726c-1.527-0.063-3.053,0.06-4.58,0.166
	c-0.572-0.059-1.145-0.122-1.717-0.189C277.621,354.588,279.758,354.389,281.812,354.726z M279.775,353.788
	c0.214-0.127,0.421-0.214,0.619-0.271c0.15,0.049,0.301,0.1,0.448,0.133c0.048,0.005,0.099,0.01,0.149,0.016
	c-0.056,0.043-0.114,0.089-0.168,0.159C280.461,353.799,280.135,353.87,279.775,353.788z M281.311,355.225
	c0.687-0.042,1.374-0.077,2.062-0.1c-0.008-0.006-0.016-0.011-0.025-0.017c0.017,0.005,0.033,0.011,0.05,0.016
	c0.402-0.013,0.806-0.022,1.208-0.022c-0.132,0.132-0.265,0.199-0.397,0.237c-0.073-0.001-0.146-0.004-0.219-0.006
	c0.026,0.011,0.052,0.027,0.08,0.038c-0.102,0.008-0.204-0.01-0.305-0.043C282.943,355.306,282.125,355.273,281.311,355.225z
	 M284.185,373.719c0.193,0.001,0.383,0.002,0.568,0.002C284.562,373.721,284.373,373.72,284.185,373.719z M278.627,374.055
	c-3.208,0.003-5.996-0.309-7.82-1.65c0.94,0.297,2.027,0.527,3.194,0.705C275.497,373.592,277.06,373.9,278.627,374.055z
	 M274.96,384.664c0.055,0.01,0.111,0.018,0.166,0.027c-0.29,0.115-0.563,0.266-0.803,0.477c-0.273,0.116-0.543,0.232-0.812,0.352
	c-0.988,0.438-1.913,0.905-2.751,1.405c0.627-0.409,1.349-0.793,2.15-1.16c0.423-0.193,0.868-0.383,1.328-0.57
	C274.49,384.962,274.729,384.794,274.96,384.664z M273.992,373.107c-1.272-0.224-2.458-0.53-3.477-0.948
	c-0.427-0.365-0.795-0.795-1.091-1.305c0.005,0.003,0.011,0.006,0.017,0.009C270.813,371.841,272.358,372.58,273.992,373.107z
	 M267.162,368.657c0.042,0.104,0.087,0.208,0.146,0.31c0.066,0.074,0.126,0.153,0.194,0.225c-0.001,0.017-0.008,0.035-0.009,0.052
	c0.149,0.209,0.324,0.414,0.533,0.61c-0.171-0.045-0.342-0.077-0.513-0.095c-0.005-0.012-0.013-0.023-0.02-0.035
	c0.001,0.012,0.005,0.022,0.008,0.034c-0.097-0.01-0.192-0.025-0.288-0.025c0-0.38-0.11-0.761-0.235-1.142
	c0.069,0.083,0.141,0.162,0.211,0.243C267.179,368.775,267.171,368.716,267.162,368.657z M257.85,385.693
	c0.973-1.451,2.123-2.946,3.401-4.389c0.111-0.125,0.204-0.228,0.299-0.334c0.026,0.113,0.068,0.218,0.089,0.334
	c-0.328,0.361-0.652,0.725-0.975,1.09C259.699,383.492,258.762,384.604,257.85,385.693z M296.953,411.762c0,1.181,0,2.23,0,3.134
	c0,0.333,0,0.638-0.002,0.899c-8.333,1.818-20.372,5.809-24.385-2.172c3.121-0.775,6.698-1.551,8.605-3.382
	c0.273-0.263,0.496-0.239,0.714-0.306c-4.154-0.508-9.092-1.634-13.598-3.384c8.439,2.377,19.277,0.928,28.666,3.988
	C296.953,410.96,296.953,411.368,296.953,411.762z M296.953,387.076c0,3.548,0,7.005,0,10.249c0,0.299,0,0.596,0,0.891
	c-0.308-0.553-0.308,0.776-0.308,0.776c-8.316-1.033-19.863,1.144-25.225-2.828c1.978,0.584,4.342,0.705,6.497,0.168
	c-2.47,0-5.444-0.004-7.368-0.934c-0.964-0.989-1.63-2.275-1.918-3.937c0.382-2.798,2.542-4.563,5.273-5.77
	c0.43-0.19,0.874-0.366,1.326-0.531c0.172-0.136,0.344-0.246,0.516-0.335c-0.193-0.042-0.387-0.084-0.58-0.13
	c0.213,0.037,0.429,0.069,0.643,0.104c0.125-0.061,0.25-0.112,0.376-0.152c-0.155-0.04-0.31-0.078-0.465-0.119
	c-0.201,0.043-0.401,0.086-0.587,0.159c-0.051-0.012-0.101-0.025-0.151-0.038c0.151-0.084,0.3-0.153,0.447-0.199
	c-0.344-0.091-0.688-0.183-1.035-0.278c1.169,0.123,2.346,0.188,3.523,0.188c-0.451,0-0.895,0.012-1.33,0.043
	c0.145,0.031,0.29,0.076,0.437,0.127c0.908,0.01,1.816,0.419,2.723,0.803c5.926,0.668,12.034,0.804,17.25,0.991
	C296.96,386.469,296.953,386.753,296.953,387.076z M285.807,355.345c-0.009-0.039-0.016-0.083-0.026-0.12
	c-0.085,0.059-0.169,0.099-0.256,0.12c-0.123,0-0.247,0-0.37,0c-0.76-0.202-1.522-1.449-2.286-1.847
	c-0.309-0.001-0.601,0.012-0.868,0.026c-0.03,0.02-0.059,0.029-0.087,0.054c-0.062-0.007-0.124-0.007-0.186-0.012
	c0.186,0.066,0.366,0.15,0.54,0.249c-0.144-0.035-0.285-0.063-0.422-0.088c-0.12-0.083-0.241-0.146-0.357-0.176
	c-0.037-0.002-0.072-0.005-0.108-0.007c-0.048,0-0.101,0-0.142-0.002c-0.047,0.009-0.093,0.034-0.137,0.056
	c-0.046-0.008-0.094-0.016-0.137-0.024c-0.054-0.016-0.11-0.041-0.165-0.06c-0.094-0.004-0.188-0.007-0.282-0.014
	c-0.02-0.001-0.041-0.002-0.06-0.003c0.065-0.017,0.13-0.027,0.194-0.037c-0.261-0.099-0.525-0.209-0.798-0.316
	c-0.762-0.297-1.566-0.481-2.407-0.567c-0.07-0.007-0.145-0.004-0.215-0.01c0.832,0.151,1.637,0.364,2.391,0.666
	c0.23,0.092,0.453,0.179,0.674,0.255c-0.649-0.045-1.304-0.083-1.966-0.106c-1.739-0.433-3.653-0.561-5.629-0.415
	c-0.213,0.048-0.423,0.086-0.637,0.142c-0.121,0.031-0.241,0.073-0.361,0.105c0.025-0.003,0.051-0.007,0.076-0.01
	c1.94-0.205,3.841-0.146,5.594,0.163c-1.851-0.032-3.735,0.021-5.601,0.209c-0.093,0.009-0.186,0.023-0.278,0.033
	c-0.236,0.358-0.565,0.272-0.948,0.112c-0.079,0.01-0.157,0.018-0.235,0.028c0.047-0.02,0.103-0.042,0.151-0.062
	c-0.045-0.02-0.094-0.041-0.141-0.061c-0.097,0.03-0.185,0.054-0.267,0.073c-0.017,0.012-0.037,0.022-0.052,0.034
	c-0.041,0.015-0.242,0.023-0.481,0.029c-0.227,0.01-0.519,0.01-0.969,0.01c0.292-0.146,0.564-0.269,0.83-0.385
	c-0.038,0.001-0.076,0.003-0.115,0.008c1.211-0.613,2.61-1.099,4.079-1.509c0.58-0.139,1.169-0.271,1.769-0.395
	c-1.073,0.323-2.114,0.673-3.06,1.09c0.484-0.078,0.979-0.125,1.521-0.155c0.937-0.378,1.922-0.785,2.911-1.218
	c1.375-0.279,2.732-0.562,3.939-0.927c0.427-0.129,0.836-0.132,1.24-0.224c0.157-0.162,0.683-0.228,1.091-0.254
	c0.694-0.02,1.361-0.021,1.85-0.021c-0.38-0.378-0.874-0.527-1.404-0.562c-0.492-0.183-0.993-0.348-1.497-0.501
	c5.19,0.134,10.399,0.198,15.282,0.959c-0.017,0.248-0.033,0.491-0.033,0.824c0,0.999,0,2.045,0,3.134
	c0,0.301,0.058,0.289,0.111,0.354C293.256,354.94,289.513,355.314,285.807,355.345z M348.75,345.354
	c0.004,0.005,0.008,0.011,0.012,0.017C348.758,345.364,348.754,345.359,348.75,345.354L348.75,345.354z M350.747,344.402
	c-0.22,0.075-0.437,0.154-0.66,0.223c-0.102,0.052-0.202,0.109-0.306,0.162c0.26-0.084,0.516-0.177,0.773-0.269
	c-0.32,0.19-0.634,0.377-0.936,0.555c0.003,0.002,0.004,0.004,0.005,0.006c-0.177,0.101-0.353,0.203-0.526,0.305
	c-0.012,0.006-0.023,0.014-0.035,0.02l0,0c-0.02,0.012-0.04,0.023-0.06,0.035c-0.053-0.046-0.103-0.098-0.154-0.143
	c-0.004-0.002-0.008-0.004-0.012-0.006c0.001-0.001,0.001-0.001,0.002-0.002c-0.014-0.013-0.027-0.027-0.041-0.039
	c-0.007,0.003-0.015,0.006-0.022,0.01c-0.02-0.01-0.039-0.02-0.061-0.031c-0.009,0.017-0.018,0.027-0.027,0.039
	c0.007,0.008,0.011,0.017,0.018,0.023l-0.002,0.001c-0.005-0.008-0.01-0.015-0.017-0.023c-0.011,0.014-0.022,0.037-0.031,0.045
	c-0.01,0.004-0.019,0.008-0.026,0.012c-0.042,0.014-0.076-0.025-0.1-0.1c0.03-0.016,0.06-0.031,0.089-0.046
	c-0.018-0.008-0.035-0.017-0.052-0.026c0.005-0.003,0.012-0.007,0.017-0.011c0.003,0,0.004-0.001,0.007-0.001v0
	c0-0.001,0.001-0.001,0.003-0.002l0.001,0.001c0.073-0.02,0.146-0.04,0.221-0.061c0.136-0.071,0.274-0.142,0.414-0.213
	c-0.013,0.003-0.026,0.007-0.039,0.01c0.046-0.021,0.093-0.041,0.14-0.062c0.026-0.014,0.054-0.027,0.081-0.042
	c0.015-0.005,0.028-0.009,0.045-0.015c0.012-0.005,0.024-0.01,0.036-0.016c-0.022,0.008-0.044,0.016-0.066,0.023
	c0.239-0.123,0.481-0.248,0.728-0.374c0.015-0.01,0.028-0.02,0.044-0.03c0.011-0.003,0.022-0.007,0.033-0.011
	c-0.025,0.014-0.053,0.027-0.077,0.041c-0.078,0.051-0.157,0.103-0.235,0.154c-0.141,0.066-0.283,0.132-0.426,0.196
	c0.093-0.031,0.183-0.064,0.274-0.096c-0.009,0.006-0.02,0.013-0.029,0.019c0.034-0.015,0.068-0.029,0.103-0.044
	c0.111-0.038,0.222-0.077,0.332-0.115c-0.146,0.054-0.294,0.113-0.44,0.164c-0.051,0.034-0.103,0.066-0.151,0.101
	c0.169-0.049,0.341-0.093,0.508-0.145c0.177-0.092,0.353-0.183,0.526-0.278c0.138-0.052,0.267-0.109,0.401-0.163
	c-0.11,0.044-0.219,0.082-0.328,0.125c0.161-0.09,0.321-0.181,0.482-0.275c0.14-0.063,0.279-0.126,0.419-0.191
	c0.092-0.036,0.179-0.075,0.27-0.112c-0.166,0.102-0.332,0.203-0.495,0.302c0.594-0.253,1.185-0.533,1.766-0.836
	c-0.225,0.12-0.45,0.24-0.677,0.36c-0.371,0.176-0.75,0.345-1.141,0.506C351.121,344.177,350.932,344.291,350.747,344.402z
	 M348.149,345.541c-0.039-0.022-0.079-0.041-0.119-0.057c0.077-0.041,0.16-0.083,0.238-0.124c-0.01,0.047-0.018,0.09-0.026,0.142
	C348.211,345.515,348.181,345.528,348.149,345.541z M349.05,344.889c0.09-0.029,0.18-0.058,0.271-0.088
	C349.229,344.831,349.14,344.86,349.05,344.889z M354.524,341.667c0.115-0.098,0.231-0.196,0.345-0.296
	c0.188-0.091,0.373-0.182,0.556-0.274C355.128,341.291,354.828,341.481,354.524,341.667z M350.228,343.63
	c0.688-0.195,1.367-0.404,2.032-0.635c-0.091,0.051-0.18,0.102-0.269,0.153c0.227-0.088,0.451-0.181,0.673-0.276
	c-0.071,0.042-0.142,0.083-0.214,0.123c0.036-0.013,0.073-0.029,0.109-0.043c-0.086,0.046-0.176,0.086-0.263,0.132
	c-0.435,0.252-0.869,0.511-1.305,0.777c-0.229,0.087-0.465,0.169-0.699,0.252c-0.226,0.131-0.447,0.26-0.663,0.387
	c0.094-0.031,0.19-0.061,0.284-0.092c-0.128,0.059-0.253,0.118-0.383,0.174c-0.027,0.009-0.056,0.019-0.083,0.028
	c0.06-0.037,0.12-0.073,0.182-0.11c-0.382,0.125-0.766,0.247-1.16,0.362c-0.003-0.034-0.005-0.065-0.007-0.097
	c0.273-0.1,0.545-0.2,0.815-0.306c0.344-0.111,0.681-0.227,1.015-0.346c0.165-0.094,0.329-0.189,0.498-0.285
	c0.512-0.23,1.011-0.484,1.506-0.744c0.052-0.03,0.103-0.058,0.153-0.088c-0.178,0.068-0.356,0.133-0.537,0.196
	c0.026-0.014,0.053-0.029,0.078-0.043c-0.171,0.066-0.341,0.133-0.513,0.195c-0.536,0.181-1.075,0.346-1.619,0.493
	c-0.028,0.016-0.056,0.032-0.085,0.048c-0.148,0.041-0.299,0.077-0.449,0.114c0.022-0.012,0.045-0.024,0.066-0.036
	c-0.763,0.193-1.527,0.353-2.278,0.477c0,0,0.006,0.156,0.061,0.375c-0.006,0.004-0.011,0.008-0.018,0.012
	c0.016,0.079,0.037,0.161,0.067,0.243c0.01-0.003,0.021-0.006,0.031-0.009c0.014,0.037,0.023,0.07,0.04,0.108
	c0.127-0.075,0.256-0.15,0.386-0.227c0.216-0.061,0.435-0.119,0.647-0.183c0.003,0.009,0.002,0.021,0.003,0.03
	c-0.023,0.016-0.046,0.031-0.067,0.046c0.021-0.008,0.045-0.016,0.068-0.024c0.002,0.03,0.007,0.055,0.004,0.09
	c-0.094,0.027-0.188,0.053-0.282,0.08c-0.039,0.028-0.075,0.058-0.114,0.086c-0.201,0.057-0.4,0.116-0.604,0.17
	c-0.008-0.015-0.02-0.031-0.026-0.045c0.252-0.068,0.496-0.141,0.744-0.211c0.068-0.05,0.139-0.098,0.21-0.146
	c-0.322,0.115-0.642,0.23-0.966,0.337c-0.001-0.001-0.001-0.002-0.003-0.004c-0.005,0.004-0.01,0.007-0.016,0.01
	c-0.001,0-0.002,0.001-0.004,0.001c-0.017-0.037-0.039-0.072-0.052-0.11c-0.184,0.049-0.362,0.101-0.547,0.149
	c0.149-0.145,0.308-0.278,0.479-0.392c-0.041-0.21-0.043-0.386-0.043-0.386c0.884-0.219,1.767-0.441,2.638-0.678
	c-0.12,0.067-0.239,0.134-0.359,0.201c0.155-0.04,0.313-0.084,0.468-0.126C349.982,343.767,350.104,343.697,350.228,343.63z
	 M347.502,333.844c-0.502,0.04-1.035,0.099-1.584,0.154c-0.124-0.004-0.244-0.023-0.367-0.032
	C346.202,333.899,346.851,333.867,347.502,333.844z M345.529,334.036c-0.387,0.036-0.779,0.066-1.174,0.083
	c0.26-0.036,0.519-0.069,0.779-0.099C345.265,334.027,345.396,334.032,345.529,334.036z M346.845,334.008
	c0.524-0.039,1.06-0.099,1.606-0.208c-0.453,0.09-0.906,0.144-1.355,0.176c-0.077,0.01-0.154,0.02-0.231,0.03
	c-0.268,0.02-0.537,0.04-0.801,0.043c0.116-0.02,0.233-0.039,0.352-0.057c0.226-0.002,0.451,0,0.681-0.016
	c0.451-0.061,0.903-0.126,1.355-0.176c-4.595,0.914-9.814,1.828-14.806,2.741c0.087-0.022,0.174-0.046,0.262-0.069
	c2.499-0.495,4.989-1.04,7.476-1.532c2.263-0.333,4.572-0.645,7.068-1.141c-2.085,0.415-4.165,0.699-6.209,0.976
	C343.777,334.481,345.311,334.219,346.845,334.008z M341.849,324.474c0.015-0.003,0.029-0.005,0.043-0.008
	c-0.554,0.378-1.061,0.814-1.467,1.354C340.842,325.266,341.329,324.835,341.849,324.474z M350.556,324.09
	c-0.023-0.005-0.047-0.01-0.069-0.016c0.018,0.002,0.034,0.006,0.051,0.008c-0.112-0.038-0.225-0.074-0.337-0.111
	c-0.11-0.014-0.223-0.025-0.335-0.036c-0.142-0.034-0.28-0.07-0.421-0.105c-0.472-0.025-0.944-0.034-1.42-0.031
	c-0.39-0.144-0.771-0.278-1.146-0.401c0.306-0.008,0.614-0.004,0.924,0.008c-0.021-0.006-0.044-0.011-0.066-0.017
	c0.054,0.008,0.105,0.011,0.159,0.02c-0.03-0.001-0.062-0.001-0.093-0.003c0.537,0.141,1.086,0.285,1.643,0.425
	c0.119,0.006,0.237,0.017,0.355,0.025c0.134,0.04,0.268,0.074,0.4,0.117c0.54,0.064,1.073,0.154,1.601,0.258
	c-0.135-0.065-0.269-0.129-0.405-0.192c0.17,0.026,0.339,0.05,0.506,0.081c-0.298-0.092-0.596-0.177-0.897-0.252
	c-0.332-0.145-0.664-0.279-0.998-0.402c0.339,0.064,0.676,0.14,1.013,0.227c0.419,0.146,0.835,0.311,1.243,0.496
	c-0.12-0.025-0.24-0.046-0.36-0.069c0.297,0.091,0.591,0.193,0.881,0.301c0.019,0.009,0.036,0.018,0.055,0.026
	c-0.024-0.002-0.05-0.004-0.074-0.006c-0.316-0.081-0.639-0.146-0.962-0.21c0.08,0.04,0.158,0.083,0.238,0.124
	c-0.063-0.008-0.126-0.013-0.188-0.022c-0.432-0.095-0.871-0.179-1.314-0.249C350.543,324.085,350.55,324.088,350.556,324.09z
	 M342.996,324.07c0.103-0.013,0.209-0.023,0.312-0.035c-0.163,0.06-0.321,0.126-0.479,0.194c-0.083,0.019-0.167,0.035-0.25,0.054
	C342.718,324.212,342.854,324.133,342.996,324.07z M358.265,327.746c0.047,0.047,0.099,0.093,0.144,0.142
	c0.093,0.161,0.182,0.325,0.261,0.495c-0.042-0.051-0.081-0.104-0.124-0.155C358.456,328.063,358.368,327.901,358.265,327.746z
	 M359.134,329.742c-0.02-0.091-0.057-0.172-0.08-0.261c0.329,0.3,0.629,0.599,0.878,0.899c0.107,0.237,0.197,0.479,0.278,0.724
	c-0.098-0.149-0.19-0.298-0.303-0.45C359.684,330.355,359.419,330.05,359.134,329.742z M360.483,331.104
	c0.012,0.033,0.021,0.065,0.031,0.098c-0.004-0.007-0.008-0.014-0.012-0.021C360.496,331.155,360.489,331.129,360.483,331.104z
	 M347.573,322.996c-0.102,0-0.202,0.011-0.305,0.013c-0.312,0.007-0.627,0.009-0.933,0.036c-0.01-0.002-0.021-0.005-0.033-0.008
	C346.719,323.006,347.143,322.988,347.573,322.996z M344.099,323.479c0.062-0.015,0.117-0.039,0.178-0.051
	C344.217,323.445,344.158,323.462,344.099,323.479z M347.691,323.807c0.128,0.002,0.254,0.007,0.381,0.011
	c0.016,0.006,0.033,0.012,0.049,0.018c-0.207-0.01-0.413-0.02-0.619-0.025C347.564,323.81,347.628,323.809,347.691,323.807z
	 M333.235,336.604c-0.039,0.011-0.078,0.022-0.117,0.034c-0.374,0.068-0.747,0.137-1.117,0.206c0.021-0.007,0.043-0.013,0.064-0.02
	C332.456,336.752,332.845,336.679,333.235,336.604z M359.153,329.809c0.003,0.005,0.005,0.01,0.008,0.015
	c-0.001-0.002-0.004-0.004-0.005-0.006C359.154,329.815,359.154,329.812,359.153,329.809z M360.611,333.52
	c-0.02,0.075-0.039,0.148-0.062,0.224c0.009-0.155,0.013-0.308,0.013-0.46C360.58,333.363,360.597,333.441,360.611,333.52z
	 M360.696,334.105c-0.046,0.335-0.116,0.671-0.211,1.006c0.114-0.389,0.182-0.786,0.188-1.198
	C360.683,333.979,360.689,334.042,360.696,334.105z M361.444,333.529c0.08,1.743-0.491,3.12-1.481,4.304
	C360.897,336.552,361.446,335.113,361.444,333.529z M360.421,337.032c0.047-0.085,0.094-0.171,0.138-0.259
	C360.512,336.859,360.47,336.946,360.421,337.032z M360.729,334.689c0.002-0.008,0.003-0.016,0.006-0.024c0,0.004,0,0.006,0,0.01
	C360.732,334.679,360.73,334.685,360.729,334.689z M360.767,334.479c0.008-0.043,0.011-0.085,0.019-0.127
	C360.781,334.395,360.771,334.437,360.767,334.479z M360.677,331.915c-0.007-0.013-0.015-0.026-0.021-0.038
	c0.03,0.161,0.058,0.323,0.08,0.486c0.013,0.138,0.026,0.276,0.032,0.416c-0.005,0.035-0.01,0.07-0.016,0.104
	c0.004,0.021,0.011,0.041,0.015,0.06c0.001,0.087,0,0.174-0.001,0.261c-0.011-0.081-0.012-0.161-0.025-0.243
	c-0.025,0.146-0.059,0.292-0.097,0.439c-0.018-0.196-0.054-0.396-0.098-0.598c-0.023-0.33-0.072-0.653-0.14-0.97
	c0.151,0.378,0.271,0.754,0.334,1.128c0.004-0.026,0.007-0.052,0.012-0.079c-0.081-0.41-0.206-0.822-0.389-1.234
	c-0.045-0.183-0.095-0.365-0.153-0.544c0.17,0.26,0.32,0.518,0.445,0.771c0,0,0-0.001,0-0.001
	C360.662,331.888,360.67,331.9,360.677,331.915c-0.015-0.092-0.019-0.186-0.037-0.276c0.039,0.142,0.084,0.283,0.112,0.425
	C360.73,332.015,360.701,331.963,360.677,331.915L360.677,331.915z M360.039,329.147c-0.347-0.5-0.712-0.968-1.106-1.387
	C359.37,328.191,359.742,328.654,360.039,329.147z M345.485,323.003c0.108,0.025,0.219,0.052,0.328,0.082
	c-0.782,0.092-1.528,0.258-2.22,0.506c0.104-0.02,0.208-0.038,0.313-0.057c-0.129,0.042-0.268,0.07-0.395,0.116
	c-0.088,0.028-0.182,0.046-0.268,0.078c0.115-0.048,0.231-0.094,0.35-0.137c-0.17,0.033-0.345,0.057-0.512,0.094
	C343.832,323.337,344.64,323.112,345.485,323.003z M340.18,324.952c-0.365,0.665-0.657,1.309-0.839,1.915
	c-0.389,0.477-0.645,0.96-0.761,1.442c0.009-0.146,0.025-0.289,0.043-0.431c0.205-0.867,0.676-1.816,1.4-2.825
	C340.072,325.015,340.127,324.985,340.18,324.952z M338.656,329.937c0.318,0.97,1.103,1.86,2.198,2.56
	c1.066,0.856,2.53,1.384,4.228,1.516c-0.008,0.001-0.017,0.003-0.026,0.004c-3.052-0.206-5.603-1.541-6.34-3.708
	C338.692,330.185,338.673,330.061,338.656,329.937z M327.807,410.218c1.907,1.832,5.484,2.607,8.604,3.385
	c-4.013,7.979-16.053,3.99-24.385,2.17c-0.003-0.261-0.003-0.567-0.003-0.899c0-0.902,0-1.954,0-3.134c0-0.394,0-0.8,0-1.222
	c9.39-3.061,20.228-1.609,28.667-3.989c-4.506,1.751-9.444,2.876-13.599,3.385C327.31,409.981,327.533,409.956,327.807,410.218z
	 M334.739,385.172c0.46,0.188,0.904,0.377,1.327,0.57c0.803,0.367,1.523,0.751,2.149,1.16c-0.838-0.5-1.763-0.967-2.75-1.405
	c-0.268-0.119-0.538-0.236-0.812-0.352c-0.24-0.211-0.514-0.362-0.804-0.477c0.056-0.01,0.111-0.018,0.166-0.027
	C334.248,384.772,334.487,384.939,334.739,385.172z M351.127,385.671c-0.912-1.088-1.849-2.201-2.814-3.298
	c-0.322-0.366-0.646-0.729-0.975-1.09c0.021-0.116,0.063-0.221,0.089-0.334c0.096,0.106,0.188,0.209,0.3,0.334
	C349.004,382.725,350.153,384.22,351.127,385.671z M341.814,368.635c-0.009,0.059-0.017,0.118-0.028,0.176
	c0.07-0.081,0.143-0.161,0.212-0.243c-0.126,0.381-0.235,0.762-0.235,1.143c-0.096,0-0.19,0.016-0.287,0.025
	c0.002-0.012,0.006-0.022,0.008-0.034c-0.007,0.012-0.015,0.022-0.021,0.035c-0.171,0.019-0.342,0.05-0.513,0.095
	c0.209-0.196,0.384-0.401,0.533-0.61c-0.002-0.017-0.008-0.035-0.01-0.052c0.068-0.071,0.128-0.151,0.195-0.225
	C341.728,368.843,341.773,368.739,341.814,368.635z M339.535,370.841c0.007-0.003,0.012-0.005,0.017-0.009
	c-0.295,0.51-0.663,0.939-1.091,1.305c-1.019,0.418-2.203,0.724-3.476,0.948C336.619,372.558,338.165,371.819,339.535,370.841z
	 M324.793,373.697c-0.188,0.001-0.378,0.002-0.568,0.002C324.41,373.699,324.6,373.698,324.793,373.697z M334.976,373.087
	c1.167-0.178,2.254-0.408,3.194-0.705c-1.825,1.341-4.611,1.653-7.82,1.649C331.918,373.878,333.48,373.57,334.976,373.087z
	 M329.231,385.315c0.907-0.384,1.814-0.793,2.723-0.803c0.146-0.051,0.291-0.096,0.437-0.127c-0.436-0.031-0.879-0.043-1.33-0.043
	c1.177,0,2.354-0.065,3.523-0.188c-0.347,0.096-0.691,0.187-1.035,0.278c0.146,0.046,0.296,0.115,0.447,0.198
	c-0.051,0.013-0.101,0.026-0.151,0.038c-0.186-0.073-0.386-0.116-0.587-0.159c-0.155,0.04-0.31,0.079-0.465,0.119
	c0.125,0.04,0.251,0.091,0.376,0.152c0.215-0.034,0.43-0.067,0.643-0.104c-0.193,0.045-0.387,0.087-0.58,0.13
	c0.173,0.089,0.344,0.199,0.517,0.335c0.452,0.165,0.896,0.341,1.326,0.531c2.729,1.207,4.891,2.972,5.272,5.77
	c-0.288,1.662-0.954,2.948-1.918,3.937c-1.925,0.93-4.897,0.934-7.368,0.934c2.154,0.536,4.519,0.416,6.497-0.168
	c-5.363,3.971-16.909,1.796-25.226,2.829c0,0,0-1.33-0.309-0.777c0-0.295,0-0.592,0-0.891c0-3.245,0-6.701,0-10.25
	c0-0.323-0.006-0.607-0.041-0.749C317.197,386.119,323.306,385.982,329.231,385.315z M324.909,355.348
	c0.027-0.011,0.053-0.026,0.079-0.038c-0.073,0.002-0.146,0.005-0.22,0.006c-0.132-0.038-0.265-0.105-0.396-0.237
	c0.402,0,0.806,0.009,1.208,0.022c0.018-0.005,0.033-0.01,0.05-0.016c-0.009,0.005-0.017,0.01-0.024,0.016
	c0.687,0.023,1.374,0.059,2.062,0.1c-0.815,0.048-1.634,0.081-2.454,0.102C325.112,355.338,325.011,355.356,324.909,355.348z
	 M331.745,354.87c-1.527-0.106-3.053-0.229-4.58-0.166c2.054-0.337,4.19-0.138,6.297-0.023
	C332.89,354.748,332.317,354.811,331.745,354.87z M328.154,353.802c-0.056-0.069-0.113-0.115-0.169-0.159
	c0.05-0.005,0.101-0.01,0.148-0.015c0.148-0.033,0.298-0.084,0.448-0.133c0.199,0.057,0.405,0.144,0.619,0.271
	C328.843,353.848,328.516,353.776,328.154,353.802z M325.964,354.801c-0.386,0.046-0.774,0.11-1.161,0.191
	c0.572-0.209,1.164-0.763,1.84-1.16c0.14-0.031,0.278-0.058,0.414-0.079C326.704,354.02,326.338,354.452,325.964,354.801z
	 M338.975,353.711c-0.016-0.012-0.035-0.022-0.052-0.034c-0.083-0.019-0.17-0.043-0.267-0.073c-0.047,0.02-0.096,0.041-0.142,0.06
	c0.049,0.021,0.104,0.042,0.151,0.063c-0.078-0.01-0.156-0.018-0.234-0.028c-0.383,0.16-0.712,0.246-0.949-0.112
	c-0.093-0.01-0.186-0.024-0.278-0.033c-1.865-0.188-3.748-0.242-5.6-0.21c1.753-0.309,3.653-0.368,5.594-0.163
	c0.024,0.002,0.051,0.007,0.075,0.009c-0.12-0.032-0.24-0.075-0.36-0.105c-0.214-0.055-0.425-0.094-0.638-0.142
	c-1.977-0.147-3.891-0.018-5.629,0.415c-0.662,0.023-1.316,0.061-1.966,0.106c0.221-0.077,0.443-0.163,0.674-0.255
	c0.754-0.302,1.559-0.514,2.391-0.666c-0.07,0.006-0.146,0.002-0.216,0.01c-0.84,0.086-1.645,0.27-2.406,0.567
	c-0.272,0.106-0.537,0.217-0.798,0.316c0.063,0.01,0.129,0.02,0.194,0.037c-0.02,0.001-0.04,0.002-0.06,0.003
	c-0.095,0.007-0.188,0.01-0.282,0.014c-0.056,0.019-0.111,0.043-0.165,0.06c-0.043,0.009-0.092,0.016-0.137,0.024
	c-0.045-0.022-0.091-0.047-0.138-0.057c-0.042,0.003-0.094,0.003-0.143,0.003c-0.036,0.002-0.071,0.005-0.108,0.007
	c-0.116,0.029-0.236,0.094-0.356,0.176c-0.137,0.025-0.278,0.054-0.422,0.088c0.174-0.099,0.354-0.183,0.539-0.249
	c-0.061,0.005-0.124,0.005-0.186,0.012c-0.028-0.024-0.057-0.034-0.087-0.053c-0.267-0.014-0.56-0.028-0.867-0.026
	c-0.765,0.397-1.526,1.645-2.286,1.847c-0.123,0-0.247,0-0.37,0c-0.086-0.021-0.171-0.062-0.256-0.12
	c-0.011,0.037-0.018,0.081-0.026,0.12c-3.706-0.03-7.449-0.404-11.257-1.355c0.054-0.065,0.11-0.053,0.11-0.354
	c0-1.089,0-2.136,0-3.134c0-0.333-0.016-0.576-0.032-0.824c4.883-0.761,10.092-0.825,15.282-0.958
	c-0.504,0.153-1.005,0.318-1.497,0.501c-0.53,0.034-1.024,0.184-1.404,0.562c0.488,0,1.156,0.001,1.85,0.02
	c0.407,0.027,0.935,0.093,1.091,0.255c0.403,0.092,0.813,0.095,1.24,0.224c1.207,0.365,2.564,0.648,3.938,0.927
	c0.989,0.432,1.974,0.839,2.91,1.217c0.541,0.031,1.036,0.078,1.521,0.155c-0.945-0.416-1.986-0.767-3.059-1.089
	c0.6,0.124,1.188,0.256,1.769,0.395c1.468,0.41,2.867,0.896,4.078,1.509c-0.039-0.005-0.077-0.006-0.114-0.008
	c0.265,0.116,0.536,0.24,0.829,0.385c-0.451,0-0.742,0-0.97-0.01C339.217,353.734,339.016,353.725,338.975,353.711z
	 M339.852,353.404c-0.041-0.011-0.08-0.021-0.12-0.027c-0.734-0.382-1.535-0.728-2.385-1.045
	C338.286,352.624,339.132,352.975,339.852,353.404z M337.021,352.135c0.03,0.01,0.061,0.02,0.09,0.03
	C337.082,352.154,337.052,352.145,337.021,352.135z M338.08,352.521c0.112,0.044,0.227,0.087,0.336,0.133
	C338.307,352.607,338.19,352.565,338.08,352.521z M339.173,353.008c0.108,0.055,0.226,0.104,0.33,0.161
	C339.398,353.113,339.281,353.063,339.173,353.008z M351.49,357.406c0.619-2.339,0.295-5.338-1.234-9.152
	c0.333,0.514,0.633,1.043,0.899,1.586C352.305,352.744,352.305,355.267,351.49,357.406z M351.153,358.18
	c-0.16,0.323-0.338,0.636-0.533,0.939C350.808,358.811,350.987,358.499,351.153,358.18z M349.294,360.958
	c0.007-0.007,0.013-0.016,0.02-0.022c0.047-0.045,0.1-0.082,0.146-0.127C349.406,360.861,349.348,360.907,349.294,360.958z
	 M350.958,359.024c0.224-0.452,0.421-0.908,0.592-1.368c-0.144,0.301-0.294,0.6-0.462,0.893c0.146-0.335,0.28-0.679,0.383-1.045
	c0.215-0.47,0.407-0.945,0.569-1.423c0.186-0.763,0.298-1.521,0.349-2.261c0.033,0.245,0.062,0.49,0.08,0.738
	c0.036-0.178,0.055-0.352,0.083-0.529c0.006,0.046,0.014,0.09,0.018,0.135c-0.015,0.23-0.039,0.461-0.068,0.694
	c-0.008,0.038-0.011,0.076-0.019,0.114c0,0.015,0,0.03,0.002,0.045c-0.13,0.938-0.375,1.891-0.762,2.845
	C351.487,358.272,351.227,358.652,350.958,359.024z M349.383,346.195c0.008,0.012,0.017,0.025,0.024,0.038
	c-0.028-0.018-0.056-0.039-0.085-0.056c-0.002-0.004-0.004-0.009-0.006-0.013C349.337,346.176,349.36,346.184,349.383,346.195z
	 M345.791,346.52c-0.044,0.008-0.087,0.019-0.132,0.027c0.046-0.034,0.092-0.07,0.139-0.105
	C345.795,346.467,345.793,346.493,345.791,346.52z M345.801,346.402c-0.002,0-0.004,0-0.006,0.001
	C345.797,346.403,345.799,346.402,345.801,346.402L345.801,346.402z M344.744,346.594c-0.02,0.007-0.04,0.013-0.061,0.019
	c-0.303,0.053-0.607,0.106-0.914,0.154C344.097,346.713,344.421,346.654,344.744,346.594z M329.831,349.947
	c0.131,0.066,0.266,0.128,0.397,0.193c-0.119-0.036-0.231-0.054-0.347-0.081c-0.283-0.069-0.581-0.151-0.894-0.244
	c0.072,0.004,0.156,0.008,0.212,0.012C329.413,349.854,329.599,349.829,329.831,349.947z M328.118,349.071
	c-0.318,0.079-0.636,0.164-0.953,0.251c-0.021-0.004-0.043-0.011-0.065-0.016c-0.217-0.045-0.434-0.075-0.65-0.098
	c0.391-0.095,0.787-0.186,1.192-0.275c0.484-0.103,0.968-0.2,1.45-0.288c0.353-0.011,0.704-0.023,1.056-0.037
	C329.45,348.757,328.768,348.908,328.118,349.071z M346.498,345.397c0.185-0.046,0.368-0.091,0.55-0.139
	c-0.191,0.063-0.389,0.118-0.584,0.178C346.476,345.423,346.486,345.409,346.498,345.397z M347.069,345.306
	c0.079-0.021,0.16-0.041,0.239-0.062c0.025,0.047,0.06,0.086,0.095,0.126c-0.253,0.069-0.508,0.137-0.767,0.202
	C346.779,345.482,346.924,345.395,347.069,345.306z M348.06,345.576c-0.003-0.004-0.008-0.009-0.011-0.013
	c0.007,0.003,0.013,0.006,0.019,0.009C348.064,345.574,348.062,345.575,348.06,345.576z M348.326,345.668
	c0.002-0.002,0.006-0.005,0.009-0.007c0.016,0.017,0.031,0.032,0.05,0.048c-0.001,0-0.004,0.001-0.005,0.002
	C348.361,345.695,348.344,345.682,348.326,345.668z M355.174,342.193c-0.328,0.266-0.661,0.52-0.999,0.756
	c-0.511,0.27-1.043,0.519-1.586,0.753c0.065-0.042,0.131-0.084,0.197-0.125C353.607,343.175,354.407,342.721,355.174,342.193z
	 M353.84,342.812c0.057-0.032,0.111-0.066,0.169-0.099c0.141-0.077,0.275-0.16,0.413-0.24c-0.043,0.028-0.083,0.059-0.126,0.086
	C354.145,342.644,353.993,342.729,353.84,342.812z M354.69,342.312c-0.077,0.048-0.156,0.091-0.233,0.138
	c0.047-0.03,0.091-0.063,0.139-0.094c0.082-0.044,0.161-0.091,0.242-0.136c-0.018,0.012-0.036,0.025-0.055,0.038
	C354.752,342.276,354.721,342.294,354.69,342.312z M356.538,340.995c-0.053,0.042-0.106,0.083-0.158,0.125
	c0.066-0.065,0.135-0.128,0.202-0.195c0.054-0.035,0.106-0.073,0.159-0.109C356.675,340.875,356.607,340.936,356.538,340.995z
	 M357.765,339.783c-0.028,0.023-0.059,0.047-0.088,0.069c0.031-0.036,0.068-0.068,0.1-0.105c0.017-0.012,0.036-0.023,0.055-0.037
	C357.811,339.736,357.785,339.759,357.765,339.783z M358.563,338.701c0.002,0,0.002-0.002,0.003-0.003
	c0.005-0.005,0.009-0.01,0.015-0.015c0.027-0.031,0.059-0.062,0.086-0.092c0.166-0.262,0.332-0.523,0.487-0.802
	c-0.132,0.197-0.27,0.378-0.405,0.567c0.073-0.129,0.146-0.259,0.212-0.393c-0.011,0.012-0.019,0.023-0.028,0.035
	c0.105-0.211,0.199-0.429,0.288-0.651c-0.066,0.079-0.129,0.159-0.2,0.237c-0.126,0.273-0.275,0.534-0.431,0.791
	c-0.155,0.16-0.326,0.32-0.499,0.48c0.149-0.244,0.298-0.489,0.425-0.748c-0.569,0.555-1.229,1.089-1.95,1.606
	c0.898-0.962,1.754-2.019,2.554-3.206c0.52-1.803,0.589-3.926,0.077-6.453c0.01,0.013,0.021,0.026,0.032,0.04
	c0.63,2.165,0.728,4.033,0.393,5.652c0.028-0.046,0.064-0.095,0.093-0.141c0.266-1.586,0.129-3.41-0.483-5.51l0,0
	c0.611,2.097,0.749,3.918,0.488,5.502c-0.001,0.003-0.004,0.005-0.005,0.007c-0.104,0.616-0.274,1.192-0.493,1.74
	c0.004-0.005,0.01-0.011,0.014-0.016c-0.085,0.215-0.173,0.427-0.273,0.632c0.102-0.117,0.2-0.234,0.293-0.352
	c0.214-0.354,0.396-0.705,0.556-1.052c0.266-0.411,0.478-0.834,0.624-1.273c-0.234,0.756-0.595,1.505-1.103,2.233
	c-0.024,0.03-0.053,0.061-0.077,0.092c-0.036,0.06-0.062,0.119-0.1,0.178c-0.154,0.275-0.316,0.534-0.479,0.793
	c-0.003,0.003-0.005,0.006-0.008,0.009c-0.004,0.006-0.008,0.013-0.013,0.02c-0.025,0.024-0.049,0.048-0.073,0.072
	C358.574,338.689,358.569,338.695,358.563,338.701z"/>
<path fill="none" stroke="#231F20" stroke-width="1.3339" stroke-miterlimit="10" d="M323.138,340.627
	c2.701,0.86,1.363,3.52,2.701,6.18c2.676-1.33,2.676-3.99,5.828-4.008c0.287,0.011,0.573,0.018,0.86,0.018
	c-0.251-0.083-0.46-0.167-0.632-0.25c-0.173-0.083-0.308-0.166-0.412-0.25c-0.294,0.499-0.294-0.831-0.014-0.998
	c0.148-0.166,0.348-0.333,0.557-0.499c0.836-0.665,1.839-1.33,0.501-1.995c2.676,0,4.014-2.66,7.001-1.695
	c0.176-0.064,0.324-0.118,0.447-0.163c0.244-0.089,0.377-0.138,0.377-0.138"/>
<path fill="none" stroke="#231F20" stroke-width="1.3339" stroke-miterlimit="10" d="M296.1,373.701
	c0.578,2.433,3.561,2.651,4.026,4.475c0.685-1.143,1.369-2.287,2.054-3.429c0.465,1.823,2.764,3.184,4.357,2.184"/>
<path fill="none" stroke="#231F20" stroke-width="1.3339" stroke-miterlimit="10" d="M258.583,388.329
	c2.702,0.86,1.364,3.52,2.702,6.18c2.675-1.33,2.675-3.99,5.828-4.008c0.288,0.012,0.574,0.019,0.861,0.019
	c-0.251-0.083-0.46-0.167-0.632-0.25s-0.307-0.167-0.412-0.25c-0.294,0.499-0.294-0.831-0.015-0.998
	c0.149-0.166,0.348-0.333,0.557-0.499c0.836-0.665,1.839-1.33,0.502-1.995c2.675,0,4.013-2.66,7.001-1.695
	c0.175-0.064,0.324-0.118,0.447-0.163c0.244-0.089,0.377-0.138,0.377-0.138"/>
<path fill="none" stroke="#231F20" stroke-width="1.3339" stroke-miterlimit="10" d="M315.209,417.426
	c-2.775,0.585-2.939-2.385-5.429-4.034c-1.66,2.475-0.333,4.784-3.061,6.354c-0.256,0.133-0.507,0.268-0.756,0.409
	c0.259-0.051,0.482-0.082,0.673-0.095c0.192-0.014,0.35-0.008,0.482,0.013c0.007-0.578,0.67,0.577,0.511,0.86
	c-0.047,0.217-0.136,0.459-0.235,0.706c-0.394,0.99-0.934,2.063,0.561,1.979c-2.324,1.319-2.158,4.289-5.233,4.926
	c-0.12,0.141-0.222,0.262-0.307,0.36c-0.168,0.197-0.26,0.307-0.26,0.307"/>
</svg>
