<?xml version="1.0" encoding="utf-8"?>
<!-- Generator: Adobe Illustrator 16.0.0, SVG Export Plug-In . SVG Version: 6.00 Build 0)  -->
<svg version="1.1" id="Layer_1" xmlns="http://www.w3.org/2000/svg" xmlns:xlink="http://www.w3.org/1999/xlink" x="0px" y="0px"
	 width="612px" height="792px" viewBox="0 0 612 792" enable-background="new 0 0 612 792" xml:space="preserve">
<rect x="266.5" y="369.004" opacity="0" fill="#231F20" width="81" height="54.487"/>
<path class="secondary_color" id="SECONDARY_3_" fill="#FFFDB5" stroke="#231F20" stroke-miterlimit="10" d="M301.616,416.329
	c0.057-3.926,0.177-7.918,0.037-11.275c1.445,0.369,2.952,0.586,4.513,0.586c1.161,0,2.292-0.12,3.393-0.327
	c0.279,4.712-0.203,10.025-4.971,15.116c-0.357,0.418-0.752,0.811-1.203,1.148c-0.927,0.697-2.092,1.182-3.665,1.227
	c0.47-1.459,0.924-2.939,1.335-4.393C301.255,417.708,301.442,417.013,301.616,416.329z"/>
<path class="secondary_color" id="SECONDARY_2_" fill="#FFFDB5" stroke="#231F20" stroke-miterlimit="10" d="M312.799,414.265
	c-0.488-3.214-0.941-6.479-1.474-9.377c2.716-0.801,5.157-2.221,7.185-4.09c1.25,4.89,2.129,10.664-2.104,17.023
	c-0.284,0.471-0.608,0.922-0.999,1.33c-0.799,0.84-1.867,1.51-3.413,1.813c0.224-1.518,0.429-3.053,0.595-4.553
	C312.668,415.685,312.74,414.968,312.799,414.265z"/>
<path class="secondary_color" id="SECONDARY_1_" fill="#FFFDB5" stroke="#231F20" stroke-miterlimit="10" d="M324.398,387.407c0-0.6-0.033-1.192-0.09-1.777
	c0.264,0.037,0.486,0.148,0.644,0.371c3.149,4.453,7.013,9.914,4.976,18.32c-0.106,0.539-0.256,1.074-0.483,1.59
	c-0.464,1.064-1.238,2.059-2.587,2.873c-0.309-1.502-0.643-3.014-1-4.482c-0.173-0.709-0.352-1.406-0.536-2.088
	c-1.091-1.994-2.174-4.02-3.237-5.929C323.553,393.657,324.398,390.633,324.398,387.407z"/>
<path class="secondary_color" id="SECONDARY" fill="#FFFDB5" stroke="#231F20" stroke-miterlimit="10" d="M288.737,415.278
	c0.33-0.652,0.648-1.297,0.949-1.938c0.977-4.65,2.074-9.395,2.465-13.088c-0.038-0.139-0.075-0.268-0.107-0.389
	c-0.242-0.488-0.319-0.865-0.264-1.152c0.006-0.032,0.022-0.059,0.032-0.089c1.999,2.556,4.66,4.559,7.731,5.758
	c-0.655,4.589-2.204,9.567-7.726,13.556c-0.431,0.34-0.894,0.65-1.401,0.895c-1.042,0.508-2.277,0.76-3.831,0.502
	C287.326,417.991,288.056,416.626,288.737,415.278z"/>
</svg>
