<?xml version="1.0" encoding="utf-8"?>
<!-- Generator: Adobe Illustrator 16.0.0, SVG Export Plug-In . SVG Version: 6.00 Build 0)  -->
<svg version="1.1" id="Layer_1" xmlns="http://www.w3.org/2000/svg" xmlns:xlink="http://www.w3.org/1999/xlink" x="0px" y="0px"
	 width="612px" height="792px" viewBox="0 0 612 792" enable-background="new 0 0 612 792" xml:space="preserve">
<rect x="262.5" y="379.004" fill="none" width="81" height="54.487"/>
<path class="secondary_color" id="SECONDARY_3_" fill="#FFFDB5" stroke="#231F20" stroke-miterlimit="10" d="M306.464,426.329
	c-0.056-3.926-0.176-7.918-0.036-11.275c-1.446,0.369-2.953,0.586-4.514,0.586c-1.161,0-2.292-0.12-3.393-0.327
	c-0.279,4.712,0.203,10.025,4.971,15.116c0.357,0.418,0.752,0.811,1.204,1.148c0.926,0.697,2.091,1.182,3.665,1.227
	c-0.47-1.459-0.924-2.939-1.335-4.393C306.827,427.708,306.638,427.013,306.464,426.329z"/>
<path class="secondary_color" id="SECONDARY_2_" fill="#FFFDB5" stroke="#231F20" stroke-miterlimit="10" d="M295.282,424.265
	c0.489-3.214,0.941-6.479,1.474-9.377c-2.715-0.801-5.158-2.221-7.185-4.09c-1.25,4.89-2.129,10.664,2.104,17.023
	c0.284,0.471,0.608,0.922,0.999,1.33c0.799,0.84,1.868,1.51,3.414,1.813c-0.224-1.518-0.428-3.053-0.595-4.553
	C295.413,425.685,295.341,424.968,295.282,424.265z"/>
<path class="secondary_color" id="SECONDARY_1_" fill="#FFFDB5" stroke="#231F20" stroke-miterlimit="10" d="M283.683,397.407c0-0.6,0.033-1.192,0.09-1.777
	c-0.264,0.037-0.486,0.148-0.644,0.371c-3.149,4.453-7.012,9.914-4.975,18.32c0.106,0.539,0.256,1.074,0.483,1.59
	c0.463,1.064,1.238,2.059,2.587,2.873c0.309-1.502,0.642-3.014,1-4.482c0.172-0.709,0.351-1.406,0.536-2.088
	c1.091-1.994,2.174-4.02,3.237-5.929C284.528,403.657,283.683,400.633,283.683,397.407z"/>
<path class="secondary_color" id="SECONDARY" fill="#FFFDB5" stroke="#231F20" stroke-miterlimit="10" d="M319.344,425.278
	c-0.33-0.652-0.648-1.297-0.949-1.938c-0.977-4.65-2.074-9.395-2.465-13.088c0.038-0.139,0.075-0.268,0.107-0.389
	c0.242-0.488,0.319-0.865,0.264-1.152c-0.006-0.032-0.022-0.059-0.032-0.089c-1.999,2.556-4.66,4.559-7.731,5.758
	c0.655,4.589,2.204,9.567,7.726,13.556c0.431,0.34,0.894,0.65,1.401,0.895c1.042,0.508,2.277,0.76,3.831,0.502
	C320.755,427.991,320.025,426.626,319.344,425.278z"/>
</svg>
