<?xml version="1.0" encoding="utf-8"?>
<!-- Generator: Adobe Illustrator 16.0.0, SVG Export Plug-In . SVG Version: 6.00 Build 0)  -->
<svg version="1.1" id="Layer_1" xmlns="http://www.w3.org/2000/svg" xmlns:xlink="http://www.w3.org/1999/xlink" x="0px" y="0px"
	 width="612px" height="792px" viewBox="0 0 612 792" enable-background="new 0 0 612 792" xml:space="preserve">
<rect x="265.5" y="370.004" fill="none" width="81" height="54.487"/>
<path class="secondary_color" id="SECONDARY_3_" fill="#FFFDB5" stroke="#231F20" stroke-miterlimit="10" d="M290.852,399.729
	c-0.129,1.33-0.186,2.629-0.235,3.861c-0.057,1.377,2.841,1.535,4.231,2.166c0.629,0.149,1.264,0.258,1.837,0.298
	c1.085,0.081,1.949-0.086,2.147-0.678C295.681,404.241,292.926,402.278,290.852,399.729z"/>
<path class="secondary_color" id="SECONDARY_2_" fill="#FFFDB5" stroke="#231F20" stroke-miterlimit="10" d="M305,406.469c-1.869,0-3.671-0.283-5.368-0.806
	c0.103,0.548,0.208,1.089,0.313,1.615c0.269,1.352,3.121,0.822,4.622,1.113c0.647-0.002,1.289-0.046,1.856-0.142
	c1.158-0.191,2.009-0.599,1.936-1.312c-0.021-0.217-0.129-0.464-0.336-0.74C307.037,406.362,306.032,406.469,305,406.469z"/>
<path class="secondary_color" id="SECONDARY_1_" fill="#FFFDB5" stroke="#231F20" stroke-miterlimit="10" d="M318.425,402.463
	c-0.161-0.555-0.262-1.043-0.379-1.504c-1.899,1.948-4.235,3.459-6.845,4.405c0.087,0.19,0.175,0.382,0.261,0.569
	c0.288,0.626,1.096,0.645,2.021,0.498c0.926-0.146,1.97-0.457,2.731-0.493C317,405,319,405,318.691,402.737
	C318.609,402.649,318.521,402.561,318.425,402.463z"/>
<path class="secondary_color" id="SECONDARY" fill="#FFFDB5" stroke="#231F20" stroke-miterlimit="10" d="M324.119,380.473
	c-0.503-0.572-1.007-1.54-1.546-2.305s-1.114-1.333-1.765-1.104c-0.369,0.13-0.745,0.263-1.125,0.399
	c1.543,2.099,2.659,4.528,3.189,7.177c0.096-0.054,0.188-0.107,0.29-0.161c0.136,0.001,0.262,0.002,0.383,0
	C325.385,383.125,323.992,381.689,324.119,380.473z"/>
</svg>
