<?xml version="1.0" encoding="utf-8"?>
<!-- Generator: Adobe Illustrator 16.0.0, SVG Export Plug-In . SVG Version: 6.00 Build 0)  -->
<svg version="1.1" id="Layer_1" xmlns="http://www.w3.org/2000/svg" xmlns:xlink="http://www.w3.org/1999/xlink" x="0px" y="0px"
	 width="612px" height="792px" viewBox="0 0 612 792" enable-background="new 0 0 612 792" xml:space="preserve">
<rect x="271.592" y="379.106" fill-opacity="0" fill="#231F20" width="69.979" height="35"/>
<path id="PRIMARY_17_" fill="#FFC18C" stroke="#231F20" stroke-miterlimit="10" d="M339.463,412.885l-14.796,1.002l-40.323-11.284
	c-6.244-1.164-10.361-7.17-9.196-13.413l0,0c1.165-6.244,7.17-10.361,13.414-9.196l35.573,6.636
	c2.212,0.412,17.842,12.78,16.678,19.024L339.463,412.885z"/>
<path id="SECONDARY_43_" fill="#FFFDB5" stroke="#231F20" stroke-miterlimit="10" d="M329.867,390.91l-4.7,22.977h6.416h8.334
	l0.852-7.202C341.717,401.604,332.363,392.33,329.867,390.91z"/>
<path fill="none" stroke="#231F20" stroke-miterlimit="10" d="M328.708,397.122"/>
<path fill="none" stroke="#231F20" stroke-miterlimit="10" d="M338.625,412.795"/>
<path fill="none" stroke="#231F20" stroke-miterlimit="10" d="M338.051,413.881c1.161-6.228-4.99-14.595-9.586-15.452"/>
<path fill="none" stroke="#231F20" stroke-miterlimit="10" d="M333.001,413.887c0.767-4.108-1.439-10.341-5.354-11.071"/>
</svg>
