<?xml version="1.0" encoding="utf-8"?>
<!-- Generator: Adobe Illustrator 16.0.0, SVG Export Plug-In . SVG Version: 6.00 Build 0)  -->
<svg version="1.1" id="Layer_1" xmlns="http://www.w3.org/2000/svg" xmlns:xlink="http://www.w3.org/1999/xlink" x="0px" y="0px"
	 width="612px" height="792px" viewBox="0 0 612 792" enable-background="new 0 0 612 792" xml:space="preserve">
<rect id="body_frame" x="230.5" y="301.5" fill-opacity="0" fill="#BBBCBE" width="151" height="191"/>
<path id="PRIMARY_11_" fill="#666666" stroke="#231F20" stroke-miterlimit="10" d="M371.5,364.008
	c0,15.891-14.993,126.259-33.491,126.259H271.99c-18.496,0-33.49-114.166-33.49-130.057v-27.705
	c0-15.889,14.994-28.771,33.49-28.771h66.019c18.498,0,33.491,12.882,33.491,28.771V364.008z"/>
<path id="PRIMARY_12_" fill="#666666" stroke="#231F20" stroke-miterlimit="10" d="M338.009,303.722H305.87v60.286h65.629
	c0-0.003,0-0.008,0-0.012v-31.502C371.499,316.604,356.507,303.722,338.009,303.722z"/>
<path id="PRIMARY_13_" fill="#666666" stroke="#231F20" stroke-miterlimit="10" d="M306,303.722h-34.01
	c-18.496,0-33.49,12.882-33.49,28.771v27.705c0,0.938,0.054,2.23,0.156,3.81H306V303.722z"/>
<path stroke="#231F20" stroke-miterlimit="10" d="M295.217,407.5c-0.185,0.459-0.361,0.899-0.529,1.326
	c-0.169,0.426-0.33,0.837-0.595,1.201C290,410,289,414,290,417c5,6,9,13,17,14c-8,3-8-10-16.5-8.172
	c-0.156,0.352-0.344,0.723-0.555,1.107c-1.055,1.924-2.695,4.189-3.945,6.064c1,0,2,2,3,1c0,1,0,4-2,3c-5-1,1-6-2.107-8.076
	c-0.341,0.051-0.686,0.076-1.034,0.076c-3.137,0-5.977-2.07-8.032-5.418c-0.199-0.359-0.388-0.733-0.452-1.08
	C277,418,278,416,277,414c-4-6-12-7-18-6c4-1,9,0,12.635-1.521c0.644-0.273,0.907-0.617,0.928-0.939
	c0.083-1.288,0.248-2.537,0.485-3.732c0.188-0.213,0.372-0.428,0.66-0.619C281,399,274,393,274,389c2,0,3,2,4.639,1.528
	c0.537-0.066,0.948-0.183,1.256-0.371c1.234-0.748,2.569-1.157,3.964-1.157c2.091,0,4.05,0.92,5.733,2.526
	c0.28,0.268,0.553,0.554,0.804,0.851C290,394,288,395,289,397c4,5,8,3,13,2c-1,3-4,4-6.826,5.139
	c-0.11,0.306-0.084,0.577-0.061,0.852c0.034,0.41,0.061,0.824,0.077,1.243C295.208,406.652,295.217,407.074,295.217,407.5z"/>
<path stroke="#231F20" stroke-miterlimit="10" d="M357.764,375.213c1.897,2.787,4.897,3.787,8.897,3.787c-5,0-10,1-15.01-0.107
	c-0.31,0.045-0.626,0.089-0.949,0.132c-0.97,0.127-1.998,0.24-3.077,0.336c-0.265-0.09-0.566-0.201-0.815-0.643
	c-0.766-1.812-2.354-2.416-3.921-2.617c-0.392-0.05-0.772-0.131-1.105-0.543C341.661,375,341.661,374,340.661,374
	c1,6-2,7-7.221,6.949c-0.463,0.137-0.892,0.293-1.31,0.468c-3.348,1.399-6.041,4.012-5.47,8.583c-3.2-4,0.64-6.08,2.363-8.565
	c0.216-0.311,0.398-0.627,0.529-0.956c0.527-0.62,0.734-1.022,0.754-1.27c0.033-0.255-0.119-0.357-0.151-0.488
	C328.661,376,326.661,375,323.661,376c0,0,0,2,0,3c-1,1-2-1-3-1c1-3,4-3,6-4c-4-5-3-1-9,0c1,0,2-1,3-2c-1,0-2,0-2.302-1.52
	c-0.263-0.317-0.482-0.667-0.644-1.039c-0.482-1.113-0.438-2.417,0.531-3.602c-0.398-0.082-0.805-0.105-1.211-0.059
	c-0.813,0.094-1.625,0.469-2.375,1.219c1-1,2.063-1.375,3.133-1.331c0.356,0.015,0.581,0.21,0.323,1.072
	c-0.228,1.129-0.092,2.444,0.476,3.476c0.189,0.344,0.34,0.677,0.541,0.952C318.661,372,319.661,372,320.661,372c0,2-3,1-3,3
	c4-5,13-7,14.935-0.382c0.29,0.318,0.628,0.319,0.94,0.257c0.625-0.125,1.125-0.375,1.125-0.875c-3-4-6-8-12-8
	c6,1,12,3,18.291,5.738c0.412,0.204,0.688,0.232,0.954,0.23c0.53-0.004,1.084-0.022,1.749-0.049
	c0.356,0.018,0.701,0.035,1.047,0.055c0.728,0.042,1.439,0.091,2.132,0.146c0.342,0.072,0.68,0.131,1.012,0.225
	c1.815,2.654,4.815,3.654,7.815,5.654c-2-2-3-4-1-6c2-1,2,1,2.438,2.2C357.316,374.632,357.536,374.965,357.764,375.213z"/>
<path stroke="#231F20" stroke-miterlimit="10" d="M327.911,454.048C327,454,327,455,326.601,455.957
	c-0.094,0.375-0.201,0.735-0.342,1.086C323,458,320,459,320,463c0,3,4,2,5,4c-3,1-6-1-7.153-3.652
	c-0.269-0.214-0.528-0.289-0.786-0.386c-0.785,0.11-1.598,0.168-2.431,0.168s-1.646-0.058-2.431-0.168
	c-0.262-0.037-0.521-0.08-0.775-0.128C310,459,305,464,304.216,459.023c-0.262-0.307-0.495-0.627-0.699-0.957
	c-0.609-0.992-0.947-2.083-0.947-3.228c0-0.382,0.1-0.714,1.099-0.612C307,455,309,451,308,449c-1,0-3,0-4,0c-1-4,4-5,7.115-2.731
	c0.491,0.383,0.773,0.387,1.084,0.447c0.785-0.11,1.598-0.168,2.431-0.168c1.388,0,2.721,0.161,3.961,0.458
	c0.232,0.085,0.468,0.165,0.695,0.256C320,448,320,450,321,451c2,1,7-3,7.167,2.02C328.126,453.355,328.042,453.7,327.911,454.048z"
	/>
	<path id="SECONDARY_57_" fill="#00BC03" d="M278.623,416.842c2.218-1.648,2.218-4.301,2.218-5.626
		c-2.194,0.892-2.179,3.581-3.252,5.319c-0.216,1.172-0.966,2.271-1.956,3.186c0.064,0.347,0.254,0.721,0.453,1.08
		c1.491,2.43,3.4,4.174,5.532,4.954c0.284,0.026,0.569,0.042,0.855,0.042c0,0.075-0.022,0.131-0.032,0.198
		c0.381,0.093,0.769,0.152,1.161,0.181c0.154-0.125,0.308-0.25,0.459-0.377c-0.732-0.125-1.406-0.285-2.002-0.475
		c-4.211-1.325-4.649-4.125-4.404-6.735C277.702,418.092,277.849,417.578,278.623,416.842z"/>
	<path id="SECONDARY_56_" fill="#00BC03" d="M291.69,419.724c0.109-0.097,0.174-0.255,0.237-0.435
		c-0.481-0.611-0.969-1.219-1.464-1.818c-1.087,0.788-1.456-2.155-2.816-2.246c-0.242-0.016-0.518,0.059-0.833,0.262
		c-1.08,1.032-4.341,1.032-4.341,3.683c1.646-0.669,3.293-0.324,4.867,0.081c0.011-0.026,0.015-0.054,0.025-0.081
		c0.142,0.058,0.265,0.13,0.4,0.192C289.154,419.726,290.48,420.07,291.69,419.724z"/>
	<path id="SECONDARY_55_" fill="#00BC03" d="M287.366,408.564c-0.254,0.289-0.1,0.531,0.394,0.863s1.01,0.395,1.565,0.361
		c1.107-0.065,2.477-0.38,3.515-0.272c0.302,0.107,0.518,0.347,0.626,0.8c0.279-0.043,0.57-0.072,0.886-0.07
		c0.265-0.364,0.426-0.775,0.595-1.201c0.168-0.427,0.345-0.867,0.529-1.326c0-0.426-0.009-0.848-0.026-1.267
		c-0.014-0.342-0.037-0.679-0.063-1.015c-1.699,1.162-3.864,2.053-6.551,2.337C288.368,408.027,287.876,408.289,287.366,408.564z"/>
	<path id="SECONDARY_54_" fill="#00BC03" d="M288.181,425.134c0.205,0.497,0.363,0.975,0.382,1.401
		c-0.597,0.293-1.306,0.439-1.862,0.845c-0.227,0.25-0.421,0.449-0.609,0.631c-0.001,0.024,0,0.05-0.001,0.075
		c0.339-0.072,0.896,0.004,1.551,0.096c0.924-1.354,1.869-2.762,2.563-4.027c0.211-0.385,0.398-0.756,0.555-1.107
		c0.58-0.125,1.117-0.175,1.623-0.172c-1.264-1.227-2.638-2.604-4.615-3.514c-0.142-0.037-0.283-0.074-0.426-0.111
		C286.58,421.212,287.377,423.174,288.181,425.134z"/>
	<path id="SECONDARY_53_" fill="#00BC03" d="M276.427,413.111c-0.859-2.344-3.21-4.978-0.479-7.197
		c0.815-0.663,2.039-0.663,3.467-0.548c0.475,0.038,0.974,0.089,1.486,0.132c1.179,0.313,3.309,0.391,4.987,0.41
		c0.56,0.006,1.128,0.045,1.743,0.166c0.584-0.068,0.918-0.107,1.236-0.129c-1.68-0.771-2.325-3.85-5.216-3.291
		c-0.065,0.25,0.005,0.684-0.036,1.088c-0.08,0.813-0.646,1.44-3.41,0.708c-0.736,0.018-1.381,0.095-1.95,0.222
		c-3.278,0.732-4.106,3.113-5.88,5.226C273.895,410.689,275.278,411.742,276.427,413.111z"/>
	<path id="SECONDARY_52_" fill="#00BC03" d="M279.708,397.465c0.223,0.047,0.65-0.342,0.915-0.732
		c0.615-0.251,1.064-0.543,1.395-0.857c-0.051-0.287-0.013-0.602,0.063-0.936c0.138-0.603,0.398-1.267,0.493-1.937
		c-0.205-0.622-0.515-1.186-0.718-1.598c-0.02-0.411-0.135-0.699-0.31-0.914c-0.006-0.009-0.014-0.018-0.021-0.026
		c-0.179-0.208-0.415-0.346-0.68-0.454c-0.105,0.052-0.209,0.108-0.313,0.165c0.229,0.063,0.443,0.136,0.633,0.23
		c-0.326,0.927-0.326,0.927-0.969,2.427c-0.289,0.244-0.537,0.533-0.771,0.926C279.354,396.485,279.488,397.419,279.708,397.465z"/>
	<path id="SECONDARY_51_" fill="#00BC03" d="M290.036,416.344c-0.034-0.173-0.062-0.346-0.082-0.52
		c-0.021,0-0.044,0.001-0.065,0.002c0.023,0.137,0.016,0.295-0.048,0.492C289.91,416.338,289.971,416.336,290.036,416.344z"/>
	<path id="SECONDARY_50_" fill="#00BC03" d="M281.547,390.491c0.04,0.056,0.099,0.096,0.128,0.161
		c0.884,0.73,1.012,1.546,0.899,2.352c0.307,0.934,0.364,1.995-0.557,2.873c0.05,0.283,0.186,0.54,0.456,0.76
		c0.993,1.614,1.99,3.228,3.72,4.542c-3.17-2.654-3.761-7.046,0.558-10.245c-0.034-0.475-0.271-0.881-0.783-1.225
		c-0.292-0.169-0.668-0.319-1.131-0.45c-0.238-0.024-0.478-0.04-0.72-0.04c-1.139,0-2.233,0.286-3.271,0.792
		c0.311,0.084,0.521,0.247,0.68,0.454C281.534,390.473,281.54,390.482,281.547,390.491z"/>
	<path id="SECONDARY_49_" fill="#00BC03" d="M297.053,425.04c-0.114,0.03-0.227,0.063-0.344,0.087
		c0.756,0.82,1.543,1.587,2.368,2.292C298.434,426.594,297.778,425.764,297.053,425.04z"/>
	<path id="SECONDARY_48_" fill="#00BC03" d="M279.204,403.552c0.564-0.147,1.123-0.228,1.822,0.082c0,0-0.516-0.511-1.074-0.952
		c-0.483-0.251-1.041-0.419-1.34-0.094c-0.656-0.275-1.231-0.598-1.736-0.958c-0.434-0.31-0.802-0.647-1.118-1.001
		c-0.468,0.294-1.053,0.557-1.791,0.777c-0.288,0.191-0.473,0.406-0.66,0.619c-0.236,1.195-0.401,2.444-0.484,3.732
		c-0.007,0.104-0.05,0.208-0.11,0.313C275.194,405.658,277.248,404.183,279.204,403.552z"/>
	<path id="SECONDARY_47_" fill="#00BC03" d="M267.149,407.594c-2.645,0.147-5.453,0.016-7.891,0.625
		c2.618-0.437,5.618-0.491,8.5,0.084C267.537,408.066,267.335,407.83,267.149,407.594z"/>
	<path id="SECONDARY_46_" fill="#00BC03" d="M299.077,427.419c2.105,2.702,4.104,5.329,8.182,3.8
		C303.969,430.808,301.361,429.373,299.077,427.419z"/>
	<path id="SECONDARY_45_" fill="#00BC03" d="M276.533,394.19c0.064-0.421,0.257-0.852,0.627-1.293
		c0.369-0.443,0.915-0.898,1.686-1.371c0.207-0.304,0.296-0.579,0.335-0.834c-0.097,0.017-0.177,0.042-0.283,0.055
		c-1.639,0.472-2.639-1.528-4.639-1.528c0,1.554,1.056,3.409,1.92,5.226C276.293,394.358,276.406,394.271,276.533,394.19z"/>
	<path id="SECONDARY_44_" fill="#00BC03" d="M298.783,401.938c-0.316,0.514-0.713,1.023-1.152,1.521
		c2.05-0.896,3.888-2.02,4.628-4.24c-1.43,0.286-2.775,0.65-4.065,0.912C298.563,400.63,298.783,401.217,298.783,401.938z"/>
	<path id="SECONDARY_43_" fill="#00BC03" d="M290.616,392.555c-1.408,0.238-2.362,0.944-1.619,2.755
		c0.04,0.032,0.086,0.06,0.126,0.091c0.354-0.967,1.275-1.757,1.531-2.806C290.643,392.582,290.628,392.569,290.616,392.555z"/>
	<path id="SECONDARY_42_" fill="#00BC03" d="M285.734,393.984c1.61,0,2.824-1.29,4.229-2.12c-0.039-0.038-0.073-0.082-0.112-0.119
		c-0.204-0.195-0.413-0.379-0.626-0.553C288.461,392.689,287.099,392.875,285.734,393.984z"/>
	<path id="SECONDARY_41_" fill="#00BC03" d="M285.8,415.023c0.752,0.331,2.609-0.034,3.546,0.268
		c-0.438-0.629-1.192-0.983-1.901-1.179c-0.894-0.245-1.71-0.245-1.71-0.245C285.313,414.527,285.415,414.858,285.8,415.023z"/>

	<path id="SECONDARY_40_" fill="#00BC03" d="M338.03,371.871c0.298,0.291,0.593,0.171,1.027-0.275
		c0.123-0.126,0.217-0.259,0.296-0.395c-0.674-0.284-1.346-0.56-2.014-0.826C337.562,370.854,337.789,371.353,338.03,371.871z"/>
	<path id="SECONDARY_39_" fill="#00BC03" d="M319.989,372.342c-0.513,0.506-1.025,0.981-1.537,1.292
		c0.106-0.04,0.215-0.079,0.325-0.115c-0.079,0.069-0.155,0.14-0.232,0.211c0.892-0.244,1.601-0.551,2.175-0.861
		C320.47,372.715,320.229,372.53,319.989,372.342z"/>
	<path id="SECONDARY_38_" fill="#00BC03" d="M331.803,381.417c0.084-0.035,0.178-0.061,0.264-0.094
		c-0.28-0.697-0.536-1.372-0.692-2.023c-0.1-0.582-0.125-1.146,0.308-1.8c0,0-0.642,0.443-1.208,0.939
		c-0.342,0.445-0.599,0.977-0.264,1.317c-0.39,0.615-0.823,1.142-1.294,1.595c-0.149,0.144-0.304,0.275-0.459,0.403
		c-1.808,2.349-5.186,4.419-2.124,8.246C325.762,385.429,328.455,382.816,331.803,381.417z"/>
	<path id="SECONDARY_37_" fill="#00BC03" d="M343.859,374.206c0.699,0.509,1.088,0.451,1.322,0.092
		c0.297-0.449,0.323-1.388,0.422-2.239c-0.322-0.023-0.641-0.047-0.97-0.067c-0.111,0.181-0.211,0.366-0.293,0.55
		C343.956,373.396,343.859,374.206,343.859,374.206z"/>
	<path id="SECONDARY_36_" fill="#00BC03" d="M318.452,373.634c-0.179,0.066-0.347,0.143-0.498,0.235
		c-0.204,0.044-0.398,0.093-0.621,0.13c0.204,0,0.409-0.051,0.614-0.126c-0.327,0.202-0.561,0.497-0.601,0.986
		c0.076-0.05,0.151-0.09,0.228-0.13c0.301-0.351,0.625-0.683,0.971-1c-0.181,0.049-0.377,0.092-0.573,0.136
		C318.132,373.805,318.292,373.731,318.452,373.634z"/>
	<path id="SECONDARY_35_" fill="#00BC03" d="M333.218,380.949c0.026-0.501,0.12-1.041,0.242-1.614
		c0.1-0.467,0.215-0.956,0.326-1.458c0.493-1.129,0.832-3.232,1.054-4.898c0.071-0.554,0.184-1.114,0.395-1.708
		c-0.01-0.59-0.014-0.926-0.002-1.246c-0.519,0.755-1.605,1.206-2.575,1.792c0.571,0.711,1.123,1.448,1.676,2.184
		c0,0.5-0.5,0.75-1.125,0.875c-0.313,0.063-0.65,0.061-0.94-0.257c-0.203-0.694-0.499-1.273-0.844-1.785
		c-0.392,0.488-0.628,1.095-0.546,1.926c0.276,0.1,0.778,0.088,1.232,0.184c0.913,0.188,1.56,0.837,0.402,3.482
		c-0.068,0.733-0.056,1.384,0.021,1.966c0.033,0.251,0.079,0.489,0.136,0.716c0.149-0.051,0.286-0.112,0.442-0.158
		C333.148,380.95,333.182,380.949,333.218,380.949z"/>
	<path id="SECONDARY_34_" fill="#00BC03" d="M349.494,378.161c-0.417-1.275-0.206-2.477,0.194-3.625
		c-0.823-0.615-1.566-1.306-2.171-2.189c-0.332-0.094-0.67-0.153-1.012-0.225c-0.216-0.018-0.444-0.03-0.664-0.046
		c-0.104,0.124-0.185,0.259-0.216,0.416c-0.046,0.238,0.006,0.521,0.201,0.861C346.871,374.564,346.484,377.803,349.494,378.161z"/>
	<path id="SECONDARY_33_" fill="#00BC03" d="M354.333,372c-0.636,0.636-0.967,1.272-1.06,1.908c1.071-0.045,2.165-0.269,3.262-0.518
		C356.248,372.304,355.922,371.206,354.333,372z"/>
	<path id="SECONDARY_32_" fill="#00BC03" d="M324.994,366.302c-0.82-0.189-1.698-0.302-2.661-0.302
		c0.847,0.141,1.693,0.307,2.541,0.487C324.915,366.427,324.953,366.363,324.994,366.302z"/>
	<path id="SECONDARY_31_" fill="#00BC03" d="M315.443,366.177c0.416-0.216,0.84-0.347,1.265-0.396
		c0.372-0.043,0.744-0.021,1.11,0.045c-0.077-0.108-0.201-0.151-0.353-0.157c-0.692-0.029-1.381,0.122-2.052,0.5
		C315.424,366.171,315.434,366.174,315.443,366.177z"/>
	<path id="SECONDARY_30_" fill="#00BC03" d="M317.919,365.84c-0.033-0.007-0.067-0.007-0.101-0.013
		c0.019,0.026,0.034,0.055,0.047,0.089C317.885,365.891,317.898,365.865,317.919,365.84z"/>
	<path id="SECONDARY_29_" fill="#00BC03" d="M317.382,367.164c0.122,0.042,0.232,0.085,0.343,0.129
		c0.018-0.185,0.028-0.373,0.064-0.551c0.122-0.41,0.134-0.666,0.076-0.826c-0.296,0.378-0.498,0.767-0.621,1.158
		C317.291,367.104,317.335,367.13,317.382,367.164z"/>
	<path id="SECONDARY_28_" fill="#00BC03" d="M356.437,379.403c0.175,0.001,0.35,0.011,0.524,0.01c0.02-0.12,0.046-0.238,0.061-0.358
		c0.348,0.042,0.596,0.166,0.783,0.334c0.232-0.006,0.465-0.01,0.697-0.019c-0.393-0.678-0.84-1.29-1.29-1.892
		C356.982,378.188,356.721,378.836,356.437,379.403z"/>
	<path id="SECONDARY_27_" fill="#00BC03" d="M329.5,372.039c-1.013,0.833-2.17,1.417-3.386,1.698
		c0.075,0.091,0.14,0.165,0.219,0.263c-1.036,0.518-2.339,0.771-3.494,1.308c0.051,0.051,0.102,0.104,0.151,0.162
		c0.328-0.011,0.635-0.111,0.916-0.351C325.854,374.351,327.803,373.578,329.5,372.039z"/>
	<path id="SECONDARY_26_" fill="#00BC03" d="M319.551,371.981c-0.006-0.004-0.01-0.01-0.016-0.015
		c-0.289-0.034-0.558-0.113-0.792-0.267C318.857,371.881,319.162,371.955,319.551,371.981z"/>
	<path id="SECONDARY_25_" fill="#00BC03" d="M318.743,371.7c-0.071-0.112-0.067-0.266,0.042-0.48
		c-0.296-0.339-0.581-0.71-0.851-1.118c-0.059-0.003-0.114,0.006-0.171,0.007c0.085,0.127,0.17,0.253,0.268,0.372
		C318.159,371.125,318.417,371.486,318.743,371.7z"/>
	<path id="SECONDARY_24_" fill="#00BC03" d="M322.578,375.433c-0.908,0.469-1.696,1.159-2.155,2.342
		c1.329,0.187,2.267,0.287,2.91,0.323c0-0.982,0-2.098,0-2.098c0.009-0.003,0.016-0.003,0.023-0.006
		c-0.114-0.195-0.236-0.373-0.366-0.524C322.856,375.474,322.718,375.455,322.578,375.433z"/>

	<path id="SECONDARY_23_" fill="#00BC03" d="M318.191,461.445c0.023,0.097,0.016,0.209-0.048,0.35
		c0.53,0.105,0.898-0.062,1.298-0.199c0.261-0.09,0.54-0.159,0.83-0.218c0.053-0.177,0.113-0.346,0.183-0.507
		c-0.161,0.076-0.346,0.153-0.573,0.234C319.597,461.354,318.956,461.438,318.191,461.445z"/>
	<path id="SECONDARY_22_" fill="#00BC03" d="M315.747,460.232c-0.894-0.174-1.71-0.174-1.71-0.174
		c-0.421,0.468-0.319,0.702,0.064,0.819c0.752,0.233,2.61-0.024,3.547,0.188C317.211,460.622,316.457,460.371,315.747,460.232z"/>
	<path id="SECONDARY_21_" fill="#00BC03" d="M317.171,454.451c-1.681-0.545-2.326-2.724-5.216-2.329
		c-0.065,0.177,0.004,0.483-0.037,0.771c-0.078,0.575-0.646,1.02-3.41,0.501c-0.62,0.011-1.163,0.058-1.663,0.124
		c-0.213,0.193-0.449,0.359-0.701,0.5c0.488-0.018,1.009-0.008,1.574,0.024c0.476,0.026,0.974,0.063,1.486,0.094
		c1.179,0.221,3.309,0.276,4.987,0.29c0.56,0.004,1.129,0.031,1.743,0.117C316.519,454.494,316.853,454.468,317.171,454.451z"/>
	<path id="SECONDARY_20_" fill="#00BC03" d="M315.95,461.021c-0.243-0.012-0.518,0.042-0.833,0.185
		c-0.801,0.542-2.798,0.684-3.779,1.484c0.041,0.086,0.08,0.173,0.116,0.27c0.255,0.048,0.514,0.091,0.775,0.128
		c0.785,0.11,1.598,0.168,2.431,0.168s1.646-0.058,2.431-0.168c0.258,0.097,0.518,0.172,0.786,0.386
		c0.121,0.277,0.267,0.547,0.426,0.807c0.583,0.045,1.149,0.035,1.691-0.074c0.081-0.051,0.134-0.13,0.184-0.217
		c-0.091-0.246-0.147-0.526-0.147-0.863c0-0.288,0.02-0.557,0.05-0.814c-0.371,0.039-0.731,0.085-1.073,0.143
		C317.727,463.473,317.406,461.089,315.95,461.021z"/>
	<path id="SECONDARY_19_" fill="#00BC03" d="M321.644,467.065c-0.785-0.487-1.563-1.063-2.448-1.623
		C319.881,466.163,320.72,466.734,321.644,467.065z"/>
	<path id="SECONDARY_18_" fill="#00BC03" d="M306.221,461.506c0.528,0.067,1.113,0.006,1.701-0.055
		c1.201-1.12,1.223-2.504,1.223-3.269C307.199,458.742,306.989,460.301,306.221,461.506z"/>
	<path id="SECONDARY_17_" fill="#00BC03" d="M304.836,446.131c0.007-0.029,0.021-0.061,0.03-0.092
		c-0.072,0.061-0.146,0.118-0.212,0.185C304.716,446.193,304.771,446.16,304.836,446.131z"/>
	<path id="SECONDARY_16_" fill="#00BC03" d="M304.246,459.148c0.13,0.823,0.376,1.369,0.701,1.731
		c0.673-1.929-4.198-4.429-0.701-6.446c-0.08-0.007-0.163-0.025-0.245-0.037c-0.524,0.295-0.964,0.636-1.369,1.003
		c0.074,0.985,0.384,1.927,0.915,2.792C303.751,458.521,303.984,458.842,304.246,459.148z"/>
	<path id="SECONDARY_15_" fill="#00BC03" d="M327.086,451.615c-1.631,1.877-4.893,3.753-9.947,4.131
		c-0.468,0.18-0.961,0.365-1.471,0.561c-0.254,0.203-0.099,0.375,0.395,0.61c0.494,0.235,1.01,0.278,1.564,0.255
		c1.109-0.045,2.479-0.268,3.516-0.191c0.359,0.09,0.607,0.299,0.683,0.758c0.035,0.406,0.145,0.784,0.288,1.146
		c1.139-0.793,2.626-1.262,4.176-1.717c0.141-0.351,0.248-0.711,0.342-1.086c0.399-0.957,0.399-1.957,1.311-1.909
		c0.131-0.348,0.215-0.692,0.256-1.028c-0.055-1.639-0.629-2.308-1.441-2.512C326.964,450.919,327.086,451.24,327.086,451.615z"/>
	<path id="SECONDARY_14_" fill="#00BC03" d="M309.33,452.816c0,0-0.516-0.362-1.076-0.674c-0.115-0.043-0.235-0.081-0.354-0.113
		c-0.111,0.252-0.242,0.498-0.399,0.73c0.002-0.001,0.004-0.002,0.006-0.002C308.072,452.654,308.63,452.598,309.33,452.816z"/>
	<path id="SECONDARY_13_" fill="#00BC03" d="M310.775,447.862c0.994,1.144,1.991,2.285,3.723,3.216
		c-1.903-1.127-2.866-2.694-2.403-4.262c-0.263-0.045-0.53-0.096-0.949-0.423c-0.029-0.021-0.062-0.037-0.091-0.058
		c-0.063,0.344-0.279,0.682-0.734,0.988C310.37,447.525,310.505,447.707,310.775,447.862z"/>
	<path id="SECONDARY_12_" fill="#00BC03" d="M307.729,445.826c-0.073,1.93,0.062,2.591,0.282,2.623
		c0.223,0.033,0.648-0.242,0.914-0.518c0.615-0.179,1.064-0.385,1.395-0.607c-0.051-0.203-0.013-0.426,0.063-0.662
		c0.063-0.193,0.15-0.396,0.237-0.604c-0.714-0.415-1.493-0.673-2.264-0.785C308.131,445.426,307.924,445.598,307.729,445.826z"/>
	<path id="SECONDARY_11_" fill="#00BC03" d="M319.316,447.387c-0.228-0.091-0.463-0.171-0.695-0.256
		c-0.436-0.104-0.885-0.186-1.342-0.255c0.01,0.018,0.012,0.03,0.021,0.048c0.666,0.384,1.471,0.687,2.324,0.953
		C319.536,447.688,319.439,447.514,319.316,447.387z"/>

</svg>
