<?xml version="1.0" encoding="utf-8"?>
<!-- Generator: Adobe Illustrator 16.0.0, SVG Export Plug-In . SVG Version: 6.00 Build 0)  -->
<svg version="1.1" id="Layer_1" xmlns="http://www.w3.org/2000/svg" xmlns:xlink="http://www.w3.org/1999/xlink" x="0px" y="0px"
	 width="612px" height="792px" viewBox="0 0 612 792" enable-background="new 0 0 612 792" xml:space="preserve">
<rect id="body_frame" x="205" y="269" fill-opacity="0" fill="#BBBCBE" width="202" height="256"/>
<path id="PRIMARY_11_" fill="#666666" stroke="#231F20" stroke-width="1.339" stroke-miterlimit="10" d="M393.622,352.78
	c0,21.298-20.057,169.227-44.803,169.227h-88.316c-24.743,0-44.801-153.019-44.801-174.317v-37.133
	c0-21.297,20.058-38.563,44.801-38.563h88.316c24.746,0,44.803,17.266,44.803,38.563V352.78z"/>
<path id="PRIMARY_12_" fill="#666666" stroke="#231F20" stroke-width="1.339" stroke-miterlimit="10" d="M348.819,271.979h-42.993
	v80.802h87.795c0-0.005,0-0.011,0-0.016v-42.223C393.621,289.245,373.565,271.979,348.819,271.979z"/>
<path id="PRIMARY_13_" fill="#666666" stroke="#231F20" stroke-width="1.339" stroke-miterlimit="10" d="M306,271.979h-45.497
	c-24.743,0-44.801,17.266-44.801,38.563v37.133c0,1.258,0.073,2.989,0.209,5.106H306V271.979z"/>
<path stroke="#231F20" stroke-width="1.339" stroke-miterlimit="10" d="M291.575,411.073c-0.247,0.615-0.483,1.205-0.708,1.777
	c-0.226,0.571-0.441,1.122-0.795,1.61c-5.475-0.037-6.813,5.324-5.475,9.346c6.688,8.041,12.04,17.424,22.742,18.764
	c-10.702,4.021-10.702-13.402-22.073-10.952c-0.209,0.471-0.459,0.968-0.742,1.483c-1.411,2.579-3.606,5.615-5.278,8.129
	c1.338,0,2.675,2.681,4.013,1.34c0,1.341,0,5.361-2.675,4.021c-6.689-1.341,1.337-8.042-2.819-10.825
	c-0.456,0.068-0.917,0.103-1.384,0.103c-4.196,0-7.995-2.775-10.744-7.262c-0.266-0.481-0.52-0.983-0.605-1.447
	c2.174-2.014,3.512-4.694,2.174-7.375c-5.351-8.042-16.053-9.382-24.079-8.042c5.351-1.34,12.04,0,16.902-2.039
	c0.861-0.366,1.214-0.827,1.242-1.259c0.112-1.727,0.332-3.4,0.649-5.003c0.251-0.285,0.497-0.573,0.883-0.83
	c9.754-2.932,0.39-10.974,0.39-16.335c2.676,0,4.013,2.681,6.206,2.048c0.718-0.088,1.269-0.245,1.68-0.497
	c1.651-1.002,3.437-1.551,5.302-1.551c2.797,0,5.418,1.234,7.67,3.386c0.375,0.358,0.74,0.743,1.075,1.141
	c-0.529,2.175-3.205,3.516-1.867,6.196c5.351,6.701,10.702,4.021,17.391,2.681c-1.338,4.021-5.351,5.361-9.132,6.888
	c-0.147,0.409-0.112,0.773-0.081,1.141c0.045,0.55,0.081,1.105,0.103,1.667C291.563,409.938,291.575,410.503,291.575,411.073z"/>
<path stroke="#231F20" stroke-width="1.339" stroke-miterlimit="10" d="M375.247,367.799c2.538,3.735,6.552,5.076,11.902,5.076
	c-6.688,0-13.378,1.34-20.079-0.144c-0.414,0.061-0.838,0.12-1.271,0.177c-1.297,0.17-2.673,0.321-4.116,0.45
	c-0.354-0.121-0.758-0.269-1.091-0.861c-1.024-2.429-3.149-3.238-5.245-3.508c-0.523-0.067-1.033-0.175-1.479-0.729
	c-0.163-0.747-0.163-2.087-1.501-2.087c1.338,8.042-2.676,9.382-9.66,9.314c-0.619,0.183-1.192,0.393-1.752,0.627
	c-4.478,1.875-8.081,5.377-7.316,11.504c-4.281-5.361,0.855-8.149,3.161-11.479c0.289-0.417,0.533-0.841,0.708-1.281
	c0.706-0.831,0.982-1.371,1.009-1.702c0.044-0.342-0.159-0.479-0.202-0.655c-2.001-3.647-4.676-4.987-8.689-3.647
	c0,0,0,2.681,0,4.021c-1.338,1.34-2.676-1.34-4.013-1.34c1.337-4.021,5.351-4.021,8.026-5.361c-5.352-6.702-4.014-1.34-12.04,0
	c1.338,0,2.676-1.34,4.014-2.681c-1.338,0-2.676,0-3.079-2.037c-0.352-0.426-0.646-0.895-0.861-1.392
	c-0.646-1.492-0.587-3.239,0.711-4.828c-0.533-0.11-1.077-0.141-1.62-0.078c-1.087,0.125-2.174,0.628-3.178,1.633
	c1.338-1.34,2.76-1.843,4.191-1.783c0.477,0.02,0.777,0.281,0.433,1.437c-0.305,1.514-0.123,3.275,0.636,4.659
	c0.254,0.461,0.455,0.907,0.724,1.275c-0.632,1.113,0.706,1.113,2.044,1.113c0,2.681-4.014,1.34-4.014,4.021
	c5.351-6.702,17.391-9.382,19.979-0.512c0.389,0.426,0.84,0.428,1.258,0.344c0.837-0.168,1.506-0.503,1.506-1.173
	c-4.014-5.361-8.027-10.723-16.054-10.723c8.026,1.34,16.054,4.021,24.469,7.691c0.552,0.274,0.921,0.312,1.276,0.309
	c0.71-0.006,1.45-0.029,2.34-0.065c0.477,0.023,0.938,0.047,1.4,0.073c0.974,0.056,1.926,0.122,2.853,0.196
	c0.457,0.096,0.909,0.176,1.353,0.302c2.429,3.557,6.442,4.897,10.455,7.578c-2.675-2.681-4.013-5.361-1.337-8.042
	c2.675-1.34,2.675,1.34,3.262,2.948C374.648,367.021,374.942,367.467,375.247,367.799z"/>
<path stroke="#231F20" stroke-width="1.339" stroke-miterlimit="10" d="M335.312,473.462c-1.219-0.064-1.219,1.276-1.753,2.559
	c-0.126,0.503-0.27,0.986-0.457,1.456c-4.359,1.282-8.373,2.623-8.373,7.984c0,4.021,5.351,2.681,6.688,5.361
	c-4.013,1.34-8.026-1.341-9.569-4.896c-0.359-0.287-0.707-0.388-1.052-0.517c-1.05,0.147-2.137,0.225-3.251,0.225
	s-2.201-0.077-3.252-0.225c-0.35-0.05-0.696-0.107-1.037-0.172c-1.905-5.139-8.594,1.563-9.643-5.107
	c-0.35-0.411-0.663-0.84-0.936-1.283c-0.815-1.329-1.267-2.791-1.267-4.325c0-0.512,0.133-0.957,1.47-0.821
	c4.458,1.037,7.133-4.324,5.795-7.005c-1.338,0-4.014,0-5.351,0c-1.338-5.361,5.351-6.701,9.518-3.661
	c0.657,0.514,1.035,0.519,1.45,0.6c1.051-0.147,2.138-0.225,3.252-0.225c1.856,0,3.64,0.216,5.299,0.613
	c0.311,0.114,0.625,0.222,0.93,0.343c0.955,0.99,0.955,3.671,2.293,5.011c2.676,1.34,9.364-4.021,9.588,2.707
	C335.599,472.534,335.486,472.996,335.312,473.462z"/>
<g>
	<path id="SECONDARY_57_" fill="#00BC03" d="M269.376,423.594c2.967-2.209,2.967-5.764,2.967-7.54c-2.936,1.195-2.915,4.8-4.35,7.13
		c-0.289,1.57-1.292,3.044-2.617,4.27c0.086,0.465,0.339,0.966,0.606,1.447c1.995,3.257,4.549,5.595,7.401,6.641
		c0.38,0.035,0.762,0.056,1.145,0.056c0,0.101-0.03,0.176-0.043,0.266c0.51,0.125,1.028,0.204,1.554,0.242
		c0.206-0.167,0.411-0.335,0.614-0.505c-0.98-0.168-1.881-0.383-2.678-0.637c-5.633-1.775-6.22-5.528-5.892-9.027
		C268.145,425.27,268.34,424.581,269.376,423.594z"/>
	<path id="SECONDARY_56_" fill="#00BC03" d="M286.857,427.457c0.146-0.13,0.232-0.342,0.317-0.583
		c-0.644-0.819-1.296-1.633-1.958-2.437c-1.454,1.056-1.948-2.889-3.768-3.011c-0.324-0.021-0.692,0.078-1.114,0.351
		c-1.445,1.384-5.807,1.384-5.807,4.936c2.203-0.896,4.405-0.435,6.511,0.109c0.015-0.035,0.02-0.072,0.034-0.109
		c0.189,0.078,0.354,0.175,0.536,0.258C283.465,427.459,285.239,427.922,286.857,427.457z"/>
	<path id="SECONDARY_55_" fill="#00BC03" d="M281.073,412.5c-0.34,0.388-0.133,0.712,0.526,1.157
		c0.66,0.444,1.351,0.528,2.094,0.484c1.481-0.088,3.313-0.51,4.702-0.365c0.404,0.144,0.692,0.465,0.837,1.071
		c0.374-0.057,0.763-0.097,1.185-0.094c0.354-0.488,0.569-1.039,0.795-1.61c0.225-0.571,0.461-1.162,0.708-1.777
		c0-0.57-0.012-1.136-0.035-1.697c-0.019-0.458-0.05-0.91-0.083-1.36c-2.273,1.558-5.169,2.752-8.764,3.133
		C282.413,411.78,281.754,412.131,281.073,412.5z"/>
	<path id="SECONDARY_54_" fill="#00BC03" d="M282.162,434.708c0.274,0.666,0.486,1.307,0.511,1.878
		c-0.798,0.394-1.747,0.59-2.491,1.133c-0.303,0.335-0.563,0.602-0.815,0.846c-0.001,0.032,0,0.066-0.001,0.101
		c0.453-0.097,1.198,0.005,2.075,0.128c1.236-1.813,2.5-3.701,3.429-5.397c0.282-0.516,0.533-1.014,0.742-1.484
		c0.776-0.168,1.494-0.234,2.171-0.23c-1.69-1.644-3.528-3.489-6.174-4.71c-0.189-0.049-0.379-0.099-0.57-0.148
		C280.021,429.451,281.087,432.081,282.162,434.708z"/>
	<path id="SECONDARY_53_" fill="#00BC03" d="M266.438,418.594c-1.149-3.141-4.294-6.671-0.64-9.646
		c1.091-0.889,2.728-0.889,4.638-0.734c0.635,0.052,1.302,0.119,1.988,0.177c1.577,0.419,4.426,0.524,6.672,0.55
		c0.749,0.008,1.509,0.061,2.332,0.223c0.781-0.092,1.228-0.144,1.654-0.173c-2.247-1.034-3.111-5.159-6.978-4.411
		c-0.087,0.336,0.006,0.917-0.048,1.459c-0.107,1.089-0.865,1.93-4.562,0.948c-0.985,0.023-1.847,0.127-2.609,0.298
		c-4.385,0.981-5.493,4.172-7.866,7.004C263.051,415.348,264.902,416.759,266.438,418.594z"/>
	<path id="SECONDARY_52_" fill="#00BC03" d="M270.828,397.623c0.298,0.063,0.87-0.458,1.224-0.981
		c0.823-0.337,1.424-0.728,1.865-1.149c-0.068-0.385-0.017-0.806,0.085-1.254c0.184-0.807,0.533-1.697,0.66-2.596
		c-0.274-0.833-0.688-1.59-0.96-2.142c-0.026-0.55-0.181-0.937-0.414-1.225c-0.008-0.013-0.019-0.024-0.028-0.036
		c-0.239-0.279-0.555-0.463-0.909-0.608c-0.141,0.069-0.279,0.146-0.418,0.221c0.306,0.083,0.593,0.183,0.847,0.309
		c-0.437,1.243-0.437,1.243-1.296,3.253c-0.387,0.327-0.719,0.714-1.032,1.241C270.355,396.31,270.534,397.562,270.828,397.623z"/>
	<path id="SECONDARY_51_" fill="#00BC03" d="M284.645,422.927c-0.046-0.231-0.083-0.464-0.11-0.696
		c-0.029,0-0.059,0.001-0.087,0.003c0.031,0.183,0.021,0.395-0.064,0.659C284.476,422.919,284.557,422.916,284.645,422.927z"/>
	<path id="SECONDARY_50_" fill="#00BC03" d="M273.288,388.276c0.053,0.074,0.132,0.128,0.171,0.215
		c1.182,0.979,1.354,2.072,1.203,3.152c0.41,1.251,0.487,2.674-0.745,3.85c0.067,0.38,0.249,0.724,0.61,1.019
		c1.329,2.164,2.662,4.326,4.976,6.088c-4.241-3.558-5.031-9.444,0.746-13.732c-0.045-0.636-0.363-1.181-1.047-1.641
		c-0.391-0.227-0.894-0.428-1.513-0.603c-0.319-0.033-0.639-0.053-0.963-0.053c-1.523,0-2.987,0.383-4.375,1.062
		c0.416,0.113,0.698,0.331,0.909,0.608C273.271,388.252,273.279,388.265,273.288,388.276z"/>
	<path id="SECONDARY_49_" fill="#00BC03" d="M294.031,434.582c-0.153,0.041-0.303,0.086-0.46,0.117
		c1.011,1.1,2.064,2.127,3.168,3.071C295.878,436.665,295.001,435.553,294.031,434.582z"/>
	<path id="SECONDARY_48_" fill="#00BC03" d="M270.154,405.781c0.755-0.197,1.502-0.305,2.438,0.11c0,0-0.69-0.685-1.438-1.276
		c-0.646-0.337-1.393-0.562-1.792-0.126c-0.878-0.369-1.647-0.801-2.323-1.284c-0.58-0.414-1.073-0.867-1.496-1.341
		c-0.625,0.394-1.408,0.746-2.396,1.042c-0.385,0.256-0.632,0.544-0.883,0.829c-0.316,1.603-0.537,3.276-0.648,5.003
		c-0.009,0.139-0.067,0.278-0.148,0.419C264.79,408.604,267.537,406.627,270.154,405.781z"/>
	<path id="SECONDARY_47_" fill="#00BC03" d="M254.028,411.199c-3.538,0.197-7.295,0.021-10.556,0.838
		c3.502-0.586,7.516-0.659,11.371,0.112C254.546,411.832,254.276,411.516,254.028,411.199z"/>
	<path id="SECONDARY_46_" fill="#00BC03" d="M296.739,437.771c2.817,3.622,5.491,7.144,10.945,5.094
		C303.283,442.313,299.794,440.39,296.739,437.771z"/>
	<path id="SECONDARY_45_" fill="#00BC03" d="M266.581,393.233c0.086-0.564,0.343-1.142,0.838-1.733
		c0.494-0.594,1.224-1.204,2.255-1.837c0.277-0.407,0.396-0.776,0.448-1.119c-0.129,0.023-0.236,0.056-0.379,0.074
		c-2.192,0.633-3.53-2.047-6.206-2.047c0,2.083,1.413,4.569,2.568,7.004C266.259,393.459,266.411,393.342,266.581,393.233z"/>
	<path id="SECONDARY_44_" fill="#00BC03" d="M296.346,403.618c-0.423,0.688-0.954,1.371-1.542,2.039
		c2.742-1.202,5.201-2.707,6.191-5.684c-1.913,0.384-3.713,0.872-5.438,1.223C296.052,401.865,296.346,402.651,296.346,403.618z"/>
	<path id="SECONDARY_43_" fill="#00BC03" d="M285.42,391.042c-1.884,0.319-3.16,1.265-2.166,3.693
		c0.054,0.043,0.115,0.08,0.168,0.123c0.473-1.296,1.706-2.354,2.048-3.761C285.456,391.078,285.436,391.062,285.42,391.042z"/>
	<path id="SECONDARY_42_" fill="#00BC03" d="M278.89,392.958c2.154,0,3.778-1.729,5.657-2.842c-0.052-0.051-0.098-0.109-0.15-0.16
		c-0.273-0.261-0.552-0.508-0.837-0.741C282.537,391.222,280.715,391.472,278.89,392.958z"/>
	<path id="SECONDARY_41_" fill="#00BC03" d="M278.977,421.157c1.006,0.443,3.491-0.046,4.744,0.358
		c-0.585-0.843-1.595-1.318-2.543-1.58c-1.195-0.328-2.288-0.328-2.288-0.328C278.327,420.492,278.462,420.936,278.977,421.157z"/>
</g>
<g>
	<path id="SECONDARY_40_" fill="#00BC03" d="M348.849,363.319c0.398,0.39,0.793,0.229,1.374-0.369
		c0.165-0.169,0.29-0.347,0.396-0.529c-0.901-0.381-1.8-0.75-2.693-1.107C348.222,361.956,348.525,362.625,348.849,363.319z"/>
	<path id="SECONDARY_39_" fill="#00BC03" d="M324.714,363.95c-0.686,0.678-1.371,1.315-2.056,1.732
		c0.142-0.054,0.287-0.105,0.435-0.154c-0.105,0.092-0.208,0.188-0.311,0.283c1.192-0.328,2.141-0.739,2.909-1.155
		C325.356,364.451,325.035,364.202,324.714,363.95z"/>
	<path id="SECONDARY_38_" fill="#00BC03" d="M340.518,376.114c0.112-0.047,0.237-0.081,0.353-0.126
		c-0.375-0.935-0.717-1.838-0.926-2.712c-0.134-0.779-0.168-1.536,0.411-2.412c0,0-0.858,0.594-1.616,1.258
		c-0.457,0.597-0.801,1.309-0.353,1.766c-0.521,0.825-1.102,1.531-1.73,2.138c-0.2,0.193-0.406,0.369-0.614,0.54
		c-2.418,3.148-6.938,5.923-2.842,11.052C332.437,381.491,336.039,377.989,340.518,376.114z"/>
	<path id="SECONDARY_37_" fill="#00BC03" d="M356.646,366.449c0.936,0.682,1.455,0.605,1.769,0.123c0.397-0.602,0.433-1.86,0.564-3
		c-0.431-0.031-0.857-0.063-1.297-0.09c-0.149,0.242-0.282,0.49-0.393,0.737C356.775,365.362,356.646,366.449,356.646,366.449z"/>
	<path id="SECONDARY_36_" fill="#00BC03" d="M322.658,365.683c-0.239,0.089-0.464,0.191-0.667,0.315
		c-0.272,0.06-0.532,0.125-0.83,0.175c0.272,0,0.547-0.068,0.821-0.169c-0.438,0.271-0.75,0.666-0.804,1.322
		c0.103-0.066,0.203-0.12,0.305-0.174c0.402-0.47,0.836-0.916,1.299-1.34c-0.242,0.066-0.505,0.124-0.768,0.182
		C322.229,365.911,322.443,365.813,322.658,365.683z"/>
	<path id="SECONDARY_35_" fill="#00BC03" d="M342.41,375.486c0.035-0.672,0.161-1.396,0.324-2.164
		c0.134-0.626,0.287-1.282,0.437-1.954c0.659-1.514,1.113-4.333,1.409-6.565c0.096-0.742,0.246-1.494,0.528-2.29
		c-0.014-0.791-0.019-1.241-0.003-1.67c-0.693,1.012-2.147,1.617-3.445,2.401c0.765,0.953,1.503,1.94,2.242,2.927
		c0,0.67-0.669,1.005-1.505,1.173c-0.418,0.083-0.87,0.082-1.258-0.344c-0.272-0.931-0.668-1.707-1.129-2.392
		c-0.524,0.654-0.84,1.468-0.73,2.582c0.37,0.134,1.041,0.119,1.648,0.246c1.222,0.252,2.087,1.122,0.539,4.667
		c-0.092,0.983-0.075,1.855,0.028,2.635c0.044,0.336,0.105,0.655,0.182,0.96c0.2-0.068,0.383-0.15,0.592-0.212
		C342.317,375.487,342.362,375.486,342.41,375.486z"/>
	<path id="SECONDARY_34_" fill="#00BC03" d="M364.185,371.75c-0.559-1.709-0.276-3.319,0.26-4.859
		c-1.102-0.824-2.096-1.75-2.904-2.935c-0.444-0.125-0.896-0.206-1.354-0.302c-0.289-0.023-0.595-0.04-0.889-0.062
		c-0.14,0.166-0.246,0.348-0.288,0.558c-0.062,0.319,0.008,0.699,0.269,1.154C360.675,366.929,360.158,371.271,364.185,371.75z"/>
	<path id="SECONDARY_33_" fill="#00BC03" d="M370.657,363.492c-0.851,0.853-1.293,1.706-1.417,2.558
		c1.433-0.061,2.896-0.36,4.363-0.694C373.219,363.899,372.783,362.428,370.657,363.492z"/>
	<path id="SECONDARY_32_" fill="#00BC03" d="M331.409,355.854c-1.097-0.253-2.271-0.404-3.56-0.404
		c1.133,0.189,2.266,0.412,3.399,0.653C331.304,356.022,331.354,355.937,331.409,355.854z"/>
	<path id="SECONDARY_31_" fill="#00BC03" d="M318.633,355.688c0.557-0.29,1.123-0.465,1.691-0.531
		c0.498-0.058,0.996-0.028,1.485,0.061c-0.103-0.145-0.269-0.202-0.472-0.21c-0.926-0.039-1.847,0.163-2.744,0.669
		C318.606,355.68,318.62,355.684,318.633,355.688z"/>
	<path id="SECONDARY_30_" fill="#00BC03" d="M321.944,355.235c-0.044-0.009-0.09-0.009-0.135-0.018
		c0.025,0.035,0.046,0.073,0.063,0.119C321.898,355.304,321.917,355.269,321.944,355.235z"/>
	<path id="SECONDARY_29_" fill="#00BC03" d="M321.226,357.01c0.164,0.056,0.312,0.115,0.459,0.173
		c0.023-0.248,0.038-0.5,0.086-0.739c0.163-0.549,0.18-0.892,0.103-1.107c-0.396,0.507-0.667,1.027-0.831,1.552
		C321.104,356.931,321.163,356.965,321.226,357.01z"/>
	<path id="SECONDARY_28_" fill="#00BC03" d="M373.472,373.415c0.233,0.001,0.468,0.015,0.701,0.013
		c0.026-0.16,0.062-0.318,0.081-0.479c0.465,0.056,0.797,0.222,1.048,0.448c0.311-0.008,0.622-0.013,0.933-0.025
		c-0.525-0.908-1.123-1.729-1.726-2.535C374.201,371.787,373.852,372.654,373.472,373.415z"/>
	<path id="SECONDARY_27_" fill="#00BC03" d="M337.438,363.544c-1.355,1.117-2.903,1.9-4.529,2.276
		c0.101,0.122,0.187,0.22,0.292,0.352c-1.386,0.694-3.129,1.033-4.674,1.752c0.067,0.069,0.136,0.14,0.202,0.217
		c0.439-0.015,0.85-0.148,1.226-0.47C332.561,366.643,335.167,365.607,337.438,363.544z"/>
	<path id="SECONDARY_26_" fill="#00BC03" d="M324.128,363.467c-0.008-0.006-0.014-0.014-0.021-0.02
		c-0.387-0.046-0.746-0.152-1.06-0.358C323.2,363.333,323.607,363.432,324.128,363.467z"/>
	<path id="SECONDARY_25_" fill="#00BC03" d="M323.047,363.09c-0.095-0.15-0.09-0.357,0.057-0.644
		c-0.396-0.454-0.777-0.952-1.138-1.499c-0.079-0.004-0.153,0.008-0.229,0.01c0.114,0.17,0.228,0.339,0.358,0.498
		C322.266,362.319,322.61,362.803,323.047,363.09z"/>
	<path id="SECONDARY_24_" fill="#00BC03" d="M328.178,368.094c-1.215,0.629-2.27,1.553-2.884,3.139
		c1.778,0.25,3.032,0.384,3.894,0.433c0-1.316,0-2.812,0-2.812c0.012-0.004,0.021-0.005,0.031-0.009
		c-0.153-0.262-0.316-0.499-0.49-0.703C328.55,368.148,328.364,368.123,328.178,368.094z"/>
</g>
<g>
	<path id="SECONDARY_23_" fill="#00BC03" d="M322.309,483.377c0.032,0.13,0.021,0.28-0.063,0.469
		c0.709,0.142,1.202-0.083,1.736-0.268c0.349-0.12,0.723-0.213,1.11-0.291c0.07-0.237,0.151-0.464,0.244-0.68
		c-0.216,0.102-0.463,0.205-0.767,0.314C324.188,483.254,323.332,483.368,322.309,483.377z"/>
	<path id="SECONDARY_22_" fill="#00BC03" d="M319.039,481.751c-1.195-0.232-2.287-0.232-2.287-0.232
		c-0.563,0.627-0.428,0.94,0.086,1.098c1.006,0.313,3.492-0.032,4.745,0.253C320.997,482.273,319.989,481.938,319.039,481.751z"/>
	<path id="SECONDARY_21_" fill="#00BC03" d="M320.943,474.003c-2.248-0.73-3.111-3.651-6.977-3.122
		c-0.088,0.237,0.005,0.647-0.05,1.033c-0.104,0.771-0.865,1.366-4.563,0.671c-0.829,0.015-1.556,0.077-2.225,0.166
		c-0.285,0.26-0.601,0.482-0.938,0.671c0.653-0.024,1.35-0.011,2.106,0.032c0.637,0.035,1.303,0.085,1.988,0.126
		c1.577,0.296,4.426,0.37,6.672,0.389c0.749,0.005,1.51,0.042,2.332,0.157C320.071,474.061,320.518,474.024,320.943,474.003z"/>
	<path id="SECONDARY_20_" fill="#00BC03" d="M319.311,482.808c-0.325-0.016-0.692,0.057-1.114,0.247
		c-1.071,0.727-3.742,0.916-5.056,1.99c0.055,0.115,0.107,0.231,0.155,0.361c0.341,0.063,0.688,0.121,1.038,0.171
		c1.05,0.147,2.137,0.226,3.251,0.226s2.201-0.078,3.252-0.226c0.345,0.13,0.692,0.23,1.052,0.517
		c0.162,0.372,0.356,0.733,0.569,1.082c0.78,0.06,1.537,0.047,2.263-0.1c0.108-0.068,0.179-0.175,0.245-0.291
		c-0.121-0.33-0.197-0.705-0.197-1.157c0-0.386,0.026-0.746,0.067-1.091c-0.497,0.052-0.979,0.113-1.437,0.19
		C321.688,486.094,321.259,482.899,319.311,482.808z"/>
	<path id="SECONDARY_19_" fill="#00BC03" d="M326.927,490.91c-1.05-0.653-2.091-1.425-3.274-2.176
		C324.569,489.7,325.691,490.466,326.927,490.91z"/>
	<path id="SECONDARY_18_" fill="#00BC03" d="M306.295,483.458c0.707,0.091,1.489,0.008,2.276-0.073
		c1.606-1.501,1.636-3.356,1.636-4.381C307.604,479.754,307.323,481.843,306.295,483.458z"/>
	<path id="SECONDARY_17_" fill="#00BC03" d="M304.443,462.851c0.009-0.039,0.027-0.081,0.041-0.123
		c-0.097,0.081-0.196,0.158-0.284,0.247C304.282,462.935,304.356,462.89,304.443,462.851z"/>
	<path id="SECONDARY_16_" fill="#00BC03" d="M303.654,480.299c0.174,1.103,0.503,1.835,0.938,2.32c0.9-2.585-5.616-5.936-0.938-8.64
		c-0.107-0.01-0.218-0.034-0.328-0.05c-0.702,0.395-1.29,0.852-1.832,1.344c0.1,1.32,0.514,2.583,1.224,3.742
		C302.991,479.458,303.304,479.888,303.654,480.299z"/>
	<path id="SECONDARY_15_" fill="#00BC03" d="M334.208,470.201c-2.182,2.516-6.545,5.03-13.308,5.537
		c-0.625,0.241-1.285,0.489-1.967,0.751c-0.34,0.272-0.132,0.503,0.527,0.818c0.661,0.315,1.351,0.373,2.093,0.342
		c1.484-0.061,3.315-0.358,4.703-0.257c0.48,0.12,0.813,0.4,0.913,1.016c0.047,0.545,0.193,1.051,0.386,1.537
		c1.523-1.063,3.513-1.691,5.586-2.302c0.188-0.47,0.332-0.952,0.457-1.455c0.534-1.282,0.534-2.623,1.754-2.559
		c0.175-0.466,0.287-0.929,0.342-1.379c-0.073-2.196-0.841-3.093-1.929-3.366C334.044,469.269,334.208,469.699,334.208,470.201z"/>
	<path id="SECONDARY_14_" fill="#00BC03" d="M310.455,471.812c0,0-0.69-0.485-1.439-0.903c-0.154-0.058-0.315-0.108-0.475-0.151
		c-0.149,0.337-0.324,0.667-0.534,0.979c0.002-0.001,0.005-0.002,0.008-0.002C308.772,471.594,309.519,471.519,310.455,471.812z"/>
	<path id="SECONDARY_13_" fill="#00BC03" d="M312.389,465.172c1.329,1.532,2.663,3.063,4.979,4.31
		c-2.546-1.511-3.834-3.611-3.215-5.712c-0.352-0.061-0.71-0.128-1.27-0.566c-0.04-0.029-0.083-0.05-0.122-0.077
		c-0.085,0.46-0.373,0.913-0.982,1.324C311.846,464.72,312.026,464.963,312.389,465.172z"/>
	<path id="SECONDARY_12_" fill="#00BC03" d="M308.313,462.442c-0.098,2.586,0.082,3.473,0.378,3.516
		c0.298,0.045,0.867-0.324,1.223-0.693c0.823-0.24,1.424-0.516,1.865-0.814c-0.067-0.272-0.017-0.57,0.085-0.888
		c0.084-0.259,0.201-0.531,0.317-0.81c-0.955-0.557-1.997-0.902-3.028-1.053C308.851,461.906,308.573,462.136,308.313,462.442z"/>
	<path id="SECONDARY_11_" fill="#00BC03" d="M323.814,464.534c-0.305-0.122-0.62-0.229-0.931-0.343
		c-0.583-0.139-1.184-0.249-1.795-0.342c0.013,0.023,0.016,0.04,0.028,0.064c0.892,0.514,1.968,0.92,3.109,1.277
		C324.108,464.938,323.979,464.704,323.814,464.534z"/>
</g>
</svg>
