<?xml version="1.0" encoding="utf-8"?>
<!-- Generator: Adobe Illustrator 16.0.0, SVG Export Plug-In . SVG Version: 6.00 Build 0)  -->
<svg version="1.1" id="Layer_1" xmlns="http://www.w3.org/2000/svg" xmlns:xlink="http://www.w3.org/1999/xlink" x="0px" y="0px"
	 width="612px" height="792px" viewBox="0 0 612 792" enable-background="new 0 0 612 792" xml:space="preserve">
<rect x="179" y="272.347" fill-opacity="0" fill="#231F20" width="256" height="248.815"/>
<path id="PRIMARY_3_" fill="#00BC03" stroke="#231F20" stroke-width="3.171" stroke-miterlimit="10" d="M367.586,463.64
	c0,30.529-28.185,55.282-62.956,55.282l0,0c-34.771,0-62.957-24.753-62.957-55.282v-72.501
	c-2.097-60.533,31.616-93.147,191.747-68.829v138.484C433.42,460.794,367.586,433.11,367.586,463.64L367.586,463.64z"/>
<path fill="none" stroke="#231F20" stroke-width="3.171" stroke-miterlimit="10" d="M416.577,454.822
	c0-60.144-2.892-135.764-6.466-135.764"/>
<path fill="none" stroke="#231F20" stroke-width="3.171" stroke-miterlimit="10" d="M390.753,449.618
	c0-63.344-4.691-133.72-10.493-133.72"/>
<path fill="none" stroke="#231F20" stroke-width="3.171" stroke-miterlimit="10" d="M368.596,457.86
	c0-75.684-13.306-141.962-25.25-141.962"/>
<path fill="none" stroke="#231F20" stroke-width="3.171" stroke-miterlimit="10" d="M343.346,507.215
	c0-105.746-11.543-191.316-25.809-191.316"/>
<path fill="none" stroke="#231F20" stroke-width="3.171" stroke-miterlimit="10" d="M317.537,517.757
	c0-109.579-9.309-198.25-20.809-198.25"/>
<path fill="none" stroke="#231F20" stroke-width="3.171" stroke-miterlimit="10" d="M291.716,517.757
	c0-108.029-3.802-195.447-8.501-195.447"/>
<path fill="none" stroke="#231F20" stroke-width="3.171" stroke-miterlimit="10" d="M257.755,500.531
	c0-93.923,3.87-169.926,8.652-169.926"/>
<polygon id="SECONDARY_56_" fill="#005601" points="402.679,355.276 392.071,355.655 401.87,311.634 414.719,354.848 "/>
<polygon id="SECONDARY_57_" fill="#005601" points="354.756,336.815 344.216,335.561 360.568,293.558 366.719,338.239 "/>
<polygon id="SECONDARY_58_" fill="#005601" points="286.27,396.706 276.586,401.084 269.171,356.595 297.259,391.74 "/>
<polygon id="SECONDARY_59_" fill="#005601" points="305.347,345.948 294.738,346.327 304.537,302.306 317.386,345.519 "/>
<polygon id="SECONDARY_60_" fill="#005601" points="247.074,439.424 237.437,443.904 229.553,399.496 258.011,434.341 "/>
<polygon id="SECONDARY_61_" fill="#005601" points="282.037,485.976 271.761,483.294 293.624,443.914 293.697,489.021 "/>
<polygon id="SECONDARY_62_" fill="#005601" points="347.05,467.902 337.111,471.655 332.487,426.785 358.327,463.64 "/>
<polygon id="SECONDARY_63_" fill="#005601" points="353.654,402.756 343.346,405.31 343.99,360.204 365.352,399.856 "/>
<polygon id="SECONDARY_64_" fill="#005601" points="387.976,422.994 380.26,415.649 418.29,391.786 396.726,431.327 "/>
</svg>
