<?xml version="1.0" encoding="utf-8"?>
<!-- Generator: Adobe Illustrator 16.0.0, SVG Export Plug-In . SVG Version: 6.00 Build 0)  -->
<svg version="1.1" id="Layer_1" xmlns="http://www.w3.org/2000/svg" xmlns:xlink="http://www.w3.org/1999/xlink" x="0px" y="0px"
	 width="612px" height="792px" viewBox="0 0 612 792" enable-background="new 0 0 612 792" xml:space="preserve">
<rect x="266.5" y="352.008" fill-opacity="0" fill="#231F20" width="81" height="89.313"/>
<path id="PRIMARY_4_" fill="#00BC03" stroke="#231F20" stroke-miterlimit="10" d="M326.832,420.136
	c0,11.143-9.215,20.176-20.582,20.176l0,0c-11.368,0-20.583-9.033-20.583-20.176v-47.672c0-11.143,9.215-20.176,20.583-20.176l0,0
	c11.367,0,20.582,9.033,20.582,20.176V420.136z"/>
<circle fill="none" stroke="#231F20" stroke-miterlimit="10" cx="306.25" cy="360.11" r="2.5"/>
<circle fill="none" stroke="#231F20" stroke-miterlimit="10" cx="306.25" cy="433.75" r="2.5"/>
<path fill="none" stroke="#231F20" stroke-miterlimit="10" d="M319.152,435.851c0-45.115,0.711-80.216-1.549-80.216"/>
<path fill="none" stroke="#231F20" stroke-miterlimit="10" d="M310.286,439.921c0-48.438,0.694-87.48-1.536-87.48"/>
<path fill="none" stroke="#231F20" stroke-miterlimit="10" d="M300.819,439.598c0-47.187-0.756-86.136-1.499-86.136"/>
<path fill="none" stroke="#231F20" stroke-miterlimit="10" d="M291.5,434.2c0-42.556,0.576-76.991,1.288-76.991"/>
<polygon id="SECONDARY_65_" fill="#005601" points="323.433,421.203 320.488,419.586 330.242,409.293 326.772,423.041 "/>
<polygon id="SECONDARY_66_" fill="#005601" points="321.18,380.182 318.268,378.509 328.213,368.402 324.485,382.081 "/>
<polygon id="SECONDARY_67_" fill="#005601" points="322.111,405.65 318.797,405.104 324.571,392.153 325.873,406.271 "/>
<polygon id="SECONDARY_68_" fill="#005601" points="287.983,381.135 284.918,382.508 282.588,368.521 291.462,379.578 "/>
<polygon id="SECONDARY_69_" fill="#005601" points="292.146,404.555 289.619,406.768 283.285,394.082 295.015,402.045 "/>
<polygon id="SECONDARY_70_" fill="#005601" points="294.376,427.602 291.299,428.949 289.084,414.943 297.867,426.074 "/>
<polygon id="SECONDARY_71_" fill="#005601" points="314.19,422.236 310.834,422.355 313.934,408.519 318,422.102 "/>
<polygon id="SECONDARY_72_" fill="#005601" points="302.163,414.033 298.897,413.246 305.601,400.752 305.868,414.927 "/>
<polygon id="SECONDARY_73_" fill="#005601" points="313.333,396.757 310.104,397.684 309.77,383.508 316.996,395.706 "/>
<polygon id="SECONDARY_74_" fill="#005601" points="302.894,387.197 299.537,387.316 302.638,373.479 306.703,387.062 "/>
</svg>
