<?xml version="1.0" encoding="utf-8"?>
<!-- Generator: Adobe Illustrator 16.0.0, SVG Export Plug-In . SVG Version: 6.00 Build 0)  -->
<svg version="1.1" id="Layer_1" xmlns="http://www.w3.org/2000/svg" xmlns:xlink="http://www.w3.org/1999/xlink" x="0px" y="0px"
	 width="612px" height="792px" viewBox="0 0 612 792" enable-background="new 0 0 612 792" xml:space="preserve">
<rect x="179" y="310.562" fill-opacity="0" fill="#231F20" width="256" height="171.423"/>
<path id="PRIMARY_5_" fill="#00BC03" stroke="#231F20" stroke-width="3.1533" stroke-miterlimit="10" d="M351.667,388.717
	c0,24.591-21.063,44.528-47.037,44.528l0,0c-25.977,0-47.036-19.937-47.036-44.528v-33.704c0-24.591,21.059-44.528,47.036-44.528
	l0,0c25.975,0,47.037,19.937,47.037,44.528V388.717z"/>
<path fill="none" stroke="#231F20" stroke-width="3.1533" stroke-miterlimit="10" d="M337.5,417.527
	c0-59.54-4.617-100.75-10.327-100.75"/>
<path fill="none" stroke="#231F20" stroke-width="3.1533" stroke-miterlimit="10" d="M304.63,433.168c0-71.346,0-122.683,0-122.683"
	/>
<path fill="none" stroke="#231F20" stroke-width="3.1533" stroke-miterlimit="10" d="M271.769,419.834
	c0-63.346,1.654-100.816,5.177-100.816"/>
<polygon id="SECONDARY_75_" fill="#005601" points="318.979,356.181 308.583,354.024 328.521,314.075 330.771,358.62 "/>
<polygon id="SECONDARY_76_" fill="#005601" points="289.222,370.338 279.758,375.125 270.233,331.533 299.963,364.909 "/>
<polygon id="SECONDARY_80_" fill="#005601" points="304.839,406.636 294.806,403.186 319.679,366.077 316.226,410.556 "/>
</svg>
