<?xml version="1.0" encoding="utf-8"?>
<!-- Generator: Adobe Illustrator 16.0.0, SVG Export Plug-In . SVG Version: 6.00 Build 0)  -->
<svg version="1.1" id="Layer_1" xmlns="http://www.w3.org/2000/svg" xmlns:xlink="http://www.w3.org/1999/xlink" x="0px" y="0px"
	 width="612px" height="792px" viewBox="0 0 612 792" enable-background="new 0 0 612 792" xml:space="preserve">
<rect x="266.5" y="357.651" fill-opacity="0" fill="#231F20" width="81" height="78.206"/>
<path id="PRIMARY_3_" fill="#00BC03" stroke="#231F20" stroke-miterlimit="10" d="M326.17,417.777
	c0,9.596-8.918,17.376-19.92,17.376l0,0c-11.001,0-19.92-7.78-19.92-17.376v-22.788c-0.664-19.026,10.003-29.277,60.67-21.634
	v43.527C347,416.883,326.17,408.182,326.17,417.777L326.17,417.777z"/>
<path fill="none" stroke="#231F20" stroke-miterlimit="10" d="M341.671,415.006c0-18.904-0.915-42.672-2.046-42.672"/>
<path fill="none" stroke="#231F20" stroke-miterlimit="10" d="M333.5,413.37c0-19.91-1.484-42.03-3.32-42.03"/>
<path fill="none" stroke="#231F20" stroke-miterlimit="10" d="M326.489,415.961c0-23.789-4.21-44.621-7.989-44.621"/>
<path fill="none" stroke="#231F20" stroke-miterlimit="10" d="M318.5,431.474c0-33.237-3.652-60.133-8.166-60.133"/>
<path fill="none" stroke="#231F20" stroke-miterlimit="10" d="M310.334,434.787c0-34.442-2.945-62.313-6.584-62.313"/>
<path fill="none" stroke="#231F20" stroke-miterlimit="10" d="M302.164,434.787c0-33.955-1.203-61.432-2.69-61.432"/>
<path fill="none" stroke="#231F20" stroke-miterlimit="10" d="M291.418,429.373c0-29.521,1.225-53.41,2.738-53.41"/>
<polygon id="SECONDARY_56_" fill="#005601" points="337.273,383.717 333.917,383.836 337.018,370 341.083,383.583 "/>
<polygon id="SECONDARY_57_" fill="#005601" points="322.11,377.915 318.775,377.521 323.949,364.318 325.896,378.362 "/>
<polygon id="SECONDARY_58_" fill="#005601" points="300.441,396.739 297.377,398.115 295.031,384.132 303.918,395.178 "/>
<polygon id="SECONDARY_59_" fill="#005601" points="306.477,380.785 303.12,380.904 306.221,367.068 310.286,380.65 "/>
<polygon id="SECONDARY_60_" fill="#005601" points="288.039,410.166 284.99,411.574 282.495,397.616 291.5,408.568 "/>
<polygon id="SECONDARY_61_" fill="#005601" points="299.102,424.798 295.85,423.955 302.768,411.577 302.791,425.755 "/>
<polygon id="SECONDARY_62_" fill="#005601" points="319.672,419.117 316.527,420.297 315.064,406.193 323.24,417.777 "/>
<polygon id="SECONDARY_63_" fill="#005601" points="321.762,398.641 318.5,399.443 318.704,385.266 325.463,397.729 "/>
<polygon id="SECONDARY_64_" fill="#005601" points="332.621,405.002 330.18,402.693 342.213,395.193 335.39,407.621 "/>
</svg>
