<?xml version="1.0" encoding="utf-8"?>
<!-- Generator: Adobe Illustrator 16.0.0, SVG Export Plug-In . SVG Version: 6.00 Build 0)  -->
<svg version="1.1" id="Layer_1" xmlns="http://www.w3.org/2000/svg" xmlns:xlink="http://www.w3.org/1999/xlink" x="0px" y="0px"
	 width="612px" height="792px" viewBox="0 0 612 792" enable-background="new 0 0 612 792" xml:space="preserve">
<rect x="192" y="268.945" fill-opacity="0" fill="#231F20" width="230" height="255.438"/>
<path id="PRIMARY_4_" fill="#00BC03" stroke="#231F20" stroke-width="2.8498" stroke-miterlimit="10" d="M363.313,463.794
	c0,31.868-26.166,57.703-58.443,57.703l0,0c-32.278,0-58.445-25.835-58.445-57.703V327.449c0-31.868,26.167-57.704,58.445-57.704
	l0,0c32.277,0,58.443,25.835,58.443,57.704V463.794z"/>
<ellipse fill="none" stroke="#231F20" stroke-width="2.8498" stroke-miterlimit="10" cx="304.87" cy="292.118" rx="7.099" ry="7.15"/>
<ellipse fill="none" stroke="#231F20" stroke-width="2.8498" stroke-miterlimit="10" cx="304.87" cy="502.731" rx="7.099" ry="7.149"/>
<path fill="none" stroke="#231F20" stroke-width="2.8498" stroke-miterlimit="10" d="M341.507,508.739
	c0-129.032,2.019-229.421-4.398-229.421"/>
<path fill="none" stroke="#231F20" stroke-width="2.8498" stroke-miterlimit="10" d="M316.331,520.38
	c0-138.533,1.972-250.196-4.362-250.196"/>
<path fill="none" stroke="#231F20" stroke-width="2.8498" stroke-miterlimit="10" d="M289.45,519.456
	c0-134.956-2.146-246.352-4.257-246.352"/>
<path fill="none" stroke="#231F20" stroke-width="2.8498" stroke-miterlimit="10" d="M262.986,504.019
	c0-121.71,1.636-220.198,3.656-220.198"/>
<polygon id="SECONDARY_65_" fill="#005601" points="353.66,466.847 345.3,462.222 372.996,432.783 363.145,472.104 "/>
<polygon id="SECONDARY_66_" fill="#005601" points="347.264,349.525 338.994,344.741 367.234,315.833 356.649,354.956 "/>
<polygon id="SECONDARY_67_" fill="#005601" points="349.908,422.365 340.497,420.801 356.894,383.762 360.59,424.142 "/>
<polygon id="SECONDARY_68_" fill="#005601" points="253.002,352.25 244.298,356.177 237.683,316.172 262.881,347.798 "/>
<polygon id="SECONDARY_69_" fill="#005601" points="264.823,419.231 257.647,425.561 239.66,389.278 272.968,412.054 "/>
<polygon id="SECONDARY_70_" fill="#005601" points="271.154,485.146 262.417,489.001 256.129,448.943 281.067,480.778 "/>
<polygon id="SECONDARY_71_" fill="#005601" points="327.417,469.802 317.887,470.143 326.688,430.568 338.234,469.416 "/>
<polygon id="SECONDARY_72_" fill="#005601" points="293.264,446.341 283.991,444.089 303.026,408.355 303.785,448.896 "/>
<polygon id="SECONDARY_73_" fill="#005601" points="324.982,396.929 315.815,399.58 314.864,359.038 335.384,393.923 "/>
<polygon id="SECONDARY_74_" fill="#005601" points="295.341,369.587 285.809,369.928 294.613,330.355 306.157,369.202 "/>
</svg>
