<?xml version="1.0" encoding="utf-8"?>
<!-- Generator: Adobe Illustrator 16.0.0, SVG Export Plug-In . SVG Version: 6.00 Build 0)  -->
<svg version="1.1" id="Layer_1" xmlns="http://www.w3.org/2000/svg" xmlns:xlink="http://www.w3.org/1999/xlink" x="0px" y="0px"
	 width="612px" height="792px" viewBox="0 0 612 792" enable-background="new 0 0 612 792" xml:space="preserve">
<rect x="178" y="311.248" fill-opacity="0" fill="#231F20" width="256" height="172"/>
<path id="SECONDARY_2_" fill="#005601" d="M256.96,395l-6.456,5.326c1.381,13.588,9.164,25.398,20.458,32.667l3.282-8.475
	C264.874,417.383,258.455,406.916,256.96,395z"/>
<path id="SECONDARY_1_" fill="#005601" d="M303.629,434.344c-6.704,0-13.068-1.354-18.839-3.755l-1.312,5.715
	c6.116,2.763,12.929,4.353,20.151,4.353c6.806,0,13.253-1.402,19.093-3.871l-1.661-5.647
	C315.667,433.185,309.793,434.344,303.629,434.344z"/>
<path id="SECONDARY" fill="#005601" d="M349.54,399.303c-2.769,11.941-10.567,22.06-21.176,28.312l2.599,8.292
	c12.587-5.986,21.96-17.146,24.976-30.574L349.54,399.303z"/>
</svg>
