<?xml version="1.0" encoding="utf-8"?>
<!-- Generator: Adobe Illustrator 16.0.0, SVG Export Plug-In . SVG Version: 6.00 Build 0)  -->
<svg version="1.1" id="Layer_1" xmlns="http://www.w3.org/2000/svg" xmlns:xlink="http://www.w3.org/1999/xlink" x="0px" y="0px"
	 width="612px" height="792px" viewBox="0 0 612 792" enable-background="new 0 0 612 792" xml:space="preserve">
<rect x="265.5" y="370.004" fill-opacity="0" fill="#231F20" width="81" height="54.487"/>
<path id="SECONDARY_2_" fill="#005601" d="M290.483,396.536l-2.042,1.687c0.437,4.305,2.899,8.046,6.473,10.349l1.039-2.685
	C292.987,403.626,290.957,400.311,290.483,396.536z"/>
<path id="SECONDARY_1_" fill="#005601" d="M305.25,408.999c-2.121,0-4.135-0.429-5.961-1.189l-0.415,1.811
	c1.935,0.875,4.091,1.379,6.376,1.379c2.153,0,4.193-0.444,6.041-1.227l-0.525-1.789C309.059,408.632,307.2,408.999,305.25,408.999z
	"/>
<path id="SECONDARY" fill="#005601" d="M319.776,397.898c-0.876,3.783-3.344,6.988-6.7,8.969l0.822,2.627
	c3.982-1.896,6.948-5.432,7.902-9.686L319.776,397.898z"/>
</svg>
