<?xml version="1.0" encoding="utf-8"?>
<!-- Generator: Adobe Illustrator 16.0.0, SVG Export Plug-In . SVG Version: 6.00 Build 0)  -->
<svg version="1.1" id="Layer_1" xmlns="http://www.w3.org/2000/svg" xmlns:xlink="http://www.w3.org/1999/xlink" x="0px" y="0px"
	 width="612px" height="792px" viewBox="0 0 612 792" enable-background="new 0 0 612 792" xml:space="preserve">
<rect x="283.833" y="372.67" fill-opacity="0" fill="#231F20" width="81" height="54.488"/>
<path class="primary_color" id="PRIMARY_2_" fill="#FFFA00" stroke="#231F20" stroke-miterlimit="10" d="M361.411,393.188l-7.686-9.025
	c0.48,1.445,0.74,2.982,0.74,4.576c0,5.318-2.889,10-7.271,12.746l1.88,2.209c3.084,3.621,5.169,0.477,8.575-2.426
	C361.057,398.368,364.495,396.812,361.411,393.188z"/>
<path class="primary_color" id="PRIMARY_1_" fill="#FFFA00" stroke="#231F20" stroke-miterlimit="10" d="M338.365,404.056h-14.336v11.701
	c0,4.758,3.627,3.715,8.101,3.715c4.475,0,8.102,1.043,8.102-3.715v-11.809C339.618,404.015,338.997,404.056,338.365,404.056z"/>
<path class="primary_color" id="PRIMARY" fill="#FFFA00" stroke="#231F20" stroke-miterlimit="10" d="M311.299,404.056c-3.316,0-6.397-0.936-8.972-2.533
	v14.236c0,4.756,3.627,3.713,8.101,3.713c4.475,0,8.102,1.043,8.102-3.713v-11.703H311.299z"/>
<path class="primary_color" id="PRIMARY_6_" fill="#FFFA00" stroke="#231F20" stroke-miterlimit="10" d="M319.473,418.411c0,0.783-0.732,1.416-1.636,1.416
	H303.02c-0.902,0-1.635-0.633-1.635-1.416l0,0c0-0.781,0.732-1.416,1.635-1.416h14.817
	C318.74,416.995,319.473,417.63,319.473,418.411L319.473,418.411z"/>
<path class="secondary_color" id="SECONDARY_8_" fill="#C802FF" stroke="#231F20" stroke-miterlimit="10" d="M303.959,419.966v0.383
	c0,3.758,2.896,6.809,6.47,6.809c3.574,0,6.47-3.051,6.47-6.809v-0.383H303.959z"/>
<path class="primary_color" id="PRIMARY_8_" fill="#FFFA00" stroke="#231F20" stroke-miterlimit="10" d="M341.175,418.409c0,0.783-0.732,1.418-1.636,1.418
	h-14.817c-0.903,0-1.634-0.635-1.634-1.418l0,0c0-0.779,0.73-1.416,1.634-1.416h14.817
	C340.442,416.993,341.175,417.63,341.175,418.409L341.175,418.409z"/>
<path class="secondary_color" id="SECONDARY_9_" fill="#C802FF" stroke="#231F20" stroke-miterlimit="10" d="M325.661,419.966v0.381
	c0,3.758,2.896,6.811,6.47,6.811c3.574,0,6.47-3.053,6.47-6.811v-0.381H325.661z"/>
<path class="primary_color" id="PRIMARY_10_" fill="#FFFA00" stroke="#231F20" stroke-miterlimit="10" d="M363.848,394.597
	c0.508,0.596,0.361,1.555-0.326,2.141l-11.281,9.605c-0.688,0.586-1.655,0.578-2.163-0.02l0,0c-0.506-0.594-0.361-1.553,0.326-2.139
	l11.281-9.605C362.372,393.993,363.342,394.003,363.848,394.597L363.848,394.597z"/>
<path class="secondary_color" id="SECONDARY_10_" fill="#C802FF" stroke="#231F20" stroke-miterlimit="10" d="M353.046,405.841l0.247,0.289
	c2.437,2.861,6.62,3.307,9.341,0.99s2.947-6.518,0.511-9.379l-0.247-0.291L353.046,405.841z"/>
</svg>
