<?xml version="1.0" encoding="utf-8"?>
<!-- Generator: Adobe Illustrator 16.0.0, SVG Export Plug-In . SVG Version: 6.00 Build 0)  -->
<svg version="1.1" id="Layer_1" xmlns="http://www.w3.org/2000/svg" xmlns:xlink="http://www.w3.org/1999/xlink" x="0px" y="0px"
	 width="612px" height="792px" viewBox="0 0 612 792" enable-background="new 0 0 612 792" xml:space="preserve">
<rect x="266.5" y="352.008" fill-opacity="0" fill="#231F20" width="81" height="89.313"/>
<path class="primary_color" id="PRIMARY_4_" fill="#FFFA00" stroke="#231F20" stroke-miterlimit="10" d="M288.166,421.737
	c0,10.815,8.768,19.583,19.584,19.583l0,0c10.815,0,19.583-8.768,19.583-19.583v-50.154c0-10.815-8.768-19.583-19.583-19.583l0,0
	c-10.816,0-19.584,8.768-19.584,19.583V421.737z"/>
<path class="secondary_color" id="SECONDARY_6_" fill="#C802FF" stroke="#231F20" stroke-miterlimit="10" d="M308.321,376.023
	c-0.624-1.777-1.328-8.093-4.142-7.041c-2.111,2.106,0,6.316,0.704,8.422c-0.351-0.526-0.878-1.315-1.495-1.842
	c-1.318-1.316-4.133,0.79-3.43,3.948c0.474,0.707,3.595,2.104,2.111,2.104c-1.407-1.052-3.326-1.106-3.326,0.999
	c-0.704,2.105,1.217,4.264,1.92,6.37c-0.703-1.052-0.703-2.106-1.407-2.106c-3.519,1.054-2.109,8.422,0.705,9.475
	c-0.704,1.052-2.11,1.052-2.726,2.501c-0.219,0.592-0.328,1.283-0.338,2.09c-0.011,0.806,0.078,1.728,0.256,2.781
	c0.347,2.628,0.875,2.629,1.49,1.971s1.318-1.975,2.021-1.975c-0.703,2.105-1.568,3.037-2.271,5.143
	c-0.977,1.783-0.659,2.369-0.22,2.764c0.44,0.395,0.967,0.461,1.671,0.461c0.703-0.001,1.671-0.856,2.374-1.908
	c-1.796,1.964-2.257,3.014-2.826,5.521c-0.074,0.836-0.055,1.657,0.076,2.382c0.261,1.449,0.964,2.514,2.254,2.529
	c0.615-0.016,1.23-0.378,1.76-0.971c1.053-1.183,1.758-3.289,1.405-5.395c0,3.158,0.001,5.262,0.636,8.059
	c0.318,0.792,0.711,1.356,1.123,1.711c2.073,1.774,4.721-1.674,1.68-7.802c4.866,9.804,13.008,2.976,3.436-1.579
	c9.572,4.555,10.762,3.227,2.803-4.308c7.959,7.534,11.637-4.169,1.89-6.387c9.747,2.218,11.462-4.442,0.692-7.821
	c10.77,3.378,9.729-3.521-0.693-7.821c10.422,4.3,8.639-9.739-1.893-6.388c10.531-3.351,6.494-12.665-2.805-4.309
	c5.812-5.222,2.466-9.409-0.518-8.767c-0.596,0.128-1.178,0.451-1.67,0.995c-0.49,0.544-0.891,1.314-1.123,2.339
	C308.213,373.193,308.146,374.465,308.321,376.023z"/>
<circle fill="none" stroke="#231F20" stroke-miterlimit="10" cx="307.75" cy="360.11" r="2.5"/>
<circle fill="none" stroke="#231F20" stroke-miterlimit="10" cx="307.75" cy="433.75" r="2.5"/>
</svg>
