<?xml version="1.0" encoding="utf-8"?>
<!-- Generator: Adobe Illustrator 16.0.0, SVG Export Plug-In . SVG Version: 6.00 Build 0)  -->
<svg version="1.1" id="Layer_1" xmlns="http://www.w3.org/2000/svg" xmlns:xlink="http://www.w3.org/1999/xlink" x="0px" y="0px"
	 width="612px" height="792px" viewBox="0 0 612 792" enable-background="new 0 0 612 792" xml:space="preserve">
<rect x="196.776" y="314.164" fill-opacity="0" fill="#231F20" width="255.113" height="171.501"/>
<path id="PRIMARY_2_" fill="#FFFA00" stroke="#231F20" stroke-width="3.1485" stroke-miterlimit="10" d="M441.112,378.745
	l-24.206-28.408c1.514,4.549,2.331,9.388,2.331,14.404c0,16.74-9.098,31.475-22.898,40.119l5.921,6.952
	c9.713,11.397,16.279,1.5,27.008-7.635C439.996,395.048,450.825,390.148,441.112,378.745z"/>
<path id="PRIMARY_1_" fill="#FFFA00" stroke="#231F20" stroke-width="3.1485" stroke-miterlimit="10" d="M368.528,412.949h-45.152
	v36.83c0,14.975,11.424,11.692,25.514,11.692c14.093,0,25.517,3.282,25.517-11.692v-37.168
	C372.475,412.82,370.519,412.949,368.528,412.949z"/>
<path id="PRIMARY" fill="#FFFA00" stroke="#231F20" stroke-width="3.1485" stroke-miterlimit="10" d="M283.281,412.949
	c-10.445,0-20.149-2.944-28.257-7.974v44.81c0,14.969,11.423,11.687,25.513,11.687c14.093,0,25.516,3.282,25.516-11.687v-36.836
	H283.281z"/>
<path id="PRIMARY_6_" fill="#FFFA00" stroke="#231F20" stroke-width="3.1485" stroke-miterlimit="10" d="M309.025,458.133
	c0,2.466-2.307,4.457-5.152,4.457h-46.668c-2.842,0-5.148-1.991-5.148-4.457l0,0c0-2.459,2.307-4.457,5.148-4.457h46.668
	C306.718,453.676,309.025,455.674,309.025,458.133L309.025,458.133z"/>
<path id="SECONDARY_8_" fill="#C802FF" stroke="#231F20" stroke-width="3.1485" stroke-miterlimit="10" d="M260.164,463.026v1.205
	c0,11.828,9.123,21.431,20.377,21.431c11.257,0,20.376-9.603,20.376-21.431v-1.205H260.164z"/>
<path id="PRIMARY_8_" fill="#FFFA00" stroke="#231F20" stroke-width="3.1485" stroke-miterlimit="10" d="M377.377,458.127
	c0,2.465-2.307,4.463-5.151,4.463h-46.669c-2.845,0-5.146-1.998-5.146-4.463l0,0c0-2.453,2.301-4.457,5.146-4.457h46.669
	C375.07,453.67,377.377,455.674,377.377,458.127L377.377,458.127z"/>
<path id="SECONDARY_9_" fill="#C802FF" stroke="#231F20" stroke-width="3.1485" stroke-miterlimit="10" d="M328.516,463.026v1.199
	c0,11.827,9.123,21.437,20.377,21.437c11.257,0,20.377-9.609,20.377-21.437v-1.199H328.516z"/>
<path id="PRIMARY_10_" fill="#FFFA00" stroke="#231F20" stroke-width="3.1485" stroke-miterlimit="10" d="M448.786,383.177
	c1.6,1.875,1.138,4.894-1.027,6.738l-35.53,30.234c-2.166,1.844-5.214,1.819-6.813-0.063l0,0c-1.593-1.868-1.138-4.887,1.027-6.73
	l35.531-30.234C444.139,381.277,447.193,381.308,448.786,383.177L448.786,383.177z"/>
<path id="SECONDARY_10_" fill="#C802FF" stroke="#231F20" stroke-width="3.1485" stroke-miterlimit="10" d="M414.766,418.568
	l0.778,0.909c7.674,9.007,20.851,10.408,29.419,3.117c8.569-7.291,9.282-20.515,1.608-29.521l-0.777-0.916L414.766,418.568z"/>
</svg>
