<?xml version="1.0" encoding="utf-8"?>
<!-- Generator: Adobe Illustrator 16.0.0, SVG Export Plug-In . SVG Version: 6.00 Build 0)  -->
<svg version="1.1" id="Layer_1" xmlns="http://www.w3.org/2000/svg" xmlns:xlink="http://www.w3.org/1999/xlink" x="0px" y="0px"
	 width="612px" height="792px" viewBox="0 0 612 792" enable-background="new 0 0 612 792" xml:space="preserve">
<rect x="192" y="269.525" fill-opacity="0" fill="#231F20" width="230" height="254.292"/>
<path id="PRIMARY_4_" fill="#FFFA00" stroke="#231F20" stroke-width="2.8434" stroke-miterlimit="10" d="M253.521,468.061
	c0,30.794,24.896,55.757,55.609,55.757l0,0c30.71,0,55.605-24.963,55.605-55.757V325.26c0-30.794-24.896-55.757-55.605-55.757l0,0
	c-30.713,0-55.609,24.963-55.609,55.757V468.061z"/>
<path id="SECONDARY_6_" fill="#C802FF" stroke="#231F20" stroke-width="2.8434" stroke-miterlimit="10" d="M310.752,337.903
	c-1.772-5.059-3.771-23.042-11.76-20.046c-5.995,5.996,0,17.984,2,23.979c-0.996-1.498-2.493-3.746-4.246-5.244
	c-3.744-3.748-11.735,2.25-9.739,11.241c1.345,2.012,10.208,5.991,5.995,5.991c-3.996-2.996-9.444-3.15-9.444,2.845
	c-2,5.993,3.455,12.14,5.451,18.137c-1.996-2.996-1.996-5.998-3.996-5.998c-9.991,3.001-5.99,23.979,2.002,26.976
	c-1.999,2.995-5.992,2.995-7.739,7.121c-0.621,1.685-0.932,3.653-0.959,5.95c-0.03,2.294,0.222,4.919,0.727,7.919
	c0.984,7.482,2.485,7.485,4.231,5.61c1.747-1.873,3.744-5.622,5.74-5.622c-1.997,5.995-4.454,8.647-6.447,14.643
	c-2.773,5.077-1.872,6.745-0.624,7.868c1.251,1.124,2.746,1.313,4.745,1.313c1.997-0.002,4.745-2.438,6.741-5.433
	c-5.1,5.592-6.408,8.581-8.025,15.718c-0.211,2.381-0.155,4.719,0.216,6.782c0.74,4.126,2.737,7.156,6.4,7.201
	c1.747-0.045,3.494-1.076,4.997-2.764c2.989-3.367,4.991-9.365,3.99-15.359c0,8.992,0.002,14.981,1.805,22.944
	c0.904,2.255,2.019,3.862,3.189,4.871c5.887,5.053,13.404-4.766,4.77-22.213c13.817,27.913,36.936,8.472,9.755-4.496
	c27.181,12.968,30.558,9.187,7.958-12.265c22.6,21.451,33.043-11.87,5.366-18.185c27.677,6.314,32.546-12.648,1.966-22.268
	c30.58,9.619,27.624-10.023-1.969-22.268c29.593,12.244,24.529-27.73-5.374-18.188c29.903-9.542,18.44-36.061-7.964-12.268
	c16.502-14.867,7.002-26.789-1.47-24.96c-1.691,0.364-3.344,1.283-4.741,2.833c-1.393,1.55-2.529,3.742-3.189,6.66
	C310.444,329.844,310.256,333.467,310.752,337.903z"/>
<ellipse fill="none" stroke="#231F20" stroke-width="2.8434" stroke-miterlimit="10" cx="309.13" cy="292.593" rx="7.099" ry="7.118"/>
<ellipse fill="none" stroke="#231F20" stroke-width="2.8434" stroke-miterlimit="10" cx="309.13" cy="502.264" rx="7.099" ry="7.117"/>
</svg>
