<?xml version="1.0" encoding="utf-8"?>
<!-- Generator: Adobe Illustrator 16.0.0, SVG Export Plug-In . SVG Version: 6.00 Build 0)  -->
<svg version="1.1" id="Layer_1" xmlns="http://www.w3.org/2000/svg" xmlns:xlink="http://www.w3.org/1999/xlink" x="0px" y="0px"
	 width="612px" height="792px" viewBox="0 0 612 792" enable-background="new 0 0 612 792" xml:space="preserve">
<rect x="179.065" y="272.253" fill-opacity="0" fill="#231F20" width="254.796" height="249"/>
<path id="PRIMARY_3_" fill="#FFFA00" stroke="#231F20" stroke-width="3.1647" stroke-miterlimit="10" d="M179.065,376.84v-18.905
	c-0.273-4.182,0-6.066,0-9.353c0-16.705,13.744-30.645,30.636-30.645h149.181c14.112,0,25.961,9.461,29.49,22.311
	c1.518,5.224,1.692,10.917,0.156,16.554L377.24,496.584c-1.987,7.292,0.006,14.819-2.728,19.465
	c-0.391,0.665-0.879,1.271-1.487,1.81c-21.119,2.316-43.236,1.778-64.202,1.859c-13.882,0.053-26.935-1.804-39.714-0.995
	c-1.253,0.081-3.834-0.476-5.112-0.597c-5.111-0.485-9.805-0.141-15.028-0.672c-0.648-0.342-1.278-0.709-1.88-1.101
	c-3.022-1.962-5.45-4.564-7.053-7.779l-58.108-116.472C179.68,387.594,179.053,382.541,179.065,376.84
	C177.48,376.372,179.065,376.882,179.065,376.84z"/>
<path id="SECONDARY_3_" fill="#C802FF" stroke="#231F20" stroke-width="3.1647" stroke-miterlimit="10" d="M267.263,329.043
	c-3.677,2.052-16.825,4.522-14.478,13.443c4.516,6.643,13.191-0.233,17.55-2.548c-1.078,1.137-2.7,2.847-3.763,4.826
	c-2.679,4.249,1.874,13.127,8.429,10.772c1.45-1.528,4.203-11.518,4.283-6.795c-2.126,4.518-2.132,10.63,2.267,10.554
	c4.43,2.163,8.838-4.03,13.193-6.346c-2.159,2.278-4.355,2.316-4.316,4.559c2.39,11.157,17.698,6.406,19.744-2.59
	c2.236,2.202,2.31,6.682,5.369,8.586c1.247,0.673,2.697,1,4.381,1c1.684,0.005,3.606-0.314,5.797-0.917
	c5.465-1.199,5.44-2.879,4.033-4.813c-1.41-1.936-4.196-4.127-4.233-6.366c4.437,2.163,6.427,4.883,10.862,7.042
	c3.778,3.046,4.982,2.013,5.781,0.6c0.799-1.415,0.909-3.095,0.873-5.335c-0.04-2.239-1.881-5.289-4.117-7.489
	c4.203,5.645,6.421,7.074,11.686,8.799c1.751,0.204,3.466,0.112,4.971-0.33c3.011-0.883,5.191-3.159,5.158-7.266
	c-0.068-1.959-0.857-3.905-2.123-5.567c-2.531-3.313-6.964-5.476-11.342-4.278c6.593-0.117,10.991-0.194,16.794-2.315
	c1.638-1.044,2.793-2.312,3.512-3.641c3.591-6.665-3.754-14.967-16.386-5.061c20.21-15.851,5.505-41.52-3.483-10.878
	c8.988-30.642,6.156-34.379-9.148-8.771c15.305-25.608-9.339-36.892-13.437-5.785c4.098-31.106-9.903-36.327-16.371-1.92
	c6.468-34.407-7.881-30.839-16.295,2.497c8.414-33.336-20.806-27.15-13.237,6.252c-7.569-33.403-26.799-20.213-8.841,9.087
	c-11.225-18.315-19.783-7.509-18.281,1.962c0.298,1.895,1.004,3.736,2.171,5.28c1.162,1.545,2.79,2.792,4.946,3.496
	C261.359,329.492,264.019,329.658,267.263,329.043z"/>
<path id="SECONDARY_5_" fill="#C802FF" stroke="#231F20" stroke-width="3.1647" stroke-miterlimit="10" d="M377.038,330.782
	c1.397-10.059-1.693-29.129,3.932-34.589c14.941-14.5,37.677-7.25,41.843,6.991c4.583,15.677-9.775,40.64-12.749,58.106
	c-1.966,11.542-14.152,22.686-27.128-8.549"/>
<path fill="none" stroke="#231F20" stroke-width="3.1647" stroke-miterlimit="10" d="M411.68,302.768
	c-2.9-5.92-12.324-11.056-22.615-1.896"/>
<path id="_x3C_Path_x3E_" fill="none" stroke="#231F20" stroke-width="3.1647" stroke-miterlimit="10" d="M392.778,327.871
	c0.461-3.324-0.796-3.015,1.063-4.818c4.937-4.793,12.45-2.397,13.827,2.31c1.518,5.182-3.229,13.432-4.212,19.205
	c-0.648,3.815-4.679,7.498-8.967-2.826"/>
</svg>
