<?xml version="1.0" encoding="utf-8"?>
<!-- Generator: Adobe Illustrator 16.0.0, SVG Export Plug-In . SVG Version: 6.00 Build 0)  -->
<svg version="1.1" id="Layer_1" xmlns="http://www.w3.org/2000/svg" xmlns:xlink="http://www.w3.org/1999/xlink" x="0px" y="0px"
	 width="612px" height="792px" viewBox="0 0 612 792" enable-background="new 0 0 612 792" xml:space="preserve">
<rect x="215.333" y="348.914" fill-opacity="0" fill="#231F20" width="256" height="172"/>
<path id="PRIMARY_1_" fill="#FFFA00" stroke="#231F20" stroke-width="3.1586" stroke-miterlimit="10" d="M348.277,447.31h45.309
	v-36.937c0-15.019-11.463-11.727-25.602-11.727c-14.143,0-25.605-3.292-25.605,11.727v37.275
	C344.317,447.439,346.28,447.31,348.277,447.31z"/>
<path id="PRIMARY_8_" fill="#FFFA00" stroke="#231F20" stroke-width="3.1586" stroke-miterlimit="10" d="M339.397,402.001
	c0-2.473,2.315-4.477,5.17-4.477h46.83c2.855,0,5.164,2.004,5.164,4.477l0,0c0,2.46-2.309,4.47-5.164,4.47h-46.83
	C341.713,406.471,339.397,404.461,339.397,402.001L339.397,402.001z"/>
<path id="SECONDARY_9_" fill="#C802FF" stroke="#231F20" stroke-width="3.1586" stroke-miterlimit="10" d="M388.429,397.087v-1.202
	c0-11.862-9.154-21.499-20.447-21.499c-11.297,0-20.448,9.636-20.448,21.499v1.202H388.429z"/>
<path id="PRIMARY_2_" fill="#FFFA00" stroke="#231F20" stroke-width="3.1586" stroke-miterlimit="10" d="M273.787,439.994v-29.621
	c0-15.019,11.463-11.727,25.605-11.727c14.139,0,25.602-3.292,25.602,11.727v36.937h-31.342
	C286.41,446.178,279.676,443.645,273.787,439.994z"/>
<path id="PRIMARY_3_" fill="#FFFA00" stroke="#231F20" stroke-width="3.1586" stroke-miterlimit="10" d="M270.805,402.001
	c0-2.473,2.315-4.477,5.17-4.477h46.831c2.854,0,5.163,2.004,5.163,4.477l0,0c0,2.46-2.309,4.47-5.163,4.47h-46.831
	C273.12,406.471,270.805,404.461,270.805,402.001L270.805,402.001z"/>
<path id="SECONDARY_1_" fill="#C802FF" stroke="#231F20" stroke-width="3.1586" stroke-miterlimit="10" d="M319.836,397.087v-1.202
	c0-11.862-9.154-21.499-20.447-21.499c-11.296,0-20.448,9.636-20.448,21.499v1.202H319.836z"/>
<path id="PRIMARY" fill="#FFFA00" stroke="#231F20" stroke-width="3.1586" stroke-miterlimit="10" d="M382.266,366.683
	l11.444-15.466c18.487,3.067,33.713,14.991,40.7,31.042l-10.966,14.822c-8.941,12.081-16.201,2.626-27.571-5.765
	C384.503,382.922,373.324,378.77,382.266,366.683z"/>
<path id="PRIMARY_4_" fill="#FFFA00" stroke="#231F20" stroke-width="3.1586" stroke-miterlimit="10" d="M420.854,405.586
	c-1.466,1.991-4.521,2.226-6.821,0.533l-37.657-27.803c-2.296-1.695-2.963-4.676-1.49-6.662l0,0c1.463-1.982,4.516-2.226,6.812-0.53
	l37.66,27.796C421.657,400.619,422.324,403.609,420.854,405.586L420.854,405.586z"/>
<path id="SECONDARY_2_" fill="#C802FF" stroke="#231F20" stroke-width="3.1586" stroke-miterlimit="10" d="M378.503,380.431
	l-0.716,0.968c-7.059,9.541-5.433,22.726,3.654,29.427c9.083,6.708,22.173,4.39,29.231-5.148l0.716-0.968L378.503,380.431z"/>
</svg>
