<?xml version="1.0" encoding="utf-8"?>
<!-- Generator: Adobe Illustrator 16.0.0, SVG Export Plug-In . SVG Version: 6.00 Build 0)  -->
<svg version="1.1" id="Layer_1" xmlns="http://www.w3.org/2000/svg" xmlns:xlink="http://www.w3.org/1999/xlink" x="0px" y="0px"
	 width="612px" height="792px" viewBox="0 0 612 792" enable-background="new 0 0 612 792" xml:space="preserve">
<rect x="179" y="310.418" fill-opacity="0" fill="#231F20" width="256" height="171.658"/>
<path id="PRIMARY_9_" fill="#FFFA00" stroke="#231F20" stroke-width="3.1555" stroke-miterlimit="10" d="M213.346,360.407
	c0,26.649,23.077,48.256,51.543,48.256h85.543c28.463,0,51.537-21.607,51.537-48.256l0,0c0-26.66-23.074-48.266-51.537-48.266
	h-85.543C236.423,312.142,213.346,333.747,213.346,360.407L213.346,360.407z"/>
<path id="SECONDARY_7_" fill="#C802FF" stroke="#231F20" stroke-width="3.1555" stroke-miterlimit="10" d="M363.84,350.799
	c4.383-2.123,20.092-4.83,17.21-13.795c-5.451-6.631-15.778,0.446-20.973,2.855c1.284-1.166,3.207-2.917,4.466-4.933
	c3.167-4.324-2.346-13.215-10.173-10.737c-1.722,1.569-4.932,11.692-5.064,6.925c2.503-4.592,2.466-10.759-2.793-10.614
	c-5.324-2.112-10.544,4.209-15.735,6.613c2.559-2.334,5.191-2.404,5.13-4.667c-2.95-11.226-21.229-6.185-23.604,2.926
	c-2.691-2.186-2.818-6.704-6.491-8.579c-1.5-0.662-3.231-0.963-5.25-0.938c-2.015,0.02-4.312,0.371-6.926,1.015
	c-6.531,1.297-6.484,2.995-4.784,4.922c1.697,1.931,5.049,4.102,5.114,6.358c-5.324-2.11-7.731-4.824-13.052-6.936
	c-4.543-3.014-5.975-1.949-6.92-0.512c-0.947,1.443-1.064,3.14-1,5.398c0.068,2.258,2.291,5.305,4.982,7.494
	c-5.071-5.633-7.735-7.039-14.05-8.696c-2.092-0.18-4.142-0.06-5.938,0.409c-3.599,0.943-6.195,3.275-6.118,7.421
	c0.096,1.974,1.056,3.922,2.587,5.581c3.049,3.301,8.373,5.415,13.602,4.138c-7.889,0.215-13.145,0.369-20.071,2.6
	c-1.951,1.083-3.324,2.388-4.173,3.732c-4.244,6.778,4.611,15.044,19.639,4.852c-24.046,16.312-6.253,41.98,4.256,10.918
	c-10.509,31.062-7.09,34.793,11.016,8.701c-18.105,26.092,11.466,37.091,16.12,5.627c-4.654,31.464,12.136,36.503,19.599,1.683
	c-7.463,34.82,9.673,30.996,19.47-2.781c-9.797,33.777,25.11,27.059,15.79-6.52c9.32,33.578,32.222,19.967,10.506-9.31
	c13.567,18.303,23.722,7.261,21.852-2.273c-0.376-1.904-1.234-3.747-2.642-5.292c-1.401-1.544-3.361-2.772-5.944-3.445
	C370.901,350.257,367.716,350.131,363.84,350.799z"/>
</svg>
