<?xml version="1.0" encoding="utf-8"?>
<!-- Generator: Adobe Illustrator 16.0.0, SVG Export Plug-In . SVG Version: 6.00 Build 0)  -->
<svg version="1.1" id="Layer_1" xmlns="http://www.w3.org/2000/svg" xmlns:xlink="http://www.w3.org/1999/xlink" x="0px" y="0px"
	 width="612px" height="792px" viewBox="0 0 612 792" enable-background="new 0 0 612 792" xml:space="preserve">
<rect x="265.724" y="357.651" fill-opacity="0" fill="#231F20" width="81" height="78.206"/>
<path class="primary_color" id="PRIMARY_3_" fill="#FFFA00" stroke="#231F20" stroke-miterlimit="10" d="M265.724,390.5v-5.938
	c-0.087-1.313,0-1.905,0-2.938c0-5.247,4.369-9.625,9.739-9.625h47.425c4.486,0,8.253,2.972,9.375,7.007
	c0.482,1.641,0.538,3.429,0.05,5.199l-3.589,43.903c-0.632,2.29,0.002,4.654-0.867,6.113c-0.124,0.209-0.279,0.399-0.473,0.568
	c-6.714,0.728-13.745,0.559-20.41,0.584c-4.413,0.017-8.563-0.566-12.625-0.313c-0.398,0.025-1.219-0.149-1.625-0.188
	c-1.625-0.152-3.117-0.044-4.777-0.211c-0.206-0.107-0.406-0.223-0.598-0.346c-0.961-0.616-1.732-1.434-2.242-2.443l-18.473-36.582
	C265.919,393.877,265.72,392.291,265.724,390.5C265.22,390.353,265.724,390.513,265.724,390.5z"/>
<path class="secondary_color" id="SECONDARY_3_" fill="#C802FF" stroke="#231F20" stroke-miterlimit="10" d="M293.762,375.488
	c-1.169,0.645-5.349,1.42-4.603,4.222c1.436,2.086,4.193-0.073,5.579-0.8c-0.343,0.357-0.858,0.894-1.196,1.516
	c-0.852,1.334,0.596,4.123,2.68,3.383c0.461-0.48,1.336-3.618,1.361-2.134c-0.676,1.419-0.678,3.339,0.721,3.315
	c1.408,0.679,2.81-1.266,4.194-1.993c-0.687,0.715-1.385,0.728-1.372,1.432c0.76,3.504,5.626,2.012,6.276-0.813
	c0.711,0.691,0.734,2.099,1.707,2.697c0.396,0.211,0.857,0.314,1.393,0.314c0.535,0.001,1.146-0.099,1.843-0.288
	c1.737-0.376,1.729-0.904,1.282-1.512c-0.448-0.608-1.334-1.296-1.346-2c1.41,0.679,2.043,1.534,3.453,2.212
	c1.201,0.957,1.584,0.632,1.838,0.188c0.254-0.444,0.289-0.972,0.277-1.676c-0.013-0.703-0.598-1.661-1.309-2.352
	c1.336,1.773,2.041,2.222,3.715,2.764c0.557,0.064,1.102,0.035,1.58-0.104c0.957-0.277,1.65-0.992,1.64-2.282
	c-0.021-0.615-0.272-1.227-0.675-1.749c-0.805-1.041-2.214-1.72-3.605-1.344c2.096-0.037,3.494-0.061,5.339-0.727
	c0.521-0.328,0.888-0.726,1.116-1.144c1.142-2.093-1.193-4.701-5.209-1.589c6.425-4.979,1.75-13.041-1.107-3.417
	c2.857-9.624,1.957-10.798-2.908-2.755c4.865-8.043-2.969-11.587-4.271-1.817c1.303-9.77-3.148-11.41-5.205-0.603
	c2.056-10.807-2.505-9.686-5.18,0.784c2.675-10.47-6.614-8.527-4.208,1.964c-2.406-10.491-8.52-6.349-2.811,2.854
	c-3.568-5.752-6.289-2.358-5.812,0.616c0.095,0.595,0.319,1.173,0.69,1.658c0.369,0.485,0.887,0.877,1.572,1.098
	C291.885,375.629,292.73,375.681,293.762,375.488z"/>
<path class="secondary_color" id="SECONDARY_5_" fill="#C802FF" stroke="#231F20" stroke-miterlimit="10" d="M328.659,376.034
	c0.444-3.159-0.538-9.149,1.25-10.864c4.75-4.554,11.978-2.277,13.302,2.196c1.457,4.924-3.107,12.764-4.053,18.25
	c-0.625,3.625-4.499,7.125-8.624-2.685"/>
<path fill="none" stroke="#231F20" stroke-miterlimit="10" d="M339.672,367.235c-0.922-1.859-3.918-3.473-7.189-0.596"/>
<path id="_x3C_Path_x3E_" fill="none" stroke="#231F20" stroke-miterlimit="10" d="M333.663,375.12
	c0.146-1.044-0.253-0.947,0.338-1.513c1.569-1.505,3.958-0.753,4.396,0.726c0.482,1.627-1.026,4.219-1.339,6.032
	c-0.206,1.198-1.487,2.355-2.851-0.888"/>
</svg>
