<?xml version="1.0" encoding="utf-8"?>
<!-- Generator: Adobe Illustrator 16.0.0, SVG Export Plug-In . SVG Version: 6.00 Build 0)  -->
<svg version="1.1" id="Layer_1" xmlns="http://www.w3.org/2000/svg" xmlns:xlink="http://www.w3.org/1999/xlink" x="0px" y="0px"
	 width="612px" height="792px" viewBox="0 0 612 792" enable-background="new 0 0 612 792" xml:space="preserve">
<rect x="302.833" y="407.67" fill-opacity="0" fill="#231F20" width="81" height="54.488"/>
<path class="primary_color" id="PRIMARY_1_" fill="#FFFA00" stroke="#231F20" stroke-miterlimit="10" d="M344.897,438.841h14.336V427.14
	c0-4.758-3.627-3.715-8.101-3.715c-4.475,0-8.102-1.043-8.102,3.715v11.809C343.645,438.882,344.266,438.841,344.897,438.841z"/>
<path class="primary_color" id="PRIMARY_8_" fill="#FFFA00" stroke="#231F20" stroke-miterlimit="10" d="M342.088,424.487c0-0.783,0.732-1.418,1.636-1.418
	h14.817c0.903,0,1.634,0.635,1.634,1.418l0,0c0,0.779-0.73,1.416-1.634,1.416h-14.817
	C342.82,425.903,342.088,425.267,342.088,424.487L342.088,424.487z"/>
<path class="secondary_color" id="SECONDARY_9_" fill="#C802FF" stroke="#231F20" stroke-miterlimit="10" d="M357.602,422.931v-0.381
	c0-3.758-2.896-6.811-6.47-6.811c-3.574,0-6.47,3.053-6.47,6.811v0.381H357.602z"/>
<path class="primary_color" id="PRIMARY_2_" fill="#FFFA00" stroke="#231F20" stroke-miterlimit="10" d="M321.328,436.523v-9.384
	c0-4.758,3.627-3.715,8.102-3.715c4.474,0,8.101-1.043,8.101,3.715v11.701h-9.917C325.322,438.482,323.191,437.68,321.328,436.523z"
	/>
<path class="primary_color" id="PRIMARY_3_" fill="#FFFA00" stroke="#231F20" stroke-miterlimit="10" d="M320.385,424.487c0-0.783,0.732-1.418,1.636-1.418
	h14.817c0.903,0,1.634,0.635,1.634,1.418l0,0c0,0.779-0.73,1.416-1.634,1.416h-14.817
	C321.117,425.903,320.385,425.267,320.385,424.487L320.385,424.487z"/>
<path class="secondary_color" id="SECONDARY_1_" fill="#C802FF" stroke="#231F20" stroke-miterlimit="10" d="M335.898,422.931v-0.381
	c0-3.758-2.896-6.811-6.47-6.811c-3.574,0-6.47,3.053-6.47,6.811v0.381H335.898z"/>
<path class="primary_color" id="PRIMARY" fill="#FFFA00" stroke="#231F20" stroke-miterlimit="10" d="M355.651,413.299l3.621-4.899
	c5.85,0.972,10.667,4.749,12.878,9.834l-3.47,4.695c-2.829,3.827-5.126,0.832-8.724-1.826
	C356.359,418.443,352.822,417.128,355.651,413.299z"/>
<path class="primary_color" id="PRIMARY_4_" fill="#FFFA00" stroke="#231F20" stroke-miterlimit="10" d="M367.861,425.623
	c-0.464,0.631-1.431,0.705-2.158,0.169l-11.915-8.808c-0.727-0.537-0.938-1.481-0.472-2.11l0,0c0.463-0.628,1.429-0.705,2.155-0.168
	l11.916,8.806C368.115,424.05,368.326,424.997,367.861,425.623L367.861,425.623z"/>
<path class="secondary_color" id="SECONDARY_2_" fill="#C802FF" stroke="#231F20" stroke-miterlimit="10" d="M354.461,417.654l-0.227,0.307
	c-2.233,3.022-1.719,7.199,1.156,9.322c2.874,2.125,7.016,1.391,9.249-1.631l0.227-0.307L354.461,417.654z"/>
</svg>
