<?xml version="1.0" encoding="utf-8"?>
<!-- Generator: Adobe Illustrator 16.0.0, SVG Export Plug-In . SVG Version: 6.00 Build 0)  -->
<svg version="1.1" id="Layer_1" xmlns="http://www.w3.org/2000/svg" xmlns:xlink="http://www.w3.org/1999/xlink" x="0px" y="0px"
	 width="612px" height="792px" viewBox="0 0 612 792" enable-background="new 0 0 612 792" xml:space="preserve">
<path fill="#FFFA00" stroke="#231F20" stroke-miterlimit="10" d="M270.422,389.321l7.686-9.025c-0.48,1.445-0.74,2.981-0.74,4.575
	c0,5.318,2.889,10.001,7.271,12.747l-1.88,2.208c-3.084,3.621-5.169,0.477-8.575-2.425S267.338,392.943,270.422,389.321z"/>
<path fill="#FFFA00" stroke="#231F20" stroke-miterlimit="10" d="M293.468,400.188h14.336v11.701c0,4.757-3.627,3.714-8.101,3.714
	c-4.475,0-8.102,1.043-8.102-3.714v-11.809C292.215,400.146,292.836,400.188,293.468,400.188z"/>
<path fill="#FFFA00" stroke="#231F20" stroke-miterlimit="10" d="M320.534,400.188c3.316,0,6.397-0.936,8.972-2.533v14.236
	c0,4.756-3.627,3.712-8.102,3.712c-4.474,0-8.102,1.044-8.102-3.712v-11.703H320.534z"/>
<rect x="266.5" y="369.004" fill-opacity="0" fill="#231F20" width="81" height="54.487"/>
<path class="primary_color" id="PRIMARY_6_" fill="#FFFA00" stroke="#231F20" stroke-miterlimit="10" d="M312.361,414.544c0,0.782,0.732,1.416,1.635,1.416
	h14.817c0.903,0,1.634-0.634,1.634-1.416l0,0c0-0.782-0.73-1.417-1.634-1.417h-14.817
	C313.094,413.127,312.361,413.762,312.361,414.544L312.361,414.544z"/>
<path class="secondary_color" id="SECONDARY_8_" fill="#C802FF" stroke="#231F20" stroke-miterlimit="10" d="M327.874,416.099v0.382
	c0,3.759-2.896,6.81-6.47,6.81s-6.47-3.051-6.47-6.81v-0.382H327.874z"/>
<path class="primary_color" id="PRIMARY_8_" fill="#FFFA00" stroke="#231F20" stroke-miterlimit="10" d="M290.658,414.542c0,0.783,0.732,1.417,1.636,1.417
	h14.817c0.902,0,1.635-0.634,1.635-1.417l0,0c0-0.78-0.732-1.416-1.635-1.416h-14.817
	C291.391,413.126,290.658,413.762,290.658,414.542L290.658,414.542z"/>
<path class="secondary_color" id="SECONDARY_9_" fill="#C802FF" stroke="#231F20" stroke-miterlimit="10" d="M306.172,416.099v0.381
	c0,3.758-2.896,6.811-6.47,6.811c-3.574,0-6.47-3.053-6.47-6.811v-0.381H306.172z"/>
<path class="primary_color" id="PRIMARY_10_" fill="#FFFA00" stroke="#231F20" stroke-miterlimit="10" d="M267.985,390.729
	c-0.508,0.596-0.361,1.554,0.326,2.14l11.281,9.606c0.688,0.585,1.655,0.577,2.163-0.021l0,0c0.506-0.593,0.361-1.553-0.326-2.138
	l-11.281-9.606C269.461,390.126,268.491,390.135,267.985,390.729L267.985,390.729z"/>
<path class="secondary_color" id="SECONDARY_10_" fill="#C802FF" stroke="#231F20" stroke-miterlimit="10" d="M278.787,401.973l-0.247,0.289
	c-2.437,2.861-6.62,3.308-9.341,0.99c-2.721-2.316-2.947-6.518-0.511-9.379l0.247-0.29L278.787,401.973z"/>
</svg>
