<?xml version="1.0" encoding="utf-8"?>
<!-- Generator: Adobe Illustrator 16.0.0, SVG Export Plug-In . SVG Version: 6.00 Build 0)  -->
<svg version="1.1" id="Layer_1" xmlns="http://www.w3.org/2000/svg" xmlns:xlink="http://www.w3.org/1999/xlink" x="0px" y="0px"
	 width="612px" height="792px" viewBox="0 0 612 792" enable-background="new 0 0 612 792" xml:space="preserve">
<path fill="#FFFA00" stroke="#231F20" stroke-width="3.1523" stroke-miterlimit="10" d="M191.395,374.471l24.29-28.376
	c-1.519,4.542-2.339,9.374-2.339,14.385c0,16.721,9.13,31.444,22.979,40.078l-5.941,6.942c-9.747,11.385-16.336,1.498-27.102-7.624
	C192.516,390.753,181.648,385.859,191.395,374.471z"/>
<path fill="#FFFA00" stroke="#231F20" stroke-width="3.1523" stroke-miterlimit="10" d="M264.231,408.638h45.309v36.79
	c0,14.955-11.463,11.677-25.602,11.677c-14.142,0-25.605,3.278-25.605-11.677v-37.127
	C260.271,408.506,262.234,408.638,264.231,408.638z"/>
<path fill="#FFFA00" stroke="#231F20" stroke-width="3.1523" stroke-miterlimit="10" d="M349.774,408.638
	c10.481,0,20.22-2.941,28.355-7.964v44.76c0,14.953-11.463,11.671-25.605,11.671c-14.139,0-25.604,3.282-25.604-11.671v-36.796
	H349.774z"/>
<rect x="179" y="310.591" fill-opacity="0" fill="#231F20" width="256" height="171.312"/>
<path id="PRIMARY_6_" fill="#FFFA00" stroke="#231F20" stroke-width="3.1523" stroke-miterlimit="10" d="M323.944,453.772
	c0,2.46,2.315,4.452,5.167,4.452h46.83c2.854,0,5.164-1.992,5.164-4.452l0,0c0-2.459-2.31-4.455-5.164-4.455h-46.83
	C326.26,449.317,323.944,451.313,323.944,453.772L323.944,453.772z"/>
<path id="SECONDARY_8_" fill="#C802FF" stroke="#231F20" stroke-width="3.1523" stroke-miterlimit="10" d="M372.973,458.661v1.2
	c0,11.818-9.151,21.41-20.448,21.41c-11.296,0-20.447-9.592-20.447-21.41v-1.2H372.973z"/>
<path id="PRIMARY_8_" fill="#FFFA00" stroke="#231F20" stroke-width="3.1523" stroke-miterlimit="10" d="M255.352,453.767
	c0,2.463,2.314,4.455,5.169,4.455h46.83c2.853,0,5.167-1.992,5.167-4.455l0,0c0-2.453-2.314-4.452-5.167-4.452h-46.83
	C257.667,449.314,255.352,451.313,255.352,453.767L255.352,453.767z"/>
<path id="SECONDARY_9_" fill="#C802FF" stroke="#231F20" stroke-width="3.1523" stroke-miterlimit="10" d="M304.383,458.661v1.197
	c0,11.814-9.154,21.413-20.448,21.413c-11.296,0-20.447-9.599-20.447-21.413v-1.197H304.383z"/>
<path id="PRIMARY_10_" fill="#FFFA00" stroke="#231F20" stroke-width="3.1523" stroke-miterlimit="10" d="M183.694,378.898
	c-1.605,1.873-1.142,4.885,1.031,6.727l35.654,30.204c2.173,1.839,5.231,1.814,6.836-0.064l0,0c1.599-1.864,1.142-4.882-1.031-6.722
	l-35.654-30.203C188.358,377.001,185.293,377.028,183.694,378.898L183.694,378.898z"/>
<path id="SECONDARY_10_" fill="#C802FF" stroke="#231F20" stroke-width="3.1523" stroke-miterlimit="10" d="M217.833,414.248
	l-0.781,0.908c-7.701,8.996-20.923,10.399-29.522,3.113c-8.599-7.282-9.315-20.491-1.614-29.488l0.781-0.912L217.833,414.248z"/>
</svg>
