<?xml version="1.0" encoding="utf-8"?>
<!-- Generator: Adobe Illustrator 16.0.0, SVG Export Plug-In . SVG Version: 6.00 Build 0)  -->
<svg version="1.1" id="Layer_1" xmlns="http://www.w3.org/2000/svg" xmlns:xlink="http://www.w3.org/1999/xlink" x="0px" y="0px"
	 width="612px" height="792px" viewBox="0 0 612 792" enable-background="new 0 0 612 792" xml:space="preserve">
<rect x="179" y="310.248" fill="#231F20" fill-opacity="0" width="256" height="172"/>
<path id="SECONDARY_3_" fill="#FFFDB5" stroke="#231F20" stroke-width="3.1586" stroke-miterlimit="10" d="M289.984,459.639
	c0.179-12.393,0.559-24.994,0.116-35.593c4.567,1.165,9.33,1.85,14.264,1.85c3.67,0,7.244-0.379,10.722-1.029
	c0.883,14.874-0.639,31.644-15.709,47.714c-1.128,1.319-2.376,2.562-3.802,3.625c-2.929,2.201-6.611,3.73-11.583,3.872
	c1.486-4.605,2.921-9.275,4.221-13.866C288.843,463.992,289.434,461.797,289.984,459.639z"/>
<path id="SECONDARY_2_" fill="#FFFDB5" stroke="#231F20" stroke-width="3.1586" stroke-miterlimit="10" d="M325.327,453.122
	c-1.543-10.146-2.973-20.45-4.657-29.601c8.583-2.527,16.299-7.01,22.707-12.91c3.95,15.438,6.728,33.663-6.648,53.738
	c-0.898,1.485-1.923,2.91-3.157,4.198c-2.525,2.651-5.901,4.767-10.787,5.722c0.706-4.791,1.354-9.637,1.88-14.371
	C324.914,457.604,325.142,455.342,325.327,453.122z"/>
<path id="SECONDARY_1_" fill="#FFFDB5" stroke="#231F20" stroke-width="3.1586" stroke-miterlimit="10" d="M361.987,368.341
	c0-1.894-0.104-3.764-0.286-5.61c0.836,0.117,1.536,0.467,2.036,1.171c9.951,14.057,22.164,31.296,15.726,57.832
	c-0.333,1.701-0.809,3.388-1.524,5.019c-1.466,3.356-3.914,6.498-8.176,9.069c-0.979-4.741-2.034-9.517-3.161-14.15
	c-0.549-2.237-1.114-4.436-1.694-6.591c-3.447-6.295-6.87-12.688-10.231-18.715C359.314,388.071,361.987,378.523,361.987,368.341z"
	/>
<path id="SECONDARY" fill="#FFFDB5" stroke="#231F20" stroke-width="3.1586" stroke-miterlimit="10" d="M249.279,456.322
	c1.043-2.06,2.048-4.094,3-6.119c3.088-14.677,6.554-29.656,7.79-41.314c-0.12-0.438-0.236-0.845-0.338-1.228
	c-0.766-1.541-1.008-2.731-0.835-3.638c0.02-0.102,0.069-0.185,0.102-0.28c6.318,8.067,14.729,14.39,24.434,18.176
	c-2.069,14.485-6.966,30.201-24.418,42.791c-1.362,1.076-2.825,2.054-4.427,2.827c-3.293,1.603-7.196,2.398-12.108,1.584
	C244.821,464.886,247.128,460.576,249.279,456.322z"/>
</svg>
