<?xml version="1.0" encoding="utf-8"?>
<!-- Generator: Adobe Illustrator 16.0.0, SVG Export Plug-In . SVG Version: 6.00 Build 0)  -->
<svg version="1.1" id="Layer_1" xmlns="http://www.w3.org/2000/svg" xmlns:xlink="http://www.w3.org/1999/xlink" x="0px" y="0px"
	 width="612px" height="792px" viewBox="0 0 612 792" enable-background="new 0 0 612 792" xml:space="preserve">
<rect x="178" y="311.248" fill="#231F20" fill-opacity="0" width="256" height="172"/>
<path id="SECONDARY_3_" fill="#FFFDB5" stroke="#231F20" stroke-width="3.1586" stroke-miterlimit="10" d="M258.125,405.079
	c-0.407,4.198-0.588,8.302-0.742,12.189c-0.181,4.347,8.979,4.846,13.372,6.837c1.988,0.472,3.994,0.814,5.806,0.94
	c3.429,0.256,6.159-0.271,6.786-2.14C273.387,419.324,264.679,413.128,258.125,405.079z"/>
<path id="SECONDARY_2_" fill="#FFFDB5" stroke="#231F20" stroke-width="3.1586" stroke-miterlimit="10" d="M302.839,426.356
	c-5.907,0-11.602-0.895-16.966-2.544c0.326,1.729,0.657,3.438,0.989,5.1c0.85,4.266,9.864,2.592,14.608,3.511
	c2.045-0.006,4.074-0.145,5.865-0.447c3.661-0.604,6.35-1.89,6.121-4.143c-0.068-0.685-0.407-1.465-1.063-2.334
	C309.277,426.02,306.102,426.356,302.839,426.356z"/>
<path id="SECONDARY_1_" fill="#FFFDB5" stroke="#231F20" stroke-width="3.1586" stroke-miterlimit="10" d="M345.269,413.711
	c-0.51-1.751-0.827-3.293-1.197-4.748c-6,6.15-13.386,10.92-21.633,13.906c0.274,0.599,0.552,1.206,0.824,1.795
	c0.91,1.976,3.463,2.037,6.389,1.572c2.926-0.46,6.226-1.443,8.63-1.558c2.484-2.959,8.805-2.959,7.83-10.102
	C345.852,414.3,345.574,414.02,345.269,413.711z"/>
<path id="SECONDARY" fill="#FFFDB5" stroke="#231F20" stroke-width="3.1586" stroke-miterlimit="10" d="M363.266,344.296
	c-1.59-1.807-3.183-4.861-4.886-7.277c-1.704-2.416-3.521-4.208-5.58-3.485c-1.164,0.41-2.355,0.831-3.556,1.259
	c4.876,6.626,8.404,14.294,10.08,22.656c0.303-0.171,0.593-0.337,0.916-0.509c0.43,0.003,0.828,0.006,1.21,0
	C367.266,352.667,362.864,348.134,363.266,344.296z"/>
</svg>
