<?xml version="1.0" encoding="utf-8"?>
<!-- Generator: Adobe Illustrator 16.0.0, SVG Export Plug-In . SVG Version: 6.00 Build 0)  -->
<svg version="1.1" id="Layer_1" xmlns="http://www.w3.org/2000/svg" xmlns:xlink="http://www.w3.org/1999/xlink" x="0px" y="0px"
	 width="612px" height="792px" viewBox="0 0 612 792" enable-background="new 0 0 612 792" xml:space="preserve">
<rect x="175" y="320.358" fill="#231F20" fill-opacity="0" width="256" height="171.779"/>
<path id="SECONDARY_3_" fill="#FFFDB5" stroke="#231F20" stroke-width="3.1566" stroke-miterlimit="10" d="M354.654,466.245
	c-1.043-2.057-2.046-4.089-3-6.111c-3.086-14.658-6.553-29.618-7.79-41.262c0.12-0.438,0.237-0.844,0.34-1.226
	c0.765-1.539,1.009-2.728,0.833-3.633c-0.019-0.102-0.068-0.185-0.102-0.28c-6.318,8.058-14.726,14.372-24.433,18.152
	c2.071,14.468,6.966,30.163,24.417,42.736c1.364,1.074,2.827,2.051,4.429,2.823c3.293,1.602,7.197,2.396,12.108,1.583
	C359.114,474.798,356.809,470.493,354.654,466.245z"/>
<path id="SECONDARY_2_" fill="#FFFDB5" stroke="#231F20" stroke-width="3.1566" stroke-miterlimit="10" d="M313.947,469.558
	c-0.176-12.377-0.556-24.963-0.114-35.548c-4.569,1.164-9.332,1.848-14.265,1.848c-3.67,0-7.244-0.379-10.724-1.028
	c-0.881,14.855,0.642,31.604,15.711,47.653c1.128,1.317,2.376,2.559,3.804,3.62c2.928,2.198,6.609,3.726,11.585,3.867
	c-1.487-4.6-2.923-9.264-4.219-13.849C315.096,473.905,314.497,471.713,313.947,469.558z"/>
<path id="SECONDARY_1_" fill="#FFFDB5" stroke="#231F20" stroke-width="3.1566" stroke-miterlimit="10" d="M278.608,463.049
	c1.545-10.132,2.974-20.424,4.658-29.562c-8.581-2.525-16.301-7.001-22.708-12.895c-3.951,15.419-6.729,33.62,6.65,53.669
	c0.898,1.484,1.923,2.906,3.157,4.193c2.526,2.648,5.904,4.76,10.79,5.715c-0.707-4.785-1.352-9.625-1.879-14.354
	C279.021,467.525,278.793,465.266,278.608,463.049z"/>
<path id="SECONDARY" fill="#FFFDB5" stroke="#231F20" stroke-width="3.1566" stroke-miterlimit="10" d="M241.949,378.377
	c0-1.893,0.104-3.759,0.284-5.603c-0.835,0.117-1.536,0.466-2.036,1.17c-9.952,14.039-22.16,31.255-15.724,57.757
	c0.335,1.699,0.811,3.384,1.528,5.013c1.463,3.353,3.912,6.489,8.176,9.058c0.977-4.735,2.029-9.504,3.16-14.132
	c0.543-2.235,1.109-4.431,1.693-6.582c3.449-6.287,6.872-12.673,10.231-18.691C244.619,398.081,241.949,388.546,241.949,378.377z"/>
</svg>
