<?xml version="1.0" encoding="utf-8"?>
<!-- Generator: Adobe Illustrator 16.0.0, SVG Export Plug-In . SVG Version: 6.00 Build 0)  -->
<svg version="1.1" id="Layer_1" xmlns="http://www.w3.org/2000/svg" xmlns:xlink="http://www.w3.org/1999/xlink" x="0px" y="0px"
	 width="612px" height="792px" viewBox="0 0 612 792" enable-background="new 0 0 612 792" xml:space="preserve">
<rect x="270.592" y="378.5" fill-opacity="0" fill="#231F20" width="69.979" height="35"/>
<path class="primary_color" id="PRIMARY_12_" fill="#00BC03" stroke="#231F20" stroke-miterlimit="10" d="M275.2,413.197
	c-0.209-1.11-0.147-2.288-0.324-3.397c-4.701-29.573,12.961-22.906,31.089-23.64c28.795-1.165,31.09,10.585,31.09,23.64
	c0,1.153-0.115,2.287-0.324,3.397H275.2z"/>
<path class="secondary_color" id="SECONDARY_16_" fill="#FFFDB5" stroke="#231F20" stroke-miterlimit="10" d="M298.69,412.366
	c3.625,1.357,7.193,0.865,9.236-0.143c6.633-2.008-1.994-9.181-5.193-9.89c-0.583-0.167-1.166-0.258-1.731-0.267
	c-1.13-0.018-2.195,0.291-3.067,0.963c-1.308,1.007-1.941,2.638-1.905,4.46c0.012,0.607,0.098,1.236,0.259,1.87
	c0.167,0.63,0.434,1.249,0.828,1.774C297.511,411.661,298.041,412.068,298.69,412.366z"/>
<path class="secondary_color" id="SECONDARY_15_" fill="#FFFDB5" stroke="#231F20" stroke-miterlimit="10" d="M314.951,412.366
	c3.625,1.357,7.193,0.865,9.234-0.143c6.633-2.008-1.992-9.181-5.191-9.89c-0.584-0.167-1.166-0.258-1.732-0.267
	c-1.131-0.018-2.195,0.291-3.066,0.963c-1.309,1.007-1.941,2.638-1.906,4.46c0.012,0.607,0.098,1.236,0.26,1.87
	c0.166,0.63,0.434,1.249,0.828,1.774C313.771,411.661,314.301,412.068,314.951,412.366z"/>
<path class="secondary_color" id="SECONDARY_14_" fill="#FFFDB5" stroke="#231F20" stroke-miterlimit="10" d="M328.693,410.401
	c2.844,1.896,6.146,2.215,8.236,1.781c6.441-0.332,0.764-8.183-1.881-9.441c-0.471-0.263-0.963-0.459-1.463-0.583
	c-0.998-0.248-2.027-0.206-2.986,0.184c-1.439,0.583-2.451,1.832-2.922,3.383c-0.156,0.517-0.254,1.066-0.287,1.637
	c-0.025,0.567,0.041,1.146,0.246,1.673S328.199,410.015,328.693,410.401z"/>
</svg>
