<?xml version="1.0" encoding="utf-8"?>
<!-- Generator: Adobe Illustrator 16.0.0, SVG Export Plug-In . SVG Version: 6.00 Build 0)  -->
<svg version="1.1" id="Layer_1" xmlns="http://www.w3.org/2000/svg" xmlns:xlink="http://www.w3.org/1999/xlink" x="0px" y="0px"
	 width="612px" height="792px" viewBox="0 0 612 792" enable-background="new 0 0 612 792" xml:space="preserve">
<rect x="177.581" y="331.868" fill-opacity="0" fill="#231F20" width="256" height="128.265"/>
<path id="PRIMARY_12_" fill="#00BC03" stroke="#231F20" stroke-width="3.6615" stroke-miterlimit="10" d="M194.44,459.023
	c-0.765-4.07-0.54-8.386-1.186-12.451c-17.198-108.377,47.415-83.945,113.731-86.632c105.339-4.27,113.734,38.791,113.734,86.632
	c0,4.227-0.421,8.381-1.186,12.451H194.44z"/>
<path id="SECONDARY_16_" fill="#FFFDB5" stroke="#231F20" stroke-width="3.6615" stroke-miterlimit="10" d="M280.372,455.977
	c13.261,4.975,26.313,3.172,33.787-0.521c24.266-7.358-7.294-33.645-18.996-36.243c-2.135-0.611-4.266-0.945-6.334-0.977
	c-4.135-0.064-8.029,1.066-11.221,3.528c-4.785,3.689-7.101,9.667-6.97,16.344c0.044,2.228,0.359,4.531,0.946,6.854
	c0.611,2.309,1.586,4.577,3.03,6.503C276.058,453.394,277.996,454.886,280.372,455.977z"/>
<path id="SECONDARY_15_" fill="#FFFDB5" stroke="#231F20" stroke-width="3.6615" stroke-miterlimit="10" d="M339.859,455.977
	c13.262,4.975,26.315,3.172,33.782-0.521c24.265-7.358-7.288-33.645-18.992-36.243c-2.136-0.611-4.266-0.945-6.337-0.977
	c-4.138-0.064-8.031,1.066-11.218,3.528c-4.788,3.689-7.103,9.667-6.974,16.344c0.043,2.228,0.357,4.531,0.95,6.854
	c0.607,2.309,1.586,4.577,3.029,6.503C335.544,453.394,337.48,454.886,339.859,455.977z"/>
<path id="SECONDARY_14_" fill="#FFFDB5" stroke="#231F20" stroke-width="3.6615" stroke-miterlimit="10" d="M390.132,448.776
	c10.403,6.946,22.485,8.117,30.131,6.528c23.564-1.217,2.794-29.986-6.881-34.601c-1.722-0.962-3.522-1.682-5.352-2.137
	c-3.651-0.908-7.416-0.755-10.925,0.673c-5.266,2.138-8.967,6.715-10.688,12.397c-0.572,1.894-0.929,3.909-1.051,5.998
	c-0.093,2.08,0.15,4.202,0.9,6.13C387.017,445.695,388.324,447.359,390.132,448.776z"/>
</svg>
