<?xml version="1.0" encoding="utf-8"?>
<!-- Generator: Adobe Illustrator 16.0.0, SVG Export Plug-In . SVG Version: 6.00 Build 0)  -->
<svg version="1.1" id="Layer_1" xmlns="http://www.w3.org/2000/svg" xmlns:xlink="http://www.w3.org/1999/xlink" x="0px" y="0px"
	 width="612px" height="792px" viewBox="0 0 612 792" enable-background="new 0 0 612 792" xml:space="preserve">
<rect x="266.5" y="369.004" fill-opacity="0" fill="#231F20" width="81" height="54.487"/>
<path id="SECONDARY_18_" fill="#F1F1F1" stroke="#231F20" stroke-miterlimit="10" d="M328.764,403.647l-4.133-14.194
	c-0.938,3.128-2.919,5.886-5.614,7.994l2.426,8.331c0.589,2.022,2.704,3.184,4.726,2.595
	C328.19,407.785,329.353,405.67,328.764,403.647z"/>
<path id="SECONDARY_17_" fill="#F1F1F1" stroke="#231F20" stroke-miterlimit="10" d="M309.758,401.419l0.69,8.642
	c0.167,2.1,2.005,3.665,4.104,3.497c2.099-0.167,3.665-2.004,3.497-4.104l-0.857-10.739
	C315.007,400.042,312.487,400.98,309.758,401.419z"/>
<path id="SECONDARY_16_" fill="#F1F1F1" stroke="#231F20" stroke-miterlimit="10" d="M306.25,401.709
	c-2.338,0-4.568-0.381-6.636-1.045l-0.15,9.854c-0.032,2.106,1.648,3.839,3.754,3.87c2.105,0.033,3.839-1.646,3.87-3.753
	l0.137-8.968C306.9,401.681,306.579,401.709,306.25,401.709z"/>
<path id="SECONDARY_15_" fill="#F1F1F1" stroke="#231F20" stroke-miterlimit="10" d="M290.937,395.016l-3.926,11.512
	c-0.68,1.993,0.385,4.158,2.377,4.839c1.993,0.68,4.16-0.384,4.839-2.378l3.131-9.183
	C294.816,398.646,292.629,396.998,290.937,395.016z"/>
<path id="SECONDARY_14_" fill="#F1F1F1" stroke="#231F20" stroke-miterlimit="10" d="M287.265,385.688l-7.861,4.81
	c-1.796,1.1-2.361,3.445-1.263,5.242c1.099,1.796,3.445,2.362,5.242,1.262l6.196-3.791
	C288.15,390.971,287.327,388.409,287.265,385.688z"/>
</svg>
