<?xml version="1.0" encoding="utf-8"?>
<!-- Generator: Adobe Illustrator 16.0.0, SVG Export Plug-In . SVG Version: 6.00 Build 0)  -->
<svg version="1.1" id="Layer_1" xmlns="http://www.w3.org/2000/svg" xmlns:xlink="http://www.w3.org/1999/xlink" x="0px" y="0px"
	 width="612px" height="792px" viewBox="0 0 612 792" enable-background="new 0 0 612 792" xml:space="preserve">
<rect x="179" y="310.248" fill="#231F20" fill-opacity="0" width="256" height="172"/>
<path id="SECONDARY_23_" fill="#F1F1F1" stroke="#231F20" stroke-width="3.1586" stroke-miterlimit="10" d="M234.609,419.606
	l13.062-44.807c2.964,9.874,9.225,18.579,17.742,25.235l-7.667,26.298c-1.861,6.382-8.55,10.05-14.937,8.191
	C236.42,432.668,232.747,425.991,234.609,419.606z"/>
<path id="SECONDARY_22_" fill="#F1F1F1" stroke="#231F20" stroke-width="3.1586" stroke-miterlimit="10" d="M294.678,412.572
	l-2.181,27.279c-0.528,6.631-6.336,11.569-12.971,11.039c-6.634-0.527-11.583-6.326-11.053-12.954l2.711-33.9
	C278.088,408.226,286.053,411.188,294.678,412.572z"/>
<path id="SECONDARY_21_" fill="#F1F1F1" stroke="#231F20" stroke-width="3.1586" stroke-miterlimit="10" d="M305.762,413.487
	c7.389,0,14.432-1.202,20.972-3.298l0.473,31.104c0.102,6.649-5.207,12.121-11.864,12.217c-6.651,0.104-12.13-5.194-12.23-11.847
	l-0.434-28.309C303.71,413.398,304.726,413.487,305.762,413.487z"/>
<path id="SECONDARY_20_" fill="#F1F1F1" stroke="#231F20" stroke-width="3.1586" stroke-miterlimit="10" d="M354.16,392.36
	l12.408,36.341c2.15,6.291-1.217,13.123-7.513,15.274c-6.303,2.146-13.148-1.212-15.296-7.506l-9.896-28.99
	C341.901,403.82,348.809,398.617,354.16,392.36z"/>
<path id="SECONDARY_19_" fill="#F1F1F1" stroke="#231F20" stroke-width="3.1586" stroke-miterlimit="10" d="M365.766,362.914
	l24.846,15.184c5.679,3.473,7.463,10.875,3.994,16.548c-3.476,5.669-10.887,7.454-16.568,3.983l-19.58-11.967
	C362.969,379.592,365.571,371.504,365.766,362.914z"/>
</svg>
