<?xml version="1.0" encoding="utf-8"?>
<!-- Generator: Adobe Illustrator 16.0.0, SVG Export Plug-In . SVG Version: 6.00 Build 0)  -->
<svg version="1.1" id="Layer_1" xmlns="http://www.w3.org/2000/svg" xmlns:xlink="http://www.w3.org/1999/xlink" x="0px" y="0px"
	 width="612px" height="792px" viewBox="0 0 612 792" enable-background="new 0 0 612 792" xml:space="preserve">
<rect x="179" y="310.248" fill="#231F20" fill-opacity="0" width="256" height="172"/>
<path id="SECONDARY_13_" fill="#F1F1F1" stroke="#231F20" stroke-width="3.1586" stroke-miterlimit="10" d="M341.5,352.264
	c-6.414,1.774-10.173,8.4-8.396,14.808l9.698,34.952c8.481-6.002,14.953-13.985,18.599-23.099l-5.068-18.276
	C354.55,354.239,347.914,350.489,341.5,352.264z"/>
<path id="SECONDARY_12_" fill="#F1F1F1" stroke="#231F20" stroke-width="3.1586" stroke-miterlimit="10" d="M324.253,368.218
	c-6.642,0.413-11.691,6.124-11.271,12.76l1.979,31.696c3.186-0.475,6.269-1.162,9.259-2.047c1.624-0.623,3.284-1.181,4.979-1.684
	c3.297-1.27,6.448-2.768,9.396-4.51l-1.559-24.95C336.617,372.845,330.896,367.8,324.253,368.218z"/>
<path id="SECONDARY_11_" fill="#F1F1F1" stroke="#231F20" stroke-width="3.1586" stroke-miterlimit="10" d="M299.582,371.737
	c-6.653-0.18-12.19,5.063-12.366,11.708l-0.744,27.928c0.456,0.123,0.92,0.219,1.378,0.33c0.563-0.025,1.122-0.063,1.694-0.053
	c5.559,0.064,10.919,0.805,16.004,2.093c1.673-0.021,3.333-0.077,4.972-0.216l0.784-29.438
	C311.481,377.444,306.234,371.914,299.582,371.737z"/>
<path id="SECONDARY_10_" fill="#F1F1F1" stroke="#231F20" stroke-width="3.1586" stroke-miterlimit="10" d="M281.807,359.926
	c-6.289-2.172-13.153,1.151-15.327,7.434l-9.113,26.302c5.488,6.013,12.488,10.933,20.519,14.38l11.367-32.81
	C291.429,368.953,288.094,362.104,281.807,359.926z"/>
<path id="SECONDARY_9_" fill="#F1F1F1" stroke="#231F20" stroke-width="3.1586" stroke-miterlimit="10" d="M257.488,366.339
	c5.193,4.164,12.771,3.337,16.943-1.843c4.167-5.187,3.344-12.756-1.849-16.919l-17.901-14.356c-0.894,1.155-1.855,2.25-2.847,3.317
	c-3.764,5.946-6.191,12.602-6.976,19.669L257.488,366.339z"/>
</svg>
