<?xml version="1.0" encoding="utf-8"?>
<!-- Generator: Adobe Illustrator 16.0.0, SVG Export Plug-In . SVG Version: 6.00 Build 0)  -->
<svg version="1.1" id="Layer_1" xmlns="http://www.w3.org/2000/svg" xmlns:xlink="http://www.w3.org/1999/xlink" x="0px" y="0px"
	 width="612px" height="792px" viewBox="0 0 612 792" enable-background="new 0 0 612 792" xml:space="preserve">
<rect x="266.5" y="369.004" fill-opacity="0" fill="#231F20" width="81" height="54.487"/>
<path id="SECONDARY_28_" fill="#F1F1F1" stroke="#231F20" stroke-miterlimit="10" d="M287.828,389.313l-0.927,4.768
	c1.375,2.788,3.616,5.148,6.439,6.833l0.604-3.107C290.97,395.63,288.8,392.678,287.828,389.313z"/>
<path id="SECONDARY_27_" fill="#F1F1F1" stroke="#231F20" stroke-miterlimit="10" d="M296.68,399.469l0.05,3.102
	c0.973,0.479,2.004,0.871,3.075,1.192c0.548,0.116,1.085,0.251,1.613,0.408c0.963,0.205,1.955,0.346,2.97,0.417l-0.048-2.962
	C301.563,401.388,298.974,400.623,296.68,399.469z"/>
<path id="SECONDARY_26_" fill="#F1F1F1" stroke="#231F20" stroke-miterlimit="10" d="M307.482,401.655l0.326,3.093
	c0.52,0.003,1.046-0.021,1.574-0.055c1.572-0.532,3.244-0.9,4.997-1.058c0.18-0.017,0.357-0.02,0.534-0.025
	c0.143-0.047,0.287-0.09,0.427-0.139l-0.378-3.592C312.696,400.888,310.166,401.507,307.482,401.655z"/>
<path id="SECONDARY_25_" fill="#F1F1F1" stroke="#231F20" stroke-miterlimit="10" d="M316.948,398.871l1.019,2.335
	c2.449-1.287,4.534-3.014,6.115-5.049l-1.238-2.837C321.402,395.541,319.381,397.443,316.948,398.871z"/>
<path id="SECONDARY_24_" fill="#F1F1F1" stroke="#231F20" stroke-miterlimit="10" d="M324.912,382.078l2.188-2.06
	c-0.422-2.213-1.354-4.255-2.688-6.04c-0.34-0.312-0.67-0.634-0.98-0.977l-2.213,2.081
	C323.045,377.093,324.339,379.473,324.912,382.078z"/>
</svg>
