<?xml version="1.0" encoding="utf-8"?>
<!-- Generator: Adobe Illustrator 16.0.0, SVG Export Plug-In . SVG Version: 6.00 Build 0)  -->
<svg version="1.1" id="Layer_1" xmlns="http://www.w3.org/2000/svg" xmlns:xlink="http://www.w3.org/1999/xlink" x="0px" y="0px"
	 width="612px" height="792px" viewBox="0 0 612 792" enable-background="new 0 0 612 792" xml:space="preserve">
<rect x="179" y="310.248" fill="#231F20" fill-opacity="0" width="256" height="172"/>
<path id="SECONDARY_18_" fill="#F1F1F1" stroke="#231F20" stroke-width="3.1586" stroke-miterlimit="10" d="M375.784,419.606
	L362.723,374.8c-2.963,9.874-9.226,18.579-17.744,25.235l7.67,26.298c1.861,6.382,8.546,10.05,14.935,8.191
	C373.973,432.668,377.645,425.991,375.784,419.606z"/>
<path id="SECONDARY_17_" fill="#F1F1F1" stroke="#231F20" stroke-width="3.1586" stroke-miterlimit="10" d="M315.716,412.572
	l2.183,27.279c0.527,6.631,6.336,11.569,12.969,11.039c6.636-0.527,11.583-6.326,11.053-12.954l-2.707-33.9
	C332.306,408.226,324.343,411.188,315.716,412.572z"/>
<path id="SECONDARY_16_" fill="#F1F1F1" stroke="#231F20" stroke-width="3.1586" stroke-miterlimit="10" d="M304.63,413.487
	c-7.389,0-14.437-1.202-20.973-3.298l-0.475,31.104c-0.1,6.649,5.208,12.121,11.864,12.217c6.654,0.104,12.132-5.194,12.231-11.847
	l0.433-28.309C306.686,413.398,305.67,413.487,304.63,413.487z"/>
<path id="SECONDARY_15_" fill="#F1F1F1" stroke="#231F20" stroke-width="3.1586" stroke-miterlimit="10" d="M256.233,392.36
	l-12.407,36.341c-2.15,6.291,1.216,13.123,7.512,15.274c6.298,2.146,13.146-1.212,15.293-7.506l9.895-28.99
	C268.492,403.82,261.58,398.617,256.233,392.36z"/>
<path id="SECONDARY_14_" fill="#F1F1F1" stroke="#231F20" stroke-width="3.1586" stroke-miterlimit="10" d="M244.628,362.914
	l-24.846,15.184c-5.676,3.473-7.461,10.875-3.991,16.548c3.474,5.669,10.888,7.454,16.566,3.983l19.583-11.967
	C247.424,379.592,244.824,371.504,244.628,362.914z"/>
</svg>
