<?xml version="1.0" encoding="utf-8"?>
<!-- Generator: Adobe Illustrator 16.0.0, SVG Export Plug-In . SVG Version: 6.00 Build 0)  -->
<svg version="1.1" id="Layer_1" xmlns="http://www.w3.org/2000/svg" xmlns:xlink="http://www.w3.org/1999/xlink" x="0px" y="0px"
	 width="612px" height="792px" viewBox="0 0 612 792" enable-background="new 0 0 612 792" xml:space="preserve">
<rect x="266.5" y="369.004" fill-opacity="0" fill="#231F20" width="81" height="54.487"/>
<path id="SECONDARY_23_" fill="#F1F1F1" stroke="#231F20" stroke-miterlimit="10" d="M284.095,403.647l4.133-14.194
	c0.938,3.128,2.919,5.886,5.614,7.994l-2.426,8.331c-0.589,2.022-2.705,3.184-4.726,2.595
	C284.668,407.785,283.506,405.67,284.095,403.647z"/>
<path id="SECONDARY_22_" fill="#F1F1F1" stroke="#231F20" stroke-miterlimit="10" d="M303.101,401.419l-0.69,8.642
	c-0.167,2.1-2.005,3.665-4.104,3.497c-2.099-0.167-3.665-2.004-3.497-4.104l0.858-10.739
	C297.852,400.042,300.372,400.98,303.101,401.419z"/>
<path id="SECONDARY_21_" fill="#F1F1F1" stroke="#231F20" stroke-miterlimit="10" d="M306.608,401.709
	c2.338,0,4.567-0.381,6.636-1.045l0.15,9.854c0.032,2.106-1.648,3.839-3.754,3.87c-2.105,0.033-3.838-1.646-3.87-3.753l-0.137-8.968
	C305.959,401.681,306.28,401.709,306.608,401.709z"/>
<path id="SECONDARY_20_" fill="#F1F1F1" stroke="#231F20" stroke-miterlimit="10" d="M321.922,395.016l3.926,11.512
	c0.68,1.993-0.385,4.158-2.377,4.839c-1.994,0.68-4.16-0.384-4.84-2.378l-3.131-9.183
	C318.043,398.646,320.229,396.998,321.922,395.016z"/>
<path id="SECONDARY_19_" fill="#F1F1F1" stroke="#231F20" stroke-miterlimit="10" d="M325.594,385.688l7.861,4.81
	c1.797,1.1,2.361,3.445,1.264,5.242c-1.1,1.796-3.445,2.362-5.242,1.262l-6.196-3.791
	C324.709,390.971,325.532,388.409,325.594,385.688z"/>
</svg>
