<?xml version="1.0" encoding="utf-8"?>
<!-- Generator: Adobe Illustrator 16.0.0, SVG Export Plug-In . SVG Version: 6.00 Build 0)  -->
<svg version="1.1" id="Layer_1" xmlns="http://www.w3.org/2000/svg" xmlns:xlink="http://www.w3.org/1999/xlink" x="0px" y="0px"
	 width="612px" height="792px" viewBox="0 0 612 792" enable-background="new 0 0 612 792" xml:space="preserve">
<rect x="266.5" y="369.004" fill-opacity="0" fill="#231F20" width="81" height="54.487"/>
<path id="SECONDARY_13_" fill="#F1F1F1" stroke="#231F20" stroke-miterlimit="10" d="M317.916,382.314
	c-2.029,0.562-3.219,2.661-2.656,4.691l3.068,11.072c2.684-1.901,4.732-4.43,5.885-7.317l-1.604-5.79
	C322.045,382.94,319.945,381.752,317.916,382.314z"/>
<path id="SECONDARY_12_" fill="#F1F1F1" stroke="#231F20" stroke-miterlimit="10" d="M312.459,387.368
	c-2.102,0.131-3.699,1.94-3.566,4.042l0.626,10.041c1.007-0.15,1.983-0.368,2.929-0.648c0.514-0.198,1.039-0.374,1.575-0.533
	c1.043-0.403,2.04-0.877,2.973-1.429l-0.493-7.904C316.371,388.834,314.561,387.236,312.459,387.368z"/>
<path id="SECONDARY_11_" fill="#F1F1F1" stroke="#231F20" stroke-miterlimit="10" d="M304.653,388.483
	c-2.105-0.057-3.857,1.604-3.913,3.709l-0.235,8.847c0.144,0.039,0.291,0.069,0.436,0.105c0.178-0.008,0.355-0.02,0.536-0.017
	c1.759,0.02,3.455,0.255,5.064,0.663c0.529-0.007,1.055-0.024,1.573-0.068l0.248-9.326
	C308.418,390.291,306.758,388.539,304.653,388.483z"/>
<path id="SECONDARY_10_" fill="#F1F1F1" stroke="#231F20" stroke-miterlimit="10" d="M299.029,384.741
	c-1.99-0.688-4.162,0.365-4.85,2.355l-2.883,8.332c1.736,1.905,3.951,3.464,6.492,4.555l3.597-10.393
	C302.073,387.601,301.018,385.431,299.029,384.741z"/>
<path id="SECONDARY_9_" fill="#F1F1F1" stroke="#231F20" stroke-miterlimit="10" d="M291.334,386.773
	c1.643,1.319,4.041,1.057,5.361-0.584c1.318-1.643,1.058-4.041-0.585-5.36l-5.664-4.548c-0.283,0.366-0.587,0.713-0.901,1.051
	c-1.191,1.884-1.959,3.992-2.207,6.231L291.334,386.773z"/>
</svg>
