<?xml version="1.0" encoding="utf-8"?>
<!-- Generator: Adobe Illustrator 16.0.0, SVG Export Plug-In . SVG Version: 6.00 Build 0)  -->
<svg version="1.1" id="Layer_1" xmlns="http://www.w3.org/2000/svg" xmlns:xlink="http://www.w3.org/1999/xlink" x="0px" y="0px"
	 width="612px" height="792px" viewBox="0 0 612 792" enable-background="new 0 0 612 792" xml:space="preserve">
<rect x="179" y="310.248" fill="#231F20" fill-opacity="0" width="256" height="172"/>
<path id="SECONDARY_28_" fill="#F1F1F1" stroke="#231F20" stroke-width="3.1586" stroke-miterlimit="10" d="M246.407,374.357
	l-2.93,15.051c4.345,8.801,11.429,16.249,20.35,21.57l1.909-9.81C256.338,394.298,249.479,384.98,246.407,374.357z"/>
<path id="SECONDARY_27_" fill="#F1F1F1" stroke="#231F20" stroke-width="3.1586" stroke-miterlimit="10" d="M274.384,406.416
	l0.157,9.794c3.076,1.511,6.333,2.749,9.719,3.761c1.731,0.367,3.429,0.792,5.097,1.288c3.043,0.647,6.179,1.092,9.387,1.316
	l-0.152-9.35C289.816,412.474,281.634,410.06,274.384,406.416z"/>
<path id="SECONDARY_26_" fill="#F1F1F1" stroke="#231F20" stroke-width="3.1586" stroke-miterlimit="10" d="M308.524,413.318
	l1.028,9.763c1.645,0.009,3.306-0.067,4.975-0.173c4.97-1.68,10.254-2.842,15.794-3.342c0.567-0.052,1.129-0.062,1.688-0.076
	c0.45-0.151,0.907-0.287,1.349-0.441l-1.194-11.338C325.003,410.896,317.006,412.85,308.524,413.318z"/>
<path id="SECONDARY_25_" fill="#F1F1F1" stroke="#231F20" stroke-width="3.1586" stroke-miterlimit="10" d="M338.441,404.529
	l3.219,7.371c7.741-4.063,14.33-9.514,19.327-15.938l-3.913-8.957C352.519,394.017,346.13,400.022,338.441,404.529z"/>
<path id="SECONDARY_24_" fill="#F1F1F1" stroke="#231F20" stroke-width="3.1586" stroke-miterlimit="10" d="M363.611,351.519
	l6.913-6.503c-1.333-6.986-4.277-13.432-8.493-19.067c-1.074-0.985-2.117-2.002-3.1-3.084l-6.993,6.569
	C357.71,335.782,361.8,343.296,363.611,351.519z"/>
</svg>
