<?xml version="1.0" encoding="utf-8"?>
<!-- Generator: Adobe Illustrator 16.0.0, SVG Export Plug-In . SVG Version: 6.00 Build 0)  -->
<svg version="1.1" id="Layer_1" xmlns="http://www.w3.org/2000/svg" xmlns:xlink="http://www.w3.org/1999/xlink" x="0px" y="0px"
	 width="612px" height="792px" viewBox="0 0 612 792" enable-background="new 0 0 612 792" xml:space="preserve">
<rect x="253.5" y="427.606" fill-opacity="0" fill="#231F20" width="105" height="34"/>
<path id="SECONDARY_4_" fill="#8C8900" stroke="#231F20" stroke-miterlimit="10" d="M355,444.606
	c0,8.729-7.075,15.804-15.803,15.804h-66.061c-8.728,0-15.803-7.075-15.803-15.804l0,0c0-8.728,7.075-15.803,15.803-15.803h66.061
	C347.925,428.804,355,435.879,355,444.606L355,444.606z"/>
<rect id="PRIMARY_91_" x="259.509" y="430.036" fill="#F1F1F1" stroke="#231F20" stroke-miterlimit="10" width="92.982" height="3.572"/>
<rect id="PRIMARY_90_" x="260.149" y="435.606" fill="#F1F1F1" stroke="#231F20" stroke-miterlimit="10" width="94.211" height="4.55"/>
<rect id="PRIMARY_89_" x="257.638" y="437.089" transform="matrix(0.9966 0.0819 -0.0819 0.9966 37.1265 -23.5854)" fill="#F1F1F1" stroke="#231F20" stroke-miterlimit="10" width="96.99" height="7.584"/>
<rect id="PRIMARY_88_" x="262.454" y="450.831" transform="matrix(-0.9943 0.1064 -0.1064 -0.9943 665.5181 870.313)" fill="#F1F1F1" stroke="#231F20" stroke-miterlimit="10" width="94.195" height="4.145"/>
<rect id="PRIMARY_87_" x="260.149" y="455.75" fill="#F1F1F1" stroke="#231F20" stroke-miterlimit="10" width="88.333" height="3"/>
<rect id="PRIMARY_86_" x="257.727" y="448.106" fill="#F1F1F1" stroke="#231F20" stroke-miterlimit="10" width="97.273" height="5"/>
<rect id="PRIMARY_85_" x="255.319" y="443.203" transform="matrix(0.9941 -0.1081 0.1081 0.9941 -46.4048 35.6064)" fill="#F1F1F1" stroke="#231F20" stroke-miterlimit="10" width="99.5" height="4.857"/>
<rect id="PRIMARY_84_" x="255.5" y="443.25" fill="#F1F1F1" stroke="#231F20" stroke-miterlimit="10" width="99.5" height="3"/>
</svg>
