<?xml version="1.0" encoding="utf-8"?>
<!-- Generator: Adobe Illustrator 16.0.0, SVG Export Plug-In . SVG Version: 6.00 Build 0)  -->
<svg version="1.1" id="Layer_1" xmlns="http://www.w3.org/2000/svg" xmlns:xlink="http://www.w3.org/1999/xlink" x="0px" y="0px"
	 width="612px" height="792px" viewBox="0 0 612 792" enable-background="new 0 0 612 792" xml:space="preserve">
<rect x="178" y="402.606" fill="#231F20" fill-opacity="0" width="256" height="84"/>
<path id="SECONDARY_4_" fill="#8C8900" stroke="#231F20" stroke-width="2.4543" stroke-miterlimit="10" d="M425.467,444.606
	c0,21.564-17.25,39.044-38.528,39.044H225.874c-21.279,0-38.529-17.479-38.529-39.044l0,0c0-21.564,17.25-39.044,38.529-39.044
	h161.064C408.217,405.564,425.467,423.044,425.467,444.606L425.467,444.606z"/>
<rect id="PRIMARY_91_" x="192.65" y="408.609" fill="#F1F1F1" stroke="#231F20" stroke-width="2.4543" stroke-miterlimit="10" width="226.7" height="8.825"/>
<rect id="PRIMARY_90_" x="194.211" y="422.371" fill="#F1F1F1" stroke="#231F20" stroke-width="2.4543" stroke-miterlimit="10" width="229.696" height="11.24"/>
<polygon id="PRIMARY_89_" fill="#F1F1F1" stroke="#231F20" stroke-width="2.4543" stroke-miterlimit="10" points="189.193,416.224 
	424.859,435.849 423.346,454.522 187.679,434.896 "/>
<polygon id="PRIMARY_88_" fill="#F1F1F1" stroke="#231F20" stroke-width="2.4543" stroke-miterlimit="10" points="429.348,457.874 
	201,482.635 199.925,472.453 428.271,447.692 "/>
<rect id="PRIMARY_87_" x="194.211" y="472.138" fill="#F1F1F1" stroke="#231F20" stroke-width="2.4543" stroke-miterlimit="10" width="215.365" height="7.411"/>
<rect id="PRIMARY_86_" x="188.306" y="453.254" fill="#F1F1F1" stroke="#231F20" stroke-width="2.4543" stroke-miterlimit="10" width="237.161" height="12.353"/>
<polygon id="PRIMARY_85_" fill="#F1F1F1" stroke="#231F20" stroke-width="2.4543" stroke-miterlimit="10" points="182.432,454.46 
	423.593,427.887 424.871,439.814 183.713,466.389 "/>
<rect id="PRIMARY_84_" x="182.876" y="441.255" fill="#F1F1F1" stroke="#231F20" stroke-width="2.4543" stroke-miterlimit="10" width="242.591" height="7.412"/>
</svg>
