<?xml version="1.0" encoding="utf-8"?>
<!-- Generator: Adobe Illustrator 16.0.0, SVG Export Plug-In . SVG Version: 6.00 Build 0)  -->
<svg version="1.1" id="Layer_1" xmlns="http://www.w3.org/2000/svg" xmlns:xlink="http://www.w3.org/1999/xlink" x="0px" y="0px"
	 width="612px" height="792px" viewBox="0 0 612 792" enable-background="new 0 0 612 792" xml:space="preserve">
<rect x="240.5" y="269.066" fill="#231F20" fill-opacity="0" width="133" height="254.987"/>
<path id="SECONDARY_5_" fill="#8C8900" stroke="#231F20" stroke-width="2.3384" stroke-miterlimit="10" d="M359.568,482.182
	c0,22.852-10.71,41.379-23.921,41.379h-59.272c-13.209,0-23.919-18.527-23.919-41.379V311.157c0-22.849,10.709-41.377,23.919-41.377
	h59.272c13.211,0,23.921,18.528,23.921,41.377V482.182z"/>
<rect id="PRIMARY_118_" x="260.445" y="273.765" fill="#F1F1F1" stroke="#231F20" stroke-width="2.3384" stroke-miterlimit="10" width="93.379" height="12.021"/>
<polygon id="PRIMARY_117_" fill="#F1F1F1" stroke="#231F20" stroke-width="2.3384" stroke-miterlimit="10" points="358.671,296.477 
	251.996,313.327 251.55,304.375 358.224,287.523 "/>
<polygon id="PRIMARY_116_" fill="#F1F1F1" stroke="#231F20" stroke-width="2.3384" stroke-miterlimit="10" points="360.648,324.203 
	251.553,313.287 251.724,307.93 360.817,318.843 "/>
<rect id="PRIMARY_115_" x="251.457" y="334.322" fill="#F1F1F1" stroke="#231F20" stroke-width="2.3384" stroke-miterlimit="10" width="108.111" height="7.569"/>
<rect id="PRIMARY_114_" x="251.55" y="289.796" fill="#F1F1F1" stroke="#231F20" stroke-width="2.3384" stroke-miterlimit="10" width="107.118" height="6.681"/>
<rect id="PRIMARY_113_" x="253.273" y="305.127" fill="#F1F1F1" stroke="#231F20" stroke-width="2.3384" stroke-miterlimit="10" width="109.419" height="9.412"/>
<rect id="PRIMARY_112_" x="251.457" y="319.183" fill="#F1F1F1" stroke="#231F20" stroke-width="2.3384" stroke-miterlimit="10" width="108.111" height="12.912"/>
<rect id="PRIMARY_111_" x="251.457" y="344.563" fill="#F1F1F1" stroke="#231F20" stroke-width="2.3384" stroke-miterlimit="10" width="111.042" height="3.564"/>
<rect id="PRIMARY_110_" x="250.377" y="369.946" fill="#F1F1F1" stroke="#231F20" stroke-width="2.3384" stroke-miterlimit="10" width="110.442" height="8.459"/>
<rect id="PRIMARY_109_" x="251.457" y="352.58" fill="#F1F1F1" stroke="#231F20" stroke-width="2.3384" stroke-miterlimit="10" width="111.042" height="10.832"/>
<rect id="PRIMARY_108_" x="251.457" y="388.202" fill="#F1F1F1" stroke="#231F20" stroke-width="2.3384" stroke-miterlimit="10" width="111.611" height="13.359"/>
<polygon id="PRIMARY_107_" fill="#F1F1F1" stroke="#231F20" stroke-width="2.3384" stroke-miterlimit="10" points="360.279,408.204 
	250.361,375.116 251.754,360.391 361.669,393.481 "/>
<polygon id="PRIMARY_106_" fill="#F1F1F1" stroke="#231F20" stroke-width="2.3384" stroke-miterlimit="10" points="360.758,404.506 
	251.425,432.337 250.437,419.992 359.769,392.165 "/>
<rect id="PRIMARY_105_" x="251.457" y="404.677" fill="#F1F1F1" stroke="#231F20" stroke-width="2.3384" stroke-miterlimit="10" width="108.111" height="10.688"/>
<rect id="PRIMARY_104_" x="250.361" y="429.172" fill="#F1F1F1" stroke="#231F20" stroke-width="2.3384" stroke-miterlimit="10" width="111.308" height="6.68"/>
<rect id="PRIMARY_103_" x="251.457" y="444.754" fill="#F1F1F1" stroke="#231F20" stroke-width="2.3384" stroke-miterlimit="10" width="110.212" height="4.898"/>
<polygon id="PRIMARY_102_" fill="#F1F1F1" stroke="#231F20" stroke-width="2.3384" stroke-miterlimit="10" points="250.239,448.837 
	361.747,422.731 360.64,407.721 249.136,433.824 "/>
<polygon id="PRIMARY_101_" fill="#F1F1F1" stroke="#231F20" stroke-width="2.3384" stroke-miterlimit="10" points="361.756,370.161 
	248.085,331.285 249.82,315.178 363.487,354.056 "/>
<polygon id="PRIMARY_100_" fill="#F1F1F1" stroke="#231F20" stroke-width="2.3384" stroke-miterlimit="10" points="363.579,313.861 
	253.245,394.564 251.158,385.497 361.491,304.794 "/>
<rect id="PRIMARY_99_" x="249.584" y="451.438" fill="#F1F1F1" stroke="#231F20" stroke-width="2.3384" stroke-miterlimit="10" width="112.532" height="14.115"/>
<rect id="PRIMARY_98_" x="251.457" y="473.901" fill="#F1F1F1" stroke="#231F20" stroke-width="2.3384" stroke-miterlimit="10" width="111.042" height="3.47"/>
<rect id="PRIMARY_97_" x="259.672" y="509.23" fill="#F1F1F1" stroke="#231F20" stroke-width="2.3384" stroke-miterlimit="10" width="97.153" height="8.104"/>
<polygon id="PRIMARY_96_" fill="#F1F1F1" stroke="#231F20" stroke-width="2.3384" stroke-miterlimit="10" points="362.116,465.553 
	255.357,511.072 253.994,500.906 360.753,455.387 "/>
<rect id="PRIMARY_95_" x="252.456" y="485.326" fill="#F1F1F1" stroke="#231F20" stroke-width="2.3384" stroke-miterlimit="10" width="99.123" height="12.104"/>
<rect id="PRIMARY_94_" x="251.158" y="468.354" fill="#F1F1F1" stroke="#231F20" stroke-width="2.3384" stroke-miterlimit="10" width="111.341" height="5.547"/>
<polygon id="PRIMARY_93_" fill="#F1F1F1" stroke="#231F20" stroke-width="2.3384" stroke-miterlimit="10" points="360.553,512.155 
	251.292,462.328 253.198,449.034 362.458,498.858 "/>
<polygon id="PRIMARY_92_" fill="#F1F1F1" stroke="#231F20" stroke-width="2.3384" stroke-miterlimit="10" points="360.243,474.918 
	257.65,500.845 258.724,514.35 361.318,488.418 "/>
<ellipse fill="none" stroke="#231F20" stroke-width="2.3384" stroke-miterlimit="10" cx="307" cy="293.555" rx="5.833" ry="5.859"/>
</svg>
