<?xml version="1.0" encoding="utf-8"?>
<!-- Generator: Adobe Illustrator 16.0.0, SVG Export Plug-In . SVG Version: 6.00 Build 0)  -->
<svg version="1.1" id="Layer_1" xmlns="http://www.w3.org/2000/svg" xmlns:xlink="http://www.w3.org/1999/xlink" x="0px" y="0px"
	 width="612px" height="792px" viewBox="0 0 612 792" enable-background="new 0 0 612 792" xml:space="preserve">
<rect x="278.5" y="344.963" fill-opacity="0" fill="#231F20" width="57" height="103.121"/>
<path id="SECONDARY_6_" fill="#8C8900" stroke="#231F20" stroke-miterlimit="10" d="M329.529,423.359
	c0,8.431-4.59,15.266-10.252,15.266h-25.401c-5.661,0-10.251-6.835-10.251-15.266v-63.094c0-8.429,4.59-15.264,10.251-15.264h25.401
	c5.662,0,10.252,6.835,10.252,15.264V423.359z"/>
<rect id="PRIMARY_145_" x="287.049" y="346.473" fill="#F1F1F1" stroke="#231F20" stroke-miterlimit="10" width="40.018" height="4.435"/>
<polygon id="PRIMARY_144_" fill="#F1F1F1" stroke="#231F20" stroke-miterlimit="10" points="329.145,354.851 283.428,361.067 
	283.237,357.765 328.953,351.548 "/>
<polygon id="PRIMARY_143_" fill="#F1F1F1" stroke="#231F20" stroke-miterlimit="10" points="329.992,365.079 283.238,361.053 
	283.311,359.076 330.064,363.103 "/>
<rect id="PRIMARY_142_" x="283.197" y="368.813" fill="#F1F1F1" stroke="#231F20" stroke-miterlimit="10" width="46.333" height="2.793"/>
<rect id="PRIMARY_141_" x="283.237" y="352.387" fill="#F1F1F1" stroke="#231F20" stroke-miterlimit="10" width="45.907" height="2.464"/>
<rect id="PRIMARY_140_" x="283.975" y="358.042" fill="#F1F1F1" stroke="#231F20" stroke-miterlimit="10" width="46.893" height="3.472"/>
<rect id="PRIMARY_139_" x="283.197" y="363.228" fill="#F1F1F1" stroke="#231F20" stroke-miterlimit="10" width="46.333" height="4.764"/>
<rect id="PRIMARY_138_" x="283.197" y="372.591" fill="#F1F1F1" stroke="#231F20" stroke-miterlimit="10" width="47.588" height="1.314"/>
<rect id="PRIMARY_137_" x="282.734" y="381.955" fill="#F1F1F1" stroke="#231F20" stroke-miterlimit="10" width="47.331" height="3.121"/>
<rect id="PRIMARY_136_" x="283.197" y="375.549" fill="#F1F1F1" stroke="#231F20" stroke-miterlimit="10" width="47.588" height="3.995"/>
<rect id="PRIMARY_135_" x="283.197" y="388.689" fill="#F1F1F1" stroke="#231F20" stroke-miterlimit="10" width="47.833" height="4.928"/>
<polygon id="PRIMARY_134_" fill="#F1F1F1" stroke="#231F20" stroke-miterlimit="10" points="329.834,396.068 282.727,383.862 
	283.324,378.43 330.43,390.638 "/>
<polygon id="PRIMARY_133_" fill="#F1F1F1" stroke="#231F20" stroke-miterlimit="10" points="330.039,394.704 283.183,404.972 
	282.76,400.417 329.615,390.151 "/>
<rect id="PRIMARY_132_" x="283.197" y="394.768" fill="#F1F1F1" stroke="#231F20" stroke-miterlimit="10" width="46.333" height="3.942"/>
<rect id="PRIMARY_131_" x="282.727" y="403.804" fill="#F1F1F1" stroke="#231F20" stroke-miterlimit="10" width="47.703" height="2.464"/>
<rect id="PRIMARY_130_" x="283.197" y="409.553" fill="#F1F1F1" stroke="#231F20" stroke-miterlimit="10" width="47.233" height="1.807"/>
<polygon id="PRIMARY_129_" fill="#F1F1F1" stroke="#231F20" stroke-miterlimit="10" points="282.675,411.059 330.463,401.428 
	329.988,395.891 282.202,405.521 "/>
<polygon id="PRIMARY_128_" fill="#F1F1F1" stroke="#231F20" stroke-miterlimit="10" points="330.467,382.034 281.752,367.692 
	282.495,361.75 331.209,376.093 "/>
<polygon id="PRIMARY_127_" fill="#F1F1F1" stroke="#231F20" stroke-miterlimit="10" points="331.248,361.265 283.963,391.037 
	283.069,387.691 330.354,357.92 "/>
<rect id="PRIMARY_126_" x="282.394" y="412.018" fill="#F1F1F1" stroke="#231F20" stroke-miterlimit="10" width="48.227" height="5.208"/>
<rect id="PRIMARY_125_" x="283.197" y="420.305" fill="#F1F1F1" stroke="#231F20" stroke-miterlimit="10" width="47.588" height="1.28"/>
<rect id="PRIMARY_124_" x="286.718" y="433.338" fill="#F1F1F1" stroke="#231F20" stroke-miterlimit="10" width="41.635" height="2.99"/>
<polygon id="PRIMARY_123_" fill="#F1F1F1" stroke="#231F20" stroke-miterlimit="10" points="330.621,417.226 284.868,434.018 
	284.284,430.268 330.037,413.475 "/>
<rect id="PRIMARY_122_" x="283.625" y="424.521" fill="#F1F1F1" stroke="#231F20" stroke-miterlimit="10" width="42.48" height="4.466"/>
<rect id="PRIMARY_121_" x="283.069" y="418.259" fill="#F1F1F1" stroke="#231F20" stroke-miterlimit="10" width="47.716" height="2.046"/>
<polygon id="PRIMARY_120_" fill="#F1F1F1" stroke="#231F20" stroke-miterlimit="10" points="329.951,434.417 283.126,416.036 
	283.943,411.131 330.768,429.512 "/>
<polygon id="PRIMARY_119_" fill="#F1F1F1" stroke="#231F20" stroke-miterlimit="10" points="329.818,420.68 285.851,430.245 
	286.311,435.227 330.279,425.66 "/>
<circle fill="none" stroke="#231F20" stroke-miterlimit="10" cx="306.5" cy="354.606" r="2.5"/>
<circle fill="none" stroke="#231F20" stroke-miterlimit="10" cx="304" cy="427.606" r="2.5"/>
</svg>
