<?xml version="1.0" encoding="utf-8"?>
<!-- Generator: Adobe Illustrator 16.0.0, SVG Export Plug-In . SVG Version: 6.00 Build 0)  -->
<svg version="1.1" id="Layer_1" xmlns="http://www.w3.org/2000/svg" xmlns:xlink="http://www.w3.org/1999/xlink" x="0px" y="0px"
	 width="612px" height="792px" viewBox="0 0 612 792" enable-background="new 0 0 612 792" xml:space="preserve">
<rect x="236.5" y="268.897" fill="#231F20" fill-opacity="0" width="141" height="255.252"/>
<path id="SECONDARY_6_" fill="#8C8900" stroke="#231F20" stroke-width="2.4745" stroke-miterlimit="10" d="M362.73,462.949
	c0,20.868-11.354,37.786-25.36,37.786h-62.835c-14.004,0-25.357-16.918-25.357-37.786V306.774c0-20.864,11.354-37.783,25.357-37.783
	h62.835c14.007,0,25.36,16.918,25.36,37.783V462.949z"/>
<rect id="PRIMARY_145_" x="257.647" y="272.636" fill="#F1F1F1" stroke="#231F20" stroke-width="2.4745" stroke-miterlimit="10" width="98.994" height="10.978"/>
<polygon id="PRIMARY_144_" fill="#F1F1F1" stroke="#231F20" stroke-width="2.4745" stroke-miterlimit="10" points="361.778,293.374 
	248.691,308.759 248.217,300.586 361.305,285.197 "/>
<polygon id="PRIMARY_143_" fill="#F1F1F1" stroke="#231F20" stroke-width="2.4745" stroke-miterlimit="10" points="363.875,318.69 
	248.22,308.726 248.401,303.832 364.055,313.799 "/>
<rect id="PRIMARY_142_" x="248.118" y="327.933" fill="#F1F1F1" stroke="#231F20" stroke-width="2.4745" stroke-miterlimit="10" width="114.614" height="6.914"/>
<rect id="PRIMARY_141_" x="248.217" y="287.275" fill="#F1F1F1" stroke="#231F20" stroke-width="2.4745" stroke-miterlimit="10" width="113.559" height="6.099"/>
<rect id="PRIMARY_140_" x="250.043" y="301.272" fill="#F1F1F1" stroke="#231F20" stroke-width="2.4745" stroke-miterlimit="10" width="115.999" height="8.594"/>
<rect id="PRIMARY_139_" x="248.118" y="314.108" fill="#F1F1F1" stroke="#231F20" stroke-width="2.4745" stroke-miterlimit="10" width="114.614" height="11.793"/>
<rect id="PRIMARY_138_" x="248.118" y="337.284" fill="#F1F1F1" stroke="#231F20" stroke-width="2.4745" stroke-miterlimit="10" width="117.719" height="3.252"/>
<rect id="PRIMARY_137_" x="246.973" y="360.463" fill="#F1F1F1" stroke="#231F20" stroke-width="2.4745" stroke-miterlimit="10" width="117.083" height="7.726"/>
<rect id="PRIMARY_136_" x="248.118" y="344.606" fill="#F1F1F1" stroke="#231F20" stroke-width="2.4745" stroke-miterlimit="10" width="117.719" height="9.889"/>
<rect id="PRIMARY_135_" x="248.118" y="377.131" fill="#F1F1F1" stroke="#231F20" stroke-width="2.4745" stroke-miterlimit="10" width="118.325" height="12.199"/>
<polygon id="PRIMARY_134_" fill="#F1F1F1" stroke="#231F20" stroke-width="2.4745" stroke-miterlimit="10" points="363.484,395.397 
	246.957,365.183 248.434,351.738 364.958,381.956 "/>
<polygon id="PRIMARY_133_" fill="#F1F1F1" stroke="#231F20" stroke-width="2.4745" stroke-miterlimit="10" points="363.991,392.02 
	248.084,417.435 247.037,406.161 362.943,380.75 "/>
<rect id="PRIMARY_132_" x="248.118" y="392.178" fill="#F1F1F1" stroke="#231F20" stroke-width="2.4745" stroke-miterlimit="10" width="114.614" height="9.757"/>
<rect id="PRIMARY_131_" x="246.957" y="414.544" fill="#F1F1F1" stroke="#231F20" stroke-width="2.4745" stroke-miterlimit="10" width="118.001" height="6.099"/>
<rect id="PRIMARY_130_" x="248.118" y="428.774" fill="#F1F1F1" stroke="#231F20" stroke-width="2.4745" stroke-miterlimit="10" width="116.84" height="4.475"/>
<polygon id="PRIMARY_129_" fill="#F1F1F1" stroke="#231F20" stroke-width="2.4745" stroke-miterlimit="10" points="246.827,432.502 
	365.04,408.663 363.865,394.958 245.658,418.796 "/>
<polygon id="PRIMARY_128_" fill="#F1F1F1" stroke="#231F20" stroke-width="2.4745" stroke-miterlimit="10" points="365.05,360.659 
	244.544,325.158 246.383,310.45 366.886,345.952 "/>
<polygon id="PRIMARY_127_" fill="#F1F1F1" stroke="#231F20" stroke-width="2.4745" stroke-miterlimit="10" points="366.982,309.25 
	250.014,382.943 247.802,374.661 364.77,300.97 "/>
<rect id="PRIMARY_126_" x="246.133" y="434.875" fill="#F1F1F1" stroke="#231F20" stroke-width="2.4745" stroke-miterlimit="10" width="119.299" height="12.892"/>
<rect id="PRIMARY_125_" x="248.118" y="455.389" fill="#F1F1F1" stroke="#231F20" stroke-width="2.4745" stroke-miterlimit="10" width="117.719" height="3.169"/>
<rect id="PRIMARY_124_" x="256.828" y="487.648" fill="#F1F1F1" stroke="#231F20" stroke-width="2.4745" stroke-miterlimit="10" width="102.991" height="7.402"/>
<polygon id="PRIMARY_123_" fill="#F1F1F1" stroke="#231F20" stroke-width="2.4745" stroke-miterlimit="10" points="365.432,447.767 
	252.253,489.331 250.808,480.049 363.986,438.482 "/>
<rect id="PRIMARY_122_" x="249.178" y="465.826" fill="#F1F1F1" stroke="#231F20" stroke-width="2.4745" stroke-miterlimit="10" width="105.083" height="11.054"/>
<rect id="PRIMARY_121_" x="247.802" y="450.324" fill="#F1F1F1" stroke="#231F20" stroke-width="2.4745" stroke-miterlimit="10" width="118.035" height="5.064"/>
<polygon id="PRIMARY_120_" fill="#F1F1F1" stroke="#231F20" stroke-width="2.4745" stroke-miterlimit="10" points="363.773,490.32 
	247.943,444.822 249.964,432.681 365.793,478.178 "/>
<polygon id="PRIMARY_119_" fill="#F1F1F1" stroke="#231F20" stroke-width="2.4745" stroke-miterlimit="10" points="363.445,456.316 
	254.684,479.993 255.822,492.324 364.586,468.645 "/>
<circle fill="none" stroke="#231F20" stroke-width="2.4745" stroke-miterlimit="10" cx="305.763" cy="292.767" r="6.188"/>
<circle fill="none" stroke="#231F20" stroke-width="2.4745" stroke-miterlimit="10" cx="299.579" cy="473.462" r="6.188"/>
</svg>
