<?xml version="1.0" encoding="utf-8"?>
<!-- Generator: Adobe Illustrator 16.0.0, SVG Export Plug-In . SVG Version: 6.00 Build 0)  -->
<svg version="1.1" id="Layer_1" xmlns="http://www.w3.org/2000/svg" xmlns:xlink="http://www.w3.org/1999/xlink" x="0px" y="0px"
	 width="612px" height="792px" viewBox="0 0 612 792" enable-background="new 0 0 612 792" xml:space="preserve">
<rect x="278.5" y="342.156" fill-opacity="0" fill="#231F20" width="57" height="108.807"/>
<path id="SECONDARY_5_" fill="#8C8900" stroke="#231F20" stroke-miterlimit="10" d="M329.529,433.096
	c0,9.751-4.59,17.657-10.252,17.657h-25.402c-5.661,0-10.251-7.906-10.251-17.657v-72.979c0-9.75,4.59-17.656,10.251-17.656h25.402
	c5.662,0,10.252,7.906,10.252,17.656V433.096z"/>
<rect id="PRIMARY_118_" x="287.048" y="344.161" fill="#F1F1F1" stroke="#231F20" stroke-miterlimit="10" width="40.019" height="5.13"/>
<polygon id="PRIMARY_117_" fill="#F1F1F1" stroke="#231F20" stroke-miterlimit="10" points="329.145,353.853 283.427,361.043 
	283.236,357.223 328.953,350.032 "/>
<polygon id="PRIMARY_116_" fill="#F1F1F1" stroke="#231F20" stroke-miterlimit="10" points="329.992,365.684 283.237,361.026 
	283.31,358.74 330.064,363.397 "/>
<rect id="PRIMARY_115_" x="283.196" y="370.002" fill="#F1F1F1" stroke="#231F20" stroke-miterlimit="10" width="46.333" height="3.23"/>
<rect id="PRIMARY_114_" x="283.236" y="351.002" fill="#F1F1F1" stroke="#231F20" stroke-miterlimit="10" width="45.908" height="2.851"/>
<rect id="PRIMARY_113_" x="283.974" y="357.544" fill="#F1F1F1" stroke="#231F20" stroke-miterlimit="10" width="46.894" height="4.016"/>
<rect id="PRIMARY_112_" x="283.196" y="363.542" fill="#F1F1F1" stroke="#231F20" stroke-miterlimit="10" width="46.333" height="5.51"/>
<rect id="PRIMARY_111_" x="283.196" y="374.372" fill="#F1F1F1" stroke="#231F20" stroke-miterlimit="10" width="47.589" height="1.521"/>
<rect id="PRIMARY_110_" x="282.733" y="385.203" fill="#F1F1F1" stroke="#231F20" stroke-miterlimit="10" width="47.332" height="3.61"/>
<rect id="PRIMARY_109_" x="283.196" y="377.793" fill="#F1F1F1" stroke="#231F20" stroke-miterlimit="10" width="47.589" height="4.622"/>
<rect id="PRIMARY_108_" x="283.196" y="392.993" fill="#F1F1F1" stroke="#231F20" stroke-miterlimit="10" width="47.833" height="5.7"/>
<polygon id="PRIMARY_107_" fill="#F1F1F1" stroke="#231F20" stroke-miterlimit="10" points="329.834,401.528 282.726,387.409 
	283.323,381.126 330.43,395.246 "/>
<polygon id="PRIMARY_106_" fill="#F1F1F1" stroke="#231F20" stroke-miterlimit="10" points="330.039,399.95 283.182,411.826 
	282.759,406.559 329.615,394.684 "/>
<rect id="PRIMARY_105_" x="283.196" y="400.023" fill="#F1F1F1" stroke="#231F20" stroke-miterlimit="10" width="46.333" height="4.561"/>
<rect id="PRIMARY_104_" x="282.726" y="410.476" fill="#F1F1F1" stroke="#231F20" stroke-miterlimit="10" width="47.704" height="2.85"/>
<rect id="PRIMARY_103_" x="283.196" y="417.125" fill="#F1F1F1" stroke="#231F20" stroke-miterlimit="10" width="47.234" height="2.09"/>
<polygon id="PRIMARY_102_" fill="#F1F1F1" stroke="#231F20" stroke-miterlimit="10" points="282.674,418.867 330.463,407.728 
	329.988,401.322 282.201,412.461 "/>
<polygon id="PRIMARY_101_" fill="#F1F1F1" stroke="#231F20" stroke-miterlimit="10" points="330.467,385.295 281.751,368.706 
	282.494,361.833 331.209,378.423 "/>
<polygon id="PRIMARY_100_" fill="#F1F1F1" stroke="#231F20" stroke-miterlimit="10" points="331.248,361.271 283.962,395.708 
	283.068,391.839 330.354,357.402 "/>
<rect id="PRIMARY_99_" x="282.393" y="419.977" fill="#F1F1F1" stroke="#231F20" stroke-miterlimit="10" width="48.228" height="6.023"/>
<rect id="PRIMARY_98_" x="283.196" y="429.563" fill="#F1F1F1" stroke="#231F20" stroke-miterlimit="10" width="47.589" height="1.48"/>
<rect id="PRIMARY_97_" x="286.717" y="444.638" fill="#F1F1F1" stroke="#231F20" stroke-miterlimit="10" width="41.636" height="3.458"/>
<polygon id="PRIMARY_96_" fill="#F1F1F1" stroke="#231F20" stroke-miterlimit="10" points="330.621,426 284.867,445.424 
	284.283,441.086 330.037,421.662 "/>
<rect id="PRIMARY_95_" x="283.624" y="434.438" fill="#F1F1F1" stroke="#231F20" stroke-miterlimit="10" width="42.481" height="5.165"/>
<rect id="PRIMARY_94_" x="283.068" y="427.195" fill="#F1F1F1" stroke="#231F20" stroke-miterlimit="10" width="47.717" height="2.367"/>
<polygon id="PRIMARY_93_" fill="#F1F1F1" stroke="#231F20" stroke-miterlimit="10" points="329.951,445.886 283.125,424.624 
	283.942,418.951 330.768,440.212 "/>
<polygon id="PRIMARY_92_" fill="#F1F1F1" stroke="#231F20" stroke-miterlimit="10" points="329.818,429.996 285.85,441.06 
	286.31,446.822 330.279,435.757 "/>
<circle fill="none" stroke="#231F20" stroke-miterlimit="10" cx="307" cy="352.606" r="2.5"/>
</svg>
