<?xml version="1.0" encoding="utf-8"?>
<!-- Generator: Adobe Illustrator 16.0.0, SVG Export Plug-In . SVG Version: 6.00 Build 0)  -->
<svg version="1.1" id="Layer_1" xmlns="http://www.w3.org/2000/svg" xmlns:xlink="http://www.w3.org/1999/xlink" x="0px" y="0px"
	 width="612px" height="792px" viewBox="0 0 612 792" enable-background="new 0 0 612 792" xml:space="preserve">
<rect x="271.592" y="379.106" fill-opacity="0" fill="#231F20" width="69.979" height="35"/>
<path id="SECONDARY_7_" fill="#8C8900" stroke="#231F20" stroke-miterlimit="10" d="M339.512,400.908
	c0,7.065-4.489,12.793-10.025,12.793h-41.907c-5.537,0-10.025-5.728-10.025-12.793l0,0c0-7.065,4.488-12.793,10.025-12.793h41.907
	C335.022,388.115,339.512,393.843,339.512,400.908L339.512,400.908z"/>
<rect id="PRIMARY_153_" x="278.935" y="389.112" fill="#F1F1F1" stroke="#231F20" stroke-miterlimit="10" width="58.984" height="2.893"/>
<rect id="PRIMARY_152_" x="279.34" y="393.622" fill="#F1F1F1" stroke="#231F20" stroke-miterlimit="10" width="59.765" height="3.684"/>
<polygon id="PRIMARY_151_" fill="#F1F1F1" stroke="#231F20" stroke-miterlimit="10" points="338.976,404.166 277.654,397.737 
	278.048,391.618 339.37,398.047 "/>
<polygon id="PRIMARY_150_" fill="#F1F1F1" stroke="#231F20" stroke-miterlimit="10" points="280.833,410.012 340.248,401.9 
	340.527,405.237 281.112,413.347 "/>
<rect id="PRIMARY_149_" x="279.34" y="409.929" fill="#F1F1F1" stroke="#231F20" stroke-miterlimit="10" width="56.037" height="2.429"/>
<rect id="PRIMARY_148_" x="277.804" y="403.741" fill="#F1F1F1" stroke="#231F20" stroke-miterlimit="10" width="61.708" height="4.048"/>
<polygon id="PRIMARY_147_" fill="#F1F1F1" stroke="#231F20" stroke-miterlimit="10" points="339.378,399.336 276.628,408.048 
	276.295,404.139 339.044,395.428 "/>
<rect id="PRIMARY_146_" x="276.391" y="399.81" fill="#F1F1F1" stroke="#231F20" stroke-miterlimit="10" width="63.121" height="2.429"/>
</svg>
