<?xml version="1.0" encoding="utf-8"?>
<!-- Generator: Adobe Illustrator 16.0.0, SVG Export Plug-In . SVG Version: 6.00 Build 0)  -->
<svg version="1.1" id="Layer_1" xmlns="http://www.w3.org/2000/svg" xmlns:xlink="http://www.w3.org/1999/xlink" x="0px" y="0px"
	 width="612px" height="792px" viewBox="0 0 612 792" enable-background="new 0 0 612 792" xml:space="preserve">
<rect id="head_frame_1_" x="178" y="286" fill="#231F20" fill-opacity="0" width="256" height="222"/>
<path id="PRIMARY_10_" fill="#8C8900" stroke="#231F20" stroke-width="1.695" stroke-miterlimit="10" d="M395.231,453.758
	c2.54,21.479-35.422,41.352-79.122,41.352c-43.698,0-79.119-18.516-79.119-41.352c0-22.842,35.421-41.354,79.119-41.354
	C359.81,412.404,392.55,431.075,395.231,453.758z"/>
<path id="PRIMARY_9_" fill="#8C8900" stroke="#231F20" stroke-width="1.695" stroke-miterlimit="10" d="M259.247,429.424
	c0-16.166,16.13-28.469,25.149-28.469l-0.001,28.469"/>
<path id="PRIMARY_8_" fill="#8C8900" stroke="#231F20" stroke-width="1.695" stroke-miterlimit="10" d="M298.268,417.311
	c0,8.952-3.409,16.212-11.063,16.212c-7.653,0-9.997-7.26-9.997-16.212c0-8.958,2.344-16.218,9.997-16.218
	C294.858,401.093,298.268,408.353,298.268,417.311z"/>
<path fill="#A50000" stroke="#231F20" stroke-width="1.695" stroke-miterlimit="10" d="M335.155,445.549
	c-16.144,0-50.074,12.007-62.351,11.757c0.19-1.158,0.315-2.34,0.315-3.551c0-12.002-9.737-21.733-21.745-21.733
	c-12.012,0-21.744,9.731-21.744,21.733c0,11.372,8.734,20.689,19.862,21.642c7,8.877,38.566,19.988,66.618,19.877
	c40.169-0.164,79.122-18.342,79.122-38.05C395.231,457.224,355.422,445.549,335.155,445.549z"/>
<path id="PRIMARY_7_" fill="#8C8900" stroke="#231F20" stroke-width="1.695" stroke-miterlimit="10" d="M335.155,420.292
	c0-10.999,16.13-19.363,25.149-19.363l-0.002,19.363"/>
<path id="PRIMARY_6_" fill="#8C8900" stroke="#231F20" stroke-width="1.695" stroke-miterlimit="10" d="M374.177,417.412
	c0,8.953-3.408,16.212-11.061,16.212c-7.654,0-9.999-7.259-9.999-16.212c0-8.96,2.345-16.219,9.999-16.219
	C370.769,401.193,374.177,408.452,374.177,417.412z"/>
<line fill="none" stroke="#231F20" stroke-width="1.695" stroke-miterlimit="10" x1="279.488" y1="405.586" x2="296.201" y2="427.699"/>
<line fill="none" stroke="#231F20" stroke-width="1.695" stroke-miterlimit="10" x1="372.002" y1="405.586" x2="355.29" y2="427.699"/>
<path fill="#F1F1F1" stroke="#231F20" stroke-width="1.695" stroke-miterlimit="10" d="M337.364,467.328
	c-16.144,0-52.283-9.772-64.56-10.022c0.19-1.158,0.315-2.34,0.315-3.551c0-12.002-9.737-21.733-21.745-21.733
	c-12.012,0-21.744,9.731-21.744,21.733c0,11.372,8.734,20.689,19.862,21.642c7,8.877,38.566,19.988,66.618,19.877
	c40.169-0.164,79.122-18.342,79.122-38.05C395.231,457.224,357.631,467.328,337.364,467.328z"/>
</svg>
