<?xml version="1.0" encoding="utf-8"?>
<!-- Generator: Adobe Illustrator 16.0.0, SVG Export Plug-In . SVG Version: 6.00 Build 0)  -->
<svg version="1.1" id="Layer_1" xmlns="http://www.w3.org/2000/svg" xmlns:xlink="http://www.w3.org/1999/xlink" x="0px" y="0px"
	 width="612px" height="792px" viewBox="0 0 612 792" enable-background="new 0 0 612 792" xml:space="preserve">
<rect id="head_frame_1_" x="178" y="286" fill="#231F20" fill-opacity="0" width="256" height="222"/>
<path id="PRIMARY_15_" fill="#8C8900" stroke="#231F20" stroke-width="1.695" stroke-miterlimit="10" d="M395.172,453.758
	c2.54,21.479-35.422,41.352-79.122,41.352c-43.698,0-79.119-18.516-79.119-41.352c0-22.842,35.421-41.354,79.119-41.354
	C359.75,412.404,392.49,431.075,395.172,453.758z"/>
<path id="PRIMARY_14_" fill="#8C8900" stroke="#231F20" stroke-width="1.695" stroke-miterlimit="10" d="M259.188,429.424
	c0-16.166,16.129-28.469,25.149-28.469l-0.001,28.469"/>
<path fill="#A50000" stroke="#231F20" stroke-width="1.695" stroke-miterlimit="10" d="M335.096,445.549
	c-16.144,0-50.074,12.007-62.351,11.757c0.19-1.158,0.315-2.34,0.315-3.551c0-12.002-9.736-21.733-21.744-21.733
	c-12.012,0-21.745,9.731-21.745,21.733c0,11.372,8.734,20.689,19.862,21.642c7.001,8.877,38.566,19.988,66.618,19.877
	c40.169-0.164,79.122-18.342,79.122-38.05C395.172,457.224,355.362,445.549,335.096,445.549z"/>
<path id="PRIMARY_12_" fill="#8C8900" stroke="#231F20" stroke-width="1.695" stroke-miterlimit="10" d="M335.096,420.292
	c0-10.999,16.13-19.363,25.149-19.363l-0.002,19.363"/>
<path fill="#F1F1F1" stroke="#231F20" stroke-width="1.695" stroke-miterlimit="10" d="M337.931,478.909
	c-16.143,0-52.909-21.354-65.186-21.604c0.19-1.158,0.315-2.34,0.315-3.551c0-12.002-9.736-21.733-21.744-21.733
	c-12.012,0-21.745,9.731-21.745,21.733c0,11.372,8.735,20.689,19.863,21.642c7,8.877,38.565,19.988,66.617,19.877
	c40.169-0.164,79.122-18.342,79.122-38.05C395.172,457.224,358.197,478.909,337.931,478.909z"/>
<path id="SECONDARY_3_" fill="#F77300" stroke="#231F20" stroke-width="1.695" stroke-miterlimit="10" d="M298.208,417.36
	c0,8.953-3.409,16.214-11.063,16.214c-7.652,0-9.997-7.261-9.997-16.214c0-8.958,2.345-16.217,9.997-16.217
	C294.799,401.144,298.208,408.402,298.208,417.36z"/>
<rect x="286.479" y="409.526" transform="matrix(-0.7073 0.7069 -0.7069 -0.7073 787.965 508.433)" fill="#231F20" width="4.476" height="15.661"/>
<path id="SECONDARY_2_" fill="#F77300" stroke="#231F20" stroke-width="1.695" stroke-miterlimit="10" d="M374.117,417.462
	c0,8.953-3.408,16.21-11.061,16.21c-7.654,0-9.999-7.257-9.999-16.21c0-8.96,2.345-16.219,9.999-16.219
	C370.709,401.243,374.117,408.502,374.117,417.462z"/>
<rect x="362.396" y="409.62" transform="matrix(-0.7072 -0.707 0.707 -0.7072 327.3721 970.4708)" fill="#231F20" width="4.475" height="15.659"/>
</svg>
