<?xml version="1.0" encoding="utf-8"?>
<!-- Generator: Adobe Illustrator 16.0.0, SVG Export Plug-In . SVG Version: 6.00 Build 0)  -->
<svg version="1.1" id="Layer_1" xmlns="http://www.w3.org/2000/svg" xmlns:xlink="http://www.w3.org/1999/xlink" x="0px" y="0px"
	 width="612px" height="792px" viewBox="0 0 612 792" enable-background="new 0 0 612 792" xml:space="preserve">
<rect id="head_frame_1_" x="230.5" y="331.5" fill-opacity="0" fill="#231F20" width="151" height="131"/>
<path id="PRIMARY_4_" fill="#8C8900" stroke="#231F20" stroke-miterlimit="10" d="M358.669,430.492
	c1.498,12.675-20.894,24.402-46.67,24.402c-25.775,0-46.668-10.926-46.668-24.402c0-13.478,20.893-24.402,46.668-24.402
	C337.775,406.09,357.087,417.107,358.669,430.492z"/>
<path id="PRIMARY_3_" fill="#8C8900" stroke="#231F20" stroke-miterlimit="10" d="M278.459,416.133
	c0-9.539,9.514-16.799,14.834-16.799l-0.001,16.799"/>
<path id="SECONDARY_1_" fill="#F77300" stroke="#231F20" stroke-miterlimit="10" d="M301.476,408.985
	c0,5.283-2.011,9.567-6.525,9.567s-5.897-4.284-5.897-9.567c0-5.286,1.383-9.57,5.897-9.57S301.476,403.699,301.476,408.985z"/>
<rect x="295.562" y="404.364" fill="#231F20" width="2.64" height="9.238"/>
<path id="PRIMARY_2_" fill="#8C8900" stroke="#231F20" stroke-miterlimit="10" d="M301.476,407.125c0,0-1.696-0.001-6.211-0.001
	s-6.212,0.001-6.212,0.001c0-4.324,1.383-7.83,5.897-7.83S301.476,402.801,301.476,407.125z"/>
<path fill="#F1F1F1" stroke="#231F20" stroke-miterlimit="10" d="M323.233,425.648c-9.522,0-29.536,7.085-36.777,6.938
	c0.112-0.684,0.186-1.381,0.186-2.096c0-7.082-5.743-12.824-12.826-12.824c-7.085,0-12.826,5.742-12.826,12.824
	c0,6.711,5.152,12.209,11.716,12.771c4.129,5.238,22.748,11.795,39.294,11.729c23.693-0.096,46.67-10.823,46.67-22.453
	C358.669,432.537,335.188,425.648,323.233,425.648z"/>
<path id="PRIMARY_1_" fill="#8C8900" stroke="#231F20" stroke-miterlimit="10" d="M323.233,410.744
	c0-6.49,9.514-11.426,14.834-11.426l-0.001,11.426"/>
<path id="SECONDARY" fill="#F77300" stroke="#231F20" stroke-miterlimit="10" d="M346.25,409.045c0,5.283-2.011,9.566-6.525,9.566
	s-5.897-4.283-5.897-9.566c0-5.287,1.383-9.57,5.897-9.57S346.25,403.758,346.25,409.045z"/>
<rect x="340.336" y="404.424" fill="#231F20" width="2.64" height="9.238"/>
<path id="PRIMARY" fill="#8C8900" stroke="#231F20" stroke-miterlimit="10" d="M346.25,407.185c0,0-1.696-0.001-6.211-0.001
	s-6.212,0.001-6.212,0.001c0-4.325,1.383-7.83,5.897-7.83S346.25,402.859,346.25,407.185z"/>
</svg>
