<?xml version="1.0" encoding="utf-8"?>
<!-- Generator: Adobe Illustrator 16.0.0, SVG Export Plug-In . SVG Version: 6.00 Build 0)  -->
<svg version="1.1" id="Layer_1" xmlns="http://www.w3.org/2000/svg" xmlns:xlink="http://www.w3.org/1999/xlink" x="0px" y="0px"
	 width="612px" height="792px" viewBox="0 0 612 792" enable-background="new 0 0 612 792" xml:space="preserve">
<rect id="head_frame_1_" x="230.5" y="331.5" fill-opacity="0" fill="#231F20" width="151" height="131"/>
<path id="PRIMARY_10_" fill="#8C8900" stroke="#231F20" stroke-miterlimit="10" d="M358.633,430.492
	c1.498,12.675-20.894,24.402-46.67,24.402c-25.775,0-46.668-10.926-46.668-24.402c0-13.478,20.893-24.402,46.668-24.402
	C337.739,406.09,357.051,417.107,358.633,430.492z"/>
<path id="PRIMARY_9_" fill="#8C8900" stroke="#231F20" stroke-miterlimit="10" d="M278.423,416.133
	c0-9.539,9.514-16.799,14.834-16.799l-0.001,16.799"/>
<path id="PRIMARY_8_" fill="#8C8900" stroke="#231F20" stroke-miterlimit="10" d="M301.439,408.985c0,5.283-2.011,9.567-6.525,9.567
	s-5.897-4.284-5.897-9.567c0-5.286,1.383-9.57,5.897-9.57S301.439,403.699,301.439,408.985z"/>
<path fill="#A50000" stroke="#231F20" stroke-miterlimit="10" d="M323.197,425.648c-9.522,0-29.536,7.085-36.777,6.938
	c0.112-0.684,0.186-1.381,0.186-2.096c0-7.082-5.743-12.824-12.826-12.824c-7.085,0-12.826,5.742-12.826,12.824
	c0,6.711,5.152,12.209,11.716,12.771c4.129,5.238,22.748,11.795,39.294,11.729c23.693-0.096,46.67-10.823,46.67-22.453
	C358.633,432.537,335.151,425.648,323.197,425.648z"/>
<path id="PRIMARY_7_" fill="#8C8900" stroke="#231F20" stroke-miterlimit="10" d="M323.197,410.744
	c0-6.49,9.514-11.426,14.834-11.426l-0.001,11.426"/>
<path id="PRIMARY_6_" fill="#8C8900" stroke="#231F20" stroke-miterlimit="10" d="M346.214,409.045c0,5.283-2.011,9.566-6.525,9.566
	s-5.897-4.283-5.897-9.566c0-5.287,1.383-9.57,5.897-9.57S346.214,403.758,346.214,409.045z"/>
<line fill="none" stroke="#231F20" stroke-miterlimit="10" x1="290.362" y1="402.066" x2="300.22" y2="415.115"/>
<line fill="none" stroke="#231F20" stroke-miterlimit="10" x1="344.931" y1="402.066" x2="335.073" y2="415.115"/>
<path fill="#F1F1F1" stroke="#231F20" stroke-miterlimit="10" d="M324.5,438.5c-9.522,0-30.839-5.767-38.08-5.914
	c0.112-0.684,0.186-1.381,0.186-2.096c0-7.082-5.743-12.824-12.826-12.824c-7.085,0-12.826,5.742-12.826,12.824
	c0,6.711,5.152,12.209,11.716,12.771c4.129,5.238,22.748,11.795,39.294,11.729c23.693-0.096,46.67-10.823,46.67-22.453
	C358.633,432.537,336.454,438.5,324.5,438.5z"/>
</svg>
