<?xml version="1.0" encoding="utf-8"?>
<!-- Generator: Adobe Illustrator 16.0.0, SVG Export Plug-In . SVG Version: 6.00 Build 0)  -->
<svg version="1.1" id="Layer_1" xmlns="http://www.w3.org/2000/svg" xmlns:xlink="http://www.w3.org/1999/xlink" x="0px" y="0px"
	 width="612px" height="792px" viewBox="0 0 612 792" enable-background="new 0 0 612 792" xml:space="preserve">
<rect id="head_frame_1_" x="178" y="286" fill="#231F20" fill-opacity="0" width="256" height="222"/>
<path id="PRIMARY_4_" fill="#8C8900" stroke="#231F20" stroke-width="1.695" stroke-miterlimit="10" d="M395.293,453.758
	c2.54,21.479-35.422,41.352-79.122,41.352c-43.698,0-79.12-18.516-79.12-41.352c0-22.842,35.421-41.354,79.12-41.354
	C359.871,412.404,392.611,431.075,395.293,453.758z"/>
<path id="PRIMARY_3_" fill="#8C8900" stroke="#231F20" stroke-width="1.695" stroke-miterlimit="10" d="M259.308,429.424
	c0-16.166,16.13-28.469,25.149-28.469l-0.002,28.469"/>
<path id="SECONDARY_1_" fill="#F77300" stroke="#231F20" stroke-width="1.695" stroke-miterlimit="10" d="M298.33,417.311
	c0,8.952-3.41,16.212-11.062,16.212c-7.653,0-9.998-7.26-9.998-16.212c0-8.958,2.345-16.218,9.998-16.218
	C294.92,401.093,298.33,408.353,298.33,417.311z"/>
<rect x="288.304" y="409.479" fill="#231F20" width="4.476" height="15.654"/>
<path id="PRIMARY_2_" fill="#8C8900" stroke="#231F20" stroke-width="1.695" stroke-miterlimit="10" d="M298.33,414.158
	c0,0-2.875-0.002-10.53-0.002c-7.655,0-10.531,0.002-10.531,0.002c0-7.328,2.344-13.27,9.998-13.27
	C294.919,400.889,298.33,406.83,298.33,414.158z"/>
<path fill="#F1F1F1" stroke="#231F20" stroke-width="1.695" stroke-miterlimit="10" d="M335.217,445.549
	c-16.144,0-50.075,12.007-62.351,11.757c0.19-1.158,0.315-2.34,0.315-3.551c0-12.002-9.737-21.733-21.745-21.733
	c-12.012,0-21.745,9.731-21.745,21.733c0,11.372,8.734,20.689,19.863,21.642c7,8.877,38.566,19.988,66.617,19.877
	c40.169-0.164,79.123-18.342,79.123-38.05C395.293,457.224,355.483,445.549,335.217,445.549z"/>
<path id="PRIMARY_1_" fill="#8C8900" stroke="#231F20" stroke-width="1.695" stroke-miterlimit="10" d="M335.217,420.292
	c0-10.999,16.129-19.363,25.149-19.363l-0.002,19.363"/>
<path id="SECONDARY" fill="#F77300" stroke="#231F20" stroke-width="1.695" stroke-miterlimit="10" d="M374.238,417.412
	c0,8.953-3.409,16.212-11.063,16.212c-7.652,0-9.997-7.259-9.997-16.212c0-8.96,2.345-16.219,9.997-16.219
	C370.829,401.193,374.238,408.452,374.238,417.412z"/>
<rect x="364.212" y="409.581" fill="#231F20" width="4.476" height="15.655"/>
<path id="PRIMARY" fill="#8C8900" stroke="#231F20" stroke-width="1.695" stroke-miterlimit="10" d="M374.238,414.26
	c0,0-2.876-0.002-10.529-0.002c-7.654,0-10.532,0.002-10.532,0.002c0-7.328,2.345-13.268,9.997-13.268
	C370.828,400.992,374.238,406.93,374.238,414.26z"/>
</svg>
