<?xml version="1.0" encoding="utf-8"?>
<!-- Generator: Adobe Illustrator 16.0.0, SVG Export Plug-In . SVG Version: 6.00 Build 0)  -->
<svg version="1.1" id="Layer_1" xmlns="http://www.w3.org/2000/svg" xmlns:xlink="http://www.w3.org/1999/xlink" x="0px" y="0px"
	 width="612px" height="792px" viewBox="0 0 612 792" enable-background="new 0 0 612 792" xml:space="preserve">
<rect x="266.5" y="369.004" fill-opacity="0" fill="#231F20" width="81" height="54.487"/>
<path id="PRIMARY_4_" fill="#F1F1F1" stroke="#231F20" stroke-miterlimit="10" d="M325.819,388.41l-5.983-11.566
	c-0.845-1.632-3.063-2.163-4.954-1.184c-1.891,0.979-2.738,3.095-1.895,4.727l8.278,16.001
	C323.551,394.158,325.145,391.423,325.819,388.41z"/>
<path id="PRIMARY_3_" fill="#F1F1F1" stroke="#231F20" stroke-miterlimit="10" d="M320.663,397.123l-1.567-14.028
	c-0.204-1.824-2.086-3.115-4.202-2.877c-2.116,0.235-3.665,1.907-3.461,3.733l1.919,17.171
	C316.128,400.304,318.618,398.922,320.663,397.123z"/>
<path id="PRIMARY_2_" fill="#F1F1F1" stroke="#231F20" stroke-miterlimit="10" d="M307.976,401.942c0.444,0,0.88-0.03,1.316-0.053
	l0.246-18.01c0.024-1.84-1.681-3.352-3.81-3.381c-2.129-0.028-3.875,1.438-3.899,3.275l-0.237,17.369
	C303.61,401.648,305.746,401.942,307.976,401.942z"/>
<path id="PRIMARY_1_" fill="#F1F1F1" stroke="#231F20" stroke-miterlimit="10" d="M302.006,380.311
	c-2.033-0.633-4.123,0.275-4.67,2.03l-4.126,13.246c1.799,1.935,4.071,3.498,6.641,4.607l4.847-15.563
	C305.244,382.878,304.039,380.942,302.006,380.311z"/>
<path id="PRIMARY" fill="#F1F1F1" stroke="#231F20" stroke-miterlimit="10" d="M291.254,377.778l6.938,10.6
	c1.006,1.538,3.267,1.839,5.048,0.672c1.781-1.165,2.409-3.356,1.403-4.895l-7.851-11.994
	C294.501,373.633,292.595,375.548,291.254,377.778z"/>
</svg>
