<?xml version="1.0" encoding="utf-8"?>
<!-- Generator: Adobe Illustrator 16.0.0, SVG Export Plug-In . SVG Version: 6.00 Build 0)  -->
<svg version="1.1" id="Layer_1" xmlns="http://www.w3.org/2000/svg" xmlns:xlink="http://www.w3.org/1999/xlink" x="0px" y="0px"
	 width="612px" height="792px" viewBox="0 0 612 792" enable-background="new 0 0 612 792" xml:space="preserve">
<rect x="156.682" y="273.627" fill-opacity="0" fill="#231F20" width="256" height="172"/>
<path id="PRIMARY_9_" fill="#F1F1F1" stroke="#231F20" stroke-width="3.1586" stroke-miterlimit="10" d="M225.25,325.747
	c-0.003,0.28-0.046,0.552-0.046,0.832c0,11.438,4.188,21.983,11.213,30.584l-3.142,6.063c-7.223-7.04-12.259-15.671-14.392-25.184
	L225.25,325.747z"/>
<path id="PRIMARY_8_" fill="#F1F1F1" stroke="#231F20" stroke-width="3.1586" stroke-miterlimit="10" d="M283.969,378.775
	c6.167,0,12.107-0.854,17.691-2.417l0.111,8.194c-6.377,1.594-13.127,2.521-20.174,2.521c-1.404,0-2.78-0.096-4.16-0.166
	l-0.117-8.487C279.506,378.636,281.719,378.775,283.969,378.775z"/>
<path id="PRIMARY_7_" fill="#F1F1F1" stroke="#231F20" stroke-width="3.1586" stroke-miterlimit="10" d="M331.516,357.163
	l3.07,9.849c-5.686,6.107-12.863,11.043-20.986,14.545l-2.689-8.626C319.1,369.167,326.139,363.744,331.516,357.163z"/>
<path id="PRIMARY_6_" fill="#F1F1F1" stroke="#231F20" stroke-width="3.1586" stroke-miterlimit="10" d="M318.568,284.447
	l4.693-7.166c7.244,4.646,13.27,10.689,17.506,17.73l-4.789,7.306C331.783,295.234,325.797,289.139,318.568,284.447z"/>
<path id="PRIMARY_5_" fill="#F1F1F1" stroke="#231F20" stroke-width="3.1586" stroke-miterlimit="10" d="M265.543,376.125
	l-0.936,8.36c-8.774-2.584-16.645-6.945-23.108-12.624l0.935-8.354C248.843,369.194,256.741,373.541,265.543,376.125z"/>
</svg>
