<?xml version="1.0" encoding="utf-8"?>
<!-- Generator: Adobe Illustrator 16.0.0, SVG Export Plug-In . SVG Version: 6.00 Build 0)  -->
<svg version="1.1" id="Layer_1" xmlns="http://www.w3.org/2000/svg" xmlns:xlink="http://www.w3.org/1999/xlink" x="0px" y="0px"
	 width="612px" height="792px" viewBox="0 0 612 792" enable-background="new 0 0 612 792" xml:space="preserve">
<rect x="178" y="310.248" fill-opacity="0" fill="#231F20" width="256" height="172"/>
<path id="PRIMARY_4_" fill="#F1F1F1" stroke="#231F20" stroke-width="3.1586" stroke-miterlimit="10" d="M246.568,362.367
	c-0.003,0.28-0.046,0.552-0.046,0.832c0,11.438,4.188,21.983,11.213,30.584l-3.142,6.063c-7.223-7.04-12.259-15.671-14.392-25.184
	L246.568,362.367z"/>
<path id="PRIMARY_3_" fill="#F1F1F1" stroke="#231F20" stroke-width="3.1586" stroke-miterlimit="10" d="M305.287,415.396
	c6.167,0,12.107-0.854,17.691-2.417l0.111,8.194c-6.377,1.594-13.127,2.521-20.173,2.521c-1.404,0-2.781-0.096-4.16-0.166
	l-0.118-8.487C300.824,415.257,303.037,415.396,305.287,415.396z"/>
<path id="PRIMARY_2_" fill="#F1F1F1" stroke="#231F20" stroke-width="3.1586" stroke-miterlimit="10" d="M352.833,393.783
	l3.071,9.849c-5.686,6.107-12.864,11.043-20.987,14.545l-2.688-8.626C340.417,405.787,347.457,400.364,352.833,393.783z"/>
<path id="PRIMARY_1_" fill="#F1F1F1" stroke="#231F20" stroke-width="3.1586" stroke-miterlimit="10" d="M339.886,321.068
	l4.694-7.166c7.244,4.646,13.269,10.689,17.506,17.73l-4.79,7.306C353.102,331.854,347.114,325.76,339.886,321.068z"/>
<path id="PRIMARY" fill="#F1F1F1" stroke="#231F20" stroke-width="3.1586" stroke-miterlimit="10" d="M286.861,412.745l-0.936,8.36
	c-8.774-2.584-16.645-6.945-23.108-12.624l0.935-8.354C270.161,405.814,278.059,410.161,286.861,412.745z"/>
</svg>
