<?xml version="1.0" encoding="utf-8"?>
<!-- Generator: Adobe Illustrator 16.0.0, SVG Export Plug-In . SVG Version: 6.00 Build 0)  -->
<svg version="1.1" id="Layer_1" xmlns="http://www.w3.org/2000/svg" xmlns:xlink="http://www.w3.org/1999/xlink" x="0px" y="0px"
	 width="612px" height="792px" viewBox="0 0 612 792" enable-background="new 0 0 612 792" xml:space="preserve">
<rect x="266.5" y="352.008" fill-opacity="0" fill="#231F20" width="81" height="89.313"/>
<path id="PRIMARY_13_" fill="#F1F1F1" stroke="#231F20" stroke-miterlimit="10" d="M306.53,435.785h0.189
	c0.025,2.794,2.12,5.056,4.701,5.056c2.599,0,4.704-2.286,4.704-5.105c0-2.635-1.84-4.802-4.201-5.075v-67.306
	c2.361-0.272,4.201-2.44,4.201-5.075c0-2.82-2.105-5.105-4.704-5.105c-2.581,0-4.676,2.259-4.701,5.055h-0.189
	c-0.025-2.796-2.12-5.055-4.702-5.055c-2.598,0-4.704,2.285-4.704,5.105c0,2.409,1.54,4.422,3.607,4.959v67.538
	c-2.068,0.536-3.607,2.55-3.607,4.959c0,2.819,2.105,5.105,4.704,5.105C304.41,440.841,306.505,438.581,306.53,435.785z"/>
<circle fill="none" stroke="#231F20" stroke-miterlimit="10" cx="306.25" cy="360.11" r="2.5"/>
<circle fill="none" stroke="#231F20" stroke-miterlimit="10" cx="306.25" cy="433.75" r="2.5"/>
</svg>
