<?xml version="1.0" encoding="utf-8"?>
<!-- Generator: Adobe Illustrator 16.0.0, SVG Export Plug-In . SVG Version: 6.00 Build 0)  -->
<svg version="1.1" id="Layer_1" xmlns="http://www.w3.org/2000/svg" xmlns:xlink="http://www.w3.org/1999/xlink" x="0px" y="0px"
	 width="612px" height="792px" viewBox="0 0 612 792" enable-background="new 0 0 612 792" xml:space="preserve">
<rect x="265.5" y="369.004" fill-opacity="0" fill="#231F20" width="81" height="54.487"/>
<path id="PRIMARY_4_" fill="#F1F1F1" stroke="#231F20" stroke-miterlimit="10" d="M324.805,385.515
	c0.001,0.089,0.015,0.175,0.015,0.264c0,3.624-1.325,6.964-3.548,9.688l0.994,1.921c2.285-2.23,3.879-4.964,4.554-7.978
	L324.805,385.515z"/>
<path id="PRIMARY_3_" fill="#F1F1F1" stroke="#231F20" stroke-miterlimit="10" d="M306.226,402.313
	c-1.951,0-3.831-0.271-5.598-0.766l-0.036,2.596c2.018,0.505,4.154,0.799,6.383,0.799c0.444,0,0.88-0.03,1.316-0.053l0.037-2.688
	C307.638,402.27,306.938,402.313,306.226,402.313z"/>
<path id="PRIMARY_2_" fill="#F1F1F1" stroke="#231F20" stroke-miterlimit="10" d="M291.182,395.467l-0.972,3.12
	c1.799,1.935,4.071,3.498,6.641,4.607l0.851-2.732C295.11,399.27,292.883,397.552,291.182,395.467z"/>
<path id="PRIMARY_1_" fill="#F1F1F1" stroke="#231F20" stroke-miterlimit="10" d="M295.278,372.432l-1.486-2.27
	c-2.292,1.472-4.198,3.386-5.539,5.617l1.515,2.314C291.097,375.849,292.991,373.918,295.278,372.432z"/>
<path id="PRIMARY" fill="#F1F1F1" stroke="#231F20" stroke-miterlimit="10" d="M312.056,401.474l0.296,2.648
	c2.776-0.818,5.267-2.2,7.312-3.999l-0.296-2.646C317.34,399.278,314.841,400.655,312.056,401.474z"/>
</svg>
