<?xml version="1.0" encoding="utf-8"?>
<!-- Generator: Adobe Illustrator 16.0.0, SVG Export Plug-In . SVG Version: 6.00 Build 0)  -->
<svg version="1.1" id="Layer_1" xmlns="http://www.w3.org/2000/svg" xmlns:xlink="http://www.w3.org/1999/xlink" x="0px" y="0px"
	 width="612px" height="792px" viewBox="0 0 612 792" enable-background="new 0 0 612 792" xml:space="preserve">
<rect x="192" y="268.846" fill-opacity="0" fill="#231F20" width="230" height="255.637"/>
<path id="PRIMARY_13_" fill="#F1F1F1" stroke="#231F20" stroke-width="2.8509" stroke-miterlimit="10" d="M305.666,508.64h0.538
	c0.071,7.997,6.021,14.471,13.349,14.471c7.379,0,13.357-6.544,13.357-14.613c0-7.542-5.224-13.744-11.929-14.526V301.321
	c6.705-0.78,11.929-6.983,11.929-14.525c0-8.071-5.979-14.612-13.357-14.612c-7.328,0-13.278,6.465-13.349,14.469h-0.538
	c-0.072-8.004-6.02-14.469-13.35-14.469c-7.377,0-13.356,6.541-13.356,14.612c0,6.894,4.372,12.658,10.243,14.194v193.313
	c-5.872,1.535-10.243,7.299-10.243,14.194c0,8.069,5.979,14.613,13.356,14.613C299.646,523.11,305.594,516.642,305.666,508.64z"/>
<ellipse fill="none" stroke="#231F20" stroke-width="2.8509" stroke-miterlimit="10" cx="304.87" cy="292.036" rx="7.099" ry="7.155"/>
<ellipse fill="none" stroke="#231F20" stroke-width="2.8509" stroke-miterlimit="10" cx="304.87" cy="502.814" rx="7.099" ry="7.155"/>
</svg>
