<?xml version="1.0" encoding="utf-8"?>
<!-- Generator: Adobe Illustrator 16.0.0, SVG Export Plug-In . SVG Version: 6.00 Build 0)  -->
<svg version="1.1" id="Layer_1" xmlns="http://www.w3.org/2000/svg" xmlns:xlink="http://www.w3.org/1999/xlink" x="0px" y="0px"
	 width="612px" height="792px" viewBox="0 0 612 792" enable-background="new 0 0 612 792" xml:space="preserve">
<rect x="178.581" y="333.745" fill-opacity="0" fill="#231F20" width="256" height="127.857"/>
<path id="PRIMARY_23_" fill="#666666" stroke="#231F20" stroke-width="3.6557" stroke-miterlimit="10" d="M430.444,433.142
	c0,0-29.438,0-63.341,0H253.531c-59.433,0-59.433,0-59.433,0v-35.407c0-72.098,0-64.135,61.387-63.722h113.573
	c33.903,0,61.387,45.136,61.387,100.813V433.142z"/>
<polygon id="SECONDARY_44_" fill="#FF0000" stroke="#231F20" stroke-width="3.6557" stroke-miterlimit="10" points="
	430.444,422.748 194.098,422.748 194.098,406.377 428.708,406.377 "/>
<polygon id="SECONDARY_10_" fill="#FF0000" stroke="#231F20" stroke-width="3.6557" stroke-miterlimit="10" points="204,455.799 
	194.857,435.996 203.992,435.996 212.234,435.996 "/>
<polygon id="SECONDARY_9_" fill="#FF0000" stroke="#231F20" stroke-width="3.6557" stroke-miterlimit="10" points="225.76,455.799 
	216.618,435.996 225.753,435.996 233.995,435.996 "/>
<polygon id="SECONDARY_8_" fill="#FF0000" stroke="#231F20" stroke-width="3.6557" stroke-miterlimit="10" points="247.52,455.799 
	238.378,435.996 247.513,435.996 255.755,435.996 "/>
<polygon id="SECONDARY_7_" fill="#FF0000" stroke="#231F20" stroke-width="3.6557" stroke-miterlimit="10" points="269.278,455.799 
	260.137,435.996 269.271,435.996 277.513,435.996 "/>
<polygon id="SECONDARY_6_" fill="#FF0000" stroke="#231F20" stroke-width="3.6557" stroke-miterlimit="10" points="291.039,455.799 
	281.896,435.996 291.032,435.996 299.273,435.996 "/>
<polygon id="SECONDARY_5_" fill="#FF0000" stroke="#231F20" stroke-width="3.6557" stroke-miterlimit="10" points="312.801,455.799 
	303.657,435.996 312.794,435.996 321.032,435.996 "/>
<polygon id="SECONDARY_4_" fill="#FF0000" stroke="#231F20" stroke-width="3.6557" stroke-miterlimit="10" points="334.558,455.799 
	325.415,435.996 334.551,435.996 342.792,435.996 "/>
<polygon id="SECONDARY_3_" fill="#FF0000" stroke="#231F20" stroke-width="3.6557" stroke-miterlimit="10" points="356.317,455.799 
	347.176,435.996 356.311,435.996 364.553,435.996 "/>
<polygon id="SECONDARY_2_" fill="#FF0000" stroke="#231F20" stroke-width="3.6557" stroke-miterlimit="10" points="378.078,455.799 
	368.936,435.996 378.07,435.996 386.313,435.996 "/>
<polygon id="SECONDARY_1_" fill="#FF0000" stroke="#231F20" stroke-width="3.6557" stroke-miterlimit="10" points="399.838,455.799 
	390.696,435.996 399.831,435.996 408.073,435.996 "/>
<polygon id="SECONDARY" fill="#FF0000" stroke="#231F20" stroke-width="3.6557" stroke-miterlimit="10" points="421.599,455.799 
	412.456,435.996 421.592,435.996 429.833,435.996 "/>
</svg>
