<?xml version="1.0" encoding="utf-8"?>
<!-- Generator: Adobe Illustrator 16.0.0, SVG Export Plug-In . SVG Version: 6.00 Build 0)  -->
<svg version="1.1" id="Layer_1" xmlns="http://www.w3.org/2000/svg" xmlns:xlink="http://www.w3.org/1999/xlink" x="0px" y="0px"
	 width="612px" height="792px" viewBox="0 0 612 792" enable-background="new 0 0 612 792" xml:space="preserve">
<rect x="240.5" y="268.897" fill-opacity="0" fill="#231F20" width="133" height="255.324"/>
<path id="PRIMARY_10_" fill="#666666" stroke="#231F20" stroke-width="2.34" stroke-miterlimit="10" d="M352.006,455.827
	c0,29.534-20.15,53.474-45.006,53.474l0,0c-24.856,0-45.005-23.939-45.005-53.474V322.578c0-29.534,20.149-53.475,45.005-53.475l0,0
	c24.855,0,45.006,23.94,45.006,53.475V455.827z"/>
<ellipse id="PRIMARY_9_" fill="#666666" stroke="#231F20" stroke-width="2.34" stroke-miterlimit="10" cx="307" cy="473.527" rx="47.546" ry="47.82"/>
<path id="SECONDARY_42_" fill="#F21818" stroke="#231F20" stroke-width="2.34" stroke-miterlimit="10" d="M318.669,441.243
	c-17.723,0-32.104,14.46-32.104,32.284s14.381,32.288,32.104,32.288c17.721,0,32.104-14.464,32.104-32.288
	S336.39,441.243,318.669,441.243z M319.004,491.977c-10.122,0-18.345-8.268-18.345-18.449c0-10.18,8.223-18.447,18.345-18.447
	s18.343,8.268,18.343,18.447C337.347,483.709,329.126,491.977,319.004,491.977z"/>
<ellipse fill="none" stroke="#231F20" stroke-width="2.34" stroke-miterlimit="10" cx="307" cy="293.42" rx="5.833" ry="5.866"/>
</svg>
