<?xml version="1.0" encoding="utf-8"?>
<!-- Generator: Adobe Illustrator 16.0.0, SVG Export Plug-In . SVG Version: 6.00 Build 0)  -->
<svg version="1.1" id="Layer_1" xmlns="http://www.w3.org/2000/svg" xmlns:xlink="http://www.w3.org/1999/xlink" x="0px" y="0px"
	 width="612px" height="792px" viewBox="0 0 612 792" enable-background="new 0 0 612 792" xml:space="preserve">
<rect x="271.592" y="380.106" fill-opacity="0" fill="#231F20" width="69.979" height="35"/>
<path id="PRIMARY_23_" fill="#666666" stroke="#231F20" stroke-miterlimit="10" d="M340.439,407.315c0,0-8.047,0-17.314,0H292.08
	c-16.246,0-16.246,0-16.246,0v-9.692c0-19.736,0-17.557,16.78-17.443h31.045c9.268,0,16.78,12.355,16.78,27.597V407.315z"/>
<polygon id="SECONDARY_44_" fill="#FF0000" stroke="#231F20" stroke-miterlimit="10" points="340.439,407.481 275.833,407.481 
	275.833,403 339.965,403 "/>
<polygon id="PRIMARY_22_" fill="#666666" stroke="#231F20" stroke-miterlimit="10" points="278.54,413.518 276.041,408.097 
	278.538,408.097 280.791,408.097 "/>
<polygon id="PRIMARY_21_" fill="#666666" stroke="#231F20" stroke-miterlimit="10" points="284.488,413.518 281.989,408.097 
	284.486,408.097 286.739,408.097 "/>
<polygon id="PRIMARY_20_" fill="#666666" stroke="#231F20" stroke-miterlimit="10" points="290.437,413.518 287.938,408.097 
	290.435,408.097 292.688,408.097 "/>
<polygon id="PRIMARY_19_" fill="#666666" stroke="#231F20" stroke-miterlimit="10" points="296.384,413.518 293.885,408.097 
	296.382,408.097 298.635,408.097 "/>
<polygon id="PRIMARY_18_" fill="#666666" stroke="#231F20" stroke-miterlimit="10" points="302.333,413.518 299.833,408.097 
	302.331,408.097 304.583,408.097 "/>
<polygon id="PRIMARY_17_" fill="#666666" stroke="#231F20" stroke-miterlimit="10" points="308.281,413.518 305.782,408.097 
	308.279,408.097 310.531,408.097 "/>
<polygon id="PRIMARY_16_" fill="#666666" stroke="#231F20" stroke-miterlimit="10" points="314.229,413.518 311.729,408.097 
	314.227,408.097 316.479,408.097 "/>
<polygon id="PRIMARY_15_" fill="#666666" stroke="#231F20" stroke-miterlimit="10" points="320.177,413.518 317.678,408.097 
	320.175,408.097 322.428,408.097 "/>
<polygon id="PRIMARY_14_" fill="#666666" stroke="#231F20" stroke-miterlimit="10" points="326.125,413.518 323.626,408.097 
	326.123,408.097 328.376,408.097 "/>
<polygon id="PRIMARY_13_" fill="#666666" stroke="#231F20" stroke-miterlimit="10" points="332.073,413.518 329.574,408.097 
	332.071,408.097 334.324,408.097 "/>
<polygon id="PRIMARY_12_" fill="#666666" stroke="#231F20" stroke-miterlimit="10" points="338.021,413.518 335.522,408.097 
	338.02,408.097 340.272,408.097 "/>
</svg>
