<?xml version="1.0" encoding="utf-8"?>
<!-- Generator: Adobe Illustrator 16.0.0, SVG Export Plug-In . SVG Version: 6.00 Build 0)  -->
<svg version="1.1" id="Layer_1" xmlns="http://www.w3.org/2000/svg" xmlns:xlink="http://www.w3.org/1999/xlink" x="0px" y="0px"
	 width="612px" height="792px" viewBox="0 0 612 792" enable-background="new 0 0 612 792" xml:space="preserve">
<rect x="265.5" y="356.651" fill-opacity="0" fill="#231F20" width="81" height="78.206"/>
<path id="PRIMARY" fill="#7CD5FF" stroke="#231F20" stroke-miterlimit="10" d="M317.781,401.743
	c-5.651-7.179-5.32-6.283-1.899,0.935c-2.583-5.113-2.077-3.904-0.496,0.171c-0.562-1.444-0.048-0.022,0.385,1.459
	c0.432,1.48,0.783,3.02,0.97,4.567l-25.234-2.512c-1.665,0-3.455-0.059-4.796,2.25c-2.314-2.504-4.18-2.642-7.473,0.432
	c-0.338-3.386-2.103-3.563-4.535-3.093c-0.82-0.821-2.307-0.998-3.567-1.154c-2.521-0.313-4.134-0.548-4.134-0.548
	s-0.103-8.513-0.205-17.025c-0.025-2.128-0.051-4.257-0.077-6.252c-0.022-1.995-0.044-3.857-0.064-5.454
	c-0.039-3.192-0.064-5.32-0.064-5.32s1.637,0.267,4.176,0.722c1.269,0.228,2.764,0.502,4.15-0.136
	c1.871,1.263,3.633,1.613,6.138-2.349c1.102,4.716,2.948,5.121,9.502-0.912c-2.965,6.877-1.22,7.318,9.578,2.478
	c-7.593,5.737-6.132,6.194,6.063,3.88c-9.742,3.223-8.749,3.676,3.149,3.008c-11.232,1.11-11.232,1.11,0,0
	c-9.455,1.677-7.933,2.563,4.118,3.622c-9.417,1.089-8.304,2.35,5.249,5.373c-11.636-0.394-10.83,0.975,3.518,8.874
	c-12.943-5.32-12.344-4.109-3.374,6.2C310.981,392.645,311.477,393.432,317.781,401.743
	C311.971,393.873,311.971,393.873,317.781,401.743z"/>
<path id="SECONDARY" fill="#FFC18C" stroke="#231F20" stroke-miterlimit="10" d="M318.828,423.339c0,7.545,0-0.839-0.662,10.481
	L294,433.775c-0.243-7.441-0.258-6.056-0.258-13.601l0,0c0-7.545-2.154-11.775-2.57-13.646l25.569,2.346
	c1.166,5.84,1.303,6.519,2.088,11.149V423.339z"/>
</svg>
