<?xml version="1.0" encoding="utf-8"?>
<!-- Generator: Adobe Illustrator 16.0.0, SVG Export Plug-In . SVG Version: 6.00 Build 0)  -->
<svg version="1.1" id="Layer_1" xmlns="http://www.w3.org/2000/svg" xmlns:xlink="http://www.w3.org/1999/xlink" x="0px" y="0px"
	 width="612px" height="792px" viewBox="0 0 612 792" enable-background="new 0 0 612 792" xml:space="preserve">
<rect x="290.5" y="388.004" fill-opacity="0" fill="#231F20" width="81" height="54.487"/>
<path class="secondary_color" id="SECONDARY_19_" fill="#FFC18C" stroke="#231F20" stroke-miterlimit="10" d="M348.787,423.646
	c-1.572,1.556-3.979,2.037-6.766,2.159v7.544c0,1.84,2.304,5.523,4.144,5.523l2.375-0.75c1.382-1.563,0.456-6.223,0.456-8.063
	L348.787,423.646z"/>
<path class="secondary_color" id="SECONDARY_18_" fill="#FFC18C" stroke="#231F20" stroke-miterlimit="10" d="M339.405,425.845h-6.838v7.505
	c0,1.84,2.304,5.523,4.144,5.523l2.375-0.75c1.382-1.563,0.457-6.223,0.457-8.063L339.405,425.845z"/>
<path class="secondary_color" id="SECONDARY_17_" fill="#FFC18C" stroke="#231F20" stroke-miterlimit="10" d="M329.952,425.845h-6.838v7.505
	c0,1.84,2.304,5.523,4.144,5.523l2.375-0.75c1.382-1.563,0.457-6.223,0.457-8.063L329.952,425.845z"/>
<path class="secondary_color" id="SECONDARY_16_" fill="#FFC18C" stroke="#231F20" stroke-miterlimit="10" d="M320.498,425.828
	c-2.731-0.068-5.144-0.414-6.838-1.673v9.194c0,1.84,2.305,5.523,4.145,5.523l2.375-0.75c1.381-1.563,0.457-6.223,0.457-8.063
	L320.498,425.828z"/>
<path class="secondary_color" id="SECONDARY" fill="#FFC18C" stroke="#231F20" stroke-miterlimit="10" d="M358.617,411.688l-7.914-5.815
	c0.001,0.013,0.001,0.024,0.002,0.037c0.164,0.182,0.336,0.365,0.541,0.563c-0.322,0.254-0.457,0.608-0.512,1.02v1.891v5.421
	l2.295,1.986c1.43,1.159,0.566,9.362,2.65,9.272l3.125,0.001C360.805,424.125,360.047,412.845,358.617,411.688z"/>
</svg>
