<?xml version="1.0" encoding="utf-8"?>
<!-- Generator: Adobe Illustrator 16.0.0, SVG Export Plug-In . SVG Version: 6.00 Build 0)  -->
<svg version="1.1" id="Layer_1" xmlns="http://www.w3.org/2000/svg" xmlns:xlink="http://www.w3.org/1999/xlink" x="0px" y="0px"
	 width="612px" height="792px" viewBox="0 0 612 792" enable-background="new 0 0 612 792" xml:space="preserve">
<rect x="265.5" y="369.004" fill-opacity="0" fill="#231F20" width="81" height="54.487"/>
<path class="secondary_color" id="SECONDARY_4_" fill="#FFC18C" stroke="#231F20" stroke-miterlimit="10" d="M292.803,394.154l2.375,0.75
	c1.381,1.563,0.457,6.223,0.457,8.063l-0.133,4.047l-0.006-0.186c-2.731-0.068-5.144-0.414-6.838-1.673v-5.478
	C288.658,397.838,290.963,394.154,292.803,394.154z"/>
<path class="secondary_color" id="SECONDARY_3_" fill="#FFC18C" stroke="#231F20" stroke-miterlimit="10" d="M323.922,404.691
	c-1.65,1.392-4.066,1.88-6.863,2.025c-0.014-0.001-0.025-0.002-0.039-0.003v-7.544c0-1.84,2.304-5.523,4.144-5.523l2.375,0.75
	c1.382,1.563,0.456,6.223,0.456,8.063L323.922,404.691z"/>
<path class="secondary_color" id="SECONDARY_1_" fill="#FFC18C" stroke="#231F20" stroke-miterlimit="10" d="M314.403,406.696h-6.838v-7.505
	c0-1.84,2.304-5.523,4.144-5.523l2.375,0.75c1.382,1.563,0.457,6.223,0.457,8.063L314.403,406.696z"/>
<path class="secondary_color" id="SECONDARY_2_" fill="#FFC18C" stroke="#231F20" stroke-miterlimit="10" d="M304.95,406.696h-6.838v-7.505
	c0-1.84,2.304-5.523,4.144-5.523l2.375,0.75c1.382,1.563,0.457,6.223,0.457,8.063L304.95,406.696z"/>
<path class="secondary_color" id="SECONDARY" fill="#FFC18C" stroke="#231F20" stroke-miterlimit="10" d="M317.787,391.188l7.914-5.815
	c0,0.013,0,0.024-0.002,0.037c-0.164,0.182-0.336,0.365-0.541,0.563c0.322,0.254,0.457,0.608,0.512,1.02v1.891v5.421l-2.295,1.986
	c-1.43,1.159-0.566,9.362-2.65,9.272l-3.125,0.001C315.6,403.625,316.357,392.345,317.787,391.188z"/>
</svg>
