<?xml version="1.0" encoding="utf-8"?>
<!-- Generator: Adobe Illustrator 16.0.0, SVG Export Plug-In . SVG Version: 6.00 Build 0)  -->
<svg version="1.1" id="Layer_1" xmlns="http://www.w3.org/2000/svg" xmlns:xlink="http://www.w3.org/1999/xlink" x="0px" y="0px"
	 width="612px" height="792px" viewBox="0 0 612 792" enable-background="new 0 0 612 792" xml:space="preserve">
<rect x="178" y="310.248" fill-opacity="0" fill="#231F20" width="256" height="172"/>
<path id="SECONDARY_4_" fill="#FFC18C" stroke="#231F20" stroke-width="3.1586" stroke-miterlimit="10" d="M264.29,389.64
	l7.506,2.368c4.364,4.932,1.444,19.643,1.444,25.451l-0.42,12.775l-0.019-0.586c-8.632-0.216-16.256-1.308-21.611-5.281v-17.29
	C251.191,401.268,258.475,389.64,264.29,389.64z"/>
<path id="SECONDARY_3_" fill="#FFC18C" stroke="#231F20" stroke-width="3.1586" stroke-miterlimit="10" d="M362.642,422.902
	c-5.216,4.393-12.852,5.935-21.691,6.394c-0.043-0.003-0.08-0.006-0.123-0.009v-23.814c0-5.808,7.281-17.436,13.096-17.436
	l7.506,2.368c4.367,4.933,1.441,19.643,1.441,25.451L362.642,422.902z"/>
<path id="SECONDARY_1_" fill="#FFC18C" stroke="#231F20" stroke-width="3.1586" stroke-miterlimit="10" d="M332.559,429.231h-21.611
	V405.54c0-5.808,7.281-17.436,13.096-17.436l7.507,2.368c4.367,4.932,1.444,19.643,1.444,25.451L332.559,429.231z"/>
<path id="SECONDARY_2_" fill="#FFC18C" stroke="#231F20" stroke-width="3.1586" stroke-miterlimit="10" d="M302.682,429.231h-21.611
	V405.54c0-5.808,7.281-17.436,13.096-17.436l7.506,2.368c4.367,4.932,1.444,19.643,1.444,25.451L302.682,429.231z"/>
<path id="SECONDARY" fill="#FFC18C" stroke="#231F20" stroke-width="3.1586" stroke-miterlimit="10" d="M343.253,380.274
	l25.013-18.357c0,0.04,0,0.077-0.007,0.117c-0.519,0.573-1.062,1.153-1.709,1.779c1.019,0.801,1.444,1.92,1.617,3.218v5.968v17.112
	l-7.253,6.271c-4.52,3.659-1.791,29.554-8.377,29.271l-9.877,0.003C336.34,419.536,338.734,383.928,343.253,380.274z"/>
</svg>
