<?xml version="1.0" encoding="utf-8"?>
<!-- Generator: Adobe Illustrator 16.0.0, SVG Export Plug-In . SVG Version: 6.00 Build 0)  -->
<svg version="1.1" id="Layer_1" xmlns="http://www.w3.org/2000/svg" xmlns:xlink="http://www.w3.org/1999/xlink" x="0px" y="0px"
	 width="612px" height="792px" viewBox="0 0 612 792" enable-background="new 0 0 612 792" xml:space="preserve">
<path fill-opacity="0" fill="#231F20" d="M192,524.414h230V268.926c0,0-2.84,0-7.887,0c-2.523,0-5.601-0.001-9.14-0.011
	c-26.842-0.008-54.372-0.01-81.841-0.003c-3.926,0.007-7.85,0.016-11.779,0.029c-29.909-0.038-61.144-0.038-93.565-0.015
	c-3.952,0-7.54,0-10.698,0c-9.475,0-15.09,0-15.09,0V524.414z"/>
<path id="PRIMARY_7_" fill="#7CD5FF" stroke="#231F20" stroke-width="2.85" stroke-miterlimit="10" d="M210.917,424.868
	c35.311-31.306,36.434-34.445-0.005-11.133c40.03-33.352,42.496-40.255,9.131-38.245c38.747-17.071,41.664-25.229,27.61-43.712
	c19.438,3.42,21.906-3.481,22.566-12.267c2.928-1.256,4.048-4.393,4.048-4.393c0-4.582,0.549-8.995,1.558-13.142
	c1.01-4.148,2.485-8.026,4.343-11.536c4.115-15.904,18.313-18.72,31.9-20.172c2.989,0.402,5.795,1.352,8.404,2.738
	c13.036,6.94,21.133,24.756,22.021,39.994c0,0,0.438,1.225,1.203,3.37c0.769,2.146,1.863,5.208,4.004,6
	c0.752,7.298,2.646,12.592,15.59,7.564c-8.906,16.324-6.764,22.325,16.222,27.445c-18.823,6.528-16.802,12.177,10.748,23.261
	c-24.017-1.2-22.503,3.035,4.298,13.891c-24.657-4.855-24.024-3.089,0.638,5.2c-22.425-5.546-20.777-1.743-0.146,12.199
	c-18.36-4.769-17.733,0.596-0.444,18.2c-16.906-5.869-17.15,0.5-0.948,19.862c-17.399-6.177-18.356,0.64-5.903,22.215
	c-14.918-8.057-16.433-1.353-6.827,19.552c-13.03-8.168-14.943-2.134-10.448,14.382c-8.565-5.677-10.726-0.869-10.321,8.486
	c-4.811-1.53-7.06,1.486-9.051,4.188c-0.433,0.503-1.078,1.564-2.318,2.285c-1.239,0.721-3.072,1.101-5.662,1.101
	c0,0-26.102,0-46.985,0c-6.96,0-13.341,0-17.982,0.009c-4.639-0.009-7.54-0.009-7.532,0.104c-2.326-0.112-4.755-1.749-7.251-1.288
	c-2.365-6.28-4.803-10.465-10.31-2.254c0.827-18.396-1.419-24.405-14.935-8.938c9.42-28.575,7.567-35.682-10.931-16.348
	c15.39-33.917,14.131-41.397-3.804-18.133c16.222-37.87,15.761-44.999-5.976-20.856c21.814-37.325,22.353-43.379-5.125-20.32
	C242.052,400.81,243.788,396.554,210.917,424.868z"/>
<path fill="none" stroke="#231F20" stroke-width="2.85" stroke-miterlimit="10" d="M302.031,292.103c0,3.95,3.178,7.151,7.099,7.151
	c3.921,0,7.102-3.201,7.121-7.168c0.017-3.97-3.159-7.174-7.1-7.157C305.214,284.945,302.031,288.152,302.031,292.103z"/>
<ellipse fill="none" stroke="#231F20" stroke-width="2.85" stroke-miterlimit="10" cx="309.13" cy="502.759" rx="7.099" ry="7.151"/>
</svg>
