<?xml version="1.0" encoding="utf-8"?>
<!-- Generator: Adobe Illustrator 16.0.0, SVG Export Plug-In . SVG Version: 6.00 Build 0)  -->
<svg version="1.1" id="Layer_1" xmlns="http://www.w3.org/2000/svg" xmlns:xlink="http://www.w3.org/1999/xlink" x="0px" y="0px"
	 width="612px" height="792px" viewBox="0 0 612 792" enable-background="new 0 0 612 792" xml:space="preserve">
<rect x="179" y="310.248" fill-opacity="0" fill="#231F20" width="256" height="172"/>
<path id="SECONDARY_4_" fill="#FFC18C" stroke="#231F20" stroke-width="3.1586" stroke-miterlimit="10" d="M238.512,372.999v17.112
	l3.525,3.049v-14.891c0-3.751,0.762-7.309,0.012-9.812c0.71-0.89,1.346-1.728,1.846-2.516l-5.481-4.024c0,0.04,0,0.077,0.006,0.117
	c0.519,0.573,1.062,1.153,1.71,1.779c-1.019,0.801-1.445,1.92-1.618,3.218V372.999z"/>
<path id="SECONDARY_3_" fill="#FFC18C" stroke="#231F20" stroke-width="3.1586" stroke-miterlimit="10" d="M250.222,425.018
	l0.136,4.198c5.216,4.393,12.852,5.935,21.691,6.394c0.043-0.003,0.081-0.006,0.124-0.01v-5.4
	C263.414,430.018,255.673,428.969,250.222,425.018z"/>
<polygon id="SECONDARY_2_" fill="#FFC18C" stroke="#231F20" stroke-width="3.1586" stroke-miterlimit="10" points="280.269,430.233 
	280.441,435.545 302.053,435.545 302.053,430.233 "/>
<polygon id="SECONDARY_1_" fill="#FFC18C" stroke="#231F20" stroke-width="3.1586" stroke-miterlimit="10" points="310.146,430.233 
	310.318,435.545 331.929,435.545 331.929,430.233 "/>
<path id="SECONDARY" fill="#FFC18C" stroke="#231F20" stroke-width="3.1586" stroke-miterlimit="10" d="M339.966,430.098
	l0.213,6.449l0.019-0.586c8.633-0.216,16.257-1.308,21.611-5.281v-8.163C356.92,427.992,349.108,429.675,339.966,430.098z"/>
</svg>
