<?xml version="1.0" encoding="utf-8"?>
<!-- Generator: Adobe Illustrator 16.0.0, SVG Export Plug-In . SVG Version: 6.00 Build 0)  -->
<svg version="1.1" id="Layer_1" xmlns="http://www.w3.org/2000/svg" xmlns:xlink="http://www.w3.org/1999/xlink" x="0px" y="0px"
	 width="612px" height="792px" viewBox="0 0 612 792" enable-background="new 0 0 612 792" xml:space="preserve">
<path fill-opacity="0" fill="#231F20" d="M266.5,441.32h81v-89.313c0,0-1,0-2.777,0c-0.889,0-1.973,0-3.219-0.004
	c-9.453-0.003-19.148-0.003-28.822-0.001c-1.383,0.002-2.765,0.005-4.148,0.01C298,352,287,352,275.582,352.008
	c-1.392,0-2.655,0-3.768,0c-3.337,0-5.314,0-5.314,0V441.32z"/>
<path class="primary_color" id="PRIMARY_7_" fill="#7CD5FF" stroke="#231F20" stroke-miterlimit="10" d="M273.162,406.521
	c12.436-10.944,12.831-12.041-0.002-3.892c14.098-11.659,14.966-14.072,3.216-13.37c13.646-5.968,14.673-8.819,9.724-15.281
	c6.846,1.196,7.715-1.217,7.947-4.288c1.031-0.439,1.426-1.536,1.426-1.536c0-1.602,0.193-3.145,0.549-4.594
	c0.355-1.45,0.875-2.806,1.529-4.033c1.449-5.56,6.449-6.544,11.234-7.052c1.053,0.141,2.041,0.473,2.96,0.957
	c4.591,2.426,7.442,8.654,7.755,13.981c0,0,0.154,0.428,0.424,1.178c0.271,0.75,0.656,1.82,1.41,2.098
	c0.265,2.551,0.932,4.402,5.49,2.644c-3.137,5.707-2.382,7.804,5.713,9.594c-6.629,2.282-5.917,4.257,3.785,8.131
	c-8.458-0.419-7.925,1.061,1.514,4.856c-8.684-1.697-8.461-1.08,0.225,1.818c-7.897-1.939-7.317-0.609-0.052,4.265
	c-6.466-1.667-6.245,0.208-0.156,6.362c-5.954-2.052-6.04,0.175-0.334,6.943c-6.128-2.159-6.465,0.224-2.079,7.766
	c-5.254-2.816-5.787-0.473-2.404,6.835c-4.589-2.855-5.263-0.746-3.68,5.027c-3.017-1.984-3.777-0.304-3.635,2.967
	c-1.694-0.535-2.486,0.52-3.188,1.464c-0.152,0.176-0.38,0.547-0.816,0.799s-1.082,0.385-1.994,0.385c0,0-9.192,0-16.547,0
	c-2.451,0-4.698,0-6.333,0.003c-1.634-0.003-2.655-0.003-2.652,0.036c-0.819-0.039-1.675-0.611-2.554-0.45
	c-0.833-2.195-1.691-3.658-3.631-0.788c0.291-6.431-0.5-8.531-5.26-3.124c3.317-9.989,2.665-12.474-3.85-5.715
	c5.42-11.856,4.977-14.472-1.34-6.339c5.713-13.238,5.551-15.73-2.104-7.291c7.683-13.048,7.872-15.164-1.805-7.104
	C284.127,398.111,284.738,396.624,273.162,406.521z"/>
<path fill="none" stroke="#231F20" stroke-miterlimit="10" d="M305.25,360.11c0,1.381,1.119,2.5,2.5,2.5s2.501-1.119,2.508-2.506
	c0.006-1.388-1.112-2.508-2.5-2.502C306.371,357.608,305.25,358.729,305.25,360.11z"/>
<circle fill="none" stroke="#231F20" stroke-miterlimit="10" cx="307.75" cy="433.75" r="2.5"/>
</svg>
