<?xml version="1.0" encoding="utf-8"?>
<!-- Generator: Adobe Illustrator 16.0.0, SVG Export Plug-In . SVG Version: 6.00 Build 0)  -->
<svg version="1.1" id="Layer_1" xmlns="http://www.w3.org/2000/svg" xmlns:xlink="http://www.w3.org/1999/xlink" x="0px" y="0px"
	 width="612px" height="792px" viewBox="0 0 612 792" enable-background="new 0 0 612 792" xml:space="preserve">
<rect x="203" y="329.248" fill-opacity="0" fill="#231F20" width="256" height="172"/>
<path id="SECONDARY_19_" fill="#FFC18C" stroke="#231F20" stroke-width="3.1586" stroke-miterlimit="10" d="M276.932,441.761
	c4.969,4.91,12.574,6.431,21.383,6.815v23.814c0,5.808-7.281,17.436-13.096,17.436l-7.506-2.367
	c-4.367-4.933-1.441-19.644-1.441-25.451L276.932,441.761z"/>
<path id="SECONDARY_18_" fill="#FFC18C" stroke="#231F20" stroke-width="3.1586" stroke-miterlimit="10" d="M306.583,448.699h21.611
	v23.691c0,5.808-7.28,17.436-13.096,17.436l-7.506-2.367c-4.367-4.933-1.444-19.644-1.444-25.451L306.583,448.699z"/>
<path id="SECONDARY_17_" fill="#FFC18C" stroke="#231F20" stroke-width="3.1586" stroke-miterlimit="10" d="M336.46,448.699h21.611
	v23.691c0,5.808-7.281,17.436-13.096,17.436l-7.507-2.367c-4.367-4.933-1.444-19.644-1.444-25.451L336.46,448.699z"/>
<path id="SECONDARY_16_" fill="#FFC18C" stroke="#231F20" stroke-width="3.1586" stroke-miterlimit="10" d="M366.34,448.647
	c8.633-0.216,16.256-1.308,21.611-5.281v29.024c0,5.808-7.284,17.436-13.1,17.436l-7.506-2.367
	c-4.364-4.933-1.444-19.644-1.444-25.451L366.34,448.647z"/>
<path id="SECONDARY" fill="#FFC18C" stroke="#231F20" stroke-width="3.1586" stroke-miterlimit="10" d="M245.864,404.01
	l25.012-18.358c-0.003,0.04-0.003,0.077-0.006,0.117c-0.519,0.574-1.062,1.153-1.71,1.779c1.019,0.802,1.444,1.92,1.617,3.218v5.968
	v17.112l-7.253,6.271c-4.519,3.658-1.791,29.554-8.376,29.27l-9.877,0.004C238.951,443.271,241.346,407.662,245.864,404.01z"/>
</svg>
