<?xml version="1.0" encoding="utf-8"?>
<!-- Generator: Adobe Illustrator 16.0.0, SVG Export Plug-In . SVG Version: 6.00 Build 0)  -->
<svg version="1.1" id="Layer_1" xmlns="http://www.w3.org/2000/svg" xmlns:xlink="http://www.w3.org/1999/xlink" x="0px" y="0px"
	 width="612px" height="792px" viewBox="0 0 612 792" enable-background="new 0 0 612 792" xml:space="preserve">
<rect x="178" y="271.254" fill-opacity="0" fill="#231F20" width="256" height="249"/>
<path id="PRIMARY" fill="#7CD5FF" stroke="#231F20" stroke-width="3.1722" stroke-miterlimit="10" d="M343.234,414.822
	c-17.861-22.858-16.814-20.005-6.003,2.976c-8.163-16.28-6.564-12.431-1.567,0.544c-1.775-4.599-0.151-0.071,1.216,4.646
	c1.364,4.714,2.475,9.613,3.064,14.542l-79.753-7.997c-5.261,0-10.918-0.187-15.159,7.163c-7.314-7.972-13.211-8.41-23.617,1.375
	c-1.068-10.78-6.645-11.343-14.333-9.848c-2.591-2.614-7.292-3.178-11.275-3.675c-7.968-0.998-13.066-1.744-13.066-1.744
	s-0.324-27.104-0.648-54.207c-0.081-6.777-0.162-13.554-0.244-19.906c-0.069-6.352-0.14-12.282-0.202-17.364
	c-0.122-10.163-0.202-16.939-0.202-16.939s5.173,0.849,13.198,2.299c4.011,0.725,8.736,1.6,13.116-0.434
	c5.912,4.022,11.481,5.135,19.398-7.478c3.483,15.015,9.316,16.304,30.033-2.902c-9.371,21.897-3.856,23.299,30.271,7.888
	c-23.997,18.267-19.381,19.721,19.16,12.353c-30.788,10.262-27.651,11.705,9.954,9.577c-35.499,3.534-35.499,3.534,0,0
	c-29.881,5.339-25.073,8.162,13.016,11.531c-29.761,3.469-26.246,7.482,16.589,17.107c-36.774-1.253-34.229,3.103,11.117,28.252
	c-40.907-16.938-39.012-13.084-10.663,19.741C321.744,385.854,323.309,388.359,343.234,414.822
	C324.87,389.763,324.87,389.763,343.234,414.822z"/>
<path id="SECONDARY" fill="#FFC18C" stroke="#231F20" stroke-width="3.1722" stroke-miterlimit="10" d="M346.543,483.58
	c0,24.022,0-2.67-2.093,33.372l-76.378-0.143c-0.767-23.692-0.814-19.281-0.814-43.303l0,0c0-24.022-6.809-37.492-8.124-43.446
	l80.81,7.469c3.686,18.594,4.117,20.754,6.599,35.498V483.58z"/>
</svg>
