<?xml version="1.0" encoding="utf-8"?>
<!-- Generator: Adobe Illustrator 16.0.0, SVG Export Plug-In . SVG Version: 6.00 Build 0)  -->
<svg version="1.1" id="Layer_1" xmlns="http://www.w3.org/2000/svg" xmlns:xlink="http://www.w3.org/1999/xlink" x="0px" y="0px"
	 width="612px" height="792px" viewBox="0 0 612 792" enable-background="new 0 0 612 792" xml:space="preserve">
<rect x="266.5" y="369.004" fill-opacity="0" fill="#231F20" width="81" height="54.487"/>
<path class="secondary_color" fill="#FFC18C" stroke="#231F20" stroke-miterlimit="10" d="M285.33,388.883v5.421l1.115,0.966v-4.717
	c0-1.188,0.241-2.315,0.004-3.108c0.225-0.282,0.426-0.547,0.584-0.797l-1.734-1.275c0,0.013,0,0.024,0.002,0.037
	c0.164,0.182,0.336,0.365,0.541,0.563c-0.322,0.254-0.457,0.608-0.512,1.02V388.883z"/>
<path class="secondary_color" fill="#FFC18C" stroke="#231F20" stroke-miterlimit="10" d="M289.035,405.361l0.043,1.33c1.65,1.392,4.066,1.88,6.863,2.025
	c0.014-0.001,0.025-0.002,0.039-0.003v-1.711C293.209,406.945,290.76,406.613,289.035,405.361z"/>
<polygon class="secondary_color" fill="#FFC18C" stroke="#231F20" stroke-miterlimit="10" points="298.542,407.014 298.597,408.696 305.435,408.696 
	305.435,407.014 "/>
<polygon class="secondary_color" fill="#FFC18C" stroke="#231F20" stroke-miterlimit="10" points="307.995,407.014 308.05,408.696 314.888,408.696 
	314.888,407.014 "/>
<path class="secondary_color" fill="#FFC18C" stroke="#231F20" stroke-miterlimit="10" d="M317.431,406.971l0.067,2.043l0.006-0.186
	c2.731-0.068,5.144-0.414,6.838-1.673v-2.586C322.795,406.304,320.323,406.837,317.431,406.971z"/>
</svg>
