<?xml version="1.0" encoding="utf-8"?>
<!-- Generator: Adobe Illustrator 16.0.0, SVG Export Plug-In . SVG Version: 6.00 Build 0)  -->
<svg version="1.1" id="Layer_1" xmlns="http://www.w3.org/2000/svg" xmlns:xlink="http://www.w3.org/1999/xlink" x="0px" y="0px"
	 width="612px" height="792px" viewBox="0 0 612 792" enable-background="new 0 0 612 792" xml:space="preserve">
<rect x="266.5" y="370.004" fill-opacity="0" fill="#231F20" width="81" height="54.487"/>
<path class="primary_color" id="PRIMARY_8_" fill="#7CD5FF" stroke="#231F20" stroke-miterlimit="10" d="M291.154,377.317
	c4.938,1.865,4.741,1.163,2.981-1.229c3.044,1.141,2.616,0.371,1.333-1.422c2.156,0.63,5.115,3.417,0.406-2.681
	c9.375,5.256,5,4.205,5.125,0c1.473,4.103,5.928,5.85,4.61-1.194c5.144,7.044,3.165,4.02,6.315-0.488
	c-0.282,4.508,1.91,5.229,4.449,2.628c-1.469,2.786,0.186,2.843,2.371,1.664c-0.59,1.437-1.355,2.578,1.83,1.325
	c-1.901,2.504-1.168,3.262,3.316,1.298c-2.838,3.522-1.938,4.284,3.671,3.975c-3.894,1.956-3.081,2.84,0.804,4.312
	c-2.48,0.42-1.888,1.427-0.816,2.77c-0.237,0.793,0.004,1.92,0.004,3.108v8.35c0,7.346-4.76,8.112-10.633,8.112h-0.004h-18.336
	h-0.004c-5.873,0-10.633-0.767-10.633-8.112v-8.35c0-1.188,0.241-2.315-0.512-2.91c1.587-1.541,2.18-2.548-0.984-3.226
	c4.568-1.214,5.381-2.098,0.85-4.341C293.545,381.503,294.445,380.741,291.154,377.317z"/>
</svg>
