<?xml version="1.0" encoding="utf-8"?>
<!-- Generator: Adobe Illustrator 16.0.0, SVG Export Plug-In . SVG Version: 6.00 Build 0)  -->
<svg version="1.1" id="Layer_1" xmlns="http://www.w3.org/2000/svg" xmlns:xlink="http://www.w3.org/1999/xlink" x="0px" y="0px"
	 width="612px" height="792px" viewBox="0 0 612 792" enable-background="new 0 0 612 792" xml:space="preserve">
<rect x="290.5" y="388.004" fill-opacity="0" fill="#231F20" width="81" height="54.487"/>
<path class="secondary_color" id="SECONDARY_19_" fill="#FFC18C" stroke="#231F20" stroke-miterlimit="10" d="M313.893,423.646
	c1.572,1.556,3.979,2.037,6.766,2.159v7.544c0,1.84-2.304,5.523-4.144,5.523l-2.375-0.75c-1.382-1.563-0.456-6.223-0.456-8.063
	L313.893,423.646z"/>
<path class="secondary_color" id="SECONDARY_18_" fill="#FFC18C" stroke="#231F20" stroke-miterlimit="10" d="M323.274,425.845h6.838v7.505
	c0,1.84-2.304,5.523-4.144,5.523l-2.375-0.75c-1.382-1.563-0.457-6.223-0.457-8.063L323.274,425.845z"/>
<path class="secondary_color" id="SECONDARY_17_" fill="#FFC18C" stroke="#231F20" stroke-miterlimit="10" d="M332.728,425.845h6.838v7.505
	c0,1.84-2.304,5.523-4.144,5.523l-2.375-0.75c-1.382-1.563-0.457-6.223-0.457-8.063L332.728,425.845z"/>
<path class="secondary_color" id="SECONDARY_16_" fill="#FFC18C" stroke="#231F20" stroke-miterlimit="10" d="M342.182,425.828
	c2.731-0.068,5.144-0.414,6.838-1.673v9.194c0,1.84-2.305,5.523-4.145,5.523l-2.375-0.75c-1.381-1.563-0.457-6.223-0.457-8.063
	L342.182,425.828z"/>
<path class="secondary_color" id="SECONDARY" fill="#FFC18C" stroke="#231F20" stroke-miterlimit="10" d="M304.063,411.688l7.914-5.815
	c-0.001,0.013-0.001,0.024-0.002,0.037c-0.164,0.182-0.336,0.365-0.541,0.563c0.322,0.254,0.457,0.608,0.512,1.02v1.891v5.421
	l-2.295,1.986c-1.43,1.159-0.566,9.362-2.65,9.272l-3.125,0.001C301.875,424.125,302.633,412.845,304.063,411.688z"/>
</svg>
