<?xml version="1.0" encoding="utf-8"?>
<!-- Generator: Adobe Illustrator 16.0.0, SVG Export Plug-In . SVG Version: 6.00 Build 0)  -->
<svg version="1.1" id="Layer_1" xmlns="http://www.w3.org/2000/svg" xmlns:xlink="http://www.w3.org/1999/xlink" x="0px" y="0px"
	 width="612px" height="792px" viewBox="0 0 612 792" enable-background="new 0 0 612 792" xml:space="preserve">
<rect x="179" y="311.971" fill-opacity="0" fill="#231F20" width="256" height="170.554"/>
<path id="PRIMARY_8_" fill="#7CD5FF" stroke="#231F20" stroke-width="3.1453" stroke-miterlimit="10" d="M359.66,334.863
	c-15.604,5.838-14.984,3.641-9.423-3.846c-9.62,3.57-8.269,1.16-4.213-4.452c-6.814,1.973-16.166,10.694-1.284-8.391
	c-29.629,16.451-15.802,13.161-16.197,0c-4.654,12.843-18.734,18.312-14.57-3.737c-16.257,22.049-10.003,12.583-19.96-1.528
	c0.892,14.112-6.037,16.368-14.062,8.226c4.642,8.721-0.586,8.898-7.494,5.209c1.864,4.498,4.284,8.07-5.784,4.146
	c6.009,7.839,3.691,10.211-10.481,4.064c8.969,11.026,6.124,13.41-11.602,12.441c12.306,6.123,9.738,8.889-2.54,13.496
	c7.839,1.314,5.966,4.466,2.581,8.669c0.75,2.482-0.013,6.01-0.013,9.73v26.135c0,22.993,15.043,25.393,33.605,25.393h0.012h57.951
	h0.012c18.563,0,33.605-2.399,33.605-25.393V378.89c0-3.72-0.763-7.248,1.617-9.109c-5.016-4.824-6.889-7.975,3.111-10.097
	c-14.438-3.799-17.007-6.566-2.686-13.587C352.104,347.964,349.26,345.58,359.66,334.863z"/>
</svg>
