<?xml version="1.0" encoding="utf-8"?>
<!-- Generator: Adobe Illustrator 16.0.0, SVG Export Plug-In . SVG Version: 6.00 Build 0)  -->
<svg version="1.1" id="Layer_1" xmlns="http://www.w3.org/2000/svg" xmlns:xlink="http://www.w3.org/1999/xlink" x="0px" y="0px"
	 width="612px" height="792px" viewBox="0 0 612 792" enable-background="new 0 0 612 792" xml:space="preserve">
<rect id="head_frame" x="154.064" y="340.498" fill-opacity="0" fill="#BBBCBE" width="256" height="222"/>
<path id="SECONDARY_1_" fill="#FFFDB5" stroke="#231F20" stroke-width="1.695" stroke-miterlimit="10" d="M239.556,400.693
	c13.458,3.77,3.589,16.885-5.245,23.377c-1.686,1.19-3.518,2.162-5.485,2.88c-6.285,2.309-12.975,1.698-19.176-1.223
	c-1.549-0.729-3.068-1.604-4.544-2.608c-8.853-7.298-16.616-17.728-19.74-28.822c-0.448-1.584-0.8-3.183-1.044-4.785
	c-0.249-12.056,2.715-28.317,22.943-36.711c0.429,15.604,0.797,28.981,17.998,38.771c1.152,0.89,2.287,1.752,3.397,2.566
	c3.335,2.444,6.456,4.462,9.216,5.809C238.478,400.208,239.041,400.455,239.556,400.693z"/>
<path id="SECONDARY" fill="#FFFDB5" stroke="#231F20" stroke-width="1.695" stroke-miterlimit="10" d="M320.634,400.693
	c-13.457,3.77-3.588,16.885,5.245,23.377c1.688,1.19,3.52,2.162,5.483,2.88c6.288,2.309,12.977,1.698,19.179-1.223
	c1.55-0.729,3.069-1.604,4.543-2.608c8.853-7.298,16.618-17.728,19.742-28.822c0.447-1.584,0.798-3.183,1.043-4.785
	c0.248-12.056-2.715-28.317-22.942-36.711c-0.429,15.604-0.798,28.981-18.001,38.771c-1.151,0.89-2.283,1.752-3.396,2.566
	c-3.334,2.444-6.455,4.462-9.212,5.809C321.714,400.208,321.15,400.455,320.634,400.693z"/>
<path id="PRIMARY_2_" fill="#00BC03" stroke="#231F20" stroke-width="1.695" stroke-miterlimit="10" d="M237.988,392.465
	c2.852,2.972-3.365,13.385-13.892,23.262c-10.525,9.875-21.371,15.469-24.224,12.498c-2.853-2.973,3.366-13.387,13.893-23.264
	C224.291,395.086,235.136,389.493,237.988,392.465z"/>
<path id="PRIMARY_1_" fill="#00BC03" stroke="#231F20" stroke-width="1.695" stroke-miterlimit="10" d="M323.74,392.465
	c-2.857,2.972,3.367,13.385,13.894,23.262c10.523,9.875,21.371,15.469,24.222,12.498c2.852-2.973-3.364-13.387-13.894-23.264
	C337.437,395.086,326.591,389.493,323.74,392.465z"/>
<ellipse id="PRIMARY" fill="#00BC03" stroke="#231F20" stroke-width="1.695" stroke-miterlimit="10" cx="281.517" cy="469.833" rx="85.243" ry="84.281"/>
<line fill="none" stroke="#231F20" stroke-width="5.085" stroke-miterlimit="10" x1="245.523" y1="431.04" x2="317.512" y2="468.354"/>
<line fill="none" stroke="#231F20" stroke-width="5.085" stroke-miterlimit="10" x1="317.51" y1="431.04" x2="245.521" y2="468.354"/>
<path id="SECONDARY_2_" fill="#FFFDB5" stroke="#231F20" stroke-width="1.9794" stroke-miterlimit="10" d="M327.717,511.766
	c0,5.743-5.329,10.398-11.905,10.398h-68.566c-6.573,0-11.903-4.655-11.903-10.398l0,0c0-5.742,5.33-10.402,11.903-10.402h68.566
	C322.388,501.363,327.717,506.023,327.717,511.766L327.717,511.766z"/>
<line fill="none" stroke="#231F20" stroke-width="1.9337" stroke-miterlimit="10" x1="241.569" y1="503.615" x2="246.747" y2="521.899"/>
<line fill="none" stroke="#231F20" stroke-width="1.9794" stroke-miterlimit="10" x1="248.097" y1="521.907" x2="253.302" y2="501.363"/>
<line fill="none" stroke="#231F20" stroke-width="1.9794" stroke-miterlimit="10" x1="255.033" y1="501.363" x2="259.881" y2="521.907"/>
<line fill="none" stroke="#231F20" stroke-width="1.9794" stroke-miterlimit="10" x1="261.575" y1="521.907" x2="266.852" y2="501.363"/>
<line fill="none" stroke="#231F20" stroke-width="1.9794" stroke-miterlimit="10" x1="268.333" y1="501.363" x2="273.607" y2="521.907"/>
<line fill="none" stroke="#231F20" stroke-width="1.9794" stroke-miterlimit="10" x1="275.019" y1="521.907" x2="280.437" y2="501.363"/>
<line fill="none" stroke="#231F20" stroke-width="1.9794" stroke-miterlimit="10" x1="281.18" y1="501.363" x2="287.79" y2="521.907"/>
<line fill="none" stroke="#231F20" stroke-width="1.9794" stroke-miterlimit="10" x1="288.566" y1="521.516" x2="293.919" y2="501.363"/>
<line fill="none" stroke="#231F20" stroke-width="1.9794" stroke-miterlimit="10" x1="294.579" y1="501.363" x2="301.42" y2="522.528"/>
<line fill="none" stroke="#231F20" stroke-width="1.9794" stroke-miterlimit="10" x1="301.475" y1="522.528" x2="308.04" y2="501.363"/>
<line fill="none" stroke="#231F20" stroke-width="1.9794" stroke-miterlimit="10" x1="308.124" y1="501.363" x2="314.9" y2="522.164"/>
<line fill="none" stroke="#231F20" stroke-width="1.9794" stroke-miterlimit="10" x1="314.991" y1="522.853" x2="321.55" y2="502.052"/>
</svg>
