<?xml version="1.0" encoding="utf-8"?>
<!-- Generator: Adobe Illustrator 16.0.0, SVG Export Plug-In . SVG Version: 6.00 Build 0)  -->
<svg version="1.1" id="Layer_1" xmlns="http://www.w3.org/2000/svg" xmlns:xlink="http://www.w3.org/1999/xlink" x="0px" y="0px"
	 width="612px" height="792px" viewBox="0 0 612 792" enable-background="new 0 0 612 792" xml:space="preserve">
<rect id="head_frame" x="197.064" y="431.498" fill-opacity="0" fill="#BBBCBE" width="256" height="222"/>
<path id="SECONDARY_1_" fill="#FFFDB5" stroke="#231F20" stroke-width="1.695" stroke-miterlimit="10" d="M282.555,491.693
	c13.459,3.77,3.589,16.885-5.245,23.377c-1.686,1.19-3.519,2.162-5.484,2.88c-6.286,2.309-12.975,1.698-19.176-1.223
	c-1.55-0.729-3.068-1.604-4.544-2.608c-8.853-7.298-16.617-17.728-19.742-28.822c-0.447-1.584-0.799-3.183-1.044-4.784
	c-0.248-12.057,2.715-28.318,22.944-36.712c0.429,15.604,0.797,28.981,17.998,38.771c1.152,0.89,2.286,1.752,3.397,2.566
	c3.335,2.444,6.456,4.462,9.216,5.809C281.478,491.208,282.041,491.455,282.555,491.693z"/>
<path id="SECONDARY" fill="#FFFDB5" stroke="#231F20" stroke-width="1.695" stroke-miterlimit="10" d="M363.636,491.693
	c-13.459,3.77-3.59,16.885,5.243,23.377c1.688,1.19,3.52,2.162,5.485,2.88c6.286,2.309,12.975,1.698,19.177-1.223
	c1.55-0.729,3.069-1.604,4.543-2.608c8.853-7.298,16.618-17.728,19.742-28.822c0.447-1.584,0.798-3.183,1.045-4.784
	c0.246-12.057-2.716-28.318-22.944-36.712c-0.429,15.604-0.798,28.981-18,38.771c-1.152,0.89-2.284,1.752-3.397,2.566
	c-3.334,2.444-6.453,4.462-9.212,5.809C364.714,491.208,364.15,491.455,363.636,491.693z"/>
<path id="PRIMARY_2_" fill="#00BC03" stroke="#231F20" stroke-width="1.695" stroke-miterlimit="10" d="M280.987,483.465
	c2.853,2.973-3.364,13.385-13.891,23.262c-10.526,9.875-21.372,15.469-24.225,12.498c-2.853-2.973,3.366-13.387,13.894-23.264
	C267.291,486.086,278.135,480.492,280.987,483.465z"/>
<path id="PRIMARY_1_" fill="#00BC03" stroke="#231F20" stroke-width="1.695" stroke-miterlimit="10" d="M366.74,483.465
	c-2.856,2.973,3.365,13.385,13.893,23.262c10.524,9.875,21.372,15.469,24.223,12.498c2.852-2.973-3.364-13.387-13.892-23.264
	C380.437,486.086,369.593,480.492,366.74,483.465z"/>
<ellipse id="PRIMARY_3_" fill="#00BC03" stroke="#231F20" stroke-width="1.695" stroke-miterlimit="10" cx="324.517" cy="560.831" rx="85.243" ry="84.283"/>
<path id="eye_2_" fill="#FFFFFF" stroke="#231F20" stroke-width="1.695" stroke-miterlimit="10" d="M363.674,540.697
	c0,21.381-17.53,38.714-39.157,38.714c-21.626,0-39.158-17.333-39.158-38.714c0-21.385,17.532-38.717,39.158-38.717
	C346.144,501.98,363.674,519.313,363.674,540.697z"/>
<ellipse id="pupil_2_" stroke="#231F20" stroke-width="1.695" stroke-miterlimit="10" cx="332.995" cy="540.697" rx="15.073" ry="15.628"/>
<path id="eye-glint_2_" fill="#FFFFFF" stroke="#FFFFFF" stroke-width="1.695" stroke-miterlimit="10" d="M343.888,536.93
	c0,2.704-2.219,4.896-4.951,4.896c-2.731,0-4.951-2.192-4.951-4.896c0-2.701,2.22-4.895,4.951-4.895
	C341.669,532.035,343.888,534.229,343.888,536.93z"/>
<path id="mouth_2_" fill="#231F20" stroke="#231F20" stroke-width="1.695" stroke-miterlimit="10" d="M325.508,600.58
	c-17.859,0-33.699-4.422-43.57-11.249c-1.53,3.05-2.373,6.317-2.373,9.716c0,16.748,20.126,30.327,44.951,30.327
	c24.826,0,44.952-13.579,44.952-30.327c0-3.035-0.669-5.961-1.896-8.725C357.634,596.58,342.486,600.58,325.508,600.58z"/>
<polygon id="SECONDARY_2_" fill="#FFFDB5" points="305.056,597.624 299.035,604.123 297.48,595.449 "/>
<polygon id="SECONDARY_3_" fill="#FFFDB5" points="291.461,593.497 284.291,598.732 284.446,589.922 "/>
<polygon id="SECONDARY_4_" fill="#FFFDB5" points="320.897,599.683 316.351,607.263 313.029,599.084 "/>
<polygon id="SECONDARY_5_" fill="#FFFDB5" points="336.526,599.199 333.159,607.358 328.655,599.752 "/>
<polygon id="SECONDARY_6_" fill="#FFFDB5" points="350.612,596.305 348.676,604.909 342.947,598.153 "/>
<polygon id="SECONDARY_7_" fill="#FFFDB5" points="364.612,590.829 364.486,599.643 357.486,594.184 "/>
<polygon id="SECONDARY_8_" fill="#FFFDB5" points="283.532,613.379 291.966,610.516 289.133,618.875 "/>
<polygon id="SECONDARY_9_" fill="#FFFDB5" points="300.434,625.96 306.46,619.463 308.01,628.145 "/>
<polygon id="SECONDARY_10_" fill="#FFFDB5" points="320.638,630.327 324.56,622.412 328.524,630.306 "/>
<polygon id="SECONDARY_11_" fill="#FFFDB5" points="340.384,628.56 341.485,619.812 347.834,626 "/>
<polygon id="SECONDARY_12_" fill="#FFFDB5" points="360.035,618.951 356.972,610.673 365.48,613.312 "/>
<path id="PRIMARY" fill="#00BC03" stroke="#231F20" stroke-width="1.695" stroke-miterlimit="10" d="M324.438,502.203
	c-10.603,0-20.225,4.073-27.373,10.698c6.901,9.968,18.415,16.499,31.458,16.499c10.857,0,20.648-4.529,27.61-11.791
	C348.838,508.249,337.364,502.203,324.438,502.203z"/>
</svg>
