<?xml version="1.0" encoding="utf-8"?>
<!-- Generator: Adobe Illustrator 16.0.0, SVG Export Plug-In . SVG Version: 6.00 Build 0)  -->
<svg version="1.1" id="Layer_1" xmlns="http://www.w3.org/2000/svg" xmlns:xlink="http://www.w3.org/1999/xlink" x="0px" y="0px"
	 width="612px" height="792px" viewBox="0 0 612 792" enable-background="new 0 0 612 792" xml:space="preserve">
<rect id="head_frame" x="160" y="274" fill="#BBBCBE" fill-opacity="0" width="256" height="222"/>
<path id="SECONDARY_18_" fill="#FFFDB5" stroke="#231F20" stroke-width="1.695" stroke-miterlimit="10" d="M245.49,334.196
	c13.458,3.771,3.589,16.884-5.245,23.378c-1.686,1.19-3.518,2.16-5.484,2.879c-6.287,2.308-12.975,1.696-19.176-1.224
	c-1.55-0.729-3.069-1.603-4.544-2.608c-8.854-7.298-16.616-17.728-19.743-28.822c-0.448-1.585-0.798-3.183-1.044-4.786
	c-0.247-12.056,2.716-28.316,22.943-36.711c0.429,15.604,0.797,28.98,17.998,38.769c1.152,0.892,2.287,1.754,3.397,2.567
	c3.334,2.444,6.456,4.463,9.216,5.81C244.412,333.711,244.975,333.957,245.49,334.196z"/>
<path id="SECONDARY_17_" fill="#FFFDB5" stroke="#231F20" stroke-width="1.695" stroke-miterlimit="10" d="M326.569,334.196
	c-13.458,3.771-3.589,16.884,5.243,23.378c1.689,1.19,3.521,2.16,5.485,2.879c6.286,2.308,12.974,1.696,19.178-1.224
	c1.549-0.729,3.07-1.603,4.544-2.608c8.853-7.298,16.618-17.728,19.742-28.822c0.447-1.585,0.798-3.183,1.045-4.786
	c0.246-12.056-2.717-28.316-22.944-36.711c-0.429,15.604-0.798,28.98-18,38.769c-1.152,0.892-2.284,1.754-3.397,2.567
	c-3.334,2.444-6.453,4.463-9.212,5.81C327.647,333.711,327.084,333.957,326.569,334.196z"/>
<path id="PRIMARY_16_" fill="#00BC03" stroke="#231F20" stroke-width="1.695" stroke-miterlimit="10" d="M243.922,325.967
	c2.854,2.972-3.364,13.384-13.89,23.263c-10.526,9.876-21.372,15.469-24.225,12.498c-2.854-2.972,3.365-13.386,13.893-23.265
	C230.225,328.588,241.069,322.996,243.922,325.967z"/>
<path id="PRIMARY_14_" fill="#00BC03" stroke="#231F20" stroke-width="1.695" stroke-miterlimit="10" d="M329.674,325.967
	c-2.855,2.972,3.366,13.384,13.893,23.263c10.524,9.876,21.371,15.469,24.222,12.498c2.853-2.972-3.362-13.386-13.891-23.265
	C343.371,328.588,332.526,322.996,329.674,325.967z"/>
<ellipse id="PRIMARY_13_" fill="#00BC03" stroke="#231F20" stroke-width="1.695" stroke-miterlimit="10" cx="287.45" cy="403.334" rx="85.243" ry="84.282"/>
<ellipse id="eye_2_" fill="#FFFFFF" stroke="#231F20" stroke-width="1.695" stroke-miterlimit="10" cx="287.45" cy="383.2" rx="39.159" ry="38.713"/>
<ellipse id="pupil_2_" stroke="#231F20" stroke-width="1.695" stroke-miterlimit="10" cx="295.929" cy="383.2" rx="15.074" ry="15.629"/>
<ellipse id="eye-glint_2_" fill="#FFFFFF" stroke="#FFFFFF" stroke-width="1.695" stroke-miterlimit="10" cx="301.87" cy="379.432" rx="4.95" ry="4.897"/>
<path id="mouth_2_" fill="#231F20" stroke="#231F20" stroke-width="1.695" stroke-miterlimit="10" d="M288.442,443.082
	c-17.858,0-33.699-4.422-43.568-11.251c-1.529,3.051-2.372,6.319-2.372,9.717c0,16.748,20.126,30.326,44.951,30.326
	c24.827,0,44.953-13.578,44.953-30.326c0-3.035-0.67-5.963-1.896-8.726C320.568,439.082,305.42,443.082,288.442,443.082z"/>
<polygon id="SECONDARY_29_" fill="#FFFDB5" points="267.989,440.126 261.969,446.625 260.415,437.951 "/>
<polygon id="SECONDARY_28_" fill="#FFFDB5" points="254.396,435.999 247.225,441.234 247.381,432.424 "/>
<polygon id="SECONDARY_27_" fill="#FFFDB5" points="283.831,442.185 279.284,449.765 275.963,441.586 "/>
<polygon id="SECONDARY_26_" fill="#FFFDB5" points="299.46,441.701 296.092,449.86 291.589,442.254 "/>
<polygon id="SECONDARY_25_" fill="#FFFDB5" points="313.546,438.807 311.609,447.411 305.881,440.655 "/>
<polygon id="SECONDARY_24_" fill="#FFFDB5" points="327.546,433.331 327.421,442.145 320.421,436.686 "/>
<polygon id="SECONDARY_23_" fill="#FFFDB5" points="246.467,455.881 254.901,453.018 252.069,461.377 "/>
<polygon id="SECONDARY_22_" fill="#FFFDB5" points="263.368,468.462 269.393,461.965 270.943,470.646 "/>
<polygon id="SECONDARY_21_" fill="#FFFDB5" points="283.572,472.829 287.493,464.914 291.458,472.808 "/>
<polygon id="SECONDARY_20_" fill="#FFFDB5" points="303.318,471.062 304.42,462.313 310.77,468.502 "/>
<polygon id="SECONDARY_19_" fill="#FFFDB5" points="322.969,461.453 319.905,453.174 328.414,455.813 "/>
</svg>
