<?xml version="1.0" encoding="utf-8"?>
<!-- Generator: Adobe Illustrator 16.0.0, SVG Export Plug-In . SVG Version: 6.00 Build 0)  -->
<svg version="1.1" id="Layer_1" xmlns="http://www.w3.org/2000/svg" xmlns:xlink="http://www.w3.org/1999/xlink" x="0px" y="0px"
	 width="612px" height="792px" viewBox="0 0 612 792" enable-background="new 0 0 612 792" xml:space="preserve">
<rect id="head_frame" x="249.564" y="476.998" fill-opacity="0" fill="#BBBCBE" width="151" height="131"/>
<path class="secondary_color" id="SECONDARY_1_" fill="#FFFDB5" stroke="#231F20" stroke-miterlimit="10" d="M299.991,512.519
	c7.939,2.225,2.117,9.964-3.094,13.795c-0.994,0.702-2.075,1.275-3.235,1.699c-3.708,1.362-7.653,1.002-11.311-0.722
	c-0.914-0.43-1.81-0.946-2.68-1.539c-5.222-4.307-9.801-10.461-11.645-17.008c-0.264-0.935-0.471-1.878-0.616-2.823
	c-0.146-7.114,1.602-16.71,13.533-21.663c0.253,9.208,0.47,17.102,10.616,22.878c0.68,0.525,1.349,1.034,2.004,1.515
	c1.967,1.442,3.808,2.633,5.436,3.428C299.355,512.232,299.687,512.378,299.991,512.519z"/>
<path class="secondary_color" id="SECONDARY" fill="#FFFDB5" stroke="#231F20" stroke-miterlimit="10" d="M347.815,512.519
	c-7.938,2.225-2.117,9.964,3.093,13.795c0.996,0.702,2.076,1.275,3.235,1.699c3.708,1.362,7.653,1.002,11.312-0.722
	c0.914-0.43,1.811-0.946,2.68-1.539c5.222-4.307,9.802-10.461,11.645-17.008c0.264-0.935,0.471-1.878,0.616-2.823
	c0.146-7.114-1.602-16.71-13.533-21.663c-0.253,9.208-0.471,17.102-10.617,22.878c-0.68,0.525-1.348,1.034-2.004,1.515
	c-1.967,1.442-3.807,2.633-5.434,3.428C348.451,512.232,348.119,512.378,347.815,512.519z"/>
<path class="primary_color" id="PRIMARY_2_" fill="#00BC03" stroke="#231F20" stroke-miterlimit="10" d="M299.066,507.663
	c1.683,1.754-1.984,7.898-8.193,13.727c-6.209,5.827-12.606,9.128-14.289,7.375c-1.683-1.754,1.985-7.899,8.195-13.728
	C290.987,509.21,297.383,505.909,299.066,507.663z"/>
<path class="primary_color" id="PRIMARY_1_" fill="#00BC03" stroke="#231F20" stroke-miterlimit="10" d="M349.646,507.663
	c-1.685,1.754,1.985,7.898,8.194,13.727c6.208,5.827,12.606,9.128,14.288,7.375c1.682-1.754-1.984-7.899-8.194-13.728
	C357.726,509.21,351.329,505.909,349.646,507.663z"/>
<ellipse class="primary_color" id="PRIMARY_3_" fill="#00BC03" stroke="#231F20" stroke-miterlimit="10" cx="324.741" cy="553.316" rx="50.28" ry="49.734"/>
<ellipse id="eye_2_" fill="#FFFFFF" stroke="#231F20" stroke-miterlimit="10" cx="324.741" cy="541.436" rx="23.097" ry="22.845"/>
<ellipse id="pupil_2_" stroke="#231F20" stroke-miterlimit="10" cx="329.742" cy="541.436" rx="8.891" ry="9.222"/>
<ellipse id="eye-glint_2_" fill="#FFFFFF" stroke="#FFFFFF" stroke-miterlimit="10" cx="333.247" cy="539.212" rx="2.92" ry="2.89"/>
<path id="mouth_2_" fill="#231F20" stroke="#231F20" stroke-miterlimit="10" d="M325.326,576.771c-10.534,0-19.877-2.609-25.7-6.638
	c-0.902,1.8-1.399,3.728-1.399,5.733c0,9.883,11.872,17.896,26.514,17.896c14.644,0,26.515-8.013,26.515-17.896
	c0-1.791-0.395-3.518-1.118-5.148C344.275,574.411,335.341,576.771,325.326,576.771z"/>
<polygon class="secondary_color" id="SECONDARY_2_" fill="#FFFDB5" points="313.263,575.027 309.711,578.862 308.794,573.744 "/>
<polygon class="secondary_color" id="SECONDARY_3_" fill="#FFFDB5" points="305.244,572.592 301.014,575.682 301.106,570.482 "/>
<polygon class="secondary_color" id="SECONDARY_4_" fill="#FFFDB5" points="322.606,576.242 319.925,580.715 317.966,575.889 "/>
<polygon class="secondary_color" id="SECONDARY_5_" fill="#FFFDB5" points="331.825,575.957 329.839,580.771 327.183,576.283 "/>
<polygon class="secondary_color" id="SECONDARY_6_" fill="#FFFDB5" points="340.134,574.249 338.991,579.326 335.612,575.34 "/>
<polygon class="secondary_color" id="SECONDARY_7_" fill="#FFFDB5" points="348.392,571.018 348.317,576.219 344.188,572.997 "/>
<polygon class="secondary_color" id="SECONDARY_8_" fill="#FFFDB5" points="300.567,584.324 305.542,582.635 303.871,587.567 "/>
<polygon class="secondary_color" id="SECONDARY_9_" fill="#FFFDB5" points="310.536,591.748 314.091,587.914 315.005,593.037 "/>
<polygon class="secondary_color" id="SECONDARY_10_" fill="#FFFDB5" points="322.453,594.325 324.767,589.654 327.105,594.313 "/>
<polygon class="secondary_color" id="SECONDARY_11_" fill="#FFFDB5" points="334.101,593.282 334.75,588.12 338.495,591.771 "/>
<polygon class="secondary_color" id="SECONDARY_12_" fill="#FFFDB5" points="345.691,587.612 343.885,582.728 348.903,584.284 "/>
<path class="primary_color" id="PRIMARY" fill="#00BC03" stroke="#231F20" stroke-miterlimit="10" d="M324.695,518.721c-6.254,0-11.93,2.403-16.146,6.313
	c4.07,5.882,10.861,9.736,18.555,9.736c6.404,0,12.18-2.673,16.286-6.958C339.087,522.288,332.319,518.721,324.695,518.721z"/>
</svg>
