<?xml version="1.0" encoding="utf-8"?>
<!-- Generator: Adobe Illustrator 16.0.0, SVG Export Plug-In . SVG Version: 6.00 Build 0)  -->
<svg version="1.1" id="Layer_1" xmlns="http://www.w3.org/2000/svg" xmlns:xlink="http://www.w3.org/1999/xlink" x="0px" y="0px"
	 width="612px" height="792px" viewBox="0 0 612 792" enable-background="new 0 0 612 792" xml:space="preserve">
<rect id="head_frame" x="206.564" y="385.998" opacity="0" fill="#BBBCBE" width="151" height="131"/>
<path class="secondary_color" id="SECONDARY_1_" fill="#FFFDB5" stroke="#231F20" stroke-miterlimit="10" d="M256.991,421.519
	c7.938,2.225,2.117,9.964-3.094,13.795c-0.995,0.702-2.075,1.275-3.235,1.699c-3.707,1.362-7.653,1.002-11.311-0.722
	c-0.914-0.43-1.81-0.946-2.68-1.539c-5.222-4.307-9.801-10.461-11.644-17.008c-0.264-0.935-0.472-1.878-0.616-2.823
	c-0.146-7.114,1.602-16.71,13.533-21.663c0.253,9.208,0.47,17.102,10.616,22.878c0.68,0.525,1.349,1.034,2.004,1.515
	c1.967,1.442,3.808,2.633,5.436,3.428C256.355,421.232,256.687,421.378,256.991,421.519z"/>
<path class="secondary_color" id="SECONDARY" fill="#FFFDB5" stroke="#231F20" stroke-miterlimit="10" d="M304.814,421.519
	c-7.938,2.225-2.116,9.964,3.094,13.795c0.996,0.702,2.076,1.275,3.234,1.699c3.709,1.362,7.654,1.002,11.313-0.722
	c0.914-0.43,1.811-0.946,2.68-1.539c5.222-4.307,9.802-10.461,11.645-17.008c0.264-0.935,0.471-1.878,0.615-2.823
	c0.146-7.114-1.602-16.71-13.532-21.663c-0.253,9.208-0.471,17.102-10.618,22.878c-0.679,0.525-1.347,1.034-2.003,1.515
	c-1.967,1.442-3.808,2.633-5.434,3.428C305.451,421.232,305.119,421.378,304.814,421.519z"/>
<path class="primary_color" id="PRIMARY_2_" fill="#00BC03" stroke="#231F20" stroke-miterlimit="10" d="M256.066,416.663
	c1.682,1.754-1.985,7.898-8.194,13.727c-6.208,5.827-12.605,9.128-14.289,7.375c-1.683-1.754,1.985-7.899,8.195-13.728
	C247.987,418.21,254.384,414.909,256.066,416.663z"/>
<path class="primary_color" id="PRIMARY_1_" fill="#00BC03" stroke="#231F20" stroke-miterlimit="10" d="M306.646,416.663
	c-1.686,1.754,1.986,7.898,8.195,13.727c6.207,5.827,12.605,9.128,14.287,7.375c1.682-1.754-1.984-7.899-8.195-13.728
	C314.726,418.21,308.328,414.909,306.646,416.663z"/>
<ellipse class="primary_color" id="PRIMARY" fill="#00BC03" stroke="#231F20" stroke-miterlimit="10" cx="281.741" cy="462.317" rx="50.28" ry="49.733"/>
<line fill="none" stroke="#231F20" stroke-width="3" stroke-miterlimit="10" x1="260.511" y1="439.426" x2="302.973" y2="461.444"/>
<line fill="none" stroke="#231F20" stroke-width="3" stroke-miterlimit="10" x1="302.972" y1="439.426" x2="260.51" y2="461.444"/>
<path class="secondary_color" id="SECONDARY_2_" fill="#FFFDB5" stroke="#231F20" stroke-width="1.1678" stroke-miterlimit="10" d="M308.992,487.062
	c0,3.389-3.144,6.136-7.022,6.136h-40.443c-3.877,0-7.021-2.747-7.021-6.136l0,0c0-3.389,3.144-6.139,7.021-6.139h40.443
	C305.849,480.923,308.992,483.673,308.992,487.062L308.992,487.062z"/>
<line fill="none" stroke="#231F20" stroke-width="1.1408" stroke-miterlimit="10" x1="258.179" y1="482.252" x2="261.232" y2="493.041"/>
<line fill="none" stroke="#231F20" stroke-width="1.1678" stroke-miterlimit="10" x1="262.029" y1="493.046" x2="265.099" y2="480.923"/>
<line fill="none" stroke="#231F20" stroke-width="1.1678" stroke-miterlimit="10" x1="266.12" y1="480.923" x2="268.979" y2="493.046"/>
<line fill="none" stroke="#231F20" stroke-width="1.1678" stroke-miterlimit="10" x1="269.979" y1="493.046" x2="273.091" y2="480.923"/>
<line fill="none" stroke="#231F20" stroke-width="1.1678" stroke-miterlimit="10" x1="273.965" y1="480.923" x2="277.076" y2="493.046"/>
<line fill="none" stroke="#231F20" stroke-width="1.1678" stroke-miterlimit="10" x1="277.909" y1="493.046" x2="281.104" y2="480.923"/>
<line fill="none" stroke="#231F20" stroke-width="1.1678" stroke-miterlimit="10" x1="281.543" y1="480.923" x2="285.441" y2="493.046"/>
<line fill="none" stroke="#231F20" stroke-width="1.1678" stroke-miterlimit="10" x1="285.899" y1="492.814" x2="289.057" y2="480.923"/>
<line fill="none" stroke="#231F20" stroke-width="1.1678" stroke-miterlimit="10" x1="289.446" y1="480.923" x2="293.481" y2="493.412"/>
<line fill="none" stroke="#231F20" stroke-width="1.1678" stroke-miterlimit="10" x1="293.514" y1="493.412" x2="297.386" y2="480.923"/>
<line fill="none" stroke="#231F20" stroke-width="1.1678" stroke-miterlimit="10" x1="297.436" y1="480.923" x2="301.433" y2="493.197"/>
<line fill="none" stroke="#231F20" stroke-width="1.1678" stroke-miterlimit="10" x1="301.486" y1="493.604" x2="305.354" y2="481.329"/>
</svg>
