<?xml version="1.0" encoding="utf-8"?>
<!-- Generator: Adobe Illustrator 16.0.0, SVG Export Plug-In . SVG Version: 6.00 Build 0)  -->
<svg version="1.1" id="Layer_1" xmlns="http://www.w3.org/2000/svg" xmlns:xlink="http://www.w3.org/1999/xlink" x="0px" y="0px"
	 width="612px" height="792px" viewBox="0 0 612 792" enable-background="new 0 0 612 792" xml:space="preserve">
<rect x="266.5" y="357.651" fill-opacity="0" fill="#231F20" width="81" height="78.206"/>
<path id="SECONDARY_11_" fill="#960303" stroke="#231F20" stroke-miterlimit="10" d="M267.016,400.527
	c0,18.865,17.383,34.159,38.825,34.159s38.825-15.294,38.825-34.159c0.001-1.715-0.144-3.4-0.42-5.047
	c-0.277-1.647-0.689-3.256,0.242-4.906c-2-1.474-2.659-2.988-0.602-5.901c-3.601-0.004-4.486-1.407-3.131-5.668
	c-3.334,1.585-4.427,0.312-4.215-4.315c-2.584,2.228-3.864,1.102-4.498-3.135c-2.094,2.149-3.541,1.188-4.645-2.426
	c-1.938,1.874-3.532,1.095-4.95-2.178c-1.897,1.914-3.619,1.335-5.383-2.01c-1.787,2.405-3.615,2.043-5.918-1.445
	c-1.441,3-3.357,2.874-6.34-1.359c-0.916,4.232-2.832,4.359-7.278-1.474c0.702,6.321-1.127,6.683-8.854-1.039
	c4.177,8.662,2.455,9.241-11.266,3.433c10.404,7.167,8.811,7.946-3.762,9.17c9.531,0.516,8.084,1.477,1.37,4.89
	c3.986-1.325,2.706-0.199,0.86,1.499c-0.527,0.702-1.619,1.975-2.608,3.313C269.314,387.28,267.016,393.667,267.016,400.527z"/>
</svg>
