<?xml version="1.0" encoding="utf-8"?>
<!-- Generator: Adobe Illustrator 16.0.0, SVG Export Plug-In . SVG Version: 6.00 Build 0)  -->
<svg version="1.1" id="Layer_1" xmlns="http://www.w3.org/2000/svg" xmlns:xlink="http://www.w3.org/1999/xlink" x="0px" y="0px"
	 width="612px" height="792px" viewBox="0 0 612 792" enable-background="new 0 0 612 792" xml:space="preserve">
<rect x="289.5" y="363.004" fill-opacity="0" fill="#231F20" width="81" height="54.487"/>
<path id="PRIMARY" fill="#FF0000" stroke="#231F20" stroke-miterlimit="10" d="M308.633,384.687
	c1.043-12.072,8.09-12.472,16.368-15.937c-0.396,0.804-1.271,1.276-2.485,1.648c0.004,1.325-0.731,2.447-1.434,3.68
	c-0.314,1.257-0.595,2.627-0.595,4.064c0,3.968,2.145,7.413,5.294,9.167c0.708,0.395,1.465,0.698,2.209,0.952
	c-0.431,1.465-0.778,2.49-0.905,2.761c-3.363,7.16-1.033,15.263-0.211,19.397c-0.406,0.863-0.811,1.672-1.186,2.409
	c-0.195-0.11-0.405-0.237-0.649-0.406C313.366,404.364,307.542,397.288,308.633,384.687z"/>
</svg>
