<?xml version="1.0" encoding="utf-8"?>
<!-- Generator: Adobe Illustrator 16.0.0, SVG Export Plug-In . SVG Version: 6.00 Build 0)  -->
<svg version="1.1" id="Layer_1" xmlns="http://www.w3.org/2000/svg" xmlns:xlink="http://www.w3.org/1999/xlink" x="0px" y="0px"
	 width="612px" height="792px" viewBox="0 0 612 792" enable-background="new 0 0 612 792" xml:space="preserve">
<rect x="179" y="272.663" fill-opacity="0" fill="#231F20" width="256" height="248.183"/>
<path id="SECONDARY_11_" fill="#960303" stroke="#231F20" stroke-width="3.167" stroke-miterlimit="10" d="M180.63,408.728
	c0,59.868,54.938,108.403,122.707,108.403c67.769,0,122.707-48.535,122.707-108.403c0.003-5.441-0.453-10.791-1.327-16.018
	c-0.876-5.228-2.179-10.334,0.766-15.568c-6.321-4.676-8.404-9.483-1.901-18.728c-11.379-0.014-14.179-4.466-9.895-17.988
	c-10.537,5.031-13.991,0.99-13.321-13.693c-8.167,7.069-12.213,3.496-14.216-9.95c-6.617,6.821-11.191,3.77-14.68-7.7
	c-6.123,5.947-11.163,3.474-15.645-6.911c-5.997,6.074-11.438,4.236-17.013-6.379c-5.647,7.631-11.426,6.483-18.703-4.585
	c-4.556,9.521-10.611,9.119-20.038-4.313c-2.895,13.432-8.951,13.833-23.003-4.678c2.219,20.059-3.562,21.207-27.981-3.297
	c13.201,27.488,7.759,29.326-35.605,10.895c32.883,22.743,27.846,25.216-11.889,29.102c30.123,1.636,25.549,4.687,4.33,15.517
	c12.599-4.206,8.553-0.632,2.719,4.755c-1.667,2.227-5.117,6.268-8.244,10.514C187.895,366.687,180.63,386.958,180.63,408.728z"/>
</svg>
