<?xml version="1.0" encoding="utf-8"?>
<!-- Generator: Adobe Illustrator 16.0.0, SVG Export Plug-In . SVG Version: 6.00 Build 0)  -->
<svg version="1.1" id="Layer_1" xmlns="http://www.w3.org/2000/svg" xmlns:xlink="http://www.w3.org/1999/xlink" x="0px" y="0px"
	 width="612px" height="792px" viewBox="0 0 612 792" enable-background="new 0 0 612 792" xml:space="preserve">
<rect x="183" y="286.003" fill-opacity="0" fill="#231F20" width="256" height="170.489"/>
<path id="SECONDARY_12_" fill="#960303" stroke="#231F20" stroke-width="3.1447" stroke-miterlimit="10" d="M310.654,383.902
	c-0.163-0.724-0.407-2.891-0.642-6.059c-0.235-3.163-0.463-7.331-1.111-11.599c-3.226-0.951-6.759-2.167-9.957-3.963
	c-9.58-5.381-16.099-15.954-16.099-28.133c0-4.409,0.852-8.614,1.809-12.473c2.133-3.783,4.371-7.227,4.358-11.295
	c5.534-1.711,8.824-4.05,8.229-9.589c7.901,2.306,11.914,1.41,11.679-6.545c7.756,7.955,10.936,8.51,10.45-2.207
	c6.438,12.756,9.21,14.243,10.651,0.436c3.55,17.552,5.766,19.807,10.954,2.918c0.824,22.166,4.916,24.629,20.604,14.099
	c-7.873,15.318-4.154,17.646,7.997,16.39c-5.327,6.148-2.222,8.718,2.12,11.435c1.004,3.046,3.247,6.242,4.938,9.934
	c3.38,7.383,4.553,16.775,2.537,29.688c-6.46,41.416-32.197,59.974-78.818,77.433C276.389,463.343,319.929,425.056,310.654,383.902z
	"/>
</svg>
