<?xml version="1.0" encoding="utf-8"?>
<!-- Generator: Adobe Illustrator 16.0.0, SVG Export Plug-In . SVG Version: 6.00 Build 0)  -->
<svg version="1.1" id="Layer_1" xmlns="http://www.w3.org/2000/svg" xmlns:xlink="http://www.w3.org/1999/xlink" x="0px" y="0px"
	 width="612px" height="792px" viewBox="0 0 612 792" enable-background="new 0 0 612 792" xml:space="preserve">
<rect x="194" y="304.248" fill-opacity="0" fill="#231F20" width="256" height="172"/>
<path id="PRIMARY" fill="#FF0000" stroke="#231F20" stroke-width="3.1586" stroke-miterlimit="10" d="M254.469,372.693
	c3.296-38.109,25.568-39.371,51.731-50.307c-1.253,2.539-4.016,4.028-7.855,5.204c0.012,4.184-2.312,7.726-4.531,11.617
	c-0.994,3.969-1.88,8.294-1.88,12.83c0,12.527,6.778,23.401,16.732,28.936c2.237,1.246,4.629,2.204,6.981,3.006
	c-1.361,4.624-2.46,7.861-2.861,8.715c-10.63,22.602-3.266,48.179-0.667,61.232c-1.284,2.725-2.562,5.277-3.747,7.605
	c-0.617-0.349-1.28-0.75-2.052-1.283C269.429,434.81,251.021,412.473,254.469,372.693z"/>
</svg>
