<?xml version="1.0" encoding="utf-8"?>
<!-- Generator: Adobe Illustrator 16.0.0, SVG Export Plug-In . SVG Version: 6.00 Build 0)  -->
<svg version="1.1" id="Layer_1" xmlns="http://www.w3.org/2000/svg" xmlns:xlink="http://www.w3.org/1999/xlink" x="0px" y="0px"
	 width="612px" height="792px" viewBox="0 0 612 792" enable-background="new 0 0 612 792" xml:space="preserve">
<rect x="192" y="269.509" fill-opacity="0" fill="#231F20" width="230" height="254.313"/>
<path id="PRIMARY_2_" fill="#FF0000" stroke="#231F20" stroke-width="2.8435" stroke-miterlimit="10" d="M219.685,396.662
	c0,70.227,40.033,127.159,89.445,127.159c17.966,0,34.695-7.527,48.707-20.485c3.505-3.24,6.838-6.821,10.243-9.836
	c2.878-4.755,5.826-8.948,14.805-7.568c-3.514-10.312-0.995-15.05,14.464-16.779c-10.903-8.23-8.865-13.453,7.772-21.267
	c-13.08-3.048-11.566-8.685,2.9-19.126c-12.004-1.185-11.056-7.174,2.313-18.083c-12.09-1.354-11.76-7.63,2.291-19.96
	c-14.051-0.439-14.381-6.714,0.349-22.54c-16.008,3.563-16.956-2.426-4.816-21.698c-14.6,7.646-16.116,2.008-4.922-18.813
	c-14.752,9.96-16.79,4.738-5.019-19.281c-16.327,14.059-18.846,9.319-14.753-16.138c-9.558,16.526-12.506,12.334-15.991-6.322
	c-2.798,10.885-6.131,7.306-10.438,0.071c-2.701,0.756-6.375-2.144-10.193-4.671c-11.458-7.583-24.238-11.818-37.712-11.818
	C259.718,269.506,219.685,326.436,219.685,396.662z"/>
<ellipse fill="none" stroke="#231F20" stroke-width="2.8435" stroke-miterlimit="10" cx="309.13" cy="292.579" rx="7.099" ry="7.118"/>
<ellipse fill="none" stroke="#231F20" stroke-width="2.8435" stroke-miterlimit="10" cx="309.13" cy="502.265" rx="7.099" ry="7.119"/>
</svg>
