<?xml version="1.0" encoding="utf-8"?>
<!-- Generator: Adobe Illustrator 16.0.0, SVG Export Plug-In . SVG Version: 6.00 Build 0)  -->
<svg version="1.1" id="Layer_1" xmlns="http://www.w3.org/2000/svg" xmlns:xlink="http://www.w3.org/1999/xlink" x="0px" y="0px"
	 width="612px" height="792px" viewBox="0 0 612 792" enable-background="new 0 0 612 792" xml:space="preserve">
<rect x="270.5" y="344.004" fill-opacity="0" fill="#231F20" width="81" height="54.487"/>
<path id="SECONDARY_12_" fill="#960303" stroke="#231F20" stroke-miterlimit="10" d="M310.891,375.292
	c-0.052-0.231-0.129-0.924-0.203-1.937c-0.074-1.011-0.146-2.343-0.352-3.707c-1.021-0.304-2.139-0.692-3.15-1.267
	c-3.031-1.72-5.094-5.099-5.094-8.991c0-1.409,0.27-2.753,0.572-3.986c0.675-1.209,1.383-2.31,1.379-3.61
	c1.751-0.547,2.792-1.294,2.604-3.064c2.5,0.737,3.77,0.451,3.695-2.092c2.454,2.542,3.46,2.72,3.307-0.705
	c2.037,4.077,2.914,4.552,3.37,0.139c1.123,5.609,1.824,6.33,3.466,0.933c0.261,7.084,1.556,7.871,6.52,4.506
	c-2.491,4.896-1.314,5.64,2.53,5.238c-1.686,1.965-0.703,2.786,0.671,3.654c0.317,0.974,1.027,1.995,1.563,3.175
	c1.069,2.359,1.44,5.361,0.803,9.488c-2.044,13.236-10.188,19.167-24.938,24.747C300.049,400.681,313.825,388.444,310.891,375.292z"
	/>
</svg>
